<svg width="391" height="391" viewBox="0 0 391 391" fill="none" xmlns="http://www.w3.org/2000/svg">
<path d="M37.7207 205.552C38.0139 204.732 50.5694 157.524 50.5694 157.524L15.9387 137.138L42.4724 104.462L80.7253 87.4321L120.911 122.334L170.329 120.939L232.884 70.114L255.502 93.851L301.021 88.5453L302.694 92.1784L271.419 123.73L315.819 118.147L318.611 125.131L282.932 155.314L285.723 162.015L337.362 147.168L327.587 165.876L354.116 169.509L354.393 173.696L347.132 178.725L355.511 178.182L375.061 194.376L334.289 197.45L355.788 199.964L339.594 214.507L333.436 215.327L342.929 218.955L346.279 232.363L341.251 241.855L319.208 301.336L300.777 290.475L285.142 302.2L235.99 316.444L219.796 310.856L199.703 320.913L103.626 306.083L110.887 293.793L91.6189 288.205L83.799 282.34L65.0907 300.212L59.2257 280.385L45.5407 278.153L65.0907 256.931L89.1046 257.208L49.4615 243.528L57.2815 210.852L37.7207 205.552Z" fill="#FCFFFD"/>
<path d="M298.599 278.848L315.597 285.012L329.966 236.267L319.746 229.674L293.793 212.981L285.604 180.354C285.604 180.354 309.379 180.077 309.379 178.779C309.379 177.481 319.317 159.729 319.317 159.729L281.65 172.719L276.04 153.685L274.308 146.755L307.326 125.783L267.384 134.2L260.02 119.049L290.714 97.5925L239.243 111.256L227.117 96.968L167.804 139.381L111.956 141.976L79.0525 113.841C79.0525 113.841 74.2899 105.179 66.0627 111.24C57.8354 117.3 30.9976 138.935 30.9976 138.935L84.4777 158.692C84.4777 158.692 147.825 165.1 167.397 166.132C186.969 167.163 223.332 164.584 226.383 161.983C229.435 159.381 227.546 186.561 224.515 203.879C221.485 221.197 206.774 288.308 206.774 288.308L141.83 303.025L198.112 308.217L298.599 278.848Z" fill="#DF5959"/>
<path d="M293.967 222.365C294.171 223.38 294.672 224.311 295.407 225.04C296.142 225.769 297.077 226.263 298.094 226.46C299.125 226.76 300.222 226.74 301.242 226.402C302.261 226.065 303.154 225.426 303.802 224.57C304.951 223.15 305.782 221.5 306.24 219.731C306.571 218.498 306.859 217.249 307.168 216.011C307.206 215.865 307.25 215.723 307.315 215.468C308.135 215.941 308.852 216.446 309.585 216.962C309.407 219.168 308.946 221.341 308.211 223.429C307.549 225.173 306.245 226.4 304.746 227.432C304.556 227.557 304.35 227.665 304.111 227.812C304.151 227.978 304.202 228.141 304.263 228.301C304.655 229.058 305.268 229.677 306.021 230.077C306.774 230.477 307.631 230.638 308.477 230.538C309.544 230.46 310.57 230.098 311.449 229.489C312.328 228.879 313.027 228.045 313.473 227.073C313.653 226.709 313.848 226.351 314.016 225.987C314.016 225.949 314.103 225.938 314.147 225.911C314.352 226.022 314.533 226.173 314.678 226.355C314.823 226.538 314.93 226.748 314.992 226.972C315.054 227.197 315.069 227.432 315.038 227.663C315.007 227.894 314.929 228.117 314.809 228.317C313.685 230.288 312.23 231.863 309.922 232.525C308.919 232.843 307.861 232.953 306.814 232.846C305.767 232.74 304.753 232.42 303.834 231.906C302.663 231.26 301.632 230.389 300.798 229.343C300.708 229.207 300.584 229.097 300.438 229.024C300.293 228.951 300.13 228.917 299.968 228.925C296.84 229.017 295.705 228.485 293.652 227.296C293.505 227.459 293.353 227.622 293.206 227.795C292.1 229.139 290.822 230.331 289.405 231.342C287.589 232.581 285.39 233.132 283.203 232.895C282.796 232.868 282.389 232.802 281.987 232.743C280.214 232.498 278.605 231.573 277.501 230.163C276.958 229.473 276.415 228.751 275.818 227.991C274.124 229.528 272.054 230.353 269.844 231.146C269.92 231.792 269.969 232.422 270.078 233.047C270.328 234.621 270.881 236.131 271.707 237.494C272.106 238.23 272.669 238.865 273.351 239.349C274.034 239.834 274.818 240.156 275.644 240.291C277.358 240.569 279.112 240.166 280.532 239.167C281.194 238.69 281.804 238.144 282.351 237.538C282.975 236.87 283.008 236.826 283.866 237.299C283.774 238.738 281.335 241.616 279.185 242.789C279.304 243.061 279.407 243.332 279.549 243.604C280.298 245.067 281.534 246.222 283.043 246.872C284.553 247.521 286.242 247.623 287.819 247.161C288.411 246.998 288.976 246.748 289.552 246.542C290.127 246.335 290.638 246.113 291.213 245.95C291.541 245.876 291.88 245.876 292.207 245.95C291.615 246.938 291.121 248.013 290.198 248.632C289.212 249.334 288.092 249.823 286.908 250.07C285.724 250.317 284.501 250.316 283.317 250.066C282.264 249.826 281.27 249.375 280.395 248.741C279.52 248.108 278.781 247.304 278.224 246.379C277.756 245.553 277.334 244.703 276.958 243.832C276.877 243.674 276.806 243.511 276.714 243.321C275.764 243.153 274.808 242.996 273.857 242.816C273.477 242.746 273.108 242.643 272.739 242.545C271.713 242.304 270.754 241.838 269.931 241.181C269.109 240.523 268.442 239.691 267.982 238.743C267.84 238.472 267.699 238.2 267.498 237.826C267.248 238.043 267.031 238.233 266.809 238.418C264.153 240.628 261.117 241.22 257.805 240.492C256.722 240.254 255.716 239.75 254.878 239.026C254.637 238.851 254.454 238.61 254.349 238.332C254.245 238.054 254.225 237.751 254.291 237.462C254.319 237.371 254.361 237.285 254.416 237.207C255.535 237.603 256.588 238.054 257.674 238.347C258.474 238.524 259.289 238.622 260.107 238.64C260.712 238.682 261.318 238.593 261.885 238.38C262.452 238.166 262.966 237.833 263.393 237.402C264.024 236.769 264.588 236.072 265.076 235.322C265.789 234.193 266.307 232.952 266.608 231.651C266.657 231.461 266.667 231.266 266.705 231.027C263.99 230.543 261.601 229.533 259.695 227.567C259.01 226.893 258.529 226.038 258.31 225.102C258.629 224.701 259.082 224.429 259.586 224.336C259.736 224.296 259.894 224.299 260.042 224.345C260.19 224.392 260.322 224.479 260.422 224.597C260.884 225.042 261.351 225.482 261.829 225.906C264.365 228.138 267.308 228.572 270.458 227.703C271.559 227.419 272.56 226.835 273.349 226.015C274.137 225.195 274.682 224.172 274.922 223.06C274.939 222.987 274.948 222.912 274.949 222.837C274.943 222.796 274.93 222.755 274.911 222.718C274.759 222.653 274.569 222.588 274.368 222.506C273.711 222.218 273.043 221.963 272.413 221.621C269.757 220.198 268.508 217.885 268.28 214.952C268.21 214.587 268.257 214.209 268.415 213.872C268.574 213.536 268.834 213.258 269.16 213.079C269.263 213.296 269.366 213.491 269.448 213.692C269.934 215.017 270.645 216.248 271.549 217.331C272.067 217.931 272.654 218.467 273.298 218.927C275.144 220.209 277.099 220.128 279.06 219.199C280.624 218.442 281.853 217.135 282.514 215.528C282.771 214.915 282.987 214.285 283.16 213.643C283.263 213.285 283.459 213.1 283.817 213.16C284.175 213.22 284.42 213.252 284.751 213.307C284.851 213.97 284.991 214.626 285.169 215.273C285.431 216.179 285.777 217.059 286.201 217.901C286.529 218.528 287.016 219.058 287.612 219.439C288.208 219.82 288.894 220.039 289.601 220.073C291.444 220.278 293.307 219.932 294.955 219.079C296.014 218.584 296.837 217.693 297.247 216.598C297.79 215.034 298.333 213.453 298.876 211.884C298.925 211.737 298.947 211.585 298.995 211.439C299.077 211.167 299.272 211.037 299.539 211.178C300.359 211.656 301.168 212.145 301.95 212.666C302.015 212.739 302.063 212.826 302.09 212.92C302.117 213.014 302.123 213.112 302.107 213.209C302.039 213.742 301.936 214.27 301.798 214.789C301.285 216.758 300.271 218.56 298.854 220.019C297.724 221.186 296.242 221.95 294.635 222.191C294.45 222.245 294.255 222.3 293.967 222.365ZM283.888 219.21C282.872 220.084 281.944 220.926 280.971 221.713C279.999 222.501 278.674 222.615 277.382 222.718C277.382 223.021 277.399 223.324 277.431 223.625C277.635 225.202 278.377 226.661 279.531 227.755C280.686 228.849 282.182 229.512 283.768 229.631C284.856 229.745 285.955 229.595 286.973 229.195C287.99 228.796 288.897 228.157 289.617 227.334C290.664 226.131 291.396 224.687 291.746 223.131C291.763 222.974 291.763 222.815 291.746 222.658C288.46 222.962 285.788 221.952 283.888 219.21Z" fill="#FCFFFD"/>
<path d="M77.4995 148.58C77.7187 148.448 77.9308 148.305 78.1349 148.151C81.4294 145.23 84.8967 142.51 88.5181 140.005C89.6042 139.267 90.8098 138.653 91.9394 137.952C93.6175 136.949 95.5342 136.414 97.4894 136.405C101.915 136.263 106.341 136.084 110.767 135.938C111.636 135.905 112.505 135.938 113.412 135.938C113.358 136.075 113.292 136.208 113.216 136.334C110.357 140.304 107.219 144.066 103.827 147.592C103.69 147.744 103.522 147.865 103.335 147.947C103.148 148.03 102.945 148.071 102.741 148.069C101.112 148.113 99.4824 148.183 97.8261 148.232C93.7314 148.357 89.6368 148.46 85.5422 148.596C83.1853 148.672 80.8339 148.786 78.4824 148.884C78.2055 148.884 77.9394 148.884 77.657 148.884L77.4995 148.58Z" fill="#0C3185"/>
<path d="M349.652 181.549L363.304 192.627L363.239 192.812C350.602 192.85 337.971 193.051 325.339 192.986L325.29 192.817L349.652 181.549Z" fill="#0C3185"/>
<path d="M246.612 136.475C241.155 136.768 235.92 138.104 230.505 139.109C230.505 138.528 230.457 138.083 230.473 137.632C230.489 137.181 230.799 137.089 231.141 137.002C233.215 136.459 235.263 135.748 237.364 135.34C241.709 134.504 246.053 133.803 250.365 133.076C251.017 132.967 251.69 133 252.353 132.956C252.569 132.924 252.791 132.973 252.973 133.095C253.156 133.216 253.287 133.401 253.341 133.613C253.857 135.139 254.46 136.638 254.899 138.186C256.102 142.605 257.036 147.094 257.696 151.626C257.854 152.637 258.006 153.652 258.093 154.673C258.201 155.949 258.467 155.922 256.958 156.351C255.842 156.635 254.713 156.861 253.574 157.03C253.146 157.107 252.712 157.143 252.276 157.138C251.668 157.138 251.636 157.095 251.522 156.514C250.305 150.361 248.774 144.284 247.177 138.229C246.998 137.643 246.797 137.062 246.612 136.475Z" fill="#0C3185"/>
<path d="M297.051 286.864C296.916 286.978 296.785 287.097 296.649 287.206C294.629 288.835 292.615 290.464 290.584 292.05C290.26 292.299 289.891 292.484 289.497 292.593C273.581 297.231 257.642 301.825 241.605 306.028C238.07 306.962 234.508 307.809 230.951 308.656C229.655 308.976 228.319 309.104 226.986 309.037C226.751 309.052 226.516 309.019 226.293 308.941C226.071 308.862 225.867 308.74 225.694 308.58C225.974 308.403 226.268 308.248 226.574 308.119C228.295 307.538 230.011 306.935 231.754 306.424C241.328 303.611 250.93 300.896 260.482 298.007C272.429 294.396 284.29 290.643 296.193 286.951C296.454 286.869 296.736 286.798 296.986 286.722L297.051 286.864Z" fill="#0C3185"/>
<path d="M62.1853 116.176C62.0984 117.001 62.0441 117.805 61.9246 118.658C61.4196 122.128 60.8765 125.592 60.3932 129.063C60.2484 130.181 60.1686 131.307 60.1542 132.435C60.0619 136.122 60.1542 139.81 60.3878 143.492C60.4203 144.035 60.3878 144.578 60.3878 145.191C60.1975 145.13 60.0152 145.046 59.8447 144.942C59.4483 144.627 59.0518 144.295 58.6826 143.942C55.9198 141.27 53.3671 138.389 51.0472 135.324C50.6019 134.732 50.2272 134.091 49.7982 133.483C49.6307 133.256 49.5277 132.987 49.5 132.706C49.4723 132.425 49.5209 132.142 49.6407 131.886C49.8362 131.409 50.01 130.925 50.2381 130.469C52.7849 125.189 56.4569 120.531 60.996 116.822C61.3218 116.556 61.6802 116.323 62.0224 116.078L62.1853 116.176Z" fill="#0C3185"/>
<path d="M316.352 189.326C316.487 189.157 316.618 188.978 316.759 188.81C321.299 183.531 325.837 178.253 330.373 172.974C330.502 172.804 330.675 172.672 330.873 172.592C331.071 172.512 331.286 172.486 331.497 172.518C333.947 172.703 336.385 172.86 338.845 173.034L347.04 173.609C347.408 173.622 347.774 173.684 348.126 173.794C337.601 179.105 327.039 184.297 316.455 189.45L316.352 189.326Z" fill="#0C3185"/>
<path d="M64.5585 112.554C64.6671 113.021 64.7486 113.493 64.8952 113.949C65.1201 114.787 65.4088 115.605 65.7586 116.399C66.595 118.066 67.9309 118.603 69.7284 118.136C70.8212 117.833 71.8119 117.24 72.5957 116.42C74.0228 114.908 75.1146 113.111 75.7998 111.147L76.1962 110.126C76.7664 110.463 77.2823 110.762 77.8253 111.087C77.8984 111.128 77.9619 111.184 78.0117 111.251C78.0614 111.318 78.0962 111.395 78.1136 111.477C78.1311 111.559 78.1309 111.644 78.113 111.725C78.0952 111.807 78.06 111.884 78.01 111.951C77.7393 112.481 77.4964 113.025 77.2823 113.58C76.7341 114.911 76.5468 116.362 76.7392 117.789C76.9186 119.134 77.5569 120.376 78.5464 121.305C79.5359 122.235 80.8158 122.794 82.1698 122.888C83.1939 122.972 84.2229 122.804 85.1675 122.399L88.3443 121.058C89.0775 121.704 89.0992 121.943 88.4801 122.616C87.8892 123.263 87.1596 123.768 86.3459 124.094C85.5934 124.415 84.8161 124.674 84.0216 124.87C83.724 124.925 83.4447 125.053 83.2087 125.243C82.9727 125.432 82.7874 125.678 82.6694 125.956C82.3122 126.636 81.8883 127.278 81.4041 127.873C80.6843 128.801 79.7839 129.574 78.7571 130.144C77.7304 130.714 76.5987 131.071 75.4305 131.191C72.5849 131.506 70.2714 130.371 68.4739 128.194C67.0642 126.413 66.2425 124.238 66.1225 121.97C66.0896 121.371 65.8606 120.798 65.4708 120.341C64.1759 118.877 63.2455 117.128 62.7556 115.236C62.6435 114.642 62.7698 114.027 63.1072 113.526C63.4446 113.024 63.9659 112.674 64.5585 112.554ZM80.1496 124.642C78.9296 124.151 77.8602 123.347 77.0488 122.312C76.2831 121.324 75.626 120.249 74.92 119.217L74.5453 118.63C72.7641 119.869 70.9666 120.868 68.8215 120.928C68.7161 122.845 69.1587 124.753 70.0977 126.429C70.772 127.582 71.8767 128.42 73.169 128.76C74.4613 129.099 75.8353 128.911 76.989 128.237C78.3925 127.399 79.4978 126.141 80.1496 124.642Z" fill="#FCFFFD"/>
<path d="M221.132 104.153C222.408 111.826 221.974 119.358 221.132 126.961L215.522 128.253C216.027 121.481 216.848 114.829 216.771 108.019C216.413 108.166 216.152 108.258 215.908 108.378C212.889 109.826 209.873 111.287 206.861 112.76C206.546 112.912 206.318 112.896 206.133 112.624C206.039 112.503 205.955 112.374 205.883 112.239C205.563 111.62 205.617 111.408 206.252 111.104C208.537 110.018 210.827 108.931 213.122 107.845C215.506 106.732 217.906 105.635 220.301 104.533L221.132 104.153Z" fill="#0C3185"/>
<path d="M277.447 193.192C277.437 193.246 277.437 193.301 277.447 193.355C277.622 194.127 277.968 194.85 278.459 195.471C278.95 196.091 279.575 196.593 280.287 196.94C280.998 197.287 281.779 197.469 282.57 197.473C283.362 197.478 284.144 197.305 284.86 196.966C285.695 196.576 286.442 196.022 287.059 195.337C287.282 195.093 287.515 194.859 287.727 194.631C288.656 195.142 288.868 195.821 288.428 196.651C286.543 200.198 281.764 200.893 278.984 198.9C278.071 198.233 277.281 197.414 276.649 196.478C276.502 196.266 276.366 196.054 276.16 195.755C275.992 195.994 275.861 196.201 275.715 196.391C275.111 197.247 274.454 198.065 273.749 198.84C272.796 199.842 271.545 200.51 270.182 200.744C268.819 200.978 267.417 200.765 266.184 200.138C265.009 199.62 263.944 198.883 263.045 197.966C262.176 197.064 262.144 196.733 262.817 195.554C262.996 195.685 263.181 195.81 263.36 195.94C264.693 197.032 266.275 197.779 267.965 198.112C268.974 198.326 270.022 198.252 270.99 197.9C271.538 197.695 272.045 197.395 272.489 197.015C273.557 195.966 274.3 194.631 274.629 193.17C274.287 193.111 273.993 193.051 273.7 193.013C270.664 192.6 269.128 190.439 268.492 188.223C268.454 188.074 268.432 187.921 268.427 187.767C268.346 186.909 268.4 186.838 269.328 186.681L269.66 187.153C270.078 187.734 270.474 188.337 270.92 188.897C272.522 190.928 274.65 191.563 277.143 191.21C278.044 191.063 278.907 190.739 279.681 190.255C280.455 189.771 281.124 189.137 281.65 188.392C281.844 188.144 282.091 187.943 282.373 187.803C282.655 187.664 282.965 187.591 283.28 187.588C283.339 188.277 283.041 189.011 282.259 190.254C281.783 191.082 281.059 191.739 280.19 192.133C279.288 192.502 278.381 192.828 277.447 193.192Z" fill="#FCFFFD"/>
<path d="M205.856 246.248L202.647 246.629C202.104 246.688 201.56 246.732 201.017 246.792C200.881 246.824 200.737 246.807 200.611 246.745C200.485 246.682 200.385 246.578 200.328 246.449C199.242 244.451 198.085 242.48 197.042 240.476C196.677 239.63 196.369 238.761 196.119 237.875C194.899 234.424 193.67 230.976 192.432 227.529C192.301 227.173 192.118 226.838 191.889 226.536C192.524 233.394 193.409 240.21 194.224 247.134L187.962 249.491C187.93 249.176 187.897 248.947 187.892 248.747C187.859 244.29 187.83 239.831 187.805 235.371C187.769 229.759 187.732 224.148 187.696 218.536V217.602L194.213 215.919C194.29 216.096 194.357 216.277 194.414 216.462C195.706 221.811 196.983 227.165 198.595 232.428C199.193 234.388 199.899 236.311 200.561 238.244C200.656 238.529 200.805 238.793 201.001 239.02C201.025 238.866 201.042 238.71 201.05 238.553C200.996 235.197 200.773 231.852 200.464 228.512C200.208 225.797 200.013 223.049 199.796 220.318C199.709 219.166 199.627 218.017 199.551 216.869C199.519 216.413 199.508 215.951 199.486 215.441H205.324C205.324 220.622 205.041 225.732 205.291 230.847C205.541 235.963 205.699 241.046 205.856 246.248Z" fill="#0C3185"/>
<path d="M183.987 178.345L189.277 178.752C189.277 179.04 189.336 179.295 189.342 179.578C189.385 182.168 189.391 184.753 189.467 187.338C189.532 189.385 189.662 191.433 189.787 193.474C189.912 195.516 190.059 197.412 190.189 199.378C190.384 202.274 190.565 205.161 190.732 208.039C190.732 208.316 190.732 208.582 190.732 208.957C189.103 209.158 187.43 209.299 185.752 209.337C185.247 208.436 184.791 207.55 184.275 206.698C182.853 204.267 181.709 201.684 180.865 198.997C179.838 195.864 178.66 192.774 177.547 189.668C177.453 189.398 177.319 189.143 177.15 188.913C177.883 195.734 178.855 202.516 179.795 209.413L173.821 211.515C173.582 200.898 173.349 190.439 173.11 179.866L179.132 178.568C181.125 186.442 182.901 194.316 185.899 201.8L186.056 201.767C186.013 200.974 186.007 200.176 185.926 199.388C185.453 194.544 184.965 189.706 184.487 184.867C184.291 182.879 184.123 180.892 183.944 178.893C183.976 178.752 183.987 178.6 183.987 178.345Z" fill="#0C3185"/>
<path d="M101.008 233.438C101.367 234.046 101.687 234.6 102.018 235.143C103.153 236.992 103.719 239.133 103.648 241.301C103.598 243.016 103.392 244.723 103.034 246.4C102.998 246.512 102.955 246.621 102.904 246.726H98.4016C98.4396 246.08 98.4831 245.499 98.5102 244.918C98.5863 243.153 98.684 241.394 98.722 239.623C98.7407 238.671 98.542 237.728 98.141 236.864C97.9476 236.345 97.627 235.883 97.2086 235.519C96.7902 235.156 96.2874 234.903 95.7461 234.785C94.66 234.573 93.5739 234.372 92.4877 234.203C91.8578 234.106 91.217 234.084 90.4839 234.013C90.0711 238.184 89.8756 242.317 89.5064 246.504C87.9369 246.542 86.3892 246.504 84.8632 246.4C84.6949 245.695 86.878 216.923 87.2418 214.784C87.3795 214.754 87.5193 214.736 87.66 214.729C91.3481 214.779 95.0297 215.055 98.684 215.555C99.4171 215.658 100.139 215.832 100.856 215.979C101.871 216.181 102.779 216.742 103.414 217.559C104.06 218.324 104.577 219.19 104.945 220.122C105.927 222.624 106.028 225.386 105.233 227.953C104.636 229.932 103.41 231.664 101.741 232.884L101.008 233.438ZM90.9889 229.169C91.0759 229.231 91.1709 229.28 91.2713 229.316C93.0032 229.666 94.7804 229.732 96.5335 229.511C97.3771 229.406 98.162 229.024 98.7655 228.425C99.9109 227.273 100.637 225.77 100.829 224.157C100.905 223.568 100.779 222.97 100.471 222.463C99.9698 221.555 99.149 220.866 98.1681 220.529C97.2308 220.2 96.2656 219.957 95.2845 219.802C94.0939 219.633 92.8855 219.633 91.6949 219.802C91.4559 222.962 91.2206 226.085 90.9889 229.169Z" fill="#0C3185"/>
<path d="M138.506 241.48C138.691 240.107 138.87 238.798 139.049 237.456C144.599 237.712 150.122 237.543 155.721 237.842C155.618 243.414 156.264 248.882 156.443 254.438L154.087 254.557C154.013 254.36 153.951 254.159 153.902 253.954C153.554 252.325 153.191 250.696 152.886 249.067C152.793 248.434 152.762 247.794 152.794 247.155C152.827 246.95 152.786 246.74 152.677 246.562C152.569 246.385 152.4 246.252 152.202 246.189C152.027 246.378 151.866 246.58 151.719 246.792C151.279 247.546 150.877 248.318 150.432 249.062C150.214 249.465 149.948 249.841 149.639 250.18C146.142 253.732 141.928 254.715 137.149 253.574C135.593 253.19 134.201 252.316 133.179 251.082C133.06 250.946 132.956 250.756 132.81 250.696C132.482 250.544 132.19 250.326 131.951 250.056C131.712 249.786 131.531 249.47 131.419 249.127C130.822 247.769 130.284 246.384 129.747 245.005C129.519 244.408 129.372 243.778 129.15 243.18C128.641 241.756 128.436 240.241 128.547 238.733C128.639 235.837 129.056 232.96 129.79 230.158C130.052 229.275 130.366 228.408 130.73 227.562C131.925 224.76 136.014 221.002 139.755 220.573C140.135 220.524 140.518 220.502 140.901 220.508C142.693 220.546 144.485 220.595 146.277 220.665C147.23 220.667 148.173 220.86 149.05 221.234C149.927 221.607 150.72 222.152 151.382 222.837C151.572 223.038 151.73 223.266 151.925 223.505C151.089 224.716 150.296 225.884 149.443 227.095C148.357 226.188 147.032 225.971 145.669 225.857C144.04 225.691 142.396 225.748 140.782 226.025C139.542 226.254 138.366 226.743 137.33 227.461C136.295 228.18 135.424 229.11 134.776 230.19C134.433 230.733 134.075 231.276 133.689 231.776C132.695 233.185 132.044 234.806 131.789 236.511C131.436 238.484 131.49 240.507 131.946 242.458C132.492 244.684 133.72 246.684 135.46 248.176C135.705 248.398 135.996 248.563 136.312 248.66C137.403 249.026 138.519 249.311 139.652 249.512C140.545 249.577 141.443 249.528 142.324 249.366C143.941 249.115 145.535 248.735 147.092 248.231C147.598 248.101 148.059 247.837 148.428 247.467C148.797 247.097 149.06 246.635 149.188 246.129C149.541 245.043 149.824 243.957 150.079 242.871C150.263 242.105 149.981 241.785 149.177 241.757C145.979 241.687 142.775 241.632 139.576 241.567C139.245 241.546 138.919 241.508 138.506 241.48Z" fill="#0C3185"/>
<path d="M144.703 179.936L148.656 179.393C148.727 184.927 148.727 190.395 148.808 195.929L157.997 195.799C158.132 190.64 158.268 185.557 158.404 180.398L162.819 179.665C162.819 191.167 162.857 202.582 162.667 214.078L158.295 214.464V200.637C155.14 200.637 152.039 200.86 148.846 200.855C148.797 205.275 148.797 209.62 148.759 213.915C147.069 214.21 145.35 214.299 143.638 214.181C143.989 202.784 144.344 191.369 144.703 179.936Z" fill="#0C3185"/>
<path d="M61.5391 242.746C61.7671 240.508 61.9844 238.369 62.1962 236.229C62.3754 234.421 62.5437 232.612 62.7392 230.799C63.1194 227.001 63.5013 223.199 63.8851 219.394C64.1638 216.672 64.4444 213.948 64.7268 211.221C64.8028 210.483 64.8517 210.445 65.5903 210.586C69.2495 211.216 72.8245 212.264 76.245 213.709C77.3804 214.239 78.4846 214.834 79.5522 215.49C80.0469 215.805 80.509 216.169 80.9316 216.576C82.0912 217.61 82.8022 219.056 82.9137 220.605C83.1494 222.977 83.091 225.368 82.74 227.725C82.4168 230.242 81.7499 232.704 80.7578 235.04C80.3756 235.905 79.946 236.748 79.4708 237.565C78.7751 238.781 77.8381 239.842 76.7175 240.682C75.5968 241.523 74.3161 242.125 72.9541 242.452C70.3932 243.096 67.7463 243.329 65.1124 243.142C64.2924 243.099 63.4832 243.001 62.6632 242.909C62.3048 242.914 61.9572 242.822 61.5391 242.746ZM66.4917 236.772C66.5895 236.832 66.6275 236.881 66.6764 236.886C66.8783 236.91 67.0813 236.922 67.2846 236.924C68.848 236.939 70.4079 236.773 71.9331 236.43C72.9629 236.224 73.9566 235.868 74.8819 235.371C75.3821 235.109 75.8197 234.742 76.1647 234.295C76.5096 233.847 76.7538 233.331 76.8804 232.781C77.5208 230.166 77.7607 227.469 77.5918 224.781C77.5128 223.245 77.2241 221.727 76.7338 220.269C76.416 219.261 75.8213 218.364 75.0177 217.678C73.2636 216.261 71.1783 215.729 68.8866 215.43C68.0829 222.588 67.2846 229.702 66.4917 236.772Z" fill="#0C3185"/>
<path d="M184.422 233.405C184.28 235.306 184.156 237.017 184.02 238.727C184.004 239.008 183.944 239.285 183.841 239.547C182.836 241.844 181.837 244.142 180.799 246.422C180.512 247.023 180.161 247.591 179.751 248.117C179.445 248.453 179.107 248.758 178.741 249.029C178.599 249.134 178.463 249.246 178.334 249.366C176.939 250.78 175.127 251.709 173.164 252.016C169.276 252.787 166.164 251.511 163.541 248.611C161.722 246.612 161.081 244.239 160.826 241.676C160.56 238.484 160.673 235.273 161.163 232.107C161.187 231.877 161.246 231.652 161.336 231.439C162.346 229.229 163.351 227.019 164.394 224.825C164.696 224.232 165.045 223.664 165.436 223.125C165.688 222.673 166.084 222.317 166.561 222.115C166.696 222.047 166.815 221.948 166.908 221.827C168.467 220.138 170.481 219.422 172.686 219.112C176.14 218.613 178.844 219.932 181.196 222.37C182.795 224.089 183.787 226.285 184.02 228.621C184.226 230.256 184.297 231.928 184.422 233.405ZM165.415 237.668C165.54 238.706 165.621 239.754 165.8 240.78C165.979 241.806 167.788 245.461 168.488 246.346C168.858 246.856 169.335 247.279 169.886 247.584C170.437 247.889 171.048 248.069 171.676 248.111C172.365 248.155 173.056 248.155 173.745 248.111C174.319 248.092 174.881 247.944 175.391 247.68C175.901 247.416 176.346 247.042 176.694 246.585C179.298 243.368 180.648 239.317 180.495 235.181C180.528 233.511 180.156 231.858 179.409 230.364C179.111 229.821 178.806 229.246 178.519 228.67C178.051 227.682 177.347 226.825 176.467 226.176C175.588 225.526 174.561 225.105 173.479 224.95C172.783 224.8 172.059 224.847 171.388 225.085C170.716 225.323 170.124 225.742 169.678 226.297C166.892 229.571 165.588 233.389 165.42 237.668H165.415Z" fill="#0C3185"/>
<path d="M124.208 196.684C127.466 197.194 130.686 197.287 133.869 197.591L138.914 198.069C139.133 198.105 139.351 198.154 139.565 198.215C139.696 203.847 139.826 209.44 139.956 215.05H137.686C137.512 214.056 137.339 213.079 137.17 212.101C137.024 211.216 136.839 210.336 136.747 209.446C136.688 208.732 136.67 208.016 136.692 207.301C136.717 207.121 136.676 206.939 136.576 206.788C136.476 206.637 136.324 206.528 136.149 206.481C135.965 206.699 135.793 206.928 135.634 207.165C135.264 207.784 134.89 208.398 134.58 209.038C134.29 209.639 133.888 210.179 133.396 210.63C129.942 213.828 125.967 214.529 121.568 213.024C120.207 212.533 119.03 211.634 118.196 210.45C117.984 210.173 117.686 209.967 117.463 209.69C117.166 209.378 116.92 209.021 116.735 208.631C116.192 207.138 115.682 205.633 115.253 204.113C114.889 202.81 114.65 201.468 114.357 200.143C114.305 199.945 114.279 199.74 114.281 199.535C114.402 195.557 115.052 191.612 116.214 187.805C117.16 185.042 118.998 182.671 121.438 181.066C122.648 180.188 124.075 179.658 125.565 179.534C126.109 179.508 126.655 179.531 127.194 179.605C128.824 179.784 130.453 179.952 132.082 180.197C132.933 180.333 133.747 180.641 134.475 181.104C135.202 181.566 135.828 182.172 136.312 182.885C136.425 183.007 136.487 183.167 136.487 183.333C136.487 183.499 136.425 183.659 136.312 183.781C135.59 184.764 134.9 185.774 134.167 186.817C132.837 185.519 131.11 185.307 129.372 185.139C128.176 184.973 126.961 184.995 125.772 185.204C123.818 185.616 122.095 186.758 120.955 188.397C120.325 189.266 119.713 190.149 119.119 191.047C118.233 192.433 117.645 193.988 117.392 195.614C116.922 197.953 116.999 200.369 117.615 202.674C118.116 204.403 119.02 205.989 120.254 207.301C120.506 207.589 120.82 207.817 121.172 207.969C122.171 208.365 123.192 208.696 124.208 209.055C124.384 209.103 124.568 209.123 124.751 209.114C126.933 209.169 129.108 208.848 131.18 208.164C131.225 208.141 131.272 208.124 131.322 208.115C132.408 208.061 132.902 207.322 133.206 206.454C133.63 205.248 133.983 204.015 134.292 202.782C134.455 202.153 134.162 201.81 133.516 201.745C131.295 201.533 129.079 201.338 126.858 201.137L123.502 200.817C123.757 199.388 123.98 198.058 124.208 196.684Z" fill="#0C3185"/>
<path d="M201.767 199.948V195.978C206.986 195.663 212.085 194.772 217.385 194.457C218.08 199.801 219.454 204.966 220.405 210.233L218.178 210.651C218.09 210.491 218.01 210.326 217.939 210.157C217.358 208.566 216.761 206.986 216.223 205.384C216.05 204.796 215.938 204.192 215.886 203.581C215.882 203.402 215.811 203.231 215.686 203.103C215.561 202.975 215.392 202.899 215.213 202.891C215.07 203.115 214.939 203.347 214.822 203.586C214.543 204.191 214.304 204.813 214.105 205.449C213.852 206.283 213.42 207.052 212.84 207.703C211.831 208.937 210.577 209.95 209.157 210.675C207.737 211.4 206.182 211.823 204.591 211.917C203.187 212.094 201.762 211.936 200.431 211.455C199.773 211.176 199.14 210.84 198.541 210.45C198.022 210.034 197.478 209.65 196.912 209.299C196.583 209.098 196.313 208.813 196.13 208.474C195.593 207.664 195.101 206.824 194.658 205.959C193.903 204.39 193.219 202.788 192.529 201.191C192.404 200.884 192.322 200.56 192.285 200.23C191.9 197.385 191.818 194.507 192.041 191.644C192.135 190.362 192.34 189.09 192.654 187.843C193.47 184.871 195.346 182.299 197.927 180.615C198.977 179.866 200.214 179.424 201.501 179.339C203.363 179.214 205.226 179.029 207.094 178.953C208.624 178.909 210.113 179.449 211.259 180.463C211.379 180.561 211.488 180.669 211.607 180.767C211.661 180.803 211.707 180.849 211.742 180.903C211.777 180.958 211.8 181.019 211.81 181.083C211.821 181.146 211.817 181.212 211.801 181.274C211.785 181.337 211.756 181.395 211.716 181.446C211.688 181.489 211.667 181.538 211.645 181.582C211.102 182.635 210.597 183.689 210.054 184.775C208.425 183.754 206.649 183.976 204.868 184.112C204.152 184.17 203.443 184.283 202.744 184.449C201.472 184.717 200.282 185.286 199.273 186.106C198.264 186.927 197.466 187.977 196.945 189.168C196.613 189.858 196.271 190.547 195.929 191.232C195.12 193.117 194.735 195.157 194.801 197.207C194.868 199.258 195.384 201.269 196.315 203.097C197.119 204.533 198.232 205.772 199.573 206.725C200.252 207.219 201.061 207.225 201.832 207.393C204.178 207.903 206.339 207.149 208.484 206.372C209.446 206.019 210.353 205.547 211.281 205.107C211.499 204.993 211.687 204.83 211.831 204.631C211.975 204.432 212.071 204.203 212.112 203.961C212.362 202.875 212.541 201.756 212.737 200.648C212.77 200.369 212.779 200.087 212.764 199.806C212.764 199.144 212.536 198.905 211.884 198.954C210.483 199.068 209.082 199.209 207.681 199.356C206.052 199.519 204.471 199.703 202.869 199.866C202.56 199.926 202.18 199.926 201.767 199.948Z" fill="#0C3185"/>
<path d="M112.51 244.375C112.282 246.547 112.049 248.719 111.81 250.957C109.545 250.886 107.389 250.718 105.163 250.501C108.084 240.264 110.984 230.114 113.9 219.921L120.325 220.301C122.533 230.565 124.738 240.8 126.939 251.006C124.872 251.11 122.799 251.018 120.748 250.729C120.368 248.714 120.45 246.629 120.254 244.592C117.679 244.382 115.094 244.309 112.51 244.375ZM116.757 224.282L116.599 224.255L112.521 240.449H120.086C118.978 235.029 117.876 229.658 116.757 224.282Z" fill="#0C3185"/>
<path d="M86.8889 199.768L79.7477 198.791C79.2047 201.083 78.8788 203.358 78.2543 205.655L72.1178 204.466L83.913 173.599L89.6042 174.734C90.5545 185.595 91.5049 196.418 92.4661 207.317C90.5708 207.154 88.6647 206.774 86.7531 206.426C86.5576 204.222 86.9161 202.06 86.8889 199.768ZM87.2147 195.685C86.7857 189.82 86.373 184.134 85.9549 178.454H85.8354C83.9673 183.884 82.1046 189.315 80.2039 194.805L87.2147 195.685Z" fill="#0C3185"/>
<path d="M99.1836 173.875L102.534 174.261C102.534 174.446 102.507 174.641 102.469 174.831C101.709 178.855 100.894 182.869 100.194 186.903C99.5548 190.306 99.2348 193.76 99.2379 197.221C99.283 198.474 99.4227 199.721 99.6561 200.952C99.7652 201.503 99.981 202.027 100.291 202.495C100.438 202.777 100.651 203.019 100.912 203.199C101.174 203.38 101.476 203.494 101.791 203.531C102.107 203.568 102.427 203.527 102.723 203.411C103.019 203.296 103.283 203.11 103.49 202.869C104.004 202.335 104.45 201.739 104.815 201.093C105.824 199.308 106.607 197.403 107.145 195.424C108.274 191.438 109.317 187.43 110.403 183.417C111.017 181.066 111.544 178.692 112.108 176.33C112.108 176.26 112.168 176.189 112.244 176.021L115.367 176.9C115.296 177.416 115.253 177.84 115.171 178.258C114.057 184.51 112.57 190.69 110.718 196.765C110 199.171 109.066 201.506 107.927 203.744C107.536 204.488 107.069 205.194 106.607 205.916C105.32 207.903 103.517 208.544 101.231 208.023C100.453 207.85 99.7208 207.516 99.0809 207.041C98.4409 206.567 97.9079 205.963 97.5164 205.27C96.7821 203.972 96.2994 202.548 96.0936 201.072C95.6886 198.359 95.6138 195.608 95.871 192.877C96.3326 186.626 97.5925 180.512 99.0316 174.413C99.0642 174.212 99.1348 174.022 99.1836 173.875Z" fill="#0C3185"/>
<path d="M49.3257 200.447C52.041 189.298 54.7074 178.269 57.4009 167.18L61.6639 167.652C60.0728 177.302 57.7485 186.73 55.6088 196.271C60.833 196.787 65.9866 196.635 71.0859 197.048C71.5855 198.726 70.9556 200.257 70.7764 201.935C63.608 201.593 56.5157 201.17 49.3257 200.447Z" fill="#0C3185"/>
<path d="M182.847 269.627C182.893 270.794 182.685 271.958 182.239 273.037C181.788 274.265 181.451 275.536 180.897 276.714C180.402 277.829 179.633 278.801 178.662 279.54C177.691 280.278 176.549 280.76 175.342 280.939C173.142 281.33 171.334 280.597 169.683 279.207C167.875 277.686 167.147 275.66 166.81 273.428C166.522 271.398 166.431 269.345 166.539 267.297C166.539 267.016 166.581 266.736 166.664 266.467C167.197 264.704 167.825 262.971 168.543 261.275C169.846 258.5 172.138 257.044 175.228 256.93C176.104 256.899 176.972 257.103 177.742 257.522C178.717 257.986 179.587 258.643 180.301 259.453C181.014 260.264 181.555 261.21 181.891 262.236C182.608 264.495 182.776 266.836 182.847 269.627ZM180.224 269.757C180.334 267.376 179.561 265.038 178.052 263.192C177.317 262.186 176.214 261.512 174.983 261.318C174.456 261.194 173.904 261.235 173.401 261.435C172.898 261.635 172.468 261.985 172.17 262.437C170.96 264.165 170.205 266.172 169.976 268.269C169.779 269.758 169.888 271.271 170.297 272.716C170.706 274.161 171.406 275.506 172.355 276.671C172.974 277.375 173.815 277.848 174.739 278.011C175.663 278.174 176.615 278.017 177.438 277.567C177.667 277.405 177.864 277.203 178.019 276.969C179.526 274.872 180.3 272.338 180.224 269.757Z" fill="#0C3185"/>
<path d="M142.737 281.569C142.302 273.901 141.814 266.309 141.417 258.636C141.9 258.598 142.275 258.554 142.655 258.538C145.417 258.345 148.192 258.579 150.883 259.233C151.618 259.447 152.331 259.733 153.011 260.086C153.494 260.326 153.919 260.669 154.257 261.09C154.594 261.511 154.837 262 154.966 262.524C155.438 264.28 155.672 266.092 155.661 267.911C155.689 270.013 155.416 272.109 154.852 274.135C154.505 275.504 153.829 276.769 152.883 277.818C151.936 278.868 150.748 279.67 149.422 280.157C147.497 280.934 145.464 281.409 143.394 281.564C143.187 281.58 142.992 281.569 142.737 281.569ZM145.495 276.681C147.511 276.359 149.416 275.548 151.045 274.319C151.403 274.044 151.692 273.69 151.891 273.285C152.09 272.88 152.192 272.435 152.191 271.984C152.191 270.985 152.24 269.986 152.191 268.992C152.088 267.224 151.673 265.488 150.964 263.865C150.717 263.242 150.315 262.692 149.796 262.267C149.277 261.842 148.659 261.557 147.999 261.438C146.956 261.196 145.871 261.196 144.828 261.438C145.034 266.515 145.262 271.528 145.495 276.703V276.681Z" fill="#0C3185"/>
<path d="M166.327 181.652L171.133 180.886C171.361 191.4 171.595 201.805 171.823 212.302C170.186 212.457 168.541 212.508 166.897 212.454C166.675 202.191 166.49 191.965 166.327 181.652Z" fill="#0C3185"/>
<path d="M126.021 260.515L128.503 260.248C128.503 261.166 128.547 262.051 128.503 262.937C128.313 266.083 128.286 269.237 128.422 272.386C128.452 274.077 128.706 275.757 129.177 277.382C129.354 277.969 129.615 278.527 129.953 279.038C130.708 280.124 131.962 280.124 132.668 279.011C133.133 278.275 133.499 277.481 133.755 276.649C134.378 274.481 134.794 272.259 134.998 270.013C135.373 266.754 135.72 263.496 136.084 260.238C136.111 260.152 136.144 260.069 136.182 259.988L138.479 260.124C138.523 260.287 138.552 260.454 138.566 260.623C138.438 265.746 137.864 270.849 136.85 275.872C136.546 277.268 136.03 278.587 135.601 279.978C135.512 280.219 135.401 280.451 135.27 280.673C134.64 281.846 133.847 282.764 132.375 282.899C131.676 283.005 130.962 282.942 130.292 282.715C129.622 282.488 129.016 282.105 128.525 281.596C127.85 280.856 127.331 279.988 126.999 279.044C126.329 277.186 125.927 275.242 125.804 273.271C125.506 269.11 125.561 264.932 125.967 260.781C125.973 260.69 125.991 260.6 126.021 260.515Z" fill="#0C3185"/>
<path d="M81.1379 270.083C78.9657 270.914 56.2117 275.231 54.3381 275.166C54.3381 274.83 54.6151 274.71 54.7997 274.542C57.8408 271.794 60.8874 269.055 63.9394 266.325C64.6073 265.723 65.2861 265.142 65.9378 264.528C66.0345 264.41 66.1676 264.328 66.3161 264.295C66.4646 264.261 66.6201 264.278 66.7578 264.343C71.486 266.219 76.2197 268.087 80.9587 269.948C81.0076 269.964 81.0402 270.007 81.1379 270.083Z" fill="#0C3185"/>
<path d="M88.6702 282.612C89.0123 281.553 89.3436 280.543 89.6911 279.478C90.0875 279.636 90.4134 279.771 90.7446 279.891C92.048 280.352 93.335 280.868 94.6601 281.254C95.3226 281.416 96.0127 281.431 96.6817 281.298C97.3507 281.165 97.9823 280.887 98.5321 280.483C98.8578 280.299 99.116 280.016 99.2685 279.675C99.4211 279.334 99.4599 278.953 99.3792 278.588C99.2869 278.115 99.1403 277.648 99.0154 277.181C98.9774 277.062 98.8525 276.937 98.8742 276.833C99.0317 276.133 98.4995 275.965 98.065 275.644C96.6321 274.652 95.0698 273.861 93.4219 273.293C93.1369 273.181 92.8398 273.102 92.5367 273.059C92.1786 273.011 91.8356 272.885 91.5323 272.689C91.229 272.492 90.973 272.231 90.7827 271.924C89.9176 270.792 89.5017 269.38 89.6151 267.96C89.8251 266.32 90.5672 264.794 91.7276 263.615C92.2199 263.106 92.8108 262.701 93.4643 262.427C94.1178 262.152 94.8202 262.014 95.529 262.019C96.7291 261.992 97.9347 261.992 99.1348 262.019C99.6069 262.06 100.075 262.136 100.536 262.247C99.9977 263.068 99.7475 264.044 99.8245 265.022C99.3575 264.919 98.9665 264.854 98.5864 264.745C97.3721 264.412 96.0942 264.384 94.8664 264.664C94.1319 264.808 93.4696 265.201 92.9909 265.777C92.5123 266.353 92.2464 267.076 92.238 267.824C92.0914 269.736 92.9386 270.958 94.6058 271.707C95.055 271.886 95.5158 272.035 95.9851 272.152C96.9302 272.366 97.8607 272.64 98.771 272.972C99.6719 273.334 100.442 273.959 100.981 274.767C101.52 275.574 101.802 276.525 101.79 277.496C101.888 278.902 101.844 280.313 101.66 281.71C101.634 282.03 101.527 282.337 101.351 282.605C101.174 282.873 100.933 283.091 100.65 283.242C100.152 283.499 99.6296 283.708 99.0914 283.866C97.3699 284.403 95.5358 284.469 93.7803 284.056C92.3412 283.703 90.9076 283.318 89.4739 282.937C89.2132 282.845 88.9851 282.731 88.6702 282.612Z" fill="#0C3185"/>
<path d="M115.334 283.209H112.119C112.174 277.116 112.222 271.083 112.277 264.957H106.102L106.233 261.954L122.562 261.34V264.131L115.367 264.267C115.236 270.599 115.372 276.861 115.334 283.209Z" fill="#0C3185"/>
<path d="M185.725 277.328C185.948 276.209 186.154 275.188 186.371 274.102C186.914 274.254 187.37 274.4 187.843 274.504C188.989 274.764 190.129 275.047 191.291 275.231C192.654 275.416 193.789 274.802 194.767 273.912C195.031 273.682 195.223 273.381 195.319 273.045C195.416 272.708 195.413 272.351 195.31 272.016C195.207 271.625 195.076 271.234 194.941 270.849C194.805 270.463 194.642 270.061 194.452 269.567C192.711 268.415 190.732 267.672 188.663 267.395C187.208 267.227 186.491 266.456 185.861 265.348C185.482 264.707 185.239 263.995 185.146 263.256C185.052 262.517 185.111 261.767 185.318 261.052C185.548 260.079 185.933 259.15 186.458 258.299C187.076 257.287 188.041 256.534 189.173 256.181C190.673 255.734 192.23 255.509 193.795 255.513C194.045 255.513 194.3 255.551 194.555 255.573L194.132 258.402C193.808 258.39 193.485 258.358 193.165 258.304C192.124 258.125 191.055 258.205 190.053 258.538C189.271 258.722 188.583 259.186 188.118 259.842C187.653 260.498 187.443 261.301 187.528 262.1C187.642 264.24 188.305 265.131 190.325 265.815C190.67 265.907 191.022 265.967 191.378 265.994C192.166 266.06 192.949 266.171 193.724 266.325C194.662 266.525 195.515 267.011 196.165 267.716C196.815 268.421 197.23 269.311 197.352 270.262C197.648 271.822 197.763 273.411 197.694 274.998C197.672 275.333 197.567 275.657 197.389 275.941C197.21 276.225 196.965 276.461 196.673 276.627C195.571 277.333 194.34 277.812 193.051 278.039C191.679 278.239 190.284 278.219 188.918 277.979C188.055 277.881 187.197 277.702 186.344 277.55C186.133 277.489 185.927 277.415 185.725 277.328Z" fill="#0C3185"/>
<path d="M66.3288 294.222L63.4778 285.175L82.8486 276.73L82.9409 276.866C77.4832 282.666 71.9332 288.362 66.3288 294.222Z" fill="#0C3185"/>
<path d="M162.824 281.52L159.387 281.813C159.137 281.178 157.758 261.454 157.828 259.733L161.38 258.858C161.901 266.429 162.325 273.923 162.824 281.52Z" fill="#0C3185"/>
<path d="M205.145 243.544L201.935 243.924L200.306 244.087C200.169 244.119 200.026 244.102 199.9 244.039C199.775 243.977 199.674 243.873 199.616 243.745C198.53 241.747 197.379 239.775 196.331 237.771C195.971 236.924 195.664 236.056 195.413 235.17C194.186 231.724 192.957 228.275 191.726 224.825C191.596 224.467 191.413 224.13 191.183 223.826C191.818 230.69 192.698 237.505 193.512 244.429L187.3 246.764C187.267 246.45 187.229 246.221 187.229 246.015C187.197 241.562 187.168 237.105 187.142 232.645C187.103 227.033 187.066 221.422 187.034 215.81C187.034 215.528 187.034 215.267 187.034 214.893L193.55 213.209C193.632 213.385 193.701 213.566 193.757 213.752C195.049 219.101 196.325 224.456 197.933 229.718C198.53 231.678 199.242 233.601 199.904 235.534C199.999 235.816 200.146 236.078 200.339 236.305C200.366 236.153 200.382 235.998 200.388 235.844C200.339 232.488 200.116 229.142 199.806 225.797C199.551 223.082 199.356 220.339 199.139 217.602C199.048 216.455 198.965 215.305 198.889 214.154C198.856 213.698 198.845 213.242 198.824 212.731H204.667C204.667 217.912 204.384 223.049 204.634 228.138C204.884 233.226 204.982 238.342 205.145 243.544Z" fill="#DF5959"/>
<path d="M183.276 175.64L188.56 176.048C188.56 176.335 188.625 176.591 188.63 176.873C188.674 179.458 188.679 182.048 188.755 184.633C188.815 186.681 188.951 188.723 189.07 190.77C189.19 192.736 189.342 194.702 189.478 196.673L190.021 205.329C190.021 205.606 190.021 205.872 190.021 206.252C188.391 206.448 186.724 206.589 185.041 206.627C184.541 205.731 184.08 204.84 183.569 203.988C182.142 201.561 180.996 198.979 180.153 196.293C179.127 193.154 177.948 190.069 176.835 186.963C176.744 186.693 176.612 186.438 176.444 186.208C177.177 193.029 178.144 199.812 179.089 206.703L173.115 208.805C172.882 198.193 172.648 187.729 172.409 177.161L178.426 175.863C180.425 183.737 182.201 191.612 185.193 199.09L185.356 199.062C185.312 198.27 185.301 197.471 185.225 196.684C184.753 191.84 184.259 187.001 183.786 182.162C183.591 180.175 183.422 178.182 183.243 176.189C183.265 176.048 183.276 175.896 183.276 175.64Z" fill="#DF5959"/>
<path d="M100.27 230.734L101.28 232.428C102.414 234.277 102.98 236.418 102.909 238.586C102.857 240.301 102.651 242.007 102.295 243.685C102.26 243.795 102.217 243.903 102.165 244.006H97.6414C97.6794 243.365 97.7175 242.784 97.7446 242.203C97.8206 240.438 97.9184 238.673 97.9564 236.908C97.9749 235.957 97.7782 235.014 97.3808 234.149C97.1874 233.63 96.8668 233.167 96.4484 232.804C96.03 232.441 95.5272 232.188 94.9859 232.069C93.8998 231.852 92.8137 231.659 91.7276 231.488C91.103 231.391 90.4622 231.363 89.7291 231.298C89.3164 235.469 89.1209 239.602 88.7462 243.789C87.1767 243.827 85.6345 243.789 84.103 243.685C83.9401 242.974 86.1178 214.208 86.4871 212.069C86.6247 212.039 86.7646 212.021 86.9052 212.014C90.5931 212.065 94.2745 212.339 97.9292 212.834C98.6624 212.943 99.3846 213.117 100.101 213.263C101.115 213.469 102.022 214.029 102.659 214.844C103.303 215.61 103.818 216.476 104.185 217.407C105.172 219.908 105.273 222.671 104.473 225.238C103.877 227.216 102.653 228.947 100.987 230.169L100.27 230.734ZM90.2776 226.454C90.3659 226.514 90.4606 226.563 90.56 226.601C92.2922 226.948 94.069 227.014 95.8222 226.796C96.6648 226.693 97.4486 226.311 98.0487 225.71C99.1959 224.559 99.9227 223.056 100.112 221.442C100.191 220.853 100.066 220.256 99.7593 219.748C99.2572 218.841 98.4369 218.152 97.4568 217.814C96.5182 217.483 95.5511 217.24 94.5677 217.087C93.3791 216.916 92.1722 216.916 90.9836 217.087C90.7446 220.254 90.5093 223.377 90.2776 226.454Z" fill="#DF5959"/>
<path d="M137.795 238.776L138.338 234.747C143.893 235.007 149.411 234.839 155.015 235.138C154.907 240.709 155.558 246.178 155.737 251.733L153.375 251.853C153.321 251.668 153.239 251.462 153.191 251.245C152.843 249.616 152.479 247.986 152.18 246.357C152.088 245.725 152.055 245.085 152.083 244.446C152.116 244.24 152.075 244.03 151.966 243.853C151.857 243.675 151.689 243.543 151.491 243.479C151.316 243.668 151.157 243.869 151.013 244.082C150.573 244.831 150.166 245.602 149.726 246.352C149.505 246.754 149.239 247.129 148.933 247.471C145.436 251.022 141.216 252 136.443 250.865C134.887 250.479 133.496 249.605 132.473 248.372C132.359 248.236 132.256 248.046 132.104 247.986C131.778 247.833 131.486 247.615 131.247 247.345C131.008 247.075 130.827 246.759 130.713 246.417C130.122 245.059 129.578 243.702 129.046 242.295C128.813 241.698 128.672 241.068 128.449 240.471C127.935 239.047 127.73 237.531 127.846 236.023C127.92 233.128 128.325 230.251 129.052 227.448C129.308 226.563 129.622 225.696 129.991 224.852C131.186 222.05 135.275 218.287 139.017 217.863C139.397 217.815 139.78 217.792 140.163 217.793C141.955 217.836 143.747 217.885 145.539 217.955C146.489 217.951 147.431 218.139 148.307 218.508C149.184 218.876 149.976 219.418 150.638 220.1C150.828 220.301 150.991 220.53 151.181 220.768L148.699 224.358C147.613 223.451 146.283 223.228 144.898 223.12C143.269 222.954 141.625 223.011 140.011 223.288C138.776 223.519 137.605 224.009 136.575 224.728C135.545 225.446 134.68 226.375 134.037 227.453C133.695 227.997 133.331 228.54 132.951 229.039C131.955 230.445 131.304 232.065 131.05 233.769C130.692 235.741 130.746 237.766 131.208 239.716C131.753 241.955 132.99 243.965 134.743 245.461C134.991 245.683 135.283 245.85 135.601 245.95C136.692 246.317 137.808 246.602 138.941 246.803C139.834 246.867 140.732 246.818 141.613 246.656C143.229 246.404 144.824 246.024 146.381 245.521C146.885 245.389 147.346 245.124 147.714 244.755C148.083 244.385 148.346 243.924 148.477 243.419C148.83 242.333 149.107 241.247 149.367 240.161C149.547 239.395 149.27 239.075 148.466 239.075C145.262 239.004 142.063 238.95 138.859 238.885C138.533 238.836 138.208 238.803 137.795 238.776Z" fill="#DF5959"/>
<path d="M143.991 177.232L147.939 176.688C148.015 182.222 148.015 187.691 148.091 193.225L157.285 193.094C157.421 187.93 157.551 182.852 157.687 177.693L162.108 176.96C162.108 188.462 162.146 199.872 161.95 211.373L157.606 211.759V197.927C154.45 197.927 151.35 198.155 148.151 198.15C148.151 202.56 148.097 206.899 148.064 211.211C146.374 211.506 144.654 211.594 142.943 211.471C143.287 200.078 143.636 188.665 143.991 177.232Z" fill="#DF5959"/>
<path d="M60.8223 240.03C61.0449 237.793 61.2676 235.659 61.4794 233.514C61.6586 231.705 61.8215 229.897 62.0224 228.083C62.3845 224.289 62.7664 220.488 63.1683 216.679C63.4434 213.953 63.724 211.229 64.01 208.506C64.086 207.767 64.1403 207.729 64.8735 207.871C68.5338 208.501 72.1102 209.547 75.5336 210.988C76.6669 211.521 77.7692 212.117 78.8354 212.774C79.3319 213.09 79.7957 213.454 80.2202 213.861C81.3798 214.895 82.0909 216.34 82.2024 217.89C82.4379 220.261 82.3796 222.653 82.0286 225.01C81.7028 227.526 81.036 229.987 80.0464 232.324C79.6646 233.19 79.2331 234.034 78.754 234.85C78.0593 236.066 77.1227 237.128 76.0018 237.968C74.881 238.809 73.5998 239.411 72.2373 239.737C69.6748 240.382 67.0262 240.617 64.3901 240.432C63.5756 240.389 62.761 240.291 61.9464 240.199C61.588 240.204 61.2458 240.117 60.8223 240.03ZM65.7695 234.057C65.8673 234.117 65.9107 234.165 65.9541 234.171C66.1605 234.171 66.3614 234.209 66.5678 234.209C68.1296 234.222 69.6877 234.054 71.2109 233.709C72.2424 233.506 73.2381 233.151 74.1651 232.656C74.6646 232.393 75.1013 232.026 75.4453 231.579C75.7893 231.132 76.0325 230.615 76.1582 230.065C76.7986 227.45 77.0385 224.753 76.8696 222.066C76.795 220.53 76.5081 219.011 76.017 217.553C75.6987 216.546 75.1041 215.649 74.3009 214.963C72.5468 213.546 70.4615 213.013 68.1644 212.715C67.3643 219.879 66.5678 226.993 65.7749 234.057H65.7695Z" fill="#DF5959"/>
<path d="M183.705 230.701C183.564 232.601 183.444 234.312 183.308 236.017C183.292 236.299 183.229 236.576 183.124 236.837C182.125 239.134 181.125 241.437 180.083 243.718C179.797 244.319 179.448 244.887 179.04 245.412C178.733 245.748 178.395 246.054 178.03 246.324C177.885 246.428 177.747 246.54 177.617 246.661C176.224 248.078 174.411 249.007 172.447 249.311C168.564 250.077 165.453 248.806 162.824 245.906C161.011 243.908 160.37 241.529 160.109 238.972C159.843 235.78 159.957 232.568 160.446 229.403C160.47 229.173 160.529 228.948 160.62 228.735C161.63 226.525 162.634 224.314 163.677 222.121C163.981 221.528 164.328 220.958 164.714 220.415C164.966 219.964 165.362 219.61 165.838 219.411C165.977 219.344 166.098 219.245 166.191 219.123C167.75 217.434 169.759 216.717 171.969 216.408C175.423 215.908 178.128 217.222 180.479 219.666C182.075 221.384 183.063 223.578 183.292 225.911C183.515 227.54 183.585 229.224 183.705 230.701ZM164.698 234.958C164.823 236.001 164.899 237.044 165.083 238.075C165.268 239.107 167.071 242.757 167.766 243.642C168.138 244.149 168.616 244.57 169.166 244.875C169.716 245.179 170.326 245.361 170.954 245.407C171.645 245.447 172.337 245.447 173.028 245.407C173.602 245.389 174.165 245.243 174.675 244.98C175.185 244.717 175.63 244.343 175.977 243.886C178.579 240.668 179.929 236.618 179.779 232.482C179.816 230.812 179.443 229.158 178.692 227.665C178.388 227.122 178.084 226.541 177.802 225.971C177.335 224.981 176.629 224.123 175.749 223.474C174.868 222.825 173.84 222.404 172.757 222.251C172.061 222.1 171.336 222.146 170.665 222.384C169.993 222.622 169.401 223.042 168.955 223.598C166.175 226.867 164.877 230.679 164.709 234.958H164.698Z" fill="#DF5959"/>
<path d="M123.496 193.98C126.755 194.485 129.975 194.582 133.157 194.886C134.835 195.044 136.519 195.196 138.202 195.364C138.416 195.394 138.628 195.436 138.838 195.489C138.968 201.121 139.098 206.714 139.229 212.324H136.959C136.785 211.325 136.611 210.347 136.443 209.37C136.291 208.49 136.111 207.61 136.014 206.72C135.954 206.006 135.938 205.29 135.965 204.575C135.991 204.395 135.95 204.212 135.85 204.061C135.749 203.91 135.597 203.801 135.422 203.755C135.228 203.972 135.047 204.201 134.879 204.439C134.515 205.052 134.135 205.666 133.825 206.312C133.537 206.913 133.137 207.453 132.647 207.904C129.187 211.102 125.218 211.803 120.819 210.298C119.46 209.801 118.284 208.904 117.447 207.724C117.235 207.447 116.904 207.236 116.713 206.964C116.411 206.645 116.163 206.278 115.98 205.878C115.437 204.39 114.932 202.886 114.503 201.36C114.134 200.056 113.895 198.72 113.607 197.395C113.555 197.197 113.53 196.992 113.531 196.787C113.664 192.815 114.329 188.879 115.508 185.084C116.456 182.323 118.293 179.955 120.732 178.35C121.941 177.471 123.369 176.941 124.859 176.819C125.403 176.793 125.948 176.815 126.488 176.884C128.118 177.069 129.747 177.237 131.376 177.482C132.229 177.62 133.044 177.932 133.771 178.4C134.498 178.867 135.121 179.478 135.601 180.197C135.72 180.313 135.789 180.47 135.795 180.636C135.801 180.801 135.743 180.963 135.634 181.087C134.911 182.076 134.216 183.086 133.461 184.123C132.131 182.831 130.404 182.619 128.666 182.45C127.472 182.282 126.258 182.304 125.071 182.516C123.117 182.924 121.393 184.064 120.254 185.703C119.624 186.578 119.011 187.457 118.419 188.354C117.532 189.739 116.944 191.295 116.692 192.921C116.22 195.259 116.296 197.676 116.914 199.98C117.415 201.709 118.318 203.294 119.548 204.607C119.802 204.894 120.115 205.122 120.466 205.275C121.465 205.672 122.486 206.003 123.507 206.361C123.684 206.41 123.867 206.43 124.05 206.421C126.23 206.473 128.403 206.152 130.475 205.471C130.522 205.448 130.571 205.43 130.621 205.416C131.707 205.367 132.201 204.629 132.506 203.755C132.924 202.554 133.282 201.322 133.592 200.084C133.755 199.459 133.461 199.117 132.81 199.052C130.594 198.84 128.373 198.644 126.157 198.438C125.071 198.34 123.985 198.232 122.801 198.118C123.046 196.679 123.274 195.354 123.496 193.98Z" fill="#DF5959"/>
<path d="M201.055 197.238V193.268C206.274 192.959 211.373 192.068 216.674 191.753C217.369 197.097 218.737 202.261 219.693 207.502L217.467 207.92C217.376 207.767 217.295 207.609 217.222 207.447C216.641 205.862 216.044 204.281 215.506 202.679C215.339 202.09 215.227 201.486 215.169 200.876C215.167 200.698 215.096 200.527 214.972 200.399C214.848 200.271 214.68 200.195 214.501 200.187C214.356 200.41 214.225 200.642 214.11 200.882C213.828 201.486 213.586 202.108 213.388 202.744C213.135 203.579 212.703 204.347 212.123 204.998C211.115 206.232 209.861 207.243 208.442 207.967C207.024 208.691 205.47 209.114 203.879 209.207C202.476 209.386 201.05 209.23 199.719 208.751C199.06 208.47 198.426 208.134 197.824 207.746C197.307 207.327 196.763 206.942 196.195 206.595C195.867 206.393 195.597 206.108 195.413 205.769C194.873 204.96 194.381 204.118 193.941 203.25C193.187 201.686 192.502 200.084 191.807 198.487C191.684 198.179 191.603 197.856 191.568 197.526C191.178 194.681 191.095 191.803 191.318 188.94C191.414 187.657 191.621 186.385 191.938 185.139C192.754 182.166 194.629 179.595 197.211 177.911C198.258 177.158 199.497 176.716 200.784 176.634C202.647 176.509 204.509 176.325 206.377 176.249C207.907 176.205 209.396 176.745 210.543 177.758C210.662 177.856 210.771 177.965 210.89 178.063C210.943 178.099 210.989 178.146 211.023 178.2C211.058 178.254 211.081 178.315 211.091 178.379C211.101 178.442 211.098 178.507 211.082 178.57C211.066 178.632 211.038 178.69 210.999 178.741C210.971 178.784 210.947 178.83 210.928 178.877L209.337 182.07C207.708 181.049 205.927 181.267 204.151 181.408C203.435 181.465 202.726 181.578 202.027 181.745C200.755 182.014 199.566 182.582 198.556 183.401C197.547 184.221 196.747 185.269 196.222 186.458C195.896 187.153 195.554 187.838 195.212 188.527C194.399 190.412 194.012 192.452 194.079 194.503C194.145 196.554 194.664 198.566 195.598 200.393C196.402 201.829 197.515 203.068 198.856 204.021C199.535 204.509 200.344 204.52 201.11 204.689C203.461 205.199 205.623 204.444 207.768 203.662C208.723 203.315 209.636 202.837 210.559 202.402C210.777 202.289 210.966 202.127 211.11 201.928C211.254 201.729 211.35 201.499 211.39 201.257C211.64 200.17 211.824 199.052 212.014 197.944C212.052 197.665 212.063 197.383 212.047 197.102C212.047 196.44 211.819 196.201 211.167 196.25C209.761 196.358 208.36 196.505 206.958 196.651C205.356 196.814 203.754 196.994 202.147 197.162C201.821 197.222 201.474 197.222 201.055 197.238Z" fill="#DF5959"/>
<path d="M111.799 241.687C111.565 243.859 111.332 246.031 111.093 248.269C108.828 248.198 106.678 248.03 104.446 247.813C107.373 237.571 110.273 227.426 113.184 217.233L119.613 217.613C121.826 227.87 124.028 238.105 126.222 248.318C124.155 248.422 122.082 248.329 120.032 248.041C119.657 246.026 119.738 243.941 119.537 241.904C116.964 241.694 114.38 241.621 111.799 241.687ZM116.051 221.594H115.899L111.821 237.782H119.385C118.267 232.325 117.159 226.948 116.051 221.567V221.594Z" fill="#DF5959"/>
<path d="M86.1775 197.064L79.0309 196.081C78.4878 198.373 78.1674 200.654 77.5429 202.951L71.4064 201.761C75.349 191.443 79.259 181.207 83.2015 170.889L88.8873 172.029C89.8431 182.89 90.7935 193.708 91.7492 204.612C89.8594 204.45 87.975 204.069 86.0417 203.722C85.8462 201.517 86.2046 199.35 86.1775 197.064ZM86.5033 192.975C86.0743 187.115 85.6561 181.429 85.2434 175.744H85.124C83.2558 181.174 81.3877 186.605 79.4925 192.095L86.5033 192.975Z" fill="#DF5959"/>
<path d="M98.4668 171.166L101.823 171.551C101.823 171.741 101.796 171.937 101.758 172.127C100.997 176.151 100.183 180.164 99.4823 184.199C98.8416 187.601 98.5198 191.055 98.5211 194.517C98.5658 195.768 98.7056 197.013 98.9393 198.243C99.0526 198.794 99.2701 199.32 99.5801 199.79C99.7256 200.072 99.9383 200.314 100.199 200.495C100.46 200.676 100.762 200.79 101.077 200.827C101.392 200.864 101.712 200.823 102.008 200.707C102.303 200.592 102.566 200.406 102.773 200.165C103.288 199.631 103.733 199.034 104.098 198.389C105.111 196.605 105.896 194.7 106.433 192.72C107.558 188.728 108.606 184.726 109.692 180.713C110.305 178.361 110.832 175.988 111.402 173.626C111.44 173.518 111.485 173.412 111.538 173.311L114.661 174.196C114.585 174.712 114.547 175.136 114.465 175.554C113.349 181.804 111.862 187.982 110.012 194.056C109.294 196.461 108.36 198.797 107.221 201.034C106.824 201.778 106.357 202.489 105.901 203.206C104.614 205.194 102.811 205.834 100.52 205.308C99.7426 205.135 99.0107 204.801 98.3716 204.326C97.7325 203.852 97.2006 203.248 96.8105 202.554C96.0746 201.26 95.5918 199.837 95.3877 198.362C94.9825 195.648 94.9077 192.894 95.165 190.162C95.6212 183.917 96.8811 177.796 98.3256 171.698C98.3527 171.502 98.4234 171.318 98.4668 171.166Z" fill="#DF5959"/>
<path d="M48.6144 197.737C51.3297 186.594 53.9961 175.564 56.6842 164.475L60.9472 164.948C59.356 174.598 57.0317 184.025 54.8921 193.567C60.1217 194.077 65.2699 193.93 70.3746 194.343C70.8742 196.021 70.2443 197.547 70.0596 199.231C62.8913 198.883 55.8044 198.465 48.6144 197.737Z" fill="#DF5959"/>
<path d="M182.13 266.923C182.176 268.09 181.97 269.253 181.527 270.333C181.076 271.555 180.734 272.831 180.18 274.004C179.687 275.12 178.918 276.093 177.947 276.832C176.975 277.571 175.832 278.052 174.625 278.229C172.453 278.626 170.623 277.892 168.966 276.497C167.158 274.976 166.436 272.956 166.099 270.724C165.811 268.694 165.719 266.641 165.822 264.593C165.828 264.312 165.87 264.033 165.947 263.762C166.485 262.001 167.112 260.268 167.826 258.571C168.394 257.273 169.33 256.17 170.518 255.398C171.706 254.626 173.094 254.218 174.511 254.226C175.389 254.189 176.261 254.388 177.036 254.802C178.011 255.265 178.881 255.922 179.595 256.733C180.308 257.543 180.849 258.49 181.185 259.515C181.924 261.785 182.059 264.131 182.13 266.923ZM179.512 267.053C179.624 264.67 178.85 262.33 177.34 260.482C176.603 259.481 175.5 258.81 174.272 258.614C173.744 258.491 173.191 258.532 172.687 258.732C172.184 258.931 171.753 259.281 171.453 259.733C170.237 261.456 169.475 263.458 169.238 265.554C169.04 267.042 169.149 268.554 169.556 269.999C169.963 271.443 170.66 272.79 171.606 273.955C172.225 274.659 173.066 275.132 173.99 275.294C174.914 275.457 175.865 275.301 176.689 274.851C176.918 274.69 177.115 274.488 177.27 274.254C178.789 272.166 179.578 269.635 179.512 267.053Z" fill="#DF5959"/>
<path d="M142.025 278.859C141.585 271.196 141.102 263.599 140.706 255.931C141.189 255.888 141.564 255.844 141.938 255.828C144.701 255.636 147.476 255.872 150.166 256.529C150.903 256.739 151.616 257.025 152.294 257.381C152.779 257.62 153.205 257.962 153.543 258.383C153.88 258.805 154.122 259.295 154.249 259.819C154.724 261.575 154.958 263.388 154.945 265.207C154.971 267.307 154.701 269.4 154.141 271.425C153.794 272.795 153.119 274.061 152.172 275.111C151.226 276.162 150.038 276.965 148.71 277.452C146.786 278.23 144.752 278.704 142.682 278.859C142.476 278.875 142.281 278.859 142.025 278.859ZM144.784 273.999C146.799 273.675 148.704 272.864 150.334 271.636C150.691 271.361 150.979 271.007 151.177 270.602C151.375 270.197 151.477 269.752 151.474 269.301C151.474 268.302 151.529 267.303 151.474 266.309C151.37 264.541 150.953 262.805 150.242 261.183C149.997 260.558 149.597 260.007 149.079 259.582C148.561 259.157 147.942 258.873 147.282 258.755C146.239 258.513 145.154 258.513 144.111 258.755C144.322 263.811 144.551 268.845 144.784 273.999Z" fill="#DF5959"/>
<path d="M165.632 178.948L170.433 178.182C170.666 188.695 170.894 199.1 171.128 209.598C169.491 209.753 167.846 209.803 166.202 209.75C165.963 199.486 165.779 189.26 165.632 178.948Z" fill="#DF5959"/>
<path d="M125.305 257.81L127.792 257.544C127.792 258.462 127.835 259.347 127.792 260.232C127.599 263.377 127.572 266.529 127.71 269.676C127.742 271.369 127.994 273.05 128.46 274.678C128.637 275.265 128.9 275.824 129.242 276.334C129.991 277.42 131.251 277.42 131.957 276.307C132.421 275.568 132.786 274.772 133.043 273.939C133.667 271.773 134.082 269.553 134.281 267.308C134.662 264.05 135.009 260.792 135.368 257.533C135.391 257.446 135.422 257.36 135.46 257.278L137.79 257.408C137.832 257.572 137.86 257.739 137.871 257.908C137.732 263.032 137.147 268.134 136.122 273.157C135.813 274.547 135.302 275.899 134.868 277.263C134.779 277.502 134.668 277.733 134.537 277.952C133.907 279.131 133.119 280.048 131.642 280.179C130.944 280.287 130.231 280.225 129.561 279.999C128.892 279.773 128.287 279.39 127.797 278.881C127.122 278.141 126.601 277.273 126.266 276.328C125.598 274.47 125.196 272.527 125.071 270.556C124.776 266.395 124.831 262.217 125.234 258.065C125.249 257.978 125.272 257.893 125.305 257.81Z" fill="#DF5959"/>
<path d="M80.4266 267.374C78.2543 268.21 55.4949 272.527 53.6213 272.462C53.6213 272.125 53.8983 272 54.0884 271.832C57.1295 269.091 60.176 266.353 63.228 263.616C63.8905 263.018 64.5693 262.432 65.2264 261.823C65.3215 261.705 65.4533 261.623 65.601 261.588C65.7486 261.554 65.9035 261.57 66.041 261.633C70.7765 263.509 75.5119 265.377 80.2474 267.238C80.3104 267.278 80.3703 267.324 80.4266 267.374Z" fill="#DF5959"/>
<path d="M87.975 279.902L88.9959 276.774C89.3924 276.931 89.7182 277.067 90.0495 277.186C91.3528 277.648 92.6344 278.164 93.9595 278.544C94.6215 278.709 95.3116 278.725 95.9809 278.593C96.6501 278.461 97.2819 278.183 97.8314 277.778C98.1578 277.591 98.415 277.303 98.5647 276.958C98.7143 276.612 98.7486 276.228 98.6623 275.861C98.57 275.389 98.4288 274.922 98.2985 274.455C98.2659 274.335 98.1355 274.205 98.1573 274.107C98.3148 273.407 97.788 273.238 97.3535 272.918C95.9187 271.925 94.3547 271.134 92.705 270.567C92.4204 270.453 92.1232 270.375 91.8198 270.333C91.4627 270.284 91.1207 270.158 90.8184 269.961C90.5161 269.765 90.2609 269.504 90.0712 269.198C89.2014 268.068 88.785 266.654 88.9036 265.234C89.1101 263.592 89.8527 262.065 91.0161 260.889C91.5081 260.379 92.0989 259.974 92.7524 259.7C93.406 259.425 94.1086 259.287 94.8175 259.293C96.0231 259.267 97.225 259.267 98.4234 259.293C98.8972 259.334 99.3673 259.41 99.8299 259.521C99.2858 260.339 99.035 261.317 99.1185 262.296C98.6515 262.193 98.2605 262.127 97.8803 262.019C96.6642 261.685 95.3845 261.657 94.155 261.937C93.4214 262.083 92.7604 262.477 92.2828 263.052C91.8052 263.628 91.5401 264.35 91.532 265.098C91.3799 267.01 92.2271 268.231 93.8997 268.981C94.3472 269.158 94.8063 269.305 95.2736 269.421C96.2182 269.639 97.1485 269.915 98.0595 270.246C98.9609 270.607 99.7321 271.233 100.272 272.04C100.812 272.847 101.095 273.799 101.084 274.77C101.182 276.175 101.138 277.587 100.954 278.984C100.927 279.303 100.82 279.61 100.643 279.878C100.467 280.145 100.227 280.364 99.9439 280.515C99.4432 280.772 98.9196 280.981 98.3799 281.14C96.658 281.675 94.8246 281.74 93.0688 281.33C91.6297 280.977 90.1961 280.591 88.7678 280.206C88.4969 280.123 88.232 280.021 87.975 279.902Z" fill="#DF5959"/>
<path d="M114.623 280.505H111.402C111.457 274.412 111.511 268.378 111.565 262.247H105.385L105.516 259.244L121.851 258.636V261.427L114.655 261.557C114.525 267.895 114.655 274.156 114.623 280.505Z" fill="#DF5959"/>
<path d="M185.008 274.623C185.231 273.505 185.437 272.484 185.654 271.398C186.197 271.544 186.654 271.691 187.121 271.799C188.267 272.055 189.407 272.342 190.569 272.522C191.932 272.712 193.073 272.093 194.045 271.202C194.31 270.975 194.503 270.674 194.6 270.339C194.696 270.003 194.692 269.646 194.588 269.312C194.484 268.916 194.349 268.53 194.218 268.145C194.088 267.759 193.92 267.357 193.73 266.858C191.989 265.705 190.01 264.962 187.941 264.685C186.485 264.517 185.768 263.746 185.139 262.633C184.759 261.993 184.515 261.282 184.422 260.544C184.328 259.806 184.387 259.057 184.595 258.342C184.826 257.368 185.211 256.437 185.736 255.584C186.355 254.574 187.32 253.823 188.451 253.471C189.949 253.022 191.504 252.795 193.067 252.798C193.322 252.798 193.578 252.841 193.827 252.863C193.686 253.803 193.55 254.715 193.404 255.687C193.082 255.68 192.76 255.649 192.443 255.595C191.402 255.416 190.333 255.496 189.331 255.828C188.547 256.012 187.858 256.475 187.392 257.131C186.926 257.787 186.716 258.59 186.8 259.391C186.92 261.53 187.582 262.421 189.602 263.105C189.945 263.198 190.296 263.258 190.651 263.284C191.44 263.351 192.224 263.46 193.002 263.61C193.939 263.81 194.792 264.296 195.441 265.001C196.09 265.707 196.503 266.596 196.624 267.547C196.922 269.109 197.038 270.7 196.972 272.288C196.949 272.623 196.844 272.947 196.666 273.231C196.488 273.515 196.242 273.751 195.951 273.917C194.847 274.623 193.614 275.103 192.323 275.329C190.951 275.527 189.556 275.507 188.19 275.27C187.327 275.172 186.474 274.993 185.616 274.84C185.464 274.786 185.274 274.705 185.008 274.623Z" fill="#DF5959"/>
<path d="M65.612 291.512L62.7664 282.47L82.1372 274.026L82.2295 274.156C76.7663 279.956 71.2163 285.674 65.612 291.512Z" fill="#DF5959"/>
<path d="M162.113 278.816L158.67 279.109C158.426 278.468 157.041 258.75 157.117 257.028L160.668 256.154C161.19 263.724 161.613 271.213 162.113 278.816Z" fill="#DF5959"/>
<path d="M345.123 200.741C344.971 200.887 344.862 201.018 344.737 201.126C342.152 203.298 339.567 205.471 336.982 207.643C336.865 207.774 336.708 207.866 336.536 207.904C336.363 207.942 336.183 207.925 336.021 207.855C331.402 206.088 326.793 204.323 322.195 202.56C322.103 202.522 322.021 202.473 321.907 202.413C322.434 202.201 344.265 200.621 345.123 200.741Z" fill="#0C3185"/>
<path d="M236.772 310.796C237.18 310.671 237.576 310.525 237.989 310.421C241.861 309.449 245.733 308.466 249.61 307.521C258.744 305.295 267.737 302.601 276.649 299.615L277.567 299.321C277.467 299.509 277.356 299.69 277.235 299.864C276.605 300.641 275.948 301.396 275.34 302.189C274.888 302.784 274.243 303.203 273.515 303.372C271.311 303.916 269.111 304.545 266.896 305.067C258.999 306.924 251.062 308.597 243.083 310.085C241.22 310.432 239.341 310.687 237.473 310.975C237.25 311.008 237.022 311.008 236.799 311.019L236.772 310.796Z" fill="#0C3185"/>
<path d="M85.3249 126.755C85.5041 127.537 85.6073 128.194 85.8028 128.824C86.0272 129.611 86.3085 130.38 86.6445 131.126C87.6763 133.271 89.3598 134.102 92.0208 133.374C92.665 133.194 93.266 132.884 93.7877 132.465C94.3094 132.046 94.7409 131.526 95.0564 130.936C95.3117 130.496 95.518 130.024 95.7461 129.568C95.8439 129.378 95.9525 129.188 96.1317 128.851C96.6042 129.687 97.0603 130.339 96.7399 131.229C96.3887 132.248 95.851 133.193 95.1542 134.015C92.8625 136.731 89.5118 136.399 87.5243 135.395C86.682 134.948 85.9849 134.269 85.515 133.44C84.7793 132.202 84.3458 130.809 84.2496 129.372C84.2205 128.572 84.4531 127.785 84.9122 127.129C85.0355 126.99 85.1739 126.864 85.3249 126.755Z" fill="#FCFFFD"/>
<path d="M318.366 238.472C318.415 239.558 318.127 239.949 317.15 240.101C316.706 240.172 316.252 240.138 315.823 240.001C315.395 239.864 315.005 239.629 314.684 239.314C314.109 238.76 313.673 238.076 313.414 237.321C312.962 236.065 312.73 234.74 312.729 233.405C312.768 232.962 312.939 232.54 313.219 232.194C313.5 231.849 313.878 231.595 314.304 231.467C314.361 231.728 314.403 231.993 314.429 232.259C314.483 233.155 314.467 234.057 314.576 234.942C314.657 235.652 314.829 236.35 315.086 237.017C315.253 237.481 315.57 237.877 315.987 238.142C316.404 238.406 316.897 238.525 317.389 238.477C317.715 238.461 318.04 238.472 318.366 238.472Z" fill="#FCFFFD"/>
<path d="M340.034 222.392L341.691 231.515C341.191 231.255 338.514 229.984 338.15 229.772C331.438 225.911 328.782 223.766 322.07 219.937C312.852 214.644 303.631 209.357 294.407 204.075C294.013 203.861 293.666 203.571 293.386 203.222C293.106 202.872 292.899 202.469 292.778 202.038C290.421 194.81 288.02 187.598 285.631 180.376C285.571 180.208 285.528 180.034 285.446 179.757C286.092 179.654 286.712 179.556 287.331 179.469C293.445 178.654 299.562 177.843 305.681 177.036C305.856 177.028 306.027 176.973 306.174 176.878C306.322 176.782 306.442 176.65 306.522 176.493C309.458 171.508 312.405 166.526 315.363 161.548C315.39 161.505 315.407 161.456 315.363 161.315C315.168 161.472 314.972 161.624 314.782 161.787C310.076 165.827 305.369 169.873 300.663 173.924C300.432 174.138 300.161 174.304 299.865 174.412C299.57 174.52 299.256 174.568 298.941 174.554C294.559 174.478 290.176 174.446 285.799 174.397H284.643C284.55 173.827 284.425 173.311 284.393 172.833C284.36 172.355 284.485 172.149 285.039 172.1C285.908 172.024 286.777 171.948 287.646 171.937C291.49 171.879 295.333 171.834 299.175 171.801C299.656 171.816 300.125 171.649 300.489 171.334C305.195 167.352 309.927 163.385 314.684 159.436C314.868 159.289 315.031 159.117 315.168 158.925C304.422 161.859 293.911 165.59 283.719 170.085C283.524 169.748 283.361 169.466 283.176 169.178C277.431 158.751 271.718 148.298 265.923 137.893C263.572 133.668 261.036 129.53 258.587 125.359C256.82 122.384 254.842 119.54 252.667 116.849C246.618 109.319 240.257 102.055 233.584 95.0564C232.645 94.0789 231.629 93.172 230.668 92.2162C230.53 92.0469 230.331 91.9385 230.114 91.9142C229.897 91.8898 229.678 91.9514 229.506 92.0859C228.094 92.9113 226.633 93.6662 225.249 94.5405C215.937 100.416 206.633 106.309 197.336 112.217C189.371 117.285 181.442 122.385 173.55 127.515C172.114 128.458 170.47 129.036 168.76 129.198C165.04 129.568 161.325 129.991 157.6 130.284C149.427 130.974 141.238 131.289 133.032 131.164C128.014 131.088 123.002 130.833 117.995 130.398C117.486 130.332 117.001 130.145 116.578 129.855C107.606 124.425 98.5646 119.157 89.3326 114.194C84.8534 111.707 80.2515 109.449 75.5444 107.427C74.5072 106.998 73.4319 106.661 72.3784 106.265C71.9672 106.113 71.5129 106.129 71.1131 106.309C69.3114 107.048 67.5701 107.927 65.9052 108.937C60.9634 111.864 56.2931 115.198 51.5957 118.489C48.9222 120.358 46.3818 122.41 43.9929 124.631C40.082 128.294 36.4666 132.259 33.1807 136.492C33.0449 136.671 32.92 136.861 32.7462 137.111C33.2893 137.469 33.8323 137.827 34.3754 138.148C41.4918 142.425 49.0338 145.95 56.8796 148.667C65.5455 151.574 74.3545 154.035 83.2721 156.042C90.2612 157.638 97.2938 159.034 104.375 160.147C109.581 160.965 114.802 161.702 120.037 162.357C124.87 162.947 129.711 163.44 134.558 163.834C139.256 164.209 143.969 164.453 148.678 164.644C157.305 165.006 165.938 165.056 174.576 164.796C180.642 164.622 186.708 164.356 192.774 164.073C196.282 163.91 199.785 163.684 203.282 163.395C207.415 163.058 211.542 162.651 215.674 162.238C219.807 161.825 223.962 161.266 228.072 160.538C228.17 160.529 228.268 160.529 228.366 160.538C228.366 160.728 228.431 160.918 228.436 161.108C228.648 168.206 228.567 175.304 228.311 182.396C228.219 184.954 228.132 187.517 227.969 190.075C227.703 194.24 227.426 198.405 227.062 202.565C226.747 206.29 226.371 210.01 225.933 213.725C225.232 219.753 224.412 225.764 223.391 231.749C221.537 242.551 219.108 253.246 216.114 263.789C214.453 269.654 212.677 275.481 210.45 281.167C210.168 281.878 209.831 282.573 209.538 283.279C209.443 283.519 209.297 283.734 209.109 283.909C208.921 284.085 208.697 284.217 208.452 284.295C206.882 284.838 205.335 285.452 203.749 285.968C192.041 289.769 180.235 293.277 168.228 296.068C162.743 297.345 157.209 298.387 151.637 299.234C147.157 299.913 142.677 300.57 138.191 301.238C138.019 301.267 137.848 301.307 137.681 301.358V301.542C138.159 301.704 138.647 301.834 139.142 301.933C141.803 302.314 144.458 302.726 147.13 303.02C150.443 303.378 153.761 303.649 157.079 303.916C160.247 304.165 163.414 304.388 166.582 304.584C170.574 304.833 174.56 305.083 178.529 305.284C184.107 305.561 189.684 305.876 195.277 305.827C195.991 305.825 196.699 305.696 197.368 305.447C212.861 299.75 228.322 294.005 243.875 288.411C254.259 284.675 268.188 279.516 278.707 276.198L292.175 275.584L307.722 280.667L304.969 286.033L287.401 285.164C272.103 289.003 256.925 293.283 241.785 297.741C236.533 299.294 231.363 301.119 226.155 302.824C217.222 305.767 208.229 308.7 199.242 311.714C198.253 312.055 197.207 312.199 196.163 312.137C192.866 311.915 189.564 311.703 186.273 311.448C183.873 311.258 181.478 311.03 179.083 310.785C175.876 310.459 172.668 310.115 169.46 309.753C166.354 309.4 163.253 309.037 160.152 308.629C156.221 308.086 152.289 307.576 148.363 307C144.241 306.365 140.125 305.691 136.014 304.953C130.027 303.958 124.111 302.574 118.305 300.809C116.795 300.326 115.334 299.696 113.857 299.126C113.612 299.037 113.398 298.881 113.238 298.675H113.656C116.317 298.518 118.973 298.349 121.634 298.208C121.808 298.197 121.976 298.141 122.123 298.046C122.269 297.951 122.389 297.819 122.47 297.665C123.67 295.971 124.87 294.282 126.087 292.604C126.396 292.175 126.776 291.8 127.173 291.333C127.547 291.757 127.868 292.082 128.139 292.446C129.378 294.146 130.621 295.835 131.81 297.567C131.952 297.759 132.14 297.912 132.356 298.012C132.573 298.111 132.811 298.155 133.049 298.137C134.458 298.217 135.871 298.139 137.263 297.904C137.523 297.864 137.77 297.762 137.984 297.607C138.197 297.452 138.371 297.249 138.49 297.013C139.62 295.091 140.798 293.212 141.966 291.3C142.161 290.985 142.416 290.703 142.715 290.312C144.192 292.387 145.294 294.553 146.587 296.726C147.369 296.617 148.173 296.508 148.976 296.389C149.34 296.34 149.471 296.047 149.59 295.764C150.16 294.418 150.714 293.049 151.284 291.729C151.464 291.311 151.665 290.909 151.903 290.399C152.251 290.746 152.533 290.996 152.772 291.284C153.69 292.37 154.602 293.494 155.488 294.629C155.582 294.779 155.721 294.895 155.884 294.962C156.048 295.029 156.228 295.044 156.4 295.004C158.474 294.689 160.549 294.38 162.629 294.092C162.804 294.069 162.969 294 163.108 293.892C163.248 293.784 163.356 293.641 163.422 293.478C164.508 291.436 165.594 289.405 166.68 287.374C166.908 286.945 167.169 286.538 167.462 286.049C167.804 286.277 168.103 286.462 168.385 286.668C170.08 287.901 171.758 289.172 173.474 290.377C174.989 291.463 174.489 291.17 176.189 290.996C176.703 290.97 177.199 290.8 177.62 290.505C178.042 290.21 178.372 289.803 178.573 289.329C179.263 287.841 180.05 286.402 180.821 284.985C181.055 284.539 181.364 284.127 181.679 283.627C182.13 283.861 182.526 284.023 182.885 284.252C184.101 285.055 185.291 285.908 186.518 286.701C188.386 287.912 187.81 287.787 189.907 287.244C191.166 286.929 192.388 286.456 193.616 286.016C194.028 285.872 194.403 285.638 194.714 285.33C195.025 285.023 195.263 284.651 195.413 284.241C195.853 283.155 196.347 282.068 196.836 280.982C196.999 280.618 197.216 280.276 197.466 279.826L202.695 283.084C202.994 282.745 203.262 282.382 203.499 281.998C204.118 280.787 204.743 279.581 205.27 278.332C207.512 273.021 209.337 267.558 211.064 262.041C213.725 253.563 216.065 244.999 217.944 236.311C218.851 232.129 219.574 227.92 220.187 223.685C220.839 219.123 221.507 214.561 222.115 209.994C222.658 206.084 223.103 202.169 223.565 198.253C223.972 194.767 224.369 191.28 224.727 187.794C225.048 184.682 225.352 181.571 225.585 178.459C225.835 175.135 226.014 171.812 226.188 168.488C226.242 167.495 226.188 166.49 226.155 165.491C226.114 165.052 226.051 164.615 225.965 164.182C225.216 164.242 224.505 164.269 223.793 164.372C223.609 164.372 223.418 164.622 223.304 164.801C222.761 165.664 222.218 166.533 221.675 167.419C220.654 169.135 219.661 170.867 218.64 172.588C218.341 173.093 218.01 173.582 217.662 174.055C217.065 174.864 216.847 174.886 216.18 174.163C215.745 173.694 215.338 173.199 214.963 172.681C213.703 170.872 212.47 169.048 211.227 167.25C211.01 166.935 210.803 166.609 210.586 166.273C210.195 166.273 209.815 166.273 209.435 166.273C208.034 166.354 206.627 166.479 205.221 166.533C205.008 166.524 204.797 166.578 204.614 166.689C204.432 166.799 204.286 166.96 204.194 167.152C202.733 169.77 201.245 172.371 199.768 174.978C199.627 175.222 199.481 175.456 199.291 175.782C199.068 175.505 198.894 175.298 198.747 175.076C197.238 173.007 195.717 170.943 194.229 168.863C194.105 168.646 193.92 168.47 193.697 168.357C193.474 168.243 193.223 168.196 192.975 168.222C190.259 168.347 187.544 168.429 184.829 168.488C184.611 168.474 184.394 168.522 184.202 168.625C184.009 168.729 183.85 168.885 183.743 169.075C182.423 171.024 181.076 172.963 179.741 174.902C179.583 175.13 179.415 175.342 179.197 175.608C177.568 173.256 175.966 170.976 174.31 168.548C172.29 171.236 170.704 174.028 168.983 176.851C168.765 176.542 168.602 176.308 168.44 176.091C167.028 173.952 165.61 171.817 164.22 169.667C164.103 169.461 163.929 169.293 163.719 169.184C163.509 169.075 163.272 169.03 163.036 169.053C159.273 169.026 155.504 168.983 151.741 168.879C151.456 168.85 151.169 168.905 150.916 169.039C150.663 169.172 150.454 169.377 150.318 169.629C148.325 172.643 146.294 175.602 144.274 178.622C144.105 178.872 143.926 179.111 143.687 179.453C143.508 179.105 143.377 178.872 143.263 178.627C141.732 175.369 140.19 172.111 138.686 168.809C138.608 168.57 138.451 168.366 138.24 168.23C138.029 168.095 137.778 168.036 137.529 168.065C136.584 168.065 135.634 168.065 134.689 167.983C134.501 167.956 134.31 167.987 134.14 168.071C133.97 168.156 133.83 168.29 133.738 168.456C132.685 170.036 131.609 171.595 130.545 173.164L130.002 173.919C129.812 173.593 129.671 173.376 129.54 173.126C128.558 171.301 127.569 169.477 126.613 167.636C126.517 167.43 126.363 167.256 126.171 167.136C125.978 167.015 125.754 166.953 125.527 166.957C122.063 166.599 118.603 166.197 115.144 165.811C114.226 165.708 113.309 165.605 112.396 165.474C112.223 165.44 112.044 165.459 111.882 165.529C111.72 165.598 111.583 165.716 111.489 165.865C109.822 167.978 108.139 170.074 106.461 172.176C106.254 172.431 106.042 172.675 105.765 173.001C105.608 172.654 105.489 172.404 105.374 172.149C104.153 169.303 102.914 166.463 101.714 163.606C101.644 163.337 101.489 163.097 101.272 162.923C101.055 162.749 100.787 162.649 100.509 162.64C99.9804 162.579 99.4563 162.487 98.9393 162.363L94.1875 170.221C94.0409 169.895 93.9432 169.678 93.8671 169.498C92.9602 167.028 92.0316 164.557 91.1518 162.069C90.9292 161.445 90.6631 161.108 89.9408 161.065C88.8547 161.01 87.812 160.81 86.6825 160.663L81.1542 168.706C80.9967 168.347 80.8772 168.103 80.7795 167.858C79.7314 165.192 78.667 162.526 77.6406 159.848C77.5658 159.606 77.4242 159.39 77.2321 159.225C77.0399 159.06 76.8051 158.952 76.5545 158.914C72.749 157.983 69.0084 156.804 65.3567 155.384L64.5313 155.075C64.3303 155.314 64.1511 155.526 63.9882 155.743C62.4894 157.589 60.9905 159.446 59.4808 161.287C59.1659 161.678 58.7966 162.026 58.3513 162.493C58.2047 162.004 58.0798 161.673 58.0092 161.331C57.5367 158.92 57.0642 156.509 56.6352 154.087C56.6142 153.851 56.5203 153.627 56.3665 153.447C56.2128 153.267 56.0068 153.14 55.7772 153.082C49.2462 150.728 42.8847 147.929 36.7377 144.703C32.1585 142.241 27.7982 139.392 23.7043 136.187C23.5034 136.03 23.3188 135.856 23.0472 135.644C23.2373 135.4 23.4111 135.156 23.5903 134.928C26.9211 130.898 30.4803 127.063 34.2505 123.442C41.9853 115.873 50.5156 109.161 59.6926 103.425C65.0243 100.111 70.6077 97.2201 76.3916 94.7794C76.674 94.6305 76.9923 94.5632 77.3108 94.5853C77.6293 94.6074 77.9354 94.7179 78.1945 94.9043C79.5413 95.8384 80.9098 96.7344 82.2077 97.7391C87.6383 101.953 92.8082 106.466 97.9563 111.033C104.093 116.507 110.181 122.041 116.284 127.558C116.621 127.905 117.078 128.111 117.561 128.134C119.814 128.205 122.063 128.357 124.316 128.367C130.773 128.4 137.23 128.454 143.687 128.367C148.705 128.281 153.723 128.025 158.735 127.737C162.344 127.557 165.936 127.118 169.482 126.423C170.688 126.195 171.824 125.693 172.806 124.957C181.857 118.133 190.938 111.328 200.051 104.544C208.023 98.608 216.011 92.6941 224.255 87.1332C226.188 85.8299 228.208 84.6623 230.169 83.4024C230.417 83.2034 230.731 83.1057 231.048 83.1288C231.366 83.152 231.663 83.2944 231.879 83.5273C233.264 84.7057 234.714 85.8082 236.072 87.0137C240.247 90.7643 244.178 94.7785 247.84 99.0316C248.005 99.2513 248.228 99.4209 248.484 99.5216C248.74 99.6223 249.019 99.65 249.29 99.6018C251.532 99.3791 253.781 99.2216 256.029 99.0587L267.292 98.1735C270.252 97.9454 273.217 97.7282 276.182 97.5056C279.375 97.2666 282.568 97.0313 285.761 96.7996C287.39 96.6801 289.085 96.5987 290.741 96.4629C290.968 96.4194 291.204 96.4598 291.403 96.5766C291.603 96.6935 291.754 96.8788 291.827 97.0983C292.023 97.6301 292.182 98.1743 292.305 98.7274C292.348 98.9171 292.337 99.115 292.273 99.2985C292.208 99.4821 292.093 99.6437 291.941 99.7647C291.463 100.188 291.007 100.644 290.513 101.046C284.083 106.336 277.65 111.621 271.213 116.904C269.149 118.592 267.069 120.254 264.995 121.932L264.327 122.475C265.217 124.191 266.103 125.913 267.042 127.683C268.177 127.602 269.296 127.526 270.415 127.439C272.793 127.26 275.166 127.07 277.539 126.896L286.809 126.184L295.851 125.516L305.974 124.81C306.636 124.767 307.304 124.762 307.967 124.718C308.12 124.695 308.277 124.723 308.414 124.797C308.55 124.872 308.658 124.989 308.722 125.131C308.937 125.567 309.118 126.019 309.265 126.483C309.371 126.799 309.376 127.14 309.279 127.458C309.182 127.777 308.987 128.057 308.722 128.259C306.256 130.301 303.834 132.413 301.363 134.433C294.075 140.382 286.777 146.31 279.467 152.218L278.767 152.805L284.501 167.245L285.587 166.772C291.404 164.09 297.39 161.793 303.508 159.897C308.612 158.369 313.816 157.2 319.083 156.4C320.854 156.128 322.635 155.944 324.416 155.727C324.725 155.694 325.051 155.727 325.502 155.727C325.285 156.199 325.149 156.552 324.959 156.878C323.58 159.392 322.151 161.879 320.805 164.415C318.453 168.847 316.167 173.316 313.821 177.753C312.556 180.153 311.269 182.548 309.905 184.894C308.966 186.523 309.21 186.453 307.228 186.241C305.143 186.018 303.074 185.638 301.01 185.263C297.355 184.612 293.712 183.911 290.062 183.227C289.895 183.208 289.726 183.199 289.557 183.2C289.628 183.444 289.671 183.634 289.742 183.819C291.914 189.325 294.072 194.832 296.215 200.339C296.286 200.514 296.399 200.669 296.544 200.79C296.689 200.911 296.861 200.995 297.046 201.034L340.034 222.392ZM268.269 129.79C270.572 134.678 272.837 139.473 275.128 144.322C276.594 143.377 278.05 142.541 279.435 141.537C277.892 137.382 276.372 133.288 274.84 129.171L268.269 129.79ZM267.308 100.042L259.673 100.731C261.063 104.728 262.388 108.611 263.795 112.597L270.154 108.454C269.187 105.619 268.269 102.882 267.303 100.042H267.308ZM287.141 136.671L284.295 128.248L276.795 128.932C276.931 129.899 280.504 140.146 280.906 140.727L287.141 136.671ZM262.459 113.368C260.884 109.187 259.418 105.076 257.837 100.987C255.301 101.198 252.857 101.432 250.278 101.72C253.752 105.946 256.987 110.365 259.966 114.954L262.459 113.368ZM271.528 107.297L277.192 103.381C276.584 101.997 276.013 100.666 275.416 99.3465L268.899 99.8896L271.528 107.297ZM294.184 131.593C293.565 130.187 292.989 128.878 292.403 127.564L285.984 128.107C286.136 129.063 288.248 134.906 288.639 135.443L294.184 131.593ZM295.433 130.817C297.79 129.502 300.065 128.286 302.205 126.847L302.145 126.668L293.951 127.374C294.483 128.557 294.939 129.627 295.455 130.817H295.433ZM278.441 102.578C280.762 101.367 283.014 100.027 285.186 98.5645C282.47 98.6297 279.755 98.8686 276.975 99.1945L278.441 102.578Z" fill="#0C3185"/>
<path d="M335.147 223.321L331.476 221.116L313.848 284.273L307.684 280.602L303.204 279.5L302.835 285.376L317.888 292.718L341.691 231.515L335.147 223.321Z" fill="#0C3185"/>
<path d="M348.37 179.458L362.028 190.536L361.963 190.721C349.326 190.759 336.694 190.954 324.063 190.895L324.014 190.726L348.37 179.458Z" fill="#DF5959"/>
<path d="M315.07 187.235C315.206 187.061 315.336 186.882 315.477 186.719C320.017 181.44 324.555 176.16 329.092 170.878C329.222 170.709 329.394 170.577 329.592 170.497C329.789 170.417 330.005 170.391 330.216 170.422C332.665 170.606 335.103 170.769 337.563 170.938L345.758 171.513C346.126 171.532 346.491 171.594 346.844 171.698C336.305 177.009 325.741 182.228 315.151 187.354L315.07 187.235Z" fill="#DF5959"/>
<path d="M343.841 198.644C343.689 198.796 343.58 198.921 343.456 199.03C340.871 201.202 338.286 203.374 335.701 205.547C335.583 205.678 335.426 205.768 335.254 205.806C335.082 205.844 334.902 205.828 334.74 205.758C330.134 203.977 325.508 202.218 320.913 200.447C320.821 200.415 320.74 200.36 320.625 200.306C321.152 200.105 342.983 198.53 343.841 198.644Z" fill="#DF5959"/>
</svg>
