<svg width="1728" height="1950" viewBox="0 0 1728 1950" fill="none" xmlns="http://www.w3.org/2000/svg">
<g filter="url(#filter0_d_408_4531)">
<path d="M1445.58 54.3439C1556.99 9.78684 1660.36 77.2223 1750.1 162.079L1829.83 886.483L-20.425 1028.03L-103.14 276.561C-75.1076 221.379 -67.7283 158.547 12.4995 148.693C92.7272 138.839 195.793 289.725 358.086 215.615C520.379 141.504 617.329 48.3706 781.093 89.8927C944.858 131.415 993.497 222.692 1117.58 210.469C1241.66 198.247 1334.17 98.9009 1445.58 54.3439Z" fill="#DF5959"/>
</g>
<g filter="url(#filter1_d_408_4531)">
<path d="M252.882 1906.08C142.477 1941.04 51.4047 1867.95 -24.9125 1778.97V1070.31H1746.16V1805.45C1713.78 1856.9 1700.21 1917.3 1623.03 1920.91C1545.85 1924.51 1463.78 1770.49 1301.99 1830.34C1140.2 1890.19 1038.44 1973.34 887.333 1920.91C736.224 1868.48 699.592 1776.32 580.537 1778.97C461.483 1781.62 363.288 1871.12 252.882 1906.08Z" fill="#DF5959"/>
</g>
<g filter="url(#filter2_d_408_4531)">
<path d="M243.795 1863.77C133.389 1898.72 42.3172 1825.63 -34 1736.65V1028H1737.07V1763.14C1704.69 1814.59 1691.13 1874.99 1613.94 1878.6C1536.76 1882.2 1454.69 1728.18 1292.9 1788.03C1131.11 1847.88 1029.35 1931.03 878.245 1878.6C727.137 1826.16 690.505 1734.01 571.45 1736.65C452.395 1739.3 354.2 1828.81 243.795 1863.77Z" fill="#5474BD"/>
</g>
<rect x="-18" y="942" width="1767" height="644" fill="#5474BD"/>
<g filter="url(#filter3_d_408_4531)">
<path d="M1462.75 122.309C1574.16 77.7524 1677.52 145.188 1767.26 230.045L1847 954.448L-3.25924 1096L-85.974 344.526C-57.9418 289.345 -50.5626 226.512 29.6652 216.659C109.893 206.805 212.959 357.691 375.252 283.58C537.545 209.47 634.495 116.336 798.259 157.858C962.023 199.38 1010.66 290.658 1134.74 278.435C1258.82 266.213 1351.34 166.866 1462.75 122.309Z" fill="#5474BD"/>
</g>
<defs>
<filter id="filter0_d_408_4531" x="-111.14" y="28.1904" width="1948.97" height="1003.84" filterUnits="userSpaceOnUse" color-interpolation-filters="sRGB">
<feFlood flood-opacity="0" result="BackgroundImageFix"/>
<feColorMatrix in="SourceAlpha" type="matrix" values="0 0 0 0 0 0 0 0 0 0 0 0 0 0 0 0 0 0 127 0" result="hardAlpha"/>
<feOffset dy="-4"/>
<feGaussianBlur stdDeviation="4"/>
<feComposite in2="hardAlpha" operator="out"/>
<feColorMatrix type="matrix" values="0 0 0 0 0 0 0 0 0 0 0 0 0 0 0 0 0 0 0.25 0"/>
<feBlend mode="normal" in2="BackgroundImageFix" result="effect1_dropShadow_408_4531"/>
<feBlend mode="normal" in="SourceGraphic" in2="effect1_dropShadow_408_4531" result="shape"/>
</filter>
<filter id="filter1_d_408_4531" x="-32.9125" y="1066.31" width="1787.07" height="883.208" filterUnits="userSpaceOnUse" color-interpolation-filters="sRGB">
<feFlood flood-opacity="0" result="BackgroundImageFix"/>
<feColorMatrix in="SourceAlpha" type="matrix" values="0 0 0 0 0 0 0 0 0 0 0 0 0 0 0 0 0 0 127 0" result="hardAlpha"/>
<feOffset dy="4"/>
<feGaussianBlur stdDeviation="4"/>
<feComposite in2="hardAlpha" operator="out"/>
<feColorMatrix type="matrix" values="0 0 0 0 0 0 0 0 0 0 0 0 0 0 0 0 0 0 0.25 0"/>
<feBlend mode="normal" in2="BackgroundImageFix" result="effect1_dropShadow_408_4531"/>
<feBlend mode="normal" in="SourceGraphic" in2="effect1_dropShadow_408_4531" result="shape"/>
</filter>
<filter id="filter2_d_408_4531" x="-42" y="1024" width="1787.07" height="883.208" filterUnits="userSpaceOnUse" color-interpolation-filters="sRGB">
<feFlood flood-opacity="0" result="BackgroundImageFix"/>
<feColorMatrix in="SourceAlpha" type="matrix" values="0 0 0 0 0 0 0 0 0 0 0 0 0 0 0 0 0 0 127 0" result="hardAlpha"/>
<feOffset dy="4"/>
<feGaussianBlur stdDeviation="4"/>
<feComposite in2="hardAlpha" operator="out"/>
<feColorMatrix type="matrix" values="0 0 0 0 0 0 0 0 0 0 0 0 0 0 0 0 0 0 0.25 0"/>
<feBlend mode="normal" in2="BackgroundImageFix" result="effect1_dropShadow_408_4531"/>
<feBlend mode="normal" in="SourceGraphic" in2="effect1_dropShadow_408_4531" result="shape"/>
</filter>
<filter id="filter3_d_408_4531" x="-93.974" y="96.156" width="1948.97" height="1003.84" filterUnits="userSpaceOnUse" color-interpolation-filters="sRGB">
<feFlood flood-opacity="0" result="BackgroundImageFix"/>
<feColorMatrix in="SourceAlpha" type="matrix" values="0 0 0 0 0 0 0 0 0 0 0 0 0 0 0 0 0 0 127 0" result="hardAlpha"/>
<feOffset dy="-4"/>
<feGaussianBlur stdDeviation="4"/>
<feComposite in2="hardAlpha" operator="out"/>
<feColorMatrix type="matrix" values="0 0 0 0 0 0 0 0 0 0 0 0 0 0 0 0 0 0 0.25 0"/>
<feBlend mode="normal" in2="BackgroundImageFix" result="effect1_dropShadow_408_4531"/>
<feBlend mode="normal" in="SourceGraphic" in2="effect1_dropShadow_408_4531" result="shape"/>
</filter>
</defs>
</svg>
