<svg width="1728" height="3137" viewBox="0 0 1728 3137" fill="none" xmlns="http://www.w3.org/2000/svg">
<g filter="url(#filter0_d_408_4531)">
<path d="M1427.51 63.1667C1537.85 11.3757 1640.22 89.7594 1729.1 188.393L1808.06 1030.4L-24.3654 1194.94L-106.283 321.46C-78.521 257.32 -71.2129 184.287 8.24179 172.833C87.6964 161.38 189.769 336.762 350.498 250.62C511.227 164.478 607.242 56.2236 769.429 104.487C931.615 152.75 979.785 258.846 1102.67 244.639C1225.55 230.433 1317.18 114.957 1427.51 63.1667Z" fill="#DF5959"/>
</g>
<g filter="url(#filter1_d_408_4531)">
<path d="M265.117 3088.45C155.776 3129.08 65.5817 3044.13 -10 2940.7V2117H1744V2971.48C1711.94 3031.29 1698.5 3101.5 1622.06 3105.69C1545.62 3109.88 1464.35 2930.85 1304.11 3000.42C1143.88 3069.98 1043.11 3166.64 893.454 3105.69C743.802 3044.74 707.523 2937.62 589.615 2940.7C471.708 2943.78 374.459 3047.82 265.117 3088.45Z" fill="#DF5959"/>
</g>
<g filter="url(#filter2_d_408_4531)">
<path d="M253.117 3051.45C143.776 3092.08 53.5817 3007.13 -22 2903.7V2080H1732V2934.48C1699.94 2994.29 1686.5 3064.5 1610.06 3068.69C1533.62 3072.88 1452.35 2893.85 1292.11 2963.42C1131.88 3032.98 1031.11 3129.64 881.454 3068.69C731.802 3007.74 695.523 2900.62 577.615 2903.7C459.708 2906.78 362.459 3010.82 253.117 3051.45Z" fill="#5474BD"/>
</g>
<rect y="1095" width="1728" height="1786" fill="#5474BD"/>
<g filter="url(#filter3_d_408_4531)">
<path d="M1444.51 142.166C1554.85 90.3756 1657.22 168.759 1746.1 267.393L1825.06 1109.4L-7.36499 1273.94L-89.2826 400.46C-61.5206 336.32 -54.2125 263.287 25.2422 251.833C104.697 240.379 206.769 415.762 367.498 329.62C528.227 243.477 624.243 135.223 786.429 183.487C948.615 231.75 996.786 337.846 1119.67 323.639C1242.55 309.432 1334.18 193.957 1444.51 142.166Z" fill="#5474BD"/>
</g>
<defs>
<filter id="filter0_d_408_4531" x="-114.283" y="34.7153" width="1930.35" height="1164.22" filterUnits="userSpaceOnUse" color-interpolation-filters="sRGB">
<feFlood flood-opacity="0" result="BackgroundImageFix"/>
<feColorMatrix in="SourceAlpha" type="matrix" values="0 0 0 0 0 0 0 0 0 0 0 0 0 0 0 0 0 0 127 0" result="hardAlpha"/>
<feOffset dy="-4"/>
<feGaussianBlur stdDeviation="4"/>
<feComposite in2="hardAlpha" operator="out"/>
<feColorMatrix type="matrix" values="0 0 0 0 0 0 0 0 0 0 0 0 0 0 0 0 0 0 0.25 0"/>
<feBlend mode="normal" in2="BackgroundImageFix" result="effect1_dropShadow_408_4531"/>
<feBlend mode="normal" in="SourceGraphic" in2="effect1_dropShadow_408_4531" result="shape"/>
</filter>
<filter id="filter1_d_408_4531" x="-18" y="2113" width="1770" height="1024" filterUnits="userSpaceOnUse" color-interpolation-filters="sRGB">
<feFlood flood-opacity="0" result="BackgroundImageFix"/>
<feColorMatrix in="SourceAlpha" type="matrix" values="0 0 0 0 0 0 0 0 0 0 0 0 0 0 0 0 0 0 127 0" result="hardAlpha"/>
<feOffset dy="4"/>
<feGaussianBlur stdDeviation="4"/>
<feComposite in2="hardAlpha" operator="out"/>
<feColorMatrix type="matrix" values="0 0 0 0 0 0 0 0 0 0 0 0 0 0 0 0 0 0 0.25 0"/>
<feBlend mode="normal" in2="BackgroundImageFix" result="effect1_dropShadow_408_4531"/>
<feBlend mode="normal" in="SourceGraphic" in2="effect1_dropShadow_408_4531" result="shape"/>
</filter>
<filter id="filter2_d_408_4531" x="-30" y="2076" width="1770" height="1024" filterUnits="userSpaceOnUse" color-interpolation-filters="sRGB">
<feFlood flood-opacity="0" result="BackgroundImageFix"/>
<feColorMatrix in="SourceAlpha" type="matrix" values="0 0 0 0 0 0 0 0 0 0 0 0 0 0 0 0 0 0 127 0" result="hardAlpha"/>
<feOffset dy="4"/>
<feGaussianBlur stdDeviation="4"/>
<feComposite in2="hardAlpha" operator="out"/>
<feColorMatrix type="matrix" values="0 0 0 0 0 0 0 0 0 0 0 0 0 0 0 0 0 0 0.25 0"/>
<feBlend mode="normal" in2="BackgroundImageFix" result="effect1_dropShadow_408_4531"/>
<feBlend mode="normal" in="SourceGraphic" in2="effect1_dropShadow_408_4531" result="shape"/>
</filter>
<filter id="filter3_d_408_4531" x="-97.2827" y="113.715" width="1930.35" height="1164.22" filterUnits="userSpaceOnUse" color-interpolation-filters="sRGB">
<feFlood flood-opacity="0" result="BackgroundImageFix"/>
<feColorMatrix in="SourceAlpha" type="matrix" values="0 0 0 0 0 0 0 0 0 0 0 0 0 0 0 0 0 0 127 0" result="hardAlpha"/>
<feOffset dy="-4"/>
<feGaussianBlur stdDeviation="4"/>
<feComposite in2="hardAlpha" operator="out"/>
<feColorMatrix type="matrix" values="0 0 0 0 0 0 0 0 0 0 0 0 0 0 0 0 0 0 0.25 0"/>
<feBlend mode="normal" in2="BackgroundImageFix" result="effect1_dropShadow_408_4531"/>
<feBlend mode="normal" in="SourceGraphic" in2="effect1_dropShadow_408_4531" result="shape"/>
</filter>
</defs>
</svg>
