<?xml version="1.0" encoding="utf-8"?>
<!-- Generator: Adobe Illustrator 25.4.1, SVG Export Plug-In . SVG Version: 6.00 Build 0)  -->
<svg version="1.1" xmlns="http://www.w3.org/2000/svg" xmlns:xlink="http://www.w3.org/1999/xlink" x="0px" y="0px"
	 viewBox="0 0 1920 1080" style="enable-background:new 0 0 1920 1080;" xml:space="preserve">
<style type="text/css">
	.st0{fill:#113186;}
	.st1{fill:#143387;}
	.st2{fill:#133286;}
	.st3{fill:#5558A3;}
	.st4{fill:#5E73AD;}
	.st5{fill:#23378D;}
	.st6{fill:#1D368A;}
	.st7{fill:#EE7CDB;}
	.st8{fill:#C1FEAF;}
	.st9{fill:#FED75F;}
	.st10{fill:#C1FDAF;}
	.st11{fill:#FEFEFE;}
	.st12{fill:#FDFCFD;}
	.st13{fill:#FCFBFD;}
	.st14{fill:#C1FCAF;}
	.st15{fill:#FBF9FC;}
	.st16{fill:#4D65A4;}
	.st17{fill:#323490;}
	.st18{fill:#F9F7FB;}
	.st19{fill:#294D8B;}
	.st20{fill:#FAF8FC;}
	.st21{fill:#FAF1FA;}
	.st22{fill:#4B63A3;}
	.st23{fill:#BBEFAF;}
	.st24{fill:#EFE6F4;}
	.st25{fill:#446B93;}
	.st26{fill:#214389;}
	.st27{fill:#314D95;}
	.st28{fill:#F8EBF8;}
	.st29{fill:#4B7493;}
	.st30{fill:#423B97;}
	.st31{fill:#383892;}
	.st32{fill:#7184B7;}
	.st33{fill:#476A93;}
	.st34{fill:#E7CBEB;}
	.st35{fill:#EFE1F3;}
	.st36{fill:#7284B7;}
	.st37{fill:#415794;}
	.st38{fill:#F357EA;}
	.st39{fill:#C53CBF;}
	.st40{fill:#FEFDFE;}
	.st41{fill:#FDFDFE;}
	.st42{fill:#C43CBF;}
	.st43{fill:#4962A2;}
	.st44{fill:#FBF1FA;}
	.st45{fill:#1F3A8C;}
	.st46{fill:#183488;}
	.st47{fill:#323794;}
	.st48{fill:#C0F4B0;}
	.st49{fill:#F0E8F5;}
	.st50{fill:#4860A1;}
	.st51{fill:#FEF677;}
	.st52{fill:#FEF678;}
	.st53{fill:#FEF353;}
	.st54{fill:#FEF352;}
	.st55{fill:#FCCE6B;}
	.st56{fill:#FCCD6C;}
	.st57{fill:#F191C8;}
	.st58{fill:#FDF4FB;}
	.st59{fill:#FEF055;}
	.st60{fill:#FDF3FB;}
	.st61{fill:#455EA0;}
	.st62{fill:#EBE1F2;}
	.st63{fill:#123186;}
	.st64{fill:#C53EBE;}
	.st65{fill:#F7C769;}
	.st66{fill:#F7C49F;}
	.st67{fill:#FCCF6A;}
	.st68{fill:#FDEF55;}
	.st69{fill:#C24EB0;}
	.st70{fill:#FAC27E;}
	.st71{fill:#F4EDE8;}
	.st72{fill:#EDCA63;}
	.st73{fill:#9D8780;}
	.st74{fill:#3B6090;}
	.st75{fill:#E750DF;}
	.st76{fill:#F256E9;}
	.st77{fill:#F257E9;}
	.st78{fill:#FDD460;}
	.st79{fill:#C53DBE;}
	.st80{fill:#F256EA;}
	.st81{fill:#F5EA54;}
	.st82{fill:#F9D260;}
	.st83{fill:#FDD262;}
	.st84{fill:#FAEE55;}
	.st85{fill:#3F498A;}
	.st86{fill:#243887;}
	.st87{fill:#F06CCB;}
	.st88{fill:#FCCD6D;}
	.st89{fill:#F356EA;}
	.st90{fill:#F257E7;}
	.st91{fill:#E89B84;}
	.st92{fill:#1F3788;}
	.st93{fill:#D984D0;}
	.st94{fill:#E086D3;}
	.st95{fill:#F9E87C;}
	.st96{fill:#F2B971;}
</style>
<g id="Layer_1">
	<g>
		<path class="st0" d="M390.37,281.2c-2.75-2.31-5.49-4.62-8.24-6.93c-3.25-3.29-6.5-6.58-9.75-9.87c-3.01-2.75-1.41-5.98-0.62-8.89
			c0.86-3.18,2.38-6.17,3.62-9.25c3.72-8.01,7.44-16.02,11.15-24.03c2.62-5.31,5.23-10.61,7.85-15.92
			c4.71-9.02,9.42-18.05,14.12-27.07c7.96-14.73,15.91-29.47,23.87-44.2c1.37-1.92,2.73-3.84,4.1-5.76
			c3.64-3.9,8.45-4.44,13.88-0.26c10.62,8.17,21.1,16.56,31.13,25.43c10.29,9.1,20.42,18.46,29.79,28.48
			c11.06,11.82,21.25,24.46,31.81,36.75c4.05,4.71,8.05,9.48,12.2,14.11c3.43,3.84,3.99,8.19,1.26,12.63
			c-3.02,4.9-6.09,9.77-9.23,14.8c8.53,11.76,17.18,23.74,25.9,35.65c1.4,1.91,2.85,3.16,5.84,1.83c4.02-1.79,8.43-2.77,12.75-3.77
			c2.13-0.5,4.43-0.27,6.65-0.36c0.29,0.55,0.59,1.09,0.88,1.64c-2.63,2.31-5.23,4.64-7.89,6.91c-0.86,0.74-1.91,1.26-2.78,1.98
			c-6.22,5.1-6.07,5.03-2.24,11.84c11.61,20.6,23.27,41.17,34.52,61.97c3.73,6.89,6.25,14.42,9.35,21.65
			c1.52,3.53,3.23,6.34,7.77,7.22c7.21,1.38,14.22,3.8,21.31,5.77c0.98,0.73,1.87,1.65,2.95,2.17c13.59,6.52,27.25,12.9,40.78,19.55
			c2.03,1,3.49,3.17,5.21,4.8c-0.32,0.25-0.65,0.49-0.97,0.74c-3.67-1.84-7.34-3.67-11.01-5.51c-1.35-0.32-2.7-0.64-4.05-0.96
			c-20.11-9.82-40.92-17.62-62.81-22.53c-7.45-1.67-14.8-3.97-22.03-6.44c-17.28-5.89-31.39-16.22-42.09-31.09
			c-0.32-1.03-0.63-2.06-0.95-3.09c-1.67-9.68-3.86-19.3-4.82-29.05c-0.52-5.3,1.03-10.8,1.64-16.21c2.08-4.06,4.16-8.13,6.25-12.19
			c-10.71,8.04-17.46,18.83-22.83,30.62c-1.43,2.97-2.85,5.95-4.28,8.92c-0.33,0-0.66,0-1,0c0.97-3.31,1.94-6.61,2.91-9.92
			c-0.32-0.1-0.63-0.19-0.95-0.29c-1.85,5.08-3.7,10.15-5.55,15.23c-0.19-0.04-0.39-0.08-0.58-0.12c1.03-4.38,2.05-8.76,3.07-13.15
			c4.39-7.91,8.78-15.81,13.17-23.72c4.01-3.94,7.93-7.98,12.08-11.78c1.85-1.69,2.01-2.89,0.59-5.01
			c-21.71-32.49-45.81-63.05-73.54-90.65c-10.94-10.89-22.13-21.51-33.21-32.26c-0.93-0.84-1.87-1.67-3.11-2.79
			c-0.57,1.17-0.93,1.87-1.25,2.59c-16.56,36.74-32.33,73.87-49.86,110.14c-26.16,54.14-53.08,107.89-72.46,164.98
			c-0.97,2.87-0.94,6.08-1.37,9.14c-0.3,0.38-0.73,0.72-0.89,1.16c-4.33,12.27-8.63,24.54-12.93,36.82
			c-0.66-0.25-1.32-0.5-1.98-0.75c-0.39-1.2-0.77-2.41-1.16-3.61c0.06-2.47-0.11-4.98,0.22-7.41c0.84-6.22,1.9-12.4,2.88-18.6
			c0.31-1.69,0.61-3.37,0.92-5.06c3.85-11.59,7.33-23.32,11.62-34.75c6.93-18.47,14.39-36.74,21.62-55.09l-0.08,0.11
			c3.69-8.04,7.38-16.08,11.08-24.12l-0.08,0.12c3.99-8.41,7.98-16.82,11.98-25.23c0.62-1.33,1.24-2.66,1.86-3.99
			c6.39-12.67,12.87-25.28,19.08-38.04C394.76,284.52,393.56,282.09,390.37,281.2z M599.45,367.22c-0.78-1.82-1.43-3.7-2.36-5.43
			c-6.9-12.81-13.86-25.58-20.8-38.37c-0.86-1.29-1.72-2.57-2.58-3.86c-1.11,1.06-2.74,1.92-3.25,3.22
			c-1.79,4.59-3.95,9.23-4.6,14.04c-1.16,8.68-1.11,17.45,3.74,25.37c4.34,9.79,9.6,18.91,18.64,25.23
			c7.67,6.85,16.8,10.71,27.97,14.16C610.17,389.22,604.81,378.22,599.45,367.22z M443.28,134.96c-1.06,1.18-2.43,2.19-3.13,3.55
			c-16.58,31.91-33.18,63.81-49.52,95.85c-3.16,6.2-5.41,12.89-7.69,19.49c-0.84,2.44-2.01,5.62,1.61,7.39
			c4.94,4.1,9.88,8.2,15.02,12.47c0.81-1.31,1.32-1.96,1.66-2.7c7-15.28,14.27-30.45,20.89-45.9c7.34-17.13,13.98-34.55,21.16-51.75
			c3.42-8.19,6.11-8.72,12.85-3.08c29.3,24.52,56.46,51.2,81.32,80.22c1.23,1.44,2.58,2.77,4.27,4.57
			c2.29-3.88,4.08-7.05,6.02-10.14c1.81-2.88,1.48-4.98-0.88-7.72c-6.26-7.27-11.64-15.32-18.06-22.43
			c-12.56-13.92-25.14-27.9-38.56-40.98c-14.15-13.79-29.28-26.58-44.08-39.69C445.77,133.75,444.27,134.65,443.28,134.96z"/>
		<path class="st1" d="M696.34,435.28c3.67,1.84,7.34,3.67,11.01,5.51c0.32-0.25,0.65-0.49,0.97-0.74c-1.72-1.63-3.18-3.8-5.21-4.8
			c-13.53-6.65-27.19-13.03-40.78-19.55c-1.08-0.52-1.97-1.44-2.95-2.17c10.26,3.98,20.86,7.27,30.68,12.14
			c8.58,4.26,16.27,10.32,24.35,15.58c0.53,0.78,0.92,1.71,1.6,2.31c19.13,16.91,34.38,36.65,44.32,60.33
			c0.67,1.6,1.97,2.94,2.97,4.4c2.87,9.01,6.32,17.88,8.49,27.05c4.64,19.64,4.84,39.67,1.84,59.5c-2.35,15.56-6.27,30.88-9.49,46.3
			l0.06-0.07c-0.8,1.79-1.64,3.56-2.38,5.37c-3.43,8.38-6.83,16.78-10.24,25.17c2.17-6.57,4.47-13.11,6.48-19.73
			c3.76-12.35,8.69-24.53,10.68-37.17c2.48-15.74,3.54-31.89,3.27-47.84c-0.38-23.08-6.48-45.13-16.35-66.07
			c-1.39-2.96-2.63-5.99-3.93-8.99c-0.39,0.15-0.79,0.31-1.18,0.46c0.92,2.26,1.68,4.6,2.77,6.78
			c8.47,16.95,13.53,34.97,14.89,53.75c0.99,13.67,1.27,27.58-0.15,41.18c-1.38,13.22-4.68,26.35-8.34,39.18
			c-3.53,12.35-8.54,24.29-13.06,36.35c-0.66,1.75-2.22,3.16-3.36,4.72c3.52-9.11,7.67-18.03,10.4-27.37
			c3.8-12.99,6.54-26.29,9.73-39.46c0.67-5.71,1.34-11.41,2.01-17.12c0.31-1.67,0.63-3.35,0.94-5.02
			c0.04-8.41,0.08-16.81,0.13-25.22c-0.38-4.45-0.48-8.94-1.19-13.34c-6.07-37.17-21.97-69.33-49.46-95.35
			C709.74,445.57,702.86,440.62,696.34,435.28z"/>
		<path class="st2" d="M359.97,723.82c0.4-16.45-5.57-30.6-20.41-39.69c-2.4-0.95-4.79-1.89-7.18-2.83
			c0.91,0.95,1.71,2.04,2.75,2.81c10.91,8.02,19.36,18.24,21.57,31.6c1.69,10.2,1.2,20.94,0.37,31.33
			c-1.15,14.37-3.91,28.61-5.25,42.97c-0.97,10.36-0.76,20.83-1.04,31.25c-0.45,16.42,5.33,29.97,19.34,39.01
			c8,5.17,16.86,7.62,26.21,2.82c-17.72,2.85-29.77-2.87-37.1-19.38c-3.29-7.39-5.47-15.9-5.6-23.94
			c-0.24-14.41,1.32-28.85,2.36-43.27C357.26,758.93,359.54,741.4,359.97,723.82z"/>
		<path class="st3" d="M339.55,684.13c-2.39-0.94-4.78-1.88-7.18-2.83c-4.67-2.68-9.33-5.36-14-8.04
			c-6.25-5.09-12.89-9.78-18.66-15.36c-10.25-9.91-16.01-22.17-16.46-36.6c-0.21-6.7-0.01-13.41,0.01-20.11
			c0.08,3.99,0.12,7.98,0.24,11.96c0.53,16.69,4.85,31.83,17.74,43.48c7.94,8.27,17.18,14.75,27.24,20.19
			C332.36,678.92,335.87,681.68,339.55,684.13z"/>
		<path class="st4" d="M731.97,456.4c11.06,13.07,20.87,26.97,27.83,42.7c1.32,2.99,2.33,6.13,3.48,9.2c-1-1.46-2.3-2.8-2.97-4.4
			c-9.93-23.67-25.18-43.42-44.32-60.33c-0.68-0.6-1.07-1.53-1.6-2.31C720.26,446.3,726.11,451.35,731.97,456.4z"/>
		<path class="st5" d="M302.93,810.42c0.18,1.79,0.36,3.59,0.55,5.38c0.2,0.02,0.39,0.05,0.59,0.07c1.73-7.99,3.45-15.97,5.18-23.96
			c-1.13,8.49-2.29,16.97-3.39,25.47c-0.64,4.97-1.17,9.95-2.58,14.91c-1.52-16.29-2.26-32.55-7.98-48.01
			c0.04-0.35,0.07-0.7,0.1-1.05c2.3,8.13,4.61,16.26,6.89,24.39C302.55,808.54,302.72,809.49,302.93,810.42z"/>
		<path class="st6" d="M295.4,783.23c-0.03,0.35-0.07,0.7-0.1,1.05c-3.64-7.61-7.28-15.23-10.91-22.84
			C288.05,768.7,291.73,775.96,295.4,783.23z"/>
		<path class="st7" d="M631.76,591.35c-11.82,27.63-23.63,55.27-35.45,82.9c-2.99,7.25-6.26,14.39-8.87,21.77
			c-1.52,4.31-1.99,8.99-2.94,13.5c-2.29,9.9-4.56,19.8-6.9,29.68c-0.26,1.09-0.9,2.08-1.36,3.12c-0.94,8.65-1.87,17.3-2.81,25.95
			c-0.38,14.9-0.39,29.78,2.92,44.44c3.48,15.45,8.28,30.3,18.87,42.6c4.69,4.74,9.39,9.48,14.08,14.23
			c9.11,6.25,19.13,8.94,30.16,7.67c4.39-0.61,8.85-0.95,13.15-1.95c2.37-0.55,4.49-2.19,6.72-3.34c-0.12-0.44-0.24-0.88-0.35-1.32
			c-1.67-0.2-3.35-0.39-5.18-0.61c0.04-0.44-0.07-0.97,0.14-1.29c12.98-20.08,13.96-41.95,7.4-63.89
			c-5.13-17.14-12.8-33.52-19.2-50.29c-8.94-23.43-10.25-47.31-3.66-71.54c3.29-12.13,9.27-22.77,18.35-31.55
			c1.27-1.23,2.94-2.06,4.43-3.07c-0.57,1.17-0.99,2.45-1.73,3.51c-12.63,18.16-19.44,37.69-14.08,60.05
			c1.18,4.9,2.65,9.73,3.99,14.6c8.21,24.94,22.79,46.12,39.06,66.32c6,7.45,11.96,14.91,17.94,22.37
			c2.92,4.36,5.84,8.72,8.77,13.08c2.08,4.22,4.15,8.44,6.23,12.65c-0.11,0.58-0.48,1.25-0.31,1.73c3.35,9.43,3.98,19.16,3.25,29.02
			c-1.42,18.92-5.13,36.91-20.91,49.81c-4.13,1.97-8.1,4.4-12.4,5.84c-24.45,8.2-49.78,10.61-75.3,9.33
			c-31.2-1.56-62.34-4.42-93.5-6.73c-0.78-0.06-1.54-0.33-2.6-0.57c6.24-8.59,10.37-17.69,11.83-27.89c0.37-1.08,0.9-2.14,1.09-3.25
			c5.45-32.17-4.29-60.03-24.18-85c-6.3-6.76-12.6-13.52-18.89-20.28c-7.1-7.43-15.26-14.11-21.08-22.44
			c-14.46-20.62-17.44-44.16-14.44-68.7c2.42-19.76,10.22-36.74,26.01-49.49c10.13-8.18,21.69-13.51,34.13-17.11
			c3.35-0.97,6.7-2,9.94-3.29c3.33-1.32,3.15-3.68,0.19-4.8c-4.45-1.68-9.17-3.26-13.87-3.61c-34.7-2.59-62.67,10.4-84.33,37.38
			c-3.42,4.26-6.46,8.82-9.68,13.25c-0.9-2.11-1.61-4.33-2.72-6.32c-4.02-7.22-8.17-14.37-12.26-21.54
			c-7.65-9.39-15.3-18.77-22.96-28.16c-1.71-1.94-3.41-3.89-5.12-5.83c-4.13-3.66-8.27-7.32-12.4-10.98
			c-2.63-4.31-5.26-8.62-7.88-12.92c1.68,1.05,3.28,2.26,5.06,3.11c7.73,3.68,15.51,7.25,23.27,10.85c2,0.66,4,1.31,6,1.97
			c21.29,5.79,41.95,3.65,62.09-4.95c2.31-1.02,4.63-2.05,6.94-3.07c5.02-3.26,10.04-6.52,15.06-9.79c0.97-0.17,1.93-0.34,2.9-0.5
			c-0.21,1.34-0.41,2.68-0.9,5.84c4.01-2.12,7.01-3.28,9.52-5.1c13.48-9.8,22.32-9.9,35.77,0.06c3.2,2.37,6.1,5.15,9.26,7.58
			c2.99,2.3,6.03,2.34,8.82-0.46c3.02-3.03,0.19-4.8-1.61-6.51c-2.26-2.16-4.87-3.94-7.27-5.97c-12.98-10.97-26.78-10.75-41.17-3.12
			c-2.73,1.45-5.55,2.74-8.33,4.11c0.46-0.99,0.7-2.17,1.4-2.93c13.98-14.97,21.14-32.82,22.58-53.11c5.55,0,11.1,0,16.25,0
			c1.12,8.08,1.8,15.5,3.25,22.77c2.67,13.45,10.27,24.21,19.53,33.94c1.06,1.25,1.94,2.71,3.2,3.7
			c16.42,12.91,35.48,16.77,55.74,15.24c6.08-0.46,12-3.08,17.99-4.72c0.34-0.34,0.68-0.67,1.02-1.01c0.66-0.33,1.32-0.65,1.98-0.98
			C624.83,594.01,628.3,592.68,631.76,591.35z"/>
		<path class="st7" d="M763.42,607.41c-3.19,13.17-5.93,26.47-9.73,39.46c-2.73,9.34-6.88,18.26-10.4,27.37
			c-10.37,17.76-20.67,35.57-31.16,53.26c-1.83,3.09-4.46,5.7-6.72,8.54c-2.06,2.14-4.07,4.33-6.19,6.41
			c-6.45,6.34-12.95,12.64-19.43,18.95c-3.61-6.32-7.4-12.54-10.68-19.03c-0.81-1.61-0.63-4.43,0.25-6.08
			c7.79-14.59,15.89-29.02,23.77-43.56c1.4-2.59,2.22-5.49,3.31-8.25c3.33-10.9,7.72-21.61,9.72-32.74
			c2.57-14.3,3.22-28.95,4.7-43.45c0.85-2.86,1.79-5.7,2.52-8.59c4.55-17.96,4.97-36.15,2.91-54.46
			c-2.35-20.85-11.47-38.63-26.45-52.89c-12.56-11.96-27.57-20.71-42.92-28.91c-21.25-11.35-42.96-22.23-62.77-35.78
			c-25.79-17.64-43.26-41.38-41.77-74.93c0.75-2.79,1.51-5.59,2.26-8.38c5.37-11.79,12.12-22.57,22.83-30.62
			c-2.08,4.06-4.16,8.13-6.25,12.19c-4.28,8.5-4.43,17.48-3.25,26.65c0.31,2.44,0.36,4.92,0.53,7.38c-0.2,1.5-0.9,3.13-0.54,4.47
			c6.05,22.55,21.76,36.05,42.36,44.91c2.48,0.78,4.98,1.52,7.44,2.34c9.71,3.22,19.41,6.47,29.11,9.7
			c13.38,4.45,26.92,8.47,40.1,13.47c14.84,5.63,26.52,16.23,38.33,26.45c1.45,1.59,2.86,3.21,4.35,4.75
			c11.12,11.53,20.4,24.39,27.82,38.59c10.43,19.94,13.59,41.71,16.01,63.67c-0.68,11.67-1.44,23.34-1.95,35.02
			C761.49,604.65,762.76,606.04,763.42,607.41z"/>
		<path class="st7" d="M406.33,731.85c-1.13-9.59,1.75-18.44,5.23-27.1c9.96-24.81,23.52-47.04,45.87-62.83
			c15.37-10.86,32.54-15.72,51.25-15.35c3.05,0.06,6.09,0.83,8.48,1.17c-12,5.04-24.36,9.63-36.14,15.41
			c-6.69,3.28-12.42,8.52-18.58,12.87c-3.95,4.61-8.71,8.74-11.7,13.9c-11.08,19.14-14.69,40.12-13.13,61.98
			c0.74,10.43,1.84,20.95,7.72,30.1c7.82,12.16,15.43,24.48,23.76,36.29c12.37,17.54,24.65,34.91,32.63,55.19
			c11.98,30.44,2.77,58.93-16.28,75.67c-18.88,0.79-37.76,1.58-56.61,2.37c5.65-4.8,11.06-9.4,16.47-13.99
			c6.3-0.84,10.45-4.99,13.58-9.85c4.22-6.55,8.6-13.26,11.22-20.52c2.48-6.85,4.24-14.6,3.71-21.76
			c-0.82-11.23-5.5-21.82-13.16-30.17c-10.21-11.13-21.36-21.39-32.11-32.03c-4.73-8.29-9.45-16.59-14.18-24.88
			c-0.58-1.04-1.17-2.08-1.75-3.13c-2.1-11.62-4.19-23.24-6.29-34.87C406.33,737.51,406.33,734.68,406.33,731.85z"/>
		<path class="st7" d="M239.42,740.34c2.69,0.65,5.51,0.97,8.04,2c18.2,7.43,32.64,18.87,39.73,37.96c0.62,1.67,1.16,3.38,1.75,5.07
			c1.5,11.54,2.98,23.09,4.54,34.62c0.23,1.72,0.9,3.39,1.37,5.08c-0.13,1.65-0.26,3.3-0.38,4.94c-0.3,0.87-0.95,1.78-0.86,2.61
			c0.47,4.44,1.02,8.87,1.75,13.27c1.98,11.85,4.67,23.46,11.98,33.41c4.81,5.31,8.92,11.61,14.63,15.64
			c5.6,3.95,12.73,5.89,19.39,8.1c3.15,1.04,4.51-0.87,3.77-4.04c1.06-0.18,2.17-0.69,3.17-0.51c23.87,4.28,42.43-4.14,56.29-23.59
			c2.87-4.03,5.23-8.43,7.83-12.66c2.94-3.67,7.01-6.91,8.58-11.1c2.87-7.64,4.26-15.84,6.27-23.8
			c14.11,14.29,27.92,28.75,27.16,50.94c-0.48,14.05-8.1,24.87-16.8,34.79c-11.16,12.71-24.78,20.53-42.6,20.43
			c-13.44-0.08-26.88,1.92-40.35,2.33c-12.32,0.38-24.54-0.95-36.15-5.67c-0.79-1.36-1.3-3.03-2.41-4.03
			c-14.47-13.03-23.93-29.1-29.73-47.57c-5.52-17.59-5.83-35.9-8.12-53.96c-2.02-15.91-4.52-31.79-7.64-47.52
			c-2.85-14.37-10.94-25.4-24.17-32.34C244.02,743.49,241.76,741.83,239.42,740.34z"/>
		<path class="st7" d="M266.23,644.09c0.09-3.02-0.35-6.17,0.36-9.04c2-8.12,4.46-16.12,7.65-24.07c0.36,12.48,1.8,24.43,7.96,35.34
			c0.76,2.18,1.51,4.35,2.27,6.53c0.33,2.37-0.17,5.47,1.14,6.97c4.63,5.29,9.29,10.92,15.04,14.78
			c10.83,7.27,22.42,13.43,33.74,19.96c0.92,0.53,2.19,0.43,3.3,0.63c7.22,4.73,10.14,12.12,11.57,20.04
			c3.22,17.78-0.02,35.44-1.41,53.15c-1.65,21.18-2.91,42.4-4.34,63.59c-0.04,2.14-0.57,4.4-0.04,6.39
			c1.75,6.61,3.21,13.46,9.28,17.86c1.35,1.09,2.67,2.23,4.06,3.28c3.37,2.56,6.46,5.76,10.22,7.49
			c10.29,4.74,20.85,3.39,31.29,0.06c-0.02,1.32-0.04,2.64-0.06,3.96c-5.97,4.97-11.33,11.04-18.01,14.7
			c-16.39,8.99-32.67,7.92-47.86-3.56c-2-4.28-4-8.56-6.01-12.84c-0.65-2.33-1.29-4.67-1.94-7c-0.69-9.34-1.38-18.68-2.06-28.02
			c0.09-2-0.11-4.05,0.3-5.98c3.92-18.17,7.78-36.36,11.99-54.46c2.56-11.01,4.49-22.23-0.12-32.77
			c-3.26-7.44-8.08-14.62-13.66-20.54c-12.09-12.83-25.21-24.69-37.74-37.12c-7.36-7.3-12.52-15.87-14.05-26.4
			C268.46,652.65,267.2,648.39,266.23,644.09z"/>
		<path class="st8" d="M485.44,929.16c19.05-16.74,28.26-45.23,16.28-75.67c-7.98-20.28-20.27-37.65-32.63-55.19
			c-8.33-11.81-15.94-24.13-23.76-36.29c-5.88-9.15-6.97-19.67-7.72-30.1c-1.56-21.86,2.04-42.84,13.13-61.98
			c2.99-5.16,7.75-9.29,11.7-13.9c-0.71,1.58-1.13,3.39-2.16,4.72c-8.31,10.76-13.42,22.81-14.99,36.34
			c-3.36,12.8-2.49,25.76-0.68,38.57c2.42,17.18,7.62,33.34,20.65,45.86c7.88,7.87,16.05,15.48,23.58,23.68
			c16.37,17.82,28.8,37.86,33.12,62.15c2.51,14.14,2.4,28.29-2.22,41.93c-1.86,5.51-5.2,10.83-9.01,15.24
			c-2.28,2.63-6.67,4.13-10.33,4.68C495.51,929.92,490.43,929.24,485.44,929.16z"/>
		<path class="st9" d="M381.36,602.34c-7.76-3.61-15.54-7.18-23.27-10.86c-1.78-0.84-3.37-2.06-5.06-3.11
			c-5.67-5.34-11.32-10.7-17.03-15.99c-0.66-0.62-1.68-0.86-2.53-1.27c-3.65-6.82-7.58-13.51-10.89-20.49
			c-6.47-13.64-7.94-28.2-7.07-43.09c0.08-1.3-0.02-2.61-0.03-3.91c4.31-12.27,8.61-24.55,12.93-36.81
			c0.15-0.44,0.59-0.77,0.89-1.16c4.04-5.09,8.08-10.18,12.13-15.26c4.71-3.93,9.18-8.22,14.2-11.71
			c9.02-6.27,18.39-12.01,29.69-13.31c-0.65,0.63-1.31,1.26-1.96,1.88c-6.91,0.58-7.31,1.72-4.09,11.86
			c2.04-0.22,4.13-0.45,6.22-0.68c-1.62,0.68-3.28,1.26-4.85,2.05c-3.11,1.56-6.17,3.23-9.26,4.86c-1.26,0.69-2.51,1.38-3.77,2.06
			c-7.11,3.12-12.37,8.26-16.21,14.93h0.01c-1.96,2.07-4.18,3.94-5.83,6.23c-15.01,20.84-22.06,43.66-15.97,69.26
			c1.2,5.05,4.46,9.61,6.78,14.39c0.69,0.67,1.38,1.33,2.06,2c0.35,1.32,0.69,2.64,1.04,3.96c0.13,0.64,0.03,1.5,0.41,1.89
			c7.89,7.98,15.38,16.45,23.98,23.58c3.92,3.26,9.03,7.47,15.46,4.65c0.03,0.32,0.05,0.64,0.08,0.96
			c-0.93,1.48-2.93,3.32-2.59,4.39C377.84,596.69,379.79,599.45,381.36,602.34z"/>
		<path class="st7" d="M598.33,829.6c-3.01-9.06-6.09-18.09-8.9-27.21c-0.27-0.89,0.87-2.75,1.86-3.4
			c14.34-9.52,28.77-18.91,43.88-28.79c2.84,7.09,6.05,15.1,9.27,23.12C629.06,805.42,613.7,817.51,598.33,829.6z"/>
		<path class="st10" d="M239.42,740.34c2.34,1.49,4.6,3.15,7.04,4.43c13.23,6.94,21.32,17.97,24.17,32.34
			c3.12,15.73,5.62,31.61,7.64,47.52c2.29,18.06,2.6,36.37,8.12,53.96c5.8,18.47,15.26,34.54,29.73,47.57
			c1.11,1,1.62,2.67,2.41,4.03c-9.26-2.5-16.25-8.44-22.78-15.07c-0.4-0.89-0.62-1.93-1.22-2.65c-7.41-8.97-12.11-19.29-15.3-30.39
			c-0.23-0.81-1.13-1.42-1.71-2.12c-0.06-0.9-0.11-1.8-0.17-2.7c0.06-0.82,0.25-1.65,0.17-2.45c-1.74-16.87-3.65-33.72-5.24-50.61
			c-1.69-18.01-4.85-35.62-13.07-51.96c-0.82-1.64-2.42-2.89-3.65-4.32c-5.02-10.84-12.77-19.48-21.99-26.93
			c0.09-0.47,0.18-0.94,0.28-1.42C235.7,739.83,237.56,740.09,239.42,740.34z"/>
		<path class="st11" d="M428.55,803.22c10.75,10.63,21.91,20.89,32.11,32.03c7.66,8.35,12.34,18.94,13.16,30.17
			c0.52,7.16-1.23,14.91-3.71,21.76c-2.63,7.25-7,13.96-11.22,20.52c-3.13,4.86-7.29,9.01-13.58,9.85
			c10.72-11.79,17.83-25.3,18.51-41.46c0.63-14.96-3.55-28.65-13.3-40.18c-9.54-11.28-19.48-22.22-29.25-33.31
			c-3.17-6.87-6.73-13.59-9.41-20.65c-2.22-5.85-3.4-12.09-5.05-18.15c0.19,0.01,0.38,0.02,0.57,0.02c1.75,3.8,3.5,7.6,5.25,11.4
			c0.58,1.04,1.17,2.08,1.75,3.13c-0.17,1.27-0.93,2.9-0.42,3.77C418.35,789.45,421.19,797.91,428.55,803.22z"/>
		<path class="st9" d="M671.47,513.82c-0.99,9.56-1.16,19.28-3.15,28.63c-3.19,15.02-11.75,27.33-22.25,38.32
			c-1.01,1.06-1.88,2.25-2.82,3.38c-3.83,2.4-7.67,4.8-11.5,7.2c-3.46,1.32-6.92,2.65-10.39,3.98c0.88-1.15,2.04-2.17,2.58-3.46
			c1.74-4.14,0.26-7.11-3.55-7.62c3.33-2,6.65-3.99,9.98-5.99c2.31-1.41,4.62-2.82,6.93-4.24c0.16,0.85,0.32,1.71,0.72,3.87
			c3.57-4.91,6.42-8.84,9.28-12.78c1.04-1.92,2.08-3.85,3.12-5.77c1.5-2.69,3-5.38,4.5-8.08c0.8-1.01,1.9-1.9,2.34-3.05
			c5.04-13.31,6.49-26.9,3.01-40.85c-0.91-3.84-1.83-7.68-3.02-12.69c4.09,3.02,7.12,5.25,10.14,7.48c1.31,3.03,2.62,6.05,3.93,9.08
			C671.37,512.1,671.42,512.96,671.47,513.82z"/>
		<path class="st8" d="M598.33,829.6c15.37-12.09,30.73-24.19,46.1-36.28c1.27,3.21,2.75,6.36,3.71,9.67
			c0.33,1.14-0.15,3.17-1.02,3.93c-13.58,11.9-27.29,23.66-41.89,36.25C602.6,837.99,600.46,833.8,598.33,829.6z"/>
		<path class="st2" d="M277.57,908.18c-0.01-0.03-0.03-0.05-0.04-0.08c-0.01-0.01-0.02-0.02-0.03-0.02L277.57,908.18z"/>
		<path class="st12" d="M595.21,855.31c-10.59-12.29-15.39-27.15-18.87-42.6c-3.31-14.66-3.3-29.54-2.92-44.44
			c0.26,0,0.53,0,0.79,0.01c0.86,19.5,3.8,38.65,11.11,56.82c7.56,18.8,18.88,34.89,36.9,45.14c5.34,3.04,11.46,4.69,17.23,6.97
			c-11.03,1.27-21.04-1.41-30.16-7.67c-2.89-3.36-5.67-6.82-8.71-10.03C599.04,857.88,597.02,856.69,595.21,855.31z"/>
		<path class="st10" d="M703.46,921.51c15.78-12.91,19.49-30.89,20.91-49.81c0.74-9.86,0.1-19.6-3.25-29.02
			c-0.17-0.48,0.19-1.15,0.31-1.73c0.71,1.1,1.41,2.21,2.12,3.31c6.63,12.17,10.51,25.03,9.89,39.03
			c-2.34,15.78-10.49,27.72-24.05,35.96C707.61,920.32,705.44,920.77,703.46,921.51z"/>
		<path class="st13" d="M401.4,646.27c4.1,7.18,8.25,14.32,12.26,21.54c1.11,1.99,1.82,4.21,2.72,6.32
			c-1.33,2.57-2.66,5.15-4.32,8.37c-1.43-2.97-2.48-5.16-3.53-7.35c-3.67-7.11-7.33-14.23-11-21.34
			c-4.68-6.89-9.35-13.78-14.03-20.67c-3.42-4.86-6.83-9.71-10.25-14.57c-0.81-1.82-1.62-3.64-2.57-5.76
			c0.91-0.19,1.78-0.37,2.64-0.54c1.71,1.94,3.41,3.89,5.12,5.83c0.56,1.46,0.79,3.19,1.72,4.34c4.8,5.95,9.71,11.81,14.74,17.57
			C396.87,642.27,399.22,644.19,401.4,646.27z"/>
		<path class="st14" d="M649.43,726.51c-1.34-4.86-2.82-9.69-3.99-14.6c-5.36-22.36,1.45-41.88,14.08-60.05
			c0.74-1.06,1.16-2.33,1.73-3.51c0.28,1.38,1.2,3.03,0.75,4.11C652.03,676.19,648.01,700.88,649.43,726.51z"/>
		<path class="st15" d="M345.13,899.03c0.74,3.17-0.62,5.08-3.77,4.04c-6.66-2.21-13.79-4.15-19.39-8.1
			c-5.71-4.03-9.82-10.34-14.63-15.64c-0.32-1.67-0.37-3.45-0.99-5c-2.11-5.18-4.52-10.23-6.57-15.42
			c-0.39-0.99,0.32-2.41,0.52-3.63c6.29,20.65,19.75,34.36,40.06,41.5C342,897.36,343.53,898.27,345.13,899.03z"/>
		<path class="st16" d="M404.3,702.25c-0.45-2.75-0.46-5.66-1.43-8.21c-9.44-24.67-23.99-46.31-39.59-67.41
			c-7.18-9.72-13.32-20.21-19.93-30.35c3.51,4.98,7.04,9.95,10.52,14.94c11.49,16.48,23.54,32.61,34.24,49.58
			c6.51,10.33,11.14,21.88,16.15,33.08C405.31,696.21,404.34,699.43,404.3,702.25z"/>
		<path class="st17" d="M508.39,813.25c19.89,24.97,29.63,52.83,24.18,85c-0.19,1.11-0.72,2.17-1.09,3.25
			c0.29-5.61,0.78-11.22,0.85-16.84c0.28-22.38-6.36-42.7-18.52-61.34c-2.17-3.33-4.34-6.68-6.5-10.01
			C507.67,813.28,508.03,813.27,508.39,813.25z"/>
		<path class="st18" d="M427.27,827.38c-2.01,7.96-3.4,16.16-6.27,23.8c-1.57,4.18-5.64,7.43-8.58,11.1
			c4.13-12.52,8.26-25.05,12.5-37.91C425.47,825.08,426.37,826.23,427.27,827.38z"/>
		<path class="st19" d="M465.25,781.51c-13.03-12.51-18.22-28.67-20.65-45.86c-1.81-12.82-2.68-25.77,0.68-38.57
			c-0.29,3.96-0.86,7.92-0.83,11.87c0.17,20.4,2.22,40.46,12.23,58.8c1.98,3.62,4.68,6.84,6.96,10.3
			C464.34,779.1,464.72,780.35,465.25,781.51z"/>
		<path class="st20" d="M412.62,775.2c-1.75-3.8-3.5-7.6-5.25-11.4c-0.19-0.01-0.38-0.02-0.57-0.02c1.64,6.07,2.83,12.3,5.05,18.15
			c2.68,7.06,6.23,13.78,9.41,20.65c-4.24-8.54-9.06-16.84-12.49-25.69c-2.23-5.73-2.42-12.26-3.52-18.42
			c0.36-6.04,0.73-12.09,1.09-18.13C408.43,751.96,410.52,763.58,412.62,775.2z"/>
		<path class="st21" d="M300.29,855.28c-0.2,1.22-0.91,2.64-0.52,3.63c2.05,5.2,4.46,10.25,6.57,15.42c0.63,1.55,0.68,3.33,0.99,5
			c-7.3-9.95-10-21.56-11.98-33.41c-0.73-4.4-1.28-8.84-1.75-13.27c-0.09-0.83,0.55-1.74,0.86-2.61c0.67,1.77,1.59,3.49,1.97,5.32
			C297.82,841.97,299.02,848.63,300.29,855.28z"/>
		<path class="st22" d="M327.25,684.31c0.7,1.01,1.39,2.02,2.09,3.02c-17.25-8.51-32.88-19.12-44.87-34.48
			c-0.76-2.18-1.51-4.35-2.27-6.53c3.78,4.74,7.02,10.07,11.45,14.08c6.8,6.14,14.41,11.38,21.68,17
			C319.31,679.7,323.28,682.01,327.25,684.31z"/>
		<path class="st23" d="M679.8,761.39c6.48-6.32,12.97-12.61,19.43-18.95c2.12-2.08,4.13-4.27,6.19-6.41
			c-4.06,5.52-7.98,11.16-12.21,16.54c-3.15,4.01-6.72,7.69-10.6,12.09C681.51,763.4,680.65,762.39,679.8,761.39z"/>
		<path class="st24" d="M584.49,709.53c0.94-4.51,1.41-9.19,2.94-13.5c2.61-7.38,5.88-14.53,8.87-21.77
			c-0.01,1.29,0.35,2.71-0.07,3.86C592.4,688.61,588.43,699.06,584.49,709.53z"/>
		<path class="st6" d="M294.85,825.08c-0.47-1.69-1.14-3.36-1.37-5.08c-1.57-11.53-3.04-23.08-4.54-34.62
			c1.31,3.94,3.3,7.8,3.78,11.84C293.82,806.46,294.19,815.79,294.85,825.08z"/>
		<path class="st25" d="M727.46,825.1c0.47,0.14,1.18,0.14,1.37,0.46c8.61,14.45,15.96,29.36,16.53,46.66
			c-0.99-4.14-1.48-8.48-3.05-12.37C737.58,848.17,732.44,836.66,727.46,825.1z"/>
		<path class="st26" d="M277.51,879.96c0.59,0.7,1.48,1.32,1.71,2.12c3.19,11.1,7.89,21.41,15.3,30.39c0.6,0.73,0.82,1.76,1.22,2.65
			c-2.05-2.05-4.45-3.87-6.1-6.21C283.45,900.2,278.93,890.71,277.51,879.96z"/>
		<path class="st27" d="M312.34,936.37c-14.53-4.65-25.38-13.83-33.05-26.91c0.07-0.44,0.13-0.87,0.2-1.31
			c4.08,4.68,7.68,9.91,12.35,13.88c5.59,4.75,12.11,8.41,18.22,12.56C310.86,935.13,311.58,935.77,312.34,936.37z"/>
		<path class="st28" d="M373.32,612.27c-0.87,0.18-1.73,0.36-2.64,0.54c0.95,2.12,1.76,3.94,2.57,5.76
			c-4.11-5.76-8.22-11.52-12.33-17.28C365.05,604.96,369.19,608.61,373.32,612.27z"/>
		<path class="st29" d="M733.44,883.28c0.63-14-3.26-26.86-9.89-39.03c0.6,0,1.2,0.01,1.8,0.01c5.32,10.82,9.37,21.98,9.01,34.28
			C734.31,880.13,733.76,881.7,733.44,883.28z"/>
		<path class="st30" d="M689.55,771.31c0.76,1.72,1.28,3.6,2.31,5.14c3.36,5.01,6.92,9.89,10.39,14.82
			c-4.49-5.34-9.08-10.6-13.37-16.09C688.34,774.49,689.29,772.63,689.55,771.31z"/>
		<path class="st31" d="M508.39,813.25c-0.36,0.02-0.72,0.03-1.08,0.05c-4.85-5.37-9.72-10.72-14.53-16.12
			c-1.18-1.32-2.19-2.8-3.28-4.21C495.8,799.73,502.09,806.49,508.39,813.25z"/>
		<path class="st32" d="M383.5,633.15c4.68,6.89,9.35,13.78,14.03,20.67c-0.06,0.5-0.11,1-0.17,1.5
			C392.74,647.92,388.12,640.53,383.5,633.15z"/>
		<path class="st33" d="M725.35,844.27c-0.6,0-1.2-0.01-1.8-0.01c-0.71-1.1-1.41-2.2-2.12-3.31c-2.08-4.22-4.15-8.44-6.23-12.66
			c0.39-0.01,0.77-0.02,1.16-0.02C719.36,833.6,722.36,838.93,725.35,844.27z"/>
		<path class="st34" d="M406.33,740.34c-0.36,6.04-0.73,12.09-1.09,18.13c-0.18-8.3-0.4-16.6-0.48-24.89
			c-0.01-0.57,1.02-1.14,1.56-1.72C406.33,734.68,406.33,737.51,406.33,740.34z"/>
		<path class="st35" d="M574.21,768.28c-0.26,0-0.53-0.01-0.79-0.01c0.94-8.65,1.87-17.3,2.81-25.95c0,2.63,0.2,5.28-0.04,7.89
			C575.64,756.24,574.89,762.26,574.21,768.28z"/>
		<path class="st36" d="M397.36,655.31c0.06-0.5,0.11-1,0.17-1.5c3.67,7.11,7.33,14.22,11,21.34
			C404.81,668.54,401.08,661.92,397.36,655.31z"/>
		<path class="st37" d="M716.36,828.26c-0.39,0.01-0.77,0.02-1.16,0.02c-2.92-4.36-5.85-8.72-8.77-13.08
			C709.74,819.56,713.05,823.91,716.36,828.26z"/>
		<path class="st38" d="M551.45,321.29c-4.39,7.91-8.78,15.81-13.17,23.72c-2.47,9.38-4.94,18.76-7.41,28.14
			c-0.21,0.36-0.42,0.72-0.63,1.08c-5.06-0.7-8.76,1.23-11.06,5.78c-1.64,3.24-3.24,6.51-4.81,9.78c-5,10.46-9.43,21.23-15.13,31.29
			c-4.77,8.4-17.48,11.38-26.59,7.9c-7.05-2.69-11.75-8.08-16.14-13.66c-7.58-9.63-14.3-19.95-22.08-29.41
			c-11.83-14.39-18.26-8.97-26.73,0.81c-0.21,0.25-0.29,0.61-0.5,0.86c-7.67,9.14-15.1,18.49-23.11,27.32
			c-6.68,7.36-20.31,8.23-26.33-1.54c-0.58-0.94-1.7-1.55-2.56-2.32c2.4-5.81,4.66-11.68,7.23-17.41
			c7.21-16.16,14.55-32.26,21.84-48.39c5.94,0.61,11.52-0.87,15.7-4.92c4.71-4.56,8.89-9.74,12.8-15.02
			c4.2-5.67,7.33-12.19,11.85-17.56c5.26-6.25,11.46-6.23,17.18-0.42c4.51,4.59,8.42,9.77,12.47,14.8
			c4.25,5.28,7.95,11.07,12.61,15.95c6.49,6.79,13.82,5.42,18.04-3.07c1.9-3.83,3.11-8.02,4.47-12.1c2.41-7.22,4.18-14.7,7.16-21.68
			c4.65-10.9,10.5-12.58,20.83-6.95c5.77,5.59,11.51,11.22,17.34,16.75c1.01,0.96,2.43,1.5,3.67,2.23
			C542.73,315.94,547.09,318.62,551.45,321.29z"/>
		<path class="st39" d="M517.37,294.28c-10.33-5.63-16.18-3.96-20.83,6.94c-2.97,6.97-4.75,14.46-7.16,21.68
			c-1.36,4.08-2.56,8.27-4.47,12.1c-4.22,8.48-11.55,9.86-18.04,3.07c-4.66-4.88-8.36-10.67-12.61-15.95
			c-4.05-5.03-7.96-10.22-12.47-14.8c-5.73-5.82-11.93-5.83-17.18,0.42c-4.52,5.37-7.64,11.9-11.85,17.56
			c-3.91,5.28-8.09,10.46-12.8,15.02c-4.18,4.05-9.76,5.53-15.7,4.92c5.96-12.39,11.92-24.79,17.87-37.18
			c1.67-0.23,3.64,0.04,4.96-0.77c6.4-3.95,8.59-10.61,10.06-17.42c0.19-0.9-2.48-2.42-3.82-3.65c0.34-0.93,0.56-1.93,1.04-2.77
			c13.89-24.39,24.41-50.3,34.47-76.4c3.22-8.34,5.71-16.96,8.53-25.45c11.08,10.74,22.27,21.37,33.21,32.26
			c27.72,27.6,51.82,58.16,73.54,90.65c1.42,2.12,1.26,3.32-0.59,5.01c-4.15,3.8-8.07,7.84-12.08,11.78
			c-4.36-2.68-8.71-5.35-13.07-8.03c-3.51-4.01-6.74-8.33-10.64-11.94C524.71,298.52,520.86,296.6,517.37,294.28z M482.23,283.95
			c-1.18-3.68-1.95-7.6-3.67-11.05c-2.67-5.35-9.57-6.38-13.91-2.34c-4.62,4.31-5.34,10.17-3.9,15.65
			c1.42,5.41,5.71,9.28,11.26,10.94c3.11,0.93,6.05,0.04,7.3-3.37C480.42,290.74,481.17,287.57,482.23,283.95z M536.36,290.86
			c3.53-1.01,5.92-4.88,4.37-7.61c-1.76-3.11-4-6.09-6.58-8.57c-2.69-2.59-5.82-6.8-10.05-2.94c-4.2,3.84-0.45,7.58,1.97,10.34
			C529,285.44,532.88,287.97,536.36,290.86z"/>
		<path class="st7" d="M443.28,134.96c0.99-0.31,2.49-1.21,2.88-0.86c14.8,13.12,29.93,25.9,44.08,39.69
			c13.42,13.08,25.99,27.05,38.56,40.98c6.42,7.12,11.8,15.16,18.06,22.43c2.36,2.74,2.69,4.84,0.88,7.72
			c-1.94,3.08-3.73,6.26-6.02,10.14c-1.69-1.8-3.04-3.13-4.27-4.57c-24.86-29.02-52.02-55.7-81.32-80.22
			c-6.74-5.64-9.43-5.11-12.85,3.08c-7.18,17.2-13.81,34.63-21.16,51.75c-6.62,15.45-13.89,30.62-20.89,45.9
			c-0.34,0.74-0.85,1.39-1.66,2.7c-5.14-4.26-10.08-8.37-15.02-12.47c17.3-35.91,34.68-71.78,51.83-107.76
			C439.2,147.56,441.01,141.15,443.28,134.96z"/>
		<path class="st0" d="M530.24,374.24c0.21-0.36,0.42-0.72,0.63-1.08c1.85-3.34,3.96-6.58,5.47-10.06c1.35-3.13,2.05-6.54,3.04-9.83
			c0.33,0,0.66,0,1,0c-1.95,7.92-4.89,15.71-3.01,24.12c0.8,3.59,1.48,7.21,2.22,10.82c4.99,19.27,16.97,33.45,32.51,45.19
			c18.21,13.75,37.18,26.23,57.28,37.13c11.78,6.38,22.77,14.23,34.11,21.42c1.3,3.41,2.6,6.82,3.9,10.23
			c-3.03-2.23-6.05-4.46-10.14-7.48c1.19,5.02,2.11,8.85,3.02,12.69c-0.21,0.42-0.63,0.84-0.61,1.25
			c0.72,14.47-1.62,28.6-4.74,42.65c-1.5,2.69-3,5.38-4.5,8.08c-3.44,3.34-6.87,6.68-10.31,10.02c0.55-1.9,1.22-3.77,1.64-5.7
			c2.19-10.11,4.32-20.24,6.46-30.36c1.97-12.45,1.12-24.81-0.73-37.21c-0.75-5-2.68-8.48-7.19-11.01
			c-14.49-8.12-28.77-16.61-43.26-24.74c-1.61-0.91-4.3-1.14-5.99-0.46c-11.7,4.69-23.39,9.43-34.82,14.73
			c-7.44,3.46-13.7,8.7-18.39,15.66c-1.09,1.62-2.92,2.74-4.41,4.09c2.35-6.38,4.71-12.77,7.06-19.15
			c9.47-5.04,18.87-10.22,28.44-15.04c4.79-2.42,9.91-4.18,15.22-6.38c-4.32-3.29-8.14-6.19-11.95-9.09
			c-0.37-3.38-5.89-8.3-10.16-9.06c-7.21-8.47-14.41-16.94-21.62-25.41c-2.31-5.01-4.62-10.03-6.93-15.04
			C532.41,388.2,531.33,381.22,530.24,374.24z"/>
		<path class="st40" d="M402.14,308.06c-5.96,12.39-11.91,24.79-17.87,37.18c-7.29,16.13-14.63,32.23-21.84,48.39
			c-2.56,5.74-4.83,11.61-7.23,17.42c-4.76,12.36-9.53,24.71-14.22,37.09c-0.23,0.6,0.29,1.49,0.46,2.25
			c-4.04,5.09-8.09,10.17-12.13,15.26c0.43-3.05,0.4-6.27,1.37-9.14c19.38-57.09,46.3-110.84,72.46-164.98
			c17.53-36.27,33.3-73.4,49.86-110.14c0.32-0.72,0.69-1.43,1.25-2.59c1.25,1.12,2.18,1.95,3.11,2.79
			c-2.82,8.49-5.31,17.11-8.53,25.46c-10.06,26.1-20.58,52.01-34.47,76.4c-0.48,0.85-0.7,1.85-1.04,2.77
			C409.6,293.49,405.87,300.77,402.14,308.06z"/>
		<path class="st38" d="M588.23,387.42c-9.04-6.32-14.3-15.44-18.64-25.23c-0.77-7.08-2.1-14.15-2.14-21.24
			c-0.03-6.96,2.29-13.56,6.18-19.78c1.17,0.99,1.91,1.62,2.65,2.24c6.94,12.79,13.9,25.56,20.8,38.37
			c0.93,1.73,1.58,3.62,2.36,5.43c-2.61,6.19-5.13,12.42-7.93,18.52C591.11,386.62,589.36,386.88,588.23,387.42z"/>
		<path class="st40" d="M715.32,461.28c-11.81-10.22-23.49-20.82-38.33-26.45c-13.17-5-26.72-9.01-40.1-13.47
			c-9.71-3.23-19.41-6.48-29.11-9.7c-2.47-0.82-4.96-1.56-7.44-2.34c-0.5-0.95-0.76-2.26-1.54-2.79c-5.75-3.85-12.19-6.9-17.3-11.45
			c-6.22-5.54-11.38-12.28-16.89-18.59c-0.28-0.32-3-2.72,0.75-2.24c10.7,14.87,24.81,25.2,42.09,31.09
			c7.24,2.47,14.58,4.77,22.03,6.44c21.89,4.91,42.7,12.7,62.81,22.53c1.27,1.05,2.47,2.2,3.83,3.12
			c14.31,9.71,26.54,21.51,36.26,35.85c0.54,1.41,1.09,2.81,1.63,4.22c-4.03-2.96-7.27-6.51-10.76-9.8
			C720.78,465.38,717.98,463.41,715.32,461.28z"/>
		<path class="st41" d="M443.28,134.96c-2.28,6.19-4.08,12.6-6.9,18.52c-17.15,35.98-34.53,71.85-51.83,107.76
			c-3.62-1.77-2.45-4.95-1.61-7.39c2.27-6.6,4.53-13.29,7.69-19.49c16.34-32.04,32.94-63.94,49.52-95.85
			C440.86,137.15,442.23,136.14,443.28,134.96z"/>
		<path class="st42" d="M588.23,387.42c1.13-0.54,2.88-0.8,3.28-1.67c2.8-6.1,5.32-12.33,7.93-18.52
			c5.36,11,10.73,21.99,16.76,34.35C605.03,398.13,595.9,394.26,588.23,387.42z"/>
		<path class="st43" d="M732.38,473.29c-9.72-14.34-21.95-26.14-36.26-35.85c-1.36-0.92-2.55-2.07-3.83-3.12
			c1.35,0.32,2.7,0.64,4.05,0.96c6.52,5.34,13.4,10.3,19.51,16.08c27.48,26.02,43.39,58.18,49.46,95.35
			c0.72,4.39,0.81,8.89,1.19,13.34c-0.1,1.2-0.21,2.4-0.31,3.6c-0.25-1.46-0.6-2.92-0.72-4.39c-1.99-24.38-9.2-47.19-21.13-68.45
			C740.88,484.66,736.39,479.11,732.38,473.29z"/>
		<path class="st44" d="M565.36,374.26c-3.75-0.48-1.03,1.92-0.75,2.24c5.51,6.31,10.67,13.05,16.89,18.59
			c5.11,4.55,11.54,7.6,17.3,11.45c0.78,0.53,1.04,1.84,1.54,2.79c-20.61-8.85-36.31-22.36-42.36-44.91
			c-0.36-1.35,0.34-2.98,0.54-4.47c0.82,1.28,1.74,2.5,2.42,3.84c1.23,2.42,2.32,4.92,3.47,7.38
			C564.73,372.2,565.04,373.23,565.36,374.26z"/>
		<path class="st45" d="M564.41,371.17c-1.15-2.46-2.24-4.96-3.47-7.38c-0.68-1.34-1.6-2.56-2.42-3.84
			c-0.17-2.46-0.22-4.94-0.53-7.38c-1.18-9.17-1.03-18.16,3.25-26.65c-0.62,5.41-2.17,10.91-1.64,16.21
			C560.55,351.87,562.74,361.49,564.41,371.17z"/>
		<path class="st46" d="M539.38,353.26c-0.99,3.29-1.68,6.7-3.04,9.83c-1.51,3.49-3.62,6.72-5.47,10.06
			c2.47-9.38,4.94-18.76,7.41-28.14c-1.03,4.38-2.05,8.76-3.08,13.14c0.19,0.04,0.39,0.08,0.58,0.12c1.85-5.08,3.7-10.15,5.55-15.23
			c0.32,0.1,0.63,0.19,0.95,0.29C541.32,346.65,540.35,349.96,539.38,353.26z"/>
		<path class="st47" d="M576.28,323.42c-0.74-0.63-1.48-1.26-2.65-2.24c-3.89,6.22-6.21,12.82-6.18,19.78
			c0.03,7.08,1.37,14.16,2.14,21.24c-4.85-7.92-4.9-16.69-3.74-25.37c0.65-4.81,2.8-9.45,4.6-14.04c0.51-1.3,2.14-2.16,3.25-3.22
			C574.56,320.85,575.42,322.14,576.28,323.42z"/>
		<path class="st46" d="M539.59,388.2c-0.74-3.61-1.42-7.23-2.22-10.82c-1.88-8.41,1.06-16.2,3.01-24.12
			c1.43-2.97,2.85-5.95,4.28-8.92c-0.75,2.79-1.51,5.59-2.26,8.38C538.08,364.28,538.52,376.22,539.59,388.2z"/>
		<path class="st8" d="M324.44,862.28c0.65,2.33,1.29,4.67,1.94,7c-0.08,0.77-0.17,1.54-0.36,3.27c-2.93-4.97-5.36-9.11-7.8-13.25
			c-5.7-13.81-6-28.34-4.14-42.69c2.16-16.63,5.84-33.06,8.76-49.6c0.69-3.92,1.06-7.91,1.36-11.89
			c1.23-16.36-6.14-27.56-20.5-34.98c-25.56-13.2-42.36-46.03-38.41-74.45c0.08-0.57,0.62-1.07,0.95-1.6
			c0.97,4.3,2.23,8.57,2.86,12.92c1.53,10.53,6.69,19.1,14.05,26.4c12.53,12.43,25.64,24.29,37.74,37.12
			c5.58,5.92,10.4,13.1,13.66,20.54c4.61,10.53,2.69,21.75,0.12,32.77c-4.21,18.11-8.07,36.29-11.99,54.46
			c-0.41,1.92-0.22,3.98-0.3,5.98c0.11,6.49,0.06,12.99,0.39,19.47C322.92,856.61,323.86,859.44,324.44,862.28z"/>
		<path class="st48" d="M318.22,859.3c2.44,4.14,4.87,8.28,7.8,13.25c0.19-1.73,0.27-2.5,0.36-3.27c2,4.28,4,8.56,6.01,12.84
			C324.71,876.35,321.16,868.02,318.22,859.3z"/>
		<path class="st15" d="M732.38,473.29c4.01,5.82,8.51,11.37,11.95,17.51c11.94,21.26,19.14,44.07,21.13,68.45
			c0.12,1.47,0.48,2.93,0.72,4.39c0.06,7.21,0.12,14.41,0.18,21.62c-0.31,1.67-0.63,3.35-0.94,5.02c-0.35-1.85-0.88-3.69-1.01-5.55
			c-0.39-5.47-0.62-10.95-0.92-16.43c-2.42-21.96-5.58-43.73-16.01-63.67c-7.42-14.2-16.7-27.06-27.82-38.59
			c-1.49-1.55-2.9-3.17-4.35-4.75c2.65,2.13,5.46,4.1,7.93,6.42c3.49,3.29,6.73,6.83,10.76,9.8
			C733.46,476.1,732.92,474.7,732.38,473.29z"/>
		<path class="st49" d="M763.5,568.3c0.29,5.48,0.53,10.96,0.92,16.43c0.13,1.87,0.66,3.7,1.01,5.55
			c-0.67,5.71-1.34,11.41-2.01,17.12c-0.66-1.36-1.93-2.75-1.87-4.08C762.06,591.64,762.82,579.97,763.5,568.3z"/>
		<path class="st50" d="M766.37,585.26c-0.06-7.21-0.12-14.41-0.18-21.62c0.1-1.2,0.21-2.4,0.31-3.6
			C766.45,568.45,766.41,576.86,766.37,585.26z"/>
		<path class="st9" d="M471.45,586.5c-5.02,3.26-10.04,6.52-15.06,9.79c3.22-4.27,3.82-8.76,1.1-13.84
			c-2.11,0.93-4.16,1.83-6.22,2.74c-0.01-0.35-0.01-0.71-0.02-1.06c13.07-5.8,22.66-15.57,30.86-26.95
			c5.71-5.07,8.42-11.59,9.2-19.05c2.75-15.26,3.34-30.35-3.5-44.86c-0.08-1-0.15-2-0.23-3c0.08-1.06,0.56-2.32,0.16-3.16
			c-2.55-5.39-5.29-10.69-8.56-17.21c1.91,1.75,2.86,2.63,3.81,3.5c-10.9-17.32-25.61-29.79-44.8-36.56
			c-0.24,0.37-0.48,0.75-0.72,1.12c2.2,1.03,4.4,2.06,6.6,3.1c-0.09,0.27-0.18,0.53-0.28,0.8c-2.48-0.55-4.97-1.09-7.45-1.64
			c-1.32-3.65-2.64-7.31-3.96-10.96c5.68,2.61,11.36,5.22,17.05,7.83c1.08,0.95,2.05,2.07,3.26,2.81
			c8.19,5.08,17.29,8.84,22.75,17.66c1.45,2.34,4.91,3.45,7.44,5.12c0.23-0.44,0.46-0.88,0.7-1.32c-2.27-1.66-4.53-3.33-6.8-4.99
			c0.19-0.46,0.37-0.91,0.56-1.37c17.8,13.73,37.25,16.09,58.04,9.28c1.85-1.39,3.71-2.77,6.26-4.68
			c-2.58,5.37-4.75,9.87-7.48,15.54c2.21-1.2,2.99-1.61,3.93-2.13c-1.28,3.58-2.17,6.77-3.53,9.75
			c-7.13,15.69-7.48,32.35-7.08,49.09c0.06,2.48,1.34,4.93,2.05,7.4c4.53,16.4,13.49,29.64,27.84,39.04c2.33,1.66,4.67,3.32,7,4.99
			c-1.77,0-3.53,0-5.38,0c-1.63,4.8-0.65,8.77,3.38,11.89c-6.37-3.89-12.74-7.78-19.1-11.67c-1.01-1.29-2.11-2.52-3.02-3.88
			c-4.41-6.57-9.32-12.88-12.99-19.84c-4.63-8.77-6.44-18.45-5.87-28.44c0.25-4.33-1.23-6.54-6.03-6.15
			c-4.3,0.35-8.65,0.08-12.99,0.09c-0.67,1.79-1.78,3.54-1.93,5.37c-1.14,14.03-6.11,26.69-14.13,38.05
			C481.87,574.99,476.44,580.59,471.45,586.5z M496.33,472.14c-3.35-1.36-6.7-2.72-10.05-4.09c-0.24,0.33-0.47,0.65-0.71,0.98
			c1.57,2.39,3.14,4.79,4.71,7.18c3.67,8.58,7.34,17.15,11.02,25.73c0.22,4.11,0.43,8.21,0.65,12.32c3.29,0,5.56,0,7.82,0
			c8.48,0.39,8.54,0.41,11.43-7.31c0.8-2.15,1.1-4.48,1.69-6.72c2.44-9.38,4.91-18.75,7.54-28.79
			C518.83,474.65,507.58,474.94,496.33,472.14z"/>
		<path class="st51" d="M449.45,599.36c-20.14,8.6-40.8,10.74-62.09,4.95c3.95-3.7,1.54-7.96,1.06-12.05
			c6.24,0.67,12.48,1.76,18.74,1.91c14.57,0.36,28.71-2.07,42.14-7.98C449.34,590.57,449.39,594.96,449.45,599.36z"/>
		<path class="st52" d="M619.39,596.31c-0.34,0.34-0.68,0.67-1.02,1.01c-1.13,0.2-2.29,0.32-3.4,0.63
			c-13.84,3.91-27.71,4.65-41.63,0.4c0.01-4.02,0.03-8.03,0.04-12.05c15.1,3.06,30.13,3.25,45.07-0.98
			c-0.28,2.9-0.69,5.79-0.74,8.69C617.7,594.77,618.8,595.55,619.39,596.31z"/>
		<path class="st2" d="M478.44,582.43c2.78-1.36,5.6-2.66,8.33-4.11c14.39-7.63,28.19-7.86,41.17,3.12c2.39,2.02,5,3.81,7.27,5.97
			c1.8,1.71,4.63,3.48,1.61,6.51c-2.8,2.81-5.84,2.76-8.82,0.46c-3.16-2.43-6.06-5.21-9.26-7.58c-13.45-9.96-22.29-9.87-35.77-0.06
			c-2.51,1.83-5.51,2.98-9.52,5.1c0.49-3.15,0.69-4.5,0.9-5.83C475.71,584.81,477.08,583.62,478.44,582.43z"/>
		<path class="st53" d="M388.42,592.25c0.48,4.09,2.89,8.35-1.06,12.05c-2-0.66-4-1.31-6-1.97c-1.57-2.89-3.52-5.65-4.52-8.72
			c-0.35-1.07,1.66-2.9,2.59-4.39C382.43,590.24,385.42,591.24,388.42,592.25z"/>
		<path class="st54" d="M449.45,599.36c-0.05-4.39-0.1-8.78-0.15-13.18c0.66-0.33,1.32-0.67,1.98-1c2.06-0.91,4.11-1.81,6.22-2.74
			c2.72,5.08,2.12,9.58-1.1,13.84C454.07,597.31,451.76,598.33,449.45,599.36z"/>
		<path class="st55" d="M478.44,582.43c-1.37,1.19-2.73,2.38-4.1,3.57c-0.97,0.17-1.93,0.33-2.9,0.5
			c4.99-5.91,10.42-11.51,14.86-17.81c8.02-11.36,12.99-24.02,14.13-38.05c0.15-1.83,1.26-3.58,1.93-5.37
			c0.02,0.38,0.03,0.75,0.05,1.13c-1.44,20.29-8.61,38.14-22.58,53.11C479.14,580.25,478.9,581.44,478.44,582.43z"/>
		<path class="st56" d="M502.43,526.39c-0.02-0.38-0.03-0.75-0.05-1.13c4.33,0,8.68,0.26,12.99-0.09c4.79-0.39,6.27,1.82,6.03,6.15
			c-0.57,9.99,1.24,19.67,5.87,28.44c3.68,6.96,8.59,13.27,12.99,19.84c0.91,1.36,2.01,2.59,3.02,3.88
			c-0.61-0.13-1.22-0.26-1.83-0.38c-9.26-9.73-16.86-20.5-19.53-33.94c-1.44-7.27-2.12-14.69-3.25-22.77
			C513.52,526.39,507.97,526.39,502.43,526.39z"/>
		<path class="st57" d="M541.45,583.1c0.61,0.13,1.22,0.26,1.83,0.38c6.37,3.89,12.73,7.78,19.1,11.67
			c3.66,1.07,7.32,2.13,10.97,3.2c13.92,4.25,27.78,3.51,41.63-0.4c1.1-0.31,2.26-0.42,3.4-0.63c-5.99,1.63-11.91,4.26-17.99,4.72
			c-20.26,1.53-39.32-2.33-55.74-15.24C543.39,585.81,542.51,584.34,541.45,583.1z"/>
		<path class="st58" d="M401.4,646.27c-2.18-2.07-4.53-3.99-6.5-6.25c-5.02-5.76-9.93-11.62-14.74-17.57
			c-0.93-1.16-1.17-2.88-1.72-4.34C386.1,627.49,393.75,636.88,401.4,646.27z"/>
		<path class="st59" d="M619.39,596.31c-0.59-0.77-1.69-1.54-1.68-2.3c0.05-2.9,0.46-5.79,0.74-8.69c0.65-0.36,1.3-0.71,1.94-1.07
			c3.82,0.51,5.29,3.48,3.55,7.62c-0.54,1.29-1.7,2.31-2.58,3.46C620.71,595.66,620.05,595.99,619.39,596.31z"/>
		<path class="st60" d="M595.21,855.31c1.81,1.39,3.83,2.57,5.37,4.2c3.04,3.21,5.82,6.67,8.71,10.03
			C604.6,864.79,599.91,860.05,595.21,855.31z"/>
		<path class="st8" d="M539.59,388.2c-1.06-11.98-1.51-23.92,2.81-35.48c-1.48,33.55,15.98,57.29,41.77,74.93
			c19.82,13.55,41.53,24.43,62.77,35.78c15.35,8.2,30.36,16.95,42.92,28.91c14.98,14.27,24.1,32.05,26.45,52.89
			c2.07,18.31,1.64,36.5-2.91,54.46c-0.73,2.89-1.68,5.73-2.52,8.59c-1.79-13.91-3.56-27.82-5.38-41.72
			c-0.15-1.13-0.67-2.21-1.02-3.31c-3.7-10.33-7.4-20.66-11.11-30.99c-4.85-8.06-9.47-16.27-14.64-24.13
			c-2.2-3.35-5.52-5.96-8.34-8.91c-2.3-2.43-4.6-4.86-6.9-7.3c-11.35-7.19-22.33-15.03-34.11-21.42
			c-20.1-10.89-39.07-23.37-57.28-37.13C556.56,421.65,544.57,407.47,539.59,388.2z"/>
		<path class="st61" d="M691.43,548.16c-0.04,0.75-0.08,1.51-0.12,2.26c-5.27-10.31-10.49-20.66-15.84-30.92
			c-1.06-2.03-2.65-3.79-4-5.67c-0.05-0.86-0.1-1.72-0.14-2.58C680.52,522.19,686.89,534.68,691.43,548.16z"/>
		<path class="st20" d="M428.55,803.22c-7.36-5.3-10.21-13.76-14.6-21.12c-0.52-0.86,0.25-2.49,0.42-3.77
			C419.1,786.63,423.83,794.92,428.55,803.22z"/>
		<path class="st15" d="M284.47,652.85c11.98,15.36,27.62,25.97,44.87,34.48c2.78,2.62,5.57,5.23,8.35,7.85
			c-1.11-0.19-2.38-0.1-3.3-0.63c-11.32-6.54-22.9-12.69-33.74-19.96c-5.75-3.86-10.41-9.49-15.04-14.78
			C284.3,658.32,284.8,655.22,284.47,652.85z"/>
		<path class="st62" d="M343.51,831.97c3.08,8.08,6.16,16.16,9.24,24.25c-6.07-4.4-7.53-11.25-9.28-17.86
			C342.94,836.37,343.47,834.1,343.51,831.97z"/>
		<path class="st48" d="M324.44,862.28c-0.58-2.85-1.52-5.68-1.67-8.54c-0.34-6.48-0.29-12.98-0.39-19.47
			C323.06,843.6,323.75,852.94,324.44,862.28z"/>
		<path class="st39" d="M449.42,437.08c-5.68-2.61-11.36-5.22-17.05-7.82c-1.01-0.34-2.03-0.68-3.04-1.02
			c-4.02-1.3-8.05-2.6-12.07-3.91c8.85-4.69,11.96-11.19,8.67-19.4c-0.87-2.17-3.27-4.64-5.38-5.11c-1.7-0.38-4.63,1.57-5.97,3.3
			c-6.1,7.92-5.05,14.85,2.77,21.23c-2.81-0.22-5.64-0.74-8.43-0.6c-7.87,0.39-15.73,1.06-23.6,1.62
			c-11.3,1.3-20.67,7.04-29.69,13.31c-5.02,3.49-9.48,7.78-14.2,11.71c-0.17-0.76-0.69-1.64-0.46-2.25
			c4.69-12.38,9.46-24.73,14.22-37.09c0.87,0.76,1.98,1.38,2.56,2.32c6.02,9.77,19.65,8.91,26.33,1.54
			c8.01-8.83,15.44-18.19,23.11-27.32c0.21-0.25,0.29-0.61,0.5-0.86c8.47-9.78,14.9-15.19,26.73-0.81
			c7.78,9.46,14.51,19.78,22.08,29.41c4.38,5.57,9.09,10.97,16.14,13.66c9.11,3.48,21.82,0.5,26.59-7.9
			c5.71-10.05,10.13-20.83,15.13-31.29c1.57-3.28,3.17-6.54,4.81-9.78c2.3-4.55,6-6.48,11.06-5.78c1.08,6.98,2.17,13.97,3.25,20.95
			c-2.22,0.69-4.9,0.81-6.56,2.18c-4.43,3.65-4.73,11.33-1.34,18.38c1.54,3.2,3.96,6.44,7.4,5.11c2.92-1.13,5.04-4.58,7.23-7.23
			c0.58-0.71,0.16-2.24,0.21-3.4c7.21,8.47,14.41,16.94,21.62,25.41c0.16,0.16,0.2,0.35,0.11,0.55c-2.29,1.2-4.91,2.03-6.8,3.69
			c-4.5,3.94-8.65,8.28-12.95,12.46c-1.04,0.45-2.14,0.78-3.1,1.36c-11.03,6.7-22.31,12.5-35.89,10.45c-2-0.41-4-0.83-6-1.24
			c-0.01-1.16-0.06-2.32-0.01-3.48c0.21-4.78-1.33-8.72-6.25-9.95c-4.73-1.18-7.92,1.35-9.76,5.68
			c-6.58-4.01-13.08-8.15-19.76-11.99C457.71,440.89,453.5,439.09,449.42,437.08z"/>
		<path class="st7" d="M487.81,493.26c6.84,14.51,6.25,29.6,3.5,44.86c-3.07,6.35-6.13,12.7-9.2,19.04
			c-8.2,11.38-17.8,21.15-30.86,26.95c-1.26,0.37-2.57,0.65-3.78,1.14c-18.02,7.28-36.64,9.37-55.51,4.74
			c-9.1-2.24-17.72-6.41-26.56-9.7c-2.86-1.99-5.94-3.72-8.53-6.01c-5.92-5.23-11.6-10.74-17.38-16.13
			c-0.35-1.32-0.69-2.64-1.04-3.96c0.1-1.52,0.45-3.08,0.25-4.56c-1.6-12.1-4.43-24.12-1.29-36.43
			c3.34-13.07,7.47-25.73,16.22-36.36c-0.59,1.37-1.07,2.79-1.79,4.09c-8.18,14.91-10.59,30.77-6.87,47.29
			c8.13,36.12,40.83,58.35,77.6,53.12c37.89-5.39,64.6-44.3,56.14-81.57c-2.56-11.26-7.59-21.23-14.48-30.37
			c0.45-0.43,0.91-0.86,1.36-1.29c2.85,2.76,5.71,5.51,8.56,8.27c3.81,5.53,7.59,11.09,11.49,16.56
			C485.96,493.35,487.08,493.17,487.81,493.26z"/>
		<path class="st63" d="M353.65,476.85c-8.75,10.63-12.89,23.3-16.22,36.36c-3.14,12.31-0.31,24.32,1.29,36.43
			c0.2,1.48-0.16,3.04-0.25,4.56c-0.69-0.67-1.38-1.33-2.06-2c-2.36-9.23-5.25-18.36-6.94-27.71c-2.19-12.15,1.96-23.46,6.41-34.56
			c3.42-5.24,6.84-10.49,10.26-15.73c20.66-22.82,46.23-35.15,77.13-36.06c2.35,0.37,4.7,0.73,7.06,1.1
			c1.29,0.38,2.59,0.76,3.88,1.14c4.4,2.27,8.8,4.54,13.2,6.8c2.88,2.43,5.71,4.92,8.65,7.27c5.02,3.99,10.11,7.89,15.16,11.83
			c3.05,4.33,6.1,8.66,9.16,12.99c-1.34-0.98-2.69-1.97-4.03-2.95c-7.13-6.64-13.84-13.82-21.53-19.74
			c-4.81-3.7-11.07-5.52-16.68-8.19c-1.9-0.52-3.77-1.34-5.7-1.51c-7.44-0.67-14.9-1.13-22.35-1.68
			C386.95,448.03,368.08,458.48,353.65,476.85z"/>
		<path class="st51" d="M417.27,424.32c4.02,1.3,8.05,2.6,12.07,3.91c-0.52,0.93-1.46,1.84-1.49,2.79
			c-0.07,2.08,0.32,4.17,0.53,6.25c-1.61-0.27-3.26-0.43-4.83-0.84c-12.8-3.34-25.53-4.43-38.14,0.83
			c-0.68-3.34-1.36-6.68-2.04-10.02c0.66-0.63,1.31-1.26,1.96-1.88c7.86-0.56,15.72-1.23,23.59-1.62c2.79-0.14,5.62,0.38,8.43,0.6
			L417.27,424.32z"/>
		<path class="st64" d="M423.26,438.13c-30.9,0.92-56.47,13.24-77.13,36.06c-0.28-0.67-0.57-1.35-0.85-2.02l-0.02,0.03
			c0.56-0.34,1.21-0.58,1.66-1.03c7.65-7.62,15.29-15.24,22.87-22.92c0.75-0.76,1.08-1.94,1.61-2.93c3.08-1.62,6.14-3.29,9.26-4.86
			c1.57-0.78,3.23-1.37,4.85-2.05l-0.01-0.01C398.05,434.64,410.64,434.48,423.26,438.13z"/>
		<path class="st65" d="M335.87,489.93c-4.45,11.1-8.6,22.4-6.41,34.56c1.69,9.35,4.58,18.48,6.94,27.71
			c-2.31-4.78-5.57-9.34-6.78-14.39c-6.09-25.6,0.96-48.42,15.97-69.26c1.65-2.29,3.88-4.17,5.83-6.23
			c-2.06,3.3-4.11,6.59-6.17,9.89l0.02-0.03C342.14,478.09,339.01,484.01,335.87,489.93z"/>
		<path class="st66" d="M365.4,580.29c8.84,3.3,17.46,7.47,26.56,9.7c18.87,4.64,37.49,2.54,55.51-4.74
			c1.21-0.49,2.52-0.76,3.78-1.14c0.01,0.35,0.02,0.71,0.02,1.06c-0.66,0.33-1.32,0.67-1.98,1c-13.43,5.91-27.57,8.34-42.14,7.98
			c-6.26-0.15-12.49-1.25-18.74-1.91c-3-1.01-5.99-2.02-8.99-3.03c-0.02-0.32-0.05-0.64-0.08-0.96
			C374.7,585.61,370.05,582.95,365.4,580.29z"/>
		<path class="st67" d="M365.4,580.29c4.65,2.66,9.3,5.32,13.95,7.98c-6.43,2.82-11.54-1.4-15.46-4.65
			c-8.6-7.13-16.09-15.61-23.98-23.58c-0.38-0.39-0.29-1.25-0.41-1.89c5.78,5.39,11.46,10.9,17.38,16.13
			C359.47,576.57,362.55,578.31,365.4,580.29z"/>
		<path class="st68" d="M383.37,427.24c0.68,3.34,1.36,6.68,2.04,10.02c0.03,0.38,0.06,0.77,0.08,1.15l0.01,0.01
			c-2.09,0.23-4.18,0.46-6.22,0.69C376.05,428.97,376.46,427.83,383.37,427.24z"/>
		<path class="st69" d="M345.26,472.2c2.06-3.3,4.11-6.59,6.17-9.89h-0.01c5.4-4.98,10.81-9.95,16.21-14.93
			c1.26-0.69,2.51-1.38,3.77-2.06c-0.53,0.99-0.86,2.16-1.61,2.93c-7.58,7.68-15.22,15.31-22.87,22.92
			C346.47,471.62,345.81,471.86,345.26,472.2z"/>
		<path class="st65" d="M367.63,447.39c-5.4,4.98-10.81,9.95-16.21,14.93C355.26,455.64,360.52,450.51,367.63,447.39z"/>
		<path class="st7" d="M557.37,578.28c-14.35-9.4-23.31-22.64-27.84-39.04c-0.25-2.8-0.61-5.59-0.73-8.39
			c-0.5-11.57-0.28-23.06,4.51-33.93c0.25,1.22,0.85,2.49,0.7,3.66c-2.9,22.29,1.62,42.44,15.97,60.29
			c21.61,26.88,62.28,26.91,83.77,0.02c6.66-8.34,11.23-17.54,14.46-27.57c-2.15,10.12-4.27,20.25-6.46,30.36
			c-0.42,1.93-1.09,3.8-1.64,5.7c-0.54,0.92-1.08,1.84-1.62,2.76c-0.4,0.63-0.8,1.26-1.2,1.9c-2.31,1.41-4.62,2.82-6.93,4.24
			c-1.09,0.36-2.23,0.61-3.25,1.1c-17.74,8.62-36.11,10.43-55.04,4.8C567.04,582.67,562.27,580.27,557.37,578.28z"/>
		<path class="st70" d="M557.37,578.28c4.9,1.99,9.67,4.4,14.71,5.9c18.92,5.62,37.3,3.81,55.04-4.8c1.02-0.5,2.16-0.74,3.25-1.1
			c-3.33,2-6.65,3.99-9.98,5.99c-0.65,0.36-1.3,0.71-1.94,1.07c-14.94,4.23-29.97,4.04-45.07,0.98c-3-1.01-6.01-2.03-9.01-3.04
			C562.04,581.6,559.71,579.94,557.37,578.28z"/>
		<path class="st71" d="M654.92,551.28c3.12-14.04,5.46-28.17,4.74-42.65c-0.02-0.41,0.4-0.83,0.61-1.25
			c3.48,13.95,2.02,27.55-3.01,40.85C656.83,549.38,655.72,550.27,654.92,551.28z"/>
		<path class="st72" d="M637.3,574.03c0.4-0.63,0.8-1.26,1.2-1.89c2.93-2.34,5.87-4.67,8.8-7.01c-2.86,3.93-5.71,7.87-9.28,12.78
			C637.62,575.74,637.46,574.89,637.3,574.03z"/>
		<path class="st73" d="M647.3,565.13c-2.94,2.34-5.87,4.67-8.8,7.01c0.54-0.92,1.08-1.84,1.62-2.77
			c3.43-3.34,6.87-6.68,10.31-10.02C649.38,561.28,648.34,563.2,647.3,565.13z"/>
		<path class="st74" d="M670.39,499.23c2.81,2.95,6.14,5.56,8.34,8.91c5.17,7.85,9.79,16.06,14.64,24.13
			c-0.37,0.02-0.75,0.05-1.12,0.07c-6.75-9.68-13.52-19.35-20.2-29.08C671.25,502.09,670.93,500.58,670.39,499.23z"/>
		<g>
			<path class="st0" d="M772,566.91c-0.38-23.08-6.48-45.13-16.35-66.07c-1.39-2.96-2.62-5.99-3.93-8.99
				c-0.39,0.15-0.79,0.31-1.18,0.46c0.92,2.27,1.68,4.6,2.77,6.78c8.47,16.95,13.53,34.97,14.89,53.75
				c0.99,13.67,1.27,27.59-0.15,41.18c-1.38,13.22-4.68,26.35-8.34,39.18c-3.53,12.35-8.54,24.29-13.06,36.35
				c-0.65,1.75-2.22,3.15-3.36,4.72c-10.37,17.77-20.67,35.57-31.16,53.26c-1.83,3.09-4.46,5.71-6.72,8.54
				c-4.05,5.52-7.97,11.16-12.21,16.54c-3.15,4-6.71,7.69-10.6,12.09c-1.09-1.27-1.94-2.27-2.8-3.27
				c-3.61-6.32-7.4-12.54-10.68-19.03c-0.82-1.61-0.63-4.43,0.25-6.08c7.79-14.59,15.89-29.02,23.77-43.56
				c1.4-2.59,2.22-5.49,3.31-8.25c2.49-9.43,4.98-18.86,7.44-28.29c0.25-0.96,0.32-1.95,0.48-2.93c-1-1.33-2-2.67-2.99-3.99
				c0.01-0.01,0.01-0.01,0.02-0.02c1,1.33,1.99,2.66,2.99,3.96c1-7.01,2.48-13.99,2.86-21.03c0.34-6.38-1.43-12.94-0.64-19.21
				c1.22-9.7,0.31-19.06-1.08-28.61c-3.84-26.36-12.76-50.64-28.29-72.38c-1.12-1.57-2.65-2.85-3.99-4.27c0-0.01,0-0.01-0.01-0.02
				c1.35,1.43,2.89,2.72,4.02,4.3c15.53,21.73,24.45,46.02,28.29,72.38c1.39,9.55,2.3,18.91,1.08,28.61
				c-0.78,6.28,0.98,12.83,0.64,19.21c-0.38,7.04-1.86,14.02-2.86,21.03c-0.16,0.98-0.23,1.98-0.48,2.93
				c-2.46,9.44-4.96,18.86-7.44,28.29c3.33-10.9,7.72-21.6,9.72-32.74c2.57-14.3,3.22-28.94,4.7-43.44
				c-1.79-13.91-3.56-27.83-5.39-41.73c-0.15-1.13-0.67-2.21-1.02-3.31c-0.02-0.05-0.05-0.11-0.07-0.16
				c-3.69-10.27-7.37-20.54-11.05-30.82c-0.37,0.02-0.74,0.05-1.11,0.07c-6.74-9.69-13.52-19.35-20.2-29.08
				c-0.81-1.17-1.12-2.68-1.66-4.03c-2.3-2.44-4.6-4.87-6.9-7.3c1.3,3.41,2.6,6.82,3.9,10.23c1.31,3.03,2.62,6.05,3.93,9.08
				c9.19,10.95,15.56,23.44,20.12,36.92c3.3,11.94,7.41,23.72,9.73,35.85c4.29,22.42,2.07,44.91-1.62,67.25
				c-0.01,0.01-0.02,0.02-0.02,0.03c0,0,0-0.01,0-0.01c3.68-22.35,5.91-44.84,1.62-67.27c-2.32-12.13-6.43-23.91-9.73-35.85
				c-0.04,0.75-0.08,1.51-0.1,2.27c0.62,2.23,1.19,4.48,1.88,6.69c5.96,19.01,9.66,38.42,8.63,58.4
				c-0.67,12.92-2.38,25.78-3.63,38.66c0.39,0.02,0.76,0.03,1.15,0.05c0,0.01,0,0.01,0,0.02c-3.96,12.03-7.88,24.08-11.93,36.08
				c-0.37,1.09-1.51,1.93-2.3,2.88c-5.94,10.19-11.86,20.39-17.84,30.56c-0.91,1.56-2.06,2.98-3.14,4.51
				c-8.48-10.64-5.22-60.92,16.36-92.66c-4.05,0.83-7.24,1.05-10.11,2.13c-20.04,7.52-32.07,22.82-39.08,42.21
				c-9.24,25.58-9.44,51.57-0.9,77.42c1.37,4.16,0.55,6.4-2.76,8.69c-11.08,7.68-22.05,15.53-33.11,23.23
				c-2.01,1.4-4.27,2.43-6.86,3.88c-2.86-17.33-3.07-34.1,0.18-50.67c6.88-35.1,19.38-68.45,32.92-101.43
				c7.51-18.3,14.88-36.65,22.29-54.99c0.23-0.57,0.13-1.28,0.18-1.92c-3.84,2.4-7.67,4.8-11.5,7.2
				c-11.82,27.63-23.63,55.27-35.45,82.9c0,1.3,0.35,2.72-0.07,3.86c-3.84,10.5-7.81,20.95-11.74,31.42
				c-2.29,9.89-4.56,19.79-6.9,29.68c-0.25,1.09-0.9,2.08-1.36,3.12c0,2.63,0.2,5.28-0.04,7.89c-0.55,6.03-1.31,12.05-1.98,18.07
				c0.86,19.5,3.8,38.65,11.11,56.82c7.56,18.8,18.88,34.89,36.9,45.14c5.34,3.04,11.47,4.69,17.23,6.97
				c4.39-0.62,8.84-0.96,13.15-1.95c2.37-0.55,4.49-2.19,6.72-3.34c-0.11-0.44-0.23-0.88-0.35-1.32c-1.68-0.2-3.35-0.4-5.18-0.61
				c0.04-0.43-0.07-0.97,0.14-1.29c12.98-20.08,13.96-41.95,7.4-63.89c-5.13-17.14-12.8-33.52-19.2-50.29
				c-8.94-23.43-10.24-47.31-3.66-71.54c3.3-12.13,9.27-22.77,18.35-31.55c1.27-1.23,2.94-2.06,4.43-3.07
				c0.28,1.38,1.2,3.03,0.75,4.1c-9.97,23.71-13.99,48.41-12.57,74.04c8.21,24.94,22.79,46.12,39.06,66.32
				c5.99,7.44,11.96,14.91,17.94,22.37c3.31,4.35,6.62,8.71,9.93,13.06c2.99,5.33,5.99,10.67,8.99,16
				c5.32,10.82,9.37,21.98,9.01,34.28c-0.05,1.58-0.6,3.15-0.92,4.73c-2.34,15.78-10.49,27.71-24.05,35.96
				c-1.78,1.08-3.94,1.53-5.93,2.27c-4.12,1.97-8.1,4.4-12.4,5.84c-24.45,8.19-49.79,10.61-75.3,9.33
				c-31.2-1.56-62.34-4.42-93.5-6.73c-0.78-0.06-1.54-0.33-2.6-0.57c6.23-8.59,10.36-17.69,11.83-27.89
				c0.3-5.61,0.78-11.22,0.85-16.84c0.28-22.37-6.36-42.7-18.52-61.34c-2.18-3.33-4.34-6.67-6.51-10.01
				c-4.85-5.37-9.71-10.72-14.53-16.12c-1.18-1.33-2.19-2.8-3.28-4.21c-7.1-7.43-15.26-14.12-21.08-22.44
				c-14.43-20.64-17.42-44.18-14.42-68.72c2.41-19.76,10.21-36.74,26.01-49.49c10.14-8.18,21.69-13.51,34.13-17.11
				c3.35-0.97,6.7-2.01,9.94-3.29c3.32-1.32,3.14-3.68,0.19-4.8c-4.45-1.68-9.17-3.26-13.87-3.61
				c-34.71-2.58-62.68,10.41-84.33,37.38c-3.42,4.26-6.46,8.83-9.68,13.25c-1.34,2.58-2.67,5.15-4.33,8.37
				c-1.43-2.98-2.48-5.16-3.53-7.35c-3.72-6.61-7.45-13.23-11.17-19.84c-4.62-7.38-9.24-14.77-13.86-22.16
				c-3.42-4.86-6.83-9.71-10.25-14.57c-4.11-5.76-8.22-11.52-12.33-17.28c-2.63-4.3-5.26-8.61-7.89-12.92
				c-5.67-5.34-11.32-10.7-17.03-15.99c-0.66-0.62-1.68-0.86-2.53-1.27c1.3,4.45,2.3,9.03,3.98,13.33c1.6,4.09,3.9,7.9,5.9,11.83
				c3.51,4.98,7.04,9.94,10.52,14.94c11.49,16.47,23.54,32.6,34.24,49.58c6.51,10.32,11.13,21.87,16.15,33.08
				c1.04,2.32,0.07,5.55,0.03,8.36c-10.56,29.62-13.2,59.41-0.93,89.17c2.82,6.84,7.03,13.17,11.06,19.44
				c2.11,3.3,3.27,6.22,2.13,10.17c-2.44,8.48-4.42,17.08-6.83,25.56c-0.61,2.15-2.13,4.04-3.23,6.05
				c-3.39,3.49-6.79,6.97-10.18,10.46c-9.35,4.8-18.21,2.35-26.21-2.82c-14-9.05-19.79-22.59-19.34-39.01
				c0.29-10.42,0.07-20.89,1.04-31.25c1.34-14.36,4.1-28.6,5.25-42.97c0.83-10.39,1.31-21.13-0.37-31.33
				c-2.21-13.36-10.66-23.58-21.57-31.6c-1.04-0.76-1.84-1.86-2.75-2.8c-4.67-2.68-9.33-5.36-14-8.04
				c-5.06-2.89-10.4-5.39-15.08-8.79c-3.74-2.72-6.68-6.53-9.97-9.86c-0.44,0.48-0.87,0.96-1.31,1.44
				c6.75,5.89,13.53,11.74,20.23,17.68c1.18,1.05,2.06,2.44,3.08,3.67c3.97,2.3,7.94,4.61,11.91,6.91c0.02,0.01,0.04,0.02,0.06,0.02
				c0.69,0.98,1.37,1.97,2.05,2.97c2.78,2.62,5.57,5.23,8.35,7.85c7.22,4.73,10.14,12.12,11.57,20.04
				c3.21,17.78-0.03,35.44-1.41,53.15c-1.65,21.18-2.91,42.39-4.34,63.59c3.08,8.09,6.16,16.17,9.24,24.25
				c1.35,1.1,2.68,2.23,4.06,3.28c3.37,2.56,6.46,5.76,10.22,7.49c10.26,4.74,20.79,3.4,31.2,0.09c0.03,0,0.05,0,0.08-0.01
				c-0.02,1.32-0.04,2.64-0.06,3.96c-2.85,7.38-9.14,11.54-15.37,15.36c-10.89,6.68-22.96,8.97-35.4,5.76
				c-10.45-2.7-18.54-9.27-24.74-18.18c-7.06-10.14-11.91-21.4-12.04-33.59c-0.14-12.6,1.45-25.3,3.21-37.82
				c2-14.2,5.75-28.17,7.33-42.4c0.8-7.16-0.64-14.92-2.68-21.94c-2.04-7.06-8.37-11.29-14.53-15.09
				c-13-8.02-25.31-17.26-33.02-30.5c-4.53-7.79-6.06-17.38-8.53-26.28c-1.34-4.82-1.81-9.88-2.86-14.82
				c-0.51,8.98,1.26,17.66,3.44,26.39c2.57,10.23,6.11,19.88,13.04,28.03c0.28,0.32,0.18,0.96,0.25,1.45
				c3.67,3.98,7.33,7.97,11,11.95c4.84,3.52,9.57,7.17,14.52,10.52c8.23,5.56,13.01,13.24,12.33,23.1
				c-0.8,11.56-2.78,23.04-4.26,34.55c-0.19,1.47-0.45,2.94-0.68,4.41c-1.14,8.49-2.3,16.98-3.39,25.47
				c-0.64,4.97-1.17,9.95-2.58,14.91c-1.52-16.29-2.26-32.55-7.98-48.01c-3.64-7.61-7.27-15.23-10.91-22.84
				c-1.41-1.29-3-2.44-4.21-3.9c-10.19-12.28-23.24-20.21-38.32-24.83c-12.23-3.75-24.61-6.37-37.21-1.34
				c0.45,0.88,0.67,2.19,1.39,2.57c3.64,1.95,7.41,3.66,11.14,5.45c0,0,0,0,0,0c3.43,3.29,6.85,6.58,10.28,9.87
				c4.64,5.68,9.27,11.37,13.91,17.05c4.04,8.33,8.09,16.65,12.14,24.98c1.95,8.39,3.91,16.78,5.86,25.17
				c0.79,6.54,1.73,13.06,2.33,19.62c1.04,11.39,1.87,22.81,2.79,34.21c0.3,2.01,0.59,4.03,0.88,6.05
				c2.77,7.93,5.46,15.89,8.36,23.78c1.01,2.75,2.51,5.32,3.79,7.97c0.59,0.44,1.17,0.89,1.76,1.35c0.07-0.43,0.13-0.87,0.2-1.31
				c-6.49-11.72-11.42-24.05-13.01-37.38c-2-16.78-3.57-33.62-4.96-50.46c-2.18-26.53-11.64-49.98-29.56-69.68
				c-0.51-0.56-1.04-1.09-1.59-1.61c0.56,0.52,1.1,1.06,1.61,1.63c17.92,19.7,27.38,43.15,29.56,69.68
				c1.39,16.84,2.96,33.68,4.96,50.46c1.59,13.33,6.53,25.66,13.01,37.37c4.07,4.67,7.67,9.91,12.35,13.88
				c5.6,4.75,12.11,8.41,18.22,12.56c0.79,0.54,1.51,1.18,2.27,1.78c10.6,4.64,21.81,5.4,33.16,5.26
				c10.63-0.13,21.25-0.26,31.88-0.39c9.87-0.69,19.73-1.39,29.6-2.08c10.12-0.28,20.25-0.55,30.38-0.83
				c4.19-0.05,8.38-0.11,12.57-0.16c4.78-0.29,9.55-0.8,14.33-0.83c13.61-0.1,27.21-0.03,40.82,0.06c1.74,0.01,3.47,0.56,5.21,0.86
				c5.02,0.29,10.03,0.58,15.05,0.87c13.97,1.38,27.95,2.75,41.91,4.15c1.74,0.29,3.48,0.74,5.23,0.84
				c7.61,0.42,15.24,0.74,22.86,1.1c14.01,0,28.02-0.01,42.03-0.01l0.31-0.22l0.33,0.19c12.78-1.96,25.56-3.93,38.34-5.89l0.28-0.24
				l0.36,0.11c11.14-3.67,22.27-7.35,33.4-11.02c13.21-8,24.96-17.46,31.58-31.98c3.02-7.7,4.35-15.65,3.37-23.92
				c-0.98-4.13-1.47-8.47-3.05-12.37c-4.72-11.67-9.86-23.17-14.84-34.74c-6.55-9.07-13.07-18.16-19.68-27.19
				c-1.7-2.32-3.67-4.43-5.52-6.64c-4.49-5.33-9.07-10.6-13.37-16.09c-0.54-0.69,0.41-2.54,0.67-3.86c0.25-0.07,0.5-0.14,0.75-0.2
				c6.19-8.33,12.38-16.65,18.57-24.98c5.45-8.11,10.91-16.22,16.36-24.33c0.29-0.54,0.59-1.09,0.88-1.63
				c4.71-8.14,9.41-16.27,14.12-24.4c0.24-0.55,0.49-1.09,0.73-1.64c3.09-6.01,6.18-12.01,9.27-18.01l-0.04,0.05
				c0.46-1.52,0.91-3.04,1.37-4.56c2.17-6.58,4.46-13.11,6.48-19.73c3.76-12.34,8.69-24.53,10.68-37.17
				C771.2,599,772.26,582.85,772,566.91z M646.51,866.43c-1.85,3.62-4.2,4.71-7.49,2.94c-6.4-3.45-12.89-6.86-18.8-11.05
				c-3.68-2.6-6.37-6.6-9.18-9.62c13.24-11.4,26.52-22.84,40.22-34.64C654.74,832.27,655.06,849.67,646.51,866.43z M635.16,770.21
				c2.85,7.09,6.06,15.11,9.27,23.12c1.27,3.21,2.75,6.36,3.7,9.66c0.33,1.15-0.15,3.17-1.02,3.93
				c-13.58,11.9-27.29,23.66-41.89,36.25c-2.63-5.17-4.77-9.37-6.9-13.56c-3.01-9.06-6.09-18.09-8.9-27.21
				c-0.27-0.89,0.87-2.75,1.86-3.4C605.62,789.48,620.05,780.09,635.16,770.21z M259.3,776.88c2.17,5.11,4.3,10.24,5.97,15.52
				C263.59,787.13,261.46,782,259.3,776.88z M265.34,792.63c1.1,3.48,1.98,6.98,2.71,10.51
				C267.31,799.61,266.43,796.1,265.34,792.63z M395.03,933.55c-13.45-0.08-26.89,1.92-40.35,2.33
				c-12.33,0.38-24.55-0.95-36.15-5.67c-9.26-2.5-16.25-8.44-22.78-15.07c-2.06-2.06-4.45-3.87-6.11-6.21
				c-6.19-8.72-10.71-18.21-12.13-28.96c-0.06-0.9-0.11-1.8-0.17-2.7c0.06-0.82,0.25-1.65,0.17-2.45
				c-1.74-16.87-3.65-33.73-5.24-50.61c-1.69-18.01-4.85-35.62-13.07-51.96c-0.82-1.64-2.4-2.88-3.64-4.31c0,0,0,0,0,0
				c-5.02-10.84-12.77-19.48-21.99-26.93c0.09-0.48,0.19-0.95,0.28-1.42c1.86,0.26,3.72,0.51,5.58,0.77c2.69,0.65,5.51,0.97,8.04,2
				c18.2,7.43,32.64,18.87,39.73,37.96c0.62,1.68,1.16,3.38,1.74,5.07c1.3,3.94,3.3,7.8,3.78,11.84c1.1,9.24,1.47,18.57,2.13,27.86
				c-0.12,1.64-0.25,3.29-0.38,4.94c0.67,1.77,1.59,3.49,1.97,5.32c1.38,6.63,2.58,13.28,3.85,19.93
				c6.29,20.64,19.75,34.36,40.05,41.51c1.66,0.59,3.2,1.5,4.79,2.26c1.06-0.19,2.18-0.69,3.17-0.51
				c23.87,4.28,42.43-4.14,56.29-23.59c2.87-4.03,5.23-8.43,7.83-12.66c4.13-12.53,8.26-25.05,12.5-37.91
				c0.55,0.71,1.45,1.86,2.35,3.01c14.11,14.28,27.92,28.74,27.16,50.94c-0.47,14.05-8.09,24.87-16.8,34.79
				C426.47,925.83,412.84,933.65,395.03,933.55z M500.36,929.19c-4.86,0.73-9.94,0.04-14.93-0.04c-18.88,0.79-37.76,1.58-56.61,2.37
				c5.66-4.8,11.06-9.4,16.47-13.99c10.72-11.79,17.83-25.3,18.51-41.46c0.63-14.96-3.55-28.65-13.3-40.18
				c-9.54-11.28-19.48-22.22-29.25-33.31c-4.23-8.53-9.06-16.84-12.49-25.69c-2.22-5.73-2.42-12.25-3.52-18.42
				c-0.18-8.3-0.4-16.6-0.5-24.9c-0.01-0.56,1.02-1.14,1.56-1.71c-1.13-9.59,1.75-18.44,5.23-27.11
				c9.96-24.81,23.52-47.04,45.87-62.83c15.37-10.86,32.55-15.72,51.25-15.35c3.05,0.06,6.09,0.82,8.48,1.17
				c-12.01,5.04-24.37,9.63-36.14,15.41c-6.69,3.28-12.42,8.51-18.58,12.87c-0.7,1.58-1.13,3.38-2.16,4.72
				c-8.31,10.77-13.42,22.81-14.99,36.34c-0.29,3.96-0.86,7.92-0.83,11.87c0.17,20.4,2.22,40.46,12.23,58.8
				c1.98,3.62,4.68,6.84,6.96,10.3c0.69,1.05,1.07,2.3,1.6,3.46c7.88,7.88,16.05,15.48,23.58,23.68
				c16.37,17.82,28.81,37.86,33.12,62.15c2.51,14.14,2.4,28.29-2.22,41.93c-1.86,5.5-5.19,10.83-9.01,15.24
				C508.41,927.14,504.02,928.64,500.36,929.19z"/>
			<path class="st0" d="M699.36,654.23c-0.39-0.02-0.77-0.03-1.16-0.05c-4.36,13-8.71,26.01-13.07,39.01
				c0.78-0.95,1.93-1.79,2.3-2.88C691.48,678.31,695.4,666.26,699.36,654.23z"/>
		</g>
		<path class="st75" d="M517.37,294.28c3.49,2.32,7.34,4.24,10.37,7.04c3.89,3.61,7.12,7.92,10.64,11.94
			c-1.23-0.73-2.65-1.27-3.67-2.23C528.88,305.5,523.14,299.88,517.37,294.28z"/>
		<path class="st38" d="M482.23,283.95c-1.06,3.62-1.82,6.79-2.93,9.82c-1.25,3.41-4.19,4.3-7.3,3.37
			c-5.55-1.66-9.84-5.53-11.26-10.94c-1.44-5.48-0.72-11.34,3.9-15.65c4.34-4.04,11.24-3.01,13.91,2.34
			C480.28,276.35,481.05,280.28,482.23,283.95z"/>
		<path class="st76" d="M536.36,290.86c-3.47-2.89-7.35-5.42-10.29-8.77c-2.42-2.76-6.17-6.5-1.97-10.34
			c4.23-3.87,7.36,0.35,10.05,2.94c2.58,2.47,4.82,5.45,6.58,8.57C542.27,285.97,539.89,289.85,536.36,290.86z"/>
		<path class="st77" d="M402.14,308.06c3.73-7.28,7.46-14.56,11.19-21.84c1.35,1.23,4.02,2.75,3.82,3.65
			c-1.47,6.81-3.65,13.47-10.06,17.42C405.78,308.09,403.81,307.83,402.14,308.06z"/>
		<path class="st8" d="M648.22,533.32c-3.23,10.02-7.81,19.23-14.46,27.57c-21.48,26.9-62.16,26.86-83.77-0.02
			c-14.35-17.85-18.87-38-15.97-60.29c0.15-1.17-0.45-2.44-0.7-3.66c0.04-0.85,0.07-1.69,0.11-2.54c1.49-1.35,3.32-2.47,4.41-4.09
			c4.69-6.96,10.95-12.2,18.39-15.66c11.43-5.31,23.12-10.04,34.82-14.73c1.7-0.68,4.38-0.44,5.99,0.46
			c14.48,8.13,28.77,16.62,43.26,24.74c4.52,2.53,6.45,6.01,7.19,11.01C649.34,508.51,650.19,520.87,648.22,533.32z M604.38,492.72
			c-0.58-1.56-0.99-2.98-1.61-4.3c-5.77-12.33-3.12-13.7-17.52-7.39c-12.88,5.64-25.43,12.02-38.43,18.21
			c1.31,2.45,1.98,3.95,2.86,5.31c6.5,10.15,4.18,12.42,18.08,5.55C579.81,504.14,592.03,498.56,604.38,492.72z"/>
		<path class="st78" d="M533.43,494.38c-0.04,0.85-0.07,1.69-0.11,2.54c-4.79,10.87-5.01,22.36-4.51,33.93
			c0.12,2.8,0.48,5.59,0.73,8.39c-0.71-2.47-1.99-4.92-2.05-7.4c-0.4-16.74-0.05-33.4,7.08-49.09c1.36-2.98,2.25-6.18,3.53-9.75
			c-0.95,0.51-1.72,0.93-3.93,2.13c2.73-5.68,4.9-10.17,7.48-15.54c-2.56,1.91-4.41,3.3-6.26,4.68c0-0.34,0-0.68-0.01-1.02
			c1.66-2.67,3.31-5.35,4.97-8.02c0.69-0.96,1.38-1.92,2.07-2.88c4.29-4.18,8.45-8.51,12.95-12.46c1.89-1.66,4.51-2.48,6.8-3.69
			c0.72,3.71-0.22,8.13,4.4,10.15c-11.62,6.98-20.09,16.81-26.07,28.88C538.14,481.61,535.78,487.99,533.43,494.38z"/>
		<path class="st79" d="M540.49,475.22c5.98-12.07,14.44-21.9,26.07-28.88c1.88-0.55,3.77-1.09,5.65-1.64
			c3.81,2.9,7.62,5.8,11.95,9.09c-5.31,2.2-10.43,3.97-15.22,6.38C559.36,465.01,549.96,470.19,540.49,475.22z"/>
		<path class="st80" d="M540.42,410.23c-0.04,1.16,0.38,2.7-0.21,3.4c-2.2,2.65-4.31,6.1-7.23,7.23c-3.44,1.33-5.86-1.91-7.4-5.11
			c-3.39-7.05-3.09-14.74,1.34-18.38c1.66-1.37,4.34-1.49,6.56-2.18C535.8,400.2,538.11,405.22,540.42,410.23z"/>
		<path class="st81" d="M572.21,444.71c-1.88,0.55-3.77,1.09-5.65,1.64c-4.62-2.02-3.68-6.44-4.4-10.15
			c0.09-0.21,0.05-0.39-0.11-0.55C566.32,436.4,571.84,441.33,572.21,444.71z"/>
		<path class="st39" d="M501.29,501.94c-3.67-8.58-7.34-17.15-11.02-25.73c2.02-1.36,4.03-2.72,6.05-4.08
			c11.25,2.8,22.5,2.5,34.08-0.7c-2.63,10.04-5.09,19.41-7.54,28.79c-0.58,2.24-0.88,4.57-1.69,6.72
			c-2.89,7.73-2.95,7.71-11.43,7.32C506.94,510.16,504.11,506.05,501.29,501.94z"/>
		<path class="st82" d="M447.4,447.17c-4.4-2.27-8.8-4.54-13.2-6.8c0.71-0.05,1.43-0.1,2.14-0.16c2.48,0.55,4.97,1.09,7.45,1.64
			c0.09-0.27,0.18-0.53,0.28-0.8c-2.2-1.03-4.4-2.06-6.6-3.1c0.24-0.37,0.48-0.75,0.72-1.12c19.19,6.77,33.9,19.24,44.8,36.56
			c-0.95-0.87-1.9-1.75-3.81-3.5c3.27,6.52,6.01,11.82,8.56,17.21c0.4,0.84-0.08,2.1-0.16,3.16c-2.4-3.67-4.8-7.34-7.2-11.01
			c-3.05-4.33-6.1-8.66-9.16-12.99C464.77,458.05,456.55,452.04,447.4,447.17z"/>
		<path class="st83" d="M535.37,463.24c0,0.34,0,0.68,0.01,1.02c-20.79,6.81-40.25,4.45-58.04-9.28c-0.19,0.46-0.37,0.91-0.56,1.37
			c2.27,1.66,4.53,3.33,6.8,4.99c-0.23,0.44-0.46,0.88-0.7,1.32c-2.54-1.67-5.99-2.78-7.44-5.12c-5.46-8.83-14.56-12.58-22.75-17.66
			c-1.2-0.75-2.18-1.87-3.26-2.81c4.08,2.01,8.28,3.82,12.22,6.09c6.67,3.84,13.18,7.98,19.76,11.99
			c5.34,2.58,10.68,5.17,16.03,7.75c2,0.41,4,0.83,6,1.24c0.98,0.39,1.96,0.77,2.94,1.16c1.56,0.32,3.17,1.05,4.68,0.89
			C519.16,465.34,527.26,464.25,535.37,463.24z"/>
		<path class="st54" d="M564.38,583.26c3,1.01,6.01,2.03,9.01,3.04c-0.01,4.02-0.03,8.03-0.04,12.05c-3.66-1.07-7.32-2.13-10.97-3.2
			c-4.03-3.12-5.01-7.08-3.38-11.89C560.84,583.26,562.61,583.26,564.38,583.26z"/>
		<path class="st84" d="M436.34,440.21c-0.71,0.05-1.43,0.1-2.14,0.16c-1.29-0.38-2.59-0.76-3.88-1.14
			c-0.65-0.65-1.3-1.31-1.95-1.96c-0.2-2.08-0.59-4.17-0.53-6.25c0.03-0.94,0.96-1.86,1.49-2.79c1.01,0.34,2.03,0.68,3.04,1.02
			C433.7,432.91,435.02,436.56,436.34,440.21z"/>
		<path class="st85" d="M480.38,479.26c2.4,3.67,4.8,7.34,7.2,11.01c0.08,1,0.15,2,0.23,3c-0.73-0.1-1.85,0.08-2.15-0.33
			c-3.9-5.47-7.68-11.02-11.49-16.56c0.73-0.02,1.45-0.05,2.18-0.07C477.69,477.29,479.04,478.28,480.38,479.26z"/>
		<path class="st86" d="M501.29,501.94c2.82,4.11,5.64,8.21,8.47,12.32c-2.26,0-4.52,0-7.82,0
			C501.73,510.16,501.51,506.05,501.29,501.94z"/>
		<path class="st87" d="M496.33,472.14c-2.02,1.36-4.03,2.72-6.05,4.08c-1.57-2.4-3.14-4.79-4.71-7.18
			c0.24-0.33,0.47-0.65,0.71-0.98C489.63,469.42,492.98,470.78,496.33,472.14z"/>
		<path class="st88" d="M482.11,557.17c3.07-6.35,6.13-12.7,9.2-19.04C490.53,545.58,487.82,552.1,482.11,557.17z"/>
		<path class="st89" d="M417.36,424.34c-7.82-6.38-8.88-13.31-2.77-21.23c1.33-1.73,4.27-3.68,5.97-3.3
			c2.11,0.48,4.51,2.94,5.38,5.11c3.3,8.21,0.18,14.71-8.67,19.4C417.27,424.32,417.36,424.34,417.36,424.34z"/>
		<path class="st90" d="M497.43,462.91c-5.34-2.58-10.68-5.17-16.02-7.75c1.84-4.33,5.03-6.86,9.76-5.68
			c4.92,1.23,6.47,5.17,6.25,9.95C497.36,460.58,497.42,461.75,497.43,462.91z"/>
		<path class="st91" d="M506.36,465.31c-0.98-0.39-1.96-0.77-2.94-1.16c13.58,2.05,24.86-3.75,35.89-10.45
			c0.96-0.58,2.06-0.91,3.1-1.36c-0.69,0.96-1.38,1.92-2.07,2.88c-1.22,0.48-2.57,0.77-3.63,1.48
			C527.5,462.82,517.6,466.41,506.36,465.31z"/>
		<path class="st8" d="M353.65,476.85c14.43-18.36,33.3-28.81,56.44-31.64c5.25,0.56,10.53,0.89,15.73,1.74
			c11.04,1.79,20.41,7.37,29.45,13.6c3,2.95,5.99,5.9,8.99,8.86c6.89,9.14,11.92,19.11,14.48,30.37
			c8.46,37.27-18.26,76.18-56.14,81.57c-36.77,5.23-69.47-17-77.6-53.12c-3.72-16.51-1.31-32.37,6.87-47.29
			C352.58,479.64,353.06,478.21,353.65,476.85z M415.66,499.53c-2.27-4.47-4.41-8.74-6.6-12.99c-2.48-4.81-3.89-5.26-8.79-2.36
			c-8.86,5.24-17.73,10.49-26.45,15.97c-5.97,3.75-11.7,7.9-17.67,11.96c3.12,4.28,5.91,7.81,8.36,11.55
			c2.26,3.44,4.94,3.34,8.04,1.56c1.73-0.99,3.38-2.11,5.1-3.13C390.2,514.64,402.75,507.19,415.66,499.53z"/>
		<path class="st92" d="M476.35,476.31c-0.73,0.02-1.45,0.04-2.18,0.07c-2.85-2.76-5.71-5.51-8.56-8.27
			c-3.4-2.98-6.8-5.97-10.2-8.95c-5.76-3.59-11.52-7.18-17.28-10.77c5.61,2.66,11.88,4.48,16.69,8.19
			C462.51,462.49,469.22,469.67,476.35,476.31z"/>
		<path class="st93" d="M455.42,459.16c3.4,2.98,6.8,5.97,10.2,8.95c-0.45,0.43-0.91,0.86-1.36,1.29c-3-2.95-5.99-5.9-8.99-8.86
			C455.32,460.08,455.37,459.62,455.42,459.16z"/>
		<path class="st94" d="M455.42,459.16c-0.05,0.46-0.1,0.92-0.15,1.39c-9.03-6.23-18.4-11.81-29.45-13.6
			c-5.2-0.84-10.48-1.18-15.73-1.74c7.45,0.54,14.91,1.01,22.35,1.68c1.93,0.17,3.8,0.99,5.7,1.51
			C443.9,451.98,449.66,455.57,455.42,459.16z"/>
		<path class="st95" d="M428.38,437.26c0.65,0.66,1.3,1.31,1.95,1.96c-2.35-0.37-4.7-0.73-7.06-1.1
			c-12.62-3.65-25.21-3.48-37.78,0.28c-0.03-0.38-0.06-0.77-0.08-1.15c12.6-5.26,25.34-4.17,38.14-0.83
			C425.12,436.84,426.76,436.99,428.38,437.26z"/>
		<path class="st92" d="M447.4,447.17c9.14,4.86,17.36,10.88,23.82,19.1c-5.06-3.94-10.15-7.84-15.17-11.83
			C453.11,452.1,450.28,449.6,447.4,447.17z"/>
		<path class="st69" d="M335.87,489.93c3.14-5.92,6.27-11.84,9.41-17.76c0.28,0.67,0.57,1.35,0.85,2.02
			C342.71,479.44,339.29,484.68,335.87,489.93z"/>
		<path class="st0" d="M604.38,492.72c-12.35,5.84-24.57,11.43-36.62,17.38c-13.9,6.87-11.58,4.6-18.08-5.55
			c-0.87-1.37-1.55-2.86-2.86-5.31c12.99-6.19,25.55-12.57,38.43-18.21c14.4-6.31,11.75-4.94,17.52,7.39
			C603.39,489.74,603.8,491.16,604.38,492.72z"/>
		<path class="st96" d="M506.36,465.31c11.24,1.1,21.14-2.49,30.34-8.6c1.07-0.71,2.42-1,3.63-1.48c-1.66,2.67-3.31,5.35-4.97,8.02
			c-8.11,1.01-16.21,2.09-24.33,2.96C509.53,466.36,507.92,465.63,506.36,465.31z"/>
		<path class="st0" d="M415.66,499.53c-12.91,7.66-25.46,15.1-38.01,22.56c-1.71,1.02-3.37,2.14-5.1,3.13
			c-3.1,1.78-5.78,1.88-8.04-1.56c-2.46-3.74-5.24-7.27-8.36-11.55c5.97-4.06,11.69-8.2,17.67-11.96
			c8.72-5.48,17.59-10.72,26.45-15.97c4.9-2.9,6.31-2.45,8.79,2.36C411.25,490.79,413.39,495.06,415.66,499.53z"/>
	</g>
	<path class="st0" d="M689.86,433.17c2.42,1.17,25.99,18.18,25.99,18.18s23.61,27.68,25.65,31.01c2.03,3.33,15.45,37.07,15.97,37.91
		s9.5,30.44,9.03,39.76s-4.31,48.42-3.01,50.94s5.61,7.59,5.61,7.59s8.03-35.38,6.48-53.44s-6.29-45.66-12.3-56.83
		s-10.58-23.09-19.53-36.87c-8.96-13.78-6.65-9.18-27.74-27.87c-11.67-10.34-25.95-17.89-25.95-17.89l-0.2,4.82"/>
</g>
<g id="Layer_2">
	<path class="st2" d="M380.22,885.68c-16.38,8.99-32.67,7.93-47.86-3.56c-7.68-5.77-11.23-14.11-14.17-22.82
		c-5.7-13.8-6-28.33-4.14-42.69c2.16-16.63,5.85-33.06,8.76-49.6c0.69-3.92,1.06-7.91,1.36-11.89c1.24-16.37-6.14-27.56-20.5-34.98
		c-25.56-13.2-42.36-46.03-38.41-74.45c0.08-0.56,0.62-1.07,0.95-1.6c0.09-3.02-0.35-6.17,0.36-9.04c2-8.11,4.46-16.11,7.65-24.07
		c0.36,12.48,1.8,24.43,7.96,35.34c3.78,4.74,7.02,10.07,11.46,14.08c6.79,6.14,14.41,11.38,21.68,17c-1.02-1.23-1.9-2.62-3.08-3.67
		c-6.7-5.94-13.48-11.8-20.23-17.68c0.44-0.48,0.87-0.96,1.31-1.44c3.29,3.33,6.23,7.14,9.97,9.86c4.69,3.4,10.02,5.9,15.08,8.79
		c-6.25-5.09-12.89-9.78-18.66-15.38c-10.25-9.92-16.01-22.18-16.46-36.6c-0.2-6.7,0-13.41,0.01-20.11c0.33-1.45,0.67-2.89,1-4.34
		c-0.12-1.09-0.24-2.18-0.34-3.12c-4.2-1.21-6.99,0.64-8.89,3.83c-3.67,6.16-7.1,12.45-10.63,18.69
		c-1.51,6.39-3.31,12.73-4.84,19.11l0,0c0,0.01-0.01,0.04-0.01,0.06c-1.01,4.22-1.9,8.45-2.49,12.73c-0.6,4.29-0.82,8.53-0.7,12.71
		c0,0.01,0,0.03,0,0.03l0,0.02c0.23,7.94,1.72,15.67,4.34,23.18l0.01,0.06c0,0,0.02,0.05,0.06,0.14c1.66,4.71,3.75,9.34,6.27,13.86
		c0.26,0.48,0.54,0.94,0.83,1.41c0.36,0.65,0.67,1.15,0.9,1.44c0.49,0.77,0.98,1.53,1.47,2.3l0.29-0.13
		c0.29,0.21,0.59,0.42,0.88,0.64c4.96,5.09,14.89,14.78,15.94,15.55c1.33,0.97,15.3,9.26,18.42,9.98c2.2,0.51-2.33-5.08-5.19-8.4
		c1.14,0.73,2.28,1.45,3.43,2.16c6.16,3.8,12.48,8.03,14.53,15.09c2.03,7.02,3.48,14.78,2.68,21.94c-1.58,14.23-5.33,28.2-7.33,42.4
		c-1.77,12.52-3.35,25.22-3.21,37.82c0.14,12.19,4.99,23.45,12.04,33.59c6.19,8.91,14.28,15.48,24.74,18.18
		c12.44,3.21,24.51,0.92,35.4-5.76c6.22-3.82,12.51-7.98,15.37-15.36C392.27,875.95,386.9,882.02,380.22,885.68z M269.09,689.17
		l-0.33-1.06c0.23,0.55,0.48,1.1,0.74,1.63C269.24,689.38,269.09,689.17,269.09,689.17z M281.06,705.61
		c-0.04-0.05-0.1-0.11-0.16-0.19c0.16,0.16,0.31,0.32,0.46,0.48C281.24,705.78,281.13,705.68,281.06,705.61z"/>
	<path class="st2" d="M277.53,623.57c0.17,1.43,9.65,22.43,9.49,25.7c-0.16,3.27,8.45,12.03,11.39,15.21
		c2.95,3.18,27.11,22.85,29.02,22.85c1.91,0,15.86,7.85,15.86,7.85s2.58-4.75,0-5.65c-2.58-0.9-12.9-10.75-12.9-10.75
		s-13.38-9.83-15.11-10.11c-1.74-0.28-10.93-8.72-14.04-12.03s-16.85-24.44-16.85-24.44L282.2,606L277.53,623.57z"/>
</g>
</svg>
