<?xml version="1.0" encoding="utf-8"?>
<!-- Generator: Adobe Illustrator 25.4.1, SVG Export Plug-In . SVG Version: 6.00 Build 0)  -->
<svg version="1.1" xmlns="http://www.w3.org/2000/svg" xmlns:xlink="http://www.w3.org/1999/xlink" x="0px" y="0px"
	 viewBox="0 0 1920 1080" style="enable-background:new 0 0 1920 1080;" xml:space="preserve">
<style type="text/css">
	.st0{fill:#F7F0F2;}
	.st1{fill:#9297C9;}
	.st2{fill:#18378A;}
	.st3{fill:#23418E;}
	.st4{fill:#123286;}
	.st5{fill:#163487;}
	.st6{fill:#163387;}
	.st7{fill:#1F3D8C;}
	.st8{fill:#1A388A;}
	.st9{fill:#26438F;}
	.st10{fill:#1D3A8B;}
	.st11{fill:#7281B3;}
	.st12{fill:#929CC2;}
	.st13{fill:#29408E;}
	.st14{fill:#284591;}
	.st15{fill:#293A8A;}
	.st16{fill:#1E3789;}
	.st17{fill:#213E8E;}
	.st18{fill:#3F559D;}
	.st19{fill:#183689;}
	.st20{fill:#113186;}
	.st21{fill:#203E8D;}
	.st22{fill:#4D5F89;}
	.st23{fill:#4861A2;}
	.st24{fill:#425C9F;}
	.st25{fill:#FEFEFE;}
	.st26{fill:#E3DBE8;}
	.st27{fill:#163588;}
	.st28{fill:#1B398A;}
	.st29{fill:#1F3C8B;}
	.st30{fill:#153487;}
	.st31{fill:#4B63A3;}
	.st32{fill:#254290;}
	.st33{fill:#697CB2;}
	.st34{fill:#1E3C8C;}
	.st35{fill:#344D98;}
	.st36{fill:#CD6699;}
	.st37{fill:#133286;}
	.st38{fill:#FDFCFD;}
	.st39{fill:#163286;}
	.st40{fill:#394791;}
	.st41{fill:#F1E2EC;}
	.st42{fill:#3A3C8A;}
	.st43{fill:#1D3B8B;}
	.st44{fill:#4A418C;}
	.st45{fill:#C18CB5;}
	.st46{fill:#B493BB;}
	.st47{fill:#C7A5C5;}
	.st48{fill:#FDFDFE;}
	.st49{fill:#556CA8;}
	.st50{fill:#1D3B8C;}
	.st51{fill:#314B95;}
	.st52{fill:#EFE5EE;}
	.st53{fill:#E3D5E4;}
	.st54{fill:#F0E9F1;}
	.st55{fill:#5263A3;}
	.st56{fill:#DFCDDF;}
	.st57{fill:#324C96;}
	.st58{fill:#E3CCDE;}
	.st59{fill:#FEE792;}
	.st60{fill:#FDFDFD;}
	.st61{fill:#0D3086;}
	.st62{fill:#E67A64;}
	.st63{fill:#F2F1EB;}
	.st64{fill:#E3E4E0;}
	.st65{fill:#EBEAE2;}
	.st66{fill:#FDEEDB;}
	.st67{fill:#3D579B;}
	.st68{fill:#334E97;}
	.st69{fill:#304987;}
	.st70{fill:#24418E;}
	.st71{fill:#1F3D8D;}
	.st72{fill:#6378AF;}
	.st73{fill:#EDEDEA;}
	.st74{fill:#606D8A;}
	.st75{fill:#2D4891;}
	.st76{fill:#2C4689;}
	.st77{fill:#EEEFEB;}
	.st78{fill:#F9EFF4;}
	.st79{fill:#FCFCFC;}
	.st80{fill:#143387;}
	.st81{fill:#9EA3CE;}
	.st82{fill:#133386;}
	.st83{fill:#30428F;}
	.st84{fill:#FBFAFC;}
	.st85{fill:#FBF6F9;}
	.st86{fill:#DFA2C2;}
	.st87{fill:#413E8A;}
	.st88{fill:#44418C;}
	.st89{fill:#1B3789;}
	.st90{fill:#4C418C;}
	.st91{fill:#183588;}
	.st92{fill:#4F428C;}
	.st93{fill:#D8C2D8;}
	.st94{fill:#4B418B;}
	.st95{fill:#926EA7;}
	.st96{fill:#1C3487;}
	.st97{fill:#173487;}
	.st98{fill:#213989;}
	.st99{fill:#293E8C;}
	.st100{fill:#5B458E;}
	.st101{fill:#2E4A94;}
	.st102{fill:#E9A172;}
	.st103{fill:#193587;}
	.st104{fill:#163587;}
	.st105{fill:#1A3788;}
	.st106{fill:#1B3888;}
	.st107{fill:#E97A63;}
	.st108{fill:#E67962;}
	.st109{fill:#304A8D;}
	.st110{fill:#354D87;}
	.st111{fill:#254089;}
	.st112{fill:#394884;}
	.st113{fill:#F7EFEA;}
	.st114{fill:#485C97;}
	.st115{fill:#5B6291;}
	.st116{fill:#434C82;}
	.st117{fill:#3B538F;}
	.st118{fill:#40558A;}
	.st119{fill:#505C88;}
	.st120{fill:#3D5697;}
	.st121{fill:#E77C64;}
	.st122{fill:#3B5393;}
	.st123{fill:#3C538A;}
	.st124{fill:#545D85;}
	.st125{fill:#344A94;}
	.st126{fill:#FBFAFB;}
	.st127{fill:#F8EEE3;}
	.st128{fill:#B5B6D7;}
	.st129{fill:#E9E4EE;}
	.st130{fill:#53438C;}
	.st131{fill:#F6F3F4;}
	.st132{fill:#BB8A76;}
	.st133{fill:#EEDED5;}
	.st134{fill:#D9C9C7;}
	.st135{fill:#40589C;}
	.st136{fill:#F0E8E6;}
	.st137{fill:#FDFBF9;}
</style>
<g id="Layer_1">
	<g>
		<path class="st0" d="M845.72,1004.72c-0.58-0.4-1.16-0.79-1.74-1.19c0.9-0.57,1.78-1.58,2.71-1.63c3.82-0.19,7.65-0.1,11.48-0.1
			c1.77,0,3.54,0,5.48-0.74c-4.96-2.05-9.92-4.12-14.89-6.15c-20.01-8.16-37.72-20.23-54.68-33.3
			c-13.36-10.3-26.39-21.15-38.64-32.73c-9.85-9.31-18.97-19.56-27.22-30.32c-11.35-14.8-22.53-29.91-32.01-45.94
			c-8.47-14.34-14.65-30.06-21.58-45.28c-1.83-4.02-2.7-8.46-4.01-12.71c2.54,1.52,5.03,3.15,7.64,4.54
			c26.55,14.14,54.85,17.32,84.24,13.1c20.89-3,39.86-10.83,57.68-22.18c23.84-15.19,43.6-34.31,58.32-58.38
			c5.68-9.28,10.11-19.32,15.14-29.07c2.88,5.24,5.98,10.88,9.47,17.23c22.34-31.01,22.84-63.68,12.95-99.08
			c3.65,1.84,5.79,2.89,7.89,3.99c6.45,3.37,12.89,6.76,19.33,10.15c0.76,0.6,1.44,1.38,2.29,1.78c17.26,8.1,34.53,16.15,51.8,24.21
			c2.03,1.1,3.97,2.43,6.11,3.26c15.17,5.83,30.38,11.55,45.57,17.33c1.66,0.63,3.25,1.47,5.39,2.44c-2.28,0.81-3.64,1.29-5.01,1.77
			c-1.61,0.35-3.23,0.63-4.82,1.05c-8.67,2.27-17.38,4.42-25.96,7c-1.94,0.58-3.42,2.67-5.11,4.06c-0.37,0.6-0.74,1.21-1.12,1.81
			c-1.63,2.06-3.26,4.12-4.89,6.19c-5.71,8.57-11.42,17.15-17.13,25.72c-4.71,8.57-9.57,17.06-14.06,25.73
			c-2.85,5.51-2.14,6.52,3.95,7.22c25.31,2.9,50.51,1.41,75.59-2.36c6.01-0.9,11.88-2.79,17.81-4.23c2.42-1.66,5.15-3.01,7.21-5.04
			c5.67-5.58,11.06-11.45,16.4-17.03c4.4,3.33,7.66,6.55,11.55,8.6c12.64,6.7,26.38,9.22,40.54,8.45c3.14-0.17,6.13-3.18,9.19-4.88
			c3.75-3.57,7.49-7.14,11.44-10.9c0.48,6.7,0.48,13.43,1.57,19.99c1.11,6.65,0.77,14.03,6.81,18.99c3.02,1.97,6.04,3.94,9.06,5.91
			c8.48,4.51,16.95,9.05,25.44,13.54c9.38,4.95,19.31,7.83,29.97,8.35c3.7,0.18,5.08-0.95,4.97-4.69
			c-0.19-6.47,0.35-12.98-0.09-19.42c-0.78-11.39-2.07-22.75-3.15-34.13c-0.78-5.52-1.64-11.03-2.3-16.56
			c-0.8-6.75-4.66-10.96-10.71-13.49c-6.55-3.97-13.1-7.95-19.65-11.92c-0.64-1.19-1.29-2.37-1.37-2.52
			c7.21-4.82,14.13-9.45,21.05-14.08c6.63-5.09,13.26-10.18,19.9-15.26c2.56-1.08,3.93-0.35,5.23,2.3
			c11.17,22.8,17.71,46.93,19.56,72.14c1.64,22.29-0.14,44.5-5.63,66.22c-4.83,19.1-10.33,38.03-20.15,55.35
			c-12.17,16.16-27.57,28.87-43.85,40.54c-46.12,33.04-96.7,57.29-150.65,74.37c-41.61,13.17-84.46,19.58-128.1,20.13
			c-25.81,0.33-51.62,0.02-77.43,0.13C848.92,1002.99,847.33,1004.11,845.72,1004.72z"/>
		<path class="st1" d="M943.31,634.91c-6.44-3.38-12.88-6.78-19.33-10.15c-2.1-1.1-4.24-2.14-7.89-3.99
			c9.89,35.41,9.39,68.08-12.95,99.08c-3.49-6.35-6.59-12-9.47-17.23c-5.03,9.76-9.46,19.8-15.14,29.07
			c-14.73,24.07-34.49,43.19-58.32,58.38c-17.82,11.35-36.79,19.18-57.68,22.18c-29.39,4.22-57.69,1.04-84.24-13.1
			c-2.61-1.39-5.1-3.02-7.64-4.54c-3.67-8.45-8.01-16.67-10.86-25.38c-7.21-21.98-14.03-44.11-20.4-66.35
			c-2.42-8.44-3.19-17.35-4.71-26.04c-0.72-25.34-1.44-50.68-2.16-76.02c1.95-24.71,7.94-48.51,16.55-71.66
			c2.72-7.32,6.37-14.3,9.59-21.43c1.58-1,3.5-1.71,4.67-3.06c6.11-7.04,12.05-14.22,17.99-21.41
			c25.05-30.28,57.72-46.25,96.2-51.36c0.72,4.36,1.15,8.8,2.22,13.08c2.77,11.03,5.83,21.98,8.77,32.96
			c3.9,15.53,10.73,29.72,19.69,42.93c0.48,0.87,0.87,1.8,1.44,2.61c13.17,18.95,28.89,35.59,46.02,50.98
			c18.12,16.28,37.78,30.46,58.33,43.45c1.64,1.04,3.68,1.44,5.54,2.14c1.92,1.24,3.8,2.54,5.76,3.71
			c6.15,3.68,12.32,7.31,18.49,10.95L943.31,634.91z"/>
		<path class="st2" d="M845.72,1004.72c1.6-0.61,3.2-1.73,4.8-1.74c25.81-0.11,51.63,0.2,77.43-0.13
			c43.64-0.55,86.5-6.96,128.1-20.13c53.95-17.08,104.53-41.33,150.65-74.37c16.28-11.66,31.68-24.38,43.85-40.54
			c4.64-6.02,9.27-12.04,13.91-18.07c0.36,0.02,0.72,0.04,1.08,0.06c-1.67,3-3.33,6-5,8.99c-7.35,8.87-14.7,17.74-21.85,26.38
			c2.13-0.89,4.49-1.86,6.83-2.87c1.82-0.78,4.11-1.17,5.34-2.51c3.78-4.14,7.15-8.65,10.68-13.02c1.79-2.79,3.67-5.52,5.34-8.38
			c6.58-11.28,14.21-22.12,19.36-34.02c8.08-18.7,13.1-38.35,14.58-58.96c1.26-17.46,0.95-34.75-2.01-51.92
			c-2.24-13-5.54-25.82-8.36-38.73c0.08-0.43,0.16-0.86,0.24-1.28c6.36,17.66,9.55,35.99,11.36,54.58
			c3.57,36.62-1.96,71.73-17.7,105.11c-8.37,17.76-19.65,33.58-32.3,48.48c-16.58,17.72-35.4,32.63-55.66,45.97
			c-19.16,12.61-39.07,23.7-59.78,33.51c-43.39,20.55-88.06,36.64-136.03,42.9c-42.79,5.59-85.59,5.99-128.52,3.04
			C863.27,1006.49,854.5,1005.52,845.72,1004.72z"/>
		<path class="st2" d="M777.49,431.91c-38.48,5.11-71.15,21.09-96.2,51.36c-5.94,7.18-11.89,14.36-17.99,21.41
			c-1.17,1.35-3.1,2.06-4.67,3.06c5.67-13.58,12.87-26.25,22.27-37.61c1.78-2.15,3.75-4.14,5.63-6.21
			c9.48-6.99,18.95-13.99,28.43-20.98c9.19-6.1,19.29-9.92,30.04-12.21c1.89-0.4,3.69-1.24,5.54-1.87
			c8.23-1.73,16.47-3.45,24.7-5.18c10.36-1.98,20.71-4,31.08-5.91c4.02-0.74,8.08-1.24,12.12-1.85c0.04,0.4,0.08,0.8,0.12,1.2
			c-2.66,1.58-5.33,3.15-7.99,4.73c-0.16,0.25-0.25,0.52-0.28,0.82c-8.56,2.42-17.12,4.85-25.68,7.27
			c-1.28,0.32-2.56,0.64-3.83,0.95C779.68,431.23,778.59,431.57,777.49,431.91z"/>
		<path class="st3" d="M1280.08,645.97c0.26,0.92,0.51,1.84,0.77,2.76c-3.62-3.66-5.45-7.78-3.3-12.92c1-3.38,2.84-6.76,2.81-10.13
			c-0.06-7-1.12-13.99-1.77-20.99c4.43,10.73,4.7,21.52,0.92,32.53c-0.71,2.07-0.12,4.6-0.12,6.92
			C1279.62,644.75,1279.85,645.36,1280.08,645.97z"/>
		<path class="st1" d="M1264.47,849.75c-4.64,6.02-9.27,12.04-13.91,18.07c9.82-17.32,15.33-36.24,20.15-55.35
			c5.49-21.72,7.27-43.93,5.63-66.22c-1.86-25.21-8.4-49.34-19.56-72.14c-1.3-2.65-2.66-3.39-5.23-2.3
			c3.68-3.63,7.36-7.26,11.05-10.9c2.38-2.49,4.79-4.95,7.13-7.48c2.28-2.46,4.5-4.98,6.74-7.48c8.55,19.88,14.75,40.45,18.01,61.87
			c0.06,1.99,0.13,3.98,0.17,5.98c0.32,15.22,1.54,30.48,0.76,45.64c-1.39,27.1-10.01,52.32-22.81,76.13
			C1270.02,840.37,1267.19,845.03,1264.47,849.75z"/>
		<path class="st4" d="M1187.49,781.98c-3.02-1.97-6.04-3.94-9.06-5.91c-1-2.37-2.48-4.65-2.92-7.12
			c-1.22-6.83-2.17-13.72-2.91-20.62c-0.59-5.49-0.72-11.02-1.06-16.53c-0.67-1.33-1.34-2.67-2-4c1.22-2.68,2.45-5.36,3.65-8.05
			c2.58-5.77,6.36-11.18,5.35-18.01c0.38,1.47,0.94,2.92,1.12,4.42c0.4,3.41,1.35,6.38,4.89,7.78c-0.01,0.67-0.03,1.35-0.04,2.02
			c-1.29,0.98-2.58,1.96-3.87,2.94c-0.4,0.6-0.81,1.2-1.21,1.8l0.02-0.02c-0.96,3.15-2.87,6.36-2.7,9.46
			c0.67,11.91,1.92,23.8,3.2,35.66c0.19,1.74,1.7,3.34,2.59,5.01c1.9,1.51,3.65,3.28,5.72,4.48c8.4,4.87,16.91,9.56,25.37,14.32
			c8.25,5.99,17.92,8.15,27.63,10.12c0.99,0.2,2.18-0.59,3.28-0.93c0.34-1.84,0.74-3.67,0.99-5.52c0.38-2.81,0.66-5.64,0.98-8.47
			c0,4.97,0.2,9.96-0.14,14.91c-0.07,1.06-2.23,2.97-3.17,2.83c-6.48-1.02-13.28-1.55-19.25-3.99
			c-11.15-4.57-21.81-10.35-32.7-15.56C1190.1,782.44,1188.75,782.31,1187.49,781.98z"/>
		<path class="st5" d="M1012.46,699.62c0.37-0.6,0.74-1.21,1.12-1.81c2.51-1.24,4.91-2.85,7.55-3.64
			c9.77-2.93,19.32-6.84,29.69-7.39c0.92-0.05,1.81-0.6,2.71-0.91c1.16-0.47,2.32-0.94,4.57-1.86c-3.83-1.67-6.62-3-9.5-4.12
			c-7.68-3.01-15.4-5.94-23.11-8.89c-1.23-0.75-2.4-1.64-3.71-2.23c-8.32-3.73-16.64-7.46-25.01-11.06
			c-4.03-1.73-8.19-3.19-12.28-4.77c-1.65-0.73-3.29-1.46-4.94-2.19c-0.95-1.78-1.89-3.56-3.17-5.95c-0.12,0.09,0.52-0.37,1.16-0.82
			c1.65,0.65,3.3,1.3,4.96,1.95c5.36,2.46,10.73,4.93,16.09,7.39c2.32,1.15,4.63,2.29,6.95,3.44c2.37,1.37,4.64,2.97,7.13,4.07
			c9.98,4.39,20.02,8.62,30.04,12.91c1.94,0.7,3.88,1.4,5.83,2.1c5.08,2.31,10.04,4.97,15.29,6.8c3,1.04,6.47,0.92,9.73,0.96
			c8.94,0.11,17.88,0.04,25.93,0.04c-0.41,0.15-1.72,0.63-3.03,1.11c-2.82,0.02-5.67-0.17-8.47,0.1
			c-5.83,0.55-11.63,1.35-17.45,2.04c-4.92,0.36-9.85,0.72-14.77,1.07c-4.41,0.62-8.88,0.94-13.2,1.92
			c-9.77,2.23-20.15,2.94-28.06,10.33C1014.25,700.46,1013.17,699.83,1012.46,699.62z"/>
		<path class="st6" d="M1246.51,784.81c-0.32,2.82-0.6,5.65-0.98,8.47c-0.25,1.85-0.66,3.68-0.99,5.52
			c-1.35-21.45-2.61-42.92-4.16-64.36c-0.19-2.58-1.96-5.05-3-7.57c-15.35-12.55-31.57-23.66-50.25-30.79
			c-3.05-1.16-5.91-2.8-8.86-4.21c1.58-0.21,3.19-0.7,4.74-0.56c3.16,0.27,6.29,0.89,9.44,1.36c3.37,1.77,6.73,3.55,10.09,5.32
			c3.14,1.89,6.29,3.78,9.43,5.67c6.55,3.97,13.1,7.95,19.65,11.92c0.83,1,1.46,2.34,2.52,2.93c5.07,2.84,6.62,7.53,7.41,12.82
			c0.82,5.52,1.9,11,2.86,16.5C1245.11,760.16,1245.81,772.48,1246.51,784.81z"/>
		<path class="st5" d="M990.44,731.53c5.71-8.57,11.42-17.15,17.13-25.72c0.7,0.41,1.41,0.83,2.11,1.24
			c-2.34,4.13-4.64,8.28-7.02,12.39c-5.3,9.15-10.64,18.28-15.96,27.41c-1.94,3.11-3.98,6.17-5.71,9.4c-0.24,0.45,1,1.69,1.55,2.56
			c-1,1.33-2,2.65-3,3.98c-3.47,0.11-3.44-1.83-2.34-4.19c1.54-3.3,3.24-6.52,4.84-9.79C984.86,743.05,987.64,737.29,990.44,731.53z
			"/>
		<path class="st7" d="M990.44,731.53c-2.8,5.76-5.58,11.52-8.39,17.27c-1.6,3.27-3.29,6.5-4.84,9.79c-1.1,2.36-1.14,4.3,2.34,4.19
			c10.33,0.62,20.65,1.4,30.99,1.79c4.32,0.16,8.67-0.49,13.01-0.77c7.23-0.58,14.49-0.89,21.68-1.81
			c9.14-1.18,18.22-2.85,27.33-4.31c0.39,0.07,0.78,0.14,1.18,0.21c-5.93,1.44-11.8,3.32-17.81,4.23
			c-25.09,3.78-50.28,5.27-75.59,2.36c-6.09-0.7-6.8-1.7-3.95-7.22C980.87,748.58,985.73,740.1,990.44,731.53z"/>
		<path class="st8" d="M1073.73,757.89c-0.39-0.07-0.78-0.14-1.18-0.21c8.67-7.86,17.34-15.72,26.27-23.8
			c12.81,15.63,30.71,16.36,48.76,17.29c-0.13-1.51-0.2-2.25-0.44-4.93c4.96,7.4,8.08,3.28,11.38,0.56c0.03,0.4,0.06,0.8,0.09,1.19
			c-3.06,1.7-6.05,4.71-9.19,4.88c-14.16,0.77-27.9-1.75-40.54-8.45c-3.88-2.06-7.15-5.28-11.55-8.6
			c-5.33,5.58-10.73,11.44-16.4,17.03C1078.88,754.87,1076.15,756.23,1073.73,757.89z"/>
		<path class="st9" d="M1246.51,784.81c-0.7-12.33-1.4-24.65-2.1-36.98c0.08-0.73,0.15-1.47,0.23-2.2
			c1.08,11.37,2.37,22.73,3.15,34.13c0.44,6.45-0.1,12.95,0.09,19.42c0.11,3.74-1.27,4.87-4.97,4.69
			c-10.66-0.52-20.59-3.4-29.97-8.35c-8.5-4.48-16.96-9.02-25.44-13.54c1.26,0.32,2.6,0.45,3.75,1
			c10.89,5.21,21.55,10.99,32.7,15.56c5.98,2.45,12.77,2.98,19.25,3.99c0.94,0.15,3.09-1.76,3.17-2.83
			C1246.71,794.77,1246.51,789.78,1246.51,784.81z"/>
		<path class="st10" d="M1158.62,747.99c-0.03-0.4-0.06-0.8-0.09-1.19c1.95-2.42,3.82-4.9,5.86-7.24c2.31-2.65,4.77-5.17,7.16-7.75
			c0.33,5.51,0.46,11.05,1.06,16.53c0.74,6.9,1.7,13.79,2.91,20.62c0.44,2.47,1.92,4.75,2.92,7.12c-6.04-4.96-5.71-12.35-6.81-18.99
			c-1.09-6.56-1.09-13.29-1.57-19.99C1166.11,740.85,1162.37,744.42,1158.62,747.99z"/>
		<path class="st11" d="M979.55,650.74c1.65,0.73,3.29,1.46,4.94,2.19c5.01,2.63,10.01,5.26,15.02,7.89
			c-0.7,0.03-1.4,0.05-2.11,0.08c-17.27-8.06-34.55-16.12-51.8-24.21c-0.86-0.4-1.53-1.18-2.29-1.78l0.43-0.2
			c2.92,1.12,5.83,2.23,8.75,3.35C961.51,642.29,970.53,646.51,979.55,650.74z"/>
		<path class="st12" d="M997.4,660.91c0.7-0.03,1.4-0.05,2.11-0.08c8.66,3.39,17.33,6.78,25.99,10.17
			c7.7,2.96,15.42,5.88,23.11,8.89c2.87,1.13,5.67,2.45,9.5,4.12c-2.26,0.92-3.42,1.39-4.57,1.85c-1.36-0.05-2.71-0.11-4.07-0.16
			c1.36-0.48,2.72-0.96,5.01-1.77c-2.14-0.97-3.73-1.81-5.39-2.44c-15.19-5.78-30.4-11.5-45.57-17.33
			C1001.37,663.34,999.43,662,997.4,660.91z"/>
		<path class="st13" d="M1009.69,707.05c-0.71-0.41-1.41-0.83-2.12-1.24c1.63-2.06,3.26-4.12,4.89-6.19
			c0.71,0.22,1.79,0.84,2.06,0.59c7.91-7.39,18.29-8.11,28.06-10.33c4.32-0.98,8.8-1.3,13.2-1.93c-1.66,0.63-3.27,1.49-4.98,1.84
			C1035.95,692.82,1020.18,693.62,1009.69,707.05z"/>
		<path class="st7" d="M1211.97,703.66c-3.14-1.89-6.29-3.78-9.43-5.67c3.31-1.41,6.63-2.82,9.94-4.23
			c0.36,0.08,0.72,0.17,1.08,0.25c-1.15,1.06-2.3,2.12-3.45,3.19c0.3,0.46,0.59,0.93,0.89,1.39c6.85-4.26,13.7-8.52,20.55-12.78
			c0.04,0.42,0.07,0.84,0.11,1.26c-6.92,4.63-13.84,9.25-21.05,14.08C1210.68,701.29,1211.33,702.47,1211.97,703.66z"/>
		<path class="st14" d="M1231.66,687.07c-0.04-0.42-0.07-0.84-0.11-1.26c3.07-2.52,6.32-4.86,9.14-7.62
			c2.23-2.18,3.93-4.89,5.86-7.37c1.77-0.6,3.84-0.8,5.24-1.87c3.73-2.85,7.17-6.07,10.73-9.14c0.03,0.37,0.05,0.74,0.08,1.12
			c-3.68,3.63-7.36,7.26-11.05,10.9C1244.92,676.89,1238.29,681.98,1231.66,687.07z"/>
		<path class="st13" d="M1049.47,685.7c1.36,0.05,2.71,0.11,4.07,0.16c-0.9,0.32-1.79,0.86-2.71,0.91
			c-10.38,0.55-19.92,4.46-29.69,7.39c-2.64,0.79-5.04,2.41-7.55,3.64c1.69-1.39,3.18-3.48,5.11-4.06c8.58-2.57,17.29-4.72,25.96-7
			C1046.24,686.33,1047.86,686.05,1049.47,685.7z"/>
		<path class="st15" d="M1244.63,745.63c-0.08,0.73-0.15,1.47-0.23,2.2c-0.96-5.5-2.04-10.98-2.86-16.5
			c-0.79-5.29-2.34-9.98-7.41-12.82c-1.05-0.59-1.69-1.93-2.52-2.93c6.05,2.53,9.91,6.74,10.71,13.49
			C1242.99,734.6,1243.86,740.11,1244.63,745.63z"/>
		<path class="st16" d="M952.48,638.06c-2.92-1.12-5.83-2.23-8.75-3.35c-6.16-3.65-12.34-7.28-18.49-10.95
			c-1.96-1.17-3.84-2.47-5.76-3.71c-6.3-4.23-12.85-8.13-18.84-12.76c-14.82-11.43-29.48-23.07-44.01-34.86
			c-12.42-10.07-23.13-21.83-32.56-34.73c-0.77-1.05-0.37-2.96-0.52-4.47c3.92,3.4,7.6,6.27,9.27,10.04
			c1.34,3.02,2.56,4.46,5.63,4.54c4.4,5.02,8.55,10.29,13.28,14.97c4,3.96,8.61,7.31,13.08,10.78c5.3,4.12,10.73,8.07,16.1,12.1
			c0.25,0.01,0.5,0.04,0.75,0.08c6.64,4.65,13.27,9.3,19.91,13.95c1.36,1.26,2.72,2.53,4.07,3.79c7.38,5.07,14.76,10.15,22.15,15.22
			c4,1.7,7.99,3.4,11.99,5.09c2.9,2.03,5.81,4.06,8.71,6.09c2.01,1.31,4.02,2.63,6.03,3.94
			C953.86,635.24,953.17,636.65,952.48,638.06z"/>
		<path class="st17" d="M781.53,437.81c0.47,5.57,0.51,11.22,1.51,16.69c1.45,7.88,3.59,15.64,5.44,23.45
			c-2.94-10.98-6-21.94-8.77-32.96c-1.07-4.27-1.5-8.71-2.22-13.08c1.09-0.34,2.19-0.68,3.28-1.02
			C781.03,433.2,781.28,435.5,781.53,437.81z"/>
		<path class="st4" d="M1294.48,707.82c-3.26-21.42-9.45-41.99-18.01-61.87c-0.31-0.71-0.62-1.42-0.93-2.13
			c-1.05-2.44-2.1-4.87-3.15-7.31c-0.06-0.28,0.01-0.51,0.22-0.7c1.65,0,3.3,0,4.94,0c-2.15,5.14-0.32,9.26,3.3,12.92
			c0.27,0.6,0.53,1.21,0.8,1.81c2.93,8.09,5.87,16.17,8.8,24.26c2.83,12.9,6.13,25.72,8.36,38.73c2.95,17.16,3.26,34.45,2.01,51.92
			c-1.48,20.6-6.5,40.26-14.58,58.96c-5.15,11.91-12.78,22.74-19.36,34.02c-1.67,2.86-3.55,5.59-5.34,8.38
			c-0.02-1.47,0.08-2.94-0.09-4.39c-0.14-1.22-0.59-2.4-0.9-3.59c1.67-3,3.33-6,5-8.99c6.57-12.82,14.11-25.25,19.49-38.56
			c10.73-26.55,13.9-54.54,12.38-83.03C1297.05,721.39,1295.49,714.62,1294.48,707.82z"/>
		<path class="st18" d="M1294.48,707.82c1.01,6.8,2.57,13.57,2.94,20.41c1.52,28.49-1.65,56.48-12.38,83.03
			c-5.38,13.3-12.92,25.73-19.49,38.56c-0.36-0.02-0.72-0.04-1.08-0.06c2.72-4.72,5.55-9.38,8.13-14.18
			c12.8-23.82,21.42-49.04,22.81-76.13c0.78-15.16-0.44-30.42-0.76-45.64C1294.61,711.81,1294.54,709.82,1294.48,707.82z"/>
		<path class="st19" d="M1260.55,858.8c0.31,1.2,0.76,2.38,0.9,3.59c0.17,1.45,0.07,2.93,0.09,4.39c-3.53,4.37-6.9,8.88-10.68,13.02
			c-1.23,1.34-3.52,1.73-5.34,2.51c-2.34,1.01-4.7,1.97-6.83,2.87C1245.85,876.55,1253.2,867.68,1260.55,858.8z"/>
		<path class="st19" d="M1290.45,674.79c-2.93-8.09-5.87-16.17-8.8-24.26c3.01,7.66,6.03,15.31,9.04,22.97
			C1290.61,673.93,1290.53,674.36,1290.45,674.79z"/>
		<path class="st20" d="M1088.32,159.03c15.4,14.23,31.1,27.48,50.94,36.01c26.58,11.42,52.47,24.6,78,38.25
			c20.83,11.13,40.69,24.07,60.99,36.19c0.99,0.59,2.06,1.05,3.09,1.57c12.67,8.52,25.25,17.17,38.05,25.48
			c4.3,2.79,5.73,5.9,4.3,10.82c-6.33,21.87-12.44,43.8-18.76,65.68c-3.27,11.31-6.81,22.55-10.22,33.82
			c-0.61,1.13-1.45,2.19-1.81,3.4c-6.82,22.89-13.57,45.81-20.39,68.7c-1.88,6.32-3.97,12.57-5.97,18.85
			c0.3-2.45,0.37-4.96,0.96-7.34c2.82-11.37,5.71-22.71,8.72-34.03c3.86-14.54,7.89-29.03,11.77-43.56
			c0.65-2.42,0.91-4.94,1.36-7.42c-0.43-0.11-0.86-0.23-1.29-0.34c-0.5,1.77-0.99,3.54-1.51,5.3c-2.71,9.12-5.42,18.24-8.14,27.36
			c0.26-1.46,0.43-2.94,0.78-4.38c2.15-8.85,4.34-17.68,6.52-26.52c0.27-1,0.54-2.01,0.82-3.01c1.42-5.13,2.92-10.24,4.26-15.38
			c7.2-27.56,14.33-55.14,21.59-82.69c1.03-3.92,0.42-6.83-3.28-8.87c-1.45-0.8-2.79-1.82-4.17-2.75
			c-46.19-30.84-93.85-59.17-143.64-83.81c-10.58-5.24-21.73-9.32-32.62-13.94c-3.91-2.28-7.82-4.55-11.74-6.83
			c-6.12-4.93-12.25-9.85-18.37-14.78c-8.4-7.7-16.79-15.43-25.23-23.09c-1.41-1.28-3.11-2.24-4.68-3.34
			c-0.33-0.78-0.65-1.56-0.98-2.33c-4.1-5.75-8.17-11.52-12.32-17.22c-0.72-1-1.81-1.73-2.72-2.58l0.01-0.17
			c-0.56-1.85-0.95-3.77-1.71-5.53c-4.38-10.25-6.83-20.58-4.4-31.92c1.98-9.24,7.51-15.15,15.15-19.73
			c1.59-0.87,3.16-1.78,4.78-2.61c13.26-6.79,26.19-14.38,41.02-17.51c2.02,0.01,4.04,0.03,6.06,0.04c2,0,4,0,6,0
			c-1.12,1.36-2.36,1.64-3.53,2.08c-9.49,3.61-18.97,7.25-28.46,10.89c-5.05,2.98-10.1,5.96-15.14,8.94
			c-5.66,2.86-11.37,5.67-13.79,12.19c-5.97,11.21-7.2,22.54-1.85,34.51C1064.07,133.79,1075.38,146.99,1088.32,159.03z"/>
		<path class="st4" d="M954.39,255.35c14.35-20.84,28.35-41.95,43.29-62.35c4.22-5.77,11.22-9.51,16.95-14.18
			c10.23-0.98,20.46-1.96,30.7-2.94c0.16-0.38,0.32-0.76,0.48-1.15c-8.03-4.75-16.14-9.33-25.31-11.87
			c-33.1-15.26-68.29-22.12-104.23-26.15c-2.46-0.28-5.31-2.09-6.91-4.06c-9.98-12.31-12.84-27.26-14.46-42.41
			c-0.79-7.4-0.53-14.97-0.06-22.42c0.15-2.4,1.92-5.62,3.94-6.84c14.75-8.87,30.08-16.57,46.94-20.66
			c4.95-1.2,10.05-1.82,15.83-2.84c-3.78,5.72-7.45,10.68-10.49,16c-7.17,12.56-7.62,25.99-0.33,38.09
			c5.91,9.82,14.5,18.03,21.91,26.95c5.69,4.26,11.39,8.52,17.08,12.78c-0.06,0.16-0.12,0.32-0.18,0.48
			c-3.32-1.68-6.64-3.35-9.96-5.03c-3.25-2.27-6.55-4.49-9.75-6.83c-18.02-13.18-30.53-29.41-29.33-53.19
			c1.56-9.16,5.57-17.03,12.86-23.18c-0.26-0.39-0.51-0.78-0.77-1.17c-1.66,0.52-3.33,1.05-4.99,1.57
			c-2.32,0.92-4.64,1.84-6.96,2.76c-12.17,5.3-24.39,10.47-36.43,16.05c-1.44,0.67-2.51,3.48-2.66,5.39
			c-1.66,21.22,2.73,41.02,14.25,59.12c1.94,3.04,4.12,4.62,7.89,5c35.17,3.6,69.38,10.97,101.04,27.46
			c12.79,6.66,25.28,13.9,37.91,20.88c-2.19,0.35-4.44,1.22-6.56,0.97c-20.22-2.39-38.59,0.63-52.56,17.22
			c-1.97,1.13-4.32,1.91-5.8,3.49c-1.79,1.92-2.27,5.59-4.29,6.66c-7.03,3.73-8.2,10.31-9.65,16.94c-2.65,4.36-5.29,8.71-7.94,13.07
			c-3.44,5.28-6.89,10.56-10.33,15.83c-1.07,0.93-2.46,1.66-3.16,2.82c-10.01,16.68-19.93,33.41-29.87,50.14
			c0.25-1.45,0.24-3,0.79-4.32c2.33-5.58,4.82-11.09,7.25-16.63c5.32-9.27,10.64-18.54,16.33-28.45c-1.42,0.36-2.11,0.53-2.93,0.74
			C954.1,257.82,954.24,256.58,954.39,255.35z"/>
		<path class="st4" d="M1087.55,61.77c9.48-3.63,18.96-7.28,28.46-10.89c1.17-0.45,2.41-0.72,3.53-2.08c-2,0-4,0-6,0
			c1.16-0.74,2.32-1.47,4.04-2.56c-6.46-1.99-12.21-3.77-17.97-5.55c-1.85-0.63-3.65-1.54-5.55-1.85
			c-7.14-1.18-14.3-2.26-21.48-3.22c-9.59-1.28-18.93-0.02-28.03,3.18c-2.19,0.77-4.38,1.54-6.56,2.31
			c-4.49,1.58-9.01,2.69-11.76,7.5c-6.33,11.05-9.85,22.95-11.55,35.4c-0.34,2.46,1.23,5.18,1.91,7.78
			c1.39,4.26,1.8,9.25,4.33,12.65c8.92,11.97,18.03,23.89,28.09,34.9c12.69,13.87,26.39,26.83,39.66,40.18
			c1.07,1.57,2.13,3.14,3.2,4.71c-0.34,0.4-0.68,0.79-1.02,1.19c-3.17-2.95-6.34-5.9-9.53-8.83c-0.83-0.76-1.69-1.49-2.6-2.16
			c-2.4-1.76-4.73-3.65-7.28-5.15c-2.87-1.69-5.96-3.01-8.96-4.5c-0.32-0.34-0.64-0.69-0.96-1.03c-1.45-2.12-2.69-4.42-4.37-6.33
			c-9.83-11.11-20.16-21.8-29.52-33.28c-6.37-7.82-11.9-16.43-16.84-25.24c-2.11-3.76-3.35-9.36-2.23-13.34
			c3.98-14.06,9.07-27.81,13.97-41.59c0.59-1.65,2.36-3.46,3.99-4.06c18.76-6.91,37.94-12.17,58.14-8.71
			c14.85,2.55,28.86,7.98,42.01,15.47c0.69,0.39,1.25,1.02,1.98,1.62c-13.14,4.6-26.02,9.11-38.9,13.62
			C1089.01,61.88,1088.28,61.82,1087.55,61.77z"/>
		<path class="st21" d="M1061.52,163.75c0.32,0.34,0.64,0.69,0.96,1.03c-0.32,1.04-0.64,2.07-0.96,3.11
			c-12.31-6.06-24.63-12.12-36.94-18.18c-6.87-3.3-13.76-6.56-20.59-9.92c-8.62-4.23-17.19-8.55-25.78-12.84
			c0.46-0.07,0.92-0.14,1.38-0.2c3.32,1.68,6.64,3.35,9.96,5.03c0.06-0.16,0.12-0.32,0.18-0.48c-5.69-4.26-11.39-8.52-17.08-12.78
			c19.8,9.98,39.64,19.9,59.39,29.97c8.58,4.38,17,9.09,25.51,13.61C1058.8,162.78,1060.19,163.21,1061.52,163.75z"/>
		<path class="st22" d="M1020.5,162.87c9.17,2.54,17.28,7.12,25.31,11.87c-0.16,0.38-0.32,0.76-0.48,1.15
			c-10.23,0.98-20.46,1.96-30.7,2.94c-0.01-0.28,0.01-0.56,0.08-0.84c8.66-1.25,17.33-2.49,26.73-3.85
			C1034.25,170.26,1027.37,166.56,1020.5,162.87z"/>
		<path class="st23" d="M1058.61,82.9c2.43-6.52,8.13-9.33,13.8-12.19c0.48,0.08,0.96,0.15,1.44,0.23
			C1068.76,74.93,1063.69,78.92,1058.61,82.9z"/>
		<path class="st24" d="M1073.84,70.94c-0.48-0.08-0.96-0.15-1.44-0.23c5.05-2.98,10.09-5.96,15.14-8.94
			c0.73,0.05,1.47,0.11,2.2,0.16C1084.44,64.94,1079.14,67.94,1073.84,70.94z"/>
		<path class="st25" d="M791.66,473.57c-0.05-0.57-0.11-1.14-0.16-1.71c-0.08-1.14-0.02-2.31-0.28-3.41
			c-2.04-8.68-4.4-17.3-6.12-26.05c-0.79-4.03-0.37-8.3-0.49-12.46c8.56-2.42,17.12-4.85,25.68-7.27c3.94-0.86,7.87-1.8,11.84-2.54
			c1.77-0.33,3.61-0.26,5.42-0.37c-11.27,5.71-22.54,11.42-33.81,17.12c-0.65,0.7-1.92,1.48-1.85,2.1c0.23,1.95,0.9,3.86,1.52,5.75
			c10.55,31.72,24.55,61.82,45.01,88.35c10.76,13.95,23.42,26.46,35.47,39.38c2.73,2.93,6.5,4.88,9.78,7.29
			c7.99,6.6,15.98,13.21,23.97,19.81c1.09,1.19,2.18,2.37,3.27,3.56c-0.16,0.18-0.32,0.35-0.48,0.53c-2.61-1.63-5.23-3.27-7.84-4.9
			c-5.92-4.38-11.81-8.81-17.82-13.06c-0.68-0.48-2.05,0.01-3.09,0.05c-0.25-0.05-0.5-0.07-0.75-0.08c-0.26-0.59-0.36-1.36-0.8-1.75
			c-13.8-12.47-27.64-24.91-41.47-37.35c-10.97-14.61-21.95-29.21-32.92-43.82C801.05,493.01,796.35,483.29,791.66,473.57z"/>
		<path class="st26" d="M810.56,421.85c5.96-1.56,11.91-3.2,17.91-4.59c1.35-0.31,2.92,0.28,4.38,0.45
			c-1.77,0.69-3.54,1.37-5.31,2.06c-1.81,0.11-3.65,0.04-5.42,0.37c-3.97,0.74-7.9,1.68-11.84,2.54
			C810.31,422.37,810.4,422.1,810.56,421.85z"/>
		<path class="st27" d="M1266.54,497.8c1.99-6.28,4.09-12.54,5.97-18.85c6.82-22.89,13.56-45.81,20.39-68.7
			c0.36-1.21,1.2-2.27,1.81-3.4c-4.59,16.32-9.1,32.66-13.78,48.94c-6.49,22.54-13.04,45.05-19.71,67.54
			c-3,10.12-2.33,20.04,2.88,28.98c5.91,10.14,12.93,19.64,19.47,29.42c1.72,4.1-0.81,5.78-4.03,7.05c0-0.33,0.01-0.65,0-0.98
			c2.9-2.89,1.5-5.03-1.21-6.94c-1.9-2.09-3.8-4.18-5.7-6.27c-0.75-1.18-1.51-2.36-2.26-3.54c-0.21-0.21-0.47-0.34-0.77-0.38
			c-0.8-1.6-1.64-3.19-2.39-4.82c-4.2-9.14-8.68-18.17-12.43-27.5c-2.09-5.19-1.37-10.68,1.73-15.61c-0.2,1.8-0.27,3.62-0.61,5.39
			c-1.64,8.35,1.42,15.55,5.17,22.6c-0.12-1.97-0.98-3.78-1.29-5.67c-0.83-5.02-2.75-10.35-1.83-15.08
			C1260.06,519.11,1263.59,508.51,1266.54,497.8z"/>
		<path class="st28" d="M1277.55,635.81c-1.65,0-3.3,0-4.94,0c1.25-4.67,2.49-9.35,3.74-14.02c0.15-5.65,0.9-11.39-2.71-16.42
			c-0.74-3.42-1.48-6.85-2.22-10.27c0.69-0.77,1.38-1.53,2.06-2.3c0.4,0.99,0.81,1.98,1.21,2.97c1.3,2.97,2.6,5.95,3.91,8.92
			c0.65,6.99,1.71,13.99,1.77,20.99C1280.4,629.04,1278.55,632.43,1277.55,635.81z"/>
		<path class="st29" d="M1274.69,595.77c-0.4-0.99-0.81-1.98-1.21-2.97c2.02-1.34,4.04-2.68,6.07-4.01
			c3.22-1.28,5.75-2.95,4.03-7.05c3.18,2.34,2.9,4.52-0.35,6.49c-2.12,1.29-4.43,2.32-6.36,3.85
			C1275.82,592.9,1275.39,594.51,1274.69,595.77z"/>
		<path class="st30" d="M835.44,418.01c-5.13-2.95-8.36-7.82-12.15-12.12c-0.91-1.04-1.82-2.07-2.72-3.11
			c-0.62-4.29-1.23-8.58-1.85-12.87c5.61-0.4,11.22-0.79,16.84-1.19c-4.64,0.93-9.29,1.86-13.93,2.8c4.3,0.34,8.66,0.4,12.91-0.28
			c7.45-1.2,14.83-2.86,22.24-4.33c-10.26,2.61-20.52,5.22-31.07,7.9c5.29,13.38,14.07,24.18,30.06,27.9
			c-0.23,0.46-0.47,0.92-0.7,1.38c-2.46,0.6-4.91,1.21-7.37,1.81c-0.72-0.31-2.08-0.86-2.06-0.9c1.28-3.52-1.18-3.09-3.21-3.11
			C840.09,420.59,837.76,419.3,835.44,418.01z"/>
		<path class="st28" d="M954.39,255.35c-0.15,1.24-0.29,2.47-0.45,3.75c0.83-0.21,1.51-0.38,2.93-0.74
			c-5.69,9.91-11.01,19.18-16.33,28.45c-0.21-0.39-0.41-0.79-0.62-1.18c-0.12,0.08-0.28,0.14-0.34,0.25
			c-4.02,6.97-8.03,13.95-12.04,20.93c-2.75,3.79-5.5,7.58-8.25,11.37c-0.1-0.05-0.21-0.1-0.31-0.15c1.48-3.5,2.96-7.01,4.44-10.51
			C933.75,290.12,944.07,272.73,954.39,255.35z"/>
		<path class="st31" d="M855.53,381.77c16.18-7.99,29.11-19.88,40.44-33.69c1.03-1.25,2.32-2.28,3.49-3.42
			c0.09,0.38,0.17,0.76,0.26,1.14c-2.04,2.6-3.96,5.3-6.14,7.77c-10.77,12.2-22.12,23.69-37.99,29.29
			C855.57,382.5,855.55,382.13,855.53,381.77z"/>
		<path class="st32" d="M923.43,307.5c-1.48,3.5-2.96,7.01-4.44,10.51c0.1,0.05,0.21,0.1,0.31,0.15c2.75-3.79,5.5-7.58,8.25-11.37
			c-2.67,4.67-5.33,9.33-8,14c-1.66,1.34-3.33,2.67-4.99,4.01c-0.41-0.03-0.82-0.06-1.23-0.09
			C916.69,318.98,920.06,313.24,923.43,307.5z"/>
		<path class="st33" d="M855.53,381.77c0.02,0.37,0.04,0.73,0.06,1.1c-6.68,1.95-13.36,3.9-20.03,5.85
			c-5.61,0.4-11.22,0.79-16.84,1.19c2.26-0.53,4.51-1.09,6.77-1.59C835.5,386.13,845.51,383.95,855.53,381.77z"/>
		<path class="st34" d="M913.32,324.72c0.41,0.03,0.82,0.06,1.23,0.09c-4.95,7-9.89,13.99-14.84,20.99
			c-0.09-0.38-0.17-0.76-0.26-1.14C904.08,338.01,908.7,331.37,913.32,324.72z"/>
		<path class="st35" d="M1275.54,643.82c0.31,0.71,0.62,1.42,0.93,2.13c-2.25,2.5-4.46,5.02-6.74,7.48
			c-2.34,2.52-4.75,4.99-7.13,7.48c-0.03-0.37-0.05-0.74-0.08-1.12C1266.86,654.47,1271.2,649.14,1275.54,643.82z"/>
		<path class="st36" d="M1178.26,691.87c2.95,1.42,5.82,3.05,8.86,4.21c18.68,7.14,34.9,18.24,50.25,30.79
			c4.14,20.76,5.41,41.75,5.18,62.87c-6.35-1.63-12.7-3.26-19.05-4.89c-10.46-3.8-21-7.41-31.3-11.59c-1.95-0.79-3.87-3.7-4.27-5.9
			c-1.19-6.52-1.49-13.2-2.37-19.78c-1.19-8.96-2.6-17.89-3.92-26.83c-0.33-0.62-0.67-1.24-1-1.86c1.29-0.98,2.58-1.96,3.87-2.94
			c12.2,8.48,23.16,18.2,32.1,30.21c1.75,2.35,5.44,3.27,8.23,4.84c-3.5-12.97-24.75-31.62-40.3-37.07
			c-3.53-1.4-4.48-4.37-4.89-7.78c-0.18-1.5-0.73-2.95-1.12-4.42c-0.33-0.08-0.65-0.16-0.98-0.24c-0.59-2.53-1.17-5.06-1.76-7.59
			c0.18-0.69,0.35-1.38,0.53-2.07C1176.97,691.85,1177.62,691.86,1178.26,691.87z"/>
		<path class="st37" d="M1171.55,731.8c-2.39,2.58-4.85,5.1-7.16,7.75c-2.04,2.34-3.91,4.82-5.86,7.24
			c-3.3,2.72-6.42,6.84-11.38-0.56c0.24,2.68,0.3,3.43,0.44,4.93c-18.05-0.92-35.96-1.66-48.76-17.29
			c-8.92,8.09-17.6,15.95-26.27,23.8c-9.11,1.46-18.19,3.13-27.33,4.31c-7.19,0.92-14.45,1.23-21.68,1.81c-0.33-0.33-0.66-0.66-1-1
			c5.79-1.01,11.61-1.83,17.35-3.08c9.96-2.17,19.88-4.5,29.76-7.01c3.49-0.89,7.36-1.77,10.06-3.91c5.84-4.63,11.2-9.9,16.38-15.27
			c1.58-1.64,1.95-4.46,2.88-6.74c1.5-2.67,3-5.33,4.5-8c0.87-2.33,1.74-4.67,2.6-7c1.15-2,2.3-4,3.44-5.99
			c0.69-1.32,1.38-2.65,2.07-3.97c0.65-1.68,1.3-3.36,1.95-5.03c1.33-2.33,2.66-4.65,3.99-6.98c0.29,10.6-0.74,20.9-6.99,29.97
			c-2.62,4.38-5.24,8.76-8.15,13.65c1.94,1.42,3.62,3.05,5.62,4.04c11.93,5.91,24.92,7.79,37.93,9.22
			c6.02,0.66,10.79-2.26,14.37-7.31c2.85-4.03,6.14-7.74,9.24-11.59C1170.21,729.14,1170.88,730.47,1171.55,731.8z"/>
		<path class="st38" d="M1181.64,720.76c1.32,8.94,2.72,17.87,3.92,26.83c0.88,6.59,1.18,13.26,2.37,19.78
			c0.4,2.21,2.32,5.11,4.27,5.9c10.31,4.18,20.84,7.78,31.3,11.59c4.19,1.42,8.28,3.35,12.58,4.13c5.15,0.94,7.07,3.55,6.5,8.48
			c-1.9-0.03-3.93,0.37-5.67-0.17c-7.81-2.42-15.53-5.1-23.28-7.69c-8.47-4.76-16.97-9.45-25.37-14.32
			c-2.08-1.2-3.82-2.97-5.72-4.48c-1.05-8.99-2.46-17.95-3.05-26.97c-0.5-7.69-0.06-15.43-0.04-23.15l-0.02,0.02
			C1180.16,720.72,1180.9,720.74,1181.64,720.76z"/>
		<path class="st39" d="M1184.54,713.94c15.55,5.45,36.79,24.1,40.3,37.07c-2.79-1.58-6.48-2.49-8.23-4.84
			c-8.95-12-19.9-21.73-32.1-30.21C1184.52,715.28,1184.53,714.61,1184.54,713.94z"/>
		<path class="st10" d="M1169.54,727.8c-3.1,3.85-6.39,7.56-9.24,11.59c-3.57,5.05-8.35,7.97-14.37,7.31
			c-13.01-1.42-26-3.3-37.93-9.22c-2-0.99-3.68-2.62-5.62-4.04c2.92-4.88,5.54-9.26,8.15-13.65c0.02,0.69,0.03,1.38,0.05,2.07
			c-2.01,3.74-4.02,7.49-6,11.18c4.43,4.47,22.67,10.56,31.46,10.58c1.82,0.23,3.66,0.32,5.44,0.71c7.46,1.67,13.27-0.5,17.81-6.8
			c7.98-11.08,16.68-21.75,18.27-36.06c0.33,0.08,0.65,0.16,0.98,0.25c1.01,6.83-2.77,12.24-5.35,18.01
			C1171.99,722.44,1170.76,725.12,1169.54,727.8z"/>
		<path class="st40" d="M1213.63,789.61c7.75,2.59,15.48,5.27,23.28,7.69c1.74,0.54,3.77,0.14,5.67,0.17
			c-0.01-2.57-0.02-5.15-0.02-7.72c0.23-21.12-1.04-42.11-5.18-62.87c1.04,2.52,2.81,4.99,3,7.57c1.55,21.44,2.81,42.9,4.16,64.36
			c-1.1,0.33-2.29,1.13-3.28,0.93C1231.55,797.76,1221.87,795.6,1213.63,789.61z"/>
		<path class="st41" d="M1179.44,720.68c-0.02,7.72-0.46,15.47,0.04,23.15c0.59,9.02,2,17.98,3.05,26.97
			c-0.9-1.67-2.41-3.27-2.59-5.01c-1.28-11.87-2.53-23.75-3.2-35.66C1176.57,727.04,1178.49,723.83,1179.44,720.68z"/>
		<path class="st41" d="M1181.64,720.76c-0.74-0.02-1.48-0.04-2.21-0.06c0.4-0.6,0.81-1.2,1.21-1.8
			C1180.97,719.52,1181.3,720.14,1181.64,720.76z"/>
		<path class="st36" d="M835.44,418.01c2.33,1.29,4.65,2.58,6.98,3.88c0.66,0.45,1.32,0.89,1.65,1.12c-3.1,2.47-5.83,4.64-8.56,6.81
			l0.05-0.05c-2.36,1.19-4.73,2.39-7.09,3.58c-0.94,0.66-1.96,1.24-2.82,2c-8.52,7.64-8.6,11-0.44,18.78
			c9.04,8.62,20.1,13.87,31.39,18.73c2.11,1.57,1.61,2.69-0.09,4.52c-2.31,2.48-3.98,5.56-5.93,8.38
			c-5.15,9.81-4.77,11.23,4.75,17.54c0.97,0.64,1.9,1.42,2.97,1.83c8.64,3.37,17.23,6.92,26,9.93c6.99,2.4,7.09,2.1,6.27,9.17
			c-0.19,1.65-0.34,3.3-0.63,4.93c-0.89,5.13,0.23,9.42,5.47,11.42c5.25,2,10.66,3.57,16,5.32c5.68,4.64,11.35,9.29,17.02,13.93
			c11,7.75,21.99,15.49,32.99,23.24c3.72,2.76,7.32,5.7,11.18,8.23c8.57,5.62,17.27,11.03,25.92,16.53c0.81,0.57,1.56,1.26,2.43,1.7
			c20.34,10.11,40.54,20.55,61.11,30.17c14.87,6.95,30.24,12.82,45.39,19.16c0.82,0.52,1.6,1.4,2.47,1.49
			c4.98,0.55,6.22,3.53,5.62,7.97c-0.18,1.3-0.03,2.64-0.13,3.96c-0.69,9.2-0.7,9.2-9.88,9.47c-10.7,0.12-21.41,0.36-32.11,0.29
			c-3.68-0.02-7.45-0.43-10.99-1.37c-4.73-1.25-9.27-3.19-13.89-4.84c-1.94-0.7-3.88-1.4-5.83-2.1
			c-7.37-3.64-14.74-7.27-22.11-10.91c-1.01-1.16-1.79-2.83-3.06-3.38c-6.25-2.73-12.62-5.17-18.95-7.71
			c-5.35-2.93-10.69-5.86-16.04-8.79c-5.01-2.67-10.02-5.35-15.03-8.02c-4.31-2.06-8.62-4.12-12.93-6.18
			c-3.68-1.98-7.37-3.96-11.05-5.94c-5.32-3.37-10.64-6.74-15.95-10.12c-6.65-4.38-13.3-8.75-19.96-13.13
			c-7.99-6.6-15.98-13.21-23.97-19.81c-6.43-6.47-12.91-12.9-19.28-19.43c-28.13-28.83-49.4-62.1-63.8-99.69
			c-2.94-7.67-4.61-15.82-6.86-23.75c11.27-5.71,22.54-11.42,33.81-17.12c1.77-0.69,3.54-1.37,5.31-2.06
			C833.72,417.8,834.58,417.9,835.44,418.01z"/>
		<path class="st36" d="M1109.52,705.8c-1.15,2-2.3,4-3.44,5.99c-0.73,0.36-1.62,0.55-2.16,1.09c-7.4,7.35-15.21,14.35-21.98,22.24
			c-5.96,6.95-13.12,9.26-21.79,9.59c-23.21,0.87-46.4,2.05-69.6,3.13c-1.32,0.06-2.62,0.34-3.93,0.51c0.03-0.5,0.06-1.01,0.08-1.51
			c5.32-9.14,10.66-18.26,15.96-27.41c2.38-4.11,4.68-8.26,7.02-12.39c10.49-13.42,26.26-14.23,41.12-17.25
			c1.71-0.35,3.32-1.22,4.98-1.84c4.92-0.36,9.85-0.71,14.77-1.07c14.19,0,28.38,0,43.14,0c-0.57,3.02-1.34,6.2-1.74,9.42
			c-0.43,3.43-1.96,4.39-5.53,4.61c-7.03,0.44-14.01,1.84-21.01,2.84c-10.49,0.85-19.78,5.01-28.53,10.53
			c-1.14,0.72-1.78,2.23-2.65,3.38c-2.77,2.86-3.87,5.89-1.03,9.36c0.97,1.75,1.82,2.79,3.4,0.33c1.11-1.73,2.5-3.54,4.22-4.58
			c4.22-2.55,8.66-4.76,13.09-6.93c6.91-3.38,13.89-6.62,20.84-9.91c1.31-0.31,2.63-0.62,3.94-0.93
			C1102.31,705.27,1105.91,705.54,1109.52,705.8z"/>
		<path class="st42" d="M1048.55,675.83c4.62,1.64,9.17,3.58,13.89,4.84c3.54,0.94,7.32,1.35,10.99,1.37
			c10.7,0.07,21.41-0.17,32.11-0.29c2.39,4.66,5.82-0.38,8.68,0.76c0.25,0.1,2.11-2.31,2.2-3.62c0.29-4.28,0.11-8.6,0.11-12.9
			c0.34,0.01,0.68,0.01,1.02,0.02c0,7.93,0,15.85,0,23.78l-0.03,0.03c-1.33,2.33-2.66,4.65-3.99,6.98c0.33-2.09,0.52-4.21,1.02-6.26
			c1.03-4.19-0.09-6.15-4.79-5.81c-4.41,0.32-8.86,0.03-13.3,0.01c1.31-0.48,2.62-0.96,3.03-1.11c-8.05,0-16.99,0.08-25.93-0.04
			c-3.26-0.04-6.73,0.08-9.73-0.96C1058.59,680.8,1053.63,678.14,1048.55,675.83z"/>
		<path class="st43" d="M952.48,638.06c0.69-1.41,1.37-2.82,2.06-4.24c5.34,2.32,10.68,4.64,16.02,6.97
			c2.33,1.06,4.66,2.12,6.98,3.18c-0.64,0.46-1.29,0.91-1.16,0.82c1.27,2.39,2.22,4.17,3.17,5.95
			C970.53,646.51,961.51,642.29,952.48,638.06z"/>
		<path class="st44" d="M1096.47,684.74c4.43,0.02,8.89,0.3,13.3-0.01c4.71-0.34,5.82,1.62,4.79,5.81c-0.5,2.05-0.69,4.17-1.02,6.26
			c-0.65,1.68-1.3,3.36-1.95,5.03c-4.7,0.34-9.4,0.68-14.11,1.03c-2.95,0.34-5.9,0.69-8.86,1.03c-1.07-0.05-2.14-0.09-3.2-0.14
			c7-1,13.97-2.4,21.01-2.84c3.56-0.22,5.1-1.18,5.53-4.61c0.4-3.23,1.17-6.41,1.74-9.42c-14.76,0-28.95,0-43.14,0
			c5.81-0.69,11.62-1.49,17.45-2.04C1090.8,684.57,1093.65,684.75,1096.47,684.74z"/>
		<path class="st43" d="M1025.5,670.99c-8.66-3.39-17.33-6.78-25.99-10.17c-5.01-2.63-10.01-5.26-15.02-7.89
			c4.1,1.58,8.25,3.04,12.28,4.77c8.38,3.6,16.7,7.33,25.01,11.06C1023.1,669.35,1024.27,670.24,1025.5,670.99z"/>
		<path class="st43" d="M1020.61,662.82c7.37,3.64,14.74,7.27,22.11,10.91c-10.02-4.29-20.07-8.52-30.04-12.91
			c-2.49-1.1-4.76-2.7-7.13-4.07C1010.57,658.78,1015.59,660.8,1020.61,662.82z"/>
		<path class="st45" d="M1020.61,662.82c-5.02-2.02-10.04-4.05-15.06-6.07c-2.32-1.15-4.63-2.29-6.95-3.44c0-0.53,0-1.05,0-1.58
			c6.33,2.54,12.7,4.97,18.95,7.71C1018.82,660,1019.6,661.67,1020.61,662.82z"/>
		<path class="st46" d="M998.59,651.73c0,0.53,0,1.05,0,1.58c-5.36-2.47-10.72-4.93-16.09-7.39c0.02-0.99,0.03-1.98,0.05-2.98
			C987.9,645.87,993.25,648.8,998.59,651.73z"/>
		<path class="st47" d="M982.56,642.94c-0.02,0.99-0.03,1.98-0.05,2.98c-1.65-0.65-3.3-1.3-4.96-1.95
			c-2.33-1.06-4.66-2.12-6.98-3.18c-1.37-1.3-2.74-2.59-4.12-3.89c0.36-0.66,0.72-1.32,1.07-1.98
			C972.54,637.6,977.55,640.27,982.56,642.94z"/>
		<path class="st36" d="M1178.26,691.87c-0.65-0.01-1.29-0.02-1.94-0.04c-0.09-0.32-0.18-0.64-0.27-0.96
			c-1.43-5.14-3.04-10.25-4.17-15.46c-0.37-1.69,0.55-3.66,0.87-5.51c11.16-6.82,21.25-14.92,29.82-24.85
			c6.65-1.48,12.87-3.52,15.02-11.09c1.78-5.11,3.57-10.21,5.46-15.64c5.82,1.42,13.05,4.49,18.28-3.19
			c3.92-5.77,3.9-16.5,0.3-21.58c0.08-1.16,0.17-2.33,0.29-3.96c1.51,0.95,2.54,1.6,3.57,2.25c5.04,5.06,11.37,5.26,17.81,4.44
			c1.87-0.24,3.61-1.53,5.41-2.34c0.89,0.39,1.79,0.77,2.68,1.16c0.74,3.42,1.48,6.85,2.22,10.27c-2.98,8.16-5.97,16.31-8.95,24.47
			c-10.99,19.62-28.99,31.6-47.11,43.55c-7.07,4.66-13.57,10.17-20.34,15.29c-1.6,1.33-3.2,2.66-4.8,3.99
			c-3.14-0.47-6.28-1.09-9.44-1.36C1181.45,691.17,1179.85,691.67,1178.26,691.87z"/>
		<path class="st48" d="M1264.69,629.84c2.98-8.16,5.97-16.31,8.95-24.47c3.61,5.03,2.85,10.77,2.71,16.42
			c-0.57,0.5-1.39,0.89-1.67,1.52c-2.54,5.67-4.81,11.47-7.52,17.05c-1.47,3.03-3.65,5.71-5.51,8.55
			c-3.38,3.97-6.76,7.93-10.13,11.9c-2.03,2.59-4.05,5.17-6.08,7.76c-2.03,1.27-4.17,2.4-6.08,3.83c-3.66,2.72-7.2,5.6-10.79,8.42
			c-5.36,4.32-10.71,8.64-16.07,12.95c-3.31,1.41-6.63,2.82-9.94,4.23c-3.36-1.77-6.73-3.55-10.09-5.32c1.6-1.33,3.2-2.66,4.8-3.99
			c1.62-0.16,3.64,0.26,4.79-0.56c10.51-7.52,20.59-15.67,31.35-22.79c9.17-6.06,16.67-13.75,23.72-21.87
			C1260.45,639.63,1262.21,634.42,1264.69,629.84z"/>
		<path class="st7" d="M986.7,746.85c-0.03,0.5-0.06,1.01-0.09,1.52c-1.26,2.4-2.52,4.8-3.98,7.57c1.7,0.3,2.49,0.51,3.29,0.58
			c28.6,2.5,56.92,0.41,84.99-5.4c2.04-0.42,3.96-1.45,5.94-2.2c8.68-6.07,16.45-13.05,22.13-22.12c-0.92,2.28-1.29,5.09-2.88,6.74
			c-5.18,5.37-10.55,10.65-16.38,15.27c-2.7,2.14-6.57,3.02-10.06,3.91c-9.88,2.51-19.8,4.84-29.76,7.01
			c-5.73,1.25-11.56,2.07-17.35,3.08c-0.66-0.06-1.88-0.09-1.88-0.19c-0.24-4.18-3.39-2.95-5.76-3.18
			c-1.61-0.16-3.22-0.53-4.83-0.55c-9.18-0.07-18.35-0.06-27.53-0.08c-0.55-0.87-1.79-2.12-1.55-2.56
			C982.73,753.02,984.76,749.96,986.7,746.85z"/>
		<path class="st8" d="M982.54,758.81c9.18,0.02,18.35,0.01,27.53,0.08c1.61,0.01,3.22,0.39,4.83,0.55c2.37,0.23,5.53-1,5.76,3.18
			c0.01,0.1,1.23,0.13,1.88,0.19c0.33,0.33,0.66,0.66,1,1c-4.34,0.28-8.69,0.94-13.01,0.77c-10.34-0.39-20.66-1.17-30.99-1.79
			C980.54,761.46,981.54,760.13,982.54,758.81z"/>
		<path class="st43" d="M1228.55,680.8c3.59-2.82,7.13-5.7,10.79-8.42c1.92-1.42,4.05-2.56,6.08-3.83c0.38,0.75,0.75,1.5,1.13,2.25
			c-1.94,2.48-3.64,5.19-5.86,7.37c-2.83,2.77-6.08,5.1-9.14,7.62c-6.85,4.26-13.7,8.52-20.55,12.78c-0.3-0.46-0.59-0.93-0.89-1.39
			c1.15-1.06,2.3-2.12,3.45-3.19C1218.55,689.6,1223.55,685.2,1228.55,680.8z"/>
		<path class="st49" d="M1228.55,680.8c-5,4.4-9.99,8.8-14.99,13.2c-0.36-0.08-0.72-0.16-1.08-0.25
			C1217.84,689.44,1223.19,685.12,1228.55,680.8z"/>
		<path class="st50" d="M1246.55,670.81c-0.38-0.75-0.75-1.5-1.13-2.25c2.03-2.59,4.05-5.17,6.08-7.76
			c5.01-5.34,10.03-10.68,15.04-16.03c1.95-2.75,3.9-5.51,5.85-8.26c1.05,2.44,2.1,4.87,3.15,7.31
			c-4.34,5.33-8.68,10.65-13.02,15.97c-3.56,3.07-7,6.3-10.73,9.14C1250.39,670.01,1248.32,670.21,1246.55,670.81z"/>
		<path class="st51" d="M838.66,546.56c13.83,12.44,27.67,24.88,41.47,37.35c0.44,0.39,0.54,1.16,0.8,1.75
			c-5.37-4.03-10.8-7.98-16.1-12.1c-4.46-3.47-9.08-6.82-13.08-10.78c-4.73-4.68-8.88-9.95-13.28-14.97
			C838.54,547.39,838.6,546.98,838.66,546.56z"/>
		<path class="st52" d="M907.64,599.56c6.65,4.38,13.3,8.75,19.96,13.13c-0.27,0.58-0.67,1.69-0.78,1.66
			c-1.51-0.39-2.97-0.94-4.44-1.45c-1.58-0.87-3.18-1.73-4.75-2.62c-3.99-2.26-7.98-4.53-11.96-6.8c-1.36-1.26-2.72-2.53-4.07-3.79
			c0.34-0.32,0.67-0.63,1.01-0.95c2.61,1.63,5.23,3.27,7.84,4.9c0.16-0.18,0.32-0.35,0.48-0.53
			C909.82,601.93,908.73,600.75,907.64,599.56z"/>
		<path class="st53" d="M922.38,612.9c1.47,0.51,2.94,1.06,4.44,1.45c0.11,0.03,0.51-1.08,0.78-1.66
			c5.32,3.37,10.64,6.74,15.96,10.12c-1.25,0.33-2.5,0.66-3.75,0.99c-4-1.7-7.99-3.4-11.99-5.09
			C926,616.77,924.19,614.83,922.38,612.9z"/>
		<path class="st54" d="M902.6,598.75c-0.34,0.32-0.67,0.63-1.01,0.95c-6.64-4.65-13.27-9.3-19.91-13.95
			c1.05-0.04,2.41-0.54,3.09-0.05C890.79,589.94,896.67,594.37,902.6,598.75z"/>
		<path class="st55" d="M966.45,636.91c1.37,1.3,2.74,2.59,4.12,3.89c-5.34-2.32-10.68-4.64-16.02-6.97
			c-2.01-1.31-4.02-2.63-6.03-3.94c1.29,0.01,2.57,0.01,3.86,0.02C957.06,632.23,961.76,634.57,966.45,636.91z"/>
		<path class="st56" d="M952.37,629.9c-1.29-0.01-2.57-0.01-3.86-0.02c-2.9-2.03-5.81-4.06-8.71-6.09c1.25-0.33,2.5-0.66,3.75-0.99
			c3.68,1.98,7.37,3.96,11.05,5.94C953.86,629.13,953.11,629.52,952.37,629.9z"/>
		<path class="st57" d="M922.38,612.9c1.81,1.94,3.62,3.87,5.44,5.81c-7.38-5.07-14.76-10.15-22.15-15.22
			c3.99,2.27,7.97,4.54,11.96,6.8C919.2,611.17,920.79,612.03,922.38,612.9z"/>
		<path class="st17" d="M782.66,443.54c0.91,2.39,2.06,4.73,2.69,7.19c1.27,4.97,2.26,10.02,3.37,15.03
			C786.7,458.36,784.68,450.95,782.66,443.54z"/>
		<path class="st58" d="M1272.39,636.51c-1.95,2.75-3.9,5.51-5.85,8.26c-1.64,1.38-3.27,2.75-4.91,4.13
			c1.86-2.84,4.04-5.52,5.51-8.55c2.71-5.58,4.98-11.38,7.52-17.05c0.28-0.63,1.1-1.02,1.67-1.52c-1.25,4.67-2.49,9.35-3.74,14.02
			C1272.4,636,1272.33,636.24,1272.39,636.51z"/>
		<path class="st59" d="M1088.67,179.52c-13.27-13.35-26.97-26.3-39.66-40.18c-10.06-11-19.17-22.93-28.09-34.9
			c-2.54-3.4-2.95-8.39-4.33-12.65c0.07-14.76,4.67-28.28,11.19-41.31c2.01-4.01,4.97-6.34,9.26-7.51
			c3.96-1.08,7.77-2.69,11.65-4.07c8.75-0.66,17.52-2.06,26.23-1.77c7.55,0.25,15.03,2.41,22.54,3.73c3.08,1.26,6.16,2.52,9.23,3.78
			c-16.36,2.29-32.58,5.61-46.66,14.57c-27.47,17.48-26.18,38.13-11.52,61.81c1.37,1.68,2.74,3.36,4.11,5.04l-0.01,0.17
			c2.39,8.6,8.56,14.32,15.04,19.8c0.33,0.78,0.65,1.56,0.98,2.33c8.42,11.79,19.19,21.12,30.87,29.49
			c5.4,4.11,10.8,8.23,16.24,12.3c0.16,0.12,0.77-0.37,1.17-0.58c3.91,2.28,7.82,4.55,11.73,6.83c1.36,1.34,2.5,3.06,4.11,3.95
			c27.29,15.21,55.23,29.36,81.81,45.71c29.96,18.43,58.71,38.82,87.98,58.38c2.41,1.61,3.4,3.52,2.49,6.76
			c-2.58,9.1-4.76,18.31-6.96,27.51c-3.58,15-7.05,30.02-10.57,45.04c-1.99,6.9-4.08,13.77-5.92,20.72
			c-0.45,1.72-0.07,3.66-0.06,5.5c-0.72,1.23-1.44,2.47-2.16,3.7c-12.19,15.83-19.74,33.84-24.88,52.99
			c-2.53,9.22-5.59,18.34-7.4,27.71c-1.16,6-0.47,12.36-0.6,18.56c-0.14,3.65,0.48,6.77,5.03,7.11c-0.68,1.95-1.85,3.88-1.96,5.86
			c-0.65,12.36,2.28,23.96,7.96,34.91c-0.34,1.29-0.67,2.57-1.01,3.86c-9.53,3.06-17.94-0.38-26.12-4.68
			c-4.12-2.17-8-4.79-12.13-7.29c-0.74,7.13-0.9,13.47-2.18,19.58c-1.32,6.29-3.62,12.38-5.71,18.49c-1.06,3.09-2.59,6.02-3.91,9.02
			c-0.89,1.17-1.84,2.29-2.67,3.51c-5.19,7.69-11.06,14.62-20.28,17.65c-7.39,2.43-13.8,0.37-18.43-5.91
			c-1.91-2.59-3.64-5.32-5.78-8.48c-1.21,2.32-2.03,4.12-3.05,5.8c-5.02,8.25-9.85,16.88-18.96,21.27
			c-11.88,5.74-23.6,3.95-34.82-2.3c-11.75-6.54-19.46-16.98-26.12-28.19c-4.21-7.08-7.61-14.65-11.47-22.19
			c-3.97,2.97-7.76,6.14-11.88,8.83c-22.05,14.4-46.76,9.58-62.43-7.95c-14.93-16.71-20.92-37.02-18.06-59.57
			c0.47-3.7,1.03-7.39,1.57-11.19c-0.89,0-1.42-0.13-1.86,0.02c-17.36,6.07-34.61,5.37-51.61-1.19
			c-13.49-5.2-18.22-17.95-16.48-27.26c1.42-7.6,5.41-14.83,8.95-21.87c2.52-5.02,6.19-9.47,9.89-14.99
			c-2.27,0.26-3.38,0.38-4.49,0.51c-11.39,1.27-22.4,0.26-33.25-3.97c-6.82-2.66-8.86-7.43-8.63-13.87
			c0.59-17.14,2.68-33.82,15.92-46.66c8.23-9.51,17.1-18.56,24.49-28.69c5.42-7.43,8.63-16.43,13.3-24.45
			c12.37-21.22,25.11-42.22,37.48-63.43c8.77-15.05,17.18-30.31,25.76-45.47c1.67-3.7,3.34-7.39,5-11.09
			c-0.07-0.3-0.11-0.6-0.11-0.91c0.98-1.05,1.99-2.09,2.95-3.17c9.39-10.47,18.9-20.95,34.33-21.55c8.42-0.33,16.87,0.2,25.3,0.35
			c1.38,0.03,2.76,0.12,4.14,0.18c0.13-0.36,0.26-0.72,0.39-1.09c-0.97-0.63-1.94-1.26-2.91-1.89
			c-12.63-6.98-25.12-14.21-37.91-20.88c-31.65-16.49-65.86-23.86-101.04-27.46c-3.77-0.39-5.95-1.96-7.89-5
			c-11.52-18.1-15.92-37.9-14.25-59.12c0.15-1.91,1.22-4.72,2.66-5.39c12.04-5.58,24.26-10.75,36.43-16.05
			c-3.03,5.43-7.18,10.54-8.85,16.36c-3.4,11.83-0.47,23.49,4.69,34.27c2.89,6.02,6.59,12.13,11.38,16.64
			c5.35,5.02,12.34,8.3,18.64,12.3c17.77,11.27,37.12,19.01,57.01,25.55c11.85,5.89,23.69,11.82,35.59,17.61
			c1.1,0.53,2.61,0.23,3.92,0.31c10.9,4.46,19.56,13.27,30.78,17.1c0.4-0.58,0.81-1.16,1.21-1.74
			C1092.91,183.25,1090.79,181.39,1088.67,179.52z M1130.71,377.11c1.64-2.22,3.85-4.22,4.79-6.7c2.05-5.41,3.46-11.06,5.13-16.61
			c1.93-9.69-0.67-18.49-5.49-26.75c-7.71-13.19-23.8-20.07-37.62-16.3c-14.76,2.26-27.65,14.97-31.11,30.69
			c-2.79,7.62-2.79,15.24,0.01,22.86c1.93,8.68,6.63,15.49,13.84,20.61c7.57,6.09,16.41,6.76,25.56,5.88
			c0.67-0.06,1.23-1.27,1.84-1.94c2.18-0.36,4.37-0.72,6.55-1.08C1121.85,387.51,1126.33,382.37,1130.71,377.11z M1104.42,446.05
			c-0.02,0.26-0.06,0.51-0.13,0.77c-0.15-0.12-0.32-0.14-0.51-0.08c-1.08,1.28-2.68,2.4-3.15,3.88c-1.28,3.99-2.08,8.13-3.07,12.21
			c-0.34,1.65-0.67,3.3-1.01,4.95c-2.22,8.99-3.22,18.03-1.09,27.2c0.99,4,1.51,8.19,3.06,11.95c4.03,9.8,9.73,18.36,19.84,23
			c7.15,3.37,13.91,2.75,20.25-2.01c3.29-1.92,6.57-3.83,10.71-6.25c-1.06,9.72-2.01,18.49-3.07,28.32
			c2.47-1.02,3.87-1.61,5.28-2.19c21.25-10.84,41.62-23.05,59.64-38.83c2.08-1.83,4.2-4.04,5.28-6.52
			c6.36-14.55,12.41-29.23,18.6-43.85c1.19-2.81,0.79-4.88-1.77-6.93c-8.58-6.86-16.8-14.16-25.49-20.85
			c-5.36-4.12-11.33-7.44-17.03-11.12c-5.33-2.67-10.65-5.34-15.98-8.01c-19.59-4.46-38.54-1.86-57.05,5.29
			c-0.52,0.2-0.72,1.2-1.08,1.83c-0.99,2-1.98,4.01-2.97,6.01c-0.17,0.24-0.25,0.51-0.25,0.8c-6.37,4.41-7.29,11.97-10.43,18.24
			C1102.8,444.26,1103.91,445.31,1104.42,446.05z M942.5,345.69c-0.88,1.58-1.97,3.08-2.62,4.75c-5.76,14.87-7.48,30.22-4.13,45.82
			c4.62,21.56,15.52,38.82,36.26,48.21c13.15,5.95,26.59,6.31,39.73-0.57c18.84-7.97,29.65-22.63,34.89-41.92
			c5.15-14.33,5.45-28.76,0.99-43.31c-1.07-3.63-1.78-7.42-3.27-10.87c-4.74-10.94-11.16-20.63-21.59-27.07
			c-13.42-11.59-36.49-14.42-53.32-3.97C956.62,322.84,948.16,332.96,942.5,345.69z M1076.62,291.42c2.28,7.82,2.95,8.31,9.85,7.96
			c17.6-0.9,35.2-1.74,52.79-2.71c6.72-0.37,13.42-1.03,20.14-1.56c-0.94-8.2-1.21-8.71-8.42-8.37c-21.9,1.02-43.8,2.24-65.69,3.46
			C1082.41,290.36,1079.57,290.99,1076.62,291.42z M1286.69,348.22c-11.51-12.83-22.87-25.6-34.36-38.24
			c-4.4-4.84-7.09-4.51-11.62,1.08c0.56,0.73,1.1,1.55,1.75,2.27c10.73,12.02,21.46,24.03,32.22,36.02
			C1279.65,354.89,1280.92,354.8,1286.69,348.22z M1243.28,383.07c3.46,7.4,6.5,14.21,9.87,20.86c0.66,1.31,2.59,1.98,3.93,2.94
			c0.47-1.76,1.81-3.85,1.28-5.21c-3.5-8.97-7.29-17.84-11.33-26.58c-0.49-1.07-3.48-2.08-4.64-1.57
			c-9.9,4.33-19.66,8.97-29.42,13.62c-3.64,1.73-3.43,4.65-0.74,6.65c1.55,1.15,4.7,1.49,6.51,0.73
			C1226.83,391.08,1234.69,387.13,1243.28,383.07z"/>
		<path class="st25" d="M1287.51,383.77c3.52-15.01,6.99-30.04,10.57-45.04c2.2-9.2,4.38-18.42,6.96-27.51
			c0.92-3.24-0.08-5.15-2.49-6.76c-29.26-19.56-58.02-39.95-87.98-58.38c-26.58-16.35-54.52-30.5-81.81-45.71
			c-1.6-0.89-2.75-2.62-4.11-3.95c10.89,4.62,22.04,8.71,32.62,13.94c49.8,24.63,97.46,52.97,143.64,83.81
			c1.39,0.93,2.72,1.95,4.17,2.75c3.69,2.03,4.31,4.95,3.28,8.87c-7.26,27.55-14.39,55.13-21.59,82.69
			c-1.35,5.15-2.84,10.26-4.26,15.38c-1.08,0.85-2.17,1.7-3.93,3.07C1284.37,398.55,1285.94,391.16,1287.51,383.77z"/>
		<path class="st60" d="M1048.52,121.03c-14.66-23.68-15.95-44.33,11.52-61.81c14.08-8.96,30.3-12.28,46.66-14.57
			c1.75,0.5,3.5,1,6.28,1.8c-2.63,1.1-4.07,1.71-5.51,2.31c-14.83,3.13-27.75,10.72-41.02,17.51c-1.61,0.83-3.19,1.74-4.78,2.61
			c-4.2,2.96-9.94,5.02-12.3,9.05c-5.26,8.98-6.84,19.19-4.11,29.66C1046.43,112.05,1047.44,116.55,1048.52,121.03z"/>
		<path class="st61" d="M1266.54,497.8c-2.95,10.71-6.48,21.31-8.58,32.18c-0.92,4.74,1.01,10.06,1.83,15.08
			c0.31,1.89,1.17,3.7,1.29,5.67c-3.76-7.04-6.81-14.25-5.17-22.6c0.35-1.77,0.42-3.59,0.61-5.39c-0.32-1.25-0.65-2.5-0.97-3.76
			c0.3-0.41,0.6-0.82,0.9-1.23c2.42-8.98,4.84-17.95,7.25-26.93l-0.01,0.11c0.64-1.86,1.39-3.7,1.9-5.59
			c4.29-15.86,8.54-31.72,12.8-47.59c2.71-9.12,5.43-18.24,8.14-27.36c0.52-1.76,1.01-3.53,1.51-5.3c0.43,0.11,0.86,0.23,1.29,0.34
			c-0.44,2.48-0.71,5-1.36,7.42c-3.88,14.53-7.91,29.02-11.77,43.56c-3.01,11.32-5.9,22.67-8.72,34.03
			C1266.91,492.84,1266.85,495.35,1266.54,497.8z"/>
		<path class="st62" d="M1278.4,437.77c-4.26,15.86-8.51,31.73-12.8,47.59c-0.51,1.9-1.26,3.73-1.9,5.59
			c0.15-1.8,0.05-3.67,0.49-5.39c6.73-25.94,13.54-51.86,20.33-77.79c0.4-0.3,0.79-0.6,1.19-0.89c-2.18,8.84-4.37,17.67-6.52,26.52
			C1278.83,434.83,1278.66,436.31,1278.4,437.77z"/>
		<path class="st63" d="M1099.51,177.87c-11.68-8.37-22.45-17.7-30.87-29.49c1.57,1.11,3.27,2.06,4.68,3.34
			c8.45,7.66,16.83,15.38,25.23,23.09C1098.87,175.83,1099.19,176.85,1099.51,177.87z"/>
		<path class="st64" d="M1048.52,121.03c-1.08-4.48-2.09-8.97-3.25-13.43c-2.73-10.47-1.15-20.68,4.11-29.66
			c2.36-4.04,8.1-6.1,12.3-9.05c-7.64,4.58-13.16,10.49-15.15,19.73c-2.43,11.34,0.02,21.68,4.4,31.92
			c0.75,1.76,1.15,3.68,1.71,5.53C1051.26,124.39,1049.89,122.71,1048.52,121.03z"/>
		<path class="st65" d="M1099.51,177.87c-0.32-1.02-0.64-2.04-0.95-3.06c6.12,4.93,12.24,9.85,18.37,14.78
			c-0.4,0.21-1.01,0.7-1.17,0.58C1110.31,186.1,1104.91,181.98,1099.51,177.87z"/>
		<path class="st64" d="M1067.66,146.04c-6.49-5.48-12.65-11.21-15.04-19.8c0.92,0.85,2,1.59,2.72,2.58
			C1059.49,134.53,1063.56,140.3,1067.66,146.04z"/>
		<path class="st66" d="M1285.7,406.87c-0.4,0.3-0.79,0.6-1.19,0.89c-0.99,0.74-1.99,1.49-2.98,2.23c0-1.84-0.39-3.78,0.07-5.5
			c1.83-6.94,3.92-13.82,5.92-20.72c-1.57,7.39-3.14,14.78-4.92,23.16c1.76-1.38,2.84-2.23,3.93-3.07
			C1286.25,404.86,1285.97,405.87,1285.7,406.87z"/>
		<path class="st67" d="M1107.47,48.76c1.44-0.61,2.89-1.21,5.51-2.31c-2.78-0.8-4.53-1.3-6.28-1.8c-3.08-1.26-6.16-2.52-9.23-3.78
			c0.71-0.06,1.42-0.12,2.13-0.18c5.76,1.78,11.51,3.56,17.97,5.55c-1.72,1.09-2.88,1.83-4.04,2.56
			C1111.51,48.78,1109.49,48.77,1107.47,48.76z"/>
		<path class="st25" d="M993.56,219.76c-8.57,15.16-16.98,30.42-25.76,45.47c-12.37,21.22-25.12,42.21-37.48,63.43
			c-4.68,8.02-7.88,17.03-13.3,24.45c-7.39,10.13-16.26,19.17-24.49,28.69c-1.71,1.22-3.61,2.24-5.1,3.69
			c-10.92,10.6-24.41,14.07-39.09,14.29c-1.93,0.03-3.97-0.07-2.8-3.02c4.36-3.29,8.72-6.59,13.07-9.88
			c9.43-5.54,19.37-10.39,28.16-16.8c13.64-9.94,23.6-23.37,31.92-38c1.21-1.25,2.71-2.32,3.58-3.77
			c9.1-15.13,18.13-30.3,27.09-45.51c5.47-9.29,10.78-18.67,16.17-28.01c3.44-5.28,6.89-10.56,10.33-15.83
			c1.24-0.73,2.87-1.17,3.65-2.23c3.89-5.38,7.51-10.95,11.37-16.35C991.28,219.82,992.64,219.95,993.56,219.76z"/>
		<path class="st60" d="M1023.53,151.84c-19.89-6.54-39.24-14.28-57.01-25.55c-6.3-4-13.3-7.28-18.64-12.3
			c-4.8-4.51-8.5-10.62-11.38-16.64c-5.16-10.78-8.09-22.44-4.69-34.27c1.67-5.82,5.82-10.93,8.85-16.36
			c2.32-0.92,4.64-1.84,6.97-2.76c0.79,0.12,1.59,0.24,2.73,0.4c-1.07,1.18-1.94,2.14-2.81,3.11c-11.93,13.2-12.9,36.7-2.03,49.4
			c8.36,12.79,19.41,22.66,32.7,30.09c8.59,4.28,17.17,8.6,25.78,12.84c6.84,3.36,13.73,6.61,20.59,9.92
			C1024.23,150.42,1023.88,151.13,1023.53,151.84z"/>
		<path class="st68" d="M965.53,254.8c-5.38,9.34-10.69,18.72-16.17,28.01c-8.96,15.21-18,30.38-27.09,45.51
			c-0.87,1.45-2.37,2.52-3.58,3.77c1.62-3.42,3.25-6.84,4.87-10.26c2.98-4.69,5.96-9.38,8.95-14.07
			c9.94-16.72,19.85-33.46,29.87-50.14C963.07,256.47,964.46,255.73,965.53,254.8z"/>
		<path class="st69" d="M1062.66,180.62c0.97,0.63,1.94,1.26,2.91,1.89c-0.13,0.36-0.26,0.72-0.39,1.09
			c-1.38-0.06-2.76-0.16-4.14-0.18c-8.43-0.15-16.88-0.68-25.3-0.35c-15.44,0.6-24.94,11.08-34.33,21.55
			c-0.96,1.07-1.97,2.11-2.95,3.17c1.7-2.99,3.39-5.97,5.09-8.96c13.97-16.59,32.34-19.61,52.56-17.22
			C1058.22,181.84,1060.47,180.97,1062.66,180.62z"/>
		<path class="st34" d="M932.51,307.76c-2.98,4.69-5.96,9.38-8.95,14.07c-1.34-0.34-2.68-0.68-4.01-1.02c2.67-4.67,5.33-9.33,8-14
			c4.01-6.98,8.02-13.96,12.04-20.93c0.06-0.11,0.23-0.17,0.34-0.25c0.21,0.39,0.41,0.79,0.62,1.18
			c-2.43,5.54-4.93,11.05-7.25,16.63C932.74,304.76,932.75,306.31,932.51,307.76z"/>
		<path class="st70" d="M1003.54,198.81c-1.7,2.99-3.39,5.97-5.09,8.96c0,0.31,0.04,0.61,0.11,0.91c-3.08,3.76-6.12,7.55-9.26,11.25
			c-1.75,2.06-3.66,3.99-5.49,5.97c1.45-6.63,2.62-13.21,9.65-16.94c2.02-1.07,2.51-4.74,4.29-6.66
			C999.22,200.71,1001.57,199.94,1003.54,198.81z"/>
		<path class="st71" d="M978.2,126.96c-13.29-7.43-24.34-17.3-32.7-30.09c-0.85-2.1-1.65-4.21-2.55-6.29
			c-3.34-7.69-4.71-15.58-2.44-23.84c-1.2,23.78,11.31,40.01,29.33,53.19c3.2,2.34,6.5,4.55,9.75,6.83
			C979.12,126.82,978.66,126.89,978.2,126.96z"/>
		<path class="st72" d="M940.51,66.74c-2.27,8.26-0.9,16.15,2.44,23.84c0.9,2.07,1.7,4.19,2.55,6.29
			c-10.87-12.71-9.9-36.21,2.03-49.4c0.87-0.96,1.75-1.93,2.81-3.11c-1.14-0.17-1.93-0.29-2.73-0.4c1.66-0.52,3.33-1.05,4.99-1.57
			c0.26,0.39,0.51,0.78,0.77,1.17C946.08,49.7,942.07,57.58,940.51,66.74z"/>
		<path class="st73" d="M983.8,225.9c1.84-1.99,3.75-3.91,5.49-5.97c3.14-3.71,6.18-7.5,9.26-11.25c-1.67,3.7-3.34,7.39-5,11.09
			c-0.91,0.19-2.28,0.06-2.67,0.62c-3.86,5.4-7.48,10.97-11.37,16.35c-0.77,1.07-2.41,1.5-3.65,2.23
			C978.51,234.61,981.16,230.25,983.8,225.9z"/>
		<path class="st74" d="M1048.69,38.9c-3.88,1.38-7.69,2.99-11.65,4.07c-4.29,1.17-7.26,3.5-9.26,7.51
			c-6.52,13.03-11.11,26.55-11.19,41.31c-0.69-2.6-2.25-5.32-1.91-7.78c1.7-12.46,5.22-24.36,11.55-35.4
			c2.76-4.81,7.27-5.92,11.76-7.5c2.19-0.77,4.38-1.54,6.56-2.31C1045.93,38.83,1047.31,38.87,1048.69,38.9z"/>
		<path class="st75" d="M1088.67,179.52c2.12,1.87,4.25,3.74,6.37,5.61c-0.4,0.58-0.81,1.16-1.21,1.74
			c-11.22-3.83-19.89-12.64-30.79-17.1c-0.51-0.62-1.02-1.24-1.52-1.87c0.32-1.04,0.64-2.07,0.96-3.11c2.99,1.48,6.08,2.81,8.95,4.5
			c2.55,1.5,4.88,3.39,7.28,5.15c0.91,0.66,1.77,1.39,2.6,2.16c3.19,2.93,6.36,5.89,9.53,8.83c0.34-0.4,0.68-0.79,1.02-1.19
			C1090.8,182.66,1089.73,181.09,1088.67,179.52z"/>
		<path class="st76" d="M1048.69,38.9c-1.38-0.04-2.76-0.07-4.15-0.11c9.1-3.2,18.44-4.47,28.03-3.18
			c7.18,0.96,14.34,2.03,21.48,3.22c1.9,0.31,3.7,1.22,5.55,1.85c-0.71,0.06-1.42,0.12-2.13,0.18c-7.51-1.32-15-3.48-22.54-3.73
			C1066.21,36.85,1057.44,38.24,1048.69,38.9z"/>
		<path class="st77" d="M1061.52,167.89c0.51,0.62,1.01,1.24,1.52,1.87c-1.32-0.08-2.82,0.22-3.92-0.31
			c-11.9-5.79-23.73-11.72-35.59-17.61c0.35-0.71,0.7-1.42,1.05-2.13C1036.89,155.77,1049.21,161.83,1061.52,167.89z"/>
		<path class="st78" d="M793.73,436.88c2.25,7.93,3.92,16.08,6.86,23.75c14.4,37.58,35.67,70.85,63.8,99.69
			c6.37,6.53,12.85,12.96,19.28,19.43c-3.29-2.4-7.06-4.36-9.78-7.29c-12.05-12.92-24.71-25.43-35.47-39.38
			c-20.46-26.53-34.46-56.63-45.01-88.35c-0.63-1.88-1.29-3.8-1.52-5.75C791.81,438.37,793.08,437.59,793.73,436.88z"/>
		<path class="st0" d="M845.53,396.76c-1.17,2.95,0.87,3.05,2.8,3.02c14.68-0.23,28.17-3.7,39.09-14.29
			c1.49-1.45,3.39-2.47,5.1-3.69c-13.23,12.85-15.33,29.52-15.92,46.66c-0.22,6.45,1.81,11.21,8.63,13.87
			c10.85,4.23,21.86,5.24,33.25,3.97c1.11-0.12,2.22-0.25,4.49-0.51c-3.7,5.51-7.37,9.96-9.89,14.99
			c-3.54,7.05-7.53,14.28-8.95,21.87c-1.75,9.32,2.99,22.06,16.48,27.26c17.01,6.56,34.26,7.26,51.61,1.19
			c0.43-0.15,0.97-0.02,1.86-0.02c-0.54,3.8-1.1,7.49-1.57,11.19c-2.86,22.55,3.13,42.86,18.06,59.57
			c15.67,17.53,40.38,22.35,62.43,7.95c4.11-2.69,7.91-5.86,11.88-8.83c3.86,7.54,7.26,15.11,11.47,22.19
			c6.66,11.21,14.36,21.65,26.12,28.19c11.22,6.24,22.94,8.03,34.82,2.3c9.11-4.4,13.93-13.03,18.96-21.27
			c1.02-1.68,1.84-3.48,3.05-5.8c2.14,3.16,3.87,5.89,5.78,8.48c4.63,6.27,11.04,8.34,18.43,5.91c9.22-3.03,15.08-9.97,20.28-17.65
			c0.82-1.22,1.77-2.34,2.67-3.51c9.04-13.47,12.92-28.47,13.19-44.84c1.66,1.09,3.15,2.09,4.66,3.06c7.88,5.04,16.03,9.49,25.77,9
			c2.18-0.11,4.29-1.52,6.43-2.34c0.34-1.29,0.67-2.57,1.01-3.86c2.25,4.61,4.49,9.21,7.02,14.4c2.21-1.98,3.64-3.26,5.07-4.54
			c0.3,0.04,0.55,0.17,0.77,0.38c-3.2,2.24-6.16,4.99-9.64,6.61c-6.59,3.06-12.81-0.78-19.16-1.98c-4.4-3.14-8.81-6.28-14.19-10.12
			c0.73,2.39,1.3,3.59,1.43,4.83c0.93,8.86,2.42,17.72,2.44,26.59c0.02,7.12-3.58,8.92-10.28,6.79c-1.95-0.62-3.92-1.15-6.68-1.96
			c0.85,5.61,1.57,10.31,2.29,15.02c-0.95,11.42-5.73,20.45-16.21,25.91c-9.42,7.33-18.79,14.72-28.32,21.92
			c-1.43,1.08-3.56,1.23-5.36,1.81c-1.1-0.88-2.19-1.76-3.29-2.64c-5.43-1.69-10.75-4.13-16.3-4.91c-13.1-1.85-26.32-2.9-39.49-4.28
			c-25.28-11.91-50.86-23.22-75.77-35.86c-37.71-19.13-71.32-44.73-105.67-69.11c-1.37-0.97-1.79-3.28-2.72-5.11
			c-6.41-2.82-13.41-5.51-19.98-9.01c-2.22-1.18-3.36-4.41-4.99-6.7c0.53-7.53,1.06-15.05,1.59-22.65
			c-4.56-1.51-9.06-2.69-13.29-4.48c-4.69-1.99-9.26-4.34-13.66-6.92c-3.2-1.88-4.68-4.62-1.96-8.25
			c4.17-5.56,8.22-11.21,12.32-16.82c2.14-2.11,4.27-4.21,7.31-7.21c-7.2-2.88-13.23-5.3-19.26-7.72
			c-5.32-2.66-10.73-5.15-15.92-8.03c-6.17-3.42-7.64-6.94-3.72-11.2c3.87-4.22,9.1-7.21,13.73-10.74c1.85,1.36,3.7,2.72,5.98,4.4
			c-0.48-5.4-0.92-10.38-1.38-15.57c-3.08,1.81,0.51,8.18-5.63,7.13c-8.83-3.72-16.51-9.03-22.23-16.79
			C839.55,400.18,840.61,398.11,845.53,396.76z M1164.06,662.93c0.41-0.36,0.81-0.71,1.22-1.07c-1.79-2.69-3.45-5.47-5.43-8
			c-0.63-0.81-2.09-0.98-3.18-1.44c-0.07,1.18-0.68,2.85-0.12,3.46C1158.87,658.4,1161.53,660.61,1164.06,662.93z"/>
		<path class="st1" d="M1216.58,616.84c-0.72-4.7-1.43-9.41-2.29-15.02c2.76,0.81,4.74,1.34,6.68,1.96
			c6.7,2.14,10.3,0.33,10.28-6.79c-0.03-8.87-1.51-17.73-2.44-26.59c-0.13-1.25-0.71-2.44-1.43-4.83
			c5.38,3.84,9.79,6.98,14.19,10.12c0.08,0.14,0.13,0.34,0.26,0.42c9.46,6.3,19.63,3.24,29.61,2.05c0.53-0.06,0.81-2.32,1.2-3.56
			c1.9,2.09,3.8,4.18,5.7,6.27c1,2.2,0.59,3.47-1.99,4.25c-3.05,0.92-5.92,2.4-8.87,3.64l0.05-0.03c-7.32-0.67-14.64-1.33-21.97-2
			c-3.04-1.99-6.08-3.98-10.4-6.81c1.71,6.71,3,11.78,4.29,16.86c-0.34,1.57-0.72,3.13-1.01,4.72c-1.69,9.42-5.56,11.88-14.92,9.47
			c-0.63-0.16-1.29-0.21-1.94-0.32c-1.08-0.66-2.16-1.33-3.44-2.11C1217.52,611.84,1217.05,614.34,1216.58,616.84z"/>
		<path class="st79" d="M1269.61,570.67c-1.43,1.28-2.86,2.56-5.07,4.54c-2.53-5.19-4.77-9.79-7.02-14.4
			c-5.68-10.95-8.61-22.55-7.96-34.91c0.1-1.98,1.28-3.91,1.96-5.86c1.01-0.44,2.02-0.87,3.03-1.31c0.34,0.09,0.67,0.17,1.01,0.26
			c0.32,1.25,0.65,2.5,0.97,3.76c-3.1,4.93-3.81,10.42-1.73,15.61c3.75,9.32,8.23,18.35,12.43,27.5
			C1267.97,567.49,1268.81,569.07,1269.61,570.67z"/>
		<path class="st80" d="M1239.45,596.77c-1.29-5.08-2.58-10.15-4.29-16.86c4.32,2.83,7.36,4.82,10.4,6.81
			c7.04,3.74,14.39,4.12,21.97,2l-0.05,0.03c4.02-0.31,8.05-0.63,12.07-0.94c0,0.33,0,0.65,0,0.98c-2.02,1.34-4.04,2.68-6.07,4.01
			c-0.69,0.77-1.38,1.53-2.06,2.3c-0.89-0.39-1.79-0.77-2.68-1.16c-8.07,2.98-15.72,1.18-23.22-2.1c-1.03-0.65-2.05-1.3-3.57-2.25
			c-0.12,1.64-0.2,2.8-0.29,3.97c1.07,7.71,2.69,15.5-3.11,22.24c-0.33-2-0.66-4-1-6C1238.18,605.46,1238.81,601.11,1239.45,596.77z
			"/>
		<path class="st81" d="M1272.64,574.6c-0.39,1.24-0.67,3.5-1.2,3.56c-9.98,1.19-20.15,4.26-29.61-2.05
			c-0.12-0.08-0.17-0.28-0.26-0.42c6.35,1.2,12.57,5.03,19.16,1.97c3.49-1.62,6.44-4.37,9.64-6.61
			C1271.13,572.23,1271.89,573.42,1272.64,574.6z"/>
		<path class="st29" d="M1279.55,587.8c-4.02,0.31-8.05,0.63-12.07,0.94c2.95-1.24,5.83-2.72,8.87-3.64
			c2.58-0.78,2.99-2.05,1.99-4.25C1281.05,582.78,1282.44,584.92,1279.55,587.8z"/>
		<path class="st1" d="M845.53,396.76c-4.92,1.34-5.98,3.42-3.16,7.24c5.72,7.76,13.4,13.07,22.23,16.79
			c1.19,0.6,2.39,1.19,3.88,1.94c-1.16,0.85-2,1.47-2.85,2.09c-4.63,3.53-9.85,6.51-13.73,10.74c-3.91,4.26-2.45,7.78,3.72,11.2
			c5.19,2.88,10.61,5.37,15.92,8.03c5.13,2.83,10.26,5.66,15.56,8.59c-1.24,2.17-2.43,4.26-3.62,6.34
			c-4.1,5.61-8.15,11.26-12.32,16.82c-2.72,3.63-1.24,6.37,1.96,8.25c4.4,2.58,8.97,4.93,13.66,6.92c4.24,1.8,8.74,2.97,13.29,4.48
			c-0.53,7.6-1.06,15.13-1.59,22.65c-0.28-2.25-0.94-4.52-0.79-6.73c0.72-10.5,0.57-9.87-9.67-13.61
			c-9.25-3.38-18.31-7.71-26.72-12.82c-6.05-3.67-5.74-6.05-1.97-12c1.42-2.24,2.86-4.47,4.29-6.7c2.25-2.23,4.51-4.46,7.1-7.01
			c-1.53-0.71-2.1-1.01-2.7-1.24c-13.75-5.29-26.35-12.47-37.4-22.32c-2.85-2.55-3.95-5.14-2.01-8.63c2.32-2.67,4.64-5.34,6.95-8.02
			l-0.05,0.05c4.06-1.31,8.12-2.62,12.17-3.93c2.46-0.6,4.91-1.21,7.37-1.81c0.23-0.46,0.47-0.92,0.7-1.38
			c-15.99-3.71-24.77-14.51-30.06-27.9c10.56-2.69,20.82-5.3,31.07-7.91c0.61-0.01,1.22-0.01,1.83-0.02
			C854.24,390.17,849.89,393.47,845.53,396.76z"/>
		<path class="st82" d="M858.6,386.88c-0.61,0.01-1.22,0.01-1.83,0.02c-7.41,1.47-14.79,3.13-22.24,4.33
			c-4.25,0.69-8.61,0.62-12.91,0.28c4.64-0.93,9.29-1.86,13.93-2.8c6.68-1.95,13.36-3.9,20.03-5.85
			c15.87-5.61,27.21-17.09,37.99-29.29c2.18-2.47,4.1-5.18,6.14-7.77c4.95-7,9.89-13.99,14.84-20.99c1.66-1.34,3.33-2.67,4.99-4.01
			c1.34,0.34,2.68,0.68,4.01,1.02c-1.62,3.42-3.25,6.84-4.87,10.26c-8.32,14.62-18.28,28.05-31.92,38
			C877.97,376.49,868.03,381.34,858.6,386.88z"/>
		<path class="st83" d="M847.69,425.89c-4.06,1.31-8.12,2.62-12.17,3.93c2.73-2.17,5.46-4.34,8.56-6.81c-0.34-0.23-1-0.68-1.65-1.12
			c2.03,0.02,4.49-0.41,3.21,3.11C845.61,425.03,846.97,425.58,847.69,425.89z"/>
		<path class="st84" d="M1176.06,690.88c0.09,0.32,0.18,0.64,0.26,0.96c-0.18,0.69-0.35,1.38-0.52,2.07
			c-0.32,1.79-0.76,3.56-0.95,5.37c-0.43,4.01,0.39,8.62-1.32,11.95c-4.43,8.66-9.56,17.04-15.16,25.01
			c-4.95,7.04-11.22,8.4-18.97,5.53c8.6-5.05,19.74-14.81,25.5-23.88c0.88-1.39,2.28-2.49,2.96-3.95c2.02-4.33,4.14-8.67,5.5-13.22
			c0.49-1.66-1.07-3.92-1.7-5.91c-0.4-2.29-0.8-4.59-1.2-6.88c0.09-0.76,0.18-1.52,0.3-2.51c0.71,0.58,1.19,0.98,1.68,1.38
			C1172.6,689.09,1172.63,691.49,1176.06,690.88z"/>
		<path class="st85" d="M1171.67,694.8c0.63,1.99,2.19,4.26,1.7,5.91c-1.35,4.55-3.48,8.89-5.5,13.22
			c-0.68,1.46-2.08,2.57-2.96,3.95c-5.76,9.08-16.9,18.83-25.5,23.88c7.75,2.86,14.02,1.51,18.97-5.53
			c5.6-7.97,10.72-16.35,15.16-25.01c1.71-3.33,0.89-7.94,1.32-11.95c0.19-1.8,0.63-3.58,0.95-5.37c0.58,2.53,1.17,5.06,1.75,7.59
			c-1.59,14.3-10.29,24.97-18.27,36.05c-4.53,6.29-10.35,8.46-17.81,6.8c-1.78-0.4-3.63-0.48-5.43-0.71
			c-0.67-0.53-1.35-1.06-2.69-2.11c15.67-6.35,25.68-18.22,34.95-30.93C1171.84,705.76,1173.55,700.7,1171.67,694.8z"/>
		<path class="st86" d="M1242.55,789.75c0.01,2.58,0.02,5.15,0.02,7.72c0.57-4.93-1.34-7.55-6.49-8.48
			c-4.3-0.78-8.4-2.71-12.58-4.13C1229.85,786.49,1236.2,788.12,1242.55,789.75z"/>
		<path class="st60" d="M1098.97,726.8c-5.68,9.07-13.45,16.05-22.13,22.12c-11.95,1.66-23.89,3.32-35.84,4.99
			c-18.49,2.59-37.01,2.58-55.65,0.65c0.23-3.62,2-4.97,5.51-4.8c4.49,0.22,9.01,0.26,13.49-0.02c19.49-1.23,38.97-3.51,58.46-3.56
			c10.32-0.03,16.03-5.83,22.34-11.58c5.04-4.59,9.29-10.02,14.11-14.86c0.85-0.86,2.77-0.65,4.2-0.94
			C1101.97,721.46,1100.47,724.13,1098.97,726.8z"/>
		<path class="st85" d="M1103.47,718.8c-1.43,0.29-3.34,0.08-4.2,0.94c-4.82,4.84-9.08,10.28-14.11,14.86
			c-6.31,5.75-12.02,11.55-22.34,11.58c-19.49,0.05-38.97,2.33-58.46,3.56c-4.48,0.28-9.01,0.23-13.49,0.02
			c-3.51-0.17-5.28,1.18-5.51,4.8c18.64,1.94,37.16,1.94,55.65-0.65c11.94-1.67,23.89-3.33,35.84-4.99
			c-1.98,0.75-3.89,1.78-5.94,2.2c-28.07,5.8-56.39,7.9-84.99,5.4c-0.8-0.07-1.59-0.27-3.29-0.58c1.46-2.77,2.72-5.17,3.98-7.57
			c1.31-0.18,2.62-0.45,3.93-0.51c23.2-1.08,46.39-2.27,69.6-3.13c8.67-0.32,15.82-2.64,21.79-9.59
			c6.77-7.89,14.58-14.89,21.98-22.24c0.55-0.54,1.43-0.74,2.16-1.09C1105.21,714.13,1104.34,716.46,1103.47,718.8z"/>
		<path class="st42" d="M1110.58,721.87c-0.02-0.69-0.03-1.38-0.05-2.07c6.26-9.08,7.28-19.37,6.99-29.97l0.03-0.03
			c0.36,0.38,0.72,0.77,1.08,1.15C1118.98,702.04,1117.87,712.76,1110.58,721.87z"/>
		<path class="st87" d="M1097.48,702.86c4.7-0.34,9.4-0.68,14.11-1.03c-0.69,1.32-1.38,2.65-2.07,3.97
			c-3.61-0.27-7.21-0.53-10.82-0.8C1098.29,704.29,1097.89,703.57,1097.48,702.86z"/>
		<path class="st36" d="M1110.58,721.87c7.29-9.11,8.4-19.83,8.05-30.92c0.05-7.77,0.28-15.53,0.08-23.29
			c-0.08-3.05-0.19-5.36,3.82-4.81l-0.03,0.02c3.06,0.34,6.11,0.88,9.17,0.98c6.19,0.21,6.45,0.14,5.75,6.44
			c-0.66,5.87-1.94,11.67-2.94,17.5c-3.39,8.81-3.07,10.57,2.87,14.59c0.45-0.87,0.95-1.7,1.33-2.57
			c4.72-11.1,5.42-22.43,1.84-33.99c2.66,0.01,5.33,0.03,7.99,0.04c2.11,7.94,4.02,15.95,6.43,23.8c0.88,2.88,2.95,5.4,4.48,8.09
			c0.46-0.2,0.92-0.39,1.39-0.59c0.18-0.91,0.73-1.93,0.48-2.7c-3-9.07-6.14-18.1-9.15-27.17c-0.23-0.7,0.26-1.64,0.42-2.47
			c3.32,0.76,6.63,1.51,9.95,2.27c2.66,6.94,5.32,13.89,7.97,20.83c0.4,2.29,0.8,4.59,1.2,6.88c1.88,5.9,0.17,10.96-3.36,15.79
			c-9.28,12.71-19.28,24.58-34.95,30.93c1.34,1.05,2.02,1.58,2.69,2.11c-8.79-0.02-27.04-6.11-31.46-10.58
			C1106.57,729.35,1108.57,725.61,1110.58,721.87z"/>
		<path class="st20" d="M1162.49,667.09c-3.32-0.76-6.63-1.51-9.95-2.27c-0.63-3.35-2.51-1.5-4.07-0.98
			c-8.66-0.33-17.32-0.65-25.98-0.98l0.03-0.02c-5.02-1.33-10.04-2.65-15.06-3.98c-15.15-6.35-30.53-12.21-45.39-19.16
			c-20.57-9.62-40.77-20.06-61.11-30.17c-0.88-0.44-1.62-1.13-2.43-1.7c-1.7-1.5-3.27-3.19-5.12-4.46
			c-10.59-7.22-21.24-14.34-31.87-21.5c-10.63-7.38-21.26-14.76-31.89-22.13c-3.4-2.84-6.71-5.8-10.22-8.5
			c-2.54-1.95-5.33-3.57-8.01-5.34c-5.34-1.76-10.75-3.33-16-5.32c-5.25-2-6.36-6.29-5.47-11.42c0.28-1.63,0.43-3.29,0.63-4.93
			c0.82-7.07,0.71-6.77-6.27-9.17c-8.77-3.01-17.36-6.55-26-9.93c-1.07-0.42-2-1.19-2.97-1.83c-9.52-6.31-9.9-7.73-4.75-17.54
			c3.06-3.07,6.25-6.04,9.1-9.3c0.59-0.67-0.05-2.43-0.13-3.69c-0.55-0.34-1.06-0.76-1.65-1c-13.23-5.45-26.03-11.53-35.36-22.97
			c1.66-1,3.33-1.99,4.99-2.99c1.26,1.3,2.33,2.92,3.82,3.84c11.88,7.37,23.85,14.61,35.63,21.79c-0.7,1.16-2.03,3.35-3.36,5.54
			c-1.43,2.23-2.87,4.46-4.29,6.7c-3.77,5.95-4.07,8.32,1.97,12c8.41,5.11,17.47,9.44,26.72,12.82c10.24,3.74,10.39,3.11,9.67,13.61
			c-0.15,2.22,0.5,4.49,0.79,6.73c1.63,2.29,2.77,5.52,4.99,6.7c6.57,3.5,13.58,6.19,19.98,9.01c0.94,1.83,1.35,4.14,2.72,5.11
			c34.35,24.38,67.96,49.97,105.67,69.11c24.91,12.64,50.49,23.95,75.77,35.86c4.43,1.39,8.79,3.71,13.29,4
			c14.28,0.92,28.69,0.51,42.5,5.19c1.1,0.88,2.19,1.76,3.29,2.64c-0.67,0.44-1.33,0.88-2,1.33
			C1163.96,667.56,1163.23,667.33,1162.49,667.09z"/>
		<path class="st88" d="M1107.47,658.86c5.02,1.33,10.04,2.65,15.06,3.98c-4.01-0.54-3.9,1.77-3.82,4.81
			c0.2,7.76-0.02,15.53-0.08,23.29c-0.36-0.38-0.72-0.77-1.08-1.15c0-7.93,0-15.85,0-23.78c-0.34-0.01-0.68-0.01-1.02-0.02
			c0,4.3,0.18,8.62-0.11,12.9c-0.09,1.31-1.95,3.72-2.2,3.62c-2.86-1.14-6.28,3.9-8.68-0.76c9.18-0.28,9.19-0.28,9.88-9.47
			c0.1-1.31-0.05-2.66,0.13-3.96c0.6-4.43-0.64-7.42-5.62-7.97C1109.07,660.26,1108.29,659.38,1107.47,658.86z"/>
		<path class="st89" d="M822.55,448.8c9.33,11.44,22.13,17.53,35.36,22.97c0.59,0.24,1.1,0.66,1.65,1
			c-0.98,0.03-1.96,0.06-2.94,0.09c-11.29-4.85-22.35-10.11-31.39-18.73c-8.16-7.78-8.08-11.15,0.44-18.78
			c0.85-0.76,1.87-1.34,2.82-2c-1.51,1.86-3.07,3.69-4.53,5.58C821.63,441.95,819.36,445,822.55,448.8z"/>
		<path class="st90" d="M961.54,581.88c10.63,7.16,21.29,14.28,31.87,21.5c1.86,1.27,3.42,2.96,5.12,4.46
			c-8.65-5.5-17.35-10.91-25.92-16.53c-3.86-2.53-7.46-5.48-11.18-8.23C961.47,582.67,961.5,582.28,961.54,581.88z"/>
		<path class="st91" d="M822.55,448.8c-3.18-3.8-0.92-6.86,1.4-9.87c1.46-1.9,3.02-3.72,4.53-5.58c2.36-1.2,4.73-2.39,7.09-3.58
			c-2.32,2.67-4.64,5.34-6.95,8.02c-2.05,2.28-4.1,4.56-6.39,7.1c2.43,0.42,3.87,0.68,5.32,0.93
			C825.88,446.81,824.21,447.81,822.55,448.8z"/>
		<path class="st92" d="M961.54,581.88c-0.03,0.4-0.07,0.79-0.1,1.19c-11-7.74-21.99-15.49-32.99-23.24c0.4-0.03,0.8-0.06,1.2-0.09
			C940.28,567.12,950.91,574.5,961.54,581.88z"/>
		<path class="st93" d="M952.37,629.9c0.74-0.38,1.49-0.77,2.23-1.15c4.31,2.06,8.62,4.12,12.93,6.18
			c-0.36,0.66-0.72,1.32-1.08,1.98C961.76,634.57,957.06,632.23,952.37,629.9z"/>
		<path class="st94" d="M929.65,559.75c-0.4,0.03-0.8,0.06-1.2,0.09c-5.68-4.64-11.35-9.29-17.03-13.93
			c2.68,1.77,5.47,3.39,8.01,5.34C922.94,553.95,926.25,556.9,929.65,559.75z"/>
		<path class="st95" d="M856.61,472.86c0.98-0.03,1.96-0.06,2.94-0.09c0.08,1.26,0.72,3.01,0.13,3.69c-2.85,3.26-6.03,6.23-9.1,9.3
			c1.95-2.82,3.62-5.9,5.93-8.38C858.22,475.55,858.72,474.43,856.61,472.86z"/>
		<path class="st96" d="M1097.48,702.86c0.4,0.72,0.81,1.43,1.21,2.15c-1.31,0.31-2.63,0.62-3.94,0.93c-1.74,0.47-3.59,0.7-5.2,1.44
			c-12.54,5.76-26.54,8.84-36.35,19.65c-2.84-3.47-1.74-6.51,1.03-9.36c2.83-1.64,5.49-3.72,8.52-4.85
			c8.55-3.18,17.24-5.98,25.87-8.92C1091.58,703.55,1094.53,703.2,1097.48,702.86z"/>
		<path class="st87" d="M1053.21,727.03c9.81-10.81,23.81-13.89,36.35-19.65c1.61-0.74,3.46-0.97,5.2-1.44
			c-6.95,3.3-13.93,6.53-20.84,9.91c-4.44,2.17-8.87,4.39-13.09,6.93c-1.71,1.03-3.1,2.85-4.22,4.58
			C1055.03,729.81,1054.18,728.78,1053.21,727.03z"/>
		<path class="st87" d="M1088.63,703.89c-8.64,2.95-17.33,5.74-25.87,8.92c-3.02,1.13-5.69,3.21-8.52,4.85
			c0.87-1.15,1.51-2.66,2.65-3.38c8.75-5.52,18.04-9.68,28.53-10.53C1086.49,703.8,1087.56,703.84,1088.63,703.89z"/>
		<path class="st91" d="M1237.55,609.81c0.33,2,0.66,4,1,6c-5.65,4.78-11.63,2.17-17.02,0.49c-1.36,6.17-2.64,11.92-3.91,17.67
			c-2.15,7.57-8.37,9.62-15.02,11.09c-0.74-0.77-1.47-1.54-2.21-2.31c10.48-5.46,15.25-14.49,16.21-25.91c0.47-2.5,0.94-5,1.56-8.3
			c1.27,0.78,2.36,1.44,3.44,2.11C1227.59,615.17,1233.4,614.86,1237.55,609.81z"/>
		<path class="st85" d="M1264.69,629.84c-2.48,4.59-4.24,9.79-7.58,13.63c-7.06,8.12-14.56,15.81-23.72,21.87
			c-10.77,7.12-20.84,15.27-31.35,22.79c-1.14,0.82-3.17,0.4-4.79,0.56c6.76-5.12,13.27-10.63,20.34-15.29
			C1235.7,661.44,1253.7,649.46,1264.69,629.84z"/>
		<path class="st97" d="M1200.38,642.75c0.74,0.77,1.47,1.54,2.21,2.31c-8.57,9.93-18.67,18.03-29.82,24.85
			c-1.51,1.34-3.01,2.68-4.51,4.01c-1.19-2.04-2.37-4.08-3.56-6.12c0.67-0.44,1.33-0.88,2-1.33c1.8-0.58,3.93-0.73,5.36-1.81
			C1181.58,657.47,1190.96,650.08,1200.38,642.75z"/>
		<path class="st98" d="M1217.61,633.96c1.27-5.75,2.54-11.5,3.91-17.67c5.39,1.68,11.37,4.29,17.02-0.49
			c5.8-6.75,4.18-14.53,3.11-22.24c3.59,5.08,3.62,15.81-0.3,21.58c-5.23,7.68-12.45,4.61-18.28,3.19
			C1221.18,623.75,1219.4,628.86,1217.61,633.96z"/>
		<path class="st99" d="M1168.25,673.92c1.5-1.34,3.01-2.68,4.51-4.01c-0.33,1.84-1.24,3.82-0.87,5.51
			c1.13,5.21,2.74,10.31,4.17,15.46c-3.44,0.62-3.47-1.79-3.62-4.08C1171.05,682.5,1169.65,678.21,1168.25,673.92z"/>
		<path class="st100" d="M1245.5,591.84c7.51,3.28,15.15,5.08,23.22,2.1c-1.8,0.81-3.54,2.1-5.41,2.34
			C1256.87,597.1,1250.54,596.9,1245.5,591.84z"/>
		<path class="st101" d="M1261.64,648.9c1.64-1.38,3.27-2.75,4.91-4.13c-5.01,5.34-10.03,10.68-15.04,16.03
			C1254.88,656.83,1258.26,652.87,1261.64,648.9z"/>
		<path class="st25" d="M1114.22,387.76c-2.18,0.36-4.37,0.72-6.55,1.08c-8.94,1.08-17.1-1.68-25.12-5.08
			c-7.7-5.91-12.19-13.87-14.75-23.06c-0.04-4.94-0.08-9.88-0.12-14.81c5.4-23.19,22.66-35.21,42.84-33.16
			c1.57,0.51,3.14,1,4.7,1.53c11.08,3.78,20.8,14.99,21.26,24.51c-4.68-7.17-11.06-11.56-19.85-10.59
			c-9.48,1.04-15.71,6.78-19.22,15.44c-6.32,15.58,4.56,32.57,20.31,30.84c5.2-0.57,10.04-4.43,15.04-6.78
			c-1.69,3.05-3.39,6.09-5.08,9.14c-2.65,2.19-5.3,4.39-7.96,6.57C1117.9,384.86,1116.06,386.3,1114.22,387.76z"/>
		<path class="st4" d="M1190.76,419.71c5.7,3.68,11.67,7,17.03,11.12c8.7,6.69,16.92,14,25.49,20.85c2.56,2.05,2.96,4.12,1.77,6.93
			c-6.18,14.62-12.23,29.31-18.6,43.85c-1.08,2.48-3.2,4.69-5.28,6.52c-18.02,15.78-38.39,27.98-59.64,38.83
			c-2.74,0.17-4.55-0.29-3.59-3.83c0.78-2.87,1.36-5.86,1.45-8.82c0.19-6.17,3.02-12.52-0.95-18.47c0.31-2.09,0.62-4.17,0.94-6.26
			c0.34-2.24,0.08-4-2.86-3.7c-5.34-0.41-10.68-0.82-16.02-1.22c0.03-0.51,0.07-1.01,0.1-1.52c0.63-0.05,1.25-0.1,1.88-0.15
			c4.18-0.26,8.38-0.33,12.52-0.85c4.06-0.51,4.62-3.05,3.86-6.84c-2.35-11.81-9.71-20.45-17.5-28.9c0.68-0.35,1.79-1.15,1.98-0.98
			c2.28,2.17,4.54,4.38,6.59,6.76c9.38,10.92,15.38,23.2,14.55,37.99c-0.44,7.92-1.3,15.82-1.88,23.74
			c-0.17,2.4,0.45,4.88,3.57,3.51c4.38-1.91,8.7-4.1,12.68-6.72c12.61-8.29,25.12-16.74,37.5-25.35c2.08-1.44,3.85-3.79,4.95-6.1
			c6.28-13.19,12.32-26.48,18.42-39.75c1.48-3.21,1.23-6.1-1.65-8.52c-7.99-6.72-15.83-13.62-23.96-20.15
			c-3.66-2.94-7.88-5.19-11.85-7.75c-0.93-0.65-1.86-1.31-2.8-1.96C1189.91,421.21,1190.34,420.46,1190.76,419.71z"/>
		<path class="st102" d="M1146.52,506.72c2.94-0.3,3.2,1.46,2.86,3.7c-0.32,2.09-0.63,4.17-0.94,6.26
			c-0.92,0.29-1.84,0.58-2.77,0.87c-0.04-0.55-0.09-1.1-0.13-1.66c-0.98,0.29-1.97,0.58-2.95,0.88c-1.64,0.7-3.27,1.39-4.91,2.09
			c-6.24,2.56-12.32,2.79-18.31-0.86c-4.19-2.55-8.52-4.86-12.79-7.28c-2.32-4.63-4.64-9.27-6.95-13.9
			c-2.26-13.64,0.35-27.02,2.17-40.44c0.44-3.24,1.31-6.42,1.98-9.63c0.18-0.06,0.35-0.04,0.51,0.08c0.49-0.65,0.99-1.3,1.48-1.95
			c0.57-0.32,1.15-0.65,1.72-0.97c-0.01,1.3-0.03,2.6-0.04,3.91c-0.31,7.31-0.72,14.63-0.87,21.94c-0.04,2.01,0.67,4.04,1.04,6.06
			c1.31,9.86,6.26,17.77,13.63,24.11C1128.49,506.15,1136.36,510.92,1146.52,506.72z"/>
		<path class="st4" d="M1076.62,291.42c2.95-0.43,5.8-1.06,8.66-1.22c21.89-1.22,43.79-2.44,65.69-3.46
			c7.21-0.34,7.48,0.17,8.42,8.37c-6.71,0.53-13.42,1.19-20.14,1.56c-17.59,0.97-35.19,1.81-52.79,2.71
			C1079.57,299.74,1078.9,299.24,1076.62,291.42z"/>
		<path class="st103" d="M1192.28,423.93c3.97,2.56,8.19,4.81,11.85,7.75c8.13,6.54,15.98,13.43,23.96,20.15
			c2.88,2.42,3.13,5.31,1.65,8.52c-6.1,13.27-12.14,26.57-18.42,39.75c-1.1,2.31-2.87,4.66-4.95,6.1
			c-12.39,8.61-24.89,17.07-37.5,25.35c-3.98,2.62-8.31,4.81-12.68,6.72c-3.12,1.36-3.74-1.11-3.57-3.51
			c0.57-7.92,1.43-15.82,1.88-23.74c0.83-14.79-5.17-27.08-14.55-37.99c-2.05-2.39-4.31-4.6-6.59-6.76
			c-0.18-0.17-1.3,0.63-1.98,0.98c-8.05-6.63-14.06-14.44-14.83-25.34c-0.24-3.39-0.66-6.77-0.99-10.16
			c-0.62-2.3-1.24-4.61-1.86-6.91c0.99-2,1.98-4.01,2.97-6.01c1.03-0.21,2.06-0.41,2.13-0.42c0.3,5.58,0.59,10.98,0.88,16.37
			c2.94,12.76,8.9,23.51,18.16,33.16c12.31,12.83,20.07,28.13,17.74,46.95c-0.67,5.41-0.52,10.92-0.75,16.39
			c-0.16,1.55-0.32,3.09-0.51,4.87c1.18-0.13,1.71-0.07,2.13-0.26c17.86-8.1,33.89-19.14,49.36-31.04c1.28-0.98,2.47-2.35,3.14-3.79
			c6.26-13.41,12.35-26.91,18.61-40.32c2.04-4.37,0.93-7.45-2.74-10.37C1213.88,441.65,1203.11,432.75,1192.28,423.93z"/>
		<path class="st37" d="M1286.69,348.22c-5.76,6.58-7.04,6.67-12.01,1.14c-10.76-11.99-21.49-24.01-32.22-36.02
			c-0.65-0.72-1.19-1.54-1.75-2.27c4.53-5.59,7.22-5.92,11.62-1.08C1263.82,322.62,1275.17,335.38,1286.69,348.22z"/>
		<path class="st104" d="M1243.28,383.07c-8.59,4.06-16.45,8.01-24.53,11.43c-1.81,0.77-4.96,0.42-6.51-0.73
			c-2.69-2-2.9-4.92,0.74-6.65c9.76-4.65,19.52-9.29,29.42-13.62c1.16-0.51,4.15,0.5,4.64,1.57c4.05,8.74,7.83,17.61,11.33,26.58
			c0.53,1.36-0.81,3.46-1.28,5.21c-1.34-0.96-3.26-1.63-3.93-2.94C1249.79,397.28,1246.74,390.47,1243.28,383.07z"/>
		<path class="st105" d="M1113.69,424.84c0.62,2.3,1.24,4.61,1.86,6.91c-0.57,0.73-1.58,1.43-1.65,2.21
			c-0.85,9.58-1.55,19.16-2.3,28.75c-0.01,4.7-0.02,9.4-0.03,14.1c2.53,12.45,10.16,20.94,20.92,27.02
			c-0.63,0.05-1.25,0.1-1.88,0.15c-0.03,0.51-0.07,1.01-0.1,1.52c5.34,0.41,10.68,0.82,16.02,1.22c-10.16,4.2-18.03-0.57-25.28-6.8
			c-7.37-6.34-12.32-14.25-13.63-24.11c-0.06-9.33-0.11-18.67-0.17-28c0.01-1.3,0.03-2.6,0.04-3.91c0.42-1.39,0.82-2.79,1.27-4.17
			c1.55-4.7,3.11-9.39,4.67-14.09C1113.44,425.34,1113.52,425.08,1113.69,424.84z"/>
		<path class="st106" d="M1099.63,496.8c2.32,4.63,4.64,9.27,6.95,13.91c1.69,2.64,3.38,5.27,5.07,7.91
			c6.2,8.31,14.21,10.88,24.34,7.74c-1.59,1.55-3.25,3.16-5.06,3.36c-4.15,0.44-8.38,0.19-12.58,0.22
			c-10.11-4.64-15.81-13.21-19.84-23c-1.55-3.77-2.07-7.96-3.06-11.95c0.37-7.23,0.76-14.46,1.1-21.69c0.08-1.83,0-3.67-0.01-5.5
			c0.34-1.65,0.67-3.3,1.01-4.95c0.63,1.11,1.84,2.25,1.78,3.32c-0.17,2.95-1.06,5.84-1.32,8.79
			C1097.38,482.3,1096.44,489.71,1099.63,496.8z"/>
		<g>
			<path class="st107" d="M1254.55,518.74c0.33,0.08,0.67,0.17,1,0.25c0.3-0.41,0.6-0.82,0.9-1.23c2.41-8.97,4.83-17.94,7.25-26.91
				c0.14-1.77,0.04-3.61,0.48-5.3c6.74-25.94,13.54-51.86,20.33-77.79c-0.99,0.75-1.99,1.49-2.98,2.23
				c-0.72,1.23-1.44,2.47-2.16,3.7c0,0,0,0.01,0,0.01c-12.19,15.83-19.73,33.83-24.87,52.97c-1.71,7.39-3.76,14.73-5.04,22.2
				c-1.37,7.96-2.01,16.04-2.97,24.07c-0.14,3.66,0.48,6.77,5.03,7.11C1252.53,519.61,1253.54,519.18,1254.55,518.74"/>
			<path class="st107" d="M1263.7,490.83c0,0.01,0,0.01,0,0.02c0,0.03,0,0.06-0.01,0.09L1263.7,490.83z"/>
		</g>
		<path class="st108" d="M1005.89,313.58c5.73,2.09,11.25,4.73,16.85,7.14c-13.42-11.59-36.48-14.42-53.31-3.97
			c-8.47,4.03-15.04,9.82-20.16,16.96c-2.62,3.66-4.86,7.67-6.77,11.99c-0.41,1.58-0.72,3.2-1.26,4.73 M936.8,375.25
			c29.68-8.29,1.59-16.85,4.43-24.86c0.55-1.53,0.85-3.15,1.26-4.73c-0.88,1.58-1.97,3.08-2.62,4.75
			c-5.76,14.87-7.47,30.22-4.13,45.82c4.62,21.56,15.52,38.82,36.26,48.21c13.11,5.95,26.52,6.31,39.65-0.53
			c0.03-0.01,0.06-0.01,0.08-0.02c18.84-7.97,29.65-22.63,34.88-41.91c0-0.01,0-0.02,0-0.03c5.14-14.31,5.44-28.72,1-43.25
			c0-0.01,0-0.03,0-0.04c-1.07-3.63-1.78-7.42-3.26-10.86c-4.74-10.94-11.16-20.63-21.6-27.07c-5.61-2.42-11.13-5.05-16.85-7.14
			c-2.36-0.86-5.13-0.56-7.71-0.79"/>
		<path class="st109" d="M1136.47,338.76c-0.46-9.52-10.18-20.74-21.26-24.51c-1.56-0.53-3.13-1.02-4.7-1.53
			c-1.85-0.31-3.7-0.64-5.56-0.91c-2.47-0.37-4.95-0.7-7.43-1.05c13.81-3.77,29.91,3.11,37.62,16.3c4.82,8.25,7.41,17.06,5.49,26.75
			c-0.38-0.01-0.76-0.02-1.14-0.03C1138.49,348.76,1137.48,343.76,1136.47,338.76z"/>
		<path class="st110" d="M1097.53,310.75c2.48,0.35,4.96,0.68,7.43,1.05c1.86,0.28,3.71,0.61,5.56,0.91
			c-20.18-2.04-37.44,9.98-42.84,33.16c-0.42-1.48-0.84-2.97-1.26-4.45C1069.88,325.72,1082.77,313.01,1097.53,310.75z"/>
		<path class="st111" d="M1190.76,419.71c-0.42,0.75-0.85,1.5-1.27,2.25c-1.61-0.81-3.15-1.88-4.85-2.38
			c-5.71-1.69-11.48-3.18-17.22-4.74c-6.23-0.65-12.47-1.29-18.7-1.94c-1.45-0.16-2.91-0.31-4.36-0.47
			c0.02-0.41,0.04-0.83,0.06-1.24c1.73-0.12,3.45-0.39,5.17-0.34c8.4,0.24,16.8,0.56,25.2,0.85
			C1180.11,414.37,1185.43,417.04,1190.76,419.71z"/>
		<path class="st112" d="M1174.78,411.7c-8.4-0.29-16.8-0.61-25.2-0.85c-1.72-0.05-3.45,0.22-5.17,0.34
			c-0.02,0.41-0.04,0.83-0.06,1.24c1.45,0.16,2.91,0.31,4.36,0.47c-3.9,0.5-7.83,0.87-11.7,1.54c-17.29,2.97-17.28,3-17.34,20.34
			c-0.29-5.39-0.58-10.79-0.88-16.37c-0.07,0.01-1.1,0.22-2.13,0.42c0.35-0.63,0.56-1.63,1.08-1.83
			C1136.24,409.84,1155.19,407.24,1174.78,411.7z"/>
		<path class="st113" d="M1256.51,564.67c-2.14,0.81-4.26,2.23-6.43,2.34c-9.74,0.49-17.89-3.96-25.77-9
			c-1.51-0.97-3-1.97-4.66-3.06c-0.26,16.37-4.14,31.37-13.19,44.84c1.32-3,2.85-5.93,3.91-9.02c2.09-6.11,4.39-12.2,5.71-18.49
			c1.28-6.11,1.44-12.45,2.18-19.58c4.13,2.5,8.01,5.13,12.13,7.29C1238.57,564.29,1246.98,567.73,1256.51,564.67z"/>
		<path class="st114" d="M1118.36,529.93c4.2-0.03,8.43,0.22,12.58-0.22c1.81-0.19,3.46-1.81,5.06-3.36
			c-10.13,3.15-18.15,0.57-24.34-7.74c0.89,0.43,1.78,0.87,2.66,1.3c6.62,5.67,13.99,6.74,20.42,2.97c1.64-1.34,3.29-2.67,4.93-4.01
			c1.3-0.11,2.59-0.22,3.89-0.33l0.46,0.08l0.46-0.04c1.34,3.6-1.87,4.17-3.69,5.79c-0.99,0.88-1.46,2.35-2.17,3.55
			C1132.27,532.68,1125.52,533.31,1118.36,529.93z"/>
		<path class="st115" d="M1138.62,527.92c0.71-1.2,1.18-2.66,2.17-3.55c1.82-1.62,5.03-2.19,3.69-5.79c0.01-0.27,0.02-0.53,0.03-0.8
			l0.02-0.02c0.38-0.08,0.77-0.15,1.15-0.23c0.92-0.29,1.84-0.58,2.77-0.87c3.98,5.96,1.14,12.3,0.96,18.47
			c-0.09,2.96-0.67,5.95-1.45,8.82c-0.96,3.54,0.85,4.01,3.59,3.83c-1.41,0.58-2.81,1.17-5.28,2.19c1.07-9.83,2.02-18.59,3.07-28.32
			C1145.19,524.09,1141.91,526.01,1138.62,527.92z"/>
		<path class="st116" d="M1099.63,496.8c-3.19-7.09-2.25-14.51-1.61-21.87c0.26-2.95,1.15-5.85,1.32-8.79
			c0.06-1.07-1.15-2.21-1.78-3.32c0.99-4.08,1.79-8.22,3.07-12.21c0.47-1.48,2.07-2.59,3.16-3.88c-0.67,3.21-1.54,6.39-1.98,9.63
			C1099.98,469.78,1097.37,483.17,1099.63,496.8z"/>
		<path class="st117" d="M1067.8,360.7c2.56,9.2,7.06,17.15,14.75,23.06c-0.76,0.38-1.52,0.77-2.28,1.15
			c-7.21-5.12-11.91-11.94-13.84-20.61C1066.88,363.09,1067.34,361.89,1067.8,360.7z"/>
		<path class="st118" d="M1080.27,384.91c0.76-0.38,1.52-0.77,2.28-1.15c8.03,3.41,16.19,6.16,25.12,5.08
			c-0.61,0.68-1.17,1.88-1.84,1.95C1096.68,391.67,1087.84,391,1080.27,384.91z"/>
		<path class="st119" d="M1113.44,425.63c-1.56,4.7-3.13,9.39-4.67,14.09c-0.45,1.38-0.85,2.78-1.27,4.17
			c-0.57,0.32-1.15,0.65-1.72,0.97c-0.45,0.4-0.9,0.79-1.35,1.19c-0.5-0.74-1.61-1.79-1.41-2.18
			C1106.15,437.61,1107.06,430.04,1113.44,425.63z"/>
		<path class="st120" d="M1139.5,353.76c0.38,0.01,0.76,0.02,1.14,0.03c-1.67,5.55-3.08,11.2-5.13,16.61
			c-0.94,2.48-3.15,4.48-4.79,6.7c-1.01-0.1-2.02-0.2-3.04-0.3c1.69-3.05,3.39-6.09,5.08-9.14c1.75-2.95,3.62-5.84,5.2-8.89
			C1138.75,357.25,1139,355.44,1139.5,353.76z"/>
		<path class="st121" d="M1254.49,466.67c-1.71,7.39-3.75,14.73-5.04,22.2c-1.37,7.96-2.01,16.04-2.97,24.07
			c0.14-6.2-0.56-12.56,0.6-18.56C1248.9,485.02,1251.96,475.9,1254.49,466.67z"/>
		<path class="st122" d="M1127.68,376.81c1.01,0.1,2.02,0.2,3.04,0.3c-4.39,5.27-8.86,10.4-16.49,10.65
			c1.83-1.46,3.68-2.9,5.49-4.38C1122.38,381.2,1125.03,379,1127.68,376.81z"/>
		<path class="st123" d="M1067.8,360.7c-0.46,1.2-0.91,2.4-1.37,3.6c-2.8-7.62-2.8-15.24-0.01-22.86c0.42,1.48,0.84,2.96,1.26,4.45
			C1067.71,350.82,1067.76,355.76,1067.8,360.7z"/>
		<path class="st116" d="M1096.55,467.78c0.01,1.83,0.1,3.67,0.01,5.5c-0.34,7.23-0.73,14.46-1.1,21.69
			C1093.32,485.81,1094.33,476.77,1096.55,467.78z"/>
		<path class="st124" d="M1104.42,446.05c0.45-0.4,0.9-0.79,1.35-1.19c-0.49,0.65-0.98,1.3-1.48,1.95
			C1104.35,446.57,1104.39,446.31,1104.42,446.05z"/>
		<path class="st62" d="M1256.45,517.76c2.42-8.98,4.83-17.95,7.25-26.93C1261.28,499.81,1258.87,508.79,1256.45,517.76z"/>
		<path class="st125" d="M1163.41,663.83c-13.81-4.69-28.22-4.27-42.5-5.19c-4.5-0.29-8.86-2.61-13.29-4
			c13.17,1.38,26.39,2.43,39.49,4.28C1152.66,659.7,1157.98,662.15,1163.41,663.83z"/>
		<path class="st126" d="M1164.06,662.93c-2.53-2.32-5.19-4.53-7.5-7.06c-0.56-0.61,0.05-2.28,0.12-3.46
			c1.08,0.46,2.54,0.63,3.18,1.44c1.98,2.54,3.64,5.32,5.43,8C1164.87,662.22,1164.47,662.57,1164.06,662.93z"/>
		<path class="st127" d="M865.63,424.83c0.85-0.62,1.69-1.24,2.85-2.09c-1.49-0.75-2.69-1.34-3.88-1.94
			c6.14,1.05,2.54-5.32,5.63-7.13c0.46,5.19,0.9,10.17,1.38,15.57C869.33,427.55,867.48,426.19,865.63,424.83z"/>
		<path class="st128" d="M883.49,469.72c1.19-2.08,2.38-4.17,3.62-6.34c-5.31-2.93-10.44-5.76-15.56-8.59
			c6.03,2.42,12.06,4.83,19.26,7.72C887.76,465.51,885.63,467.62,883.49,469.72z"/>
		<path class="st98" d="M1237.55,609.81c-4.14,5.06-9.96,5.36-15.97,0.84c0.65,0.1,1.31,0.15,1.94,0.31
			c9.36,2.41,13.23-0.05,14.92-9.47c0.28-1.58,0.67-3.14,1.01-4.72C1238.81,601.11,1238.18,605.46,1237.55,609.81z"/>
		<path class="st29" d="M1267.53,588.72c-7.58,2.12-14.92,1.73-21.97-2C1252.88,587.39,1260.21,588.06,1267.53,588.72z"/>
		<path class="st89" d="M827.54,445.81c-1.44-0.25-2.89-0.5-5.32-0.93c2.29-2.54,4.34-4.82,6.39-7.1c-1.94,3.48-0.85,6.08,2.01,8.62
			c11.05,9.85,23.65,17.03,37.4,22.32c0.6,0.23,1.17,0.54,2.7,1.24c-2.59,2.56-4.84,4.78-7.1,7.01c1.33-2.19,2.66-4.38,3.36-5.54
			c-11.78-7.18-23.75-14.42-35.63-21.79C829.87,448.73,828.8,447.11,827.54,445.81z"/>
		<path class="st129" d="M1168.25,673.92c1.4,4.29,2.79,8.58,4.19,12.87c-0.48-0.4-0.97-0.8-1.68-1.38
			c-0.12,0.99-0.21,1.75-0.3,2.51c-2.66-6.94-5.32-13.89-7.98-20.83c0.73,0.24,1.47,0.47,2.2,0.71
			C1165.88,669.84,1167.07,671.88,1168.25,673.92z"/>
		<path class="st39" d="M1140.51,665.82c3.59,11.56,2.88,22.88-1.84,33.99c-0.37,0.88-0.87,1.7-1.33,2.57
			c-5.93-4.03-6.26-5.79-2.87-14.59c1.37-5.86,2.67-11.73,4.13-17.56C1139,668.7,1139.86,667.29,1140.51,665.82z"/>
		<path class="st96" d="M1148.48,663.84c1.56-0.52,3.44-2.37,4.07,0.98c-0.16,0.83-0.65,1.77-0.42,2.47
			c3.01,9.07,6.15,18.1,9.15,27.17c0.25,0.76-0.3,1.79-0.48,2.7c-0.46,0.2-0.92,0.39-1.39,0.59c-1.53-2.69-3.59-5.2-4.48-8.09
			c-2.41-7.85-4.32-15.86-6.43-23.8C1148.49,665.19,1148.49,664.51,1148.48,663.84z"/>
		<path class="st130" d="M1148.48,663.84c0.01,0.67,0.02,1.34,0.02,2.02c-2.66-0.01-5.33-0.03-7.99-0.04
			c-0.65,1.47-1.51,2.88-1.9,4.41c-1.46,5.83-2.77,11.7-4.13,17.56c1.01-5.83,2.29-11.63,2.94-17.5c0.71-6.3,0.45-6.23-5.75-6.44
			c-3.06-0.1-6.11-0.64-9.17-0.98C1131.16,663.19,1139.82,663.52,1148.48,663.84z"/>
		<path class="st20" d="M1139.5,353.76c-0.49,1.68-0.74,3.49-1.53,5.02c-1.57,3.04-3.45,5.93-5.2,8.89c-5,2.35-9.84,6.21-15.04,6.78
			c-15.75,1.72-26.64-15.26-20.31-30.84c3.51-8.65,9.74-14.39,19.22-15.44c8.79-0.97,15.17,3.42,19.85,10.59
			C1137.48,343.76,1138.49,348.76,1139.5,353.76z"/>
		<path class="st60" d="M1167.41,414.84c5.75,1.57,11.52,3.05,17.22,4.74c1.7,0.5,3.24,1.57,4.85,2.38c0.93,0.65,1.86,1.31,2.8,1.96
			c10.83,8.83,21.6,17.73,32.52,26.43c3.67,2.92,4.79,6,2.74,10.37c-6.26,13.41-12.35,26.91-18.61,40.32
			c-0.67,1.45-1.87,2.81-3.14,3.79c-15.47,11.9-31.5,22.94-49.36,31.04c-0.42,0.19-0.95,0.13-2.13,0.26
			c0.19-1.78,0.35-3.33,0.51-4.87c1.59-1.39,3.07-2.96,4.8-4.16c8.88-6.14,18.01-11.95,26.7-18.35c5.27-3.88,11.82-7.71,14.46-13.17
			c6.4-13.26,10.91-27.43,15.99-41.31c0.45-1.23,0.1-3.61-0.8-4.36c-9.28-7.78-18.5-15.65-28.24-22.82
			C1181.38,422.43,1174.21,418.88,1167.41,414.84z M1215.78,474.76c0.41,0.1,0.82,0.21,1.22,0.31c5.12-9.01,6.87-15.43,4.63-19.19
			C1219.58,462.51,1217.68,468.64,1215.78,474.76z"/>
		<path class="st0" d="M1132.49,503.82c-10.75-6.08-18.39-14.57-20.92-27.02c0-2.94,0-5.88,0-9.13c1.9,0.68,3.37,1.22,4.75,1.71
			c0.08,0.56,0.19,0.89,0.17,1.21c-0.32,4.4-0.33,8.15,4.78,10.69c3.47,1.73,5.84,5.64,8.76,8.52c0.17,0.17,0.87-0.19,1.03-0.24
			c-1.24-3.33-2.27-6.65-3.76-9.74c-0.38-0.79-2.4-0.63-3.39-1.31c-1.58-1.09-4.27-2.71-4.12-3.78c0.72-5.15-1.2-8-5.98-9.54
			c-0.91-0.29-1.47-1.64-2.2-2.5c0.74-9.58,1.45-19.17,2.3-28.75c0.07-0.78,1.08-1.47,1.65-2.21c0.34,3.38,0.75,6.76,0.99,10.16
			c0.78,10.9,6.79,18.71,14.83,25.34c7.79,8.44,15.15,17.09,17.5,28.9c0.75,3.78,0.19,6.33-3.86,6.84
			C1140.86,503.5,1136.66,503.56,1132.49,503.82z"/>
		<path class="st131" d="M1139.66,518.88c-1.64,1.34-3.29,2.67-4.93,4.01c-5.66,0.34-11.48,2.51-16.73-1.75
			c-0.94-0.76-2.45-0.83-3.69-1.22c-0.89-0.43-1.78-0.87-2.66-1.3c-1.69-2.64-3.38-5.27-5.07-7.91c4.27,2.42,8.6,4.73,12.79,7.28
			c5.99,3.65,12.07,3.42,18.31,0.86C1138.34,518.86,1139,518.87,1139.66,518.88z"/>
		<path class="st132" d="M1107.45,447.8c0.06,9.33,0.11,18.67,0.17,28c-0.37-2.02-1.08-4.05-1.04-6.06
			C1106.73,462.43,1107.14,455.12,1107.45,447.8z"/>
		<path class="st133" d="M1139.66,518.88c-0.66-0.01-1.32-0.02-1.98-0.02c1.64-0.7,3.28-1.39,4.91-2.09c0.64,0.33,1.28,0.67,1.92,1
			l-0.02,0.02c-0.32,0.25-0.63,0.51-0.95,0.76C1142.26,518.66,1140.96,518.77,1139.66,518.88z"/>
		<path class="st134" d="M1144.52,517.77c-0.64-0.33-1.28-0.67-1.92-1c0.98-0.29,1.97-0.59,2.95-0.88c0.04,0.55,0.09,1.1,0.13,1.66
			C1145.29,517.62,1144.9,517.7,1144.52,517.77z"/>
		<path class="st102" d="M1167.41,414.84c6.8,4.05,13.97,7.6,20.31,12.26c9.74,7.17,18.97,15.05,28.24,22.82
			c0.9,0.75,1.25,3.13,0.8,4.36c-5.08,13.87-9.59,28.05-15.99,41.31c-2.64,5.46-9.18,9.29-14.46,13.17
			c-8.69,6.4-17.81,12.21-26.7,18.35c-1.73,1.2-3.21,2.77-4.8,4.16c0.23-5.47,0.08-10.98,0.75-16.39
			c2.33-18.82-5.43-34.12-17.74-46.95c-9.26-9.65-15.21-20.4-18.16-33.16c0.06-17.34,0.06-17.37,17.34-20.34
			c3.87-0.67,7.8-1.03,11.7-1.54C1154.95,413.54,1161.18,414.19,1167.41,414.84z"/>
		<path class="st135" d="M1111.6,462.71c0.72,0.86,1.29,2.21,2.2,2.5c4.77,1.53,6.7,4.39,5.98,9.54c-0.15,1.06,2.55,2.69,4.12,3.78
			c0.99,0.68,3.01,0.52,3.39,1.31c1.5,3.09,2.52,6.41,3.76,9.74c-0.16,0.04-0.86,0.4-1.03,0.24c-2.92-2.88-5.29-6.79-8.76-8.52
			c-5.11-2.54-5.1-6.29-4.78-10.69c0.02-0.32-0.08-0.65-0.17-1.21c-1.37-0.5-2.85-1.03-4.75-1.71c0,3.25,0,6.19,0,9.13
			C1111.58,472.1,1111.59,467.41,1111.6,462.71z"/>
		<path class="st136" d="M1114.32,519.92c1.24,0.39,2.75,0.46,3.69,1.22c5.24,4.25,11.06,2.08,16.73,1.75
			C1128.31,526.66,1120.94,525.59,1114.32,519.92z"/>
		<path class="st134" d="M1143.55,518.55c0.32-0.25,0.63-0.51,0.95-0.76c-0.01,0.27-0.02,0.53-0.03,0.8l-0.46,0.04L1143.55,518.55z"
			/>
		<path class="st137" d="M1215.78,474.76c1.9-6.12,3.8-12.25,5.85-18.88c2.24,3.75,0.5,10.17-4.63,19.19
			C1216.6,474.97,1216.19,474.86,1215.78,474.76z"/>
	</g>
	<path class="st28" d="M877.62,367.06c0,0,14.25-6.22,41.07-51.48s59.83-95.49,59.83-95.49l27.18-34.66l12.42,1.45l-11.46,11.94
		c0,0-12.99,15.28-29.19,39.35s-58.79,93.92-58.79,93.92s-6.55,19.24-19.23,28.62s-31.43,19.66-31.43,19.66l4.57-7.56L877.62,367.06
		z"/>
	<path class="st28" d="M1054.82,151.84c-0.35,2.57,10.39,17.72,10.75,17.93c0.36,0.22,9.54,6.78,13.2,9.06
		c3.66,2.28,15.06,8.04,15.06,8.04l-18.22-14.76L1054.82,151.84z"/>
	<path class="st28" d="M1143.73,282.89"/>
	<path class="st108" d="M938.96,355.06c-1.18,11.59-1.42,48.25,0,49.43c1.42,1.18,22.4,18.69,26.57,22.12s18.11,10.06,26.87,9.23
		c8.76-0.84,39.04-10.86,36.91-28.91s-2.6-53.17-2.6-53.17s-0.47-20.67-13.01-28.96c-12.54-8.29-17.27-10.42-17.27-10.42
		s-15.84,6.09-21.76,7.45c-12.64,2.89-31.3,21.99-31.3,21.99L938.96,355.06z"/>
</g>
<g id="Layer_3">
</g>
<g id="Layer_2">
	<g>
		<path class="st5" d="M856.66,572.43c-12.42-10.07-23.13-21.83-32.56-34.73c-0.77-1.06-0.38-2.96-0.52-4.47
			c3.92,3.4,7.6,6.27,9.27,10.04c1.34,3.02,2.56,4.46,5.63,4.54c0.06-0.42,0.12-0.83,0.18-1.26
			c-10.97-14.61-21.95-29.21-32.92-43.82c-2.4-3.31-4.8-6.61-7.2-9.92c4.25,10.11,8.51,20.21,12.49,29.67c0,0,0,0-0.01,0
			c-3.98-9.46-8.24-19.55-12.48-29.66c-2.28-6.41-4.58-12.81-6.87-19.21c2.29,6.4,4.58,12.8,6.88,19.21c2.4,3.31,4.8,6.61,7.2,9.92
			c-4.7-9.72-9.39-19.45-14.09-29.17c0,0,0,0,0,0c-0.05-0.57-0.11-1.14-0.16-1.71c-0.09-1.14-0.02-2.31-0.28-3.41
			c-2.05-8.68-4.4-17.3-6.12-26.05c-0.79-4.03-0.36-8.3-0.49-12.46c-1.28,0.31-2.56,0.63-3.84,0.95c0.25,2.31,0.51,4.61,0.76,6.92
			c0.01,0.03,0.01,0.06,0.02,0.08c0.46,5.54,0.51,11.16,1.5,16.61c1.45,7.89,3.59,15.64,5.44,23.45
			c3.89,15.54,10.72,29.72,19.69,42.93c0,0,0,0,0.01,0c0.48,0.88,0.88,1.79,1.43,2.6c13.17,18.95,28.89,35.59,46.02,50.98
			c18.12,16.28,37.78,30.46,58.33,43.45c1.64,1.04,3.69,1.44,5.54,2.14c-6.3-4.24-12.85-8.14-18.84-12.76
			C885.85,595.86,871.19,584.22,856.66,572.43z M782.69,443.63c0.91,2.36,2.04,4.68,2.66,7.11c1.27,4.97,2.26,10.02,3.37,15.03
			C786.72,458.39,784.7,451.01,782.69,443.63z"/>
		<path class="st5" d="M818.43,415.9c0.04,0.4,0.08,0.8,0.12,1.2c-2.66,1.58-5.33,3.15-7.99,4.73c5.96-1.55,11.91-3.2,17.91-4.59
			c1.36-0.31,2.92,0.28,4.39,0.45c0.86,0.11,1.72,0.21,2.58,0.31c-5.13-2.95-8.36-7.82-12.15-12.12c0.81,1.55,1.61,3.11,2.6,5.01
			c-1.4,0.4-2.44,0.74-3.51,1.01c-15.71,3.93-31.43,7.85-47.14,11.77c10.36-1.97,20.71-3.99,31.07-5.92
			C810.33,417.01,814.39,416.51,818.43,415.9z"/>
		<path class="st5" d="M1073.43,682.04c0,0-17.54-2.66-17.82-2.88c-0.28-0.22-71.12-31.36-71.12-31.36l7.52,7.97
			c0,0,63.48,27.07,63.77,26.85s8.05,0,8.05,0l-46.12,9.2l-6.01,4.97c0,0-23.01,35.15-23.8,35.67c-0.78,0.52-13.11,28.7-13.11,28.7
			l7.76-2.37l6.92-18.03l24.13-38.4l11.5-8.38l53.83-8.14L1073.43,682.04z"/>
	</g>
	<path class="st5" d="M777.49,429.24l5.56,25.26l10.67,36.33l30.38,46.87l35.46,40.21l65.68,45.85l-2.86-10.86l-44.76-27.41
		l-46.8-49.36L802,494.97c0,0-9.98-26-13.28-29.2s-4.11-35.83-4.11-35.83L777.49,429.24z"/>
	<polygon class="st5" points="769.71,424.84 822.38,411.9 832.85,409.5 837.78,417.69 818.42,419.76 784.61,429.94 764.93,429.94 	
		"/>
	<path class="st5" d="M818.72,389.91l42.87-9.55v2.5l-27.06,8.37l-12.91,4.09l12.23,15.84l16.65,10.14l4.55,2.77l-14.22,1.83
		l-11.96,12.14l-5.42,5.5l7.17,2.86l10.98,6.7c0,0,12.99,10.35,17.96,12.66s8.46,2.96,8.46,2.96l-6.87,4.14l-14.68-4.61l-18.2-11.4
		l-7.75-8.06l-1.33-4.37l3.36-3.59l16.83-14.23l-6.53-12.94l-10.3-9.93L818.72,389.91z"/>
	<path class="st5" d="M920.99,620.79c1.62,1.13,38.91,22.24,40.55,23.19s38.06,17.7,40,18.95s58.67,22.93,58.67,22.93l2.22-5.19
		l-56.89-23.91l-48.47-21.84l-31-18.08l-17.43-9L920.99,620.79z"/>
	<path class="st5" d="M974.78,761.18c0,0,10.56-23.96,11.84-26.33s21.05-35.65,23.06-36.85s8.03-6.17,8.03-6.17l31.72-6.11
		l19.78-4.32l25.55,0.66l-2.02,3.81l-44.19,2.83l-23.46,5.31l-10.57,6.21l-12.98,17.45l-18.91,38.28l24.94,1.62l30.36-1.39
		l26.77-2.22l9.05-2.93l14.89-10.23l10.86-11.97l8.13-18.1l2.91,3.59l-4.46,14.51l-7.24,5.06l-8.49,9.31L1074.41,756l-16.3,5.18
		l-34.57,2.63l-18.06,2.2l-25.14-1.53L974.78,761.18z"/>
	<polygon class="st5" points="1054.41,728.63 1050.16,721.87 1051.54,717.37 1059.87,710.7 1085.42,703.75 1114.04,700.27 
		1111.66,705.83 1102.38,703.89 1086.88,704.49 1075.11,711.81 1060.44,720.76 1056.61,727.36 	"/>
	<path class="st5" d="M1111.59,701.83l2.1-7.09l0.01-7.85l-11.32-1.18l-15.24,0.52v-4.82l27.08,1.11l0.69-5v-14.46l-11.45-8.41
		l12.26,0.83l27.06,3.39l18.03,4.15l0.54,2.23h-14.81l-16.16-3.28l-12.82-1.05c0,0,0,22.25,0,22.65s0,6.23,0,6.23l-1.17,16.05
		l-8.18,17.87l-4.74,13.67l-4.77-5.56L1111.59,701.83z"/>
	<polygon class="st5" points="1102.38,733.44 1118.69,740.78 1141.48,744.34 1146.01,746.54 1154.51,750.65 1149.42,752.87 
		1133.36,751.31 1122.5,748.77 1111.59,744.8 1103.46,737.37 1100.47,733.88 	"/>
	<polygon class="st5" points="1160.3,739.39 1171.79,722.84 1177.56,707.05 1179.63,714.45 1171.55,731.8 1166.7,740.27 
		1154.51,750.65 1151.55,746.79 	"/>
	<path class="st5" d="M1218.16,608.54c0,0,5.55,7.04,12.47,4.15s9.9-15.49,8.82-17.83c-1.08-2.34-4.29-14.95-4.29-14.95
		s5.27,11.4,6.49,13.65s4.76,8.39,2.22,14.98s-1.51,13.95-10.07,11.51c-8.56-2.44-14.62-3.21-14.62-3.21L1218.16,608.54z"/>
	<path class="st5" d="M1237.94,581.74c0,0,6.28,5.87,12.62,7.06c6.34,1.19,19.82,0,19.82,0l9.52-5.73l3.68-1.33
		c0,0-5.26,7.94-5.86,8.27s-4.24,2.79-4.24,2.79s0.03,3.67-10.17,3.48s-18.22-4.83-21.36-6.69S1237.94,581.74,1237.94,581.74z"/>
	<path class="st5" d="M1254.55,536.13c-0.61-0.64-1.24-8.55-0.96-11.02c0.28-2.48,19.89-69.23,19.89-69.23l26.59-103.01l14.43-53.41
		l9.72,4.27c0,0-5.26,20.12-5.53,21.07c-0.27,0.95-42.16,140.67-42.16,140.67s-16.18,64.69-17.49,65.79s-2.58,8.57-2.58,8.57
		L1254.55,536.13z"/>
</g>
</svg>
