<?xml version="1.0" encoding="utf-8"?>
<!-- Generator: Adobe Illustrator 25.4.1, SVG Export Plug-In . SVG Version: 6.00 Build 0)  -->
<svg version="1.1" xmlns="http://www.w3.org/2000/svg" xmlns:xlink="http://www.w3.org/1999/xlink" x="0px" y="0px"
	 viewBox="0 0 1920 1080" style="enable-background:new 0 0 1920 1080;" xml:space="preserve">
<style type="text/css">
	.st0{fill:#F7F0F2;}
	.st1{fill:#9297C9;}
	.st2{fill:#143286;}
	.st3{fill:#133286;}
	.st4{fill:#123286;}
	.st5{fill:#153488;}
	.st6{fill:#153286;}
	.st7{fill:#1E3587;}
	.st8{fill:#163487;}
	.st9{fill:#163488;}
	.st10{fill:#FDFDFD;}
	.st11{fill:#1B3688;}
	.st12{fill:#153386;}
	.st13{fill:#203B8A;}
	.st14{fill:#203C8C;}
	.st15{fill:#163386;}
	.st16{fill:#333C89;}
	.st17{fill:#223E8C;}
	.st18{fill:#3B5398;}
	.st19{fill:#1E3989;}
	.st20{fill:#4E61A0;}
	.st21{fill:#435A9E;}
	.st22{fill:#6374AB;}
	.st23{fill:#40579B;}
	.st24{fill:#203687;}
	.st25{fill:#FCFCFD;}
	.st26{fill:#FEFEFE;}
	.st27{fill:#113186;}
	.st28{fill:#E67A64;}
	.st29{fill:#303E8A;}
	.st30{fill:#FEE792;}
	.st31{fill:#3C3F8A;}
	.st32{fill:#283988;}
	.st33{fill:#2F438E;}
	.st34{fill:#274491;}
	.st35{fill:#193688;}
	.st36{fill:#566DA8;}
	.st37{fill:#1F3687;}
	.st38{fill:#1B3588;}
	.st39{fill:#3D438B;}
	.st40{fill:#254290;}
	.st41{fill:#1C388A;}
	.st42{fill:#CD6699;}
	.st43{fill:#123186;}
	.st44{fill:#5B71AB;}
	.st45{fill:#2F4993;}
	.st46{fill:#323C89;}
	.st47{fill:#1D3B8C;}
	.st48{fill:#1F3788;}
	.st49{fill:#193889;}
	.st50{fill:#413E8B;}
	.st51{fill:#2F3C89;}
	.st52{fill:#333A89;}
	.st53{fill:#4F66A5;}
	.st54{fill:#5C72AB;}
	.st55{fill:#8999C3;}
	.st56{fill:#C8C1D8;}
	.st57{fill:#294591;}
	.st58{fill:#223B8B;}
	.st59{fill:#7F5392;}
	.st60{fill:#1F3587;}
	.st61{fill:#684A8F;}
	.st62{fill:#E3E5E9;}
	.st63{fill:#9499CA;}
	.st64{fill:#143387;}
	.st65{fill:#193789;}
	.st66{fill:#1B3989;}
	.st67{fill:#1A3889;}
	.st68{fill:#25428E;}
	.st69{fill:#203E8C;}
	.st70{fill:#213E8B;}
	.st71{fill:#F8EFE5;}
	.st72{fill:#1B3887;}
	.st73{fill:#374683;}
	.st74{fill:#22408D;}
	.st75{fill:#F7F0EB;}
	.st76{fill:#394E88;}
	.st77{fill:#375091;}
	.st78{fill:#4A62A2;}
	.st79{fill:#213F8E;}
	.st80{fill:#566DA9;}
	.st81{fill:#858DC0;}
	.st82{fill:#DDD9E7;}
	.st83{fill:#765390;}
	.st84{fill:#274490;}
	.st85{fill:#385299;}
	.st86{fill:#52478D;}
	.st87{fill:#8F5A94;}
	.st88{fill:#46418B;}
	.st89{fill:#FDFDFE;}
	.st90{fill:#1C3487;}
	.st91{fill:#4A418C;}
	.st92{fill:#57448D;}
	.st93{fill:#163286;}
	.st94{fill:#383E8A;}
	.st95{fill:#F4EDF3;}
	.st96{fill:#E4CEDF;}
	.st97{fill:#5568A7;}
	.st98{fill:#F8EFEB;}
	.st99{fill:#4E4E8D;}
	.st100{fill:#E9A172;}
	.st101{fill:#E8A172;}
	.st102{fill:#FCFCFC;}
	.st103{fill:#FAFAFB;}
	.st104{fill:#2A3F86;}
	.st105{fill:#5E73AD;}
</style>
<g id="Layer_1">
	<g>
		<path class="st0" d="M793.34,883.65c0.03-3.01,0.06-6.03,0.09-9.04c0.37,0.02,0.74,0.03,1.11,0.05c0,2.99,0,5.99,0,8.98
			c0.48,0.21,0.95,0.42,1.43,0.63c10.14-8.23,20.28-16.46,30.41-24.68c7.32,0.06,14.69-0.38,21.96,0.28
			c27.5,2.49,54.45,0.16,80.87-7.98c2.76-0.85,5.59-1.48,8.85-2.34c-0.43,2.67-0.48,4.68-1.1,6.5c-1.37,4.03,0.79,4.74,3.98,4.57
			c1.31-0.07,2.63-0.33,3.9-0.66c15.27-3.89,29.6-9.96,42.94-18.37c25.98-16.39,46.07-38.68,62.56-64.17
			c7.71-11.92,13.48-25.1,20.21-37.66c0.64-1.19,1.86-2.07,2.81-3.1c0.82,1.1,2.03,2.09,2.4,3.32c1.27,4.28,2.21,8.66,3.36,12.98
			c1.43,5.36,2.4,5.74,7.05,2.73c1.11-0.72,2.07-1.67,3.07-2.53c9.75-8.37,13.34-20.04,16.83-31.7c4.04-13.49,4.57-27.46,5.12-41.42
			c0.07-1.79,1.35-3.53,2.07-5.3c9.95,3.04,19.91,6.08,29.86,9.11c5.2,1.53,10.35,3.22,15.61,4.54c11.83,2.97,23.7,5.76,35.55,8.62
			c9.56,1.89,19.14,3.67,28.67,5.72c4.74,1.02,9.37,2.55,14.05,3.86c-9.25,4.34-18.53,8.6-27.73,13.03
			c-5.57,2.68-9.15,7.16-10.92,13.09c-1.34,2.67-2.69,5.33-4.03,8c-6.29,18.72-12.73,37.39-18.79,56.19
			c-1.63,5.07-0.35,6.23,5.07,5.87c29.52-1.94,57.73-9.33,84.73-21.2c4.12-1.81,7.69-5.69,10.53-9.38
			c5.03-6.52,9.31-13.62,13.32-19.6c6.35,2.88,11.78,6.27,17.69,7.77c6.2,1.57,12.85,1.35,19.31,1.89
			c16.12,1.35,27.11-5.52,33.07-20.55c0.36-0.91,1.19-1.63,1.92-2.58c1.75,7.6,2.9,14.84,5.15,21.73
			c1.81,5.55,4.96,10.66,7.51,15.97c1.16,0.89,2.19,2.18,3.5,2.62c16.7,5.5,33.24,11.69,50.27,15.89
			c7.03,1.74,15.13-0.85,22.75-1.47c-0.36-4.69-0.53-9.41-1.12-14.07c-2.87-22.5-8.53-44.33-16.15-65.66
			c-0.85-2.38-2.28-5.43-4.29-6.38c-10.02-4.75-20.33-8.91-30.53-13.27c-0.4-0.12-0.81-0.25-1.21-0.37
			c-0.48-0.65-0.96-1.29-1.07-1.44c14.49-10.51,25.84-23.77,36.39-37.82c3.26-4.04,6.51-8.08,9.77-12.12
			c2.7-1.7,3.89,0.15,4.93,2.15c5.58,10.74,11.69,21.25,16.59,32.3c16.33,36.75,26.52,75,26.58,115.53
			c-3.06,10.67-5.34,21.64-9.31,31.97c-13.12,34.18-33.22,63.8-60.05,88.8c-1.66,0.9-3.31,1.81-5.51,3
			c-0.86-4.29-1.57-7.89-2.38-11.94c-3.71,4.76-6.8,9.3-10.46,13.33c-15.72,17.31-33.21,32.54-53.4,44.52
			c-9.36,3.8-18.68,7.7-28.1,11.32c-2.31,0.89-4.97,0.85-7.68,1.27c-0.22-3.61-0.38-6.31-0.58-9.67
			c-5.37,3.66-10.11,6.89-14.85,10.13c-8.3,4.88-16.5,9.93-24.91,14.61c-24.62,13.73-51.58,20.91-78.59,27.96
			c-42.93,11.22-86.4,16.82-130.8,12.64c-17.71-1.67-35.41-3.52-53.11-5.28c-17.73-2.93-35.46-5.85-53.19-8.78
			c-3.88-0.42-7.76-0.83-11.64-1.25c-0.55-0.54-1.03-1.42-1.66-1.56c-5.49-1.19-11.01-2.24-16.53-3.34
			c-7.46-1.89-14.9-3.88-22.41-5.58c-1.23-0.28-2.74,0.73-4.13,1.15c1.12,1.2,2.11,2.59,3.41,3.53c0.67,0.48,1.9,0.18,2.88,0.23
			c1.03,0.68,1.98,1.56,3.1,2c3.36,1.31,6.79,2.45,10.19,3.66c-0.99-0.01-2.04,0.17-2.97-0.07c-14.03-3.73-28.07-7.41-42.05-11.31
			c-12.08-3.37-24.08-7-36.12-10.52c-1.01-0.5-2.02-1.03-3.05-1.51c-12.69-5.96-27.77-5.08-39.53-14.22
			c-2.57-1.99-2.35-3.57-2.36-5.56c-0.08-26.92-0.03-53.85-0.1-80.77C794.37,888.86,793.7,886.26,793.34,883.65z"/>
		<path class="st1" d="M796.13,561.85c15.36-8.95,30.73-17.85,46.06-26.85c13.63-8,27.14-16.19,40.83-24.08
			c2.37-1.36,3-2.9,2.7-5.27c1.06,2.14,2.26,4.22,3.14,6.42c13.26,33,20.18,67.45,22.27,102.8c1.64,27.78-0.25,55.42-5.59,82.85
			c-8.39,43.16-23.34,83.39-50.02,118.88c-16.86,22.43-36.67,41.58-60.05,57.07c-0.02-102.31-0.04-204.62-0.02-306.93
			C795.46,565.11,795.89,563.48,796.13,561.85z"/>
		<path class="st2" d="M795.48,873.67c23.38-15.48,43.19-34.63,60.05-57.07c26.67-35.49,41.62-75.73,50.02-118.88
			c5.33-27.42,7.23-55.06,5.59-82.85c-2.09-35.35-9.01-69.8-22.27-102.8c-0.89-2.21-2.09-4.28-3.14-6.42
			c-2.55-5.53-2.41-5.3-7.53-2.22c-23.68,14.24-47.46,28.32-71.18,42.5c-1.94,1.16-3.73,2.6-5.58,3.9
			c-3.89,1.79-7.78,3.57-12.52,5.75c0.79-1.98,1.15-2.86,1.5-3.75c15.09-9.27,30.19-18.52,45.27-27.81c1.63-1,3.16-2.15,4.74-3.23
			c8.41-4.95,16.82-9.89,25.23-14.84c6.59-4.3,13.09-8.77,19.84-12.81c1.93-1.15,4.61-1.06,6.94-1.54c1.65,2.77,3.3,5.54,4.95,8.3
			c1.24,0.36,2.62,1.27,3.68,0.98c2.52-0.71,4.89-1.98,7.32-3.02c-2.88,2-5.76,4.01-8.64,6.01c0.21,0.38,0.43,0.75,0.64,1.13
			c1.57-0.67,3.16-1.29,4.7-2.03c4.86-2.31,9.7-4.66,14.56-7c-3.53,2.17-7.02,4.39-10.59,6.49c-8.43,4.99-8.45,4.97-4.57,14.29
			c0.07,0.49,0.07,1,0.21,1.47c13.59,46.04,19.57,92.82,14.93,140.86c-3.01,31.16-9.82,61.31-21.33,90.38
			c-10.01,25.28-21.45,49.97-37.95,71.69c-10.31,13.57-22.58,25.66-33.97,38.41c-10.14,8.23-20.28,16.46-30.41,24.68
			c-0.48-0.21-0.95-0.42-1.43-0.63c0-2.99,0-5.99,0-8.98C794.84,874.33,795.16,874,795.48,873.67z"/>
		<path class="st3" d="M1133.17,133.63c1.94,1.54,3.88,3.08,5.81,4.62c6.72,4.37,13.45,8.75,20.17,13.13l-0.09-0.08
			c19.17,10.71,38.61,19.77,61.07,22.47c33.46,4.03,66.32,11.76,98.76,20.99c17.69,5.03,35.32,10.29,52.97,15.44
			c16.42,5.66,32.83,11.32,49.25,16.99l-0.05-0.04c4.98,4.48,3.48,10.5,3.35,15.92c-1.04,43.37-2.32,86.74-3.52,130.11
			c-0.82,29.58-1.67,59.16-2.39,88.74c-0.18,7.49,1.66,14.48,6.53,20.43c2.54,3.22,5.08,6.44,7.61,9.66
			c0.3,0.59,0.61,1.18,0.91,1.76c-9.88-7.03-16.02-16.45-16.25-28.67c-0.24-12.59,0.52-25.21,0.87-37.81
			c0.65-23.05,1.34-46.09,1.99-69.13c0.36-12.6,0.75-25.21,0.99-37.81c0.4-21.75,0.61-43.51,1.07-65.27
			c0.13-6.41,0.81-12.81,1.25-19.45c-2.27,0-3.84,0-5.52,0c-0.34,4.03-0.68,8.11-1.03,12.3c-0.6-0.45-1.24-0.93-2.34-1.75
			c-0.17,1.41-0.4,2.34-0.38,3.27c0.19,10.04,0.58,20.09,0.58,30.13c0,9.87-0.53,19.74-0.54,29.61c-0.01,5.12,0.88,10.23,0.85,15.35
			c-0.03,6.36-0.85,12.72-0.87,19.08c-0.09,37.61-0.04,75.21-0.05,112.82c0,3.6-0.1,7.19-0.15,10.79
			c-0.27-5.71-0.54-11.41-0.8-17.12c-0.07-36.29-0.14-72.57-0.21-108.86c0.01-35.1,0.01-70.21,0.04-105.31
			c0-3.26-1.31-5.14-4.55-6.17c-27.43-8.69-54.53-18.59-82.29-26.01c-36.13-9.65-72.77-17.39-109.2-25.9
			c-7.54-1.76-15.13-3.33-22.7-4.99c0.69-0.43,1.39-0.85,2.34-1.44c-1.09-0.75-1.45-1.09-1.87-1.27
			c-20.13-8.56-40.27-17.13-57.52-31.03c-9.05-7.29-17.94-14.74-23.97-24.94c0.41-0.04,0.81-0.07,1.22-0.11
			C1120.73,120.58,1126.95,127.1,1133.17,133.63z M1418.56,229.14c-22.05-12.96-171.39-53.66-186.86-50.83
			c4.1,1.1,7.19,1.97,10.31,2.76c32.57,8.25,65.22,16.21,97.69,24.83c15.83,4.2,31.54,9.04,46.89,14.71
			c8.44,3.12,18.04,2.82,25.56,8.74C1413.18,230.16,1415.52,229.3,1418.56,229.14z"/>
		<path class="st4" d="M970.85,86.31c6.16-4.37,12.33-8.75,18.49-13.12c5.16-2.22,10.33-4.43,15.49-6.65
			c0.28,0.37,0.57,0.74,0.85,1.11c-0.81,1.51-1.61,3.02-2.42,4.52c-3.03-2.19-3.98,1.67-6.11,2.1c-1.23,0.74-2.52,1.39-3.68,2.22
			c-9.62,6.91-19.22,13.85-28.83,20.77c-2.93,2.29-6.18,4.29-8.66,6.99c-1.47,1.6-2.84,4.61-2.34,6.47
			c2.39,8.92,4.88,17.9,8.39,26.42c4.14,10.06,11.4,18.09,18.6,26.26c4.47,5.07,8.32,5.93,14.48,5.11
			c14.41-1.94,28.92-3.69,43.43-4.18c12.04-0.41,24.21,0.52,36.2,1.89c21.22,2.42,42.22,6.23,62.58,12.94
			c0.77,0.25,1.3,1.2,1.94,1.83c-4.99,1.01-9.99,2.01-14.98,3.02c-5.29,2.12-10.57,4.25-15.86,6.37c-2.34,1.32-4.69,2.63-7.03,3.95
			c-2.9-3.09,0.26-5.53,0.9-8.24c7.39-2.2,14.77-4.41,23.23-6.93c-1.99-1.21-3.52-2.69-5.31-3.12c-5.6-1.36-11.26-2.7-16.98-3.39
			c-16.71-2.02-33.43-4.07-50.21-5.39c-7.54-0.6-15.23,0.33-22.82,0.87c-12.2,0.86-24.44,1.51-36.53,3.18
			c-6.4,0.88-12.04,1.57-16.77-3.76c-0.33-0.38-1.25-0.23-1.9-0.33c-0.86-0.75-1.85-1.4-2.57-2.27
			c-12.18-14.85-19.39-31.94-23.2-50.66c-1.07-5.24,0.34-8.8,4.36-12.17C959.58,97.11,965.13,91.6,970.85,86.31z"/>
		<path class="st3" d="M1121.3,154.15c-8.98-6.01-17.96-12.01-26.94-18.02c-1.05-0.97-2.08-1.97-3.15-2.92
			c-7.19-6.37-14.49-12.61-21.54-19.12c-4.92-4.54-7-10.38-6.56-17.09c0.73-10.94,1.93-21.87,2.01-32.81
			c0.07-9.46,4.81-14.5,13.06-17.34c-0.29,1.12-0.58,2.23-0.88,3.35c-1.34,2-2.68,3.99-4.01,5.99c-5.12,12.21-6.11,25.05-4.27,37.89
			c0.8,5.53,4.18,10.7,6.39,16.03c0.76,0.72,1.51,1.43,2.27,2.15c9.92,11.9,22.65,20.33,35.61,28.34
			c16.2,10.02,32.68,19.58,49.04,29.33c2.4,1.83,4.8,3.66,7.2,5.49c-4.42-0.79-8.56-2.36-12.64-4.05c-1.73-0.72-3.32-1.78-5.04-2.53
			c-1.69-0.73-3.56-1.07-5.19-1.9c-6.27-3.17-12.48-6.46-18.71-9.7C1125.73,156.21,1123.52,155.18,1121.3,154.15z"/>
		<path class="st5" d="M1077.31,50.19c0.29-1.12,0.58-2.23,0.88-3.35c1.01-0.77,1.98-1.62,3.05-2.3
			c16.52-10.46,34.29-17.12,54.09-15.82c11.03,0.73,21.97,2.89,32.94,4.41c1.18,0.31,2.37,0.62,4.2,1.09
			c-1.47,1.17-2.39,1.9-3.31,2.63c-7.37,4.37-14.75,8.75-22.12,13.12c0,0,0.07-0.07,0.07-0.06c-3.16,2.14-6.31,4.27-9.47,6.41
			c-0.46-0.06-0.92-0.13-1.37-0.19c8.59-6.3,17.19-12.6,25.98-19.04c-2.02,0.36-4.03,0.71-6.04,1.07c1.26-2.07,0.69-2.95-1.74-3.02
			c-8.61-0.25-17.24-1.05-25.83-0.74c-5.79,0.21-11.53,1.93-17.29,2.98c-7.28,2.63-14.56,5.27-21.84,7.9
			C1085.45,46.92,1081.38,48.56,1077.31,50.19z"/>
		<path class="st6" d="M997.16,74.27c2.13-0.42,3.08-4.29,6.11-2.1c-1.49,6-3.7,11.93-4.32,18.02c-1.05,10.3,1.43,19.96,8.18,28.19
			l-0.06-0.07c5.72,5.11,11.43,10.21,17.14,15.32c0.91,0.55,1.82,1.1,2.72,1.64c0.5,0.55,0.99,1.09,1.49,1.64
			c0.61,0.73,1.09,1.86,1.86,2.11c11.31,3.78,22.66,7.44,34,11.13c-1.39,0.3-2.89,1.1-4.17,0.84c-21.29-4.33-41.5-11.08-56.37-28.08
			c-7.81-8.93-12.18-19.25-9.64-31.58c0.7-3.38,0.81-6.88,1.19-10.33C995.91,78.76,996.53,76.51,997.16,74.27z"/>
		<path class="st7" d="M1083.39,199.07c1.64-1.98,3.28-3.96,4.92-5.94c0.01,0.65,0.02,1.3,0.02,1.96c-0.66,0.96-1.36,1.89-1.96,2.88
			c-9.41,15.45-15.31,32.42-20.9,49.44c-7.93,24.11-15.2,48.44-22.64,72.7c-1.78,5.82-3.11,11.77-4.64,17.66
			c0.34,0.09,0.68,0.17,1.02,0.26c1.7-5.67,3.41-11.35,5.11-17.02c0.16,1.34,0.71,2.78,0.43,4.02c-1.35,5.8-2.82,11.58-4.46,17.31
			c-0.75,2.62-1.96,5.11-2.96,7.65c-1.65,2.5-4.06,4.78-4.82,7.53c-5.52,19.76-14.13,37.99-26.29,54.51
			c-0.75,1.02-2.47,1.31-3.74,1.95c0.16-0.44,0.21-0.96,0.49-1.3c12.77-15.9,21.49-33.96,27.31-53.33
			c7.65-25.43,14.62-51.07,22.03-76.57c3.19-10.97,6.75-21.83,10.14-32.74c1.62-4.65,3.24-9.29,4.86-13.94
			C1072.67,223.75,1078.03,211.41,1083.39,199.07z"/>
		<path class="st8" d="M1100.31,184.23c5.53-1.63,11.05-3.27,17.9-5.29c-2.88-1.18-4.6-2.14-6.44-2.59
			c-33.3-8.15-66.98-9.42-100.94-5.54c-7.92,0.91-15.85,1.79-23.74,2.89c-5.71,0.79-8.7-3.09-12.07-6.46
			c0.65,0.1,1.57-0.05,1.9,0.33c4.73,5.32,10.37,4.64,16.77,3.76c12.1-1.66,24.34-2.31,36.53-3.18c7.6-0.54,15.28-1.47,22.82-0.87
			c16.77,1.32,33.5,3.37,50.21,5.39c5.72,0.69,11.37,2.02,16.98,3.39c1.78,0.43,3.31,1.91,5.31,3.12
			c-8.46,2.52-15.85,4.73-23.23,6.93c-4.66,3-9.31,5.99-13.97,8.99c-0.01-0.65-0.02-1.3-0.02-1.96
			C1092.31,190.16,1096.31,187.19,1100.31,184.23z"/>
		<path class="st9" d="M1452.36,520.86c-3.06,2.63-6.12,5.25-9.17,7.88c-3.54,1.12-7.08,2.23-10.87,3.43
			c0.71,1.3,1.32,2.41,1.92,3.52c0.58,1.48,1.17,2.95,1.74,4.43c1.39,3.57,2.78,7.15,4.17,10.72c-0.75,0.03-1.5,0.05-2.25,0.08
			c-5.77-7.59-11.57-15.16-17.23-22.83c-0.22-0.3,0.81-1.54,1.26-2.34c7.64,0.64,15.06,0.39,21.16-5.22c2.27-1.3,4.54-2.59,6.8-3.89
			c0.36-0.29,0.72-0.57,1.08-0.86c0.78,1.14,1.56,2.28,2.34,3.42C1453,519.77,1452.68,520.32,1452.36,520.86z"/>
		<path class="st10" d="M838.41,993.53c0.33,0,0.67,0,1,0c12.04,3.52,24.04,7.15,36.12,10.52c13.98,3.9,28.02,7.59,42.05,11.31
			c0.93,0.25,1.97,0.06,2.97,0.07c2.24,0.5,4.48,1,6.73,1.5c1.04,0.15,2.07,0.31,3.11,0.46c6.66,1.72,13.32,3.43,19.98,5.15
			c0.24,0.33,0.48,0.65,0.72,0.98c-12.58-2.61-25.32-4.63-37.71-7.97c-24.55-6.61-48.91-13.95-73.34-21.01
			C839.45,994.37,838.95,993.88,838.41,993.53z"/>
		<path class="st1" d="M826.38,859.59c11.39-12.75,23.66-24.84,33.97-38.41c16.49-21.72,27.94-46.41,37.95-71.69
			c11.51-29.07,18.32-59.22,21.33-90.38c4.64-48.04-1.34-94.82-14.93-140.86c-0.14-0.47-0.14-0.98-0.21-1.47
			c6-3.1,12.05-6.11,17.94-9.4c1.03-0.57,1.38-2.36,2.04-3.59c0.22,0.25,0.52,0.45,0.64,0.74c11.41,28.78,23.99,56.91,44.91,80.39
			c1.1,1.43,2,3.09,3.32,4.27c10.34,9.27,20.7,18.5,31.19,27.6c2.33,2.02,5.18,3.42,7.8,5.11c2.44,1.92,4.69,4.16,7.34,5.72
			c14.48,8.52,29.07,16.87,43.62,25.27c4.68,2.29,9.36,4.58,14.04,6.87c0.7,0.39,1.38,0.87,2.12,1.17
			c11.27,4.62,22.55,9.21,33.83,13.81c-0.72,1.77-2,3.51-2.07,5.3c-0.54,13.96-1.08,27.92-5.12,41.42
			c-3.49,11.65-7.09,23.33-16.83,31.7c-1.01,0.86-1.97,1.81-3.07,2.53c-4.65,3.01-5.62,2.63-7.05-2.73
			c-1.15-4.32-2.08-8.7-3.36-12.98c-0.37-1.24-1.58-2.22-2.4-3.32c-0.95,1.03-2.17,1.91-2.81,3.1
			c-6.73,12.56-12.5,25.74-20.21,37.66c-16.49,25.48-36.58,47.77-62.56,64.17c-13.33,8.41-27.67,14.48-42.94,18.37
			c-1.28,0.33-2.59,0.59-3.9,0.66c-3.19,0.17-5.35-0.55-3.98-4.57c0.62-1.82,0.67-3.83,1.1-6.5c-3.26,0.86-6.09,1.49-8.85,2.34
			c-26.42,8.14-53.37,10.47-80.87,7.98C841.07,859.21,833.7,859.65,826.38,859.59z"/>
		<path class="st1" d="M1490.26,792.71c-0.07-40.53-10.25-78.78-26.58-115.53c-4.91-11.04-11.01-21.55-16.59-32.3
			c-1.04-2-2.23-3.85-4.93-2.15c4.1-7.5,8.15-15.04,12.43-22.44c0.35-0.6,2.31-0.27,3.53-0.38c5.27,9.98,10.54,19.96,15.81,29.94
			c1.39,3.72,2.97,7.39,4.13,11.17c4.38,14.23,8.64,28.51,12.94,42.77c0.05,1.16-0.05,2.34,0.16,3.47
			c3.73,20.43,5.44,40.97,3.01,61.68C1493.22,776.9,1491.58,784.79,1490.26,792.71z"/>
		<path class="st2" d="M1198.35,732.72c1.76-5.93,5.35-10.41,10.92-13.09c9.2-4.43,18.48-8.7,27.73-13.03
			c0.58-0.37,1.16-0.74,3.07-1.95c-16.22-3.13-31.02-5.99-45.82-8.85c-8.32-2.05-16.64-4.1-24.96-6.15
			c-0.39-0.97-0.55-2.52-1.22-2.79c-2.74-1.13-5.64-1.86-9.36-3.01c1.46-0.63,2.01-0.87,2.57-1.11c2.1,0.41,4.21,0.79,6.3,1.23
			c5.91,1.24,11.81,2.51,17.71,3.76c2.65,0.73,5.31,1.45,7.96,2.18c0.98,0.66,1.88,1.66,2.96,1.92c14.06,3.38,28.13,6.72,42.25,9.88
			c3.18,0.71,6.52,0.68,9.79,0.99c13.56-2.96,27.11-5.97,40.7-8.83c1.34-0.28,2.87,0.38,4.31,0.6c-0.83,0.43-1.62,1.03-2.5,1.28
			c-16.83,4.68-33.67,9.32-50.51,13.97c-7.32,3.37-14.64,6.74-21.96,10.11c-5.3,3.97-10.6,7.95-15.9,11.92
			c-0.72,0.65-1.44,1.3-2.16,1.95C1199.61,733.38,1198.98,733.05,1198.35,732.72z"/>
		<path class="st11" d="M1373.84,776.83c-2.55-5.31-5.7-10.42-7.51-15.97c-2.25-6.88-3.41-14.13-5.15-21.73
			c-0.73,0.96-1.56,1.68-1.92,2.58c-5.96,15.03-16.96,21.89-33.07,20.55c-6.46-0.54-13.11-0.31-19.31-1.89
			c-5.91-1.5-11.34-4.89-17.69-7.77c-4.01,5.98-8.28,13.08-13.32,19.6c-2.84,3.68-6.42,7.57-10.53,9.38
			c-27,11.86-55.21,19.25-84.73,21.2c-5.41,0.36-6.7-0.81-5.07-5.87c6.06-18.79,12.49-37.47,18.79-56.19
			c0.04,0.87,0.34,1.84,0.08,2.61c-4.76,13.95-9.72,27.83-14.33,41.83c-1.71,5.18-2.6,10.63-3.95,16.28
			c7.43-0.65,13.89-0.79,20.19-1.87c9.37-1.61,18.63-3.89,27.93-5.89c11.52-3.58,23.08-7.05,34.56-10.78
			c6.04-1.96,11.77-4.57,15.43-10.25c4.22-6.54,8.67-12.94,12.71-19.59c1.92-3.16,3.3-2.92,6.23-1.11
			c4.41,2.72,9.19,5.86,14.11,6.51c9.53,1.25,19.29,1.37,28.91,0.98c4.14-0.17,9.43-1.67,12.01-4.53
			c4.53-5.03,7.39-11.58,10.93-17.5c0.76-1.27,1.44-2.58,2.83-5.08c1.11,2.69,1.92,3.95,2.14,5.31c0.76,4.7,1.82,9.44,1.79,14.15
			c-0.03,4.07,3.52,6.51,3.09,11.25c-0.4,4.31,3.95,9.07,6.21,13.62C1374.75,776.72,1374.29,776.77,1373.84,776.83z"/>
		<path class="st12" d="M1224.25,793.67c-9.31,2-18.56,4.28-27.93,5.89c-6.3,1.08-12.77,1.22-20.19,1.87
			c1.34-5.65,2.24-11.09,3.95-16.28c4.61-14,9.57-27.88,14.33-41.83c0.26-0.77-0.04-1.73-0.08-2.61c1.34-2.67,2.69-5.33,4.03-8
			c0.63,0.33,1.25,0.66,1.88,0.99c-3.69,10.34-7.37,20.67-11.06,31.01c-2.93,9.08-5.97,18.12-8.7,27.25
			c-0.56,1.87-0.85,4.71,2.86,4.15c4.39-0.66,8.78-1.34,13.17-2.04c7.56-1.2,15.11-2.42,22.66-3.64c0.1,4.44,2.24,2.99,4.1,2.23
			C1223.59,793.01,1223.92,793.34,1224.25,793.67z"/>
		<path class="st13" d="M1490.26,792.71c1.32-7.92,2.96-15.8,3.9-23.77c2.43-20.7,0.72-41.25-3.01-61.68
			c-0.21-1.13-0.11-2.31-0.16-3.47c0.39-0.02,0.77-0.04,1.16-0.05c0.16,1.64,0.28,3.29,0.49,4.93c1.16,9.01,3.24,18,3.31,27.01
			c0.11,14.39-0.55,28.84-1.88,43.18c-2.36,25.45-11.08,49.02-22.81,71.57c-2.44,4.69-4.74,9.46-7.1,14.2
			c-1.63,2.25-3.2,4.55-4.9,6.74c-7.34,9.43-14.72,18.84-22.09,28.25c-5.42,4.62-10.84,9.25-16.27,13.87
			c26.83-25,46.93-54.62,60.05-88.8C1484.91,814.35,1487.2,803.38,1490.26,792.71z"/>
		<path class="st14" d="M1185.3,687.73c-5.9-1.26-11.81-2.52-17.71-3.76c-2.1-0.44-4.2-0.82-6.3-1.23
			c-5.05-1.7-10.03-4.73-15.63-1.17c6.1,2.13,11.86,4.13,17.62,6.13c-6.72-1.28-13.43-2.56-20.15-3.84
			c-9.95-3.04-19.91-6.08-29.86-9.11c-11.28-4.6-22.56-9.19-33.83-13.81c-0.74-0.3-1.41-0.78-2.12-1.17
			c1.51,0.1,3.17-0.17,4.52,0.35c9.9,3.81,19.67,7.98,29.63,11.64c10.16,3.73,20.48,7,30.73,10.48c0.24-0.63,0.48-1.26,0.72-1.89
			c-7.07-3.2-14.14-6.39-21.2-9.62c-1.19-0.54-2.29-1.26-3.43-1.89c0.37-0.04,0.74-0.08,1.11-0.12c10.57,3.08,21.14,6.17,31.71,9.25
			c4.87,1.33,9.72,2.73,14.62,3.94c1.24,0.3,2.63-0.01,3.94-0.04c1.67,0.61,3.35,1.2,5.01,1.82
			C1178.21,685.03,1181.76,686.39,1185.3,687.73z"/>
		<path class="st15" d="M1397.05,694.11c0.4,0.12,0.81,0.25,1.21,0.37c1.2,0.77,2.32,1.71,3.6,2.3c8.12,3.72,16.34,7.25,24.39,11.1
			c1.79,0.86,3.73,2.49,4.46,4.24c1.83,4.39,3.02,9.05,4.46,13.6c-0.65,0-1.3,0-1.96-0.01c-2.29-4.28-3.76-9.39-7.08-12.59
			c-3.3-3.18-8.45-4.43-12.79-6.52c-15.43-8.27-31.65-14.08-49.19-15.8c-0.65,0.01-1.29,0.02-1.94,0.04c0-0.4,0-0.79-0.01-1.19
			c1.72-0.39,3.46-1.15,5.17-1.08c3.93,0.14,7.84,0.68,11.75,1.06c2.34,0.75,4.69,1.49,7.03,2.24
			C1389.8,692.61,1393.43,693.36,1397.05,694.11z"/>
		<path class="st16" d="M1435.18,725.72c-1.44-4.55-2.63-9.21-4.46-13.6c-0.73-1.75-2.67-3.39-4.46-4.24
			c-8.06-3.86-16.27-7.39-24.39-11.1c-1.28-0.59-2.41-1.52-3.6-2.3c10.21,4.37,20.51,8.52,30.53,13.27c2.01,0.95,3.43,4,4.29,6.38
			c7.63,21.33,13.28,43.16,16.15,65.66c0.6,4.66,0.76,9.38,1.12,14.07c-0.15-0.14-0.29-0.28-0.44-0.42
			c-2.59-14.57-5.19-29.14-7.78-43.72C1439.82,741.73,1437.5,733.72,1435.18,725.72z"/>
		<path class="st17" d="M950.36,1022.54c-6.66-1.72-13.32-3.43-19.98-5.15c2.06-0.77,4.08-1.95,6.2-2.21
			c2.55-0.3,5.19,0.18,7.78,0.33c0.44-0.06,0.88-0.12,1.33-0.17c3.88,0.42,7.76,0.83,11.64,1.25c0.5,0.65,0.9,1.73,1.52,1.87
			c5.15,1.12,10.33,2.06,15.5,3.06c-3.26,3.45-7.07,0.17-10.64,0.58c-4.93,0.56-10.14-1.32-16.66-2.38
			C948.99,1021.37,949.68,1021.95,950.36,1022.54z"/>
		<path class="st18" d="M974.35,1021.51c-5.17-1-10.36-1.94-15.5-3.06c-0.61-0.13-1.02-1.22-1.52-1.87
			c17.73,2.93,35.46,5.85,53.19,8.78c-3.01,0.04-6.07,0.43-9.03,0.05C992.43,1024.28,983.4,1022.84,974.35,1021.51z"/>
		<path class="st16" d="M1373.84,776.83c0.45-0.06,0.91-0.11,1.36-0.17c12.68,4.72,25.28,9.69,38.08,14.08
			c11.9,4.08,24.15,5.54,36.64,2.71c0.15,0.14,0.29,0.28,0.44,0.42c-7.61,0.62-15.72,3.21-22.75,1.47
			c-17.03-4.2-33.57-10.39-50.27-15.89C1376.03,779.01,1375,777.72,1373.84,776.83z"/>
		<g>
			<path class="st19" d="M1451.39,607.77c-4.15,12.1-10.57,22.96-18.16,33.17c-3.36,4.92-6.72,9.83-10.08,14.75
				c-4.7,6.01-9.39,12.01-14.09,18.02c-4.63,4.99-9.26,9.98-13.89,14.97c3.22-1.7,7.11-2.74,9.55-5.22
				c8.35-8.49,16.17-17.5,24.26-26.25c0.92-0.99,2.26-1.58,3.4-2.36c3.26-4.04,6.51-8.08,9.77-12.12
				c4.11-7.5,8.15-15.04,12.43-22.44c0.35-0.61,2.32-0.28,3.53-0.38c0.02-0.7,0.04-1.41,0.05-2.13
				C1455.9,614.45,1453.65,611.11,1451.39,607.77z"/>
			<path class="st19" d="M1404.72,683.47c-2.43,2.48-6.33,3.52-9.55,5.22c-2.02,3.83-5.6,3.24-9,3.17c3.63,0.75,7.25,1.5,10.88,2.25
				c-0.48-0.65-0.96-1.3-1.06-1.43c14.49-10.51,25.83-23.78,36.39-37.82c-1.15,0.77-2.49,1.37-3.4,2.36
				C1420.89,665.97,1413.07,674.98,1404.72,683.47z"/>
		</g>
		<path class="st20" d="M1143.12,683.86c6.72,1.28,13.43,2.56,20.15,3.84c2.01,0.65,4.01,1.3,6.02,1.95
			c8.32,2.05,16.64,4.1,24.96,6.15c0.01,0.41,0.02,0.82,0.03,1.23c-11.85-2.86-23.73-5.65-35.55-8.62
			C1153.47,687.09,1148.32,685.39,1143.12,683.86z"/>
		<path class="st21" d="M1194.28,697.03c-0.01-0.41-0.02-0.82-0.03-1.23c14.8,2.86,29.6,5.72,45.82,8.85
			c-1.91,1.21-2.49,1.58-3.07,1.95c-4.68-1.3-9.31-2.83-14.05-3.86C1213.42,700.7,1203.84,698.92,1194.28,697.03z"/>
		<path class="st22" d="M907.26,1009.77c-0.98-0.05-2.22,0.26-2.88-0.23c-1.31-0.94-2.29-2.33-3.41-3.53
			c1.38-0.42,2.9-1.43,4.13-1.15c7.51,1.7,14.95,3.69,22.41,5.58c-1.71,0.03-3.42,0.06-5.13,0.09c-0.32-0.02-0.64-0.03-0.96-0.04
			c-4.27-0.98-8.52-2-12.82-2.83C908.3,1007.61,907.71,1009.03,907.26,1009.77z"/>
		<path class="st23" d="M907.26,1009.77c0.45-0.74,1.04-2.16,1.34-2.1c4.29,0.83,8.55,1.85,12.82,2.83
			c-1.79,0.21-3.59,0.42-6.36,0.74c4.82,2.25,8.52,3.98,12.22,5.7c-2.24-0.5-4.48-1-6.73-1.5c-3.4-1.21-6.83-2.35-10.18-3.66
			C909.24,1011.33,908.29,1010.45,907.26,1009.77z"/>
		<path class="st23" d="M922.37,1010.53c1.71-0.03,3.42-0.06,5.13-0.09c5.51,1.09,11.03,2.15,16.53,3.34
			c0.64,0.14,1.11,1.02,1.66,1.56c-0.44,0.06-0.88,0.12-1.33,0.17C937.03,1013.86,929.7,1012.19,922.37,1010.53z"/>
		<path class="st24" d="M967.35,470.83c3-2,6-4,9.01-6c-1.99-1.31-3.97-2.63-5.96-3.94c-0.03,0.49,0.09,1.33-0.13,1.43
			c-4.95,2.26-9.93,4.43-14.91,6.62c-18.12,9.89-36.23,19.78-54.37,29.63c-1.12,0.6-2.4,0.91-3.6,1.35
			c1.24,0.37,2.63,1.27,3.68,0.98c2.51-0.71,4.87-1.97,7.29-3.01c-2.87,2-5.75,4-8.62,6c0.21,0.38,0.43,0.75,0.64,1.13
			c1.57-0.68,3.16-1.3,4.7-2.03c4.87-2.31,9.71-4.66,14.56-7c1.12,0.58,2.81,0.88,3.25,1.79c0.88,1.84,1.08,4,1.56,6.02
			c0.22,0.24,0.53,0.45,0.64,0.74c11.41,28.78,23.99,56.91,44.91,80.39c1.59,1.06,3.17,2.12,5.62,3.75
			c-5.16-7-9.96-13.08-14.21-19.51c-1.61-2.44-1.98-5.71-2.91-8.6c-5.51-10.18-11.49-20.14-16.39-30.6
			c-4.86-10.37-8.86-21.15-12.76-31.92c-2.32-6.4-1.86-6.64,4.91-9.11c7.51-4,15.05-7.96,22.54-12.02
			C960.37,474.99,963.83,472.87,967.35,470.83"/>
		<path class="st25" d="M919.64,496c1.12,0.58,2.82,0.88,3.25,1.79c0.88,1.83,1.08,3.99,1.56,6.02c-0.66,1.23-1.01,3.01-2.04,3.59
			c-5.89,3.29-11.94,6.3-17.94,9.4c-3.87-9.33-3.86-9.31,4.57-14.29C912.62,500.38,916.11,498.16,919.64,496z"/>
		<path class="st26" d="M1194.31,172.85c7.57,1.66,15.16,3.23,22.7,4.99c36.43,8.52,73.07,16.25,109.2,25.9
			c27.76,7.42,54.86,17.32,82.29,26.01c3.24,1.03,4.56,2.91,4.55,6.17c-0.03,35.1-0.03,70.21-0.04,105.31
			c-0.22,1.91-0.52,3.82-0.65,5.74c-0.62,9.34,2.24,19.07-3.25,27.84c-0.6-7.7-1.6-15.4-1.73-23.11
			c-0.37-21.91-0.36-43.83-0.55-65.75c-0.13-14.75-0.68-29.51-0.29-44.25c0.11-4.28-1.07-5.65-4.67-6.99
			c-39.26-14.57-79.32-26.62-119.72-37.44c-26.22-7.02-53.04-11.79-79.28-18.73c-11.26-2.98-21.74-8.93-32.57-13.53
			c1.69,0.02,3.38,0.04,5.07,0.06C1181.68,167.66,1187.99,170.25,1194.31,172.85z"/>
		<path class="st27" d="M1433.56,493.77c3.8,3.12,7.6,6.24,11.39,9.35c2.66,2.13,5.19,4.44,8.01,6.34c6.64,4.47,6.71,4.67,0.35,9.76
			c-0.78-1.14-1.56-2.28-2.34-3.42c-1.11-1.88-1.79-4.34-3.41-5.56c-12.3-9.27-23.49-19.57-31.04-33.18
			c-1.59-2.86-1.7-6.54-2.5-9.85c0.05-3.6,0.14-7.19,0.15-10.79c0.01-37.61-0.04-75.21,0.05-112.82c0.01-6.36,0.84-12.72,0.87-19.08
			c0.02-5.11-0.86-10.23-0.85-15.35c0.01-9.87,0.54-19.74,0.54-29.61c0-10.04-0.39-20.09-0.58-30.13c-0.02-0.93,0.21-1.86,0.38-3.27
			c1.09,0.82,1.74,1.31,2.34,1.75c0.35-4.19,0.69-8.26,1.03-12.3c1.68,0,3.25,0,5.52,0c-0.44,6.64-1.12,13.04-1.25,19.45
			c-0.45,21.75-0.67,43.51-1.07,65.27c-0.23,12.61-0.63,25.21-0.99,37.81c-0.65,23.05-1.34,46.09-1.99,69.13
			c-0.36,12.6-1.11,25.22-0.87,37.81C1417.54,477.32,1423.67,486.74,1433.56,493.77z"/>
		<path class="st27" d="M1194.31,172.85c-6.32-2.59-12.63-5.19-18.95-7.78c-6.39-2.97-12.78-5.94-19.18-8.91
			c-5.26-3.28-10.46-6.64-15.78-9.81c-13.89-8.29-25.97-18.36-34.19-32.66c-8.32-14.48-7.1-31.24,5.03-42.51
			c11.74-10.92,24.61-20.62,36.98-30.86c1.29-0.42,2.58-0.84,3.87-1.26c1.37-0.29,2.75-0.59,4.12-0.88
			c2.01-0.36,4.03-0.71,6.04-1.07c-8.79,6.44-17.38,12.74-25.98,19.04c-3.38,2.93-6.83,5.77-10.12,8.8
			c-6.61,6.08-13.29,12.24-16.32,20.99c-3.42,9.86-1.89,19.34,3.45,28.24c6.03,10.2,14.92,17.65,23.97,24.94
			c17.25,13.9,37.38,22.47,57.52,31.03c0.42,0.18,0.77,0.52,1.87,1.27C1195.7,171.99,1195,172.42,1194.31,172.85z"/>
		<path class="st27" d="M1418.56,229.14c-3.04,0.16-5.38,1.02-6.4,0.22c-7.52-5.92-17.12-5.62-25.56-8.74
			c-15.35-5.67-31.07-10.51-46.89-14.71c-32.47-8.62-65.12-16.59-97.69-24.83c-3.11-0.79-6.21-1.66-10.31-2.76
			C1247.18,175.48,1396.52,216.18,1418.56,229.14z"/>
		<path class="st28" d="M1409.11,374.81c5.5-8.77,2.63-18.51,3.26-27.84c0.13-1.92,0.43-3.83,0.65-5.74
			c0.07,36.29,0.14,72.57,0.21,108.86c-0.68-0.82-1.36-1.63-2.04-2.45c-1.1-2.01-2.53-3.91-3.24-6.05
			c-4.66-14.03-3.34-28.44-2.16-42.76C1406.46,390.78,1407.98,382.81,1409.11,374.81z"/>
		<path class="st10" d="M1411.19,447.64c0.68,0.81,1.36,1.63,2.04,2.45c0.27,5.71,0.54,11.41,0.8,17.12c0.79,3.3,0.91,6.98,2.5,9.85
			c7.55,13.61,18.74,23.91,31.04,33.18c1.62,1.22,2.29,3.68,3.41,5.56c-0.36,0.29-0.72,0.57-1.08,0.86
			c-1.54,0.06-3.08,0.11-4.62,0.17c-0.1-0.24-0.17-0.48-0.22-0.73c-3.63-2.74-7.25-5.48-10.88-8.22
			c-6.98-6.86-14.33-13.4-20.75-20.74c-2.47-2.82-3.66-7.42-3.99-11.33c-0.63-7.6-0.36-15.28-0.17-22.93
			C1409.31,451.12,1410.52,449.38,1411.19,447.64z"/>
		<path class="st29" d="M1113.29,114.17c-5.34-8.9-6.87-18.38-3.45-28.24c3.03-8.75,9.71-14.91,16.32-20.99
			c3.29-3.03,6.74-5.87,10.12-8.8c0.46,0.06,0.92,0.13,1.37,0.19c-6.01,5.95-11.73,12.24-18.09,17.79
			c-10.61,9.24-11.34,25.88-6.31,36.73c0.48,1.04,0.84,2.14,1.26,3.21C1114.11,114.09,1113.7,114.13,1113.29,114.17z"/>
		<path class="st30" d="M1411.19,447.64c-0.67,1.75-1.88,3.48-1.92,5.24c-0.19,7.64-0.46,15.33,0.17,22.93
			c0.32,3.91,1.52,8.5,3.99,11.33c6.42,7.35,13.77,13.88,20.75,20.74c-8.8,6.73-18.77,8.24-29.8,6.19
			c1.94,8.79,8.31,16.11,6.25,25.82c-6.18-0.97-11.98-1.87-18.44-2.88c0.25,2.04,0.39,3.62,0.64,5.17
			c1.42,8.83,3.21,17.61,4.21,26.48c0.75,6.7-0.14,7.28-6.82,6.05c-3.45-0.64-6.77-1.99-10.4-3.09c2.4,27.26-3.69,44.39-19.63,56.05
			c-6.21,1.38-12.38,1.62-18.41-0.85c-4.86-1.99-9.7-4.01-14.55-6.02c-2.52-1.53-5.05-3.06-7.8-4.73c-0.64,1.05-1.53,1.95-1.75,2.99
			c-2.57,12.17-10.04,20.54-20.46,26.66c-18.31,4.72-34.34-1.11-48.93-11.49c-8.16-5.81-15.35-12.97-22.97-19.52
			c-3.34-4.86-6.69-9.72-10.32-15c-5.23,9.45-12.07,16.04-21.81,18.94c-7.94,2.36-15.46,2.29-21.05-5.34
			c-1.36-1.86-3.35-3.26-4.84-5.04c-10.3-12.31-19.64-25.19-23.42-41.2c-0.85-3.61-1.43-7.3-2.15-11.04
			c-0.86,0.23-1.43,0.23-1.78,0.5c-13.69,10.62-30.04,13.6-46.53,15.93c-2.23,0.32-5.46-0.66-7.01-2.24
			c-6.85-6.98-10.34-15.3-8.33-25.35c0.56-2.82,0.75-5.71,1.11-8.59c-1.08-0.19-1.59-0.43-2.03-0.33
			c-11.25,2.54-22.55,3.26-34.07,2.02c-4.33-0.47-6.06-2.09-5.64-6.23c0.49-4.77,0.64-9.63,1.66-14.29
			c1.25-5.74,3.23-11.32,5.09-17.63c-3.43,0-6.55,0.1-9.66-0.02c-11.57-0.46-22.8-2.36-32.75-8.79c-1.3-0.84-3.12-3.13-2.78-3.89
			c4.36-9.8,8.24-19.99,14.07-28.88c2.48-3.78,3.51-7.67,5.28-10.37c-7.8,0-15.69,0.69-23.38-0.26c-4.66-0.57-9.01-3.68-13.5-5.65
			c10.77-2.6,19.62-8.87,28.23-15.32c13.92-10.42,25.21-22.99,30.38-40.19c13.7-45.58,27.36-91.18,41.34-136.67
			c5.85-19.03,12.03-38.01,24.48-54.12c1.17-1.51,1.71-3.51,2.54-5.29c5.29-2.12,10.57-4.25,15.86-6.37
			c6.37-0.8,12.74-1.59,19.11-2.39c0.04-0.5,0.07-1,0.11-1.5c-1.06-0.39-2.13-0.78-3.19-1.16c-10-2.84-19.89-6.22-30.03-8.42
			c-21.58-4.67-43.38-8.56-65.54-8.01c-15.05,0.37-30.07,2.23-45.11,3.42c-4.77-4.78-9.87-9.28-14.25-14.4
			c-9.59-11.18-17.54-23.38-19.65-38.36c-0.39-2.76,0.17-6.8,1.96-8.51c8.47-8.12,17.51-15.64,26.35-23.37
			c-0.77,7.19-2.79,14.51-2.07,21.54c1.65,15.94,12.54,25.71,25.29,33.85c22.5,14.38,48.38,16.47,73.73,20.55
			c25.37,6.56,50.74,13.14,76.13,19.62c1.55,0.4,3.28,0.05,4.93,0.05c0.17-0.59,0.34-1.18,0.52-1.77
			c-3.41-1.75-6.83-3.49-10.24-5.24c-16.36-9.76-32.84-19.32-49.04-29.33c-12.96-8.02-25.69-16.45-35.61-28.34
			c0.15-0.96,0.63-2,0.41-2.86c-2.83-11.14-2.62-22.39-0.67-33.55c0.97-5.57,2.14-11.76,5.34-16.12c3.13-4.26,8.62-7.3,13.67-9.56
			c16.42-7.36,33.81-10.36,51.8-9.85c-12.37,10.24-25.24,19.95-36.98,30.86c-12.13,11.27-13.34,28.04-5.03,42.51
			c8.21,14.3,20.3,24.36,34.19,32.66c5.32,3.18,10.52,6.54,15.78,9.81c4.7,2.95,9.4,5.9,14.1,8.85
			c10.83,4.6,21.31,10.55,32.57,13.53c26.24,6.94,53.06,11.71,79.28,18.73c40.4,10.82,80.47,22.87,119.72,37.44
			c3.61,1.34,4.79,2.7,4.67,6.99c-0.38,14.74,0.17,29.5,0.29,44.25c0.19,21.92,0.18,43.84,0.55,65.75
			c0.13,7.71,1.13,15.41,1.73,23.11c-1.13,8-2.65,15.98-3.32,24.02c-1.19,14.32-2.5,28.73,2.16,42.76
			C1408.66,443.73,1410.09,445.63,1411.19,447.64z M1295.21,484.89c1.61,4.79,3.22,9.57,4.82,14.36
			c4.36,6.96,8.71,13.93,13.07,20.89c2.94,2.61,5.87,5.22,8.81,7.83c10.08,7.49,20.78,11.92,33.66,6.63
			c0.89,1.91,1.72,3.67,2.54,5.43c0.81,3.04,1.62,6.08,2.43,9.11c0.68,0.18,1.36,0.37,2.04,0.55
			c10.04-13.18,20.23-26.24,30.02-39.59c3.21-4.37,7.1-9.29,7.72-14.33c2.11-17.11,2.97-34.37,4.05-51.59
			c0.1-1.59-1.29-4.34-2.58-4.77c-13.36-4.41-26.84-8.45-40.28-12.59c-8.66-0.59-17.69-3.05-25.9-1.4
			c-18.69,3.76-33.07,15.19-44.51,30.3c-0.36,0.87-1.16,1.82-1.02,2.6C1291.71,467.19,1293.48,476.03,1295.21,484.89z
			 M1381.9,336.82c-2.01,2.17-4.4,4.1-5.95,6.55c-9.51,15.02-12.71,31.5-9.52,48.88c1.11,6.06,2.81,12.64,9.35,15.92
			c5.05,2.99,9.9,2.59,13.52-2.28c2.88-3.87,4.57-8.62,6.79-12.98c5.32-12.59,6.76-25.84,6.18-39.31
			c-0.25-5.98-0.58-12.27-6.08-16.47C1390.35,332,1388.01,331.95,1381.9,336.82z M1226.88,377.78c-0.48,0.45-1.09,0.83-1.41,1.37
			c-6.89,11.81-8.43,24.66-5.79,37.75c2.4,11.94,8.49,21.62,21.27,25.03c18.23,4.86,35.17-3.87,43.18-22.03
			c6.05-12.17,7.36-24.9,4.36-38.1c-1.92-8.45-5.28-16.06-12.95-20.98c-6.68-5.2-14.12-7.06-22.42-5.14
			C1240.6,358.57,1233.2,367.55,1226.88,377.78z M1276.24,299.04c4.07,1.32,8.1,2.81,12.24,3.89c1.78,0.46,3.79,0.08,6.65,0.08
			c-14.13-16.93-57.55-9.2-70.37,16.11c6.81-2.57,11.5-8.37,17.49-12.18C1253.11,302.27,1264.12,298.25,1276.24,299.04z
			 M1156.17,525.9c14.82,0.21,25.69-2.63,35.06-9.59c18.66-13.86,24.64-33.15,20.67-55.15c-6.74-37.35-42.69-64.98-78.85-59.15
			c-11.87,1.91-22.08,7.27-30,16.4c-10.85,12.49-14.46,27.02-12.95,43.49C1093.19,495.75,1125.35,525.81,1156.17,525.9z
			 M1364.59,298.22c1.67-2.04,3.03-3.12,3.6-4.52c2.64-6.41,7.57-10.72,13.03-14.49c6-4.14,11.88-3.87,18,0.23
			c1.34,0.9,3.05,1.23,5.19,2.06c-2.68-7.46-9.65-10.66-17.62-9.28C1374.58,274.33,1364.66,287.6,1364.59,298.22z"/>
		<path class="st26" d="M1108.44,190.38c-0.83,1.77-1.37,3.77-2.54,5.29c-12.46,16.11-18.64,35.09-24.48,54.12
			c-13.98,45.5-27.65,91.09-41.34,136.67c-5.17,17.2-16.46,29.77-30.38,40.19c-8.6,6.44-17.46,12.72-28.23,15.32
			c-4.04,1.27-8.08,2.55-12.12,3.82c-1.3,0.34-2.59,0.69-3.89,1.03c-3.11-3.39,0.8-2.99,2.07-3.41
			c10.92-3.67,21.31-8.25,29.94-16.14c0.7-0.42,1.47-0.76,2.1-1.28c22.3-18.28,33.98-42.94,41.86-69.86
			c0.41-0.88,0.95-1.72,1.22-2.65c3.67-12.61,7.23-25.25,10.95-37.84c5.56-18.8,11.22-37.57,16.83-56.35
			c6.28-15.74,12.56-31.48,18.84-47.22c3.11-4.95,6.22-9.91,9.32-14.86c0.94-0.96,1.88-1.92,2.82-2.87
			C1103.75,193.01,1106.09,191.69,1108.44,190.38z"/>
		<path class="st10" d="M994.05,81.32c-8.84,7.73-17.88,15.25-26.35,23.37c-1.79,1.71-2.35,5.76-1.96,8.51
			c2.11,14.98,10.06,27.18,19.65,38.36c4.38,5.11,9.48,9.62,14.25,14.4c-7.78,3.16-13.57,0.86-19.2-5.31
			c-11.01-12.08-18.35-25.86-23.1-41.41c-2.62-8.58-2.38-15.52,6.07-20.46c0.53-0.31,0.82-1,1.23-1.51
			c9.61-6.93,19.21-13.87,28.83-20.77c1.16-0.83,2.45-1.48,3.68-2.22c-0.63,2.24-1.25,4.49-1.88,6.73
			C994.87,81.11,994.46,81.21,994.05,81.32z"/>
		<path class="st3" d="M1101.4,194.33c-0.94,0.96-1.88,1.92-2.82,2.87c-1.15,0.52-2.68,0.73-3.39,1.61
			c-8.67,10.75-17.54,21.43-20.09,35.62c-0.27,1.49,0.14,3.1,0.24,4.66c-1.99,5.99-3.98,11.97-5.96,17.96
			c-4.35,14.32-8.79,28.61-13.04,42.97c-3.74,12.64-7.27,25.34-10.89,38.02c-0.35-0.87-1.14-1.83-0.98-2.58
			c2.56-12.03,5.18-24.05,7.91-36.05c1.23-5.4,2.71-10.75,4.07-16.13c-0.41-0.1-0.81-0.2-1.22-0.3
			c-3.64,12.67-7.27,25.35-10.91,38.02c-1.7,5.67-3.41,11.35-5.11,17.02c-0.34-0.09-0.68-0.17-1.02-0.26
			c1.54-5.89,2.86-11.85,4.64-17.66c7.44-24.27,14.71-48.59,22.64-72.7c5.59-17.02,11.5-33.99,20.9-49.44
			c0.6-0.99,1.31-1.92,1.96-2.88c4.66-3,9.31-5.99,13.97-8.99C1101.66,188.8,1098.5,191.23,1101.4,194.33z"/>
		<path class="st8" d="M964.65,97.26c-0.4,0.51-0.7,1.21-1.23,1.51c-8.45,4.94-8.69,11.87-6.07,20.46
			c4.75,15.54,12.09,29.33,23.1,41.41c5.63,6.17,11.42,8.48,19.2,5.31c15.04-1.19,30.06-3.05,45.11-3.42
			c22.16-0.55,43.96,3.34,65.54,8.01c10.14,2.2,20.03,5.57,30.03,8.42c-0.35,0.67-0.7,1.35-1.05,2.02
			c-0.64-0.63-1.18-1.58-1.94-1.83c-20.36-6.71-41.36-10.52-62.58-12.94c-11.99-1.37-24.16-2.29-36.2-1.89
			c-14.51,0.49-29.02,2.24-43.43,4.18c-6.16,0.83-10.02-0.03-14.48-5.11c-7.19-8.17-14.45-16.2-18.6-26.26
			c-3.51-8.52-6-17.5-8.39-26.42c-0.5-1.86,0.87-4.87,2.34-6.47C958.47,101.55,961.72,99.55,964.65,97.26z"/>
		<path class="st31" d="M1139.28,180.99c0.35-0.67,0.7-1.35,1.05-2.02c1.06,0.39,2.13,0.78,3.19,1.16c-0.04,0.5-0.07,1-0.11,1.5
			c-6.37,0.8-12.74,1.59-19.11,2.39C1129.29,183,1134.28,181.99,1139.28,180.99z"/>
		<path class="st10" d="M1148.23,40.31c-17.99-0.51-35.38,2.49-51.8,9.85c-5.05,2.26-10.53,5.3-13.67,9.56
			c-3.2,4.35-4.37,10.54-5.34,16.12c-1.94,11.16-2.15,22.41,0.67,33.55c0.22,0.86-0.26,1.9-0.41,2.86
			c-0.75-0.71-1.51-1.43-2.27-2.14c-1.64-6.16-4.07-12.24-4.74-18.5c-1.28-11.95,0.68-23.76,3.84-35.34
			c5-3.66,9.99-7.32,14.99-10.98c7.28-2.63,14.56-5.27,21.84-7.9c1.48-0.08,2.95-0.2,4.43-0.24c11.42-0.31,22.84-0.64,34.26-0.88
			c1.67-0.03,4.31-0.31,2.05,2.78C1150.81,39.47,1149.52,39.89,1148.23,40.31z"/>
		<path class="st32" d="M1162.34,169.93c3.41,1.75,6.83,3.49,10.24,5.24c-0.17,0.59-0.34,1.18-0.52,1.77
			c-1.65,0-3.39,0.34-4.93-0.05c-25.39-6.49-50.76-13.06-76.13-19.62c0.77-0.08,1.54-0.17,2.3-0.25c10.64,2.1,21.28,4.21,31.92,6.31
			c0.11-0.59,0.22-1.19,0.32-1.78c-15.74-2.81-31.49-5.63-47.23-8.44c-4.68-0.98-9.36-1.97-14.04-2.95
			c-11.34-3.69-22.69-7.35-34-11.13c-0.77-0.26-1.25-1.39-1.86-2.11c22.31,11.5,47.09,13.29,71.1,18.13
			c9.74,1.97,19.36,4.52,29.04,6.79c0.77,0.18,1.57,0.22,3.18-0.66c-1.26-1.31-2.52-2.62-3.78-3.94c6.23,3.24,12.44,6.54,18.71,9.7
			c1.63,0.82,3.5,1.17,5.19,1.9c1.72,0.75,3.31,1.81,5.04,2.53c4.09,1.69,8.22,3.26,12.64,4.05
			C1167.14,173.59,1164.74,171.76,1162.34,169.93z"/>
		<path class="st33" d="M1074.53,56.26c-3.16,11.58-5.12,23.39-3.84,35.34c0.67,6.26,3.1,12.34,4.74,18.5
			c-2.21-5.33-5.6-10.49-6.39-16.03c-1.85-12.84-0.85-25.68,4.27-37.89C1073.71,56.21,1074.12,56.23,1074.53,56.26z"/>
		<path class="st34" d="M1074.53,56.26c-0.41-0.03-0.82-0.05-1.23-0.08c1.34-2,2.68-3.99,4.01-5.99c4.07-1.64,8.14-3.27,12.21-4.91
			C1084.52,48.94,1079.53,52.6,1074.53,56.26z"/>
		<path class="st35" d="M1457.17,604.8c0.36,0,0.73,0,1.09,0c-1.99,10.14,5.26,16.71,9.43,24.48c0.93,1.73,1.74,3.52,2.6,5.28
			c-0.06,0.41-0.13,0.82-0.19,1.23c-3.98-6-7.96-11.99-11.94-17.99C1455.1,613.67,1457.5,609.13,1457.17,604.8z"/>
		<path class="st36" d="M1152.1,39.05c2.26-3.08-0.38-2.81-2.05-2.78c-11.42,0.24-22.84,0.56-34.26,0.88
			c-1.48,0.04-2.95,0.16-4.43,0.24c5.76-1.04,11.5-2.77,17.29-2.98c8.59-0.31,17.21,0.49,25.83,0.74c2.43,0.07,3,0.96,1.74,3.02
			C1154.84,38.46,1153.47,38.75,1152.1,39.05z"/>
		<path class="st37" d="M1064.27,150.15c4.68,0.98,9.36,1.97,14.04,2.95c-0.07,0.15-0.2,0.29-0.2,0.44c0,0.13,0.11,0.35,0.21,0.38
			c4.99,1.04,9.98,2.07,14.97,3.1c-0.77,0.08-1.54,0.16-2.3,0.25c-25.35-4.08-51.22-6.18-73.73-20.55
			c-12.75-8.14-23.64-17.92-25.29-33.85c-0.73-7.04,1.3-14.36,2.07-21.54c0.41-0.1,0.82-0.21,1.23-0.32
			c-0.38,3.45-0.5,6.95-1.19,10.33c-2.54,12.32,1.83,22.65,9.64,31.58c14.87,17,35.08,23.76,56.37,28.08
			C1061.38,151.25,1062.88,150.46,1064.27,150.15z"/>
		<path class="st38" d="M1041.33,351.99c0.35-4.03-2.61-1.45-4-2c1-2.55,2.22-5.03,2.96-7.65c1.63-5.73,3.11-11.51,4.46-17.31
			c0.29-1.24-0.26-2.67-0.43-4.02c3.64-12.67,7.27-25.35,10.91-38.02c0.41,0.1,0.81,0.2,1.22,0.3c-1.37,5.37-2.85,10.72-4.07,16.13
			c-2.72,12-5.35,24.02-7.91,36.05c-0.16,0.76,0.63,1.72,0.97,2.58C1044.07,342.68,1042.7,347.34,1041.33,351.99z"/>
		<path class="st39" d="M1000.27,416.78c-5.07,4.76-9.55,10.48-15.35,14.06c-8.34,5.14-17.64,8.73-27.03,13.22
			c0.31,1.42,0.84,3.78,1.36,6.13c-4.86-6.1-4.35-7.7,2.81-10.12c13.51-4.57,25.9-11.04,35.9-21.51
			C998.62,417.86,999.49,417.36,1000.27,416.78z"/>
		<path class="st1" d="M1445.27,516.82c1.54-0.06,3.08-0.11,4.62-0.17c-2.27,1.3-4.54,2.59-6.8,3.89
			c-7.05,1.74-14.11,3.48-21.16,5.22c-0.45,0.8-1.48,2.03-1.26,2.34c5.66,7.67,11.46,15.24,17.23,22.83
			c-2.49,0.96-4.94,2.62-7.47,2.75c-7.6,0.39-15.23,0.23-22.84,0.21c-4.2-0.01-5.28,1.48-2.66,5.01c0.77,2.6,1.55,5.2,2.32,7.8
			c-0.04,1.42-0.09,2.83-0.13,4.25c-1.67-4.32-3.33-8.63-5-12.95c-0.77-2.78-1.54-5.57-2.25-8.16c10.08,0,19,0,28.49,0
			c-0.61-2.02-0.8-3.16-1.27-4.15c-2.97-6.22-6.01-12.41-9.03-18.62c0.75-0.95,1.51-1.89,2.12-2.66c-0.85-0.7-1.59-1.3-3.05-2.49
			C1427.75,523.29,1436.39,519.42,1445.27,516.82z"/>
		<path class="st40" d="M1442.42,551.74c-0.76-0.3-1.51-0.6-2.27-0.9c-1.39-3.57-2.78-7.15-4.17-10.72
			c-0.58-1.48-1.16-2.96-1.74-4.43C1436.97,541.04,1439.7,546.39,1442.42,551.74z"/>
		<path class="st41" d="M1421.93,525.76c7.05-1.74,14.11-3.48,21.16-5.22C1436.99,526.15,1429.57,526.4,1421.93,525.76z"/>
		<path class="st42" d="M1414.31,573.73c-0.37-1.64-0.74-3.27-1.11-4.91c-0.63-2.7-1.25-5.4-2.12-9.13c6.72,0,13.08-0.04,19.45,0.05
			c0.73,0.01,1.56,0.57,2.14,1.1c6.64,6.1,12.48,12.77,15.21,21.63c-0.52,1.25-1.27,2.45-1.52,3.75
			c-0.99,5.14-0.53,11.04-2.93,15.36c-14.58,26.15-31.07,51.07-50.45,73.97c-3.92,4.63-7.95,9.17-11.94,13.75
			c-0.63,0.1-1.27,0.2-1.9,0.3c-3.92-0.38-7.83-0.92-11.75-1.06c-1.71-0.06-3.45,0.7-5.17,1.08c-3.41-5.77-6.94-11.47-10.12-17.35
			c-0.6-1.12,0.15-2.96,0.27-4.47c8.6-10.35,17.2-20.7,25.8-31.05c1.55-1.23,2.93-2.78,4.67-3.63c6.79-3.3,10.86-8.8,12.21-15.96
			c0.99-5.22,0.84-10.66,1.21-16.2c0.38-0.03,1.04-0.19,1.66-0.12c13.08,1.55,19.47-4.01,19.09-17.24
			C1416.92,580.31,1415.25,577.03,1414.31,573.73z"/>
		<path class="st26" d="M1381.05,689.32c3.98-4.58,8.02-9.12,11.94-13.75c19.38-22.91,35.87-47.83,50.45-73.97
			c2.41-4.32,1.94-10.22,2.93-15.36c0.25-1.3,1-2.5,1.52-3.75c1.08,3.45,2.16,6.9,3.23,10.35c1.41,9.13-1.23,17.43-5.54,25.27
			c-3.99,7.25-8.31,14.3-12.49,21.44c-5.05,6.7-10.1,13.41-15.15,20.11c-6.47,7.77-13.06,15.45-19.39,23.34
			C1393.92,688.77,1389.01,693.09,1381.05,689.32z"/>
		<path class="st43" d="M1457.17,604.8c0.33,4.33-2.07,8.87,0.99,13c-2.26-3.34-4.51-6.68-6.77-10.01c0.24-4.97,0.49-9.93,0.73-14.9
			c-1.25-5.37-2.49-10.73-3.74-16.1C1455.42,584.86,1457.47,594.46,1457.17,604.8z"/>
		<path class="st44" d="M1452.13,592.88c-0.25,4.97-0.49,9.93-0.73,14.9c-4.15,12.1-10.57,22.95-18.16,33.17
			c-0.05-0.47-0.1-0.93-0.15-1.4c4.18-7.14,8.5-14.2,12.49-21.44c4.31-7.83,6.95-16.13,5.54-25.27
			C1451.45,592.85,1451.79,592.86,1452.13,592.88z"/>
		<path class="st45" d="M922.37,1010.53c7.33,1.66,14.66,3.32,21.99,4.99c-2.6-0.15-5.24-0.63-7.78-0.33
			c-2.12,0.25-4.14,1.44-6.2,2.21c-1.04-0.15-2.07-0.31-3.11-0.46c-3.7-1.73-7.4-3.45-12.22-5.7c2.77-0.32,4.57-0.53,6.36-0.74
			C921.73,1010.5,922.05,1010.51,922.37,1010.53z"/>
		<path class="st46" d="M967.19,458.97c0.38-0.06,0.76-0.11,1.14-0.17c0.69,0.7,1.38,1.39,2.07,2.09c-0.04,0.49,0.08,1.33-0.13,1.43
			c-4.95,2.26-9.93,4.43-14.91,6.62c4.36-2.46,8.72-4.93,13.28-7.5C968.13,460.58,967.66,459.77,967.19,458.97z"/>
		<path class="st47" d="M970,584.93c1.58,1.06,3.17,2.12,5.61,3.75c-5.16-7-9.96-13.08-14.21-19.51c-1.61-2.44-1.98-5.71-2.91-8.6
			c3.66,4.32,7.32,8.64,10.98,12.96c0.52,1.16,0.76,2.58,1.6,3.42c7.04,7.19,13.87,14.64,21.4,21.28s15.81,12.44,23.76,18.61
			c12.35,7.65,24.7,15.31,37.05,22.96c2.74,1.63,5.49,3.26,8.23,4.9c-1.4,0.03-2.79,0.06-4.19,0.08
			c-22.81-9.83-42.78-24.02-61.27-40.5c-0.69,0.74-1.37,1.47-2.06,2.21c2.07,1.27,4.37,2.29,6.17,3.87
			c4.18,3.7,8.12,7.68,12.15,11.54c-2.61-1.69-5.47-3.09-7.8-5.11c-10.49-9.09-20.85-18.33-31.19-27.6
			C972.01,588.01,971.1,586.36,970,584.93z"/>
		<path class="st41" d="M1057.32,644.78c1.4-0.03,2.79-0.06,4.19-0.08c9.26,4.3,18.52,8.59,27.77,12.88
			c9.66,3.75,19.33,7.51,28.99,11.26c1.14,0.64,2.25,1.35,3.43,1.89c7.06,3.23,14.13,6.42,21.2,9.62c-0.24,0.63-0.48,1.26-0.72,1.89
			c-10.25-3.47-20.58-6.75-30.73-10.48c-9.96-3.66-19.72-7.83-29.63-11.64c-1.35-0.52-3.01-0.26-4.52-0.35
			c-4.68-2.29-9.36-4.58-14.04-6.87c-1.9-1.66-3.94-3.2-5.63-5.06C1057.08,647.23,1057.4,645.82,1057.32,644.78z"/>
		<path class="st48" d="M1057.32,644.78c0.08,1.04-0.24,2.46,0.32,3.07c1.7,1.85,3.73,3.39,5.63,5.06
			c-14.55-8.41-29.13-16.76-43.62-25.27c-2.65-1.56-4.9-3.8-7.34-5.72c-4.03-3.86-7.97-7.84-12.15-11.54
			c-1.79-1.59-4.1-2.6-6.17-3.87c0.69-0.74,1.37-1.47,2.06-2.21C1014.54,620.75,1034.51,634.95,1057.32,644.78z"/>
		<g>
			<path class="st35" d="M1437.17,899.61c-5.43,4.62-10.85,9.25-16.27,13.87c-1.66,0.9-3.32,1.8-5.51,3
				c-0.85-4.29-1.57-7.89-2.38-11.94c-3.7,4.76-6.8,9.3-10.46,13.33c-15.72,17.31-34.78,31.26-34.78,31.26l-18.62,13.26
				c0,0-18.68,7.7-28.1,11.31c-2.31,0.89-4.97,0.85-7.68,1.27c-0.22-3.61-0.38-6.32-0.58-9.67c-5.37,3.66-10.11,6.9-14.85,10.13
				c4.48-1.98,8.97-3.96,13.75-6.07c0.39,1.78,0.37,3.06-0.06,3.96c0.42-0.9,0.44-2.18,0.05-3.95c-4.78,2.11-9.27,4.09-13.75,6.07
				c-8.3,4.88-16.5,9.92-24.91,14.61c-24.61,13.72-51.58,20.9-78.59,27.96c-42.93,11.22-86.39,16.82-130.8,12.64
				c-17.71-1.67-35.41-3.51-53.11-5.28c-3.01,0.04-6.06,0.43-9.05,0.04c-9.06-1.15-18.09-2.59-27.14-3.91
				c-3.25,3.45-7.07,0.17-10.64,0.58c-4.94,0.57-10.15-1.31-16.66-2.38c1.94,1.66,2.62,2.24,3.31,2.83
				c0.24,0.33,0.48,0.65,0.72,0.98c4.08,0.96,8.11,2.25,12.24,2.83c17.04,2.41,34.07,4.82,51.16,6.8
				c14.91,1.73,29.88,2.88,44.82,4.29c15,0.37,29.99,0.74,44.99,1.12c11.44-0.7,22.96-0.81,34.3-2.27
				c13.54-1.75,27.01-4.24,40.35-7.16c14.79-3.24,29.55-6.85,44.04-11.23c10.42-3.15,20.56-7.45,30.51-11.93
				c9.43-4.24,18.6-9.12,27.61-14.22c7.92-4.48,15.44-9.64,23.14-14.5c0.44-0.26,0.88-0.59,1.32-0.91
				c-0.43,0.32-0.87,0.65-1.31,0.91c1.32,1.4,2.64,2.79,3.96,4.19c7.59-1.26,15.19-2.5,22.77-3.79c1.77-0.3,3.51-0.77,5.26-1.17
				c0.29-0.32,0.58-0.63,0.88-0.95c0,0,0.01,0,0.01,0c11.52-2.92,21.06-9.65,30.75-16.07c7.07-5.43,14.14-10.85,21.21-16.28
				c5.97-6.22,11.91-12.47,17.97-18.6c0.63-0.64,2.45-1.16,2.88-0.78c3.83,3.35,6.74,1.51,9.9-1.17
				c8.02-6.81,16.19-13.45,24.3-20.16c0.35-0.95,0.69-1.91,1.04-2.86C1442.5,899.6,1439.83,899.61,1437.17,899.61z"/>
			<path class="st35" d="M1486.25,668.77c-4.54-11.71-10.59-22.83-15.96-34.22c-0.06,0.41-0.12,0.81-0.2,1.22
				c-3.98-6-7.95-11.98-11.93-17.98c-0.01,0.71-0.03,1.42-0.05,2.12c5.27,9.98,10.54,19.96,15.81,29.94c0,0,0,0,0,0
				c1.39,3.72,2.96,7.39,4.13,11.17c4.39,14.24,8.64,28.51,12.94,42.77c0.39-0.01,0.77-0.03,1.16-0.05v0
				c0.16,1.64,0.28,3.29,0.49,4.93c1.16,9,3.24,18,3.31,27.01c0.11,14.39-0.55,28.85-1.88,43.18
				c-2.36,25.45-11.08,49.02-22.81,71.57c-2.44,4.69-4.73,9.46-7.09,14.18c0,0-0.01,0-0.01,0.01c-1.63,2.25-3.2,4.55-4.9,6.74
				c-7.34,9.44-14.72,18.84-22.09,28.25c2.67-0.01,5.33-0.01,8-0.02c0.49-0.37,1.07-0.68,1.53-1.07c-0.45,0.4-1.05,0.71-1.54,1.08
				c-0.35,0.95-0.69,1.91-1.04,2.86c1.86-1.67,3.73-3.35,5.6-5.02c0.37-0.55,0.7-1.14,1.12-1.64
				c34.32-41.03,52.03-88.26,52.03-141.77C1502.87,724.63,1496.87,696.13,1486.25,668.77z M1472.16,860.6
				C1472.16,860.6,1472.16,860.6,1472.16,860.6c0.29-2.09,0.58-4.2,0.87-6.3c0,0,0,0,0,0
				C1472.74,856.39,1472.45,858.5,1472.16,860.6z"/>
		</g>
		<path class="st42" d="M984.36,466.88c0.56,0.31,1.12,0.61,1.69,0.92c-9.52,7.82-15.45,18.12-19.85,29.37
			c-2.62,6.69-1.42,9.73,4.6,13.98c10.23,7.22,21.78,11.16,33.93,13.6c1.55,0.31,3.08,0.75,5.01,1.23
			c-1.99,4.62-3.73,8.68-5.48,12.74c-5.21,10.63-3.77,14.78,6.79,19.42c9.12,4.01,18.7,5.65,28.62,5.9c7.96,0.2,7.94,0.32,8.8,7.97
			c0.17,1.48,0.6,2.94,0.73,4.42c0.82,10.11,2.36,11.73,12.33,13.6c5.6,1.05,11.73-0.13,16.66,3.86c5.7,3.32,11.4,6.64,17.09,9.97
			c1,0.81,1.89,1.85,3.02,2.41c10.27,5.03,20.53,10.06,30.89,14.9c6.57,3.07,13.29,5.82,19.94,8.72
			c10.41,4.28,20.82,8.56,31.22,12.84c19.62,5.36,39.24,10.72,58.87,16.08c9.12,2.33,18.21,4.75,27.35,6.97
			c8.83,2.14,17.71,4.08,26.57,6.1c0.71,3.96,1.42,7.92,2.13,11.87c-0.07,3.27-0.14,6.53-0.21,9.8c-0.6,0.32-1.2,0.63-1.81,0.95
			c-1.44-0.22-2.97-0.88-4.31-0.6c-13.58,2.85-27.14,5.86-40.7,8.83c-13.24-3.05-26.48-6.08-39.72-9.15
			c-5.1-1.18-10.18-2.43-15.28-3.65c-2.65-0.73-5.31-1.45-7.96-2.18c-3.54-1.35-7.08-2.7-10.63-4.04c-1.66-0.63-3.34-1.22-5.01-1.82
			c-6.17-2.05-12.35-4.1-18.52-6.15c-1.57-0.33-3.14-0.67-4.71-1c-0.82-0.9-1.46-2.18-2.48-2.63c-7.05-3.11-14.27-5.84-21.25-9.08
			c-21.55-10.01-43.24-19.74-64.45-30.42c-21.62-10.89-41.35-24.57-58.71-41.73c-17.78-17.57-32.25-37.55-45.41-58.6
			c-8.49-13.57-15.88-27.67-19.86-43.33c7.52-4,15.06-7.96,22.54-12.02c3.57-1.93,7.03-4.06,10.54-6.09c3-2,6.01-4,9.01-6
			C979.02,465.51,981.69,466.19,984.36,466.88z"/>
		<path class="st42" d="M1202.39,731.76c5.3-3.97,10.6-7.95,15.9-11.92c7.33-3.01,14.65-6.03,21.98-9.04
			c1.28-0.3,2.57-0.57,3.84-0.92c14.54-3.93,29.05-7.96,43.62-11.72c2.68-0.69,5.65-0.31,8.48-0.43c-0.01,3.8-0.14,7.61,0,11.4
			c0.11,3.09-1.22,3.83-4.19,4.68c-5.83,1.66-11.33,4.48-16.96,6.81c-4.28,1.68-8.56,3.35-12.83,5.03
			c-8.95,2.68-15.38,8.7-20.35,16.21c-1.05,1.59,0.09,4.62,0.22,6.99c0.25,0.32,0.49,0.63,0.74,0.95c1.02,1.03,2.03,2.06,2.02,2.05
			c4.1-4.39,7.33-8.63,11.32-11.96c6.81-5.68,14.1-10.79,21.19-16.14c0.32-0.28,0.65-0.55,0.98-0.83
			c5.38-1.81,10.77-3.62,16.48-5.53c-0.2,4.13-0.35,7.21-0.5,10.28c-0.26,0.24-0.52,0.49-0.79,0.73c-0.88-0.64-2.35-1.97-2.56-1.8
			c-1.34,1.12-2.58,2.45-3.54,3.92c-6.71,10.25-13.21,20.64-20.13,30.76c-1.47,2.15-4.12,4.02-6.61,4.85
			c-14.14,4.72-28.28,9.57-42.67,13.41c-11.32,3.02-23.01,4.65-34.53,6.89c1.96-6.85,3.93-13.71,5.89-20.56
			C1193.72,754.51,1198.05,743.14,1202.39,731.76z"/>
		<path class="st49" d="M1193.26,689.91c5.09,1.22,10.18,2.47,15.28,3.65c13.24,3.07,26.48,6.1,39.72,9.15
			c-3.27-0.31-6.61-0.28-9.79-0.99c-14.11-3.16-28.18-6.51-42.25-9.88C1195.14,691.58,1194.24,690.57,1193.26,689.91z"/>
		<path class="st50" d="M1296.22,697.74c-2.83,0.11-5.8-0.27-8.48,0.43c-14.58,3.76-29.09,7.79-43.62,11.72
			c-1.27,0.34-2.56,0.61-3.84,0.92c-0.01-0.36-0.02-0.71-0.02-1.07c16.84-4.65,33.68-9.29,50.51-13.97c0.88-0.25,1.67-0.84,2.5-1.28
			c0.6-0.32,1.21-0.63,1.81-0.95c0.71,1.4,1.41,2.81,2.12,4.21C1296.87,697.74,1296.54,697.74,1296.22,697.74z"/>
		<path class="st49" d="M1169.29,689.65c-2.01-0.65-4.01-1.3-6.02-1.95c-5.76-2-11.51-4.01-17.62-6.13
			c5.6-3.55,10.58-0.52,15.63,1.17c-0.55,0.24-1.11,0.48-2.57,1.11c3.71,1.15,6.62,1.88,9.36,3.01
			C1168.75,687.14,1168.9,688.69,1169.29,689.65z"/>
		<path class="st51" d="M1202.39,731.76c-4.34,11.38-8.67,22.75-13.01,34.13c-0.07-0.39-0.14-0.78-0.21-1.17
			c3.69-10.34,7.37-20.67,11.06-31.01C1200.95,733.06,1201.67,732.41,1202.39,731.76z"/>
		<path class="st52" d="M1240.25,709.73c0.01,0.36,0.02,0.71,0.02,1.07c-7.33,3.01-14.65,6.03-21.98,9.04
			C1225.61,716.47,1232.93,713.1,1240.25,709.73z"/>
		<path class="st53" d="M1381.05,689.32c7.96,3.77,12.87-0.55,17.5-6.32c6.33-7.89,12.91-15.57,19.39-23.34
			c0.42,0.04,0.84,0.08,1.26,0.11c-3.38,4.65-6.75,9.3-10.13,13.95c-4.63,4.99-9.26,9.98-13.89,14.97c-2.02,3.83-5.6,3.24-9,3.17
			c-2.34-0.75-4.68-1.49-7.03-2.24C1379.78,689.52,1380.41,689.42,1381.05,689.32z"/>
		<path class="st54" d="M1419.19,659.77c-0.42-0.04-0.84-0.08-1.26-0.11c5.05-6.7,10.1-13.41,15.15-20.11
			c0.05,0.47,0.1,0.93,0.15,1.4c-3.36,4.92-6.72,9.84-10.08,14.75C1421.83,657.06,1420.51,658.41,1419.19,659.77z"/>
		<path class="st19" d="M1419.19,659.77c1.32-1.36,2.64-2.71,3.96-4.07c-4.7,6.01-9.39,12.01-14.09,18.02
			C1412.44,669.07,1415.81,664.42,1419.19,659.77z"/>
		<path class="st11" d="M1295.21,727.69c-2.95,15.05-10.7,27.64-19.97,39.53c-4.47,5.73-11.03,7.75-17.26,10.37
			c-6.07,2.56-13.36,3.52-18.13,7.54c-5.16,4.35-11.47,4.3-16.6,7.55c-1.86,0.77-4,2.22-4.1-2.23c-7.55,1.21-15.11,2.44-22.66,3.64
			c-4.39,0.7-8.77,1.38-13.17,2.04c-3.71,0.55-3.42-2.28-2.86-4.15c2.74-9.13,5.77-18.18,8.71-27.25c0.07,0.39,0.14,0.78,0.21,1.17
			c-1.96,6.85-3.93,13.71-5.89,20.56c-0.58,2.2-1.15,4.41-1.87,7.14c1.74,0,2.86,0.09,3.96-0.01c28.45-2.63,55.54-10.42,81.71-21.61
			c1.77-0.76,3.52-2.02,4.77-3.49c10.01-11.81,18.09-24.68,21.47-40.06c0.26-0.24,0.52-0.49,0.79-0.73l0.45,0.02L1295.21,727.69z"/>
		<path class="st55" d="M1146.42,674.72c1.57,0.33,3.14,0.67,4.72,1c-0.01,0.75-0.03,1.5-0.05,2.25
			c-10.57-3.08-21.14-6.17-31.71-9.25c-5.39-2.06-10.76-4.15-16.17-6.16c-4.62-1.71-9.28-3.33-13.93-4.99
			c-9.26-4.29-18.52-8.59-27.77-12.88c-2.74-1.63-5.49-3.26-8.23-4.9c-0.32-0.67-0.64-1.35-0.96-2.02c1.52,0.59,3.08,1.1,4.56,1.77
			c16.28,7.42,32.3,15.49,48.89,22.11C1118.96,666.93,1132.85,670.44,1146.42,674.72z"/>
		<path class="st56" d="M1151.09,677.97c0.02-0.75,0.03-1.5,0.05-2.25c6.17,2.05,12.34,4.1,18.52,6.15
			c-1.32,0.03-2.71,0.34-3.94,0.04C1160.82,680.7,1155.96,679.3,1151.09,677.97z"/>
		<path class="st57" d="M1089.28,657.58c4.64,1.66,9.3,3.27,13.93,4.99c5.41,2.01,10.78,4.1,16.17,6.16
			c-0.37,0.04-0.74,0.08-1.11,0.12C1108.61,665.08,1098.95,661.33,1089.28,657.58z"/>
		<path class="st42" d="M1369.27,710.54c-1.04-1.93-2.08-3.86-3.12-5.79c-1.31-4.64-2.62-9.28-3.92-13.93
			c0.65-0.01,1.29-0.02,1.94-0.04c4.72,1.16,9.56,1.96,14.13,3.55c11.35,3.95,22.57,8.26,33.84,12.43
			c3.93,2.11,8.01,3.98,11.72,6.41c2.25,1.47,4.63,3.5,5.69,5.84c1.75,3.87,2.71,8.15,3.59,12.34c4.06,19.37,7.98,38.77,11.96,58.15
			c-0.23,0.18-0.47,0.18-0.71,0.01c-1.68-0.96-3.29-2.12-5.06-2.86c-16.22-6.79-32.48-13.51-48.72-20.25
			c-4.96-2.06-7.73-5.87-9.37-10.9c-2.88-8.85-5.91-17.65-9.18-26.37c-1.17-3.13-3.19-5.95-4.83-8.92c0.49-2.13,0.98-4.25,1.52-6.62
			c2.85,0.88,5.13,1.58,7.41,2.28c12.3,6.08,23.57,13.57,33.26,23.41c2.75,2.79,6.4,4.29,11.24,2.67
			c-7.62-8.94-15.66-16.41-25.62-21.21C1386.73,716.76,1377.88,713.91,1369.27,710.54z"/>
		<path class="st58" d="M1362.23,690.83c1.31,4.64,2.62,9.28,3.92,13.93c-3.05,9.41-5.94,18.87-9.26,28.17
			c-0.78,2.18-2.99,3.84-4.55,5.75l-0.4,0.08c2.64-6.05,5.36-12.08,7.91-18.16c3.96-9.43,4.52-18.79-0.77-28
			c-1.46-2.55-2.68-5.23-4.01-7.86c-1.94-3.11-3.87-6.22-5.81-9.33c0.07-0.25,0.18-0.47,0.33-0.68c0.21-1.14,0.25-2.35,0.68-3.39
			c0.52-1.24,1.38-2.34,2.1-3.5c-0.13,1.51-0.87,3.36-0.27,4.47c3.19,5.89,6.71,11.59,10.12,17.35
			C1362.22,690.04,1362.22,690.43,1362.23,690.83z"/>
		<path class="st59" d="M1445.09,789.51c-3.97-19.39-7.89-38.79-11.96-58.15c-0.88-4.19-1.84-8.47-3.59-12.34
			c-1.06-2.35-3.44-4.37-5.69-5.84c-3.71-2.43-7.8-4.3-11.72-6.41c0.26-0.04-1.12-1.49-2.06-2.57c-0.26-0.29,0.08-0.72,0.43-0.55
			c4.66,2.31,12.64,6.56,15.64,9.47c3.32,3.2,4.8,8.32,7.08,12.59c2.33,9.32,4.67,18.65,7,27.97c0.65,3.33,1.31,6.67,1.96,10
			c0.52,3.39,1.16,6.76,1.53,10.17C1444.28,779.07,1444.64,784.29,1445.09,789.51z"/>
		<path class="st60" d="M1440.23,753.69c-2.33-9.32-4.67-18.65-7-27.97c0.65,0,1.3,0,1.96,0.01c2.32,8,4.64,16.01,6.96,24.01
			C1441.51,751.05,1440.87,752.37,1440.23,753.69z"/>
		<path class="st61" d="M1413.35,706.6c-0.41,0.06-0.81,0.11-1.22,0.17c-11.27-4.17-22.49-8.48-33.84-12.43
			c-4.57-1.59-9.41-2.39-14.13-3.55C1394.29,693.54,1401.02,698.21,1413.35,706.6z"/>
		<path class="st26" d="M1146.42,674.72c-13.58-4.29-27.46-7.8-40.65-13.06c-16.6-6.63-32.62-14.69-48.89-22.11
			c-1.48-0.68-3.04-1.19-4.56-1.77c-11.97-7.38-23.95-14.76-35.92-22.14c-3.1-2.47-6.36-4.77-9.29-7.44
			c-12.6-11.5-25.1-23.1-37.64-34.67c-3.66-4.32-7.32-8.64-10.98-12.96c-5.51-10.18-11.49-20.13-16.39-30.6
			c-4.85-10.36-8.85-21.15-12.76-31.92c-2.32-6.4-1.86-6.65,4.91-9.11c3.98,15.65,11.37,29.76,19.86,43.32
			c13.16,21.05,27.64,41.02,45.41,58.6c17.36,17.16,37.09,30.84,58.71,41.73c21.21,10.68,42.9,20.42,64.45,30.42
			c6.98,3.24,14.2,5.97,21.25,9.08C1144.96,672.54,1145.61,673.83,1146.42,674.72z"/>
		<path class="st27" d="M1037.31,349.97c-1.65,2.5-4.05,4.79-4.82,7.53c-5.52,19.76-14.13,37.99-26.29,54.51
			c-0.75,1.02-2.47,1.32-3.74,1.95c-0.74,0.94-1.47,1.87-2.21,2.81c-5.07,4.76-9.55,10.48-15.35,14.06
			c-8.34,5.14-17.64,8.73-27.03,13.22c0.32,1.42,0.84,3.77,1.36,6.13c1.78,2.49,3.55,4.98,5.33,7.47c0.87,0.43,1.74,0.87,2.61,1.31
			c0.38-0.06,0.76-0.11,1.14-0.17c-1.95-2.2-3.9-4.4-5.85-6.6c0.15-0.21,0.31-0.41,0.46-0.62c0.01,0,0.01,0.01,0.02,0.01
			c-0.15,0.21-0.31,0.41-0.46,0.62c1.95,2.2,3.9,4.4,5.85,6.6c0.69,0.7,1.38,1.39,2.07,2.09c1.99,1.31,3.97,2.63,5.96,3.94
			c2.67,0.69,5.33,1.37,8,2.05c0.56,0.31,1.12,0.6,1.67,0.91c1.48,0.11,2.95,0.23,4.43,0.34c0.85-0.74,1.7-1.47,3.22-2.8
			c-11.88-3.4-21.42-8.97-28.23-18.52c-3.11-3.39,0.8-2.98,2.07-3.41c10.92-3.66,21.31-8.24,29.94-16.14
			c1.22-1.54,2.26-3.27,3.67-4.59c14.94-13.75,26.17-29.95,32.87-49.2c2.38-6.84,4.82-13.66,7.23-20.48
			c0.03-0.34,0.05-0.68,0.08-1.02C1041.66,347.94,1038.7,350.52,1037.31,349.97z"/>
		<path class="st62" d="M1170.29,165.01c-4.7-2.95-9.4-5.9-14.1-8.85c6.39,2.97,12.78,5.94,19.17,8.91
			C1173.67,165.04,1171.98,165.03,1170.29,165.01z"/>
		<path class="st0" d="M1418.05,527.07c3.02,6.2,6.06,12.39,9.03,18.62c0.48,0.99,0.66,2.13,1.27,4.15c-9.5,0-18.41,0-28.49,0
			c0.72,2.6,1.48,5.38,2.25,8.16c1.57,9.61,3.15,19.22,4.72,28.83l0.25,0.13l0.24-0.15c-0.69,1.07-1.39,2.14-2.08,3.21
			c-5.23,0.55-10.45,1.09-16.11,1.69c0,5.27,0,11.68,0,18.08c-1.37,7.11-3.91,13.62-8.86,19.13c-4.61,5.13-8.93,10.51-13.38,15.79
			c-6.14,6.71-12.27,13.43-17.44,19.09c-6.02-1.19-10.96-2.91-15.93-2.98c-7.11-0.11-14.24,0.93-21.35,1.57
			c-8.22,0.74-16.74,3.42-24.58,2.08c-38.64-6.61-76.1-17.83-112.53-32.22c-15.76-6.23-31.06-13.65-46.56-20.53
			c-6.06-2.99-12.11-5.97-18.17-8.96c-7.77-3.93-15.54-7.86-23.3-11.79c0.82-2.15,1.63-4.29,2.66-7.01
			c-2.08-0.34-4.44-0.91-6.82-1.1c-13.96-1.14-17.2-3.86-19.61-17.48c-0.88-4.99-1.06-10.11-1.59-15.51
			c-3.5,0.26-6.79,0.7-10.07,0.68c-3.31-0.01-6.67-0.22-9.93-0.79c-17.65-3.06-16.66-1.07-19.05-14.12
			c-0.35-1.9-0.06-3.99,0.28-5.93c0.85-4.98,1.89-9.94,2.87-15c-0.76-0.25-1.37-0.59-2-0.63c-13.47-0.84-24.78-6.84-35.51-14.47
			c-2.55-1.81-3.37-3.49-1.9-6.15c4.95-8.98,9.9-17.97,14.94-26.9c1.18-2.09,2.75-3.97,4.18-6.01c-0.87-0.63-1.23-1.05-1.66-1.16
			c-0.62-0.15-1.31-0.15-1.96-0.09c-7.28,0.69-14.39-0.22-20.63-4.01c-4.3-2.61-7.94-6.29-11.87-9.49
			c4.04-1.28,8.08-2.55,12.12-3.82c4.49,1.97,8.84,5.08,13.51,5.65c7.69,0.95,15.57,0.26,23.38,0.26c-1.77,2.69-2.8,6.58-5.28,10.37
			c-5.83,8.89-9.71,19.08-14.07,28.88c-0.34,0.76,1.48,3.05,2.78,3.89c9.95,6.43,21.17,8.33,32.75,8.79
			c3.11,0.12,6.23,0.02,9.66,0.02c-1.86,6.31-3.85,11.89-5.09,17.63c-1.01,4.66-1.17,9.52-1.66,14.29
			c-0.42,4.14,1.31,5.76,5.64,6.23c11.52,1.24,22.82,0.52,34.07-2.02c0.44-0.1,0.95,0.15,2.03,0.33c-0.36,2.88-0.54,5.77-1.11,8.59
			c-2.01,10.05,1.49,18.37,8.33,25.35c1.55,1.58,4.78,2.55,7.01,2.24c16.49-2.33,32.84-5.31,46.53-15.93
			c0.35-0.27,0.91-0.27,1.78-0.5c0.72,3.75,1.29,7.43,2.15,11.04c3.78,16.01,13.12,28.89,23.42,41.2c1.49,1.78,3.47,3.18,4.84,5.04
			c5.58,7.63,13.11,7.7,21.05,5.34c9.74-2.9,16.58-9.49,21.81-18.94c3.63,5.28,6.97,10.14,10.32,15c2.92,4.01,5.16,8.89,8.91,11.83
			c7.99,6.27,15.12,14.05,25.84,16.28c7.25,1.51,14.23,4.73,21.51,5.55c5.05,0.57,10.41-1.67,15.64-2.65
			c10.42-6.12,17.89-14.48,20.46-26.66c0.22-1.04,1.11-1.93,1.75-2.99c2.75,1.67,5.27,3.2,7.8,4.73c3.52,2.08,6.83,4.77,10.61,6.12
			c7.25,2.59,14.75,5.28,22.35,0.75c15.93-11.66,22.03-28.78,19.63-56.05c3.63,1.11,6.95,2.46,10.4,3.09
			c6.68,1.23,7.57,0.65,6.82-6.05c-1-8.87-2.78-17.66-4.21-26.48c-0.25-1.56-0.39-3.13-0.64-5.17c6.46,1.01,12.27,1.92,18.44,2.88
			c2.06-9.72-4.31-17.03-6.25-25.82c11.03,2.05,21,0.55,29.8-6.19c3.63,2.74,7.25,5.48,10.88,8.21c-3.49,0.91-6.93,2.05-10.47,2.67
			c-6.53,1.14-13.12,1.98-19.84,2.97c0.47,1.01,0.86,2.09,1.45,3.06C1416.7,525.62,1417.42,526.31,1418.05,527.07z M1266.78,648.36
			c7.79,6.66,22.15,11.13,28.14,6.3C1284.44,657.93,1276.46,652.54,1266.78,648.36z"/>
		<path class="st63" d="M1418.05,527.07c-0.63-0.75-1.36-1.45-1.87-2.28c-0.59-0.97-0.98-2.05-1.45-3.06
			c6.72-0.99,13.31-1.82,19.84-2.97c3.54-0.62,6.98-1.77,10.47-2.67c0.05,0.25,0.12,0.49,0.22,0.73c-8.89,2.6-17.52,6.47-28.15,5.09
			c1.46,1.19,2.2,1.8,3.05,2.49C1419.56,525.17,1418.81,526.12,1418.05,527.07z"/>
		<path class="st28" d="M1156.17,525.9c-30.82-0.09-62.97-30.15-66.07-64c-1.51-16.46,2.11-31,12.95-43.49
			c7.92-9.13,18.12-14.49,30-16.4c36.17-5.82,72.12,21.81,78.85,59.15c3.97,21.99-2.01,41.29-20.67,55.15
			C1181.86,523.27,1170.99,526.11,1156.17,525.9z"/>
		<path class="st4" d="M1361.52,426.81c13.45,4.14,26.92,8.19,40.28,12.59c1.29,0.43,2.68,3.18,2.58,4.77
			c-1.08,17.22-1.94,34.49-4.05,51.59c-0.62,5.03-4.51,9.95-7.72,14.33c-9.79,13.35-19.98,26.42-30.02,39.59
			c-0.68-0.18-1.36-0.37-2.04-0.55c-0.81-3.04-1.62-6.08-2.43-9.11c-0.11-1.3-0.02-2.65-0.35-3.89c-0.86-3.17-1.48-5.48-5.88-2.55
			c-2.76,1.84-7.43,2.31-10.76,1.48c-6.58-1.66-12.83-4.65-19.22-7.09c-2.94-2.61-5.87-5.22-8.81-7.83
			c0.41-0.76,0.81-1.52,1.22-2.28c3.97,3.02,7.93,6.03,11.9,9.05c6.9,6.45,15.27,6.83,23.85,5.31c2.01-0.36,5.62-1.54,2.95-5.31
			c-1.32-2.9-2.65-5.81-3.97-8.71c-1.41-2.4-2.82-4.8-4.23-7.2c-7.39-8.63-17.73-12.51-27.6-17.16c-2.31-1.32-4.62-2.64-6.93-3.95
			c-3.77-4.13-7.5-8.3-11.37-12.33c-0.54-0.56-1.78-0.44-2.69-0.64c-0.27-2.39,0.37-5.79-0.96-6.98c-4.2-3.73-3.02-8.58-3.94-12.99
			c0.64,0.8,1.42,1.53,1.9,2.41c1.15,2.11,2.16,4.3,3.23,6.46c6.8,13.07,16.86,22.4,30.9,27.35c2.94,1.04,5.58,2.92,8.34,4.45
			c9.2,5.08,16.03,12.2,19.6,22.28c1.61,4.53,3.61,8.92,5.46,13.37c0.66,1.59,1.03,3.89,3.54,1.73c1.79-1.34,4-2.37,5.3-4.08
			c7.6-10.01,15.1-20.11,22.35-30.37c1.86-2.64,3.48-5.88,3.91-9.02c1.9-13.97,3.4-28.01,4.88-42.03c0.41-3.88-1.21-6.49-5.34-7.75
			c-9.83-3-19.54-6.37-29.29-9.59c-8.34-4.69-17.62-4.85-26.68-4.58c-5.48,0.16-10.9,2.54-16.34,3.92c-0.12-0.47-0.23-0.93-0.35-1.4
			c6.17-1.39,12.29-3.46,18.54-3.97C1347.97,425.57,1354.77,426.52,1361.52,426.81z"/>
		<path class="st27" d="M1275.53,360.82c7.67,4.92,11.04,12.53,12.95,20.98c2.99,13.2,1.69,25.93-4.36,38.1
			c-0.12-1.36-0.23-2.73-0.34-3.94c-2.22,3.03-4.4,6.01-6.58,8.98c-0.84,0.38-1.69,0.75-2.53,1.13c-6.11,0.74-12.87-1.89-15.43-6.95
			c-3.98-7.87-1.86-17.56-0.42-25.62c1.47-8.25,6.17-15.6,8.33-23.73c2.07-2.27,4.13-4.54,6.2-6.8
			C1274.09,362.26,1274.81,361.54,1275.53,360.82z"/>
		<path class="st43" d="M1396.2,337.12c5.5,4.2,5.83,10.5,6.08,16.47c0.57,13.47-0.86,26.72-6.18,39.31c-1.49-0.69-2.95,0.91-4.29,0
			c-2.25-1.52-7.25-2.6-8-4.75c-1.7-4.88-2.92-12.7-2.51-17.73c0.87-10.68,2.51-21.04,11.77-29.75c0.64-0.88,1.29-1.76,1.93-2.64
			C1395.4,337.74,1395.8,337.43,1396.2,337.12z"/>
		<path class="st64" d="M1242.25,306.93c-5.99,3.81-10.68,9.61-17.49,12.18c12.82-25.31,56.24-33.04,70.37-16.11
			c-2.86,0-4.87,0.39-6.65-0.08c-4.14-1.08-8.16-2.56-12.24-3.89C1263.64,296.18,1252.45,299.44,1242.25,306.93z"/>
		<path class="st65" d="M1277.2,424.94c2.18-2.98,4.36-5.95,6.58-8.98c0.1,1.22,0.22,2.58,0.34,3.94
			c-8.01,18.17-24.94,26.89-43.18,22.03c-12.78-3.4-18.86-13.09-21.27-25.03c-2.64-13.09-1.1-25.93,5.79-37.75
			c0.32-0.55,0.93-0.92,1.41-1.37c0.45,0.68,0.91,1.36,1.36,2.04c-6.08,10.04-8.08,20.86-6.75,32.49
			c1.66,14.57,9.03,24.21,21.72,27.74c11.56,3.22,26.37-2.09,33.13-11.97C1276.92,427.24,1276.93,426,1277.2,424.94z"/>
		<path class="st66" d="M1361.52,426.81c-6.75-0.29-13.55-1.24-20.23-0.7c-6.24,0.51-12.36,2.58-18.54,3.97
			c0.12,0.47,0.23,0.93,0.35,1.4c5.44-1.38,10.86-3.75,16.34-3.92c9.06-0.27,18.34-0.11,26.68,4.58
			c-7.66-0.74-15.32-1.48-22.97-2.22c-4.84,0.49-10.34-0.32-14.4,1.73c-9.41,4.76-18.24,10.72-27.09,16.54
			c-6.49,4.26-9.45,9.99-5.2,17.63c-1.07-2.16-2.08-4.35-3.23-6.46c-0.48-0.89-1.26-1.61-1.91-2.41c-0.07-0.41-0.15-0.82-0.22-1.23
			c11.44-15.11,25.82-26.54,44.51-30.3C1343.83,423.76,1352.86,426.22,1361.52,426.81z"/>
		<path class="st67" d="M1364.59,298.22c0.07-10.62,9.98-23.89,22.2-26.01c7.97-1.38,14.94,1.82,17.62,9.28
			c-2.14-0.82-3.85-1.16-5.19-2.06c-6.12-4.1-11.99-4.37-18-0.23c-5.46,3.77-10.4,8.07-13.03,14.49
			C1367.62,295.1,1366.26,296.18,1364.59,298.22z"/>
		<path class="st68" d="M1393.07,340.68c-7.35,8.55-9.66,19.08-10.53,29.76c-0.41,5.03,1.15,10.45,2.86,15.33
			c0.75,2.15,4.01,3.51,6.26,5.03c1.34,0.91,2.95,1.42,4.44,2.11c-2.22,4.36-3.92,9.11-6.79,12.98c-3.62,4.87-8.48,5.27-13.52,2.28
			c0.47-0.37,0.94-0.73,1.41-1.1c8.16,1.77,12.41-1.82,15.89-13.41c-7.22-1.75-10.27-4.67-11.66-12.22c-2.1-11.43-0.7-22.6,4.43-33
			C1387.35,345.4,1390.61,343.24,1393.07,340.68z"/>
		<path class="st69" d="M1377.19,407.07c-0.47,0.37-0.94,0.73-1.41,1.1c-6.54-3.28-8.24-9.86-9.35-15.92
			c-3.2-17.38,0.01-33.86,9.52-48.88c1.55-2.46,3.95-4.38,5.95-6.55c0.45,0.43,0.89,0.86,1.34,1.28c-2.05,2.79-4.42,5.41-6.08,8.41
			c-7.57,13.68-11.4,28.26-8.67,43.9C1369.58,396.68,1371.35,403.06,1377.19,407.07z"/>
		<path class="st70" d="M1228.24,379.82c-0.45-0.68-0.91-1.36-1.36-2.04c6.32-10.24,13.72-19.21,26.23-22.11
			c8.3-1.92,15.75-0.06,22.42,5.14c-0.72,0.72-1.44,1.44-2.17,2.16c-1.4-1.06-2.66-2.42-4.22-3.12
			c-11.29-5.05-23.25-1.99-31.97,8.27C1234,371.86,1231.21,375.91,1228.24,379.82z"/>
		<path class="st71" d="M1297.21,645.7c-5.22,0.98-10.59,3.22-15.64,2.65c-7.28-0.81-14.26-4.04-21.51-5.55
			c-10.72-2.23-17.85-10.01-25.84-16.28c-3.76-2.94-5.99-7.83-8.91-11.83c7.63,6.55,14.82,13.71,22.97,19.52
			C1262.86,644.59,1278.9,650.42,1297.21,645.7z"/>
		<path class="st72" d="M1314.32,517.85c-0.41,0.76-0.81,1.52-1.22,2.28c-4.36-6.96-8.71-13.93-13.07-20.89
			c0.14-0.84,0.29-1.69,0.46-2.68c0.73,0.58,1.21,0.95,1.68,1.32c0.22,0.61,0.35,1.28,0.69,1.82
			C1306.67,505.77,1310.5,511.81,1314.32,517.85z"/>
		<path class="st73" d="M1291.11,455.71c0.07,0.41,0.15,0.82,0.22,1.23c0.92,4.41-0.26,9.26,3.94,12.99
			c1.33,1.19,0.7,4.59,0.96,6.98c0.05,2.22,0.1,4.45,0.15,6.67c-0.39,0.44-0.78,0.87-1.17,1.31c-1.73-8.85-3.5-17.7-5.13-26.57
			C1289.94,457.54,1290.74,456.59,1291.11,455.71z"/>
		<path class="st72" d="M1321.92,527.97c6.39,2.44,12.64,5.43,19.22,7.09c3.33,0.84,8,0.36,10.76-1.48
			c4.39-2.93,5.02-0.62,5.88,2.55c0.33,1.24,0.25,2.59,0.35,3.89c-0.82-1.76-1.65-3.52-2.54-5.43
			C1342.7,539.89,1331.99,535.46,1321.92,527.97z"/>
		<path class="st74" d="M1242.25,306.93c10.2-7.49,21.39-10.75,33.99-7.89C1264.12,298.25,1253.11,302.27,1242.25,306.93z"/>
		<path class="st75" d="M1360.18,627.66c-7.6,4.54-15.1,1.85-22.35-0.75c-3.78-1.35-7.09-4.04-10.61-6.12
			c4.85,2.01,9.69,4.04,14.55,6.02C1347.79,629.28,1353.96,629.04,1360.18,627.66z"/>
		<path class="st76" d="M1295.21,484.89c0.39-0.44,0.78-0.87,1.17-1.31c1.93,4.77,3.86,9.54,5.8,14.31
			c-0.48-0.37-0.95-0.75-1.68-1.32c-0.17,1-0.31,1.84-0.46,2.68C1298.43,494.46,1296.82,489.67,1295.21,484.89z"/>
		<path class="st77" d="M1383.24,338.1c-0.45-0.43-0.89-0.86-1.34-1.28c6.11-4.86,8.45-4.81,14.3,0.31c-0.4,0.31-0.8,0.61-1.2,0.92
			C1391.07,336.33,1387.15,335.21,1383.24,338.1z"/>
		<path class="st1" d="M969.34,445.78c3.94,3.2,7.58,6.88,11.87,9.49c6.25,3.79,13.36,4.69,20.63,4.01
			c0.65-0.06,1.34-0.07,1.96,0.09c0.44,0.11,0.79,0.53,1.66,1.16c-1.43,2.04-3,3.91-4.18,6.01c-5.05,8.93-9.99,17.92-14.94,26.9
			c-1.46,2.66-0.65,4.33,1.9,6.15c10.73,7.63,22.04,13.63,35.51,14.47c0.63,0.04,1.24,0.38,2,0.63c-0.98,5.07-2.02,10.02-2.87,15
			c-0.33,1.94-0.62,4.03-0.28,5.93c2.39,13.04,1.4,11.06,19.05,14.12c3.26,0.57,6.62,0.78,9.93,0.79c3.29,0.01,6.58-0.43,10.07-0.68
			c0.53,5.4,0.71,10.52,1.59,15.51c2.4,13.62,5.65,16.35,19.61,17.48c2.39,0.19,4.74,0.76,6.82,1.1c-1.03,2.72-1.85,4.86-2.66,7.01
			c-0.9-1.47-1.8-2.94-3.16-5.17c-4.59-0.59-10.05-1.28-15.52-1.98c-10.16-1.99-12.83-9.29-13.02-18.36c-0.02-1-0.25-2.01-0.15-2.99
			c0.41-3.98-1.8-5.28-5.32-5.53c-3.97-0.28-7.94-0.63-11.9-1.08c-8.85-1-17.22-3.44-24.76-8.4c-3.24-2.13-4.5-4.76-3.07-8.47
			c2.09-5.41,4.18-10.82,6.28-16.23c0.5-1.29,1.03-2.56,1.67-4.12c-1.62-0.33-2.57-0.55-3.54-0.72
			c-14.43-2.5-27.78-7.56-39.89-15.96c-3.04-2.11-3.08-3.94-1.86-6.95c4.11-10.15,10-19.09,17.68-26.88
			c0.85-0.74,1.69-1.47,3.22-2.8c-11.88-3.4-21.43-8.98-28.23-18.52C966.75,446.47,968.04,446.13,969.34,445.78z"/>
		<path class="st78" d="M1041.33,351.99c1.37-4.65,2.74-9.3,4.12-13.95c3.62-12.67,7.15-25.38,10.89-38.02
			c4.25-14.35,8.68-28.65,13.03-42.97c0.35,0.74,0.7,1.49,1.05,2.23c-5.62,18.78-11.28,37.55-16.83,56.35
			c-3.72,12.59-7.29,25.23-10.95,37.84c-0.27,0.92-0.81,1.77-1.22,2.65c-0.06-1.04-0.11-2.08-0.17-3.12
			C1041.28,352.66,1041.3,352.32,1041.33,351.99z"/>
		<path class="st79" d="M1075.33,239.09c-0.09-1.56-0.5-3.17-0.24-4.66c2.55-14.19,11.42-24.87,20.09-35.62
			c0.71-0.88,2.24-1.09,3.39-1.61c-3.11,4.95-6.22,9.91-9.32,14.86c-1.37,1.98-3.01,3.84-4.05,5.98
			C1081.8,225,1078.61,232.07,1075.33,239.09z"/>
		<path class="st38" d="M1041.25,353c0.06,1.04,0.11,2.08,0.17,3.12c-7.88,26.92-19.56,51.58-41.86,69.86
			c-0.63,0.51-1.4,0.86-2.1,1.28c1.22-1.54,2.26-3.27,3.69-4.58c14.94-13.75,26.17-29.95,32.87-49.2
			C1036.4,366.64,1038.84,359.83,1041.25,353z"/>
		<path class="st80" d="M1075.33,239.09c3.27-7.02,6.46-14.09,9.87-21.05c1.05-2.14,2.69-3.99,4.05-5.98
			c-6.28,15.74-12.56,31.48-18.84,47.22c-0.35-0.74-0.7-1.49-1.05-2.23C1071.36,251.06,1073.35,245.08,1075.33,239.09z"/>
		<path class="st6" d="M1093.3,157.02c-4.99-1.03-9.98-2.05-14.97-3.1c-0.1-0.02-0.21-0.25-0.21-0.38c0-0.15,0.13-0.29,0.2-0.44
			c15.74,2.81,31.49,5.63,47.23,8.44c-0.11,0.59-0.22,1.19-0.32,1.78C1114.58,161.22,1103.94,159.12,1093.3,157.02z"/>
		<path class="st81" d="M1407.25,566.69c2.9,6.69,4.78,13.38,0.08,20.1l-0.24,0.15l-0.25-0.13c0.09-5.29,0.18-10.59,0.27-15.88
			C1407.16,569.52,1407.2,568.11,1407.25,566.69z"/>
		<path class="st82" d="M1407.11,570.94c-0.09,5.29-0.18,10.59-0.27,15.88c-1.57-9.61-3.15-19.22-4.72-28.83
			C1403.78,562.31,1405.45,566.62,1407.11,570.94z"/>
		<path class="st83" d="M1378.17,636.77c1.26-1.62,2.19-3.92,3.85-4.74c8.84-4.35,11.69-11.92,12.11-21
			c0.1-2.09,0.16-4.18,0.23-6.27c0-1.87,0-3.75,0-5.7c15.33,1.96,20.22-1.23,21.03-13.19c-0.36-4.04-0.72-8.09-1.08-12.13
			c0.94,3.3,2.61,6.57,2.7,9.9c0.38,13.23-6.01,18.79-19.09,17.24c-0.63-0.07-1.28,0.09-1.66,0.12c-0.37,5.53-0.22,10.97-1.21,16.2
			c-1.35,7.16-5.42,12.66-12.21,15.96C1381.11,633.98,1379.72,635.54,1378.17,636.77z"/>
		<path class="st84" d="M969.47,573.52c12.54,11.57,25.04,23.17,37.64,34.67c2.92,2.67,6.18,4.97,9.29,7.44
			c-0.06,0.4-0.12,0.8-0.17,1.2c-7.95-6.17-16.23-11.97-23.76-18.61s-14.36-14.09-21.4-21.28
			C970.24,576.1,969.99,574.68,969.47,573.52z"/>
		<path class="st85" d="M1016.23,616.84c0.06-0.4,0.12-0.8,0.17-1.2c11.97,7.38,23.95,14.76,35.92,22.14
			c0.32,0.67,0.64,1.35,0.96,2.02C1040.93,632.14,1028.58,624.49,1016.23,616.84z"/>
		<path class="st86" d="M1293.13,669.82c0,0.68,0.01,1.36,0.01,2.04c-8.86-2.02-17.74-3.96-26.57-6.1
			c-9.14-2.22-18.24-4.64-27.35-6.97c5.19,0.99,10.39,1.91,15.55,2.98C1267.57,664.41,1280.34,667.13,1293.13,669.82z"/>
		<path class="st87" d="M1149.13,629.87c0.42-0.04,0.85-0.09,1.27-0.13c9.98,4.32,19.97,8.65,29.95,12.97
			C1169.94,638.43,1159.54,634.15,1149.13,629.87z"/>
		<path class="st88" d="M1097.29,603.83c-0.67,0.01-1.35,0.01-2.02,0.02c-5.7-3.32-11.4-6.64-17.09-9.97
			c0.7-0.02,1.4-0.03,2.09-0.05C1085.94,597.16,1091.62,600.49,1097.29,603.83z"/>
		<path class="st89" d="M1293.53,728.42c-3.38,15.37-11.46,28.25-21.47,40.06c-1.24,1.47-3,2.73-4.77,3.49
			c-26.18,11.19-53.27,18.98-81.71,21.61c-1.1,0.1-2.22,0.01-3.96,0.01c0.72-2.74,1.29-4.94,1.87-7.14
			c11.53-2.25,23.22-3.87,34.53-6.89c14.39-3.84,28.52-8.69,42.67-13.41c2.49-0.83,5.14-2.7,6.61-4.85
			c6.91-10.11,13.41-20.51,20.13-30.76c0.96-1.47,2.2-2.8,3.54-3.92C1291.18,726.45,1292.64,727.79,1293.53,728.42z"/>
		<path class="st90" d="M1262.22,725.66c4.28-1.68,8.56-3.35,12.84-5.03c3.04-1.01,6.08-2.02,9.12-3.03
			c0.11,0.32,0.22,0.65,0.33,0.97c-2.06,1.46-4.11,2.91-6.17,4.37c-0.33,0.28-0.65,0.55-0.98,0.83c-7.04,4.48-14.39,8.54-21,13.58
			c-4.48,3.42-10.28,6.08-11.66,12.59c-0.02,0.09-1.23-0.08-1.88-0.13c-0.25-0.32-0.49-0.63-0.74-0.95
			c-0.46-5.97,2.66-9.93,7.21-13.24C1253.69,732.42,1257.92,728.99,1262.22,725.66z"/>
		<path class="st91" d="M1278.34,722.94c2.06-1.46,4.11-2.91,6.17-4.37c-0.11-0.32-0.22-0.65-0.33-0.97
			c-3.04,1.01-6.08,2.02-9.12,3.03c5.63-2.34,11.13-5.15,16.96-6.81c2.97-0.85,4.3-1.59,4.19-4.68c-0.14-3.8-0.01-7.6,0-11.4
			c0.32,0,0.65,0,0.97,0.01c-0.66,9.98-1.32,19.96-1.98,29.94l-0.45,0.02l-0.45-0.02c0.15-3.07,0.3-6.15,0.5-10.28
			C1289.11,719.33,1283.72,721.13,1278.34,722.94z"/>
		<path class="st60" d="M1242.83,749.81c0.65,0.05,1.86,0.21,1.88,0.13c1.38-6.5,7.18-9.17,11.66-12.59
			c6.61-5.04,13.96-9.1,21-13.58c-7.09,5.35-14.38,10.46-21.19,16.14c-3.99,3.33-7.22,7.57-11.32,11.96
			C1244.86,751.87,1243.84,750.84,1242.83,749.81z"/>
		<path class="st92" d="M1262.22,725.66c-4.3,3.33-8.53,6.76-12.93,9.96c-4.55,3.31-7.67,7.27-7.21,13.24
			c-0.13-2.37-1.27-5.4-0.22-6.99C1246.84,734.37,1253.27,728.34,1262.22,725.66z"/>
		<path class="st42" d="M1320.36,671.74c-0.25-1.11-0.51-2.22-0.76-3.33c4.29-2.53,7.62-2.19,9.69,2.65
			c2.97,6.97,5.76,14.02,8.97,20.87c1.31,2.8,3.52,5.18,6.24,7.23c-0.79-12.33-6.9-22.21-13.93-31.67
			c5.45-3.13,11.73-2.13,16.57,2.44c0.82,1.59,1.63,3.19,2.45,4.78c-0.14,0.21-0.25,0.44-0.32,0.68c-0.14,1.24-0.67,2.59-0.36,3.71
			c2.69,9.9,5.53,19.75,8.32,29.62c-3.84,7.29-7.4,14.74-11.59,21.82c-4.23,7.14-9.08,13.92-13.84,21.14
			c1.96,0.12,3.43,0.22,4.9,0.31c-2.24,0.22-4.51,0.76-6.72,0.59c-11.26-0.87-22.5-1.93-33.74-2.92l-0.38-0.08h-0.39
			c0.42-2.23,0.65-4.51,1.28-6.67c2.14-7.31,5.58-14.46,6.34-21.9c0.86-8.45-0.35-17.16-1.21-25.7c-0.81-8.05-2.33-16.04-3.57-24.28
			c4.97-0.84,10.3-1.91,15.68-2.49c0.97-0.1,3.1,1.82,3.1,2.81c0.01,8.75-0.41,17.49-0.56,26.24c-0.04,2.4,0.4,4.8,0.62,7.2
			c1.39,1.81,2.79,3.61,4.18,5.42c0.56-0.14,1.11-0.29,1.67-0.43c0.61-2.78,1.54-5.54,1.76-8.35c0.67-8.7,1.99-17.52-2.46-25.75
			C1321.65,674.37,1321.01,673.05,1320.36,671.74z"/>
		<path class="st25" d="M1336.7,751.99c-1.47-0.09-2.94-0.19-4.9-0.31c4.76-7.22,9.61-13.99,13.84-21.14
			c4.19-7.08,7.75-14.53,11.59-21.82c0.14-0.72,0.5-1.47,0.39-2.14c-0.75-4.62-1.61-9.23-2.43-13.84c0.09-1.03,0.19-2.07,0.28-3.1
			c0.43-0.09,0.87-0.18,1.3-0.27c1.75,5.76,4.81,11.49,4.89,17.27c0.08,5.67-2.74,11.43-4.51,17.07
			c-1.58,5.06-3.47,10.03-5.22,15.03l0.4-0.08c-3.4,4.32-6.81,8.63-10.21,12.95C1340.32,751.75,1338.51,751.87,1336.7,751.99z"/>
		<path class="st93" d="M1369.27,710.54c8.61,3.36,17.45,6.22,25.75,10.21c9.96,4.79,18.01,12.26,25.62,21.21
			c-4.84,1.63-8.49,0.13-11.24-2.67c-9.69-9.84-20.96-17.33-33.26-23.41c-2.31-1.4-4.63-2.79-6.94-4.19
			C1369.22,711.31,1369.25,710.93,1369.27,710.54z"/>
		<path class="st60" d="M1445.09,789.51c-0.45-5.22-0.81-10.44-1.37-15.65c-0.36-3.41-1.01-6.78-1.53-10.17
			c0.64,0.62,1.73,1.17,1.86,1.89c1.12,6.33,2.16,12.67,3.05,19.04c0.84,6-0.15,7.03-6.15,7.07c-16.42,0.11-31.5-5.53-46.6-10.99
			c-5.24-1.89-10.66-3.81-15.25-6.85c-6.7-4.44-6.23-12.8-8.76-19.49c-1.04-2.76-1.44-5.76-2.14-8.65c0.38-0.02,0.75-0.04,1.13-0.06
			c1.84,6.36,3.84,12.69,5.46,19.11c1.4,5.55,4.8,8.92,10.04,10.74c9.88,3.44,19.56,7.7,29.68,10.11c9.72,2.31,19.89,2.7,29.86,3.93
			C1444.62,789.69,1444.85,789.68,1445.09,789.51z"/>
		<path class="st94" d="M1369.33,745.64c-0.38,0.02-0.75,0.04-1.13,0.06c-1.24-5.53-2.86-11.01-3.63-16.61
			c-0.86-6.29,1.29-12.07,4.62-17.4c2.31,1.4,4.63,2.79,6.94,4.19c-2.28-0.7-4.55-1.4-7.41-2.28c-0.54,2.37-1.03,4.49-1.52,6.62
			c-1.86,4.09-1.65,8.13-0.4,12.43C1368.04,736.87,1368.52,741.3,1369.33,745.64z"/>
		<path class="st11" d="M1298.79,750.98c12.62,3.64,25.54,2.99,38.43,2.45c1.66-0.07,3.27-1.18,4.91-1.81
			c-1.81,0.12-3.62,0.25-5.43,0.37c-2.24,0.22-4.51,0.77-6.73,0.6c-11.25-0.87-22.49-1.93-33.74-2.92
			C1297.08,750.11,1297.89,750.72,1298.79,750.98z"/>
		<path class="st10" d="M1369.33,745.64c-0.81-4.34-1.29-8.77-2.52-12.99c-1.25-4.3-1.46-8.34,0.4-12.43
			c1.63,2.96,3.65,5.78,4.83,8.91c3.26,8.71,6.3,17.52,9.18,26.37c1.64,5.04,4.41,8.84,9.37,10.9c16.24,6.74,32.5,13.46,48.72,20.25
			c1.78,0.74,3.38,1.9,5.06,2.86c-9.97-1.23-20.14-1.62-29.86-3.93c-10.12-2.4-19.8-6.67-29.68-10.11
			c-5.24-1.82-8.65-5.19-10.04-10.74C1373.18,758.33,1371.17,752.01,1369.33,745.64z"/>
		<path class="st95" d="M1351.94,738.75c1.75-5.01,3.63-9.97,5.22-15.03c1.77-5.65,4.59-11.4,4.51-17.07
			c-0.08-5.78-3.14-11.52-4.89-17.27c-0.43,0.09-0.87,0.18-1.3,0.27c-0.09,1.03-0.19,2.07-0.28,3.1c-0.77-2.22-1.61-4.43-2.2-6.7
			c-0.06-0.25,1.35-0.87,2.08-1.32c1.33,2.62,2.55,5.31,4.01,7.86c5.28,9.22,4.73,18.58,0.77,28
			C1357.3,726.68,1354.58,732.7,1351.94,738.75z"/>
		<path class="st96" d="M1355.08,684.73c-0.73,0.45-2.14,1.08-2.08,1.32c0.59,2.27,1.43,4.47,2.2,6.7
			c0.82,4.61,1.67,9.22,2.43,13.84c0.11,0.67-0.25,1.43-0.39,2.14c-2.79-9.87-5.63-19.73-8.32-29.62c-0.3-1.12,0.22-2.47,0.36-3.71
			C1351.2,678.51,1353.14,681.62,1355.08,684.73z"/>
		<g>
			<path class="st2" d="M1406.18,597.81c5.13-0.79,6.78-4.65,7.99-8.95c0.29-1.02,0.81-1.99,1.22-2.98
				c-0.36-4.04-0.72-8.09-1.08-12.13c-0.37-1.64-0.74-3.27-1.11-4.91c-0.92-1.55-2.07-3-2.73-4.65c-0.87-2.17-1.17-3.5-0.79-4.32
				c-0.37,0.82-0.07,2.15,0.79,4.31c0.66,1.65,1.81,3.11,2.73,4.65c-0.63-2.7-1.25-5.4-2.12-9.13c6.73,0,13.09-0.04,19.45,0.05
				c0.72,0.01,1.56,0.57,2.14,1.1c6.64,6.09,12.48,12.77,15.21,21.62c1.07,3.46,2.15,6.91,3.23,10.36c0.34,0.01,0.67,0.02,1.01,0.04
				c-1.25-5.37-2.49-10.73-3.74-16.1c7.03,8.08,9.08,17.69,8.78,28.02c0.36,0,0.73,0,1.09,0c0.05-2.12,0.31-4.26,0.12-6.36
				c-0.87-9.46-4.12-18.17-8.67-26.44c-1.56-2.23-3.12-4.46-4.67-6.69c-2.29-2.82-4.58-5.64-6.86-8.46
				c2.18-1.06,6.54-0.29,4.25-5.09c-0.76-0.3-1.51-0.6-2.27-0.9c-0.75,0.03-1.5,0.05-2.25,0.08c-2.49,0.96-4.94,2.62-7.47,2.75
				c-7.59,0.4-15.22,0.23-22.84,0.21c-4.2-0.01-5.28,1.48-2.66,5.01c0,0,0,0.01,0.01,0.01c0.77,2.59,1.55,5.19,2.31,7.78
				c2.9,6.69,4.78,13.38,0.08,20.1c-0.69,1.07-1.39,2.14-2.08,3.21c-1.58,0.98-3.07,2.46-4.78,2.8c-2.34,0.47-4.85,0.06-7.29,0.03"
				/>
			<path class="st2" d="M1085.35,591.67c8.22,4.23,16.61,8.14,24.95,12.15c0.01-0.37,0.02-0.73,0.03-1.09
				c-7.76-3.93-15.53-7.86-23.3-11.79c-0.9-1.47-1.8-2.94-3.16-5.17c-4.6-0.59-10.06-1.28-15.52-1.98
				c5.04,1.25,10.09,2.5,14.91,3.69C1083.92,588.89,1084.22,591.09,1085.35,591.67z"/>
		</g>
		<path class="st97" d="M1390.14,609.72c-0.33,0.02-0.66,0.03-1,0.05c0-6.4,0-12.81,0-18.08c5.66-0.59,10.88-1.14,16.11-1.69
			c-1.59,0.97-1.79,2.1-4.78,2.8c-2.34,0.47-4.85,0.06-7.29,0.03c-0.98,1.06-2.72,2.07-2.81,3.2
			C1390.02,600.57,1390.17,605.15,1390.14,609.72z"/>
		<path class="st98" d="M1266.78,648.36c9.68,4.18,17.66,9.57,28.14,6.3C1288.93,659.49,1274.57,655.02,1266.78,648.36z"/>
		<path class="st99" d="M1110.3,603.82c0.01-0.36,0.02-0.72,0.03-1.08c6.06,2.99,12.11,5.97,18.17,8.96
			C1122.43,609.06,1116.37,606.44,1110.3,603.82z"/>
		<path class="st100" d="M1296.47,465.82c-4.26-7.64-1.29-13.36,5.2-17.63c8.84-5.81,17.67-11.78,27.09-16.54
			c4.05-2.05,9.55-1.24,14.4-1.73c1.66,0.66,3.29,1.41,4.98,1.98c14.15,4.78,28.32,9.5,42.46,14.32c2.6,0.89,4.62,2.08,4.21,5.71
			c-1.1,9.72-1.38,19.56-2.78,29.23c-0.9,6.25,0.69,12.95-3.64,18.73c-7.17,9.57-13.96,19.42-20.83,29.21
			c-1.28,1.82-2.16,3.93-3.22,5.9c-2.52,2.16-2.88-0.14-3.54-1.73c-1.85-4.45-3.85-8.84-5.46-13.37
			c-3.58-10.08-10.4-17.21-19.6-22.28c-2.76-1.52-5.4-3.41-8.34-4.45C1313.33,488.22,1303.27,478.88,1296.47,465.82z"/>
		<path class="st101" d="M1302.18,497.89c-1.93-4.77-3.86-9.54-5.8-14.31c-0.05-2.23-0.1-4.45-0.15-6.67
			c0.91,0.2,2.15,0.08,2.69,0.64c3.87,4.03,7.6,8.2,11.37,12.33c4.85,6.37,9.17,13.24,14.69,18.96c5.22,5.41,11.9,8.96,20.1,8.01
			c1.25-0.15,2.64,0.87,3.97,1.35c1.32,2.9,2.65,5.81,3.97,8.71c-0.47,4.7-4.51,5.07-7.4,4.63c-6.55-1-12.95-3.02-19.41-4.63
			c-3.97-3.02-7.93-6.03-11.9-9.05c-3.82-6.04-7.66-12.08-11.46-18.14C1302.53,499.17,1302.4,498.5,1302.18,497.89z"/>
		<path class="st102" d="M1364.32,535c1.06-1.98,1.94-4.08,3.22-5.9c6.87-9.79,13.66-19.65,20.83-29.21
			c4.33-5.78,2.74-12.48,3.64-18.73c1.4-9.67,1.68-19.51,2.78-29.23c0.41-3.63-1.6-4.82-4.21-5.71
			c-14.14-4.81-28.31-9.53-42.46-14.32c-1.69-0.57-3.32-1.31-4.98-1.98c7.66,0.74,15.32,1.48,22.97,2.22
			c9.76,3.22,19.47,6.59,29.29,9.59c4.13,1.26,5.75,3.87,5.34,7.75c-1.48,14.03-2.98,28.06-4.88,42.03
			c-0.43,3.14-2.04,6.39-3.91,9.02c-7.25,10.26-14.76,20.35-22.35,30.37C1368.32,532.63,1366.11,533.66,1364.32,535z"/>
		<path class="st103" d="M1317.22,493.82c9.87,4.65,20.21,8.53,27.6,17.16c0.11,0.88,0.23,1.76,0.47,3.64
			c-3.73-1.12-7.15-1.33-9.52-3.01c-5.22-3.71-10.02-8.05-14.78-12.37C1319.4,497.8,1318.46,495.65,1317.22,493.82z"/>
		<path class="st104" d="M1317.22,493.82c1.24,1.83,2.18,3.98,3.77,5.42c4.76,4.32,9.56,8.66,14.78,12.37
			c2.37,1.68,5.79,1.9,9.52,3.01c-0.24-1.88-0.35-2.76-0.47-3.64c1.41,2.4,2.82,4.8,4.23,7.2c-1.33-0.48-2.72-1.5-3.97-1.35
			c-8.2,0.96-14.88-2.6-20.1-8.01c-5.52-5.72-9.85-12.59-14.69-18.96C1312.6,491.19,1314.91,492.51,1317.22,493.82z"/>
		<path class="st72" d="M1326.22,526.9c6.46,1.61,12.85,3.63,19.41,4.63c2.89,0.44,6.93,0.07,7.4-4.63
			c2.67,3.77-0.94,4.95-2.95,5.31C1341.49,533.73,1333.12,533.36,1326.22,526.9z"/>
		<path class="st26" d="M1228.24,379.82c2.97-3.91,5.76-7.96,8.93-11.69c8.72-10.26,20.68-13.32,31.97-8.27
			c1.56,0.7,2.82,2.06,4.22,3.12c-2.07,2.27-4.13,4.54-6.2,6.8c-2.66,6.37-5.32,12.74-7.98,19.11c-2.96,9.16-3,18.44-0.73,27.69
			c1.03,4.19,3.08,8,7.7,9.48c2.84,0,5.67,0.01,8.51,0.01c0.84-0.38,1.69-0.75,2.53-1.13c-0.27,1.06-0.28,2.3-0.86,3.14
			c-6.76,9.88-21.57,15.19-33.13,11.97c-12.69-3.53-20.06-13.18-21.72-27.74C1220.17,400.68,1222.16,389.86,1228.24,379.82z"/>
		<path class="st65" d="M1274.67,426.07c-2.84,0-5.67-0.01-8.51-0.01c-6.3-7.88-8.52-16.94-7.77-26.86
			c0.26-3.44,0.53-6.87,0.8-10.31c2.66-6.37,5.32-12.74,7.98-19.11c-2.17,8.13-4.87,16.16-6.34,24.41
			c-1.44,8.06-1.95,16.28,2.03,24.16C1265.42,423.41,1268.56,426.81,1274.67,426.07z"/>
		<path class="st89" d="M1383.24,338.1c3.91-2.89,7.83-1.77,11.76-0.06c-0.64,0.88-1.29,1.76-1.93,2.64
			c-2.45,2.56-5.72,4.72-7.22,7.75c-5.13,10.41-6.53,21.57-4.43,33c1.39,7.55,4.43,10.47,11.66,12.22
			c-3.48,11.6-7.73,15.18-15.89,13.41c-5.84-4.01-7.61-10.39-8.71-16.66c-2.73-15.64,1.1-30.22,8.67-43.9
			C1378.82,343.51,1381.19,340.89,1383.24,338.1z"/>
		<path class="st43" d="M1323.67,687.47c-8.6-6.96-4.59-11.62-1.37-11.79c4.44,8.23,3.13,17.05,2.46,25.75
			c-0.22,2.81-1.15,5.57-1.76,8.35c-0.56,0.14-1.11,0.29-1.67,0.43c-1.39-1.8-2.78-3.6-4.16-5.4c0,0-0.01,0-0.01,0
			c-0.22-2.4-0.66-4.8-0.62-7.2c0.15-8.75,0.56-17.49,0.56-26.24c0-0.99-2.13-2.91-3.1-2.81c-5.38,0.58-10.71,1.65-15.68,2.49
			c1.24,8.24,2.76,16.22,3.57,24.28c0.86,8.54,2.06,17.26,1.21,25.7c-0.75,7.43-4.2,14.59-6.34,21.9c-0.63,2.16-0.86,4.44-1.28,6.67
			c-3.48-0.46-2.1-2.55-1.46-4.38c2-5.77,3.95-11.56,6.04-17.3c4.29-11.76,1.26-23.51-0.02-35.25c-0.53-4.85-1.5-9.65-2.35-14.46
			c-0.14-0.79-0.68-1.51-1.55-3.34c-0.36,3.78-0.6,6.33-0.84,8.87c-0.71-3.96-1.42-7.92-2.13-11.87c-0.02-0.68-0.03-1.35-0.03-2.02
			c0,0-0.01,0-0.01,0c-12.78-2.69-25.56-5.4-38.36-8.05c-5.17-1.07-10.37-1.99-15.55-2.98c-19.62-5.36-39.24-10.72-58.87-16.08
			c-9.98-4.32-19.97-8.65-29.95-12.97c-0.01-0.01-0.03-0.02-0.04-0.02c-0.41,0.04-0.82,0.09-1.22,0.12
			c-6.65-2.89-13.37-5.64-19.94-8.72c-10.36-4.84-20.62-9.87-30.89-14.9c-1.13-0.55-2.02-1.59-3.02-2.41c0.64,0,1.3-0.01,1.95-0.01
			c-5.66-3.32-11.32-6.64-16.97-9.97c-0.01-0.01-0.02-0.02-0.03-0.03c-0.69,0.02-1.37,0.03-2.06,0.05
			c-4.92-3.99-11.06-2.81-16.65-3.86c-9.97-1.87-11.51-3.5-12.33-13.6c-0.12-1.48-0.56-2.94-0.73-4.42
			c-0.86-7.65-0.85-7.77-8.8-7.97c-9.91-0.25-19.5-1.89-28.62-5.9c-10.55-4.64-12-8.8-6.79-19.42c0,0,0,0.01,0,0.01
			c1.75-4.05,3.48-8.1,5.47-12.72c-1.93-0.48-3.46-0.92-5.01-1.23c-12.15-2.45-23.7-6.38-33.93-13.6c-6.02-4.25-7.22-7.28-4.6-13.98
			c4.4-11.24,10.33-21.54,19.85-29.37c1.49,0.09,2.96,0.2,4.44,0.32c-7.67,7.79-13.56,16.72-17.68,26.88
			c-1.22,3.01-1.18,4.84,1.86,6.95c12.11,8.4,25.47,13.46,39.89,15.96c0.96,0.17,1.92,0.39,3.54,0.72
			c-0.63,1.56-1.17,2.83-1.67,4.12c-2.1,5.41-4.19,10.81-6.28,16.23c-1.43,3.71-0.17,6.34,3.07,8.47c7.54,4.96,15.91,7.39,24.76,8.4
			c3.96,0.45,7.93,0.81,11.9,1.08c3.51,0.24,5.72,1.55,5.32,5.53c-0.1,0.98,0.12,1.99,0.15,2.99c0.19,9.06,2.86,16.36,13.02,18.36
			c5.04,1.25,10.09,2.49,14.91,3.69c0.66,1.4,0.96,3.6,2.09,4.19c8.22,4.23,16.61,8.14,24.95,12.15c6.07,2.62,12.13,5.25,18.2,7.87
			c15.51,6.88,30.8,14.3,46.56,20.53c36.44,14.39,73.9,25.61,112.53,32.22c7.84,1.34,16.37-1.33,24.58-2.08
			c7.11-0.64,14.24-1.68,21.35-1.57c4.97,0.08,9.91,1.79,15.93,2.98c5.17-5.66,11.31-12.37,17.44-19.09c1.78-1.65,3.66-3.2,5.3-4.97
			c2.55-2.78,4.63-6.06,7.45-8.5c4.56-3.94,7.5-8.57,9.1-13.87c-1.61,5.28-4.55,9.9-9.09,13.83c-2.82,2.44-4.9,5.73-7.45,8.5
			c-1.64,1.78-3.52,3.32-5.3,4.97c4.45-5.27,8.78-10.66,13.38-15.79c4.95-5.51,7.48-12.02,8.86-19.13c0.33-0.01,0.66-0.03,0.99-0.04
			c0.03-4.56-0.12-9.12,0.23-13.65c0.09-1.13,0.96-2.57,2.47-3.57c1.49,0.22,19.93,0.91,13.73,2.82l-0.38,2.5c0,0,0,0,0,0
			c5.13-0.79,6.78-4.65,7.99-8.95c0.29-1.04,0.81-2,1.22-2.99c-0.81,11.96-5.7,15.15-21.03,13.19c0,1.96,0,3.83,0,5.7
			c-0.29-1.97-0.58-3.94-0.87-5.91c-0.01,0-0.01,0-0.02,0c0.29,1.98,0.58,3.97,0.88,5.95c-0.08,2.09-0.14,4.18-0.23,6.27
			c-0.42,9.08-3.27,16.65-12.11,21c-1.66,0.82-2.58,3.12-3.85,4.74c-8.6,10.35-17.2,20.7-25.8,31.05c-0.71,1.16-1.58,2.26-2.1,3.5
			c-0.44,1.04-0.47,2.26-0.68,3.39c-0.82-1.59-1.64-3.19-2.45-4.78c0-0.02-0.01-0.03-0.01-0.05c-4.83-4.55-11.11-5.55-16.55-2.42
			c7.03,9.45,13.14,19.34,13.93,31.67c-2.72-2.04-4.93-4.42-6.24-7.23c-3.21-6.85-6.01-13.9-8.97-20.87
			c-2.06-4.85-5.4-5.18-9.69-2.65c0.25,1.11,0.51,2.21,0.76,3.32c0,0,0,0,0,0c0.64,1.32,1.29,2.63,1.93,3.95L1323.67,687.47z"/>
		<path class="st105" d="M1259.19,388.89c-0.27,3.44-0.54,6.87-0.8,10.31c-0.75,9.92,1.47,18.98,7.77,26.86
			c-4.63-1.48-6.68-5.29-7.7-9.48C1256.19,407.34,1256.23,398.05,1259.19,388.89z"/>
	</g>
	<polygon class="st0" points="796.13,561.85 887.16,508.46 882.22,499.92 788.9,555.59 	"/>
	<path class="st2" d="M1220.76,717.6c0,0,31.6-9.61,34.84-10.83c3.24-1.22,32.14-8.6,32.14-8.6h11.94c0,0-0.38-7.59-2.5-6.1
		c-2.12,1.48-12.67,4.24-12.67,4.24l-52.08,12.42L1220.76,717.6z"/>
	<path class="st2" d="M1242.08,748.86l-0.22-6.99l5.53-6.97c0,0,9.87-7.31,15.88-9.66c6.01-2.35,32.45-13.5,32.45-13.5l0.49-14
		l3.23-1.94l-4.21,31.9l-2.79,5.01l2.36-15.3l-21.96,9.18l-22.99,15.49l-4.99,9.79L1242.08,748.86z"/>
	<path class="st2" d="M1442.27,750.04c-1.62,0.42-0.97,0.25-2.6,0.67c0.83,4.32,1.7,8.66,2.54,12.99c0.65,0.63,1.73,1.17,1.86,1.89
		c1.12,6.33,2.16,12.68,3.05,19.04c0.84,6-0.15,7.03-6.15,7.07c-16.43,0.11-31.51-5.53-46.6-10.99c-5.24-1.9-10.66-3.81-15.25-6.85
		c-6.7-4.44-6.23-12.79-8.76-19.49c-1.04-2.76-1.45-5.76-2.14-8.65c-1.24-5.54-2.86-11.01-3.63-16.61
		c-0.87-6.31,1.3-12.1,4.65-17.45c0.01-0.4,0.03-0.71,0.04-1.11c-1.04-1.93-2.08-3.86-3.12-5.79c-3.05,9.4-5.94,18.86-9.26,28.17
		c-0.78,2.18-3,3.85-4.55,5.75c-3.4,4.32-6.81,8.63-10.21,12.95c-1.63,0.63-3.25,1.82-4.91,1.81c-13.61-0.11-22.45-0.83-38.43-2.45
		c-0.94-0.1-1.71-0.86-2.56-1.31l-0.38-0.08h-0.34l7.17-25.83c0,0-0.24-2.03-0.67-4.52c0.94-8.87-1.03-17.73-1.99-26.58
		c-0.53-4.85-1.5-9.65-2.35-14.46c-0.14-0.79-0.68-1.51-1.55-3.34c-0.62,6.33-0.88,9.19-1.38,14.44c0.37,1.95,0.71,3.79,1.08,5.74
		c0.45,0.9,0.9,1.8,1.36,2.7c-0.44,6.6-0.86,13.2-1.3,19.79c0,0.02-0.01,0.04-0.01,0.06c-3.79,19.43-4.16,18.44-12.24,35.01
		c-8.08,16.57-12.99,17.27-12.99,17.27l-10.43,6.78c0,0-41.15,11.62-41.93,11.6c-0.77-0.03-38.16,7.94-38.16,7.94l0.93-2.79
		l20.28-60.7l-1.43-2.77l-19.83,55.21c0,0-7.95,13.74-3.95,16.28s26.91,0.45,43.19-4.42c12.39-3.7,28.24-9.62,39.03-13.95
		c0.16-0.05,0.31-0.1,0.47-0.15c2.77-0.9,5.48-1.94,7.95-3.35c8.9-3.9,22.41-26.96,22.41-26.96l2.4-0.35
		c0.08,0.12,0.15,0.23,0.23,0.36c1.72,2.91,13.38,6.85,18.31,7.5c9.52,1.25,18.29,0.55,27.91,0.16c4.15-0.17,11.13-3.57,13.71-6.43
		c4.53-5.03,5.76-10.11,9.3-16.03c0.04-0.07,0.08-0.13,0.11-0.19c0.5-0.9,1.65-1.24,2.55-0.73c0.2,0.11-0.86,3.74-0.78,4.25
		c0.76,4.7,2.56,7.98,2.52,12.7c-0.03,4.07,3.18,6.03,2.74,10.77c-0.4,4.31,4.76,7.49,7.02,12.05c12.69,4.72,25.28,9.69,38.08,14.08
		c11.9,4.08,24.16,5.55,36.65,2.71C1449.13,778.97,1446.79,764.17,1442.27,750.04z"/>
	<path class="st2" d="M1430.93,722.64l6.76,33.78l8.5,36.29c0,0,2.26,0.35,1.69-3.07s-1.83-18.08-2.01-19.08
		c-0.18-1-3.26-22.5-3.26-22.5l-7.26-27.38l-4.87-11.53h-3.82L1430.93,722.64z"/>
	<path class="st2" d="M1360.18,734.9c0,0,6.02,19.85,5.66,21.52c-0.36,1.67,6.64,20.58,8,20.41s7.21,3.85,7.21,3.85l36.88,11.01
		c0,0,15.76,3.38,17.24,3.2s14.08-1.69,13.21-2.18s-2.39-3.14-5.77-3.41s-51.38-10.08-51.38-10.08l-15.1-8.11l-7.91-25.39
		l-3.83-20.06L1360.18,734.9z"/>
	<path class="st35" d="M1293.53,673.72l3.11,26.26l-4.82,34.92l5.39,2.36c0,0,3.26-16.48,4.7-18.62c1.45-2.14-0.31-16.39,0-18.2
		s-4.76-31.6-4.76-31.6L1293.53,673.72z"/>
</g>
<g id="Layer_2">
	<path class="st2" d="M1248.26,702.71l-78.6-20.84l-91.48-31.21l-54.02-30.23l-36.46-26.6l-28.24-30.15l-14.85-24.93l-7.74-18.3
		l-1.01,5.45c0,0,11.79,27.51,12.62,28.93s20.99,31.65,20.99,31.65s30.61,26.46,32.18,27.82c1.57,1.35,39.22,25.68,40.9,26.65
		c1.68,0.97,68.3,32.8,68.3,32.8l67.16,19.38l61.2,14.02L1248.26,702.71z"/>
</g>
</svg>
