<svg width="1728" height="1732" viewBox="0 0 1728 1732" fill="none" xmlns="http://www.w3.org/2000/svg">
<g filter="url(#filter0_d_408_4531)">
<path d="M1445.58 48.2427C1556.99 8.68803 1660.36 68.5526 1750.1 143.883L1829.83 786.959L-20.4248 912.619L-103.14 245.512C-75.1073 196.525 -67.7281 140.747 12.4997 131.999C92.7274 123.252 195.793 257.198 358.086 191.408C520.379 125.618 617.329 42.94 781.093 79.8005C944.858 116.661 993.497 197.691 1117.58 186.84C1241.66 175.99 1334.17 87.7975 1445.58 48.2427Z" fill="#DF5959"/>
</g>
<g filter="url(#filter1_d_408_4531)">
<path d="M252.882 1692.09C142.477 1723.12 51.4047 1658.23 -24.9125 1579.25V950.152H1746.16V1602.75C1713.78 1648.43 1700.21 1702.05 1623.03 1705.25C1545.85 1708.45 1463.78 1571.72 1301.99 1624.85C1140.2 1677.98 1038.44 1751.8 887.333 1705.25C736.224 1658.71 699.592 1576.89 580.537 1579.25C461.483 1581.6 363.288 1661.06 252.882 1692.09Z" fill="#DF5959"/>
</g>
<g filter="url(#filter2_d_408_4531)">
<path d="M243.795 1654.52C133.389 1685.56 42.3172 1620.67 -34 1541.68V912.588H1737.07V1565.19C1704.69 1610.86 1691.13 1664.49 1613.94 1667.69C1536.76 1670.89 1454.69 1534.16 1292.9 1587.29C1131.11 1640.42 1029.35 1714.24 878.245 1667.69C727.137 1621.14 690.505 1539.33 571.45 1541.68C452.395 1544.03 354.2 1623.49 243.795 1654.52Z" fill="#5474BD"/>
</g>
<rect x="-18" y="836.243" width="1767" height="571.699" fill="#5474BD"/>
<g filter="url(#filter3_d_408_4531)">
<path d="M1462.75 108.578C1574.16 69.0234 1677.52 128.888 1767.27 204.218L1847 847.294L-3.25887 972.954L-85.9737 305.847C-57.9414 256.861 -50.5622 201.082 29.6656 192.335C109.893 183.587 212.959 317.533 375.252 251.743C537.545 185.953 634.495 103.275 798.259 140.136C962.024 176.996 1010.66 258.026 1134.74 247.176C1258.82 236.325 1351.34 148.133 1462.75 108.578Z" fill="#5474BD"/>
</g>
<defs>
<filter id="filter0_d_408_4531" x="-111.14" y="23.6782" width="1948.97" height="892.941" filterUnits="userSpaceOnUse" color-interpolation-filters="sRGB">
<feFlood flood-opacity="0" result="BackgroundImageFix"/>
<feColorMatrix in="SourceAlpha" type="matrix" values="0 0 0 0 0 0 0 0 0 0 0 0 0 0 0 0 0 0 127 0" result="hardAlpha"/>
<feOffset dy="-4"/>
<feGaussianBlur stdDeviation="4"/>
<feComposite in2="hardAlpha" operator="out"/>
<feColorMatrix type="matrix" values="0 0 0 0 0 0 0 0 0 0 0 0 0 0 0 0 0 0 0.25 0"/>
<feBlend mode="normal" in2="BackgroundImageFix" result="effect1_dropShadow_408_4531"/>
<feBlend mode="normal" in="SourceGraphic" in2="effect1_dropShadow_408_4531" result="shape"/>
</filter>
<filter id="filter1_d_408_4531" x="-32.9125" y="946.152" width="1787.07" height="785.848" filterUnits="userSpaceOnUse" color-interpolation-filters="sRGB">
<feFlood flood-opacity="0" result="BackgroundImageFix"/>
<feColorMatrix in="SourceAlpha" type="matrix" values="0 0 0 0 0 0 0 0 0 0 0 0 0 0 0 0 0 0 127 0" result="hardAlpha"/>
<feOffset dy="4"/>
<feGaussianBlur stdDeviation="4"/>
<feComposite in2="hardAlpha" operator="out"/>
<feColorMatrix type="matrix" values="0 0 0 0 0 0 0 0 0 0 0 0 0 0 0 0 0 0 0.25 0"/>
<feBlend mode="normal" in2="BackgroundImageFix" result="effect1_dropShadow_408_4531"/>
<feBlend mode="normal" in="SourceGraphic" in2="effect1_dropShadow_408_4531" result="shape"/>
</filter>
<filter id="filter2_d_408_4531" x="-42" y="908.588" width="1787.07" height="785.848" filterUnits="userSpaceOnUse" color-interpolation-filters="sRGB">
<feFlood flood-opacity="0" result="BackgroundImageFix"/>
<feColorMatrix in="SourceAlpha" type="matrix" values="0 0 0 0 0 0 0 0 0 0 0 0 0 0 0 0 0 0 127 0" result="hardAlpha"/>
<feOffset dy="4"/>
<feGaussianBlur stdDeviation="4"/>
<feComposite in2="hardAlpha" operator="out"/>
<feColorMatrix type="matrix" values="0 0 0 0 0 0 0 0 0 0 0 0 0 0 0 0 0 0 0.25 0"/>
<feBlend mode="normal" in2="BackgroundImageFix" result="effect1_dropShadow_408_4531"/>
<feBlend mode="normal" in="SourceGraphic" in2="effect1_dropShadow_408_4531" result="shape"/>
</filter>
<filter id="filter3_d_408_4531" x="-93.9737" y="84.0135" width="1948.97" height="892.941" filterUnits="userSpaceOnUse" color-interpolation-filters="sRGB">
<feFlood flood-opacity="0" result="BackgroundImageFix"/>
<feColorMatrix in="SourceAlpha" type="matrix" values="0 0 0 0 0 0 0 0 0 0 0 0 0 0 0 0 0 0 127 0" result="hardAlpha"/>
<feOffset dy="-4"/>
<feGaussianBlur stdDeviation="4"/>
<feComposite in2="hardAlpha" operator="out"/>
<feColorMatrix type="matrix" values="0 0 0 0 0 0 0 0 0 0 0 0 0 0 0 0 0 0 0.25 0"/>
<feBlend mode="normal" in2="BackgroundImageFix" result="effect1_dropShadow_408_4531"/>
<feBlend mode="normal" in="SourceGraphic" in2="effect1_dropShadow_408_4531" result="shape"/>
</filter>
</defs>
</svg>
