<?xml version="1.0" encoding="utf-8"?>
<!-- Generator: Adobe Illustrator 25.4.1, SVG Export Plug-In . SVG Version: 6.00 Build 0)  -->
<svg version="1.1" xmlns="http://www.w3.org/2000/svg" xmlns:xlink="http://www.w3.org/1999/xlink" x="0px" y="0px"
	 viewBox="0 0 1920 1080" style="enable-background:new 0 0 1920 1080;" xml:space="preserve">
<style type="text/css">
	.st0{fill:#FEFEFE;}
	.st1{fill:#CDE4F9;}
	.st2{fill:#113185;}
	.st3{fill:#113186;}
	.st4{fill:#123286;}
	.st5{fill:#183A8A;}
	.st6{fill:#183A89;}
	.st7{fill:#163588;}
	.st8{fill:#1B3D8B;}
	.st9{fill:#1B3A8B;}
	.st10{fill:#193789;}
	.st11{fill:#19388A;}
	.st12{fill:#23408E;}
	.st13{fill:#2D4C94;}
	.st14{fill:#2E4A95;}
	.st15{fill:#4D659D;}
	.st16{fill:#E7ECF4;}
	.st17{fill:#2D4992;}
	.st18{fill:#FDFDFD;}
	.st19{fill:#324D8F;}
	.st20{fill:#193A8A;}
	.st21{fill:#1F408E;}
	.st22{fill:#334E94;}
	.st23{fill:#4660A2;}
	.st24{fill:#516BA7;}
	.st25{fill:#5B71AB;}
	.st26{fill:#2D4B97;}
	.st27{fill:#133286;}
	.st28{fill:#173688;}
	.st29{fill:#FCFCFD;}
	.st30{fill:#133387;}
	.st31{fill:#183789;}
	.st32{fill:#153587;}
	.st33{fill:#24408E;}
	.st34{fill:#3A579B;}
	.st35{fill:#C8DFF6;}
	.st36{fill:#4461A4;}
	.st37{fill:#3F5DA2;}
	.st38{fill:#425FA3;}
	.st39{fill:#D2E7F9;}
	.st40{fill:#3B599E;}
	.st41{fill:#335099;}
	.st42{fill:#34539B;}
	.st43{fill:#8AA4CF;}
	.st44{fill:#203F8F;}
	.st45{fill:#507FAD;}
	.st46{fill:#E8BD56;}
	.st47{fill:#E7EAA8;}
	.st48{fill:#FDFDFE;}
	.st49{fill:#E7EAA9;}
	.st50{fill:#FCFCFB;}
	.st51{fill:#FCFDFB;}
	.st52{fill:#FDFCF9;}
	.st53{fill:#355098;}
	.st54{fill:#FBFCFD;}
	.st55{fill:#2E4C94;}
	.st56{fill:#FBF7EE;}
	.st57{fill:#163587;}
	.st58{fill:#E4E8F1;}
	.st59{fill:#FAF3E2;}
	.st60{fill:#5C84B1;}
	.st61{fill:#E9EBE7;}
	.st62{fill:#536BA8;}
	.st63{fill:#3C5AA0;}
	.st64{fill:#1D3B8B;}
	.st65{fill:#38539A;}
	.st66{fill:#FEFEFD;}
	.st67{fill:#FBFBF5;}
	.st68{fill:#274490;}
	.st69{fill:#304C96;}
	.st70{fill:#F8F9EE;}
	.st71{fill:#FAFAF0;}
	.st72{fill:#3A549A;}
	.st73{fill:#637793;}
	.st74{fill:#1F3D8D;}
	.st75{fill:#3C599F;}
	.st76{fill:#173789;}
	.st77{fill:#F7FAFD;}
	.st78{fill:#9BABBE;}
	.st79{fill:#F8F9FB;}
	.st80{fill:#FAFAF7;}
	.st81{fill:#1F428E;}
	.st82{fill:#3E589D;}
	.st83{fill:#234791;}
	.st84{fill:#5A70AA;}
	.st85{fill:#5067A5;}
	.st86{fill:#20418E;}
	.st87{fill:#153487;}
	.st88{fill:#FCFBF8;}
	.st89{fill:#F2EDE1;}
	.st90{fill:#1E3F8D;}
	.st91{fill:#38559A;}
	.st92{fill:#274691;}
	.st93{fill:#1E3C8C;}
	.st94{fill:#445F9F;}
	.st95{fill:#4C66A4;}
	.st96{fill:#FDFEFE;}
	.st97{fill:#9484E2;}
	.st98{fill:#203E8E;}
	.st99{fill:#334F98;}
	.st100{fill:#546BA7;}
	.st101{fill:#6462B9;}
	.st102{fill:#1D3C8C;}
	.st103{fill:#1B3B8B;}
	.st104{fill:#F4E0AF;}
	.st105{fill:#FAF2E0;}
	.st106{fill:#F7F8E4;}
	.st107{fill:#213F89;}
	.st108{fill:#183688;}
	.st109{fill:#2C478E;}
	.st110{fill:#FBF6EA;}
	.st111{fill:#254590;}
	.st112{fill:#494D7B;}
</style>
<g id="Layer_1">
	<g id="Layer_3">
		<path class="st0" d="M163.78,794.89l-0.14,205.4l109.7-29.85l73.09-27.47c0,0,13.27-26.09,20.58-33.67s48.49-123,48.49-123
			l9.03-60.05l90.72-150.97l-17.78-45.03l31.04-61.27l43-40.73l59.74-59.53l-53.96-69.58l-90.67-29.88h-25.98l-50.99-89.82
			l-38.44-74.59c0,0-27.67,32.99-27.65,36.41c0.01,3.41-19.89,48.66-19.89,48.66s-14.7,29.52-8.54,34.84
			c6.16,5.32,13.25,52.64,13.25,52.64l16.46,16.81l29.72,150.32c0,0-98.8,232.93-100.79,236.8
			C271.75,685.21,163.78,794.89,163.78,794.89"/>
	</g>
	<g id="Layer_1_00000149349438483568633280000012250057152496683173_">
		<g>
			<path class="st1" d="M549.5,366.26c-2.82-0.38-2.19,1.37-2.04,3.08c0.74,8.46-0.21,16.58-4.97,23.91
				c-0.51-0.32-1.02-0.64-1.53-0.96c1.52-5.19,3.04-10.38,4.56-15.57c-0.63-3.35-1.26-6.7-1.89-10.06c1.48-1.03,2.95-2.07,4.9-3.43
				c0.24-1,1.27-2.88,0.93-4.46c-0.54-2.53,2.42-5.91-1.66-7.6c-0.15-0.58-0.3-1.17-0.45-1.75l0.2-0.25
				c1.01-0.07,2.03-0.14,2.82-0.19c-1.13-1.53-2.63-2.76-3.07-4.29c-1.45-5-2.65-10.08-3.62-15.2c-0.18-0.93,1.19-2.16,1.84-3.25
				c2.82,4.75,5.64,9.49,8.76,14.77c0.76-2.59,1.41-4.82,2.42-8.27c4.51,17.33,8.69,33.41,12.87,49.49
				c3.35,7.41,6.35,15.01,10.1,22.21c9.99,19.17,23.55,33.98,46.37,37.6c10.73,1.7,21.33,2.4,30.94-3.23
				c5.05-2.96,9.09-7.65,14.29-12.17c-0.09-0.19,0.22,0.79,0.8,1.56c7.72,10.15,15.63,20.17,23.2,30.44
				c9.35,12.66,18.48,25.48,27.53,38.36c0.79,1.13,0.99,3.65,0.27,4.73c-7.57,11.29-15.33,22.46-23.16,33.58
				c-5,7.1-10.2,14.05-15.31,21.07c0.19,0.45,0.39,0.91,0.58,1.36c4.49-0.46,8.97-0.93,13.46-1.39c-3.22,0.88-6.55,2.78-9.64,2.45
				c-9.89-1.05-19.69-2.93-29.52-4.5c-7.35-2-14.7-3.99-22.04-5.99c-5.28-1.7-10.55-3.41-15.83-5.11
				c-7.51-3.45-15.03-6.88-22.52-10.36c-5.52-2.56-10.99-5.21-16.49-7.81c-2.93-1.64-5.86-3.29-8.79-4.93
				c-6.43-4.28-12.87-8.56-19.3-12.84c-4.89-3.41-9.78-6.81-14.67-10.22c-1.04-1.56-1.8-3.46-3.18-4.61
				c-4.15-3.43-8.55-6.57-12.89-9.84c0.85-0.98,1.38-1.6,1.92-2.23c1.36-0.69,2.72-1.37,5.28-2.67c-2.6-1.66-4.39-3.71-5.66-3.43
				c-3.08,0.68-5.93,2.43-8.87,3.76c-2.6,1.95-5.79,3.5-7.54,6.03c-0.91,1.32,0.73,4.4,1.2,6.69c0.1,0.49,0.06,1.01,0.21,1.47
				c3.35,10.36,6.71,20.71,10.07,31.07c3.98,7.76,7.95,15.51,11.93,23.27c1.05,1.44,2.1,2.88,3.15,4.33
				c9.83,13.66,22.04,24.08,38.69,28.48c3.97,1.41,7.93,2.83,12.46,4.44c-2.36,0.61-4.2,1.08-6.04,1.56
				c-0.78,0.16-1.55,0.33-2.33,0.47c-10.83,1.84-21.26,9.01-32.71,2.41c-8.23-5.37-16.46-10.75-24.69-16.12
				c-6.36-5.99-12.71-11.99-19.07-17.98c-3.27-4.25-6.48-8.56-9.86-12.73c-1.59-1.96-3.51-3.64-5.28-5.45
				c-2.93-4.28-5.87-8.55-8.8-12.83c0.19-0.45,0.66-1.04,0.52-1.33c-3.62-7.41-7.27-14.79-11.01-22.13
				c-0.29-0.57-1.31-0.77-1.89-1.09c-4.22,3.51-2.68,7.63-1.92,11.63c-4.71-3.4-2.63-7.59-0.84-11.29c0.65-1.35,3.23-1.77,5.62-2.96
				c0.22-1.04,0.72-3.39,1.22-5.74c0.3-0.38,0.81-0.73,0.88-1.16c2.36-13.17,11.86-18.45,23.55-21.08c10.8-2.43,21.72-4.3,32.5-6.83
				c24.38-5.73,37.46-19.37,37.76-45.33c0.11-10.04-2.54-20.33-5.3-30.12C556.96,378.9,552.71,372.73,549.5,366.26z M605.01,495.38
				c-0.21-0.26-0.43-0.52-0.64-0.77c-0.71-1.61-1.32-3.28-2.16-4.83c-1.93-3.56-3.97-7.07-6.23-11.07c2.25-1.06,3.77-2.06,5.44-2.5
				c2.97-0.77,6.03-1.2,9.05-1.77c0.75-0.48,1.51-0.96,2.5-1.6c-1.07-0.64-1.85-1.11-2.62-1.57c-8.3-1.69-16.31-0.97-23.91,2.96
				c-2.83,0.91-3.52,2.51-1.82,5.11c4.69,7.19,9.31,14.42,13.96,21.63c4.13,0.64,8.26,1.28,12.39,1.93
				c0.28-0.64,0.55-1.28,0.83-1.92C609.53,499.11,607.27,497.25,605.01,495.38z M634.74,496.2c-0.42-0.63-0.84-1.27-1.26-1.9
				c-4.47-10.35-19.03-16.48-32.41-13.07c2.08,5.23,3.34,10.65,8.45,14.03c0.66,0.66,1.32,1.32,1.98,1.99
				c1.14,0.89,2.26,2.52,3.43,2.55c7.75,0.23,15.51,0.12,23.27,0.12c0.23-0.58,0.46-1.16,0.7-1.74
				C637.51,497.52,636.12,496.86,634.74,496.2z"/>
			<path class="st2" d="M604.5,335.2c-8-10.32-16-20.63-24-30.95c-1-1.59-2.01-3.19-3.22-5.11c-2.14,1.8-3.79,3.17-5.41,4.57
				c-21.28,18.37-43.44,20.96-68.26,8.08c-11.37-5.9-18.28-15.23-21.15-27.56c-0.92-3.96-1.21-8.07-1.86-12.61
				c-2.92,1.14-5.55,2.05-8.09,3.18c-4.61,2.07-8.67,1.79-12.01-2.36c-11.78-20.63-23.59-41.24-35.32-61.89
				c-12.22-21.52-24.34-43.09-36.53-64.62c-4.69-8.28-9.47-16.5-14.15-24.78c-0.88-1.55-1.47-3.26-2.2-4.89
				c-0.6-1-1.2-2.01-1.8-3.01c-1.37,0.19-3.08-0.07-4.03,0.66c-2.48,1.9-4.64,4.23-6.92,6.38c-1.5,1.13-2.99,2.26-5.42,4.09
				c1.05-2.77,1.71-4.47,2.36-6.18c4.87-4.49,9.68-9.04,14.72-13.34c0.41-0.35,2.84,0.71,3.45,1.67
				c4.29,6.75,8.39,13.62,12.46,20.51c5.03,8.52,9.99,17.08,14.92,25.66c6.08,10.59,11.97,21.3,18.2,31.8
				c2.62,4.42,6.09,8.33,8.82,12.7c1.44,2.3,1.88,5.2,3.17,7.61c2.84,5.28,5.95,10.41,8.94,15.6c1.35-0.09,2.71-0.17,4.06-0.26
				c0.82-0.03,1.69,0.1,2.46-0.11c8.23-2.24,16.48-4.42,24.61-6.99c0.91-0.29,2.02-3.45,1.49-4.25c-3.85-5.78-7.96-11.4-12.31-16.81
				c-1.07-1.33-3.33-1.69-5.05-2.5c-0.97-0.68-1.94-1.36-2.91-2.04c-0.11-0.36-0.21-0.71-0.32-1.07c5.81-0.02,11.65-0.92,17.2,2.08
				c2.46,1.33,5.44,1.68,8.18,2.48c11.64,4.34,23.28,8.67,34.9,13c-0.54-18.97-5.32-37.87-11.7-56.46c0.4-0.39,0.8-0.79,1.19-1.18
				c3.14,1.81,6.28,3.62,9.42,5.43c4.22,3.79,8.45,7.58,13.6,12.2c0.92-7.18,1.72-13.51,2.53-19.84c1.05-7.26,2.09-14.52,3.14-21.79
				l-0.06,0.09c1.02-7.05,2.04-14.1,3.06-21.15c1-7.69,1.99-15.38,3.15-24.3c3.9,0.86,7.95,0.9,11.08,2.62
				c8.84,4.84,17.5,10.08,25.85,15.73c7.38,4.99,14.24,10.73,21.33,16.13c5.42,6.37,10.84,12.73,16.27,19.1c0,0-0.09-0.11-0.08-0.11
				c0.82,1.43,1.58,2.9,2.47,4.28c9.28,14.4,15.13,29.96,15.9,47.22c0.11,2.58,0.02,5.16,0.02,8.37c2.38-1.06,4.04-1.72,5.63-2.51
				c13.83-6.9,27.68-13.76,41.47-20.74c18.08-9.16,36.1-18.41,54.15-27.63c1.21-0.67,2.42-1.34,3.62-2.02
				c3.51-1.23,7.03-2.46,10.54-3.7c0.19,0.47,0.38,0.95,0.57,1.42c-1.49,1.68-2.98,3.36-4.47,5.04c-1.25,1.21-2.49,2.42-3.74,3.63
				c-6.39,6.13-12.78,12.27-19.17,18.4c-3.28,3.19-6.56,6.38-9.83,9.57c-5.37,5.15-10.74,10.3-16.11,15.45
				c-3.96,3.86-7.93,7.71-11.89,11.57c-6.72,6.47-13.44,12.94-20.17,19.41c-1.94,1.87-3.89,3.74-5.83,5.62
				c-6.71,6.47-13.42,12.93-20.13,19.4c-12.63,12.19-25.25,24.38-37.88,36.57c-3.87,3.62-7.84,7.13-11.52,10.93
				c-0.74,0.76-0.35,2.61-0.47,3.96c11.86,15.61,23.66,31.27,35.6,46.82c16.81,21.9,33.8,43.66,50.58,65.58
				c11.34,14.8,22.46,29.76,33.69,44.63c0.7,0.92,1.57,1.71,2.36,2.56c2.47,1.25,4.83,2.94,7.45,3.66
				c4.07,1.11,8.38,1.35,12.46,2.42c1.41,0.37,3.39,2.02,3.51,3.25c0.62,6.21,0.7,12.48,1.01,18.73c0.07,1.32,0.32,2.64,0.48,3.95
				c2.56,3.52,5.05,7.09,7.69,10.54c5.26,6.89,5.22,6.81,0.46,13.6c-5.19,7.42-10.23,14.95-15.33,22.44
				c-1.19,1.55-2.43,3.05-3.55,4.65c-4.38,6.28-8.72,12.59-13.08,18.89c-0.81,0.77-1.78,1.42-2.41,2.32
				c-2.3,3.26-5.29,4.56-9.33,4.68c-10.99,0.34-21.83-0.48-32.56-2.9c-3.37-0.76-6.79-1.28-10.19-1.91
				c0.07-0.59,0.14-1.18,0.21-1.77c1.69,0,3.4-0.16,5.07,0.03c10.33,1.12,20.63,2.65,30.99,3.37c7.89,0.55,11.84-3.09,13.88-11.17
				c9.29-14.16,18.47-28.4,27.96-42.43c2.13-3.15,2.22-5.23-0.19-8.25c-11.2-14.04-22.18-28.26-33.2-42.44
				c-24.19-31.13-48.33-62.29-72.58-93.36c-1.15-1.47-3.23-2.2-4.88-3.27c-2.05-6.8-6.13-12.27-11.23-17.06
				C608.34,339.84,606.42,337.52,604.5,335.2z M594.77,175.79c-3.02-4.99-3.44-10.34-6.46-15.33c-7.11-8.33-13.99-16.25-24.09-22.27
				c-0.55,1.63-0.53,4.06-0.66,4.99c-2.33,16.39-2.28,24.68-4.56,41.07c-0.66,4.73-2.01,12.51-1.06,16.91
				c1.57,7.31,2.8,11.37,5.62,18.99c4.87-2.45,6.62-3.48,11.46-5.92c8.02-4.01,15.63-5.53,23.66-9.54c1.4-0.95,5.64-1.41,7.04-2.37
				c0.6-0.39,1.2-0.77,1.8-1.16c8.89-1.47,13.38-5.53,13.64-14.16c0.23-7.6,0.07-15.43-1.5-22.82c-5.4-25.42-19.8-45.32-40.31-60.69
				c-9.08-6.81-19.2-12.23-28.84-18.29c-1.12-0.46-2.23-0.92-4.01-1.66c-3.16,25.96-6.24,51.24-9.32,76.53
				c-4.19,12.43,1.31,21.54,10.69,29.9c0.28-3.05,0.54-5.79,0.79-8.53c0.5-1.74,1.2-3.45,1.46-5.22c1.48-10,2.85-20.01,4.27-30.01
				c1.02-4.89,2.39-9.74,2.93-14.67c0.34-3.11,1.91-3.34,4.19-3.31c14.51,7.99,26.06,19.17,34.78,33.16
				c2.36,3.8,3.61,8.29,5.36,12.46c-0.1,1.11-0.2,2.23-0.29,3.2C600.03,176.11,596.03,176.72,594.77,175.79z M450.58,227.52
				c-1.03,1.54-6.16,0.65-2.83,4.78c6.99,12.24,13.98,24.47,21.22,37.16c9.73-4.49,19.02-8.78,28.32-13.07
				c1.41-0.67,2.82-1.35,4.22-2.02c2.99-1.32,5.97-2.63,8.96-3.95c3.36-1.74,6.72-3.49,10.08-5.23c9.3-4.59,18.6-9.18,27.9-13.77
				c4.84-1.03,6.36-3.97,5.12-8.64c-0.76-2.88-1.13-5.86-2.02-8.69c-3.83-12.17-10.19-23.02-18.16-32.86
				c-3.43-4.23-7.86-7.66-11.83-11.45c-1.42-1.84-2.84-3.67-4.26-5.51c-0.37,0.23-0.73,0.46-1.1,0.7
				c4.38,17.29,8.15,34.65,7.12,52.49c-1.55,0.38-2.6,0.63-3.65,0.89c-2.93-2.65-5.75-5.43-8.81-7.91
				c-11.81-9.57-25.62-14.77-40.26-18.11c-3.26,0.67-1.89,2.13-0.78,3.82c3.33,5.09,6.68,10.19,9.74,15.44
				c1.78,3.05,1.21,4.89-2.93,5.84C467.51,219.49,458.21,221.43,450.58,227.52z M648.82,216.38c1.32-1.16,2.63-2.32,3.95-3.47
				c6.77-6.34,13.61-12.61,20.31-19.03c7.15-6.86,14.17-13.86,21.24-20.81c3.24-2.92,6.49-5.84,9.73-8.76
				c-0.32-0.54-0.65-1.07-0.97-1.61c-3.72,1.69-7.49,3.27-11.14,5.1c-65.9,33.05-131.79,66.13-197.68,99.22
				c-6.11,3.07-6.66,4.43-4.8,11.44c2.71,23.35,21.84,36.23,42.69,35.29c15.48-0.7,26.29-10.86,36.35-21.54
				c4.08-3.77,8.16-7.55,12.24-11.32c9.7-9.23,19.4-18.46,29.1-27.69c3.58-3.36,7.16-6.72,10.75-10.08
				c8.7-8.24,17.4-16.47,26.1-24.71C647.39,217.72,648.1,217.05,648.82,216.38z M723.24,474.89c1-12.29,0.11-13.36-10.5-13.55
				C716.16,465.75,719.3,469.81,723.24,474.89z"/>
			<path class="st3" d="M520.81,572.13c8.23,5.37,16.46,10.75,24.69,16.12c3,1.66,6,3.32,9.01,4.97c0.88,0.34,1.85,1.11,2.63,0.95
				c6.05-1.23,12.1-2.52,18.09-4.03c5.32-1.34,10.57-2.98,15.85-4.49c0.17,0.63,0.33,1.27,0.5,1.9c-5.48,1.38-11.11,2.35-16.41,4.24
				c-8.8,3.15-17.35,7.14-26.99,3.56c-9.25-5.04-18.51-10.08-28.22-15.38c-1.26,2.27-2.6,4.7-3.95,7.12
				c-5.4,9.36-10.76,18.75-16.21,28.08c-9.77,16.72-19.63,33.38-29.38,50.11c-6.3,10.8-12.45,21.68-18.69,32.52
				c-5.77,10.03-11.56,20.04-17.35,30.07c-1.16,2.34-2.77,4.57-3.4,7.05c-3.44,13.72-6.56,27.52-9.95,41.25
				c-1.51,6.11-3.38,12.14-5.34,19.09c8.29,0.95,16.17,2.71,24.03,2.62c36.13-0.42,72.29-0.77,108.39-2.31
				c28.6-1.22,57.17-3.67,85.67-6.46c28.13-2.76,56.15-6.6,84.19-10.19c1.64-0.21,3.02-2.41,4.52-3.68
				c7.34-10.65,14.68-21.29,22.01-31.94c5.37-8.03,10.74-16.05,16.11-24.08c0.63-0.97,1.26-1.93,1.89-2.9
				c6.36-10.03,12.71-20.06,19.07-30.09c0.98-1.64,1.96-3.27,2.93-4.91c3.76-5.98,7.53-11.96,11.29-17.94l-0.09,0.1
				c4.69-7.71,9.38-15.41,14.07-23.12c0,0-0.08,0.1-0.09,0.1c3.45-5.45,7.03-10.82,10.33-16.35c4.3-7.23,8.39-14.59,12.56-21.89
				c5.47-8.77,10.96-17.53,16.39-26.32c0.4-0.65,0.44-1.54,0.65-2.31c0.78-0.52,1.82-0.86,2.29-1.58
				c6.79-10.27,13.5-20.59,20.24-30.9c1.14-0.52,2.28-1.03,4.36-1.98c-2.24,4.92-4.12,9.04-5.99,13.15
				c-2.05,3.93-3.92,7.97-6.18,11.78c-19.45,32.61-38.87,65.24-58.48,97.76c-24.09,39.94-48.84,79.46-78.24,115.8
				c-3.08,3.81-5.81,8.17-11.98,8.81c-23.34,2.43-46.58,5.87-69.94,8.04c-29.5,2.73-59.06,4.84-88.63,6.73
				c-20.44,1.3-40.93,2.23-61.41,2.48c-18.47,0.22-36.97-0.42-55.43-1.25c-8.57-0.38-17.08-2.11-25.74-3.24
				c-8.5,22.85-16.97,45.64-25.66,68.99c13.87-0.68,26.85-1.09,39.8-1.99c27.73-1.94,55.58-3.06,83.12-6.51
				c35.8-4.49,71.48-10.21,106.98-16.68c49.29-8.99,97.98-20.74,145.89-35.5c2.24-0.69,4.85-2.49,5.86-4.49
				c7.86-15.6,15.37-31.38,22.99-47.1c7.69-15.87,15.39-31.74,23.09-47.61c0.63-0.95,1.36-1.85,1.86-2.87
				c17.69-35.36,35.26-70.78,53.06-106.09c7.99-15.85,16.44-31.48,24.68-47.21c2.43-3.77,5.12-7.39,7.21-11.34
				c2.89-5.46,5.33-11.16,7.96-16.76l-0.04-0.04c1.99-2.27,3.97-4.54,5.96-6.81c0.51,1.95,0.41,3.58-0.23,4.95
				c-3.95,8.44-7.93,16.87-12.09,25.21c-15.38,30.86-30.85,61.68-46.21,92.56c-1.01,2.03-1.44,4.34-2.14,6.52
				c-2.11,4.5-4.15,9.04-6.35,13.5c-13.72,27.74-27.48,55.47-41.22,83.2c-10.5,20.52-21.19,40.95-31.36,61.63
				c-2.3,4.67-5.31,7.49-9.98,9.04c-1.08,0.36-2.09,0.91-3.14,1.37c-0.65,0.06-1.33,0.02-1.96,0.18
				c-37.04,9.46-73.92,19.65-111.16,28.25c-55.98,12.92-112.76,21.27-170.06,25.42c-30.21,2.19-60.53,2.86-90.8,4.33
				c-1.54,0.07-3.03,1.17-4.54,1.79c-8.14,18.47-16.14,37.01-24.52,55.38c-2.31,5.07-5.13,10.22-8.91,14.2
				c-3.17,3.34-7.88,5.48-12.25,7.36c-10.02,4.3-20.25,8.15-30.41,12.11c-3.76,1.46-7.6,2.73-11.41,4.08
				c-14.48,4.96-28.96,9.92-43.44,14.88c-0.84,0.32-1.69,0.65-2.53,0.97c-6.82,2.01-13.64,4.02-20.46,6.03
				c-17.39,5.92-35.54,7.79-53.61,10.11c-1.61,0-3.21,0-5.15,0c5.11-1.56,9.65-2.92,14.17-4.32c4.94-1.52,9.8-3.34,14.82-4.54
				c5.14-1.24,10.51-1.54,15.6-2.9c4.87-1.3,9.44-3.68,14.28-5.16c5.45-1.67,11.13-2.61,16.57-4.34c8.27-2.63,16.43-5.62,24.6-8.54
				c11.64-4.16,23.27-8.35,34.87-12.64c0.92-0.34,1.54-1.52,2.29-2.31c10.14-4.65,20.18-9.52,30.45-13.86
				c6.24-2.63,7.24-8.87,10.25-13.6c3.72-5.85,6.25-12.45,9.29-18.73c0.77-1.21,1.76-2.33,2.29-3.63
				c11.85-28.78,23.77-57.53,35.37-86.41c3.27-8.13,5.54-16.66,8.28-25c3.02-10.39,6.04-20.78,9.06-31.17
				c0.36-0.69,0.88-1.35,1.05-2.09c2.69-11.58,5.33-23.17,7.98-34.75c24.86-42.58,49.73-85.16,74.57-127.75
				c1.56-2.68,2.94-5.46,4.4-8.19c1.56-1.72,3.12-3.45,4.67-5.17c2.38-3.27,4.84-6.49,7.07-9.86c0.37-0.56,0.04-2.16-0.53-2.68
				c-6.02-5.51-12.15-10.9-18.26-16.33c-0.65-0.67-1.31-1.34-1.96-2.02c0.09-1.09,0.18-2.18,0.33-4.13c3.31,3.55,5.79,6.88,8.92,9.4
				C509.24,563.97,513.39,570.3,520.81,572.13z"/>
			<path class="st3" d="M173.29,790.18c-2.65,1.7-5.29,3.39-7.94,5.09c-0.53-0.12-1.05-0.25-1.57-0.37
				c0.36-2.86,0.71-5.73,1.07-8.59c1.55-0.99,3.11-1.97,4.66-2.96c2.46-1.33,5.07-2.47,7.37-4.03
				c38.48-26.12,76.94-52.28,115.34-78.53c2.26-1.55,4.38-3.7,5.78-6.04c19.9-33.09,38.43-66.92,53.5-102.5
				c7.12-16.8,13.35-33.99,19.98-51c0.72-1.98,1.45-3.96,2.17-5.93c3.31-9.63,6.62-19.26,9.92-28.89c0.35-1.06,0.69-2.11,1.04-3.17
				c2.6-7.68,5.26-15.34,7.78-23.05c13.32-40.7,23.51-82.12,28.96-124.66c0.55-4.28-0.05-6.3-4.59-7.96
				c-10.87-3.95-21.4-8.83-32.07-13.34c-0.5-0.33-1-0.66-1.5-1c-11.88-9.89-23.77-19.79-35.65-29.68c-0.38-0.67-0.76-1.34-1.14-2.02
				c-1.65,0.04-3.79-0.58-4.88,0.22c-5.69,4.24-11.57,8.39-16.54,13.41c-7.88,7.96-15.09,16.59-22.58,24.93
				c-5.33,7.01-10.67,14.01-16,21.02c-0.51,0.42-1.12,0.77-1.52,1.28c-11.33,14.68-22.23,29.74-36.56,41.81
				c-8.91,7.52-18.26,14.68-29.87,16.98c-9.48,1.88-19.28,2.1-28.94,3.06c-2.67,0-5.34,0-8.01,0c-1.49-0.62-2.98-1.24-4.48-1.85
				c-0.21-0.53-0.41-1.06-0.62-1.59c0.68-0.15,1.37-0.29,2.05-0.44c6.6,0.18,13.2,0.42,19.79,0.5c1.74,0.02,3.49-0.41,5.23-0.63
				c15.56-1.61,27.31-10.22,37.99-20.76c17.27-16.09,31.77-34.59,46.18-53.17c7.27-9.04,14.54-18.08,21.78-27.15
				c0.27-0.33,0.17-0.95,0.24-1.44c4.95-4.83,9.9-9.66,14.84-14.49c4.72-3.16,9.45-6.33,14.17-9.49
				c-3.67-5.71-7.77-10.68-10.31-16.35c-5.34-11.91-9.86-24.19-14.72-36.32l0.07,0.12c-2.01-12.25-2.61-24.54-1.01-36.89l-0.08,0.11
				c1.57-6.74,3.14-13.47,4.71-20.21c2.33-4.46,4.67-8.91,7-13.37c0.39,0.16,0.77,0.32,1.16,0.48c0,1.31,0,2.62,0,3.93
				c-0.38,0.71-0.93,1.37-1.11,2.13c-2.68,11.36-5.36,22.74-5.25,34.49c0.04,4.87,0.62,9.79,1.45,14.59
				c1.04,5.97,2.6,11.85,3.93,17.77c2.61,6.55,5.08,13.17,7.89,19.63c1,2.3,2.84,4.23,4.29,6.34c4.56,6.5,9.12,12.99,13.67,19.49
				c9,11.79,19.86,21.7,31.5,30.75c4.39,3.42,9.44,5.99,14.18,8.95c10.64,4.59,21.26,9.23,31.94,13.73
				c2.13,0.89,4.68,0.86,6.69,1.92c1.28,0.68,2.35,2.51,2.6,3.98c0.1,0.62-2.07,2-3.39,2.37c-1.49,0.42-3.19,0.1-5.03,0.1
				c-0.25,1.77-0.43,3.23-0.67,4.67c-4.08,24.46-7.09,49.16-12.49,73.33c-10.64,47.7-26.85,93.81-44.19,139.38
				c-10.81,28.39-24.84,55.55-37.42,83.27c-7.92,14.41-15.74,28.87-23.89,43.15c-1.18,2.07-3.94,3.28-6.04,4.79
				c-16.27,11.73-32.44,23.59-48.86,35.1c-12.65,8.87-25.67,17.22-38.44,25.92c-7.2,4.91-14.23,10.07-21.34,15.11
				C188.1,780.86,180.69,785.52,173.29,790.18z"/>
			<path class="st4" d="M162.58,727.02c-6.35-6.92-12.7-13.84-19.04-20.76c-9.96-17.16-16.28-35.63-18.31-55.3
				c-1.43-13.83-1.52-27.8-1.95-41.71c-0.05-1.71-1.06-5.23,3.1-4.63c6.22,5.26,12.43,10.52,18.65,15.79
				c13.32,13.46,29.81,21.02,47.48,26.39c0.32-0.41,0.63-0.83,0.95-1.24c-2.65-2.45-5.31-4.9-7.96-7.35
				c-3.31-4.33-6.62-8.65-9.93-12.98c-0.2-1.62,0.13-3.6-0.68-4.81c-13.05-19.3-18.97-40.45-17.13-63.74
				c0.22-2.75-0.34-5.58-0.05-8.31c0.8-7.39,1.86-14.74,2.82-22.11c1.12,1.72,2.25,3.43,3.37,5.15c0.13,9.6,0.26,19.2,0.38,28.8
				c0.09,2.35,0.18,4.7,0.28,7.04c0.69,7.56-0.26,15.76,2.37,22.57c10.23,26.49,25.68,49.03,52.49,61.64
				c1.57,0.62,3.13,1.71,4.73,1.79c4.82,0.24,9.67,0.09,14.44,0.09c-0.19,0.34-0.62,1.16-1.06,1.98c-4.48,4.6-9.99,5.87-16.2,5.16
				c-1.93-0.22-3.92,0.01-5.88,0.03c-1.81-0.21-3.61-0.44-5.42-0.64c-20.74-2.38-41.01-6.24-57.85-19.84
				c-6.55-5.29-12.68-11.11-19-16.69c-0.1-0.13-0.17-0.3-0.3-0.4c-0.11-0.09-0.28-0.1-0.43-0.15c-0.34,1.5-0.93,2.98-0.99,4.49
				c-0.9,21.52,4.19,41.93,11.34,62.02c5.99,16.83,17.66,29.19,30.88,40.35c1.68,1.42,4.16,2.15,2.98,4.65
				c-0.94,1.99-2.67,4.38-4.56,4.98c-4.72,1.5-9.69,2.47-14.63,2.93c-7.86,0.72-15.78,0.85-24.08,1.25
				c3.06,9.82,8.03,18.13,14.07,25.86c-0.15,2.35,2.24,5.06-0.98,6.99c-1.56-1.31-3.77-2.3-4.57-3.97
				c-5.4-11.35-10.5-22.85-15.71-34.3c0.33-1.2,0.66-2.41,0.89-3.24c14.44,2.58,28.34,1.65,42.18-0.89
				c0.26-0.68,0.52-1.37,0.78-2.05C167.57,730.25,165.07,728.63,162.58,727.02z"/>
			<path class="st1" d="M377.48,139.3c8.22,14.02,16.46,28.03,24.65,42.06c0.9,1.55,1.57,3.23,2.35,4.86
				c-1.56,0.11-3.11,0.21-4.64,0.31c0.22,8.57,4.62,16.21,2.72,24.89c-2.67-1.41-4.37-2.3-6.06-3.19c-2.57-0.42-3.11-5.83-7.06-2.89
				c-2.68-3.36-5.35-6.73-8.03-10.09c-4.8-7.92-9.47-15.92-14.56-23.64c-0.64-0.97-4.25-1.32-5.24-0.48
				c-3.06,2.58-5.51,5.87-8.2,8.88c-2.33,7.69-4.66,15.39-6.99,23.08c-2.69,10.69-4.2,21.56-1.26,32.33
				c2.14,7.85,5.44,15.38,8.22,23.06c0.55,1.26,1.11,2.53,1.66,3.79c-0.84-0.03-1.67-0.05-2.51-0.08c-0.68-1.31-1.36-2.63-2.04-3.94
				c-0.36-1-0.73-1.99-1.09-2.99c-1.89-2.03-3.78-4.07-5.66-6.1c-0.48,0.28-0.97,0.57-1.45,0.85c0.35,3.06,0.61,6.13,1.06,9.18
				c0.34,2.33,0.39,4.13-2.83,3.01c-0.34-0.32-0.68-0.64-1.01-0.96c-0.33-0.33-0.67-0.67-1-1c-7.29-14.61-9.2-30.32-8.84-46.31
				c0.18-7.88,1.59-15.77,2.82-23.59c3.89-24.64,14.66-45.53,34.05-61.66c2.62-2.18,3.95-1.34,5.36,1.26
				C373.61,133.14,375.6,136.19,377.48,139.3z"/>
			<path class="st5" d="M753.47,556.14c-1.97-0.62-3.94-1.25-5.91-1.87c0.05-2.32-0.16-4.69,0.2-6.97
				c5.74-36.3,11.6-72.57,17.33-108.87c2.95-18.72,5.69-37.47,8.53-56.2c0.34-1.06,0.88-2.1,1-3.18c0.44-4.1,2.26-4.74,6.3-3.89
				c24.58,5.16,49.24,9.96,73.86,14.9c11.53,2.31,23.05,4.66,35.56,7.19c-1.77,7.44-3.55,15.04-5.38,22.62
				c-4.04,16.77-8.14,33.54-12.1,50.33c-0.36,1.52,0.11,3.23,0.2,4.85c-4.8,1.23-6.79-1.91-8.51-5.48c0.21-0.21,0.19-0.4-0.03-0.58
				c0.91-1.38,2.27-2.64,2.66-4.15c3.67-14.3,7.11-28.66,10.74-42.97c1.82-7.18,3.87-14.3,5.86-21.61
				c-15.66-3.08-30.75-6.17-45.9-8.98c-8.38-1.55-16.85-2.62-25.27-3.91c-9.63-2.31-19.27-4.62-28.9-6.93
				c-0.47,1.52-0.74,2.14-0.85,2.78c-4.73,27.81-9.67,55.59-14.11,83.44c-4.28,26.86-8.05,53.81-12.05,80.72
				c-1.28,3.55,0.98,4.15,3.68,4.57c27.87,4.33,55.74,8.7,83.61,13.01c0.86,0.13,1.81-0.34,2.72-0.53
				c1.58-7.58,3.16-15.15,4.83-23.2c-2.14,0-3.57,0-5.01,0c5.1-0.94,10.2-1.87,15.3-2.81c-1.46,1.68-3.67,3.13-4.23,5.07
				c-2.1,7.26-3.5,14.71-5.53,21.99c-0.48,1.74-2.36,3.1-3.6,4.63c-1.22,0.02-2.45,0.04-3.67,0.07c-0.78-0.24-1.55-0.58-2.35-0.7
				c-19.32-3-38.65-6.01-57.98-8.93C774.13,558.99,763.79,557.6,753.47,556.14z"/>
			<path class="st3" d="M163.9,531.4c-1.12-1.72-2.25-3.43-3.37-5.15c1.6-7.11,3.2-14.22,4.81-21.32c0.72-2.89,1.45-5.78,2.17-8.68
				c2.11-6.03,2.83-6.1,7.3-2.05c2.59,2.35,5.75,4.06,8.65,6.06c0.08,0.2,0.13,0.41,0.15,0.63c11.47,8.16,29.11,6.77,41.49-1.91
				c9.44-6.62,16.83-16.24,24.74-24.88c2.85-3.11,4.55-7.27,6.99-11.32c-8.53-0.55-16.1-1.33-23.69-1.48
				c-15.68-0.31-29.56-4.74-39.43-17.54c-4.66-6.05-8.18-12.98-12.22-19.51c2.67,0,5.34,0,8.01,0c0.18,1.01-0.01,2.39,0.59,2.98
				c4.97,4.85,10.05,9.6,15.21,14.25c0.73,0.65,2.09,0.6,3.16,0.87c2.83,1.62,5.57,3.41,8.49,4.83c12.62,6.14,26.29,6.57,39.92,6.87
				c1.48,0.03,3.52-1.69,4.41-3.14c2.32-3.77,4.14-7.84,6.17-11.8c8.82,5.23,10.1,9.95,6.22,18.51
				c-6.43,14.17-17.86,24.51-27.26,36.41c-2.71,2.35-5.42,4.7-8.13,7.05l0.09-0.07c-2.43,1.69-4.75,3.55-7.3,5.03
				c-13.99,8.14-28.37,13.73-44.51,5.93c-4.89-3.56-9.79-7.12-15.09-10.98c-0.44,2.37-0.8,4.31-1.16,6.24
				C168.18,515.3,166.04,523.35,163.9,531.4z"/>
			<path class="st4" d="M381.41,195.26c2.68,3.36,5.35,6.73,8.03,10.09c0.02,0.27,0.06,0.54,0.11,0.81
				c2.93,5.39,5.86,10.79,8.79,16.18c5.99,10.05,11.99,20.09,17.98,30.14c3.34,5.62,6.69,11.24,10.03,16.86
				c3,4.98,6.01,9.97,9.01,14.95c2.36,3.38,4.72,6.75,7.07,10.13c1.65,3.29,3.29,6.59,4.94,9.88c3.12,7.13,2.74,8.05-5.12,10.14
				c-2.49,0.66-5.18,0.62-7.77,0.9c-0.88-0.35-1.73-0.81-2.64-1.02c-6.88-1.59-14.22-2.12-20.56-4.91
				c-9.61-4.24-18.53-10.05-27.75-15.19c-4.03-3.95-8.07-7.89-12.1-11.84c-0.69-1.26-1.28-2.59-2.1-3.75
				c-2.94-4.16-6.27-8.07-8.9-12.41c-10.26-16.87-14.44-35.36-13.96-54.99c0.05-1.33,0.09-2.65,0.14-3.98
				c2.33-8.65,4.66-17.31,6.99-25.96c0.54-0.81,0.92-1.85,1.66-2.4c3-2.28,5.88-5.29,9.29-6.18c1.44-0.37,4.27,3.7,6.08,6.06
				c1.05,1.36,1.08,3.46,1.98,4.97C375.09,187.9,375.9,193.39,381.41,195.26z M368.49,184.26c-1.6-2.6-3.19-5.2-5.2-8.47
				c-3.87,4.53-6.07,9.1-6.83,14.42c-1.65,6.85-4.22,13.63-4.77,20.57c-1.36,17.1,2.6,33.18,11.55,47.95
				c14.6,24.1,35.01,40.71,62.27,48.55c4.47,0.81,8.95,1.63,13.42,2.44c0.29-0.6,0.58-1.21,0.87-1.81
				c-4.13-7.09-8.26-14.17-12.39-21.27c-10.08-17.35-20.1-34.73-30.25-52.03c-5.78-9.85-11.77-19.57-17.67-29.35
				c-1.33-2.34-2.66-4.67-3.99-7.01C374.4,192.97,374.67,187,368.49,184.26z"/>
			<path class="st6" d="M547.8,351.17c4.08,1.7,1.11,5.08,1.66,7.6c0.34,1.58-0.69,3.45-0.93,4.46c-1.95,1.36-3.42,2.4-4.9,3.43
				c-0.71-0.18-1.42-0.36-2.13-0.54c-0.82-0.62-1.68-1.81-2.46-1.75c-4.4,0.3-8.79,0.9-13.67,1.46c1.32,7.49,2.31,14.75-1.88,21.43
				c-3.87,6.67-10.54,8.03-17.34,8.84c-1.19,0.14-2.92-1.2-3.83-2.32c-3.89-4.77-5.48-10.44-5.83-16.51
				c0.37-4.22,0.74-8.44,1.15-13.14c5.13-0.23,9.7-0.38,14.27-0.65c5.86-0.34,11.71-0.77,17.57-1.17c1.02,0.03,2.03,0.07,3.05,0.1
				c1.57,0.28,3.15,0.79,4.72,0.8c7.7,0.03,8.49-0.81,8.25-8.19c-0.05-1.43-0.13-2.85-0.21-4.46
				C546.24,350.79,547.02,350.98,547.8,351.17z"/>
			<path class="st0" d="M377.48,139.3c-1.88-3.11-3.86-6.16-5.59-9.36c-1.4-2.6-2.74-3.44-5.36-1.26
				c-19.39,16.13-30.16,37.02-34.05,61.66c-1.23,7.82-2.64,15.71-2.82,23.59c-0.36,15.99,1.55,31.71,8.84,46.31
				c-5.96-5.07-6.26-12.56-7.85-19.33c-1.35-5.74-0.96-11.89-2.26-17.64c-2.48-10.98,0.89-21.65,1.61-32.37
				c0.56-8.42,4.95-16.57,7.56-24.87c0.51-1.62,0.67-3.35,1-5.03c-0.63-0.24-1.27-0.48-1.9-0.72c-2.41,5.58-5.58,10.97-7.05,16.78
				c-2.58,10.2-4.89,20.59-5.95,31.03c-2.44,24.2,6.1,45.78,17.67,66.39c2.88,5.13,6.02,10.13,9.04,15.18
				c-4.56-6.5-9.12-12.99-13.67-19.49c-3.67-8.67-7.33-17.35-11-26.02c-0.38-1.94-0.63-3.92-1.15-5.83
				c-4.43-16.07-4.42-32.29-0.89-48.42c4.1-18.79,12.49-35.83,24.1-51.03c6.92-9.06,15.12-17.13,22.74-25.65
				c0.6,1,1.2,2.01,1.8,3.01c-2.2,1.21-4.41,2.42-7.33,4.02C372.19,125.44,375.03,132.25,377.48,139.3z"/>
			<path class="st4" d="M864.53,469.57c1.72,3.56,3.71,6.71,8.51,5.48c3,1.78,6,3.57,9,5.35c9.44,6.42,18.89,12.83,28.33,19.25
				c2.18,1.53,4.34,3.09,6.55,4.57c6.73,4.53,6.74,4.52,3.67,12.07c-0.64-0.05-1.27-0.09-0.71-0.05c-1.07-2.43-1.83-4.17-2.6-5.91
				c-25.57-16.36-51.14-32.72-76.72-49.08c-1.53-1.17-2.95-2.52-4.6-3.48c-7.81-4.56-15.68-9.01-23.52-13.5
				c-0.35-0.58-0.7-1.16-1.05-1.74c-1.35-1.54-2.69-3.08-4.04-4.62c1.29-0.15,2.83-0.82,3.83-0.35c3.14,1.48,6.12,3.32,9.1,5.13
				C835.05,451.63,849.79,460.6,864.53,469.57z"/>
			<path class="st0" d="M334.07,652.13c12.58-27.71,26.62-54.88,37.42-83.27c17.35-45.57,33.55-91.69,44.19-139.38
				c5.39-24.17,8.4-48.87,12.49-73.33c0.24-1.45,0.42-2.9,0.67-4.67c1.84,0,3.54,0.32,5.03-0.1c1.32-0.37,3.49-1.75,3.39-2.37
				c-0.25-1.47-1.32-3.31-2.6-3.98c-2-1.06-4.56-1.02-6.69-1.92c-10.68-4.49-21.3-9.14-31.94-13.73c4.03,1.72,7.98,3.69,12.12,5.12
				c8.07,2.79,16.24,5.27,24.36,7.92c2.03,0.66,4.01,1.5,6.3,2.36c-0.21,2.74-0.4,5.3-0.65,8.55c-8.33-2.32-8.71,2.73-9.23,8.74
				c-1.12,12.82-2.63,25.63-4.54,38.35c-1.24,8.25-3.14,16.45-5.35,24.51c-5.56,20.32-11.23,40.61-17.3,60.79
				c-4.22,14.03-9.18,27.83-13.81,41.74c-3.47,10.42-6.38,21.07-10.5,31.23c-8.3,20.49-17.08,40.79-26,61.01
				c-4.4,9.98-9.51,19.64-14.42,29.39C336.41,650.29,335.07,651.13,334.07,652.13z"/>
			<path class="st7" d="M310.5,955.49c-0.76,0.79-1.37,1.97-2.29,2.31c-11.6,4.29-23.22,8.48-34.87,12.64
				c-8.18,2.92-16.33,5.91-24.6,8.54c-5.43,1.73-11.11,2.66-16.57,4.34c-4.83,1.48-9.41,3.86-14.28,5.16
				c-5.09,1.36-10.46,1.66-15.6,2.9c-5.01,1.21-9.88,3.02-14.82,4.54c-4.52,1.4-9.06,2.76-14.17,4.32c1.94,0,3.55,0,5.15,0
				c-0.65,0.33-1.31,0.66-1.96,0.99c-3.89,0-7.77,0-11.55,0c-1.47-5.08,0.1-7,5.22-7.43c8.53-0.72,16.98-2.29,25.46-3.5
				c8.63-2.09,17.39-3.73,25.86-6.35c27.96-8.63,55.81-17.61,83.7-26.47C306.99,956.91,308.73,956.16,310.5,955.49z"/>
			<path class="st8" d="M657.95,325.39c0.85-0.71,1.7-1.41,2.54-2.12c1.91-1.04,3.82-2.07,5.74-3.11c1.63-0.66,3.25-1.31,5.71-2.3
				c-2.82,3.71-5.09,6.7-7.35,9.69c-2.06,1.45-4.13,2.9-5.28,3.71c3.62,7.56,6.98,14.58,10.34,21.59c0.62,2.14,1.24,4.27,1.86,6.41
				c-0.12-0.59-0.25-1.17-0.37-1.76c3.74-2.84,7.48-5.68,11.22-8.52l-0.07,0.1c4.22-0.82,8.44-1.65,14.11-2.75
				c-3.4-2.87-5.79-4.89-8.19-6.91l0.07,0.09c-0.37-1.05-0.64-2.14-1.12-3.13c-3.55-7.43-7.22-14.8-10.63-22.29
				c-0.51-1.11,0.17-2.77,0.28-3.94c4.51,8.91,8.47,17.57,13.26,25.75c1.93,3.29,5.68,5.52,8.6,8.23l-0.1-0.07
				c0.39,0.88,0.78,1.76,0.94,2.11c-4.07,1.73-8.05,3.43-12.03,5.12c-0.86,0.71-1.71,1.42-2.57,2.14
				c-4.78,4.68-9.56,9.36-14.34,14.04c-0.92,1.14-1.84,2.28-2.76,3.42c-0.09-10.41-4.82-18.76-8.41-27.45
				c-1.28-5.83-5.29-9.52-9.57-12.64c1.99-1.16,4.27-2.49,6.55-3.82C656.91,326.44,657.43,325.91,657.95,325.39z"/>
			<path class="st9" d="M325.49,175.24c0-1.31,0-2.62,0-3.93c-0.39-0.16-0.77-0.32-1.16-0.48c-2.33,4.46-4.67,8.91-7,13.37
				c0.09-1.32,0.18-2.65,0.27-3.97c2.96-6.95,5.59-14.07,8.96-20.81c6.89-13.78,15.29-26.61,25.72-38.01
				c1.17-1.28,2.78-2.15,4.19-3.21c-0.65,1.71-1.3,3.42-2.36,6.18c2.43-1.84,3.93-2.96,5.42-4.09c-0.54,1-0.88,2.18-1.64,2.96
				c-12.07,12.42-20.6,27.18-28.17,42.57C328.21,168.91,326.9,172.1,325.49,175.24z"/>
			<path class="st0" d="M549.5,366.26c3.21,6.47,7.46,12.65,9.39,19.48c2.76,9.79,5.41,20.08,5.3,30.12
				c-0.3,25.96-13.38,39.6-37.76,45.33c-10.77,2.53-21.7,4.4-32.5,6.83c-11.69,2.63-21.19,7.92-23.55,21.08
				c-0.08,0.42-0.58,0.77-0.88,1.16c0.24-11.68,8.08-20.98,20.98-23.92c11.68-2.66,23.6-4.25,35.22-7.12
				c6.83-1.69,13.69-4.22,19.79-7.69c7.57-4.3,12.08-11.84,14.66-19.97c6.41-20.24,1.35-39.09-7.94-57.3
				C550.94,371.76,550.38,368.93,549.5,366.26z"/>
			<path class="st0" d="M569.57,382.23c-4.18-16.08-8.36-32.16-12.87-49.49c-1.01,3.45-1.66,5.68-2.42,8.27
				c-3.13-5.27-5.95-10.02-8.76-14.77c-0.75-0.58-1.5-1.16-2.25-1.73c-0.45,0.23-0.89,0.45-1.34,0.68c0.88,4.96,1.89,9.91,2.57,14.9
				c0.18,1.32-0.64,2.77-1,4.16c-2.34-2.33-4.68-4.66-7.02-6.99c2.17,0.96,4.35,1.93,6.05,2.68c-0.4-5.32-0.84-11.24-1.38-18.51
				c6.51,3.18,9.39,7.5,11.76,13.07c2.95-4.49,6.07-6.59,10.5-0.6c-0.77-5.16-1.34-9.05-1.92-12.93c0.59-0.1,1.19-0.2,1.78-0.3
				c1.78,8.93,3.55,17.87,5.33,26.8c-0.63,0.18-1.27,0.37-1.9,0.55c-0.89-3.75-1.78-7.51-2.76-11.66
				c-4.41,9.48-0.4,17.81,1.88,26.23c0.37,1.37,1.76,2.45,2.68,3.67c1,5,1.99,10,2.99,15C570.84,381.58,570.21,381.91,569.57,382.23
				z"/>
			<path class="st0" d="M406.44,794.26c-2.73,8.35-5.01,16.87-8.28,25c-11.6,28.88-23.53,57.63-35.37,86.41
				c-0.54,1.3-1.52,2.42-2.29,3.63c2.47-6.96,4.65-14.02,7.45-20.84c8.05-19.62,16.39-39.12,24.52-58.7
				c2.72-6.55,7.13-13.22,7.12-19.84c-0.01-6.75,2.84-12.14,3.93-18.23c0.03-0.15,0.17-0.28,0.22-0.38
				C406.24,790.86,401.68,796.71,406.44,794.26z"/>
			<path class="st0" d="M460.5,272.44c3.34,4.15,7.4,4.43,12.01,2.36c2.53-1.14,5.17-2.04,8.09-3.18c0.65,4.55,0.94,8.65,1.86,12.61
				c2.87,12.33,9.78,21.65,21.15,27.56c24.82,12.89,46.98,10.29,68.26-8.08c1.62-1.4,3.28-2.77,5.41-4.57
				c1.21,1.92,2.21,3.51,3.22,5.11c-1.18-0.86-2.37-1.73-3.69-2.69c-6.96,7.35-15.32,12.23-24.55,15.86
				c-12.21,4.8-24.59,5.64-36.89,1.16c-10.95-4-21.63-8.75-28.34-19.25c-3.9-6.1-6.62-12.53-7.16-19.8
				c-0.13-1.79-0.36-3.57-0.6-5.83c-2.7,1.04-5.11,2.01-7.54,2.91C466.08,278.69,462.21,277.24,460.5,272.44z"/>
			<path class="st10" d="M165.34,504.93c-1.6,7.11-3.2,14.22-4.81,21.32c-0.96,7.37-2.02,14.73-2.82,22.11
				c-0.29,2.74,0.27,5.56,0.05,8.31c-1.84,23.29,4.08,44.44,17.13,63.74c0.81,1.21,0.48,3.19,0.68,4.81
				c-1.64-2.32-3.28-4.63-4.93-6.95c-0.38-1.06-0.59-2.23-1.17-3.17c-10.37-17.12-14.68-35.68-13.82-55.63
				C156.46,540.84,158.54,522.48,165.34,504.93z"/>
			<path class="st11" d="M901.39,558.15c-7.88,15.53-15.77,31.05-23.65,46.58c-7.06,13.9-14.11,27.79-21.17,41.69
				c0.7-2.18,1.13-4.49,2.14-6.52c15.37-30.87,30.84-61.69,46.21-92.56c4.16-8.34,8.13-16.77,12.09-25.21
				c0.64-1.37,0.75-3,0.23-4.95c-1.99,2.27-3.97,4.54-5.96,6.81c1.33-2.93,2.67-5.86,4-8.8c0.67-1.63,1.34-3.25,2.01-4.88
				c0.76,1.74,1.53,3.48,2.6,5.91c-0.56-0.04,0.07,0.01,0.71,0.05c-0.07,0.85-0.15,1.7-0.22,2.56
				c-6.34,13.12-12.67,26.24-19.01,39.36L901.39,558.15z"/>
			<path class="st0" d="M352.52,262.2c0.84,0.03,1.67,0.05,2.51,0.08c1.18,1.99,2.36,3.97,3.54,5.96
				c5.84,11.3,14.58,19.93,24.85,27.17c12.05,10.08,26.05,16.09,41.21,19.67l-0.12,0.19c-9.78,0.13-18.28-4.21-26.54-8.47
				c-15.59-8.05-28.79-19.17-38.96-33.6C356.56,269.72,354.67,265.87,352.52,262.2z"/>
			<path class="st12" d="M162.58,727.02c2.49,1.61,4.99,3.23,7.49,4.84c-0.26,0.68-0.52,1.37-0.78,2.05
				c-13.84,2.53-27.73,3.47-42.18,0.89c-0.23,0.83-0.56,2.03-0.89,3.24c-0.24-0.59-0.47-1.18-0.71-1.77
				c-0.78-3.15,1.37-2.95,3.36-2.96c8.4-0.04,16.81,0.06,25.21-0.19c4.11-0.13,8.19-0.94,12.28-1.44c0.01-0.4,0.02-0.79,0.03-1.19
				c-0.64-0.36-1.28-0.72-1.92-1.08C163.84,728.59,163.21,727.81,162.58,727.02z"/>
			<path class="st13" d="M496.49,377.27c0.35,6.07,1.94,11.74,5.83,16.51c0.91,1.12,2.64,2.46,3.83,2.32
				c6.8-0.8,13.47-2.16,17.34-8.84c0.39,0.02,0.78,0.04,1.17,0.06c-3.01,6.75-9.43,8.54-16.45,10.6c5.73,3.77,11.42,3.06,16.94,3.21
				c1.11,0.38,2.22,0.75,3.33,1.13c-4.34,0.7-8.68,1.4-13.02,2.1l-0.08-0.04c-8.02-2.56-14.49-7.05-17.49-15.21
				c-1.52-4.14-2.26-8.56-3.36-12.85c0.02-0.56,0.03-1.13,0.05-1.69c0.23-0.22,0.47-0.42,0.74-0.58
				C495.72,375.07,496.11,376.17,496.49,377.27z"/>
			<path class="st0" d="M508.17,585.15c-1.56,1.72-3.12,3.45-4.67,5.17c2.8-5.02,5.61-10.03,8.33-14.89
				c-6.52-6.3-13.44-12.04-19.19-18.78c-7.28-8.53-13.68-17.82-20.28-26.92c-1.09-1.5-1.24-3.69-1.83-5.56
				c0.29,0.11,0.59,0.2,0.89,0.28c3.26,5.31,6.52,10.63,9.77,15.94c5.43,6.31,10.85,12.63,16.28,18.94
				c2.31,2.33,4.56,4.72,6.95,6.96c2.88,2.69,7.63,4.86,8.34,7.98c0.67,2.97-2.83,6.88-4.49,10.38
				C508.18,584.8,508.19,584.98,508.17,585.15z"/>
			<path class="st14" d="M471.41,524.46c-0.3-0.08-0.59-0.17-0.89-0.28c-2.34-4.65-4.68-9.3-7.02-13.94
				c-0.75-4-2.29-8.12,1.92-11.63c0.58,0.32,1.6,0.52,1.89,1.09c3.75,7.34,7.4,14.73,11.01,22.13c0.14,0.29-0.33,0.88-0.52,1.33
				c-2.44-4.3-4.88-8.59-7.32-12.89c-1.52-2.93-3.04-5.86-4.57-8.8c-2.91,4.92-0.03,8.21,1.57,11.8
				C468.8,516.99,470.1,520.72,471.41,524.46z"/>
			<path class="st15" d="M241.49,397.13c7.97-8.6,16.12-17.04,23.86-25.84c7.55-8.57,14.69-17.5,22.01-26.27
				c0.09,0.43,0.18,0.86,0.28,1.29c-14.4,18.58-28.9,37.08-46.18,53.16c-0.28-0.24-0.55-0.47-0.83-0.7
				C240.92,398.23,241.21,397.68,241.49,397.13z"/>
			<path class="st16" d="M571.48,381.26c-1-5-1.99-10-2.99-15c0.57-8.4,3.34-15.78,9.92-21.37c0.84-0.71,1.95-1.11,2.93-1.65
				c-0.96,1.33-1.92,2.67-2.89,4c-1.87,2.9-4.2,5.61-5.54,8.74c-4.69,11.04-2.56,21.41,3.82,31.18
				C575,385.18,573.24,383.22,571.48,381.26z"/>
			<path class="st17" d="M287.64,346.31c-0.09-0.43-0.18-0.86-0.28-1.29c3.07-4.59,6.13-9.18,9.2-13.77
				c4.36-4.51,8.73-9.03,13.09-13.54c-0.07,0.49,0.03,1.11-0.24,1.44C302.18,328.23,294.91,337.27,287.64,346.31z"/>
			<path class="st11" d="M240.64,398.78c0.28,0.23,0.55,0.47,0.83,0.7c-10.68,10.55-22.42,19.15-37.99,20.77
				c1.34-0.64,2.67-1.28,4.01-1.92c7.45-3.65,14.9-7.31,22.35-10.96C233.43,404.51,237.04,401.64,240.64,398.78z"/>
			<path class="st0" d="M349.39,255.27c0.36,1,0.73,1.99,1.09,2.99c-0.55,2.4-1.1,4.8-1.71,7.48c-3.26-0.86-8.9,3.25-9.27-4.48
				c0.34,0.32,0.68,0.64,1.01,0.96c1.01,0.97,2.02,1.93,3.03,2.9c0.35-0.22,0.69-0.43,1.04-0.65c-0.19-3.92-0.37-7.84-0.57-12.06
				C346.07,253.5,347.73,254.39,349.39,255.27z"/>
			<path class="st0" d="M442.44,294.41c-2.36-3.38-4.72-6.75-7.07-10.13c-2.63-5.01-5.27-10.01-7.9-15.02
				c-1.76-3.3-3.52-6.61-5.29-9.91c1.36,1.37,3.07,2.53,4.02,4.14c5.03,8.52,9.93,17.12,14.73,25.77
				C441.78,290.78,441.95,292.68,442.44,294.41z"/>
			<path class="st18" d="M195.63,990.3c-8.48,1.21-16.94,2.78-25.46,3.5c-5.11,0.43-6.69,2.35-5.22,7.43c3.78,0,7.66,0,11.55,0
				c-3.33,0.67-6.65,1.58-10.01,1.84c-0.91,0.07-2.58-1.64-2.85-2.78c-0.47-2.01-0.13-4.21-0.13-6.43
				c9.93-1.48,19.34-2.92,28.76-4.23C193.34,989.47,194.51,990.06,195.63,990.3z"/>
			<path class="st0" d="M392.6,210.25c1.9,2.11,4.17,3.99,5.63,6.36c6.08,9.92,11.95,19.98,17.81,30.04
				c0.45,0.76,0.23,1.91,0.32,2.88c-5.91-9.51-11.82-19.02-17.73-28.52C396.62,217.43,394.61,213.84,392.6,210.25z"/>
			<path class="st19" d="M169.51,783.34c-1.55,0.99-3.11,1.97-4.66,2.96c-3.11-1.77-6.23-3.55-9.34-5.32
				c-0.28-1.7-0.56-3.4-0.84-5.1C159.62,778.36,164.56,780.85,169.51,783.34z"/>
			<path class="st0" d="M396.49,208.24c1.69,0.89,3.39,1.78,6.06,3.19c1.91-8.69-2.49-16.33-2.72-24.89
				c1.53-0.1,3.08-0.21,4.64-0.31c0.05,0.16,0.19,0.42,0.15,0.45c-5.68,4.64-0.26,9.93-0.83,14.87c-0.14,1.23,0.77,2.59,0.63,3.82
				c-0.28,2.53-0.95,5.01-1.45,7.51C400.81,211.33,398.65,209.78,396.49,208.24z"/>
			<path class="st0" d="M495.34,373.97c-0.27,0.17-0.52,0.36-0.74,0.58c-0.03-1.15-0.09-2.31-0.09-3.46
				c-0.06-9.4,0.03-9.45,9.54-9.85c6.16-0.26,12.31-0.77,18.46-0.91c2-0.05,4.02,0.71,6.03,1.09c-7.4,0.31-14.8,0.75-22.2,0.91
				c-10.58,0.24-10.58,0.15-11.12,10.66C495.2,373.31,495.3,373.64,495.34,373.97z"/>
			<path class="st1" d="M536.48,337.26c2.34,2.33,4.68,4.66,7.02,6.99c0.72,2.15,1.1,4.59,4.05,4.92l-0.2,0.25
				c-2.17-0.27-3.99-0.07-3.81,2.83c-3.01-4-6.02-8-9.04-12C535.16,339.25,535.82,338.25,536.48,337.26z"/>
			<path class="st0" d="M434.49,315.34c2.6-0.28,5.28-0.24,7.77-0.9c7.86-2.09,8.24-3.01,5.12-10.14c1.67,1.81,3.33,3.62,5,5.43
				c-1.41,1.23-2.63,2.94-4.27,3.61c-7.62,3.13-15.36,5.99-23.6,1.93l0.12-0.19C427.91,315.16,431.2,315.25,434.49,315.34z"/>
			<path class="st0" d="M534.5,340.25c3.01,4,6.02,8,9.04,12c-0.04,2-0.08,4-0.12,6c-0.9-0.56-2.16-0.92-2.64-1.73
				c-2.16-3.64-4.28-7.33-6.01-11.18C534.12,343.9,534.56,341.96,534.5,340.25z"/>
			<path class="st20" d="M495.34,373.97c-0.04-0.33-0.13-0.66-0.12-0.98c0.54-10.51,0.54-10.42,11.12-10.66
				c7.4-0.16,14.8-0.6,22.2-0.91c0.31,0.3,0.63,0.6,0.94,0.89c-5.86,0.39-11.71,0.83-17.57,1.17c-4.56,0.27-9.13,0.42-14.27,0.65
				c-0.41,4.7-0.78,8.92-1.15,13.14C496.11,376.17,495.72,375.07,495.34,373.97z"/>
			<path class="st21" d="M543.42,358.25c0.04-2,0.08-4,0.12-6c-0.19-2.9,1.64-3.1,3.81-2.83c0.15,0.58,0.3,1.17,0.45,1.75
				c-0.78-0.19-1.56-0.38-2.51-0.61c0.08,1.61,0.17,3.03,0.21,4.46c0.24,7.38-0.55,8.22-8.25,8.19c-1.58-0.01-3.15-0.52-4.72-0.8
				c2.77-0.64,5.59-1.15,8.3-1.99C541.81,360.11,542.56,359,543.42,358.25z"/>
			<path class="st0" d="M494.54,376.24c1.09,4.29,1.83,8.72,3.36,12.85c3,8.16,9.47,12.65,17.49,15.21
				c-9.06,0.8-17.9-9.29-19.77-16.8C494.72,383.88,494.87,380,494.54,376.24z"/>
			<path class="st0" d="M424.52,726.25c-2.65,11.59-5.29,23.17-7.98,34.75c-0.17,0.74-0.69,1.39-1.05,2.09
				c0.57-4.28,0.87-8.62,1.78-12.83c1.52-7.01,3.39-13.94,5.25-20.87C422.83,728.25,423.84,727.29,424.52,726.25z"/>
			<path class="st0" d="M604.5,335.2c1.92,2.32,3.84,4.64,5.76,6.95c-1.38,0-2.77,0-4.15,0c-0.85-0.15-1.69-0.31-2.54-0.46
				c-4.65-4.14-9.83-3.26-15.1-1.6c-0.99,0.05-1.98,0.11-2.97,0.16c5.86-5.15,12.41-2.04,18.74-1.58c0.46,0.03,0.92,0.15,1.51,0.25
				C605.29,337.59,604.89,336.39,604.5,335.2z"/>
			<path class="st22" d="M154.67,775.88c0.28,1.7,0.56,3.4,0.84,5.1c-3.01-1.56-6.01-3.12-9.02-4.68c3.21-1.93,0.83-4.63,0.98-6.99
				C149.86,771.5,152.27,773.69,154.67,775.88z"/>
			<path class="st23" d="M398.63,221.02c5.91,9.51,11.82,19.02,17.73,28.52c-0.05,0.3-0.03,0.6,0.06,0.9
				c-0.03,0.68-0.07,1.35-0.1,2.03c-5.99-10.05-11.99-20.09-17.98-30.14C398.44,221.89,398.53,221.46,398.63,221.02z"/>
			<path class="st0" d="M515.47,404.34c4.34-0.7,8.68-1.4,13.02-2.1c5.79-1.28,9.75-4.85,12.47-9.96c0.51,0.32,1.02,0.64,1.53,0.96
				c-4.55,7.98-12.19,11.1-20.6,12.61C519.9,406.21,517.62,404.89,515.47,404.34z"/>
			<path class="st24" d="M585.5,340.26c0.99-0.05,1.98-0.11,2.97-0.16c0.4,0.75,0.81,1.49,1.21,2.24c-2.67,2.26-5.34,4.53-8.01,6.79
				c-1.07-0.64-2.14-1.27-3.21-1.91c0.96-1.33,1.92-2.67,2.89-4C582.73,342.24,584.11,341.25,585.5,340.26z"/>
			<path class="st0" d="M173.29,790.18c7.4-4.66,14.81-9.31,22.21-13.97C188.1,780.86,180.69,785.52,173.29,790.18z"/>
			<path class="st25" d="M416.32,252.47c0.03-0.68,0.07-1.35,0.1-2.03c1.92,2.97,3.83,5.94,5.75,8.91c1.76,3.3,3.52,6.61,5.29,9.91
				c-0.37,0.02-0.74,0.05-1.11,0.07C423.01,263.71,419.67,258.09,416.32,252.47z"/>
			<path class="st26" d="M398.63,221.02c-0.1,0.44-0.19,0.87-0.29,1.31c-2.93-5.39-5.86-10.78-8.79-16.18
				c1.02,1.37,2.04,2.73,3.06,4.1C394.61,213.84,396.62,217.43,398.63,221.02z"/>
			<path class="st0" d="M464.81,353.02c-1.21-1.14-2.07-1.94-2.93-2.74c1.3-0.67,2.57-1.72,3.93-1.86c0.77-0.08,1.7,1.32,2.55,2.05
				C467.31,351.22,466.26,351.98,464.81,353.02z"/>
			<path class="st0" d="M441.4,345.89c2.67,0.5,3.9,0.73,5.49,1.02c-0.22,1.16-0.06,2.62-0.69,3.18c-0.81,0.71-3.14,1.17-3.29,0.9
				C442.18,349.67,441.97,348.08,441.4,345.89z"/>
			<path class="st0" d="M571.48,381.26c1.76,1.96,3.51,3.92,5.27,5.89c2.22,1.86,4.44,3.71,6.66,5.57
				c5.54,4.43,15.2,5.14,21.07,1.54c1.13-0.55,2.3-1.02,3.38-1.65c10.03-5.92,15.73-19.93,13.62-33.38
				c1.65,1.07,3.74,1.81,4.88,3.27c24.26,31.07,48.4,62.23,72.58,93.36c11.02,14.18,22.01,28.4,33.2,42.44
				c2.41,3.02,2.32,5.1,0.19,8.25c-9.48,14.03-18.67,28.27-27.96,42.43c-1.92,2.46-3.83,4.92-5.75,7.38
				c-4.49,0.46-8.97,0.93-13.46,1.39c-0.19-0.45-0.39-0.91-0.58-1.36c5.11-7.02,10.31-13.98,15.31-21.07
				c7.83-11.12,15.59-22.29,23.16-33.58c0.72-1.08,0.53-3.6-0.27-4.73c-9.05-12.88-18.18-25.7-27.53-38.36
				c-7.57-10.26-15.48-20.28-23.2-30.44c-0.59-0.77-0.9-1.75-0.8-1.56c-5.21,4.52-9.24,9.21-14.29,12.17
				c-9.61,5.64-20.21,4.94-30.94,3.23c-22.82-3.62-36.38-18.43-46.37-37.6c-3.75-7.2-6.76-14.79-10.1-22.21
				C570.21,381.91,570.84,381.58,571.48,381.26z"/>
			<path class="st27" d="M606.61,571.64c-1.29,1.56-2.59,3.12-3.88,4.68c-1.42,2.07-2.86,4.12-4.26,6.2
				c-0.85,1.25-1.64,2.54-1.98,3.07c0-2.6,0-4.97,0-7.34c0.29-0.78,0.59-1.56,0.88-2.34c1.31-1.26,2.62-2.52,3.94-3.78
				c1.38-1.51,2.76-3.01,4.14-4.52c-1.57-0.93-3.05-2.09-4.73-2.75c-5.03-1.97-10.14-3.75-15.22-5.61
				c-5.1-2.54-10.18-5.15-15.33-7.58c-2.63-1.24-5.4-2.19-8.11-3.26c-6.99-4.88-14.14-9.54-20.87-14.75
				c-2.27-1.76-3.87-1.66-4.6,0.41c-0.88,2.48-1.75,5.96-0.69,7.97c4.71,8.91,11.38,16.32,19.6,22.26c0.91,0.94,1.67,2.09,2.74,2.78
				c11.65,7.47,24.13,12.16,38.26,11.17c-2.44,0.67-4.88,1.86-7.33,1.9c-5.01,0.07-10.03-0.47-15.05-0.76
				c-16.64-4.4-28.86-14.82-38.69-28.48c-1.04-1.45-2.1-2.89-3.15-4.33c-0.51-1.82-0.79-3.76-1.58-5.44
				c-1.59-3.36-3.46-6.58-5.21-9.86c0.72,0.11,1.54,0.03,2.13,0.36c1.35,0.77,2.59,1.73,3.88,2.62c0.61-0.72,1.22-1.44,1.82-2.16
				c0.43-0.61,0.86-1.22,1.28-1.83c0.97-1,1.95-2.01,2.92-3.01c3.04,2.22,6.04,4.51,9.14,6.64c3.21,2.2,6.51,4.26,9.78,6.38
				c7.8,4.04,15.43,8.43,23.43,12.02c8.13,3.65,16.81,6.09,24.91,9.81c9.92,4.55,16.33,1.66,20.45-7.93
				c0.76-0.42,1.52-0.84,3.48-1.94c-1.36,3.05-2.28,4.9-3.04,6.82c-3.18,8.1-3.16,8.22-11.7,8.15
				C610.44,567.17,607.83,568.09,606.61,571.64z"/>
			<path class="st28" d="M606.61,571.64c1.21-3.55,3.82-4.47,7.37-4.44c8.55,0.08,8.53-0.04,11.7-8.15
				c0.75-1.92,1.67-3.78,3.04-6.82c-1.97,1.09-2.72,1.51-3.48,1.94c-1.94-1.57-3.87-3.13-5.81-4.7
				c-6.92-3.34-13.91-6.57-20.76-10.06c-8.76-4.46-17.5-8.98-26.09-13.76c-6.13-3.4-11.99-7.27-17.98-10.93
				c0.22-0.51,0.44-1.02,0.66-1.54c3.08,1.03,6.15,2.05,9.23,3.07c2.33,1.33,4.67,2.67,7,4c5.24,3.35,10.35,6.93,15.77,9.97
				c3.17,1.78,6.82,2.69,10.26,3.99c0.33,0,0.65,0.02,0.98,0.07c4.19,5.83,10.62,6.88,17.03,7.97c1.3,0.37,2.59,0.73,3.89,1.1
				c6.19,2.11,12.38,4.21,18.58,6.32c7.16,1.55,14.33,3.1,21.49,4.65c9.83,1.56,19.63,3.44,29.52,4.49
				c3.09,0.33,6.42-1.57,9.64-2.45c1.92-2.46,3.83-4.92,5.75-7.38c-2.03,8.08-5.99,11.72-13.88,11.17
				c-10.36-0.72-20.66-2.25-30.99-3.37c-1.67-0.18-3.38-0.03-5.07-0.03c-0.07,0.59-0.14,1.18-0.21,1.77
				c3.4,0.63,6.82,1.15,10.19,1.91c10.73,2.42,21.57,3.24,32.56,2.9c4.05-0.13,7.04-1.43,9.33-4.68c0.63-0.89,1.59-1.55,2.41-2.32
				c-0.49,1.24-0.99,2.48-1.48,3.71c-2.89,3.87-7.09,4.46-11.5,4.79c-16.64,1.24-32.77-1.93-48.85-5.57
				c-4.53-1.03-9.06-2.15-13.47-3.59c-2.71-0.89-3.95,0-5.04,2.32c-1.34,2.85-2.97,5.57-4.44,8.36c-1.96,3.71-4.6,5.15-8.98,3.83
				c-1.96-0.59-4.43,0.51-6.67,0.84C607.73,571.23,607.17,571.44,606.61,571.64z"/>
			<path class="st29" d="M525.16,401.12c-5.53-0.14-11.22,0.57-16.94-3.21c7.02-2.05,13.45-3.84,16.45-10.6
				c4.66-6.13,3.82-13.01,2.03-21.2c5.35,0,10.08,0,14.8,0c0.71,0.18,1.42,0.36,2.13,0.54c0.63,3.35,1.26,6.7,1.89,10.06
				c-1.05,1.07-2.83,2.02-3.04,3.24C540.7,390.35,534.85,397.26,525.16,401.12z"/>
			<path class="st4" d="M611.49,497.24c-0.66-0.66-1.32-1.32-1.98-1.99c-2.21-3.93-4.43-7.86-7.09-12.59
				c2.68-0.28,4.25-0.49,5.83-0.61c10.78-0.82,18.7,4.28,25.23,12.24c0.42,0.63,0.84,1.27,1.26,1.9c-0.44,0.69-0.78,1.88-1.34,2.01
				C626.02,499.84,618.67,500.24,611.49,497.24z"/>
			<path class="st30" d="M598.57,500.97c-4.65-7.21-9.27-14.44-13.96-21.63c-1.7-2.61-1.01-4.2,1.82-5.11
				c7.97-0.99,15.94-1.97,23.91-2.96c0.77,0.46,1.55,0.93,2.62,1.57c-1,0.64-1.75,1.12-2.5,1.6c-4.08,0.48-8.18,0.78-12.22,1.49
				c-3.08,0.54-4.29,2.56-2.5,5.43c2.77,4.48,5.74,8.83,8.62,13.24c0.21,0.26,0.43,0.52,0.64,0.77c1.3,1.78,2.61,3.56,4.6,6.28
				C605.24,501.39,601.91,501.18,598.57,500.97z"/>
			<path class="st31" d="M470.49,510.26c2.44,4.3,4.88,8.59,7.32,12.89c2.93,4.28,5.87,8.55,8.8,12.83
				c5.05,6.06,10.09,12.12,15.14,18.18c6.36,5.99,12.71,11.99,19.07,17.98c-7.42-1.83-11.56-8.17-17.06-12.6
				c-3.13-2.52-5.61-5.86-8.92-9.4c-0.16,1.95-0.24,3.04-0.33,4.13c-1.35-1.38-2.72-2.75-4.05-4.14c-3.09-3.23-6.18-6.48-9.26-9.72
				c-3.26-5.31-6.52-10.63-9.77-15.94c-1.31-3.73-2.61-7.47-3.92-11.2C468.49,512.26,469.49,511.26,470.49,510.26z"/>
			<path class="st31" d="M574.12,579.38c5.02,0.29,10.04,0.84,15.05,0.76c2.45-0.04,4.89-1.23,7.33-1.9l0,0c0,2.37,0,4.74,0,7.34
				c0.34-0.53,1.13-1.82,1.98-3.07c1.4-2.08,2.84-4.13,4.26-6.2c-1.16,2.71-2.04,5.6-3.57,8.08c-1.13,1.83-2.87,3.98-4.77,4.53
				c-11.98,3.47-24,6.9-36.2,9.48c-2.99,0.63-6.67-1.94-10.03-3.04c9.64,3.58,18.19-0.41,26.99-3.56c5.3-1.89,10.93-2.86,16.41-4.24
				c-0.17-0.63-0.33-1.27-0.5-1.9c-5.28,1.51-10.52,3.15-15.85,4.49c-5.99,1.51-12.04,2.8-18.09,4.03
				c-0.78,0.16-1.75-0.61-2.63-0.95c6.64-1.59,13.31-3.07,19.9-4.85c2.16-0.58,4.1-1.98,6.14-3c1.84-0.47,3.68-0.95,6.04-1.56
				C582.05,582.21,578.09,580.79,574.12,579.38z"/>
			<path class="st32" d="M516.42,478.03c2.94-1.32,5.78-3.08,8.87-3.76c1.27-0.28,3.05,1.77,5.66,3.43
				c-2.56,1.29-3.92,1.98-5.28,2.67c-3.38-0.07-4.59,1.74-4.27,4.9c-1.01,0.35-2.02,0.71-3.03,1.06c-1.37,0.13-2.74,0.26-4.58,0.44
				c1.06,3.52,1.92,6.4,2.79,9.29c1.03,6,2.05,12,3.08,17.99c-0.43,0.1-0.85,0.2-1.28,0.29c-2.27-7.22-4.25-14.55-6.89-21.63
				c-2.19-5.88-1.71-10.37,4.3-13.38C516.13,479.16,516.22,478.48,516.42,478.03z"/>
			<path class="st33" d="M516.42,478.03c-0.21,0.45-0.29,1.13-0.64,1.31c-6.01,3.02-6.49,7.5-4.3,13.38
				c2.64,7.08,4.62,14.41,6.89,21.63c0.43-0.1,0.85-0.2,1.28-0.29c-1.03-6-2.05-12-3.08-17.99c1.29,4.41,2.57,8.82,3.86,13.22
				c3.69,8.32,7.37,16.64,11.06,24.95c-1.29-0.89-2.52-1.85-3.88-2.62c-0.59-0.33-1.41-0.26-2.13-0.36
				c-1.71-2.65-3.42-5.31-5.13-7.96c-3.36-10.36-6.72-20.71-10.07-31.07c-0.15-0.47-0.11-0.99-0.21-1.47
				c-0.47-2.29-2.11-5.37-1.2-6.69C510.63,481.53,513.83,479.99,516.42,478.03z"/>
			<path class="st34" d="M525.16,401.12c9.69-3.85,15.54-10.77,17.33-21.17c0.21-1.22,1.99-2.16,3.04-3.24
				c-1.52,5.19-3.04,10.38-4.56,15.57c-2.72,5.12-6.68,8.69-12.47,9.96C527.38,401.87,526.27,401.49,525.16,401.12z"/>
			<path class="st35" d="M633.48,494.3c-6.53-7.96-14.44-13.06-25.23-12.24c-1.58,0.12-3.15,0.33-5.83,0.61
				c2.67,4.73,4.88,8.66,7.09,12.59c-5.11-3.38-6.37-8.8-8.45-14.03C614.45,477.81,629.01,483.95,633.48,494.3z"/>
			<path class="st36" d="M580.54,585.38c-2.04,1.02-3.98,2.42-6.14,3c-6.59,1.78-13.26,3.26-19.9,4.85c-3-1.66-6-3.32-9.01-4.98
				c11.45,6.6,21.89-0.58,32.71-2.41C578.99,585.71,579.76,585.54,580.54,585.38z"/>
			<path class="st37" d="M619.41,543.34c-1.3-0.37-2.59-0.73-3.89-1.1c-5.68-2.66-11.35-5.31-17.03-7.97
				c-0.32-0.04-0.65-0.07-0.98-0.07c-0.9-0.66-1.76-1.39-2.72-1.96c-4.05-2.43-8.14-4.81-12.21-7.22c5.5,2.61,10.97,5.25,16.49,7.81
				c7.49,3.48,15.01,6.91,22.52,10.36C620.87,543.25,620.14,543.3,619.41,543.34z"/>
			<path class="st38" d="M521.4,485.27c-0.32-3.15,0.89-4.97,4.27-4.9c-0.53,0.62-1.07,1.24-1.92,2.23
				c4.34,3.28,8.74,6.41,12.89,9.84c1.38,1.14,2.14,3.05,3.18,4.61c-0.78-0.26-1.55-0.53-2.33-0.79
				C532.13,492.59,526.76,488.93,521.4,485.27z"/>
			<path class="st11" d="M582.59,525.03c4.07,2.4,8.16,4.79,12.21,7.22c0.95,0.57,1.81,1.3,2.72,1.96
				c-3.43-1.3-7.09-2.21-10.26-3.99c-5.42-3.04-10.53-6.62-15.77-9.97c0.77-0.05,1.54-0.1,2.3-0.15
				C576.73,521.75,579.66,523.39,582.59,525.03z"/>
			<path class="st39" d="M547.54,349.17c-2.94-0.33-3.32-2.77-4.05-4.92c0.36-1.39,1.18-2.85,1-4.16c-0.68-4.99-1.68-9.94-2.57-14.9
				c0.45-0.23,0.89-0.45,1.34-0.68c0.75,0.58,1.5,1.16,2.25,1.73c-0.65,1.09-2.02,2.32-1.84,3.25c0.97,5.11,2.17,10.2,3.62,15.2
				c0.45,1.53,1.94,2.76,3.07,4.29C549.57,349.03,548.56,349.1,547.54,349.17z"/>
			<path class="st35" d="M611.49,497.24c7.18,3,14.53,2.59,21.9,0.97c0.57-0.13,0.9-1.31,1.34-2.01c1.39,0.66,2.77,1.32,4.16,1.98
				c-0.23,0.58-0.46,1.16-0.7,1.74c-7.76,0-15.52,0.11-23.27-0.12C613.76,499.76,612.64,498.14,611.49,497.24z"/>
			<path class="st35" d="M604.37,494.61c-2.88-4.41-5.84-8.77-8.62-13.24c-1.78-2.87-0.57-4.89,2.5-5.43
				c4.03-0.71,8.14-1.01,12.22-1.49c-3.02,0.57-6.08,0.99-9.05,1.77c-1.67,0.43-3.19,1.44-5.44,2.5c2.26,4,4.3,7.51,6.23,11.07
				C603.05,491.32,603.65,493,604.37,494.61z"/>
			<path class="st40" d="M520.36,523.3c1.71,2.65,3.42,5.31,5.13,7.96c1.75,3.28,3.63,6.5,5.21,9.86c0.8,1.69,1.07,3.62,1.58,5.44
				C528.31,538.81,524.34,531.05,520.36,523.3z"/>
			<path class="st41" d="M501.74,554.15c-5.05-6.06-10.09-12.12-15.14-18.18c1.77,1.81,3.69,3.49,5.28,5.45
				C495.26,545.59,498.47,549.9,501.74,554.15z"/>
			<path class="st42" d="M619.41,543.34c0.73-0.04,1.46-0.09,2.19-0.13c5.28,1.7,10.55,3.41,15.83,5.11
				c0.18,0.45,0.37,0.9,0.55,1.34C631.8,547.55,625.6,545.45,619.41,543.34z"/>
			<path class="st43" d="M637.99,549.66c-0.18-0.45-0.37-0.9-0.55-1.34c7.35,2,14.7,3.99,22.04,5.99
				C652.31,552.76,645.15,551.21,637.99,549.66z"/>
			<path class="st44" d="M610.35,471.27c-7.97,0.99-15.94,1.97-23.91,2.96C594.04,470.3,602.04,469.58,610.35,471.27z"/>
			<path class="st35" d="M598.57,500.97c3.34,0.21,6.67,0.42,11.03,0.69c-1.99-2.72-3.29-4.5-4.6-6.28
				c2.26,1.86,4.52,3.73,6.79,5.59c-0.28,0.64-0.55,1.28-0.83,1.92C606.83,502.26,602.7,501.61,598.57,500.97z"/>
			<path class="st1" d="M537.17,160.1c3.08-25.28,6.16-50.57,9.32-76.53c1.78,0.74,2.9,1.2,4.01,1.66c1.01,1.51,1.7,3.48,3.08,4.45
				c4.03,2.85,8.51,5.08,12.52,7.97c21.96,15.78,37.39,36.54,46.21,62.06c1.15,3.34,0.16,7.43,0.16,12.64
				c-3.63-3.35-5.98-5.52-8.33-7.68c-0.4,0.16-0.81,0.31-1.21,0.47c0.14,2,0.25,3.99,0.43,5.99c0.18,2.05,0.42,4.1,0.64,6.15
				c-0.78-1.13-1.57-2.25-2.35-3.38c-1.76-4.17-3-8.67-5.36-12.46c-8.72-14-20.27-25.17-34.78-33.16c-2.68-1.76-5.07-2.08-5.59,1.89
				c-0.69,5.34-1.04,10.72-1.53,16.09c-1.41,10.01-2.79,20.02-4.27,30.01c-0.26,1.77-0.96,3.48-1.46,5.22
				c-0.01-1.64,0.03-3.29-0.04-4.93c-0.21-5.38-0.45-10.75-0.68-16.13c-0.88-0.37-1.77-0.74-2.65-1.12
				c-1.27,2.57-2.55,5.15-3.82,7.72C537.78,164.2,542.24,159.75,537.17,160.1z"/>
			<path class="st45" d="M577.44,217.24c-4.84,2.44-9.67,4.88-14.54,7.33c-2.82-7.62-6.2-14.54-7.77-21.85
				c-0.95-4.4,0.87-9.42,1.52-14.14c2.28-16.4,4.58-32.79,6.92-49.17c0.13-0.93,0.59-1.82,1.14-3.44
				c10.09,6.02,16.61,14.98,23.72,23.31c2.65,5.01,5.31,10.02,7.96,15.03c1.71,7.32,3.42,14.63,5.13,21.95
				c-0.14,3.09-0.43,6.29,4.2,6.1c-1.4,0.95-2.81,1.9-4.21,2.85c-0.49-0.42-1.21-1.3-1.44-1.18c-8.34,4-16.64,8.09-24.94,12.17
				c0.13,0.31,0.26,0.62,0.4,0.93C576.16,217.16,576.8,217.2,577.44,217.24z"/>
			<path class="st46" d="M609.83,253.18c-9.7,9.23-19.4,18.46-29.1,27.7c-1.27,0.01-2.54-0.06-3.8,0.05
				c-12.71,1.09-25.33,1.25-37.45-3.65c-4.96-3.79-10.02-7.45-14.78-11.47c-0.95-0.8-0.78-2.94-1.13-4.47
				c1.76-0.92,3.53-1.81,5.27-2.77c11.57-6.36,23.14-12.73,34.71-19.1c1.94,0.23,4.46-0.24,5.72,0.8
				C581.09,250.09,594.69,253.97,609.83,253.18z"/>
			<path class="st0" d="M563.55,239.48c-11.57,6.37-23.14,12.74-34.71,19.1c-1.74,0.96-3.52,1.85-5.27,2.77
				c-3.47,0.23-3.47,2.27-1.78,4.28c4.72,5.6,10.26,10.09,17.69,11.66c12.13,4.89,24.74,4.74,37.45,3.65
				c1.26-0.11,2.53-0.04,3.8-0.05c-4.08,3.77-8.16,7.55-12.24,11.32c-6.45-0.18-13.03,0.39-19.33-0.68
				c-14.33-2.45-24.8-11.3-33.61-22.34c-1.35-1.69-1.97-3.52-5-1.75c-6.85,4-14.05,7.39-21.1,11.03c-1.87-7.01-1.31-8.38,4.8-11.44
				c65.89-33.08,131.78-66.16,197.68-99.22c3.65-1.83,7.43-3.41,11.14-5.1c0.32,0.54,0.65,1.07,0.97,1.61
				c-3.24,2.92-6.49,5.84-9.73,8.76c-3.04,1.27-6.15,2.38-9.1,3.84c-15.59,7.74-31.13,15.57-46.69,23.36
				c-8.44,1.37-10.61,4.99-6.16,12.93c-2.41-1.47-4.08-1.94-4.79-3.03c-1.93-2.96-1.76-3.07-5.1-0.93c-1,0.36-1.99,0.72-2.99,1.07
				c-13.99,7.32-27.99,14.63-41.98,21.95c-1.34,0.66-2.67,1.33-4.01,1.99C570.18,236,566.87,237.74,563.55,239.48z"/>
			<path class="st46" d="M489.46,278.45c7.06-3.64,14.26-7.03,21.1-11.03c3.03-1.77,3.65,0.05,5,1.75
				c8.81,11.04,19.27,19.89,33.61,22.34c6.3,1.08,12.88,0.51,19.33,0.68c-10.06,10.68-20.87,20.85-36.35,21.54
				C511.29,314.68,492.17,301.8,489.46,278.45z"/>
			<path class="st47" d="M497.29,256.38c-9.29,4.29-18.58,8.58-28.32,13.07c-7.24-12.68-14.23-24.92-21.22-37.16
				c5.25-2.66,10.5-5.33,15.76-7.99c10.19-2.81,18.91-1.07,25.47,7.92c4.54,6.22,6.73,13.1,6.6,20.81
				C495.56,254.14,496.69,255.26,497.29,256.38z"/>
			<path class="st46" d="M577.51,232.26c13.99-7.32,27.99-14.63,41.98-21.95c7.78,7,17.08,8.88,27.18,8.08
				c-8.7,8.24-17.4,16.47-26.1,24.71c-1.37,0.36-2.73,0.71-4.1,1.07c-5.79,0.33-11.59,0.98-17.38,0.91
				c-8.33-0.1-15.64-2.99-21.1-9.57C577.4,234.79,577.65,233.36,577.51,232.26z"/>
			<path class="st47" d="M519.68,218.32c1.05-0.26,2.09-0.51,3.64-0.89c1.03-17.83-2.74-35.2-7.12-52.49
				c0.37-0.23,0.73-0.46,1.1-0.7c1.42,1.84,2.84,3.67,4.26,5.51c0.6,1.3,1.01,2.73,1.81,3.88c10.73,15.34,19.5,31.51,22.35,50.37
				c0.38,2.54,1.79,4.93,2.72,7.39c-9.3,4.59-18.6,9.18-27.9,13.77c0.82-2.33,1.75-4.62,2.44-6.99
				C525.06,231.05,524.72,224.28,519.68,218.32z"/>
			<path class="st48" d="M603.99,177.26c-0.22-2.05-0.46-4.1-0.64-6.15c-0.18-1.99-0.29-3.99-0.43-5.99
				c0.4-0.16,0.81-0.31,1.21-0.47c2.35,2.17,4.69,4.33,8.33,7.68c0-5.21,1-9.29-0.16-12.64c-8.81-25.52-24.25-46.28-46.21-62.06
				c-4.01-2.88-8.49-5.11-12.52-7.97c-1.38-0.98-2.07-2.94-3.08-4.45c9.65,6.05,19.76,11.48,28.84,18.29
				c20.51,15.38,34.91,35.27,40.31,60.69c1.57,7.39,1.73,15.22,1.5,22.82c-0.26,8.62-4.75,12.69-13.64,14.16
				c0.25-1.28,0.87-2.62,0.68-3.84c-0.71-4.45-1.68-8.86-2.56-13.28c-0.4-1.6-0.79-3.2-1.19-4.8
				C604.29,178.6,604.14,177.93,603.99,177.26z"/>
			<path class="st49" d="M510.47,250.4c-2.99,1.32-5.97,2.63-8.96,3.95c-0.34-5.38,0.36-11.09-1.24-16.07
				c-3.11-9.72-8.68-17.86-19.73-20.23c3.21-1.5,3.18-4,1.63-6.5c-3.42-5.53-7.05-10.93-10.6-16.39c1.3,0.2,2.8,0.04,3.86,0.65
				c8.15,4.65,16.49,9.04,24.24,14.29c10.08,6.83,13.89,16.7,11.9,28.81C510.97,242.71,510.83,246.57,510.47,250.4z"/>
			<path class="st46" d="M638.53,200.27c15.56-7.8,31.1-15.62,46.69-23.36c2.94-1.46,6.06-2.57,9.1-3.84
				c-7.07,6.94-14.09,13.94-21.24,20.81c-6.69,6.42-13.53,12.69-20.31,19.03c-4.07-0.19-8.19-0.07-12.2-0.68
				c-3.18-0.49-6.23-1.88-9.34-2.86c-0.1-0.64-0.19-1.28-0.29-1.92C633.48,205.05,636.01,202.66,638.53,200.27z"/>
			<path class="st18" d="M510.47,250.4c0.36-3.83,0.49-7.69,1.11-11.48c1.99-12.11-1.82-21.98-11.9-28.81
				c-7.75-5.25-16.09-9.65-24.24-14.29c-1.06-0.61-2.56-0.45-3.86-0.65c-0.33-0.96-0.66-1.91-0.98-2.87
				c14.64,3.33,28.45,8.53,40.26,18.11c3.06,2.48,5.88,5.27,8.82,7.91c5.04,5.96,5.38,12.73,3.31,19.86
				c-0.69,2.36-1.62,4.66-2.44,6.99C517.19,246.91,513.83,248.66,510.47,250.4z"/>
			<path class="st50" d="M548.45,231.4c-0.93-2.46-2.34-4.85-2.72-7.39c-2.85-18.86-11.61-35.03-22.35-50.37
				c-0.81-1.15-1.22-2.58-1.81-3.88c3.97,3.79,8.4,7.21,11.83,11.45c7.97,9.83,14.33,20.69,18.16,32.86
				c0.89,2.83,1.26,5.82,2.02,8.69C554.8,227.43,553.29,230.38,548.45,231.4z"/>
			<path class="st51" d="M480.55,218.06c11.05,2.36,16.62,10.51,19.73,20.23c1.59,4.98,0.9,10.69,1.24,16.07
				c-1.41,0.67-2.82,1.35-4.23,2.02c-0.6-1.11-1.73-2.24-1.71-3.34c0.13-7.71-2.05-14.58-6.6-20.81
				c-6.56-8.99-15.29-10.73-25.47-7.92c-0.35-0.38-0.71-0.77-1.06-1.15C468.48,221.45,474.51,219.76,480.55,218.06z"/>
			<path class="st52" d="M616.48,244.17c1.37-0.36,2.73-0.71,4.1-1.07c-3.58,3.36-7.16,6.72-10.74,10.08
				c-15.14,0.79-28.74-3.09-40.56-12.9c-1.26-1.05-3.78-0.57-5.72-0.8c3.32-1.74,6.63-3.48,9.95-5.22c-0.28,0.7-0.55,1.4-0.39,0.99
				c2.34,1.25,4.57,1.93,6.11,3.36C587.56,246.36,605.75,249.18,616.48,244.17z"/>
			<path class="st53" d="M325.49,175.24c1.41-3.14,2.71-6.34,4.23-9.42c7.58-15.39,16.1-30.15,28.17-42.57
				c0.76-0.78,1.1-1.97,1.64-2.96c2.29-2.16,4.44-4.49,6.92-6.38c0.96-0.73,2.67-0.47,4.03-0.66c-7.62,8.52-15.83,16.59-22.74,25.65
				c-11.61,15.21-20,32.24-24.1,51.03c-3.52,16.13-3.53,32.35,0.89,48.42c0.52,1.9,0.77,3.88,1.15,5.83
				c-0.39,0.02-0.79,0.03-1.18,0.05c-1.33-5.92-2.89-11.8-3.93-17.77c-0.84-4.81-1.41-9.72-1.45-14.59
				c-0.11-11.75,2.57-23.14,5.25-34.49C324.56,176.62,325.11,175.95,325.49,175.24z"/>
			<path class="st54" d="M537.17,160.1c5.07-0.35,0.61,4.1,4.28,6.92c1.27-2.57,2.55-5.15,3.82-7.72c0.88,0.37,1.77,0.74,2.65,1.12
				c0.23,5.38,0.48,10.75,0.68,16.13c0.06,1.64,0.03,3.29,0.04,4.93c-0.25,2.74-0.51,5.47-0.79,8.53
				C538.48,181.64,532.98,172.53,537.17,160.1z"/>
			<path class="st55" d="M621.49,359.22c2.11,13.45-3.59,27.47-13.62,33.38c-1.08,0.64-2.25,1.1-3.38,1.65
				c-2.99,0.35-5.98,0.7-8.98,1.04c-0.02-0.15-0.04-0.3-0.06-0.45c2.35-0.86,4.7-1.71,7.05-2.57c19.52-9.5,20.4-35.29,6.19-46.16
				c-1.18-0.9-1.74-2.63-2.59-3.97c1.38,0,2.77,0,4.15,0C615.35,346.95,619.44,352.41,621.49,359.22z"/>
			<path class="st56" d="M638.53,200.27c-2.53,2.39-5.06,4.78-7.58,7.17c0.1,0.64,0.19,1.28,0.29,1.92
				c3.11,0.99,6.15,2.38,9.34,2.86c4.01,0.61,8.12,0.49,12.2,0.68c-1.32,1.16-2.63,2.31-3.95,3.47c-1.48-0.03-2.99,0.12-4.44-0.12
				c-5.5-0.94-11.04-1.75-16.42-3.15c-2.02-0.53-3.66-2.53-5.48-3.87c3.33-2.14,3.17-2.03,5.1,0.93c0.71,1.1,2.39,1.56,4.79,3.03
				C627.92,205.26,630.09,201.64,638.53,200.27z"/>
			<path class="st57" d="M445.21,220.15c8.48-3.09,16.97-6.17,26.02-9.46c-2.24-8.31-8.81-14.57-14.81-21.19
				c1.71,0.81,3.98,1.17,5.05,2.5c4.35,5.41,8.46,11.03,12.31,16.81c0.53,0.8-0.58,3.96-1.49,4.25c-8.13,2.57-16.38,4.74-24.61,6.99
				C446.89,220.25,446.03,220.12,445.21,220.15z"/>
			<path class="st57" d="M480.55,218.06c-6.04,1.7-12.07,3.4-18.11,5.1c-3.95,1.45-7.91,2.91-11.86,4.36
				c7.62-6.09,16.93-8.03,26.05-10.12c4.14-0.95,4.71-2.79,2.93-5.84c-3.06-5.26-6.41-10.35-9.74-15.44
				c-1.1-1.69-2.47-3.15,0.78-3.82c0.33,0.96,0.66,1.91,0.98,2.87c3.55,5.45,7.18,10.85,10.6,16.38
				C483.73,214.06,483.76,216.56,480.55,218.06z"/>
			<path class="st58" d="M723.24,474.89c-3.94-5.08-7.08-9.14-10.5-13.55C723.35,461.53,724.24,462.6,723.24,474.89z"/>
			<path class="st59" d="M622.48,209.24c1.81,1.33,3.45,3.34,5.48,3.87c5.38,1.4,10.92,2.22,16.42,3.15
				c1.44,0.25,2.96,0.09,4.44,0.12c-0.71,0.67-1.43,1.34-2.14,2.02c-10.1,0.8-19.4-1.08-27.18-8.08
				C620.49,209.95,621.48,209.6,622.48,209.24z"/>
			<path class="st60" d="M577.44,217.24c-0.64-0.04-1.28-0.09-1.92-0.13c-0.13-0.31-0.26-0.62-0.4-0.93
				c8.3-4.08,16.6-8.17,24.94-12.17c0.24-0.11,0.95,0.77,1.44,1.18C593.48,209.22,585.46,213.23,577.44,217.24z"/>
			<path class="st31" d="M603.99,177.26c0.15,0.67,0.3,1.33,0.45,2c-0.21,3.16-0.42,6.31-0.63,9.47c-0.34,0.06-0.68,0.13-1.02,0.19
				c-1.77-4.89-3.53-9.78-5.3-14.67l0,0c1.27,0.93,2.54,1.86,3.86,2.83c0.09-0.97,0.19-2.09,0.29-3.2
				C602.42,175.01,603.21,176.14,603.99,177.26z"/>
			<path class="st61" d="M450.58,227.52c3.95-1.45,7.91-2.91,11.86-4.36c0.35,0.38,0.71,0.77,1.06,1.15
				c-5.25,2.66-10.51,5.32-15.76,7.99C444.42,228.17,449.55,229.06,450.58,227.52z"/>
			<path class="st62" d="M605.63,184.07c0.87,4.42,1.85,8.83,2.56,13.28c0.19,1.21-0.43,2.55-0.68,3.84
				c-0.6,0.39-1.2,0.77-1.79,1.16c-4.63,0.19-4.34-3.01-4.2-6.1c0.53,1.04,1.06,2.09,1.59,3.13c0.45,0.06,0.9,0.12,1.35,0.18
				c0.69-2.93,1.67-5.83,1.96-8.8C606.64,188.57,605.93,186.3,605.63,184.07z"/>
			<path class="st63" d="M554.38,146.24c0.49-5.37,0.84-10.75,1.53-16.09c0.52-3.97,2.91-3.65,5.59-1.89
				c-2.29-0.03-3.85,0.2-4.19,3.31C556.76,136.5,555.4,141.35,554.38,146.24z"/>
			<path class="st31" d="M596.39,174.3c-2.65-5.01-5.31-10.02-7.96-15.03c3.02,4.99,6.05,9.99,9.07,14.98l0,0
				C597.13,174.27,596.76,174.28,596.39,174.3z"/>
			<path class="st0" d="M816.55,708.31c-7.7,15.87-15.39,31.74-23.09,47.61c-7.62,15.72-15.13,31.5-22.99,47.1
				c-1.01,2-3.62,3.8-5.86,4.49c-47.91,14.76-96.6,26.51-145.89,35.5c-35.5,6.47-71.18,12.19-106.98,16.68
				c-27.55,3.45-55.4,4.57-83.12,6.51c-12.95,0.91-25.93,1.32-39.8,1.99c8.68-23.35,17.16-46.14,25.66-68.99
				c8.66,1.13,17.17,2.86,25.74,3.24c18.46,0.83,36.96,1.47,55.43,1.25c20.48-0.25,40.97-1.18,61.41-2.48
				c29.57-1.89,59.13-4,88.63-6.73c23.36-2.16,46.6-5.61,69.94-8.04c6.16-0.64,8.89-5,11.98-8.81
				c29.4-36.34,54.15-75.86,78.24-115.8c19.61-32.52,39.04-65.14,58.48-97.76c2.27-3.8,4.13-7.85,6.18-11.78
				c3.32-5.36,6.65-10.71,9.97-16.07c0.78-0.18,1.57-0.35,2.35-0.53c-0.34,1.64-0.32,3.48-1.08,4.89
				c-14.51,26.89-28.68,53.98-43.82,80.52c-14.88,26.08-30.76,51.59-46.18,77.36c-2.44,4.07-4.78,8.19-7.42,12.71
				c1.71,0.52,2.6,0.99,3.52,1.04c8.55,0.52,16.94,0.14,24.64-4.38C813.6,707.2,815.62,704.67,816.55,708.31z"/>
			<path class="st1" d="M816.55,708.31c-0.92-3.64-2.95-1.11-4.06-0.46c-7.7,4.52-16.08,4.9-24.64,4.38
				c-0.92-0.06-1.81-0.52-3.52-1.04c2.63-4.52,4.98-8.64,7.42-12.71c15.42-25.77,31.3-51.28,46.18-77.36
				c15.14-26.54,29.31-53.63,43.82-80.52c0.76-1.41,0.74-3.25,1.08-4.89c-0.78,0.18-1.57,0.35-2.35,0.53
				c0.1-0.62,0.21-1.25,0.31-1.87c2.45-1.54,4.89-3.08,7.34-4.62c6.89-5.82,13.78-11.65,20.68-17.48c2.16,0.98,4.32,1.97,6.48,2.95
				c-1.33,2.93-2.67,5.86-4,8.8l0.04,0.04c-5.06,9.37-10.11,18.73-15.17,28.1c-8.24,15.73-16.68,31.36-24.68,47.21
				c-17.8,35.3-35.38,70.72-53.06,106.09C817.9,706.45,817.17,707.35,816.55,708.31z"/>
			<path class="st31" d="M508.17,585.15c0.02-0.16,0.01-0.34,0.08-0.49c1.66-3.5,5.16-7.41,4.49-10.38
				c-0.71-3.12-5.45-5.29-8.34-7.98c-2.39-2.24-4.64-4.63-6.95-6.96c-0.33-1.02-0.67-2.04-1-3.06c6.1,5.42,12.24,10.82,18.26,16.33
				c0.56,0.52,0.9,2.12,0.53,2.68C513.01,578.66,510.55,581.88,508.17,585.15z"/>
			<path class="st64" d="M880.78,534.36c-0.1,0.62-0.21,1.25-0.31,1.87c-3.32,5.36-6.65,10.71-9.97,16.07
				c1.87-4.11,3.75-8.23,5.99-13.15c-2.08,0.94-3.22,1.46-4.36,1.98c0.74-1.61,1.49-3.21,2.23-4.82
				C876.5,535.66,878.64,535.01,880.78,534.36z"/>
			<path class="st11" d="M896.15,552.14c5.06-9.37,10.11-18.73,15.17-28.1c-2.63,5.6-5.06,11.3-7.96,16.76
				C901.27,544.75,898.58,548.38,896.15,552.14z"/>
			<path class="st65" d="M496.46,556.28c0.33,1.02,0.67,2.04,1,3.06c-5.43-6.31-10.85-12.63-16.28-18.94
				c3.09,3.24,6.17,6.49,9.26,9.72c1.34,1.4,2.7,2.76,4.05,4.14C495.15,554.93,495.8,555.6,496.46,556.28z"/>
			<path class="st47" d="M246.42,494.03c9.4-11.9,20.83-22.23,27.26-36.41c3.89-8.57,2.6-13.28-6.22-18.51
				c-2.03,3.96-3.85,8.03-6.17,11.8c-0.89,1.45-2.93,3.17-4.41,3.14c-13.63-0.3-27.3-0.72-39.92-6.87
				c-2.92-1.42-5.67-3.21-8.49-4.83c-0.02-0.29-0.03-0.58-0.03-0.87c-0.92-2.49-1.84-4.98-2.85-7.71
				c12.99-2.36,24.31-7.8,34.86-14.9c6.27-4.22,12.76-7.29,20.56-7.67c13.23-0.65,25.88-4.16,37.85-9.71
				c14.99-6.95,26.68-18.49,38.97-29.13c12.28-10.63,24.45-21.4,36.67-32.11c3.4-2,6.8-4.01,10.2-6.01
				c10.67,4.5,21.2,9.38,32.07,13.34c4.55,1.65,5.14,3.68,4.59,7.96c-5.45,42.54-15.64,83.96-28.96,124.66
				c-2.52,7.71-5.18,15.37-7.78,23.05c-0.5-0.31-1.38-0.97-1.45-0.89c-6.28,6.92-12.49,13.9-18.72,20.88
				c-5.35,4.69-10.38,9.83-16.11,14c-18.16,13.2-37.68,23.46-60.39,26.4c-18.01,2.34-34.9-1.07-50.94-9.37
				c-10.64-5.5-18.95-13.85-27.41-22.05c-1.36-2.36-2.71-4.72-4.16-7.25c1.15-0.61,1.83-1.24,2.58-1.34
				c14.65-2.02,24.71-11.34,34.04-21.63C244.04,499.83,245,496.72,246.42,494.03z"/>
			<path class="st47" d="M154.67,775.88c-2.4-2.19-4.8-4.38-7.21-6.57c-6.04-7.74-11-16.04-14.07-25.86
				c8.3-0.4,16.22-0.53,24.08-1.25c4.94-0.45,9.91-1.43,14.63-2.93c1.89-0.6,3.62-3,4.56-4.98c1.19-2.51-1.3-3.23-2.98-4.65
				c-13.23-11.16-24.9-23.52-30.88-40.35c-7.15-20.09-12.24-40.49-11.34-62.02c0.06-1.51,0.65-3,0.99-4.49
				c0.14,0.05,0.31,0.06,0.43,0.15c0.13,0.1,0.2,0.26,0.3,0.4c-3.43,9.14,2.07,15.03,8.1,20.02c20.08,16.63,43.1,25.43,69.42,23.75
				c5.14-0.33,10.15-2.78,15.22-4.25c-0.12-0.35-0.25-0.71-0.37-1.06c-3.37-0.43-6.73-0.86-10.1-1.29c1.96-0.02,3.95-0.25,5.88-0.03
				c6.21,0.71,11.72-0.56,16.2-5.16c1.75-1.1,3.49-2.19,6.13-3.85c-9.02,0-16.62,0-24.23,0c-26.81-12.61-42.26-35.15-52.49-61.64
				c-2.63-6.81-1.68-15.01-2.37-22.57c0.32,0.37,0.69,0.72,0.96,1.12c16.71,25.52,38.4,44.25,69.18,50.44
				c15.31,3.08,30.38,1.98,45.11-3.25c22.54-8,41.18-22.08,58.1-38.45c9.39-9.08,17.75-19.23,26.57-28.89
				c2.34-2.33,4.67-4.65,7.01-6.98c-6.63,17.01-12.86,34.2-19.98,51c-15.08,35.58-33.61,69.42-53.5,102.5
				c-1.41,2.34-3.52,4.49-5.78,6.04c-38.39,26.25-76.85,52.41-115.34,78.53c-2.31,1.57-4.91,2.7-7.37,4.03
				C164.56,780.85,159.62,778.36,154.67,775.88z"/>
			<path class="st47" d="M163.9,531.4c2.14-8.05,4.28-16.09,6.42-24.14c5.59,13.67,15.2,24.45,25.09,35.04c0.9,1.35,1.54,3,2.73,4
				c6.98,5.82,13.63,12.21,21.26,17.02c12.03,7.57,25.15,12.04,39.84,12.15c18.11,0.14,35.22-3.54,51.5-11.01
				c8.22-3.77,15.87-8.75,23.78-13.19c3.08-1.92,6.48-3.47,9.17-5.84c9.39-8.27,18.54-16.83,27.77-25.27
				c4.04-4.59,8.08-9.17,12.11-13.76c-3.31,9.63-6.62,19.26-9.92,28.89c-4.43,4.64-8.86,9.28-13.3,13.91
				c-7.31,7.23-14.2,14.97-22.04,21.57c-11.91,10.03-24.01,19.98-36.9,28.68c-21.91,14.79-45.86,16.63-70.53,7.7
				c-16.74-6.07-30.34-17.16-43.01-29.24c-9.13-8.71-17.52-18.21-23.6-29.98c0,4.09,0,8.18,0,12.27
				C164.16,550.6,164.03,541,163.9,531.4z"/>
			<path class="st47" d="M347.54,303.56c11.88,9.89,23.77,19.79,35.65,29.68c-1.85,0.27-3.91,0.11-5.53,0.89
				c-14.98,7.16-26.68,18.55-38.25,30.08c-1.61,1.16-3.31,2.22-4.81,3.5c-16.94,14.4-35.3,26.01-57.75,29.69
				c-2.93,0.48-5.8,1.29-9.9,2.22c1.12-1.94,1.36-2.53,1.74-3.01c12.85-15.85,26-31.47,38.48-47.6
				c11.31-14.61,22.41-29.3,36.95-40.96C345.54,306.91,346.41,305.07,347.54,303.56z"/>
			<path class="st66" d="M347.54,303.56c-1.13,1.51-2,3.34-3.42,4.49c-14.54,11.67-25.65,26.35-36.95,40.96
				c-12.48,16.13-25.63,31.75-38.48,47.6c-0.39,0.48-0.63,1.07-1.74,3.01c4.1-0.93,6.98-1.74,9.9-2.22
				c22.46-3.68,40.81-15.29,57.75-29.69c1.51-1.28,3.21-2.34,4.82-3.5c0.9-0.36,1.97-0.52,2.66-1.12c6-5.22,11.72-10.78,17.94-15.71
				c5.39-4.27,11.32-7.86,17.02-11.75c0.2,0.33,0.4,0.66,0.6,0.98c-1.04,1.21-2.08,2.42-3.12,3.63
				c-12.22,10.71-24.38,21.47-36.67,32.11s-23.98,22.18-38.97,29.13c-11.97,5.55-24.62,9.06-37.85,9.71
				c-7.79,0.38-14.28,3.46-20.56,7.67c-10.56,7.1-21.88,12.54-34.86,14.9c1.01,2.73,1.93,5.22,2.85,7.71
				c-6.57-3.45-11.09-8.92-15.94-15.63c21.88,0.18,40.73-5.53,56.1-20.39c15.36-11.94,26.57-27.54,38.01-42.96
				c5.7-7.39,11.4-14.78,17.1-22.16c1-1.08,1.96-2.2,3.01-3.24c10.91-10.8,21.77-21.68,32.85-32.31c1.73-1.66,4.54-2.2,6.84-3.26
				C346.78,302.22,347.16,302.89,347.54,303.56z"/>
			<path class="st11" d="M183.61,500.89c3.08,0.72,6.15,1.42,9.23,2.15c15.43,3.67,28.35-1.43,39.08-12.17
				c6.78-6.79,12.6-14.54,18.77-21.93c1.03-1.23,1.64-2.81,2.9-5.05c-16.15-1.14-32.34,0.7-46.42-7.01
				c-14-7.67-22.64-20.75-30.15-34.48c1.49,0.62,2.98,1.24,4.48,1.85c4.04,6.53,7.55,13.47,12.22,19.51
				c9.87,12.79,23.75,17.23,39.43,17.54c7.59,0.15,15.16,0.92,23.69,1.48c-2.44,4.05-4.15,8.21-6.99,11.32
				c-7.91,8.64-15.31,18.27-24.74,24.88C212.72,507.67,195.08,509.06,183.61,500.89z"/>
			<path class="st11" d="M248.6,405.47c-15.37,14.86-34.21,20.57-56.1,20.39c4.85,6.71,9.37,12.18,15.94,15.63
				c0,0.29,0.01,0.58,0.03,0.87c-1.07-0.27-2.44-0.21-3.16-0.87c-5.16-4.65-10.24-9.4-15.21-14.25c-0.6-0.58-0.41-1.97-0.59-2.98
				c9.66-0.96,19.47-1.18,28.94-3.06c11.62-2.3,20.96-9.46,29.88-16.98C248.41,404.63,248.51,405.05,248.6,405.47z"/>
			<path class="st67" d="M374.5,340.25c1.04-1.21,2.08-2.42,3.12-3.63c-0.2-0.33-0.4-0.66-0.6-0.98
				c-5.69,3.89-11.63,7.48-17.02,11.75c-6.22,4.93-11.94,10.49-17.94,15.71c-0.69,0.6-1.76,0.75-2.66,1.12
				c11.57-11.53,23.27-22.92,38.25-30.08c1.62-0.77,3.68-0.61,5.53-0.89c0.5,0.33,1,0.66,1.5,1
				C381.29,336.25,377.9,338.25,374.5,340.25z"/>
			<path class="st68" d="M346.4,301.55c-2.31,1.06-5.11,1.6-6.84,3.26c-11.08,10.63-21.93,21.5-32.85,32.31
				c-1.05,1.03-2.01,2.15-3.01,3.24c-0.43-0.08-0.87-0.16-1.3-0.24c7.49-8.34,14.7-16.97,22.58-24.93
				c4.97-5.02,10.84-9.17,16.54-13.41C342.6,300.96,344.75,301.58,346.4,301.55z"/>
			<path class="st69" d="M248.6,405.47c-0.09-0.42-0.18-0.84-0.28-1.25c14.33-12.06,25.22-27.13,36.56-41.81
				c0.4-0.51,1.01-0.86,1.52-1.28c0.07,0.46,0.14,0.92,0.2,1.38C275.17,377.92,263.96,393.53,248.6,405.47z"/>
			<path class="st70" d="M383.58,506.41c-4.04,4.59-8.08,9.17-12.11,13.76c-0.69-0.1-1.56-0.53-2.04-0.26
				c-1.73,0.98-3.33,2.2-4.98,3.32c6.22-6.98,12.44-13.95,18.72-20.88c0.07-0.08,0.95,0.58,1.45,0.89
				C384.27,504.3,383.93,505.35,383.58,506.41z"/>
			<path class="st71" d="M360.36,549.21c4.43-4.64,8.86-9.27,13.3-13.91c-0.72,1.98-1.45,3.95-2.17,5.93
				c-2.34,2.33-4.67,4.65-7.01,6.98C363.11,548.54,361.74,548.88,360.36,549.21z"/>
			<path class="st72" d="M286.6,362.51c-0.07-0.46-0.14-0.92-0.2-1.38c5.33-7.01,10.67-14.01,16-21.02c0.43,0.08,0.87,0.16,1.3,0.24
				C298,347.73,292.3,355.12,286.6,362.51z"/>
			<path class="st9" d="M324.51,244.22c0.39-0.02,0.79-0.03,1.18-0.05c3.67,8.67,7.33,17.35,11,26.02c-1.45-2.1-3.29-4.04-4.29-6.34
				C329.59,257.39,327.12,250.78,324.51,244.22z"/>
			<path class="st0" d="M360.36,549.21c1.37-0.33,2.75-0.67,4.12-1c-8.82,9.67-17.18,19.81-26.57,28.89
				c-16.92,16.37-35.56,30.45-58.1,38.45c-14.72,5.23-29.8,6.33-45.11,3.25c-30.78-6.19-52.47-24.92-69.18-50.44
				c-0.27-0.41-0.64-0.75-0.96-1.12c-0.09-2.35-0.18-4.69-0.28-7.04c0-4.09,0-8.18,0-12.27c6.08,11.78,14.47,21.28,23.6,29.98
				c12.67,12.08,26.27,23.18,43.01,29.24c24.67,8.94,48.62,7.1,70.53-7.7c12.89-8.7,24.99-18.65,36.9-28.68
				C346.17,564.18,353.05,556.44,360.36,549.21z"/>
			<path class="st66" d="M215.45,660.49c3.37,0.43,6.73,0.86,10.1,1.29c0.12,0.35,0.25,0.71,0.37,1.06
				c-5.07,1.47-10.08,3.92-15.22,4.25c-26.32,1.68-49.34-7.12-69.42-23.75c-6.03-4.99-11.53-10.88-8.1-20.02
				c6.32,5.58,12.44,11.4,19,16.69c16.84,13.6,37.11,17.46,57.85,19.84C211.84,660.06,213.64,660.28,215.45,660.49z"/>
			<path class="st73" d="M219.42,651.45c7.61,0,15.21,0,24.23,0c-2.63,1.65-4.38,2.75-6.13,3.85c0.44-0.82,0.88-1.63,1.06-1.98
				c-4.77,0-9.62,0.15-14.44-0.09C222.55,653.16,220.99,652.08,219.42,651.45z"/>
			<path class="st74" d="M358.57,268.24c-1.18-1.99-2.36-3.97-3.54-5.96c-0.55-1.26-1.11-2.53-1.66-3.79
				c-0.14-0.81-0.23-1.62-0.43-2.42c-2.4-9.57-5.32-19.04-7.02-28.73c-0.91-5.18,0.29-10.74,0.55-16.12
				c-0.48,19.63,3.7,38.12,13.96,54.99c2.64,4.34,5.96,8.25,8.9,12.41c0.82,1.16,1.41,2.5,2.1,3.75
				C367.14,277.66,362.86,272.95,358.57,268.24z"/>
			<path class="st75" d="M346.46,211.22c-0.25,5.39-1.45,10.94-0.55,16.12c1.69,9.69,4.62,19.16,7.02,28.73
				c0.2,0.79,0.29,1.61,0.43,2.42c-2.78-7.68-6.08-15.21-8.22-23.06c-2.94-10.78-1.43-21.64,1.26-32.33
				c0.07,1.38,0.14,2.77,0.2,4.15C346.56,208.57,346.51,209.89,346.46,211.22z"/>
			<path class="st76" d="M381.41,195.26c-5.51-1.86-6.32-7.36-8.81-11.53c-0.91-1.52-0.94-3.61-1.98-4.97
				c-1.81-2.35-4.64-6.43-6.08-6.06c-3.41,0.88-6.29,3.9-9.29,6.18c-0.74,0.56-1.12,1.59-1.66,2.4c-0.07-0.42-0.13-0.85-0.19-1.27
				c2.69-3.01,5.14-6.3,8.2-8.88c0.99-0.84,4.6-0.49,5.24,0.48C371.94,179.34,376.61,187.34,381.41,195.26z"/>
			<path class="st74" d="M353.39,180.01c0.06,0.42,0.13,0.85,0.19,1.27c-2.33,8.65-4.66,17.31-6.98,25.96
				c-0.07-1.38-0.13-2.77-0.2-4.15C348.73,195.4,351.06,187.7,353.39,180.01z"/>
			<path class="st77" d="M349.39,255.27c-1.66-0.88-3.32-1.76-5.38-2.86c0.2,4.22,0.39,8.14,0.57,12.06
				c-0.35,0.22-0.69,0.43-1.04,0.65c-1.01-0.97-2.02-1.93-3.03-2.9c3.22,1.12,3.17-0.69,2.83-3.01c-0.45-3.05-0.72-6.12-1.06-9.18
				c0.48-0.28,0.97-0.57,1.45-0.85C345.61,251.2,347.5,253.23,349.39,255.27z"/>
			<path class="st78" d="M864.53,469.57c-14.75-8.96-29.48-17.94-44.24-26.88c-2.98-1.81-5.96-3.65-9.1-5.13
				c-1-0.47-2.54,0.2-3.83,0.35c-9.67,10.76-14.78,23.92-19.69,37.21c-4.87,13.18-5.35,26.21,0.85,39.12
				c3.64,9.38,7.28,18.75,10.93,28.12c1.6,0.96,3.27,2.86,4.78,2.74c14.11-1.1,28.19-2.55,42.28-3.89c1.44,0,2.87,0,5.01,0
				c-1.68,8.05-3.26,15.62-4.83,23.2c-1.11-1.07-2.08-2.87-3.34-3.09c-9.6-1.71-19.27-3.08-28.9-4.62
				c-19.26-3.09-38.52-6.22-57.77-9.34c4-26.91,4.61-52.37,8.89-79.24c4.44-27.86,9.5-56.94,14.23-84.75
				c0.11-0.65,3.68-2.96,4.15-4.48c9.64,2.31,19.01,6.15,28.64,8.46c0.71,0.62,1.32,1.6,2.14,1.81c12.02,3.1,24.07,6.12,36.12,9.11
				c8.76,2.17,17.55,4.27,26.29,6.39c-2.8,13.56-5.55,26.5-8.12,39.47c-1.64,8.26-3.01,16.57-4.5,24.85
				C864.73,469.17,864.74,469.36,864.53,469.57z M808.66,401.43c0.08-5.66-2.83-8.8-8.36-9.01c-7.02-0.26-13.56,6.03-13.65,13.16
				c-0.07,5.53,3.78,9.64,9.16,9.77C802.46,415.52,808.55,408.92,808.66,401.43z"/>
			<path class="st29" d="M864.5,468.98c1.49-8.29,2.87-16.59,4.5-24.85c2.57-12.97,5.32-25.91,8.12-39.47
				c-8.74-2.12-17.53-4.22-26.29-6.39c-12.05-2.99-24.1-6.01-36.12-9.11c-0.81-0.21-1.43-1.19-2.14-1.81
				c8.43,1.29,16.9,2.36,25.27,3.91c15.15,2.81,30.24,5.9,45.9,8.98c-1.99,7.32-4.04,14.44-5.86,21.61
				c-3.62,14.31-7.07,28.67-10.74,42.97C866.77,466.34,865.41,467.61,864.5,468.98z"/>
			<path class="st27" d="M846.51,541.22c-14.09,1.35-28.17,2.79-42.28,3.89c-1.51,0.12-3.18-1.78-4.78-2.74
				c-0.14-1.44-0.28-2.88-0.33-3.39c2.14,0.77,4.24,1.53,6.35,2.28c0.75,0.3,1.51,0.61,2.26,0.91c1.22-0.39,2.41-0.95,3.66-1.15
				c23.8-3.82,47.6-7.61,71.41-11.33c1.73-0.27,3.54,0.02,5.32,0.05c-2.45,1.54-4.89,3.08-7.34,4.63c-2.14,0.65-4.28,1.3-6.42,1.95
				c-4.19,0.7-8.37,1.4-12.56,2.09C856.7,539.34,851.61,540.28,846.51,541.22z"/>
			<path class="st79" d="M756.67,547.36c19.26,3.12,38.51,6.25,57.77,9.34c9.63,1.54,19.3,2.91,28.9,4.62
				c1.26,0.22,2.23,2.02,3.34,3.09c-0.91,0.19-1.86,0.66-2.72,0.53c-27.88-4.31-55.74-8.68-83.61-13.01
				C757.65,551.51,755.39,550.91,756.67,547.36z"/>
			<path class="st0" d="M364.45,523.23c1.65-1.13,3.25-2.34,4.98-3.32c0.48-0.27,1.35,0.15,2.04,0.26
				c-9.24,8.45-18.38,17-27.77,25.27c-2.69,2.37-6.09,3.91-9.17,5.84c-2.13,0.89-4.37,1.58-6.36,2.7
				c-15.69,8.81-32.2,15.74-49.96,18.66c-9.21,1.52-18.92,2.12-28.14,1.01c-14.39-1.74-27.03-8.64-38.35-17.65
				c-5.55-4.42-10.87-9.13-16.3-13.7c-9.89-10.59-19.5-21.38-25.09-35.04c0.36-1.93,0.72-3.87,1.16-6.24
				c5.3,3.86,10.2,7.42,15.09,10.98c1.37,1.07,2.6,2.48,4.14,3.15c11.24,4.82,21.96,1.65,32.08-3.23
				c5.63-2.72,10.41-7.2,15.58-10.88l-0.09,0.07c0.11,0.84,0.64,2.1,0.28,2.47c-8.84,8.94-18.41,16.72-31.39,18.8
				c-1.32,0.21-2.53,1.13-4.78,2.18c2.82,3.01,5.01,5.35,7.2,7.69c8.46,8.19,16.78,16.54,27.41,22.05
				c16.04,8.3,32.92,11.71,50.94,9.37c22.71-2.95,42.23-13.21,60.39-26.4C354.07,533.07,359.1,527.93,364.45,523.23z"/>
			<path class="st80" d="M209.6,532.22c-2.19-2.34-4.38-4.68-7.2-7.69c2.25-1.05,3.46-1.97,4.78-2.18
				c12.99-2.08,22.55-9.85,31.39-18.8c0.37-0.37-0.17-1.62-0.28-2.47c2.71-2.35,5.42-4.7,8.13-7.05c-1.43,2.68-2.38,5.79-4.36,7.97
				c-9.33,10.29-19.39,19.61-34.04,21.63c-0.75,0.1-1.43,0.73-2.58,1.34C206.89,527.5,208.24,529.86,209.6,532.22z"/>
			<path class="st80" d="M238.38,501.02c-5.17,3.69-9.95,8.17-15.58,10.88c-10.12,4.88-20.84,8.05-32.08,3.23
				c-1.55-0.66-2.77-2.08-4.14-3.15c16.14,7.8,30.51,2.21,44.51-5.93C233.63,504.57,235.95,502.71,238.38,501.02z"/>
			<path class="st81" d="M425.5,307.28c-27.26-7.84-47.66-24.45-62.27-48.55c-8.95-14.78-12.92-30.85-11.55-47.95
				c0.55-6.94,3.12-13.72,4.77-20.57c0.02,0.37,0.05,0.74,0.07,1.11c-0.29,1.62-0.48,3.27-0.88,4.86
				c-3.04,12.12-3.17,24.29-0.49,36.45c5.65,25.62,20.34,45.26,41.77,59.55c9.38,6.25,20.36,10.11,30.61,15.05
				C426.86,307.25,426.18,307.26,425.5,307.28z"/>
			<path class="st76" d="M425.5,307.28c0.68-0.02,1.36-0.03,2.04-0.05c1.64,0.17,3.28,0.43,4.93,0.49c1.08,0.04,2.17-0.22,3.26-0.34
				c-0.18-1.21-0.01-2.61-0.58-3.59c-12.61-21.84-25.32-43.61-37.95-65.43c-5.97-10.32-11.83-20.7-17.74-31.05
				c0.01-0.68,0.02-1.37,0.02-2.05c5.9,9.78,11.89,19.5,17.67,29.35c10.15,17.3,20.17,34.68,30.25,52.03
				c4.12,7.09,8.26,14.18,12.39,21.27c-0.29,0.6-0.58,1.21-0.87,1.81C434.45,308.91,429.97,308.09,425.5,307.28z"/>
			<path class="st82" d="M434.49,315.34c-3.29-0.09-6.58-0.18-9.86-0.27c-15.16-3.57-29.16-9.58-41.21-19.67
				c0.04-0.4,0.07-0.8,0.11-1.2c9.22,5.14,18.14,10.95,27.75,15.19c6.34,2.8,13.68,3.33,20.56,4.91
				C432.76,314.53,433.61,314.99,434.49,315.34z"/>
			<path class="st83" d="M379.49,205.26c-0.01,0.68-0.02,1.37-0.02,2.05c-2.49-4.04-5.16-7.98-7.44-12.14
				c-2.99-5.46-5.67-11.09-9.11-17.9c-2.5,5.51-4.45,9.78-6.39,14.05c-0.02-0.37-0.05-0.74-0.07-1.11
				c0.76-5.31,2.97-9.89,6.83-14.42c2.01,3.27,3.6,5.87,5.2,8.47c2.34,4.66,4.68,9.33,7.01,13.99
				C376.83,200.58,378.16,202.92,379.49,205.26z"/>
			<path class="st84" d="M383.53,294.21c-0.04,0.4-0.07,0.8-0.11,1.2c-10.27-7.24-19.01-15.88-24.85-27.17
				c4.29,4.71,8.58,9.42,12.86,14.13C375.46,286.32,379.5,290.26,383.53,294.21z"/>
			<path class="st76" d="M375.5,198.25c-2.34-4.66-4.68-9.33-7.01-13.99C374.67,187,374.4,192.97,375.5,198.25z"/>
			<path class="st85" d="M426.36,269.33c0.37-0.02,0.74-0.05,1.11-0.07c2.63,5.01,5.27,10.01,7.9,15.02
				C432.36,279.3,429.36,274.32,426.36,269.33z"/>
			<path class="st86" d="M541.5,366.12c-4.73,0-9.45,0-14.8,0c1.79,8.18,2.63,15.06-2.03,21.2c-0.39-0.02-0.78-0.04-1.17-0.06
				c4.18-6.68,3.2-13.95,1.88-21.43c4.88-0.55,9.26-1.16,13.67-1.46C539.82,364.31,540.68,365.5,541.5,366.12z"/>
			<path class="st18" d="M915.28,515.21c-2.16-0.98-4.32-1.97-6.48-2.95c-9.44-5.97-18.88-11.95-28.32-17.92
				c-4.26-2.78-8.54-5.53-12.78-8.34c-10.41-6.9-20.8-13.83-31.2-20.74c-0.68-1.17-1.11-2.63-2.08-3.46
				c-2.17-1.86-4.6-3.42-6.93-5.1c0.3-0.43,0.61-0.87,0.91-1.3c4.06,1.95,8.12,3.91,12.18,5.86c25.57,16.36,51.14,32.72,76.72,49.08
				C916.62,511.96,915.95,513.59,915.28,515.21z"/>
			<path class="st87" d="M788.53,514.24c-6.21-12.91-5.72-25.94-0.85-39.12c4.91-13.29,10.02-26.45,19.69-37.21
				c1.35,1.54,2.69,3.08,4.04,4.62c-2.47-1.6-3.56-0.42-4.03,2c-2.9,5.92-5.8,11.85-8.69,17.77c-0.66,0.91-1.7,1.72-1.93,2.73
				c-2.49,10.72-4.85,21.47-7.24,32.21c0.29,4.06,0.78,8.12,0.77,12.18C790.26,511.03,789.14,512.64,788.53,514.24z"/>
			<path class="st88" d="M840.57,461.25c-4.06-1.95-8.12-3.91-12.18-5.86c-0.3,0.43-0.61,0.87-0.91,1.3
				c2.33,1.68,4.76,3.24,6.93,5.1c0.97,0.83,1.41,2.29,2.08,3.46c-3.03-2.2-6.06-4.41-9.11-6.59c-3.95-2.82-7.92-5.62-11.88-8.42
				c0.04-2.54-5.56-2.18-3.06-5.97c7.85,4.49,15.72,8.95,23.52,13.5C837.62,458.73,839.04,460.08,840.57,461.25z"/>
			<path class="st89" d="M812.44,444.26c-2.5,3.79,3.1,3.44,3.06,5.97c0.32,0.72,0.63,1.44,0.95,2.16
				c-3.03-2.62-6.06-5.25-9.09-7.87c0.47-2.42,1.56-3.6,4.03-2C811.75,443.11,812.09,443.69,812.44,444.26z"/>
			<path class="st48" d="M669.65,352.84c-3.36-7.02-6.72-14.04-10.34-21.59c1.15-0.81,3.21-2.26,5.28-3.71
				c3.6-3.24,7.19-6.47,10.46-9.41c4.28,6.91,8.76,14.14,13.24,21.37l-0.07-0.09c1.43,1.9,2.86,3.8,4.29,5.7
				c-3.64,1.41-6.93,2.69-10.21,3.96l0.07-0.1c-2.45,1.53-5.19,2.75-7.29,4.67C672.6,355.9,671.05,355.96,669.65,352.84z"/>
			<path class="st90" d="M688.29,339.5c-4.48-7.23-8.96-14.46-13.24-21.37c-3.27,2.94-6.86,6.17-10.46,9.41
				c2.27-2.99,4.53-5.97,7.35-9.69c-2.46,0.99-4.09,1.65-5.71,2.3c4.53-5,9.07-9.99,13.91-15.33c1.48,15.48,8.15,28.29,18.54,39.29
				c-2.92-2.71-6.67-4.93-8.6-8.23c-4.79-8.18-8.75-16.84-13.26-25.75c-0.11,1.17-0.79,2.82-0.28,3.94
				c3.41,7.49,7.08,14.86,10.63,22.29C687.64,337.36,687.92,338.46,688.29,339.5z"/>
			<path class="st91" d="M659.41,343.43c-4.64-4.88-9.29-9.76-13.85-14.55c2.97-0.52,6.9-1.21,10.83-1.91
				c-2.28,1.33-4.56,2.66-6.55,3.82C654.12,333.91,658.13,337.6,659.41,343.43z"/>
			<path class="st92" d="M669.65,352.84c1.4,3.12,2.95,3.06,5.42,0.8c2.1-1.92,4.83-3.14,7.29-4.67c-3.74,2.84-7.48,5.68-11.22,8.52
				c0.12,0.59,0.25,1.17,0.37,1.76C670.89,357.11,670.27,354.98,669.65,352.84z"/>
			<path class="st90" d="M682.29,349.07c3.28-1.27,6.57-2.55,10.21-3.96c-1.43-1.9-2.86-3.8-4.29-5.7c2.4,2.02,4.79,4.05,8.19,6.91
				C690.73,347.43,686.51,348.25,682.29,349.07z"/>
			<path class="st90" d="M698.58,344.05c1.59,0.68,3.17,1.36,6.15,2.64c-6.71,1.79-11.98,3.19-17.25,4.59
				c3.98-1.69,7.96-3.39,12.03-5.12C699.37,345.81,698.98,344.93,698.58,344.05z"/>
			<path class="st92" d="M680.29,358.05c-3.24,3.14-6.48,6.27-9.71,9.41c4.78-4.68,9.56-9.36,14.34-14.04
				C683.38,354.96,681.84,356.5,680.29,358.05z"/>
			<path class="st93" d="M470.49,510.26c-1,1-2,2-3,3c-1.6-3.58-4.47-6.88-1.57-11.8C467.45,504.4,468.97,507.33,470.49,510.26z"/>
			<path class="st5" d="M583.41,392.71c-2.22-1.86-4.44-3.71-6.66-5.57c-6.38-9.77-8.52-20.14-3.82-31.18
				c1.33-3.13,3.66-5.84,5.54-8.74c1.07,0.64,2.14,1.27,3.21,1.91c3.64,0.94,7.29,1.88,10.93,2.82c0.64,0.93,1.16,1.97,1.93,2.78
				c6.62,7.01,8.68,14.81,4.31,23.81c-0.57,1.17-0.91,2.45-1.35,3.68c-3.89,2.73-7.77,5.46-11.66,8.19
				C585.03,391.19,584.22,391.95,583.41,392.71z"/>
			<path class="st48" d="M585.84,390.43c3.89-2.73,7.77-5.46,11.66-8.19c8.37-8.41,5.87-23.88-4.9-30.28
				c-3.64-0.94-7.29-1.88-10.93-2.82c2.67-2.26,5.34-4.53,8.01-6.79c4.63-0.21,9.26-0.43,13.89-0.64c0.85,0.15,1.69,0.31,2.54,0.46
				c0.85,1.34,1.4,3.06,2.59,3.97c14.21,10.87,13.32,36.65-6.19,46.16c-2.09,0.21-4.19,0.58-6.28,0.58
				C592.59,392.86,588.62,394.1,585.84,390.43z"/>
			<path class="st94" d="M603.56,341.69c-4.63,0.21-9.26,0.43-13.89,0.64c-0.4-0.75-0.81-1.49-1.21-2.24
				C593.73,338.43,598.91,337.56,603.56,341.69z"/>
			<path class="st95" d="M585.84,390.43c2.78,3.67,6.75,2.43,10.37,2.43c2.09,0,4.19-0.37,6.28-0.58c-2.35,0.86-4.7,1.71-7.05,2.57
				c0.02,0.15,0.04,0.3,0.06,0.45c2.99-0.35,5.98-0.7,8.98-1.04c-5.87,3.6-15.53,2.89-21.07-1.54
				C584.22,391.95,585.03,391.19,585.84,390.43z"/>
			<path class="st0" d="M544.49,509.13c10.17,7.13,20.03,14.77,30.58,21.27c13.79,8.49,28.37,15.49,44.35,19.06
				c1.94,1.57,3.87,3.13,5.81,4.7c-4.12,9.59-10.53,12.48-20.45,7.93c-8.1-3.72-16.78-6.16-24.91-9.81
				c-8-3.59-15.64-7.98-23.43-12.02c-0.25-0.7-0.29-1.65-0.78-2.05c-5.03-4.07-10.24-7.91-15.13-12.13c-1.2-1.03-1.42-3.19-2.1-4.83
				C540.46,517.21,542.48,513.17,544.49,509.13z"/>
			<path class="st96" d="M601.31,572.14c-1.31,1.26-2.62,2.52-3.94,3.78c-8,1.53-15.82,0.93-23.25-2.5
				c-6.27-2.9-12.42-6.07-18.62-9.11c-8.22-5.94-14.89-13.35-19.6-22.26c-1.07-2.02-0.19-5.49,0.69-7.97
				c0.73-2.07,2.33-2.17,4.6-0.41c6.73,5.21,13.88,9.88,20.87,14.75c6.78,3.64,13.55,7.27,20.33,10.91
				c7.14,2.93,14.28,5.85,21.43,8.78C603,569.42,602.15,570.78,601.31,572.14z"/>
			<path class="st97" d="M520.44,509.29c-1.29-4.41-2.57-8.81-3.86-13.22c-0.87-2.89-1.73-5.77-2.79-9.29
				c1.84-0.18,3.21-0.31,4.58-0.44c3.8,3.72,7.7,7.34,11.38,11.17c3.3,3.44,6.36,7.12,9.52,10.69c-3.76,6.89-9.41,13.37-4.66,22.06
				c-0.43,0.61-0.86,1.22-1.28,1.83c-1.39-1.47-3.21-2.73-4.1-4.46C526.12,521.6,523.34,515.41,520.44,509.29z"/>
			<path class="st7" d="M534.61,530.25c-4.75-8.69,0.9-15.17,4.66-22.06c0.41-0.98,0.82-1.96,1.23-2.94c1.15-0.09,3.1-0.59,3.3-0.19
				c0.6,1.16,0.51,2.69,0.69,4.07c-2.02,4.04-4.03,8.08-6.05,12.12c-0.31,2-0.61,3.99-0.92,5.99
				C536.55,528.24,535.58,529.25,534.61,530.25z"/>
			<path class="st98" d="M555.5,564.3c6.2,3.05,12.35,6.22,18.62,9.11c7.43,3.43,15.24,4.03,23.25,2.5
				c-0.29,0.78-0.59,1.56-0.88,2.34l0,0c-14.13,0.99-26.61-3.69-38.26-11.17C557.17,566.4,556.41,565.24,555.5,564.3z"/>
			<path class="st99" d="M537.53,527.24c0.31-2,0.61-3.99,0.92-5.99c0.67,1.64,0.9,3.8,2.1,4.83c4.89,4.22,10.1,8.07,15.13,12.13
				c0.49,0.4,0.53,1.35,0.78,2.05c-3.26-2.12-6.57-4.17-9.78-6.38C543.57,531.75,540.57,529.46,537.53,527.24z"/>
			<path class="st100" d="M601.31,572.14c0.85-1.36,1.69-2.72,2.51-4.03c-7.15-2.93-14.29-5.86-21.43-8.78
				c1.04-0.02,2.07-0.04,3.11-0.06c5.08,1.85,10.19,3.63,15.22,5.61c1.68,0.66,3.16,1.82,4.73,2.75
				C604.07,569.12,602.69,570.63,601.31,572.14z"/>
			<path class="st101" d="M520.44,509.29c2.9,6.13,5.68,12.31,8.78,18.34c0.89,1.73,2.71,2.99,4.1,4.46
				c-0.61,0.72-1.22,1.44-1.82,2.16C527.81,525.92,524.13,517.61,520.44,509.29z"/>
			<path class="st93" d="M585.5,559.26c-1.04,0.02-2.07,0.04-3.11,0.06c-6.78-3.64-13.55-7.27-20.33-10.91
				c2.71,1.08,5.48,2.02,8.11,3.26C575.32,554.12,580.39,556.72,585.5,559.26z"/>
			<path class="st11" d="M598.5,534.27c5.68,2.66,11.35,5.31,17.03,7.97C609.11,541.15,602.69,540.1,598.5,534.27z"/>
			<g>
				<path class="st102" d="M598.68,539.41c-8.76-4.46-17.5-8.98-26.09-13.76c-6.13-3.4-12-7.27-17.98-10.93
					c0.22-0.52,0.44-1.03,0.66-1.54c3.08,1.02,6.15,2.05,9.23,3.07c-2.06-1.68-4.16-3.32-6.13-5.07c-0.35-0.3-0.68-0.62-1.01-0.94
					c0.33,0.32,0.66,0.63,1,0.93c1.99,1.76,4.09,3.39,6.14,5.08c2.33,1.33,4.67,2.67,7,4c0.76-0.05,1.53-0.1,2.3-0.15
					c-6.44-4.28-12.87-8.56-19.3-12.84c0,0,0.01,0.01,0.01,0.01c-4.89-3.41-9.78-6.81-14.67-10.22c-0.78-0.26-1.55-0.53-2.33-0.79
					c-0.78,0.82-1.56,1.64-2.36,2.49c1.81,2.2,3.59,4.35,5.37,6.51c1.15-0.09,3.09-0.59,3.3-0.19c0.6,1.16,0.51,2.69,0.69,4.07
					c10.17,7.13,20.02,14.77,30.58,21.27c13.78,8.49,28.37,15.49,44.35,19.06C612.51,546.12,605.53,542.9,598.68,539.41z"/>
				<path class="st102" d="M537.49,496.27c-5.36-3.66-10.73-7.33-16.09-10.99c-1.01,0.35-2.02,0.71-3.03,1.06
					c3.81,3.71,7.7,7.33,11.38,11.17c3.3,3.44,6.36,7.12,9.52,10.69c0.41-0.98,0.82-1.96,1.23-2.94c-1.78-2.16-3.55-4.31-5.37-6.5
					C535.93,497.91,536.71,497.09,537.49,496.27z"/>
			</g>
			<path class="st103" d="M596.39,174.3c0.37-0.01,0.74-0.03,1.11-0.04c1.77,4.89,3.53,9.78,5.3,14.67
				c0.34-0.06,0.68-0.13,1.02-0.19c0.21-3.16,0.42-6.31,0.63-9.47c0.4,1.6,0.79,3.2,1.19,4.8c0.3,2.23,1,4.5,0.79,6.69
				c-0.29,2.97-1.27,5.87-1.96,8.8c-0.45-0.06-0.9-0.12-1.35-0.18c-0.53-1.04-1.06-2.09-1.59-3.13
				C599.81,188.93,598.1,181.61,596.39,174.3z"/>
			<path class="st104" d="M539.47,277.28c-7.42-1.57-12.97-6.06-17.69-11.66c-1.69-2-1.69-4.05,1.78-4.28
				c0.35,1.52,0.17,3.67,1.13,4.47C529.46,269.83,534.52,273.49,539.47,277.28z"/>
			<path class="st105" d="M616.48,244.17c-10.73,5-28.91,2.18-37.26-5.56c-1.54-1.43-3.77-2.11-6.11-3.36
				c-0.16,0.41,0.11-0.29,0.39-0.99c1.34-0.66,2.67-1.33,4.01-1.99c0.14,1.1-0.11,2.53,0.49,3.25c5.45,6.58,12.77,9.47,21.1,9.57
				C604.88,245.15,610.68,244.5,616.48,244.17z"/>
			<path class="st46" d="M807.37,444.53c3.03,2.62,6.06,5.25,9.09,7.87c0.95,0.91,1.8,1.96,2.87,2.71
				c11.44,8.01,22.72,16.25,34.43,23.84c8.61,5.58,17.79,10.29,26.71,15.39c9.44,5.97,18.88,11.95,28.32,17.92
				c-6.89,5.83-13.78,11.66-20.67,17.48c-1.77-0.03-3.59-0.32-5.31-0.05c-23.81,3.72-47.61,7.52-71.41,11.33
				c-1.25,0.2-2.44,0.76-3.67,1.15c-4.86-11.58-10.49-22.93-14.28-34.85c-2.01-6.31-1.79-13.76-0.89-20.47
				c1.12-8.31,3.99-16.38,6.11-24.55C801.57,456.38,804.47,450.45,807.37,444.53z"/>
			<path class="st106" d="M195.41,542.3c5.42,4.58,10.74,9.29,16.3,13.7c11.33,9.01,23.96,15.91,38.35,17.65
				c9.22,1.12,18.93,0.51,28.14-1.01c17.76-2.93,34.26-9.85,49.96-18.66c2-1.12,4.24-1.81,6.36-2.7
				c-7.91,4.44-15.57,9.42-23.78,13.19c-16.27,7.47-33.39,11.14-51.5,11.01c-14.7-0.11-27.81-4.58-39.84-12.15
				c-7.64-4.81-14.28-11.21-21.26-17.02C196.95,545.3,196.31,543.65,195.41,542.3z"/>
			<path class="st107" d="M808.66,401.43c-0.1,7.49-6.19,14.09-12.84,13.92c-5.39-0.13-9.23-4.24-9.16-9.77
				c0.09-7.12,6.62-13.42,13.65-13.16C805.82,392.63,808.73,395.77,808.66,401.43z M805.51,402.67c0.09-4.74-2.12-7.16-6.71-7.34
				c-3.58-0.14-8.21,4.22-8.3,7.81c-0.11,4.66,2.73,8.04,6.83,8.12C802.21,411.36,805.4,408,805.51,402.67z"/>
			<path class="st108" d="M788.53,514.24c0.61-1.61,1.74-3.21,1.74-4.82c0.01-4.06-0.48-8.12-0.77-12.18
				c0.31,0.73,0.86,1.46,0.9,2.21c0.77,15.48,8.16,28.56,15.07,41.81c-2.1-0.76-4.21-1.51-6.35-2.28c0.05,0.51,0.19,1.95,0.33,3.39
				C795.81,532.99,792.17,523.62,788.53,514.24z"/>
			<path class="st109" d="M805.47,541.26c-6.92-13.25-14.3-26.33-15.07-41.81c-0.04-0.75-0.59-1.47-0.9-2.21
				c2.4-10.74,4.76-21.49,7.24-32.21c0.23-1,1.27-1.82,1.93-2.73c-2.12,8.17-4.99,16.24-6.11,24.55c-0.9,6.71-1.13,14.16,0.89,20.47
				c3.8,11.92,9.42,23.27,14.28,34.85C806.98,541.87,806.23,541.56,805.47,541.26z"/>
			<path class="st45" d="M354.87,188.96c2.05-4.47,4.09-8.94,6.74-14.7c3.63,7.13,6.46,13.02,9.61,18.73
				c2.41,4.35,5.21,8.48,7.85,12.71c6.24,10.83,12.42,21.71,18.72,32.5c13.34,22.84,26.75,45.62,40.04,68.48
				c0.6,1.03,0.42,2.49,0.61,3.76c-1.15,0.13-2.3,0.4-3.44,0.36c-1.74-0.06-3.47-0.32-5.2-0.51c-10.81-5.17-22.4-9.21-32.3-15.75
				c-22.61-14.94-38.11-35.5-44.07-62.32c-2.83-12.73-2.69-25.47,0.52-38.15C354.37,192.39,354.57,190.67,354.87,188.96z"/>
			<path class="st110" d="M880.47,494.34c-8.93-5.1-18.1-9.81-26.71-15.39c-11.71-7.59-22.99-15.83-34.43-23.84
				c-1.07-0.75-1.92-1.8-2.87-2.71c-0.32-0.72-0.63-1.44-0.95-2.16c3.96,2.81,7.93,5.6,11.88,8.42c3.05,2.18,6.07,4.39,9.11,6.59
				c10.4,6.92,20.79,13.84,31.2,20.74C871.93,488.81,876.21,491.56,880.47,494.34z"/>
			<path class="st111" d="M592.6,351.96c10.77,6.4,13.27,21.87,4.9,30.28c0.44-1.23,0.78-2.51,1.35-3.68
				c4.36-9,2.31-16.8-4.31-23.81C593.76,353.93,593.24,352.89,592.6,351.96z"/>
			<path class="st112" d="M806.08,402.55c-0.11,6.24-3.55,10.17-8.8,10.05c-4.41-0.11-7.47-4.05-7.35-9.49
				c0.1-4.19,5.08-9.29,8.93-9.13C803.79,394.19,806.18,397.01,806.08,402.55z"/>
		</g>
	</g>
	<g id="Layer_2_00000117639044846144542100000013991364057376978359_">
	</g>
	<path class="st2" d="M594.31,168.63l8.69,37.52l4.51-4.96c0,0-1.34-8.33-1.08-10.43s-4.9-17.08-5.47-18.56
		c-0.56-1.48-6.66-13.82-6.66-13.82V168.63z"/>
</g>
<g id="Layer_2">
	<path class="st32" d="M516.85,483.05l22.42,23.08l26.3,18.03l27.73,14.09l18.5,1.74c0,0-22.94-11.83-23.54-11.83
		c-0.61,0-34.7-20.81-34.7-20.81l-20.22-15.51l-9.57-9.25l2.57-4.57l-4.97,1.52L516.85,483.05z"/>
	<path class="st32" d="M536.6,520.1c0,0,3.57,6.85,3.9,7.16s15.98,12.98,15.96,13s-21.31-13.7-21.31-13.7L536.6,520.1z"/>
	<path class="st32" d="M513.79,502.89l12.53,29.93c0,0,4.75,12.01,5.17,12.13s4.55-0.36,3.92-1.61c-0.63-1.25-3.67-10.16-4.87-11.25
		s-15.15-35.04-15.15-35.04l-3.89-8.34L513.79,502.89z"/>
	<path class="st32" d="M631.25,552.57c0.58,0.82,58.89,11.63,58.89,11.63l12.77-0.76l3.42-4.79l-2.6-7.33l-4.02,6.44
		c0,0-10.78-0.49-13.2-0.51s-36.72-4.67-36.72-4.67H631.25z"/>
	<path class="st32" d="M605.45,563.44c0,0,6.01,2.27,7.52,2.26c1.51,0,8.87-3.43,8.62-4.04s7.12-11.8,7.12-11.8l1.3,4.28
		l-7.57,14.43l-7.47,1.6l-7.97-1.65l-5.96-5.08H605.45z"/>
	<path class="st32" d="M553.14,563.44l18.35,8.74c0,0,7.26,3.44,10.9,4.13s17.76,0,17.76,0s1.88,4.94-3.65,9.27
		s-39.61,11.49-39.61,11.49l-3.75-3.84c0,0,32.49-8.45,34.71-9.46c2.22-1.01-10.38-3.81-14.07-5.39
		c-3.69-1.58-20.64-10.46-20.64-10.46V563.44z"/>
	<polygon class="st32" points="791.9,484.53 791.9,499.95 804.28,534.18 807.73,543.34 801.49,543.34 788.53,506.48 786.65,490.72 	
		"/>
	<polygon class="st32" points="811.8,542.24 888.12,529.74 876.43,535.69 835.21,540.26 	"/>
</g>
</svg>
