<?xml version="1.0" encoding="utf-8"?>
<!-- Generator: Adobe Illustrator 25.4.1, SVG Export Plug-In . SVG Version: 6.00 Build 0)  -->
<svg version="1.1" id="Layer_1" xmlns="http://www.w3.org/2000/svg" xmlns:xlink="http://www.w3.org/1999/xlink" x="0px" y="0px"
	 viewBox="0 0 1920 1080" style="enable-background:new 0 0 1920 1080;" xml:space="preserve">
<style type="text/css">
	.st0{fill:#FEFEFE;}
	.st1{fill:#113186;}
	.st2{fill:#D1E6F9;}
	.st3{fill:#CDE4F9;}
	.st4{fill:#0B2C82;}
	.st5{fill:#123186;}
	.st6{fill:#133386;}
	.st7{fill:#1C3B8B;}
	.st8{fill:#193789;}
	.st9{fill:#163588;}
	.st10{fill:#5A70AB;}
	.st11{fill:#5B73AC;}
	.st12{fill:#E2E9F4;}
	.st13{fill:#24428F;}
	.st14{fill:#F0F6FD;}
	.st15{fill:#0B2E81;}
	.st16{fill:#E8BD56;}
	.st17{fill:#E7EAA8;}
	.st18{fill:#FEFDFD;}
	.st19{fill:#E7EAA9;}
	.st20{fill:#CFE6F9;}
	.st21{fill:#123286;}
	.st22{fill:#FDFEFD;}
	.st23{fill:#0F2F84;}
	.st24{fill:#103085;}
	.st25{fill:#F7F9FB;}
	.st26{fill:#FCFAF6;}
	.st27{fill:#1B3A8B;}
	.st28{fill:#163688;}
	.st29{fill:#FCFCFA;}
	.st30{fill:#26438E;}
	.st31{fill:#405B9F;}
	.st32{fill:#CDE2F7;}
	.st33{fill:#274490;}
	.st34{fill:#1A388A;}
	.st35{fill:#1E3C8C;}
	.st36{fill:#254591;}
	.st37{fill:#1A3A8B;}
	.st38{fill:#203D8D;}
	.st39{fill:#133387;}
	.st40{fill:#294793;}
	.st41{fill:#183789;}
	.st42{fill:#2D4994;}
	.st43{fill:#F9F8F1;}
	.st44{fill:#133286;}
	.st45{fill:#8A806D;}
	.st46{fill:#4877A9;}
	.st47{fill:#CEE4F9;}
	.st48{fill:#FEFEFD;}
	.st49{fill:#FBFCFA;}
	.st50{fill:#FBFBFB;}
	.st51{fill:#254290;}
	.st52{fill:#213E8D;}
	.st53{fill:#244189;}
	.st54{fill:#4C638F;}
	.st55{fill:#173688;}
	.st56{fill:#2F4B90;}
	.st57{fill:#1B3A8A;}
	.st58{fill:#173687;}
	.st59{fill:#193887;}
	.st60{fill:#E4E7A9;}
	.st61{fill:#143387;}
	.st62{fill:#ECF1F9;}
	.st63{fill:#FAFBFC;}
	.st64{fill:#314D96;}
	.st65{fill:#4E66A4;}
	.st66{fill:#213F8D;}
	.st67{fill:#6176AE;}
	.st68{fill:#F8F8E9;}
	.st69{fill:#507FAD;}
	.st70{fill:#345298;}
	.st71{fill:#39569A;}
	.st72{fill:#25438F;}
	.st73{fill:#24418F;}
	.st74{fill:#E8E2D2;}
	.st75{fill:#F6F5EF;}
	.st76{fill:#E9F0F8;}
	.st77{fill:#FBFCFD;}
	.st78{fill:#FDFDFD;}
	.st79{fill:#FDFDFB;}
	.st80{fill:#143487;}
	.st81{fill:#143488;}
	.st82{fill:#1A398B;}
	.st83{fill:#C7DFF5;}
	.st84{fill:#C6DDF4;}
	.st85{fill:#FDFDF9;}
	.st86{fill:#FBFBF3;}
	.st87{fill:#FAFAEE;}
	.st88{fill:#F8F9E7;}
	.st89{fill:#F8F8E6;}
	.st90{fill:#FAFBF0;}
	.st91{fill:#EFF1C6;}
	.st92{fill:#FCFCF6;}
	.st93{fill:#F7F8E2;}
	.st94{fill:#FDFDFA;}
	.st95{fill:#657AB0;}
	.st96{fill:#1F3D8C;}
	.st97{fill:#546BA7;}
</style>
<g>
	<polygon class="st0" points="415.92,973.84 659.45,929.14 565.29,862.71 521.37,783.13 533.19,462.22 586.36,482.26 626.23,488.54 
		690.4,456.23 736.71,363.86 735.1,338.36 738.28,330.05 533.61,399.96 524,372.18 454.3,363.95 240.54,378.95 350.21,511.53 
		372.39,549.21 426.14,837.2 	"/>
	<path class="st1" d="M378.52,553.22c1.39,9.41,2.58,18.85,4.22,28.22c3.76,21.53,7.67,43.03,11.67,64.52
		c1.02,5.47,1.78,10.83,3.11,16.25c0.14,2.13,0.95,4.3,1.29,6.4c1.18,7.17,2.5,14.32,3.76,21.48c-0.62-0.94-1.24-1.88-1.87-2.81
		c-0.37,0.09-0.74,0.19-1.12,0.28c9.04,47.07,18.08,94.15,27.12,141.22c0.28-0.05,0.56-0.11,0.84-0.16c0-2.85,0-5.7,0-8.55
		c0.98,5.71,1.96,11.42,2.95,17.13c-0.36,0.71-1.01,1.4-1.04,2.12c-0.95,22.12-1.88,44.24-2.69,66.36c-0.1,2.87,0.47,5.77,0.73,8.65
		l0.01-0.09c-0.47,5.43-1.06,10.85-1.36,16.3c-0.15,2.65,0.25,5.34,0.4,8.01c0.24,0.22,0.24,0.44,0,0.65
		c-0.38,1.52-1.05,3.04-1.08,4.57c-0.13,7.81-0.1,15.62-0.12,23.43c0.11,6.21-0.83,6.94-9.41,6.64c0.51-6.39,1.02-12.77,1.52-19.14
		c0.08-1,0.11-2,0.14-3c0.27-9.38,0.39-18.77,0.85-28.14c0.52-10.58,1.43-21.15,2.02-31.73c0.22-3.96-0.16-7.96-0.01-11.93
		c0.23-6.08,0.68-12.14,1.05-18.22c1.96-12.51,0.85-24.94-1.58-37.21c-6.08-30.71-12.41-61.38-18.73-92.05
		c-3.12-15.14-6.44-30.25-9.67-45.37c0,0,0.07,0.1,0.07,0.1c-0.75-4.25-1.43-8.52-2.27-12.75c-2.26-11.35-4.6-22.68-6.9-34.02
		c-3.33-16.73-6.67-33.46-10-50.19c-1.63-10.16-3.27-20.33-4.9-30.49l0.18-0.25c0,0-0.19-0.24-0.19-0.24
		c-0.35-2.37-0.7-4.75-1.05-7.12c-0.32-0.54-0.57-1.5-0.97-1.56c-9.08-1.47-18.17-2.85-27.27-4.24
		c-20.32-3.33-39.96-8.66-57.74-19.51c-2.64-1.61-5.38-3.07-8.07-4.6c-8.97-7.12-17.35-14.79-22.98-24.98
		c-1.53-3.76-3.65-7.41-4.46-11.32c-1.18-5.68-4.8-8.6-9.57-10.78c-0.31-0.3-0.61-0.61-0.92-0.91c-4.71-5.06-9.74-9.87-13.99-15.29
		c-2.07-2.64-3.37-6.34-3.79-9.72c-0.74-5.91-0.84-11.95-0.69-17.92c0.48-18.91,1.19-37.81,1.81-56.48c2.44-0.7,4.02-1.15,5.59-1.6
		c14.23-0.88,28.47-1.75,42.7-2.66c11.43-0.74,22.86-1.54,34.29-2.31c22.07-1.48,44.14-2.94,66.2-4.43
		c22.59-1.52,45.19-3.05,67.78-4.6c3.65-0.25,7.31-0.97,10.94-0.82c5.11,0.21,5.72-2.16,5.07-6.47
		c-3.25-21.41-6.27-42.85-9.45-64.26c-9.42-63.42-18.89-126.84-28.28-190.27c-0.56-3.79-1.87-7.96,3.33-11.74
		c1.28,4.1,2.4,7.69,3.52,11.28c0.97,6.09,1.93,12.18,2.9,18.27c0.31,2.67,0.63,5.34,0.94,8c0.66,2.69,1.31,5.38,1.97,8.07
		c1.04,6.38,2.05,12.77,3.14,19.15c2.99,17.48,6.01,34.96,9.03,52.44c0.28,1.54,0.55,3.07,0.83,4.6c0.38,2.28,0.76,4.57,1.15,6.85
		c2.67,16.26,5.34,32.52,8.01,48.78c0.03,0.71,0.05,1.42,0.08,2.12c0.7,3.34,1.4,6.68,2.1,10.01c2.56,13.91,5.11,27.82,7.67,41.73
		c-0.29,1.03-0.98,2.14-0.81,3.09c0.89,4.7,2.01,9.35,3.05,14.02c0.98,7.3,1.96,14.6,2.93,21.9c0.43,2.69-0.07,6.32,1.49,7.86
		c2.81,2.79,6.86,4.33,10.4,6.39c2.01,1.01,4.02,2.03,6.04,3.04c0.57,0.57,1.05,1.45,1.73,1.66c12.9,4.07,25.95,4.46,39.02,1.04
		c1.26-0.33,3.16-2.94,2.85-3.78c-1.52-4.12-3.68-8-5.62-11.97c-1.99-5-3.97-10-5.96-15c1.32-0.33,2.64-0.67,3.96-1
		c-0.38,5.05,4.27,5.07,7,7c0,1.33,0,2.66,0,3.99c-3.52,1.3-1.47,3.34-0.4,4.81c1.6,2.22,3.61,4.15,5.45,6.2
		c1.96,4.48,3.91,8.95,5.87,13.43c0.97,2.43,1.94,4.85,2.91,7.28c0.39,1.42,0.79,2.84,1.18,4.26c0.19,4.25,1.77,5.41,6.05,3.65
		c6.08-2.52,12.48-4.25,18.7-6.46c4.46-1.59,8.84-3.41,13.25-5.13c4.19-1.38,8.37-2.77,12.56-4.15c5.85-1.48,11.79-2.67,17.51-4.55
		c4.19-1.37,4.46-3.26,1.23-6.44c-3.48-3.42-7.3-6.49-10.92-9.66c0.84-1.92,1.66-3.8,2.48-5.68c0.2-0.22,0.41-0.44,0.61-0.65
		c7.5-3.95,15-7.89,22.5-11.84c2.57-1.54,1.58-2.5-0.57-3.1c-13.12-3.62-26.39-5.9-40.07-4.25c-3.93,0.47-7.87,0.84-11.8,1.25
		c-0.06-0.41-0.13-0.82-0.19-1.22c0.55-0.25,1.09-0.5,1.64-0.75c4.34-0.62,8.68-1.23,13.03-1.85c4.67-0.71,9.34-1.42,14.02-2.13
		c14.66-9.34,29.37-18.6,43.94-28.08c2.94-1.91,5.36-4.63,8.02-6.97l-0.01,0.03c6.81-3.76,13.62-7.52,21.11-11.65
		c0,5.76,0,10.97,0,16.19c-0.99,6.83-1.99,13.65-2.98,20.48c-3.47,6.46-3.41,14.13-7.38,20.63c-1.06,1.73-0.76,4.02-3.9,4.46
		c6.29-17.9,10.48-36,10.95-56.07c-3.82,3.42-6.33,5.67-8.85,7.92c-10.63,6.67-21.27,13.33-31.9,20
		c-5.43,3.46-10.88,6.89-16.27,10.41c-0.42,0.28-0.46,1.14-0.67,1.74c-3.21,3.53,1.13,2.02,1.92,2.88c3.33,1.07,6.66,2.14,9.99,3.2
		c3.92,1.79,7.84,3.58,11.76,5.36c0.07,0.52,0.14,1.04,0.2,1.56c-14.6,0.02-23.25,10.37-33.56,18.2c3.65,2.51,7.72,4.57,10.8,7.63
		c3.68,3.64,6.94,3.9,10.85,0.96c1.16-0.35,2.33-0.7,3.49-1.05c10.2-1.23,20.17-3,26.48-11.53c1.57,2.62,4.11,3.03,6.88,2.17
		c5.36-1.67,10.64-3.59,15.95-5.39c13.55-4.6,27.1-9.21,40.66-13.79c7.48-2.53,14.98-5,22.37-7.46c5.86,11.21,2.68,59.09-2.11,66.25
		c-0.53-3.59-1.16-7.85-1.78-12.1c0.94-8.75,2.41-17.5,2.66-26.27c0.18-6.5-1.23-13.04-1.94-19.57c-2.51,0.97-5.01,1.94-7.52,2.91
		c-4.62,1.35-9.24,2.71-13.86,4.06c-8.43,2.68-16.85,5.36-25.28,8.04c0,0,0.08-0.05,0.08-0.05c-1.15,0.04-2.38-0.16-3.44,0.17
		c-8.82,2.78-17.62,5.64-26.4,8.56c-0.82,0.27-1.44,1.11-2.16,1.68c-4.63,1.52-9.26,3.05-13.89,4.57c-4.76,1.25-9.59,2.3-14.28,3.79
		c-27.69,8.82-55.34,17.72-82.99,26.66c-3.07,0.99-6,2.41-9.04,3.65c-2.86-7.19-5.29-13.9-8.26-20.36
		c-0.75-1.62-3.72-3.81-4.84-3.41c-10.79,3.86-21.81,3.31-32.89,2.47c-1.07-0.3-2.14-0.64-3.22-0.9c-10.09-2.42-19.73-5.68-26.72-14
		c-0.04-3.59-0.47-4.2-5.08-3.94c-15.43,0.86-30.85,2-46.29,2.93c-28.53,1.71-57.07,3.34-85.6,5.03c-6.24,0.37-12.48,0.89-18.72,1.3
		c-18.65,1.24-37.31,2.32-55.94,3.76c-6.16,0.48-12.25,1.87-18.37,2.84c-2.78,0.08-5.54,0.19-3.9,4.29
		c-0.02,1.33-0.02,2.66-0.06,3.98c-0.67,20.24-1.48,40.48-1.86,60.73c-0.06,3,1.88,6.05,2.9,9.07c0.85,0.72,1.7,1.44,2.54,2.17
		c0.71,0.97,1.43,1.95,2.14,2.92c6.05,5.1,12.09,10.21,18.14,15.31c30.49,19.41,63.17,31.64,99.93,30.52
		c9.37,0.7,17.34-3.35,25.46-7.93c-0.14,1.62-0.23,2.72-0.32,3.82c-2.3,1.56-4.4,3.95-6.93,4.52c-9.33,2.11-18.79,5.09-28.2,5.08
		c-26.74-0.02-52.24-6.3-76.13-18.64c-2.25-1.16-4.65-2.01-6.98-3c-0.44,0.43-0.89,0.86-1.33,1.29c1.85,2.69,3.69,5.39,5.54,8.08
		c1.22,1.55,2.25,3.3,3.68,4.62c11.42,10.52,23.99,19.31,38.39,25.32c7.28,2.64,14.37,6.18,21.87,7.71
		c13.07,2.66,26.39,4.09,39.6,6.03c5.53,0.3,11.06,0.53,16.57,0.99c0.52,0.04,0.93,1.5,1.39,2.3
		C381.39,549.29,379.96,551.26,378.52,553.22z"/>
	<path class="st2" d="M230.01,458.38c-0.85-0.72-1.7-1.44-2.54-2.17c0.64-0.8,1.76-1.56,1.84-2.41c0.79-8.23,1.23-16.5,2.11-24.72
		c1.3-12.16,2.87-24.28,4.31-36.42c0.54-4.55,2.96-6.79,7.63-6.46c0.99,0.07,2.01,0.01,2.98-0.17c26.44-5.13,53.26-5.83,80.05-6.82
		c-1.68,0.5-3.35,1.01-5.03,1.51c-0.32,1.09-0.7,2.32-1.05,3.55c-0.27,0.98-0.5,1.97-0.75,2.95c0.89,0.07,1.8,0.06,2.67,0.22
		c6.27,1.15,8.18-3.48,11.08-8.23c-2.79,0-4.86,0-6.94,0c7.85-0.66,15.7-1.38,23.57-1.96c10.24-0.76,20.49-1.28,30.72-2.12
		c18.47-1.51,36.92-3.18,56.71-4.9c-1.57,1.85-2.1,2.48-2.75,3.25c1.67,1.32,3.21,2.54,4.75,3.76c0,0,0,0,0,0
		c1.31,2.05,0.46,3.16-1.68,3.29c-4.12,0.26-8.52,1.34-12.32,0.31c-9.95-2.7-19.82-1.54-29.63-0.31c-4.92,0.62-9.61,3.06-14.4,4.68
		c-2.98,1.67-5.97,3.34-8.95,5.01c-0.99,0.51-2.27,0.79-2.93,1.58c-9.9,11.77-14.35,24.57-7.08,39.44c3,5.67,6,11.34,9,17.01
		c3.66,4.34,7.33,8.69,10.99,13.03c2.32,2.33,4.65,4.65,6.97,6.98c4.34,4.68,8.69,9.35,13.03,14.03
		c6.82,7.6,11.66,16.34,14.95,25.97c1,6.17,2.37,12.39-1.93,18c0.2-2.91,0.39-5.82,0.59-8.73c-0.55-0.06-1.1-0.13-1.65-0.19
		c-0.96,1.96-1.93,3.91-2.89,5.87c-0.47,0.1-0.93,0.2-1.4,0.3c-0.63-1.97-1.38-3.91-1.84-5.91c-0.36-1.57,0.05-3.42-0.61-4.8
		c-3.34-7.05-6.63-14.15-10.47-20.92c-4.67-8.24-9.66-16.46-21.31-15.04c-0.71,7.02,6.61,14.38-1.3,20.79
		c-0.94,0.59-1.88,1.18-2.82,1.78c-1.78-1-3.57-2-6.24-3.51c-16.54,2.94-58.25-1.56-76.52-8.94c2.27-1.12,3.86-1.91,5.45-2.7
		c0.72,0.64,1.35,1.68,2.17,1.87c9.31,2.11,18.64,4.18,28.02,5.95c1,0.19,2.98-1.43,3.44-2.62c0.74-1.91,0.36-4.23,0.89-6.26
		c0.38-1.43,1.16-3.38,2.31-3.89c7.94-3.58,8.84-7.76,7.96-15.4c-3.62,8.47-9.35,12.49-18.82,9.76c0.81-1.88,1.75-3.46,2.11-5.16
		c0.19-0.91-0.57-2.88-1.03-2.92c-7.09-0.62-14.2-0.97-21.3-1.46c-2.82-0.2-5.63-0.62-8.98-0.99c1.95-3.49,3.37-6.04,5.13-9.2
		c-1.43-0.59-2.76-1.15-4.09-1.7c0.29-0.49,0.59-0.98,0.88-1.47c3.2-0.64,6.37-1.48,9.6-1.89c7.66-0.97,15.34-1.83,23.03-2.55
		c3.37-0.32,3.64-1.52,2.57-4.55c-2.32-6.52-3.78-13.36-6.3-19.78c-1.24-3.15-3.63-6.2-6.25-8.39c-5.59-4.65-11.6-8.82-17.6-12.94
		c-1.32-0.91-3.59-1.51-5-1.02c-8.42,2.9-16.77,6.05-25.03,9.38c-2.36,0.95-5.89,2.52-6.22,4.3c-0.94,5.07-2.15,11.11-0.26,15.48
		c3.5,8.09,9.12,15.25,14.01,23.03c3.72,0,7.52,0,11.33,0c0.11,0.51,0.22,1.01,0.34,1.52c-2.04,0.64-4.08,1.79-6.13,1.82
		c-3.95,0.05-7.95-0.27-11.83-0.99c-1.63-0.3-3.67-1.68-4.37-3.13c-1.46-3.03-2.67-5.33-6.76-5.07c-1.16,0.07-2.89-2.45-3.66-4.11
		c-1.3-2.81-1.98-5.91-3.05-8.84c-1.18-3.24-3.83-6.59-3.46-9.6c0.52-4.29-1.15-4.85-5.06-4.73c1.36-10.64,2.67-20.84,3.99-31.08
		c-7.86-0.33-9.46,0.61-10.4,8.3c-2.27,18.53-4.15,37.1-6.07,55.67c-0.16,1.51,0.6,3.11,0.93,4.67
		C230.93,456.94,230.47,457.66,230.01,458.38z M343.22,395.02c8.02-8,15.88-14.58,26.32-17.38c-7.21-0.06-14.29,0.17-21.34,0.76
		c-1.01,0.08-2.45,1.71-2.7,2.85C344.57,385.42,344.06,389.68,343.22,395.02z"/>
	<path class="st1" d="M750.97,859.09c-0.57,1.2-1.14,2.41-1.71,3.61c-6.41,12.58-14.5,23.9-25.07,33.37c0,0,0.1-0.08,0.1-0.08
		c-0.88,0.44-1.76,0.88-2.64,1.32c-0.78,0.2-1.76,0.17-2.31,0.64c-13.4,11.41-29.04,18.59-45.47,24.34
		c-1.34,0.47-2.33,1.93-3.48,2.93c-1.07,2.92-6.03,4.49-9.65,3.15c-22.08-8.23-41.69-20.86-60.91-34.19
		c-2.12-1.47-4.49-2.57-6.74-3.84c-9.27-7.94-18.54-15.89-27.81-23.83c-3.4-3.72-6.81-7.44-10.18-11.19
		c-0.26-0.28-0.24-0.82-0.38-1.35c1.34,0.44,2.49,0.83,4.91,1.63c-3.21-6.42-7.9-9.51-12.94-12.31c0.91,1.26,1.82,2.51,2.73,3.77
		c-0.29,0.23-0.58,0.46-0.87,0.69c-4.9-5.69-9.8-11.38-13.91-16.15c-0.23-2.96-0.38-4.86-0.52-6.59c5.2,5.63,10.41,11.41,15.8,17.02
		c1.28,1.33,3.16,2.07,4.77,3.09c2.26,2.28,4.53,4.57,6.79,6.85c1.96,2.62,3.91,5.24,5.9,7.9c-1.01-0.27-2.23-0.59-4.29-1.15
		c2.28,2.16,3.81,3.62,5.36,5.08c1.32,1.24,3.46,3.76,3.86,3.51c4.41-2.77,5.31,2.26,7.91,3.27c1.18,0.46,2.31,1.03,3.46,1.54
		c10.27,7.33,20.27,15.05,30.86,21.88c11.44,7.37,23.26,14.18,35.26,20.6c3.35,1.79,8.02,2.26,11.89,1.77
		c32.01-3.99,54.75-22.18,72.27-48.09c1.59-2.16,3.18-4.31,5.71-7.76c-14.08,3.22-26.46,3.15-38.57-1.36
		c-1.39-0.77-2.78-1.53-3.19-1.76c6.49-6.96,13-13.97,19.52-20.97c1.57-2.21,3.13-4.41,4.98-7.01c-1.35-0.2-1.86-0.43-2.28-0.32
		c-15.96,4.25-30.78,1.33-44.74-7.05c-2.37-3.21-4.74-6.42-7.11-9.63c-1.2-3.52-2.57-6.99-3.51-10.58
		c-0.32-1.22,0.46-2.73,0.74-4.11c0.41,0.11,0.83,0.21,1.24,0.32c0,0.78-0.3,2.06,0.05,2.27c4.63,2.8,9.12,6,14.1,7.99
		c5.96,2.38,12.34,3.76,18.43-0.22c1.8-0.91,3.6-1.82,5.41-2.73c2.88-1.69,5.76-3.39,8.64-5.08c2.77-2.45,6.63-4.38,8.1-7.46
		c4.42-9.26,7.91-18.96,11.76-28.49c6.3-17.11,10.45-34.69,12.48-53.33c-3.12,0.71-5.35,1.29-7.61,1.72
		c-19.04,3.63-36.57-3.5-44.82-18.2c-2.21-11.32-5.11-22.57-6.38-34c-0.87-7.86-3.17-16.54,3.39-23.58c0.95-0.3,1.89-0.6,2.84-0.9
		c0.54,1.54,1.75,3.2,1.49,4.59c-1.1,5.94,0.31,10.29,6.16,12.94c7.81,3.55,15.62,7.15,23.17,11.2c3.92,2.11,7.08,1.94,10.38-0.72
		c7.22-2.32,14.44-4.64,21.66-6.96c4.51-0.31,8.44-1.79,12.2-5.96c-14.26-4.51-26.06-11.77-36.75-20.92
		c-0.04-0.33-0.07-0.65-0.07-0.98c2.33,0.67,4.65,1.34,6.98,2.02c10.15,9.39,21.99,15.58,35.37,19.03c3.37,0.87,6.5,2.69,9.74,4.08
		c-1.01,0.84-1.93,1.84-3.05,2.51c-14.75,8.76-30.61,14.44-47.5,17.47c-9.9,1.77-18.78-0.36-27.19-5.48
		c-2.45-1.5-4.98-2.86-7.47-4.29c-0.54,0.26-1.08,0.53-1.62,0.79c1.58,7.34,1.64,15.52,5.07,21.86
		c7.56,13.98,19.07,17.88,33.2,14.06c6.99-1.88,14.04-3.51,21.62-5.39c0,3,0.27,5.32-0.04,7.55c-3.65,26.6-8.75,52.88-17.93,78.21
		c-3.6,9.94-8.33,19.21-16.38,26.4c0,0,0.11-0.08,0.11-0.08c-3.9,2.12-7.8,4.23-11.69,6.34c-9.12,1.81-18.26,3.15-27.59-0.07
		c-0.39,0.79-0.77,1.59-1.16,2.38c1.63,1.07,3.13,2.47,4.9,3.14c6,2.26,11.95,5.16,18.19,6.13c7.96,1.24,16.13,0.65,23.44-3.75
		c2.27-0.58,4.53-1.17,6.8-1.75c0.28,2.51,1.43,5.34,0.66,7.47c-1.48,4.1-3.58,8.18-6.28,11.6c-3.34,4.22-7.54,7.75-11.37,11.58
		c0,0,0.1-0.08,0.1-0.08c-1.8,1.18-3.6,2.35-6.29,4.1c14.79,2.82,27.68-1.99,41.67-3.75C752.55,854.51,751.76,856.8,750.97,859.09z"
		/>
	<path class="st3" d="M727.58,341.27c2.51-0.97,5.01-1.94,7.52-2.91c0.15,4.81,0.25,9.62,0.45,14.42
		c0.5,12.47-2.41,24.45-5.21,36.45c-1,1.12-2.32,2.1-2.94,3.4c-1.81,3.8-3.35,7.73-5,11.6c-5.36,8.7-10.03,17.93-16.25,25.95
		c-6.65,8.59-14.66,16.14-22.29,23.95c-3.29,3.37-7.26,2.86-11.6,0.74c1.81-3.07,3.43-5.82,5.05-8.57c-4.6,0.73-8.79,1.4-12.98,2.06
		c-0.33-0.65-0.67-1.3-1-1.95c2.56-2.74,5.13-5.48,7.89-8.42c-1.34,0.1-2.44,0.17-3.53,0.25c0.89-0.99,1.79-1.98,2.68-2.97
		c6.47-3.2,10.25-8.73,13.09-15.08c2.64-4.99,5.28-9.97,7.92-14.96c4.07-7.18,3.99-14.86,3.22-23.69
		c-6.35,2.01-11.95,3.78-17.56,5.55c-3.21,0.72-6.43,1.44-9.64,2.16c-2.89-1.61-5.78-3.22-8.81-4.91c0.85-1.48,1.69-2.94,2.68-4.68
		c-2.63-0.38-4.82-0.41-6.82-1.05c-2.34-0.74-2.88-2.57-0.65-3.97c4.83-3.04,9.56-6.66,14.86-8.48c18.37-6.29,37-11.81,55.46-17.85
		c3.58-1.17,6.82-3.37,10.21-5.09c-1-0.66-1.99-1.31-2.99-1.97C730.11,341.26,728.85,341.26,727.58,341.27z"/>
	<path class="st4" d="M520.41,685.29c-0.32-6.06-0.84-12.12-0.88-18.18c-0.03-4.73,0.55-9.47,0.86-14.2
		c0.72-10.97,1.52-21.94,2.15-32.92c0.4-6.87,0.42-13.76,0.89-20.62c0.51-7.48,1.4-14.94,2.02-22.42c0.46-5.54,0.8-11.1,1.1-16.66
		c0.35-6.54,0.39-13.11,0.94-19.63c0.51-6.14,1.51-12.25,2.3-18.37c0.54-0.98,1.43-1.91,1.55-2.93c1.07-8.86,1.88-17.75,3.01-26.59
		c0.75-5.88,2.86-11.76,2.56-17.55c-0.23-4.35-0.41-8.06,2.4-11.68c1.93,0.86,3.89,1.74,6.73,3.02c-2.04,0.72-3.13,1.1-3.34,1.17
		c0.62,2.27,1.47,4.22,1.62,6.22c0.27,3.81,0.14,7.66,0.18,11.49c-0.38,5.46-0.66,10.94-1.15,16.39
		c-1.68,18.71-3.42,37.41-5.15,56.11c-1.89,20.36-4.58,40.69-5.51,61.09c-1.69,37.07-2.6,74.18-3.3,111.29
		c-0.5,26.29-0.11,52.59-0.11,78.89c-0.52,3.47-1.04,6.95-1.57,10.42c-0.44-0.04-0.88-0.08-1.32-0.12c0-1.78-0.04-3.57,0.01-5.35
		c0.32-13.29,0.85-26.57,0.93-39.86c0.07-11.88-0.68-23.78-0.5-35.66c0.26-17.76,1.06-35.51,1.51-53.27c0.05-1.99-0.67-4-1.04-6
		c-0.97,5.29-1.67,10.39-1.86,15.5c-0.47,13.12-0.82,26.24-1.02,39.36c-0.41,26.28-0.7,52.57-1.02,78.85c-0.06,4.66,0,9.33-0.02,14
		c-0.01,1.32-0.11,2.64-0.17,3.95c-0.61-0.01-1.21-0.03-1.82-0.04c0-15.95,0.11-31.91-0.03-47.86c-0.24-27.28-0.64-54.57-0.95-81.85
		C520.35,695.95,520.41,690.62,520.41,685.29z"/>
	<path class="st2" d="M378.52,553.22c1.44-1.96,2.87-3.93,4.31-5.89c1.54-1.03,3.07-2.06,4.61-3.1c-0.25-0.44-0.49-0.88-0.74-1.33
		c-1.09-0.07-2.18-0.1-3.27-0.21c-15.21-1.52-30.46-2.79-45.63-4.69c-7.63-0.96-15.11-3.08-22.66-4.67c-2.7-0.97-5.39-1.93-8.09-2.9
		c1.13-0.21,2.26-0.41,3.25-0.59c-6.74-3.6-13.74-6.45-19.72-10.75c-7.58-5.44-14.6-11.66-20.56-19.09
		c-2.53-3.15-7.01-4.73-10.6-7.03c-0.26,0.38-0.52,0.76-0.78,1.14c0.9,2.08,1.79,4.16,2.69,6.24c-1.85-2.69-3.69-5.39-5.54-8.08
		c0.44-0.43,0.89-0.86,1.33-1.29c2.33,0.99,4.74,1.84,6.98,3c23.88,12.34,49.39,18.62,76.13,18.64c9.41,0.01,18.87-2.97,28.2-5.08
		c2.52-0.57,4.63-2.97,6.93-4.52c0.6-0.29,1.21-0.58,1.81-0.87c0.9-1.28,1.73-2.61,2.71-3.82c1.54-1.9,3.19-3.72,5.32-6.18
		c1.2,5.42,3.26,9.54-1.82,12.73c-2.27,1.43-3.9,3.88-6.42,6.48c6.23,5.26,11.84,9.98,17.45,14.71c-0.09,0.49-0.18,0.98-0.28,1.46
		c-2.94,0.58-5.92,1.02-8.82,1.77c-2.77,0.72-5.45,1.76-7.86,2.56c5.81,8.18,13.95,7.99,23.35,8.41c-3.39,2.68-5.6,4.43-7.79,6.16
		c2.16-0.11,4.24-0.21,6.32-0.31C392.41,548.49,385.47,550.86,378.52,553.22z"/>
	<path class="st1" d="M544.49,485.44c-0.04-3.83,0.1-7.67-0.18-11.49c-0.14-2-1-3.95-1.62-6.22c0.21-0.07,1.3-0.46,3.34-1.17
		c-2.85-1.27-4.8-2.15-6.73-3.02c-2.81,3.63-2.63,7.33-2.4,11.68c0.3,5.79-1.81,11.67-2.56,17.55c-1.13,8.85-1.94,17.74-3.01,26.59
		c-0.12,1.03-1.02,1.96-1.55,2.93c0.49-6.8,0.91-13.6,1.5-20.39c0.33-3.87,1.23-7.71,1.37-11.59c0.34-9.36,0.38-18.74,0.54-28.11
		c-0.68-0.86-1.6-1.63-1.99-2.61c-0.59-1.49-0.81-3.12-1.18-4.69c1.62,0.13,3.33-0.02,4.83,0.46c1.93,0.62,3.7,1.75,5.54,2.67
		c6.33,3.73,12.66,7.46,19,11.19c0.33,0.37,0.67,0.75,1,1.12c12.74,6.88,26.61,9.78,40.82,10.72c16.9,1.12,33.73,0.04,50.07-5
		c14.17-4.37,27.43-10.56,39.12-19.84c5.31-5.06,10.63-10.11,15.94-15.17c5.33-7.9,10.74-15.75,15.89-23.76
		c0.81-1.26,0.46-3.28,0.64-4.95c0.33-0.64,0.65-1.29,0.98-1.93c0.91-0.76,2.31-1.34,2.64-2.3c2.74-7.94,5.28-15.94,7.88-23.93
		c0.63,4.25,1.25,8.51,1.78,12.1c4.79-7.16,7.97-55.04,2.11-66.25c-7.39,2.46-14.89,4.94-22.37,7.46
		c-13.56,4.58-27.11,9.19-40.66,13.79c-5.31,1.8-10.59,3.72-15.95,5.39c-2.77,0.86-5.31,0.45-6.88-2.17
		c-6.31,8.53-16.28,10.3-26.48,11.54c5.66-1.91,11.47-3.5,16.93-5.88c2.63-1.15,5.42-3.35,6.76-5.82
		c8.68-15.97,13.39-33.24,15.83-51.18c0.48-3.5,0.79-7.01,1.36-12.08c-2.74,2.01-4.13,3.03-5.52,4.05c-0.56,0.1-1.13,0.21-1.69,0.31
		l-0.28-0.3c2.52-2.25,5.03-4.5,8.85-7.92c-0.47,20.07-4.66,38.17-10.95,56.07c3.14-0.44,2.84-2.73,3.9-4.46
		c3.97-6.5,3.91-14.17,7.38-20.63c-3.1,12.12-6.21,24.24-9.37,36.62c26.61-8.87,53.52-17.85,80.59-26.88
		c0.55,1.39,1.13,2.27,1.23,3.2c0.67,6.46,1.67,12.92,1.76,19.39c0.64,45.82-11.14,86.28-50.34,114.65
		c-1.38,0.67-2.77,1.35-4.15,2.02c-1.97,1.76-3.94,3.51-5.9,5.27c-2.33,0.85-4.66,1.7-6.99,2.55c-0.69,0.35-1.37,0.71-2.06,1.06
		c-15.15,6.12-30.53,11.06-47.03,12.44c-27.13,2.27-52.66-2.41-76.5-15.74c-1.25-0.7-2.55-1.33-3.74-1.95
		C545.47,475.94,544.98,480.69,544.49,485.44z"/>
	<path class="st1" d="M691.39,405.24c-2.64,4.99-5.28,9.97-7.92,14.96c-4.36,5.03-8.73,10.06-13.09,15.08
		c-0.89,0.99-1.79,1.98-2.68,2.97c-1.43,1.07-2.85,2.13-4.28,3.2c-5.77,3.2-11.55,6.41-17.32,9.61c-0.83,0.08-1.66,0.16-2.49,0.24
		c-7.72,1.46-15.38,3.46-23.16,4.21c-6.62,0.64-13.37-0.14-20.06-0.29c-12.85-2.02-25.39-4.93-36.48-12.24
		c-3.53-2.33-7.21-4.43-10.83-6.63c-1.54-1.4-3.2-2.68-4.58-4.22c-2.59-2.87-2.35-5.22,1.59-6.61c0.9-0.32,1.76-0.77,2.64-1.16
		c0.92-0.25,1.83-0.51,2.75-0.76c3.93-0.79,7.95-1.28,11.77-2.44c12.75-3.85,25.42-7.93,38.13-11.93
		c7.34-2.32,14.69-4.63,22.02-6.98c3.22-1.03,6.39-2.19,9.6-3.23c10.13-3.27,20.27-6.51,30.41-9.76c3.21-0.72,6.43-1.44,9.64-2.16
		c5.49-1.09,10.98-2.18,17.26-3.43C693.27,391.38,692.33,398.31,691.39,405.24z M560.33,432.02c1.6,1.87,1.94,2.47,2.44,2.8
		c1.66,1.1,3.31,2.25,5.09,3.13c18.25,9.13,37.48,12.08,57.51,8.17c23.05-4.49,42.45-15.03,55.12-35.62
		c3.69-6,6.61-12.43,7.05-20.93C644.78,403.84,603.06,417.76,560.33,432.02z"/>
	<path class="st0" d="M727.58,341.27c1.26-0.01,2.53-0.01,3.79-0.02c-21.55,7-43.11,14-64.66,21.01
		c-27.56,8.97-55.13,17.92-82.68,26.93c-14.17,4.64-28.31,9.38-42.45,14.13c-1.84,0.62-3.58,1.55-6.71,2.93
		c-3.7-8.03-7.49-16.25-11.34-24.59c-14.95,3.79-30.02,3.68-44.99-0.55c-7.64-2.16-14.23-6.12-19.86-11.86
		c-1.57-1.6-4.55-2.7-6.82-2.6c-14.4,0.64-28.79,1.64-43.17,2.59c-13.52,0.89-27.03,1.87-40.95,2.84c1.96,2.53,9.87,1.66,24.57-0.48
		c8.45-1.23,17.17-0.6,25.76-0.94c8.51-0.33,17-0.82,25.51-1.24c0.11,0.61,0.22,1.22,0.33,1.82c-1.79,0.73-3.59,1.47-5.46,2.23
		c0.28,1.14,0.6,2.46,0.92,3.77c-1.54-1.22-3.09-2.44-4.75-3.76c0.65-0.77,1.18-1.39,2.75-3.25c-19.79,1.72-38.24,3.39-56.71,4.9
		c-10.23,0.84-20.49,1.36-30.72,2.12c-7.86,0.58-15.71,1.3-23.57,1.96l0.01,0c-26.79,0.99-53.61,1.69-80.05,6.82
		c-0.97,0.19-1.99,0.24-2.98,0.17c-4.67-0.32-7.09,1.92-7.63,6.46c-1.44,12.14-3.02,24.27-4.31,36.42
		c-0.88,8.22-1.32,16.49-2.11,24.72c-0.08,0.85-1.2,1.61-1.84,2.41c-1.02-3.02-2.95-6.07-2.9-9.07c0.38-20.25,1.19-40.49,1.86-60.73
		c0.04-1.33,0.04-2.65,0.06-3.98c2.02-1.08,3.93-2.63,6.09-3.13c2.54-0.59,5.3-0.18,7.95-0.35c56.61-3.65,113.22-7.29,169.83-11
		c11.1-0.73,22.18-1.72,33.27-2.58c1.82,0.01,3.68,0.29,5.45-0.03c5.12-0.91,8.82,0.56,12.69,4.39
		c7.13,7.05,16.17,10.84,26.31,11.63c11.07,2.8,22.11,2.09,33-0.75c3.17-0.83,4.49-0.15,5.62,2.76c2.15,5.59,4.79,10.99,6.91,16.59
		c1.19,3.15,2.53,3.87,5.91,2.7c19.34-6.65,38.77-13.03,58.18-19.48c14.97-4.98,29.96-9.92,44.94-14.87
		c4.63-1.52,9.26-3.05,13.89-4.57c10.67-3.47,21.33-6.95,32-10.42c0,0-0.08,0.05-0.08,0.05c8.43-2.68,16.85-5.36,25.28-8.04
		C718.34,343.98,722.96,342.62,727.58,341.27z"/>
	<path class="st3" d="M399.35,546.12c-2.08,0.1-4.16,0.2-6.32,0.31c2.18-1.72,4.4-3.48,7.79-6.16c-9.39-0.42-17.54-0.23-23.35-8.41
		c2.41-0.8,5.09-1.84,7.86-2.56c2.9-0.75,5.87-1.2,8.82-1.77c0.09-0.49,0.18-0.98,0.28-1.46c-5.61-4.73-11.22-9.46-17.45-14.71
		c2.51-2.6,4.14-5.06,6.42-6.48c5.08-3.19,3.02-7.3,1.82-12.73c-2.12,2.45-3.77,4.27-5.32,6.18c-0.98,1.21-1.81,2.55-2.71,3.82
		c0.44-1.78,0.89-3.56,1.52-6.09c-2.05,0.75-3.11,1.14-4.17,1.53c7.91-6.42,0.59-13.78,1.3-20.8c11.64-1.42,16.64,6.81,21.31,15.04
		c3.84,6.78,7.13,13.87,10.47,20.92c0.65,1.38,0.24,3.23,0.61,4.8c0.46,2.01,1.21,3.94,1.84,5.91c0.47-0.1,0.93-0.2,1.4-0.3
		c0.96-1.96,1.93-3.91,2.89-5.87c0.55,0.06,1.1,0.13,1.65,0.19c-0.2,2.91-0.39,5.82-0.59,8.73c-0.69,1.99-1.39,3.98-2.08,5.97
		C408.66,536.84,404.01,541.48,399.35,546.12z"/>
	<path class="st0" d="M424.44,430.24c-1.03-1.72-2.07-3.44-3.1-5.15c0.08-2.74-0.1-5.53,0.35-8.21c0.18-1.04,1.78-1.85,2.73-2.76
		c8.51,2.03,15.17-1.87,21.13-7.09c4.06-3.56,7.98-7.51,7.95-13.61c1.61,0.52,3.83,0.55,4.73,1.65c2.95,3.58,5.42,7.55,8.07,11.37
		c0.92,9.68-3.41,17.2-9.83,23.87c-1.73,1.79-3.43,3.61-5.14,5.42c-0.96,0.36-1.92,0.73-2.88,1.09c-4.88,0.12-9.76,0.24-14.64,0.36
		c-2.46-1.56-4.92-3.11-7.37-4.67C425.78,431.75,425.11,430.99,424.44,430.24z"/>
	<path class="st5" d="M520.41,685.29c0,5.33-0.06,10.66,0,16c0.31,27.28,0.71,54.57,0.95,81.85c0.14,15.95,0.03,31.91,0.03,47.86
		c0.61,0.01,1.21,0.03,1.82,0.04c0.06-1.32,0.17-2.63,0.17-3.95c0.02-4.67-0.04-9.33,0.02-14c0.32-26.28,0.61-52.57,1.02-78.85
		c0.2-13.12,0.55-26.24,1.02-39.36c0.18-5.11,0.89-10.21,1.86-15.5c0.36,2,1.09,4.01,1.04,6c-0.45,17.76-1.24,35.51-1.51,53.27
		c-0.18,11.88,0.57,23.77,0.5,35.66c-0.08,13.29-0.61,26.57-0.93,39.86c-0.04,1.78-0.01,3.57-0.01,5.35
		c0.44,0.04,0.88,0.08,1.32,0.12c0.52-3.47,1.04-6.95,1.57-10.42c-0.46,6.11,2.43,10.65,6.47,14.91
		c6.48,6.85,12.66,13.97,18.97,20.98c-1.6-1.01-3.49-1.76-4.77-3.09c-5.39-5.61-10.61-11.39-15.8-17.02
		c0.14,1.74,0.29,3.63,0.52,6.59c4.11,4.77,9.01,10.46,13.91,16.15c0.29-0.23,0.58-0.46,0.87-0.69c-0.91-1.26-1.82-2.51-2.73-3.77
		c5.04,2.8,9.73,5.89,12.94,12.31c-2.42-0.8-3.57-1.18-4.91-1.63c0.14,0.53,0.12,1.06,0.38,1.35c3.37,3.75,6.78,7.46,10.18,11.19
		c-11.32-11.32-22.64-22.65-34.13-34.15c-0.34,2.26-0.76,5.01-1.17,7.76c-6.47-1.73-9.59-5.24-9.3-12.09
		c0.25-5.92-0.72-11.9-1.14-17.85c-0.01-0.31-0.01-0.63-0.02-0.94c-0.02-33.86-0.04-67.72-0.07-101.58c0-3.48-0.08-6.96-0.12-10.44
		C519.69,693.25,520.05,689.27,520.41,685.29z"/>
	<path class="st6" d="M422.39,115.22c-0.97-6.09-1.93-12.18-2.9-18.27c8.68,20.95,17.36,41.9,26.04,62.85
		c0.06,0.98-0.11,2.06,0.23,2.94c9.26,24.67,18.46,49.36,27.9,73.96c4.5,11.71,9.38,23.28,14.25,34.85
		c3.35,7.95,6.98,15.79,10.48,23.67c0.38,2.1,0.43,4.32,1.2,6.25c1,2.51-0.13,2.78-2.08,2.72c-1.41-2.99-2.81-5.98-4.22-8.98
		c-6.25-14.68-12.51-29.36-18.76-44.03c-1.7-4.32-3.4-8.64-5.1-12.96c-2.35-5.96-4.69-11.92-7.04-17.88
		c-4.64-12.04-9.28-24.08-13.92-36.11c-1.98-5.38-3.97-10.76-5.95-16.13c-0.59-1.63-1.18-3.25-1.77-4.88
		c-0.09-1.72,0.21-3.58-0.33-5.14c-4.32-12.42-8.69-24.82-13.35-37.12C426.23,118.77,423.98,117.12,422.39,115.22z"/>
	<path class="st0" d="M663.42,441.45c1.43-1.07,2.85-2.13,4.28-3.2c1.09-0.08,2.19-0.16,3.53-0.25c-2.76,2.95-5.32,5.68-7.89,8.42
		c0.33,0.65,0.66,1.3,1,1.95c4.19-0.67,8.38-1.33,12.98-2.06c-1.62,2.76-3.24,5.5-5.05,8.57c4.34,2.11,8.31,2.63,11.6-0.74
		c7.62-7.81,15.63-15.36,22.29-23.95c6.22-8.03,10.9-17.26,16.25-25.95c0.99,0.33,1.98,0.66,2.96,0.98
		c-0.5,1.74-1.01,3.47-1.51,5.21c-0.33,0.64-0.65,1.29-0.98,1.93c-0.14-0.23-0.33-0.29-0.58-0.17c-3.98,6.33-7.96,12.66-11.95,18.99
		c-3.62,4.75-7.24,9.5-10.87,14.25c-3.74,3.57-7.48,7.14-11.22,10.71c-0.72,0.42-1.46,0.79-2.15,1.26
		c-38.09,25.78-78.74,28.73-121.44,13.66c-1.35-0.48-2.86-0.48-4.29-0.7c-0.33-0.37-0.67-0.75-1-1.12c2.92,0.47,6.04,0.43,8.73,1.48
		c19.96,7.81,40.6,8.88,61.61,6.62c16.37-1.76,31.69-6.7,46.18-15.06c-0.31-1.17-0.31-3-0.92-3.23c-6.8-2.56-3.53-6.36-0.9-10.58
		c-4.38,0-8.27,0-12.31,0c0.27-1.92,0.44-3.08,0.6-4.24C662.74,443.29,663.08,442.37,663.42,441.45z"/>
	<path class="st0" d="M426.53,939.2c0.25-0.22,0.25-0.44,0-0.66c0.32-8.1,0.65-16.2,0.97-24.3c0,0-0.01,0.09-0.01,0.09
		c0.54-10.1,1.22-20.2,1.59-30.3c0.58-15.61,0.95-31.22,1.41-46.83c-0.98-5.71-1.96-11.42-2.95-17.13c0,0,0.02,0.1,0.02,0.1
		c-1.69-8.77-3.38-17.54-5.08-26.31c-1.04-6.04-1.97-12.11-3.15-18.12c-3.87-19.87-7.83-39.72-11.75-59.58
		c-1.7-8.7-3.4-17.4-5.09-26.1l0.06,0.03c-1.26-7.16-2.58-14.31-3.76-21.48c-0.35-2.1-0.31-4.26-0.45-6.4
		c2.01,9.48,4.12,18.94,6.01,28.44c4.3,21.71,8.57,43.42,12.72,65.16c4.52,23.67,8.19,47.54,13.6,71
		c2.87,12.44,0.42,24.45,0.46,36.62c0.08,19.74-1.1,39.49-1.86,59.24c-0.54,14.01-1.25,28.01-1.97,42.01
		c-0.04,0.81-0.87,1.58-1.34,2.36C426.16,957.76,426.35,948.48,426.53,939.2z"/>
	<path class="st0" d="M667.42,389.27c-10.14,3.25-20.28,6.49-30.41,9.76c-3.21,1.04-6.39,2.2-9.6,3.23
		c-7.33,2.35-14.68,4.66-22.02,6.98c-1.9,0.36-3.85,0.57-5.71,1.1c-13.77,3.96-27.53,7.98-41.29,11.99
		c6.81-2.35,13.56-4.87,20.43-7.01c21.18-6.61,42.39-13.09,63.61-19.59c7.28-2.23,14.59-4.34,22.77-6.78
		c-2.94-0.82-5.48-0.85-6.88-2.13c-1.17-1.06-0.99-3.6-1.57-6.21c-1.61-0.54-4.44-1.47-7.26-2.41c-0.08-0.44-0.16-0.88-0.25-1.33
		c5.27-2.73,6.94-9,13.63-10.86c18.51-5.13,36.79-11.1,55.11-16.87c5.53-1.74,10.92-3.94,16.38-5.93c-3.4,1.72-6.63,3.92-10.21,5.09
		c-18.46,6.04-37.09,11.56-55.46,17.85c-5.31,1.82-10.03,5.44-14.86,8.48c-2.23,1.4-1.69,3.23,0.65,3.97c2,0.64,4.19,0.67,6.82,1.05
		c-1,1.74-1.84,3.21-2.68,4.68C661.64,386.05,664.53,387.66,667.42,389.27z"/>
	<path class="st7" d="M498.39,295.22c-3.5-7.89-7.13-15.72-10.48-23.67c-4.87-11.57-9.75-23.13-14.25-34.85
		c-9.44-24.6-18.65-49.29-27.9-73.96c-0.33-0.88-0.16-1.96-0.23-2.94c2.48,5.84,4.95,11.69,7.43,17.53
		c9,22.75,17.89,45.54,27.04,68.22c6.91,17.11,14.16,34.08,21.26,51.12c0.98,2.52,1.96,5.03,2.94,7.55
		C502.26,301.22,500.33,298.22,498.39,295.22z"/>
	<path class="st7" d="M517.58,338.22c0.27,0.99,0.54,1.98,0.81,2.97c1,0.68,1.99,1.35,2.99,2.03c-1.12,3.02-2.89,2.86-4.99,1.01
		c-1.32,0.33-2.64,0.67-3.96,1c-0.24-0.22-0.29-0.47-0.14-0.76c-0.3-1.92-0.33-3.93-0.94-5.75c-1.87-5.54-3.96-11-5.97-16.49
		c0.6,0.47,1.19,0.93,2.73,2.14c-0.65-5.33-1.19-9.73-1.72-14.13C510.12,319.56,513.85,328.89,517.58,338.22z"/>
	<path class="st0" d="M426.45,432.51c2.46,1.56,4.92,3.11,7.37,4.67c3.74,3.87,11.76,3.67,14.64-0.36c0.96-0.36,1.92-0.73,2.88-1.09
		c1.9-0.84,4.12-1.31,5.65-2.59c9.4-7.85,14.89-17.2,10.51-29.95c-2.08-3.61-4.16-7.21-6.24-10.82l0.14-0.19
		c6.84,2.99,7.77,9.64,8.78,15.63c2.88,17.11-17.06,38.53-36.2,32.28c-3.77-1.23-8.12-2.49-8.59-7.7
		C425.74,432.43,426.1,432.47,426.45,432.51z"/>
	<path class="st0" d="M519.33,697.23c0.04,3.48,0.11,6.96,0.12,10.44c0.03,33.86,0.05,67.72,0.07,101.58
		c-0.38-1.7-1.06-3.4-1.08-5.1c-0.09-12.95,0.08-25.91-0.09-38.86c-0.12-9.7-0.91-19.4-0.89-29.11c0.03-12.08,0.58-24.16,0.97-36.24
		C518.46,699.02,519.02,698.13,519.33,697.23z"/>
	<path class="st0" d="M643.62,451.3c0.83-0.08,1.66-0.16,2.49-0.24c0.43,0.1,0.86,0.2,1.29,0.3c-20.34,8.63-41.18,9.78-62.28,3.53
		c-7.24-2.14-14.14-5.45-21.11-8.43c-1.41-0.6-2.42-2.14-3.62-3.24c1.45,0.69,2.95,1.3,4.35,2.09c10.74,6.04,22.32,9.41,34.48,10.98
		C614.48,458.73,629.27,456.99,643.62,451.3z"/>
	<path class="st0" d="M510.45,672.57c0.31-3.49,0.6-6.98,0.95-10.47c0.65-6.57,0.85-13.23,2.2-19.65c0.68-3.24,3.47-6.04,6.23-8.48
		c-1.44,6.49-3.03,12.95-4.27,19.48c-1.23,6.43-2.1,12.92-3.13,19.39C511.77,672.75,511.11,672.66,510.45,672.57z"/>
	<path class="st8" d="M506.39,310.23c0.54,4.4,1.07,8.8,1.72,14.13c-1.54-1.21-2.14-1.67-2.73-2.14
		c-2.62-6.01-5.25-12.02-7.87-18.03c1.96,0.06,3.08-0.21,2.08-2.72c-0.77-1.94-0.83-4.16-1.2-6.25c1.94,3,3.88,6,5.82,9
		C504.93,306.22,505.66,308.22,506.39,310.23z"/>
	<path class="st0" d="M381.35,385.2c4.79-1.62,9.48-4.06,14.4-4.68c9.81-1.24,19.68-2.39,29.63,0.31c3.8,1.03,8.2-0.05,12.32-0.31
		c2.14-0.14,2.99-1.24,1.68-3.29c1.29,0.37,2.58,0.73,3.87,1.1c0.07,0.59,0.14,1.18,0.22,1.76c-1.92,0.71-3.84,2.03-5.76,2.02
		c-6.73-0.05-13.47-0.46-20.19-0.91c-10.62-0.71-21.07,0.09-31.34,2.93C384.59,384.57,382.96,384.85,381.35,385.2z"/>
	<path class="st0" d="M420.39,405.07c2.26-11.71,18.53-21.56,30.88-18.25c3.6,0.97,6.77,3.53,10.14,5.36c0,0-0.15,0.19-0.15,0.19
		c-3.96-1.39-7.91-2.78-11.87-4.16c-12.05-1.57-24.79,6.14-28.04,16.96C421.02,405.21,420.7,405.18,420.39,405.07z"/>
	<path class="st9" d="M599.22,456.29c-12.16-1.57-23.74-4.94-34.48-10.98c-1.4-0.79-2.9-1.39-4.35-2.09
		c-0.98-0.67-1.96-1.34-2.93-2.01c-1.46-1.62-2.92-3.24-4.37-4.86c3.61,2.2,7.3,4.3,10.83,6.63c11.09,7.31,23.63,10.23,36.48,12.24
		C600,455.58,599.61,455.94,599.22,456.29z"/>
	<path class="st0" d="M362.38,431.22c-7.27-14.87-2.82-27.67,7.08-39.44c0.66-0.79,1.94-1.06,2.93-1.58
		c-2.88,4.42-5.91,8.76-8.61,13.29c-4.7,7.87-4.47,16.05-1.12,24.36c0.42,1.05,0.49,2.24,0.73,3.36
		C363.05,431.22,362.72,431.22,362.38,431.22z"/>
	<path class="st1" d="M558.39,422.33c13.76-4,27.51-8.03,41.29-11.99c1.85-0.53,3.8-0.74,5.71-1.1
		c-12.7,3.99-25.38,8.08-38.13,11.93c-3.82,1.15-7.84,1.64-11.77,2.44C556.45,423.18,557.42,422.76,558.39,422.33z"/>
	<path class="st10" d="M701.36,490.24c0.7,2.65,1.41,5.29,2.11,7.94c-2.01-3.67-4.01-7.34-6.02-11.01
		c-3.08-6.65-6.16-13.3-9.24-19.95c1.38-0.67,2.77-1.35,4.15-2.02c-1.39,1.96-2.03,3.72-0.38,6.14c2.39,3.52,4.24,7.41,6.32,11.14
		C699.32,485.06,700.34,487.65,701.36,490.24z"/>
	<path class="st11" d="M420.39,405.07c0.31,0.11,0.63,0.14,0.96,0.09c0.09,3.3-2.24,7.44,3.07,8.95c-0.95,0.91-2.55,1.72-2.73,2.76
		c-0.45,2.68-0.28,5.46-0.35,8.21c-4.93-1.63-3.05-6.22-3.32-9.27C417.71,412.33,419.5,408.66,420.39,405.07z"/>
	<path class="st0" d="M540.39,458.04c-1.84-0.91-3.61-2.04-5.54-2.67c-1.51-0.48-3.21-0.33-4.83-0.46c0.38,1.57,0.59,3.21,1.18,4.69
		c0.39,0.98,1.31,1.75,1.99,2.61c-4.41-1.11-6.47-5.23-4.18-8.76c0.58-0.9,2.55-1.98,3.03-1.67
		C534.96,453.66,537.63,455.91,540.39,458.04z"/>
	<path class="st0" d="M515.03,437.16c3.54-1.04,7.01-3.57,10.78-0.37c0.03,0.57,0.06,1.13,0.09,1.7c-3.59,0.21-7.18,0.41-10.77,0.62
		C515.1,438.46,515.06,437.81,515.03,437.16z"/>
	<path class="st0" d="M553.08,436.35c1.46,1.62,2.92,3.24,4.37,4.86c-3.86-3.42-7.87-6.69-11.46-10.37
		c-0.75-0.77-0.56-3.95,0.21-4.43c1.87-1.18,4.32-1.43,6.54-2.06c-0.88,0.39-1.74,0.84-2.64,1.16c-3.94,1.4-4.18,3.74-1.59,6.61
		C549.88,433.67,551.55,434.96,553.08,436.35z"/>
	<path class="st12" d="M647.39,451.37c-0.43-0.1-0.86-0.2-1.29-0.3c5.77-3.21,11.55-6.41,17.32-9.62c-0.34,0.92-0.68,1.84-1.03,2.76
		C657.39,446.6,652.39,448.98,647.39,451.37z"/>
	<path class="st0" d="M413.31,532.2c0.69-1.99,1.39-3.98,2.08-5.97c4.29-5.61,2.93-11.82,1.93-18c3.7,4.08,2.72,9.02,1.57,13.4
		C417.91,525.38,415.24,528.69,413.31,532.2z"/>
	<path class="st13" d="M426.53,939.2c-0.18,9.28-0.37,18.55-0.55,27.83c-0.22,0.03-0.43,0.09-0.64,0.17
		c0.02-7.81-0.01-15.62,0.12-23.43C425.48,942.24,426.16,940.73,426.53,939.2z"/>
	<path class="st0" d="M382.37,461.26c-3.66-4.34-7.33-8.69-10.99-13.03c0-0.67,0-1.34,0-2.01
		C375.05,451.23,378.71,456.24,382.37,461.26z"/>
	<path class="st0" d="M402.37,482.26c-4.34-4.68-8.68-9.35-13.03-14.03C393.69,472.91,398.03,477.59,402.37,482.26z"/>
	<path class="st14" d="M371.38,446.22c0,0.67,0,1.34,0,2.01c-3-5.67-6-11.34-9-17.01c0.33,0,0.67,0,1,0
		C366.05,436.22,368.72,441.22,371.38,446.22z"/>
	<path class="st15" d="M426.45,432.51c-0.35-0.04-0.71-0.08-1.06-0.13c-0.32-0.72-0.63-1.43-0.95-2.15
		C425.11,430.99,425.78,431.75,426.45,432.51z"/>
	<path class="st16" d="M457.3,316.96c-2.56-13.91-5.11-27.82-7.67-41.73c8.68,4.91,18.03,7.41,27.95,8.31
		c1.96,0.18,4.74,1.99,5.45,3.74c6.35,15.71,12.33,31.57,18.39,47.39c1.32,3.44,2.55,6.92,4.09,11.13
		c-11.78-1.41-22.1-4.38-30.59-11.01C468.38,329.69,463.12,322.97,457.3,316.96z"/>
	<path class="st3" d="M661.29,295.15c1.39-1.02,2.78-2.04,5.52-4.05c-0.56,5.07-0.88,8.59-1.36,12.08
		c-2.44,17.94-7.15,35.21-15.83,51.18c-1.34,2.47-4.13,4.67-6.76,5.82c-5.46,2.38-11.26,3.97-16.93,5.88
		c-1.17,0.35-2.33,0.7-3.49,1.05c-0.34-0.35-0.68-0.7-1.03-1.05c3.57-0.39,4.69-3.25,6.05-5.93c1.09-2.16,0.71-3.8-1.79-3.78
		c-5.22,0.04-7.8-1.94-6.29-7.75c-1.7,0.21-2.95,0.36-4.19,0.51c7.24-3.38,14.48-6.76,22.91-10.69c-5.48-1.94-10.1-3.56-14.71-5.19
		c-3.39-2.89-3.88-9.26-0.99-12.95c0.09,1.53,0.19,3.06,0.31,5.13c2.26-1.07,3.81-1.64,5.2-2.49c11.01-6.76,21.87-13.76,33.03-20.26
		c3.5-2.04,4.14-4.53,4.05-8.11C663.53,294.77,662.41,294.96,661.29,295.15z"/>
	<path class="st17" d="M534.3,379.66c-1.96-4.48-3.91-8.95-5.87-13.43c-0.56-1.97-1.12-3.94-1.68-5.9c0.6-0.52,1.51-0.92,1.76-1.57
		c2.08-5.39,3.72-11.05,10.4-12.72c0.55-0.14,0.85-1.22,1.37-2.02c-5.36-0.25-5.77-0.91-3.58-5.42c2.02-4.16,3.87-8.44,6.23-12.4
		c5.7-9.56,12.39-17.87,24.09-20.84c11.55-2.93,22.89-6.69,34.32-10.09c-0.4,0.51-0.76,1.05-1.2,1.52
		c-9.87,10.6-19.86,21.11-29.54,31.88c-1.7,1.9-2.17,4.91-3.2,7.41c-7.82,0.97-13.16,6.05-17.83,11.6
		C541.78,356.94,535.23,367.01,534.3,379.66z"/>
	<path class="st18" d="M457.3,316.96c5.82,6,11.08,12.73,17.61,17.83c8.49,6.63,18.81,9.6,30.59,11.01
		c-1.54-4.2-2.77-7.68-4.09-11.13c-6.07-15.82-12.04-31.68-18.39-47.39c-0.71-1.74-3.48-3.56-5.45-3.74
		c-9.92-0.91-19.26-3.41-27.95-8.31c-0.7-3.34-1.4-6.68-2.1-10.01c0.99,0.54,2.19,0.87,2.94,1.65c6.72,6.97,15.16,10.58,24.4,12.58
		c1.8,0.39,3.76-0.03,5.65-0.07c-0.35-1.66-0.62-3.33-1.06-4.97c-1.95-7.22-3.97-14.41-5.88-21.64c-0.11-0.42,0.61-1.05,0.94-1.59
		c6.25,14.68,12.51,29.36,18.76,44.03c0.07,0.65,0,1.35,0.23,1.93c6.24,15.78,12.51,31.54,18.77,47.31
		c-0.15,0.29-0.11,0.54,0.14,0.76c1.99,5,3.97,10,5.96,15c1.27,4.4,2.54,8.81,3.98,13.77c-2.3,0.49-4.35,0.92-6.4,1.36
		c-2.42-6.88-4.62-13.84-7.41-20.56c-0.76-1.84-3.25-4.04-5.09-4.17c-16.33-1.16-31.07-6.25-43.92-16.54
		c-1.04-4.67-2.16-9.32-3.05-14.02C456.31,319.11,457.01,318,457.3,316.96z"/>
	<path class="st16" d="M459.54,334.07c12.85,10.28,27.59,15.37,43.92,16.54c1.83,0.13,4.32,2.34,5.09,4.17
		c2.8,6.72,4.99,13.69,7.42,20.56c-3.88,0.57-7.84,1.9-11.64,1.54c-8.02-0.74-15.96-2.37-23.93-3.63c-2.01-1.01-4.02-2.03-6.04-3.04
		c-1.18-1.05-2.27-2.26-3.57-3.12c-4.14-2.72-7.83-5.71-8.31-11.13C461.5,348.67,460.52,341.37,459.54,334.07z"/>
	<path class="st16" d="M447.45,263.1c-2.67-16.26-5.34-32.52-8.01-48.78c4.46,1.67,8.81,3.83,13.41,4.83
		c3.37,0.73,5.13,2.32,6.22,5.24c6.73,17.97,13.46,35.94,20.39,54.47c-10.83-1.42-19.63-5.55-27.26-12.37
		C450.75,265.21,449.04,264.22,447.45,263.1z"/>
	<path class="st19" d="M538.39,391.19c-0.39-1.42-0.79-2.84-1.18-4.26c1.31-1.41,2.88-2.66,3.89-4.26
		c4.53-7.13,8.72-14.47,13.37-21.51c7.06-10.71,16.59-18.2,29.63-19.8c9.51-1.16,19.13-1.41,28.7-2.14
		c2.26-0.17,4.51-0.61,6.76-0.92c0.2,0.6,0.4,1.19,0.6,1.79c-8.06,1.83-14.61,6.19-20.3,12.02c-0.2,0.22-0.41,0.44-0.61,0.65
		c-1.55,1.51-3.11,3.02-4.66,4.53c-5.09,0.64-10.39,0.59-15.23,2.06c-14.36,4.37-23.05,14.95-28.81,28.26
		c-0.24,0.55,1.09,1.78,1.68,2.7c-2.42,0.92-4.97,1.61-7.24,2.81C541.98,394.72,539.94,394.07,538.39,391.19z"/>
	<path class="st20" d="M294.39,484.22c-1.59,0.79-3.19,1.58-5.45,2.7c18.28,7.38,59.98,11.87,76.52,8.94
		c2.68,1.5,4.46,2.5,6.24,3.51c-1.49,0.99-2.86,2.37-4.5,2.89c-5.61,1.79-11.32,3.28-17,4.88c-36.76,1.13-69.44-11.1-99.93-30.52
		c-3.86-3.75-7.62-7.62-11.64-11.19c-1.89-1.68-4.31-2.76-6.5-4.12c-0.71-0.97-1.43-1.95-2.14-2.92c0.46-0.72,0.92-1.44,1.38-2.16
		c2.53,2.44,5,4.94,7.59,7.31c3.17,2.88,6.15,6.13,9.75,8.36c8.64,5.36,17.59,10.22,26.44,15.24c0.33,0.19,0.94-0.12,1.39-0.19
		c0.44-1.55,0.86-3.02,1.32-4.63c4.52,1.19,8.42,4.47,12.92,1.05C291.42,482.88,293.17,483.89,294.39,484.22z"/>
	<path class="st21" d="M516.39,344.22c2.1,1.85,3.87,2.01,4.99-1.01c0.06-0.99-0.07-2.05,0.21-2.98
		c6.39-21.01,17.6-37.4,39.55-45.31c13.89-5.01,28.12-7.55,42.53-9.47c6.85-0.91,13.93-0.16,21.04-0.16
		c-0.92,1.3-1.57,2.21-2.21,3.12c0,0,0.08-0.05,0.08-0.05c-3.37,2.26-7.17,4.08-10.02,6.87c-11.07,10.85-21.84,22.01-32.72,33.05
		c0.31,0.47,0.62,0.94,0.93,1.41c1.21,0.22,2.43,0.44,3.64,0.65c-4.34,0.62-8.68,1.23-13.03,1.85c0.83-1.93,1.21-4.3,2.58-5.72
		c10.04-10.53,20.28-20.87,30.46-31.26c2.35-1.84,4.7-3.68,8.05-6.29c-2.29-0.41-3.08-0.77-3.8-0.65
		c-7.16,1.13-14.37,2.05-21.43,3.6c-5.33,1.17-10.47,3.18-15.7,4.81c-10.96,4.19-22.35,7.64-29.91,17.61
		c-3.36,4.96-7.37,9.61-9.93,14.95c-3.36,7.04-5.58,14.62-8.29,21.97C520.66,349.28,516.01,349.27,516.39,344.22z"/>
	<path class="st22" d="M619.57,338.31c-2.25,0.31-4.5,0.75-6.76,0.92c-9.57,0.72-19.19,0.98-28.7,2.14
		c-13.05,1.59-22.57,9.09-29.63,19.8c-4.65,7.05-8.84,14.39-13.37,21.51c-1.02,1.6-2.58,2.85-3.89,4.26
		c-0.97-2.42-1.94-4.85-2.91-7.27c0.92-12.65,7.48-22.72,15.29-31.99c4.67-5.54,10.01-10.63,17.83-11.6c3.3-0.4,6.62-0.66,9.88-1.24
		C591.71,332.27,605.76,333.79,619.57,338.31z"/>
	<path class="st16" d="M437.46,202.87c-3.01-17.48-6.04-34.95-9.03-52.44c-1.09-6.38-2.09-12.76-3.14-19.15
		c0.09-1.35,0.18-2.7,0.29-4.37c1.1,1.66,1.96,2.97,2.83,4.28c2.66,7.17,5.32,14.34,7.98,21.52c1.63,5.87,3.26,11.73,4.89,17.6
		c3,9.39,6,18.77,9,28.15c1.26,3.94,2.52,7.89,3.78,11.83c-1.11,0.36-2.59,1.36-3.26,0.97
		C446.26,208.64,441.89,205.71,437.46,202.87z"/>
	<path class="st19" d="M588.95,379.09c-4.19,1.38-8.37,2.77-12.56,4.15c-1.57,0.29-3.18,0.43-4.69,0.9
		c-6.07,1.87-12.11,3.84-18.15,5.77c3.89-3.12,8.17-5.88,11.6-9.44c9-9.34,18.05-18.31,32.33-18.14c4.49,1.85,8.04,4.72,10.82,9.98
		C601.5,374.69,595.22,376.89,588.95,379.09z"/>
	<path class="st23" d="M230.4,378.14c6.12-0.97,12.21-2.37,18.37-2.84c18.63-1.44,37.29-2.52,55.94-3.76
		c6.24-0.41,12.48-0.93,18.72-1.3c28.53-1.69,57.07-3.32,85.6-5.03c15.43-0.93,30.85-2.07,46.29-2.93c4.62-0.26,5.04,0.35,5.08,3.94
		c-2.03-0.79-4.03-2.13-6.1-2.27c-3.95-0.27-7.94,0.15-11.92,0.28c-1.11,0.31-2.2,0.83-3.33,0.91c-15.69,1.05-31.38,2.03-47.08,3.04
		c-15.36,0.99-30.71,2.07-46.08,2.96c-18.85,1.1-37.71,2.05-56.56,3.09c-5.45,0.3-10.9,0.71-16.35,1.07
		C258.79,376.25,244.6,377.19,230.4,378.14z"/>
	<path class="st24" d="M407.6,716.16c3.92,19.86,7.88,39.71,11.75,59.58c1.17,6.02,2.1,12.08,3.15,18.12
		c1.69,8.77,3.38,17.54,5.08,26.31c0,0-0.02-0.1-0.02-0.1c0,2.85,0,5.7,0,8.55c-0.28,0.05-0.56,0.11-0.84,0.16
		c-9.04-47.07-18.08-94.15-27.12-141.22c0.37-0.09,0.74-0.19,1.12-0.28c0.62,0.94,1.24,1.88,1.87,2.81c0,0-0.06-0.03-0.06-0.03
		C404.21,698.76,405.9,707.46,407.6,716.16z"/>
	<path class="st25" d="M261.33,500.36c-0.9-2.08-1.79-4.16-2.69-6.24c0.26-0.38,0.52-0.76,0.78-1.14c3.59,2.29,8.08,3.88,10.6,7.03
		c5.96,7.43,12.99,13.65,20.56,19.09c5.97,4.29,12.98,7.15,19.72,10.75c-0.99,0.18-2.12,0.39-3.25,0.59
		c-1.22-0.05-2.44-0.09-3.66-0.14c-14.4-6.01-26.97-14.8-38.39-25.32C263.58,503.66,262.55,501.91,261.33,500.36z"/>
	<path class="st26" d="M447.45,263.1c1.59,1.12,3.3,2.11,4.74,3.4c7.63,6.82,16.43,10.94,27.26,12.37
		c-6.94-18.53-13.67-36.5-20.39-54.47c1.07-1.06,2.13-2.13,3.2-3.19c2.39,5.67,4.77,11.35,7.16,17.02c1.7,4.32,3.4,8.64,5.1,12.96
		c-0.33,0.53-1.05,1.17-0.94,1.59c1.9,7.23,3.93,14.43,5.88,21.64c0.44,1.63,0.71,3.31,1.06,4.97c-1.89,0.05-3.86,0.46-5.65,0.07
		c-9.24-1.99-17.68-5.61-24.4-12.58c-0.75-0.77-1.95-1.11-2.94-1.65C447.5,264.52,447.48,263.81,447.45,263.1z"/>
	<path class="st27" d="M230.4,378.14c14.2-0.95,28.39-1.89,42.59-2.84c5.45-0.36,10.9-0.77,16.35-1.07
		c18.85-1.04,37.71-1.99,56.56-3.09c15.36-0.9,30.72-1.98,46.08-2.96c15.69-1.01,31.39-1.99,47.08-3.04
		c1.12-0.08,2.22-0.6,3.33-0.91c0.42,0.38,0.84,0.76,1.26,1.14c-11.09,0.87-22.17,1.86-33.27,2.58
		c-56.61,3.71-113.22,7.35-169.83,11c-2.65,0.17-5.41-0.23-7.95,0.35c-2.15,0.5-4.07,2.05-6.09,3.13
		C224.86,378.32,227.62,378.22,230.4,378.14z"/>
	<path class="st28" d="M642.64,368.31c-14.98,4.96-29.97,9.9-44.94,14.87c-19.41,6.45-38.84,12.83-58.18,19.48
		c-3.38,1.16-4.71,0.45-5.91-2.7c-2.12-5.6-4.75-11-6.91-16.59c-1.12-2.91-2.45-3.58-5.62-2.76c-10.89,2.84-21.93,3.55-33,0.75
		c0.75-0.08,1.5-0.17,2.25-0.25c11.08,0.84,22.1,1.39,32.89-2.47c1.12-0.4,4.09,1.79,4.84,3.41c2.97,6.46,5.41,13.17,8.26,20.36
		c3.04-1.24,5.97-2.66,9.04-3.65c27.65-8.94,55.31-17.84,82.99-26.66C633.05,370.61,637.88,369.56,642.64,368.31z"/>
	<path class="st29" d="M462.26,221.2c-1.07,1.06-2.13,2.13-3.2,3.19c-1.09-2.92-2.85-4.51-6.22-5.24c-4.6-1-8.95-3.17-13.41-4.83
		c-0.38-2.28-0.76-4.57-1.15-6.85c1.07-3.73,2.65-0.32,3.38,0.04c3.67,1.84,7.08,4.17,10.71,6.09c0.79,0.42,2.09-0.12,3.15-0.22
		c-0.49-1.03-0.98-2.06-1.47-3.09c-1.26-3.94-2.52-7.89-3.78-11.84c-1.18-5.1-2.37-10.21-3.6-15.51c0.74,0.53,1.26,0.9,1.78,1.27
		c4.64,12.04,9.28,24.08,13.92,36.11C462.36,220.63,462.32,220.92,462.26,221.2z"/>
	<path class="st30" d="M619.57,338.31c-13.81-4.51-27.86-6.03-42.26-3.47c-3.26,0.58-6.58,0.84-9.88,1.24
		c1.04-2.5,1.5-5.51,3.2-7.41c9.68-10.77,19.67-21.28,29.54-31.88c0.44-0.47,0.8-1.01,1.2-1.52c0.97-0.44,1.95-0.87,2.92-1.31
		c0.04,0.42,0.08,0.84,0.11,1.26c-10.18,10.4-20.41,20.74-30.46,31.26c-1.36,1.43-1.74,3.79-2.58,5.72
		c-0.55,0.25-1.09,0.5-1.64,0.75c0.06,0.41,0.13,0.82,0.19,1.22c3.93-0.41,7.87-0.78,11.8-1.25c13.69-1.65,26.95,0.64,40.07,4.25
		c2.15,0.59,3.13,1.56,0.57,3.09c-0.73-0.06-1.47-0.12-2.2-0.18C619.97,339.5,619.77,338.9,619.57,338.31z"/>
	<path class="st31" d="M723.86,410.42c0.5-1.74,1.01-3.47,1.51-5.21c1.66-5.33,3.31-10.66,4.97-15.99c2.79-12,5.71-23.98,5.21-36.45
		c-0.19-4.81-0.3-9.62-0.45-14.42c0.7,6.52,2.12,13.07,1.94,19.57c-0.24,8.77-1.71,17.52-2.66,26.27
		c-2.6,7.98-5.14,15.99-7.88,23.93C726.17,409.08,724.77,409.67,723.86,410.42z"/>
	<path class="st21" d="M623.38,333.22c4.61,1.63,9.23,3.26,14.71,5.19c-8.43,3.93-15.67,7.31-22.91,10.69
		c-3.39,2.93-6.78,5.86-10.82,9.35c6.22,3.79,9.44,10.41,17.04,7.6c0.34,0.35,0.68,0.7,1.03,1.05c-3.91,2.94-7.17,2.68-10.85-0.96
		c-3.09-3.06-7.16-5.12-10.8-7.63c10.31-7.83,18.96-18.18,33.56-18.2c-0.07-0.52-0.14-1.04-0.2-1.56
		c-3.92-1.79-7.84-3.58-11.76-5.36C622.72,333.33,623.05,333.28,623.38,333.22z"/>
	<path class="st32" d="M315.14,533.33c7.55,1.6,15.03,3.72,22.66,4.67c15.17,1.9,30.41,3.17,45.63,4.69
		c1.09,0.11,2.18,0.14,3.27,0.21c0.25,0.44,0.49,0.88,0.74,1.33c-1.54,1.03-3.07,2.06-4.61,3.1c-0.46-0.8-0.86-2.26-1.39-2.3
		c-5.51-0.46-11.05-0.69-16.57-0.99c-1.07-0.55-2.1-1.43-3.23-1.59c-3.93-0.54-7.97-0.48-11.83-1.29
		C338.22,538.71,326.7,535.96,315.14,533.33z"/>
	<path class="st33" d="M584.4,330.36c-1.21-0.22-2.43-0.44-3.64-0.65c-0.31-0.47-0.62-0.94-0.93-1.41
		c10.88-11.04,21.65-22.2,32.72-33.05c2.85-2.79,6.65-4.61,10.02-6.87c-10.59,10.25-21.26,20.42-31.73,30.79
		c-2.67,2.64-4.73,5.91-7.07,8.88c0.15,0.46,0.31,0.92,0.46,1.38c4.69-0.8,9.38-1.61,14.07-2.41c0.03,0.4,0.07,0.8,0.1,1.21
		C593.74,328.93,589.07,329.64,584.4,330.36z"/>
	<path class="st8" d="M436.39,152.71c-2.66-7.17-5.32-14.34-7.98-21.51c-1.16-3.53-2.31-7.07-3.47-10.6
		c-0.42,0.1-0.84,0.2-1.26,0.31c-0.12,0.77-0.24,1.54-0.36,2.31c-0.31-2.67-0.63-5.34-0.94-8c1.59,1.9,3.84,3.56,4.67,5.75
		c4.66,12.29,9.03,24.7,13.35,37.12c0.54,1.56,0.24,3.42,0.33,5.14C439.3,159.72,437.85,156.21,436.39,152.71z"/>
	<path class="st34" d="M598.41,328.22c-0.03-0.4-0.07-0.8-0.1-1.21c17.35-11.28,34.71-22.56,52.06-33.85
		c-2.66,2.35-5.08,5.06-8.02,6.97C627.78,309.62,613.07,318.88,598.41,328.22z"/>
	<path class="st35" d="M430.5,837.2c-0.46,15.61-0.83,31.22-1.41,46.83c-0.37,10.11-1.05,20.2-1.59,30.3
		c-0.26-2.88-0.84-5.78-0.73-8.65c0.81-22.12,1.74-44.24,2.69-66.36C429.49,838.6,430.14,837.91,430.5,837.2z"/>
	<path class="st36" d="M623.38,333.22c-0.33,0.06-0.67,0.11-1,0.17c-3.33-1.07-6.66-2.13-9.99-3.2c0.23-1.06,0.45-2.12,0.68-3.18
		c-0.87,0.1-1.73,0.2-2.6,0.3c0.22-0.59,0.25-1.46,0.67-1.74c5.39-3.52,10.84-6.96,16.27-10.41c0.42,0.07,0.84,0.14,1.26,0.21
		c-2.09,1.63-4.19,3.27-6.28,4.9C619.51,323.96,619.99,330.33,623.38,333.22z"/>
	<path class="st37" d="M315.14,533.33c11.55,2.63,23.08,5.38,34.67,7.83c3.86,0.81,7.9,0.75,11.83,1.29
		c1.13,0.16,2.16,1.04,3.23,1.59c-13.21-1.94-26.53-3.37-39.6-6.03c-7.5-1.53-14.59-5.07-21.87-7.71c1.22,0.05,2.44,0.09,3.66,0.14
		C309.75,531.4,312.45,532.36,315.14,533.33z"/>
	<path class="st21" d="M480.4,373.26c7.97,1.26,15.91,2.89,23.93,3.63c3.8,0.35,7.76-0.98,11.64-1.54c2.04-0.43,4.09-0.87,6.39-1.36
		c-1.43-4.97-2.71-9.37-3.98-13.77c1.94,3.97,4.1,7.85,5.62,11.97c0.31,0.85-1.59,3.45-2.85,3.78c-13.07,3.41-26.12,3.02-39.02-1.04
		C481.44,374.7,480.97,373.83,480.4,373.26z"/>
	<path class="st1" d="M588.95,379.09c6.28-2.2,12.55-4.4,19.34-6.78c-2.78-5.27-6.33-8.13-10.82-9.98
		c-0.96-1.68-1.91-3.36-2.87-5.04c1.55-1.51,3.11-3.02,4.66-4.52c-0.82,1.88-1.64,3.76-2.48,5.68c3.61,3.17,7.43,6.24,10.92,9.66
		c3.23,3.17,2.96,5.07-1.23,6.44C600.74,376.42,594.79,377.61,588.95,379.09z"/>
	<path class="st38" d="M523.39,351.22c2.71-7.35,4.93-14.93,8.29-21.97c2.55-5.34,6.56-9.99,9.93-14.95
		c-2.07,3.55-4.2,7.07-6.18,10.67c-5.7,10.36-10.12,21.11-9.97,33.23c-0.69-1-1.37-1.99-2.06-2.99
		C523.39,353.88,523.39,352.55,523.39,351.22z"/>
	<path class="st39" d="M490.34,381.11c-0.75,0.08-1.5,0.17-2.25,0.25c-10.14-0.79-19.18-4.58-26.31-11.63
		c-3.88-3.83-7.57-5.3-12.69-4.39c-1.76,0.31-3.63,0.03-5.45,0.03c-0.42-0.38-0.84-0.76-1.26-1.14c3.97-0.13,7.97-0.55,11.92-0.28
		c2.07,0.14,4.07,1.47,6.1,2.27c6.99,8.32,16.63,11.58,26.72,14C488.2,380.47,489.27,380.81,490.34,381.11z"/>
	<path class="st1" d="M553.53,389.92c6.05-1.93,12.09-3.9,18.15-5.77c1.51-0.47,3.13-0.61,4.69-0.9c-4.41,1.72-8.79,3.55-13.25,5.13
		c-6.21,2.21-12.61,3.94-18.7,6.46c-4.28,1.77-5.86,0.61-6.05-3.65c1.55,2.88,3.59,3.52,6.6,1.92c2.27-1.21,4.81-1.89,7.24-2.81
		C552.67,390.18,553.1,390.05,553.53,389.92z"/>
	<path class="st1" d="M650.36,293.2c7-4.79,13.99-9.58,20.99-14.37c0.49,0.3,0.99,0.61,1.48,0.91c-0.45,5.99-0.9,11.99-1.35,17.98
		c0-5.21,0-10.42,0-16.19C663.98,285.68,657.17,289.44,650.36,293.2z"/>
	<path class="st1" d="M628.67,315.37c-0.42-0.07-0.84-0.14-1.26-0.21c10.64-6.67,21.27-13.33,31.9-20c0,0,0.28,0.3,0.28,0.3
		C649.29,302.1,638.98,308.73,628.67,315.37z"/>
	<path class="st40" d="M350.21,507.13c5.67-1.6,11.38-3.09,17-4.88c1.64-0.52,3-1.9,4.5-2.89c0.94-0.59,1.88-1.18,2.82-1.77
		c1.06-0.39,2.12-0.78,4.17-1.53c-0.63,2.53-1.07,4.31-1.52,6.09c-0.6,0.29-1.21,0.58-1.81,0.87c0.09-1.1,0.19-2.2,0.32-3.82
		C367.56,503.78,359.58,507.83,350.21,507.13z"/>
	<path class="st41" d="M688.53,353.32c-10.67,3.47-21.33,6.95-32,10.42c0.72-0.57,1.34-1.41,2.16-1.68
		c8.78-2.92,17.58-5.78,26.4-8.56C686.15,353.16,687.38,353.37,688.53,353.32z"/>
	<path class="st42" d="M366.43,552.11c-9.41-1.93-18.82-3.87-28.23-5.8c9.09,1.39,18.19,2.77,27.27,4.24
		C365.86,550.62,366.11,551.57,366.43,552.11z"/>
	<path class="st43" d="M454.06,210.3c0.49,1.03,0.98,2.06,1.47,3.09c-1.06,0.1-2.36,0.63-3.15,0.22c-3.63-1.92-7.05-4.25-10.71-6.09
		c-0.73-0.37-2.31-3.77-3.38-0.04c-0.28-1.53-0.55-3.06-0.83-4.6c4.43,2.83,8.8,5.77,13.34,8.4
		C451.47,211.67,452.95,210.66,454.06,210.3z"/>
	<path class="st41" d="M713.72,345.33c-8.43,2.68-16.85,5.36-25.28,8.04C696.87,350.69,705.29,348.01,713.72,345.33z"/>
	<path class="st3" d="M232.15,461.3c2.18,1.35,4.6,2.44,6.5,4.12c4.03,3.57,7.78,7.44,11.64,11.19
		C244.24,471.51,238.2,466.41,232.15,461.3z"/>
	<path class="st21" d="M620.17,340.1c0.73,0.06,1.47,0.12,2.2,0.18c-7.5,3.95-15,7.89-22.5,11.84
		C605.55,346.29,612.11,341.93,620.17,340.1z"/>
	<path class="st21" d="M462.47,355.97c0.48,5.42,4.17,8.41,8.31,11.13c1.31,0.86,2.39,2.07,3.57,3.12c-3.53-2.06-7.58-3.6-10.4-6.39
		C462.4,362.29,462.9,358.66,462.47,355.97z"/>
	<path class="st44" d="M427.5,914.24c-0.32,8.1-0.65,16.2-0.97,24.3c-0.15-2.67-0.54-5.35-0.4-8.01
		C426.44,925.1,427.03,919.68,427.5,914.24z"/>
	<path class="st1" d="M523.39,355.21c0.69,1,1.37,1.99,2.06,2.99c0.44,0.71,0.87,1.42,1.31,2.13c0.56,1.97,1.12,3.94,1.68,5.9
		c-1.84-2.05-3.84-3.98-5.45-6.2C521.92,358.55,519.87,356.51,523.39,355.21z"/>
	<path class="st45" d="M423.33,123.22c0.12-0.77,0.24-1.54,0.36-2.31c0.42-0.1,0.84-0.2,1.26-0.31c1.16,3.53,2.31,7.07,3.47,10.6
		c-0.86-1.31-1.73-2.62-2.83-4.28c-0.11,1.67-0.2,3.02-0.29,4.37C424.64,128.6,423.98,125.91,423.33,123.22z"/>
	<path class="st46" d="M610.47,327.31c0.87-0.1,1.73-0.2,2.6-0.3c-0.23,1.06-0.45,2.12-0.68,3.18
		C611.6,329.33,607.26,330.83,610.47,327.31z"/>
	<path class="st3" d="M294.39,484.22c-1.22-0.32-2.97-1.33-3.59-0.86c-4.51,3.42-8.41,0.14-12.92-1.05
		c-0.46,1.61-0.88,3.08-1.32,4.63c-0.45,0.07-1.06,0.38-1.39,0.19c-8.85-5.02-17.8-9.88-26.44-15.24c-3.6-2.23-6.58-5.48-9.75-8.36
		c-2.6-2.36-5.07-4.87-7.59-7.31c-0.33-1.56-1.09-3.16-0.93-4.67c1.92-18.57,3.8-37.14,6.07-55.67c0.94-7.69,2.54-8.64,10.4-8.3
		c-1.31,10.24-2.62,20.44-3.99,31.08c3.91-0.12,5.58,0.44,5.06,4.73c-0.37,3.01,2.28,6.36,3.46,9.6c1.07,2.93,1.75,6.03,3.05,8.84
		c0.77,1.66,2.5,4.18,3.66,4.11c4.09-0.27,5.3,2.04,6.76,5.07c0.7,1.45,2.73,2.82,4.37,3.13c3.88,0.72,7.89,1.04,11.83,0.99
		c2.05-0.03,4.09-1.17,6.13-1.82c-0.11-0.51-0.23-1.01-0.34-1.52c-3.8,0-7.61,0-11.33,0c-4.88-7.78-10.51-14.95-14.01-23.03
		c-1.89-4.36-0.68-10.4,0.26-15.48c0.33-1.78,3.86-3.35,6.22-4.3c8.26-3.34,16.61-6.48,25.03-9.38c1.41-0.49,3.68,0.12,5,1.02
		c6.01,4.12,12.02,8.28,17.6,12.94c2.63,2.19,5.02,5.24,6.25,8.39c2.52,6.43,3.98,13.27,6.3,19.78c1.08,3.03,0.81,4.24-2.57,4.55
		c-7.69,0.72-15.37,1.58-23.03,2.55c-3.23,0.41-6.4,1.25-9.6,1.89c-0.29,0.49-0.59,0.98-0.88,1.47c1.33,0.55,2.66,1.11,4.09,1.7
		c-1.76,3.15-3.18,5.7-5.13,9.2c3.34,0.38,6.15,0.8,8.98,0.99c7.1,0.5,14.21,0.84,21.3,1.46c0.46,0.04,1.22,2.01,1.03,2.92
		c-0.35,1.7-1.3,3.28-2.11,5.16c9.47,2.73,15.19-1.29,18.82-9.76c0.88,7.64-0.01,11.83-7.96,15.4c-1.14,0.52-1.93,2.46-2.31,3.89
		c-0.53,2.03-0.15,4.35-0.89,6.26c-0.46,1.19-2.45,2.8-3.44,2.62c-9.38-1.76-18.71-3.84-28.02-5.95
		C295.74,485.9,295.11,484.86,294.39,484.22z M287.35,413.36c-6.73-2.94-13.17-0.17-19.73,0.37c-0.26,0.51-0.52,1.03-0.79,1.54
		c2.18,1.65,4.35,3.3,6.53,4.95c0.33,0.02,0.64,0.09,0.94,0.23c0.31,0.27,0.63,0.55,0.94,0.82c1.41,1.55,2.82,3.11,4.23,4.66
		c2.38,1.43,4.78,4.08,7.13,4.03c4.66-0.1,9.34-1.52,13.91-2.75c1.35-0.36,2.37-1.94,3.54-2.96c-1.32-0.97-2.65-1.95-3.97-2.92
		c-3.55-2.08-7.1-4.16-10.65-6.24c0,0,0.07,0.04,0.07,0.04C288.78,414.55,288.06,413.95,287.35,413.36z M309.49,422.97
		c0.18,4.57-3.54,5.28-6.58,6.09c-5.96,1.58-12.05,2.67-18.08,3.97c-0.31,0.34-0.61,0.67-0.92,1.01c0.87,0.4,1.73,0.8,2.6,1.2
		c0.97,0.65,1.93,1.3,2.9,1.94c1.24,0.71,2.48,1.43,3.72,2.14c1.72,0.19,3.58,0.91,5.14,0.49c5.53-1.48,11.11-2.98,16.38-5.16
		c6.5-2.69,6.69-4.89,1.74-10.24c-3.82-5.63-8.67-10.07-14.42-13.45c-0.33,0.33-0.66,0.67-1,1c2.68,3.12,5.37,6.24,8.05,9.36
		C309.18,421.87,309.33,422.42,309.49,422.97z M276.33,477.75c0.18-0.52,0.35-1.05,0.53-1.57c-10.41-10.28-17.86-12.87-24.67-7.54
		C260.61,471.81,268.47,474.78,276.33,477.75z"/>
	<path class="st47" d="M343.22,395.02c0.84-5.35,1.35-9.61,2.28-13.77c0.25-1.13,1.7-2.76,2.7-2.85c7.05-0.58,14.12-0.82,21.34-0.76
		C359.1,380.44,351.24,387.02,343.22,395.02z"/>
	<path class="st3" d="M326.38,379.2c2.08,0,4.16,0,6.94,0c-2.9,4.74-4.82,9.38-11.08,8.23c-0.87-0.16-1.78-0.15-2.67-0.22
		c0.25-0.98,0.48-1.97,0.75-2.95c0.34-1.23,0.72-2.46,1.05-3.55c1.68-0.5,3.36-1.01,5.03-1.51
		C326.39,379.2,326.38,379.2,326.38,379.2z"/>
	<path class="st17" d="M554.7,845.1c-6.31-7.01-12.49-14.13-18.97-20.98c-4.03-4.26-6.93-8.8-6.47-14.91
		c0.01-26.3-0.38-52.6,0.11-78.89c0.7-37.11,1.62-74.22,3.3-111.29c0.93-20.41,3.63-40.73,5.51-61.09
		c1.73-18.7,3.47-37.41,5.15-56.11c0.49-5.46,0.77-10.93,1.15-16.39c0.49-4.75,0.97-9.49,1.49-14.59c1.2,0.62,2.49,1.25,3.74,1.95
		c23.84,13.33,49.36,18.01,76.5,15.74c16.49-1.38,31.87-6.32,47.03-12.44c3.37,6.39,6.74,12.77,10.11,19.16
		c6.67,16.65,13.33,33.31,20,49.96c1.56,17.16,3.13,34.32,4.69,51.48c-2.2-0.78-3.44-1.99-4.56-3.32
		c-3.39-4.04-6.73-8.13-10.08-12.2c-4.68-9.99-9.35-19.97-14.03-29.96c-3-9.67-6-19.33-9.01-29c-4.68-8.54-9.33-17.11-14.07-25.62
		c-1.56-2.8-3.84-3.13-6.48-1.72c3.43,6.6,7.08,12.74,9.89,19.24c3.26,7.55,5.79,15.42,8.64,23.15
		c4.46,16.93,10.37,33.29,19.09,48.53c5.49,9.59,11.97,18.26,20.88,25.12c3.06,2.36,5.21,6.15,7.15,9.64
		c1.75,3.14,1.96,7.26,4.03,10.08c9.7,13.25,22.78,21.51,38.92,24.81c-0.81,0.54-1.63,1.09-2.44,1.63
		c-7.22,2.32-14.44,4.64-21.66,6.96c-10.89,1.41-19.56-4.42-28.39-9.16c-10.02-5.38-9.8-5.71-8.17-17.17
		c0.16-1.09-0.45-2.29-0.7-3.44c-1.31,0.59-2.63,1.17-3.94,1.76c-0.95,0.3-1.89,0.6-2.84,0.9c-1.69,2-4.86,4.02-4.83,5.99
		c0.2,11.46,1.15,22.91,1.85,34.37c-2.71,6.63-2.21,13.02,0.79,19.52c5.07,10.99,13.16,18.09,25.02,20.89
		c1.52,0.36,2.82,1.66,4.22,2.52c-2.66,1.36-5.33,2.71-7.99,4.08c-17.67,9.13-36.49,14.36-56.33,13.67
		c-16.54-0.58-32.07-5.93-46.65-14.01c-12-6.65-21.88-15.69-30.05-26.45c-10-13.15-19.31-26.82-28.92-40.27
		c-1.7-3.78-3.4-7.57-5.09-11.35c-1.43,8.32,2.68,14.42,7.04,20.42c0.69,1.48,1.19,3.1,2.1,4.43c8.56,12.55,17.19,25.05,25.8,37.56
		c3.04,3.67,6.07,7.34,9.11,11.01c1.31,1.33,2.62,2.65,3.92,3.98c5.03,3.68,10.05,7.37,15.08,11.05c0.88,0.73,1.68,1.56,2.64,2.16
		c16.84,10.65,35.85,13.48,55.13,14.61c20.83,1.22,40.92-2.76,60.22-10.71c4.09-1.69,8.22-3.29,13.31-5.33
		c-0.95,6.48,0.35,12.66-5.96,16.49c-1.97,1.19-3.58,2.95-5.47,4.29c-18.18,12.87-37.68,22.44-60.57,22.05
		c-12.62-0.22-24.99-2.86-36.79-7.51c-7.25-2.85-14.32-6.16-21.46-9.27c-2.41-2-4.69-4.19-7.26-5.96
		c-20.16-13.85-37.19-31.14-53.76-48.93c-1.28-3.72-3.93-5.91-7.11-7.52c-0.37,0.35-0.75,0.7-1.12,1.05c2.07,2.5,4.13,5.01,6.2,7.51
		c4.21,5.1,8.03,10.6,12.71,15.23c12.23,12.12,24.84,23.86,37.29,35.75c10.79,10.98,24.04,17.95,38.29,23.15
		c17.73,6.48,36.14,8.03,54.69,5.55c7.53-1.01,14.74-4.4,22.1-6.71c6.66-4.3,13.32-8.61,19.98-12.91c0.65-0.08,1.29-0.17,1.94-0.25
		c-4.23,11.79-6.82,24.41-16.96,33.19c-2.88,1.69-5.76,3.39-8.64,5.08c-1.93,0.38-3.87,0.69-5.78,1.15
		c-5.33,1.27-10.64,2.03-15.9-0.23c-2.99-1.28-5.96-2.62-8.95-3.94c-1.3-1.64-2.69-3.23-3.89-4.94c-2.59-3.71-4.99-0.62-7.25,0.3
		c-2.1,0.85-3.66,2.48-1.82,5.02c2.36,3.25,4.75,6.49,7.13,9.73c2.37,3.21,4.74,6.42,7.11,9.63c-2.6,2.91,0.28,4.62,1.68,6.24
		c8.79,10.18,26.83,13.73,40.35,8.14c-6.52,7-13.04,14-19.52,20.97c0.42,0.23,1.81,1,3.2,1.76c-1.16,0.38-2.33,0.76-3.5,1.14
		c0.57,1.12,0.95,2.41,1.75,3.33c0.96,1.1,2.17,2.09,3.45,2.8c10.07,5.55,20.53,5.13,31.15,1.85
		c-17.52,25.91-40.25,44.1-72.27,48.09c-3.87,0.48-8.54,0.02-11.89-1.77c-12-6.42-23.82-13.23-35.26-20.6
		c-10.59-6.82-20.6-14.55-30.87-21.88c-7.4-6.71-14.79-13.43-22.19-20.14C559.23,849.67,556.97,847.39,554.7,845.1z"/>
	<path class="st48" d="M730.34,767.07c-0.65,0.08-1.29,0.17-1.94,0.25c2.96-5.86,5.91-11.72,8.87-17.57
		c-3.68,1.67-6.16,3.84-8.68,5.96c-2.48,2.09-4.94,4.21-7.54,6.15c-3.28,2.44-6.58,4.9-10.08,7c-2.63,1.57-6.94,1.85-8.13,4.01
		c-2.45,4.43-4.81,4.27-6.64,2.87c-3.73,1.32-6.15,2.39-8.68,2.98c-1.68,0.39-3.56-0.15-5.29,0.12c-20.91,3.24-41,0.73-60.02-8.75
		c-5.42-2.7-10.55-5.97-15.81-8.98c7.15,3.11,14.22,6.42,21.46,9.27c11.8,4.64,24.16,7.29,36.79,7.51
		c22.89,0.4,42.39-9.17,60.57-22.05c1.89-1.34,3.51-3.09,5.47-4.29c6.31-3.83,5.01-10.01,5.96-16.49
		c-5.09,2.03-9.22,3.64-13.31,5.33c-19.3,7.96-39.39,11.93-60.22,10.71c-19.28-1.13-38.29-3.96-55.13-14.61
		c-0.95-0.6-1.76-1.43-2.64-2.16c-5.03-3.68-10.05-7.37-15.08-11.05c-1.31-1.33-2.62-2.65-3.92-3.98c-0.35-1.86-0.72-3.72-1.06-5.59
		c-0.56-3.04-4.66-5.81-8.05-5.42c-8.61-12.51-17.24-25.02-25.8-37.56c-0.91-1.33-1.41-2.95-2.1-4.43
		c-1.17-2.71-2.35-5.42-3.43-8.16c-0.04-0.09,0.96-0.6,1.48-0.91c9.61,13.45,18.92,27.12,28.92,40.27
		c8.18,10.76,18.05,19.79,30.05,26.45c14.58,8.09,30.11,13.43,46.65,14.01c19.84,0.69,38.66-4.53,56.33-13.67
		c2.66-1.37,5.33-2.72,7.99-4.08c0.61-0.43,1.22-0.87,1.83-1.3c-0.98-0.63-1.9-1.62-2.97-1.82c-13.74-2.61-22.05-11.64-27.59-23.64
		c-1.42-3.07-1.45-6.78-2.11-10.19c0.39-0.07,0.78-0.13,1.17-0.2c0.59,0.72,1.17,1.43,1.76,2.15c1.28,3.1,2.56,6.21,3.84,9.31
		c8.25,14.7,25.77,21.83,44.82,18.2c2.26-0.43,4.49-1.01,7.61-1.72c-2.02,18.64-6.17,36.22-12.48,53.33
		C732.28,765.23,731.31,766.15,730.34,767.07z M738.05,719.07c-8.56,4.31-16.83,8.48-24.35,12.27c-0.53,1.91-0.49,4.03-1.35,4.5
		c-3.91,2.11-7.91,4.51-12.17,5.4c-7.67,1.6-15.55,2.25-23.36,3.18c-2.91,0.35-5.85,0.39-8.78,0.58c1.26,1.42,2.59,1.93,3.9,1.9
		c4.23-0.11,8.46-0.42,12.69-0.66c16.94-0.98,32.53-7.02,48.19-12.82c1.49-0.55,3.69-1.54,3.94-2.68
		C737.6,726.97,737.68,723.04,738.05,719.07z"/>
	<path class="st49" d="M717.44,836.42c-13.52,5.6-31.56,2.05-40.35-8.14c-1.4-1.63-4.29-3.33-1.68-6.24
		c13.96,8.38,28.78,11.3,44.74,7.05c0.42-0.11,0.92,0.12,2.28,0.32C720.58,832.01,719.01,834.22,717.44,836.42z"/>
	<path class="st50" d="M733.96,868.27c-10.62,3.27-21.08,3.69-31.15-1.85c-1.28-0.71-2.49-1.69-3.45-2.8
		c-0.8-0.92-1.18-2.21-1.75-3.33c1.17-0.38,2.33-0.76,3.5-1.14c12.11,4.51,24.48,4.58,38.56,1.36
		C737.14,863.96,735.55,866.11,733.96,868.27z"/>
	<path class="st51" d="M715.54,536.94c0.28,0.11,0.56,0.2,0.85,0.27c4.94,23.92,9.74,47.86,14.86,71.74
		c4.34,20.24,17.74,32.05,36.78,38.26c4.42,1.44,8.96,2.53,13.38,3.96c1.3,0.42,4.41,0.19,2.04,3.18c-3.24-1.39-6.37-3.21-9.74-4.08
		c-13.38-3.45-25.22-9.64-35.37-19.03c-0.65-1.12-1.35-2.22-1.95-3.37c-2.35-4.54-4.68-9.09-7.01-13.64
		c-0.98-4.48-2.12-8.93-2.91-13.44c-2.33-13.32-4.5-26.67-6.77-40.01C718.36,552.82,716.94,544.88,715.54,536.94z"/>
	<path class="st52" d="M672.69,924.34c-0.17,0.57-0.35,1.13-0.52,1.7c-1.73,3.84-7.22,5.61-12.72,3.1
		c-12.23-5.58-24.62-10.97-36.21-17.72c-10.56-6.15-20.13-13.99-30.14-21.08c2.25,1.27,4.63,2.37,6.74,3.84
		c19.22,13.33,38.82,25.96,60.91,34.19c3.61,1.35,8.57-0.23,9.65-3.15C671.16,924.93,671.93,924.64,672.69,924.34z"/>
	<path class="st51" d="M731.37,629.22c0,0.33,0.03,0.66,0.07,0.98c-0.04,0.41-0.09,0.82-0.13,1.23c-5.52-3.98-7.71-10.05-8.94-16.17
		c-3.34-16.57-6.1-33.26-9.08-49.91c0.1-1.06,0.2-2.12,0.3-3.17c0.61,3.71,1.14,7.44,1.85,11.13c2.29,11.98,4.65,23.94,6.98,35.91
		c1.51,3.62,2.95,7.27,4.55,10.86C728.34,623.16,729.89,626.17,731.37,629.22z"/>
	<path class="st53" d="M668.3,812.41c-2.38-3.24-4.76-6.48-7.13-9.73c-1.84-2.54-0.29-4.17,1.82-5.02c2.26-0.91,4.66-4.01,7.25-0.3
		c1.2,1.72,2.59,3.3,3.89,4.94c1.37,1.14,2.61,2.51,4.14,3.37c6.66,3.75,13.79,3.84,21.07,2.39c-6.08,3.98-12.47,2.6-18.43,0.22
		c-4.97-1.99-9.47-5.19-14.1-7.99c-0.35-0.21-0.05-1.49-0.05-2.27c-0.41-0.11-0.83-0.21-1.24-0.32c-0.28,1.38-1.06,2.89-0.74,4.11
		C665.72,805.42,667.09,808.89,668.3,812.41z"/>
	<path class="st54" d="M693.13,636.02c1.31-0.59,2.63-1.17,3.94-1.76c0.25,1.15,0.86,2.35,0.7,3.44
		c-1.63,11.46-1.85,11.79,8.17,17.17c8.83,4.74,17.49,10.58,28.39,9.16c-3.29,2.66-6.46,2.83-10.38,0.72
		c-7.55-4.06-15.36-7.66-23.17-11.2c-5.85-2.66-7.26-7-6.16-12.94C694.88,639.22,693.66,637.56,693.13,636.02z"/>
	<path class="st55" d="M731.37,629.22c-1.48-3.05-3.03-6.06-4.41-9.15c-1.6-3.58-3.04-7.23-4.55-10.86
		c1.31,1.08,2.58,2.22,3.95,3.23c0.94,0.69,2.02,1.19,3.03,1.77c2.33,4.55,4.66,9.1,7.01,13.64c0.6,1.15,1.3,2.25,1.95,3.37
		C736.02,630.56,733.7,629.89,731.37,629.22z"/>
	<path class="st56" d="M725.52,822.39c0.95-0.08,1.9-0.16,2.84-0.24c-7.3,4.4-15.48,4.99-23.44,3.75
		c-6.23-0.97-12.19-3.87-18.19-6.13c-1.78-0.67-3.28-2.08-4.9-3.14c0.39-0.79,0.77-1.59,1.16-2.38c9.32,3.22,18.46,1.88,27.59,0.07
		c-7.44,1.42-14.88,2.83-21.82,4.15C693.21,824.66,712.72,827.23,725.52,822.39z"/>
	<path class="st57" d="M731.31,631.43c0.04-0.41,0.09-0.82,0.13-1.23c10.68,9.15,22.49,16.41,36.75,20.92
		c-3.76,4.17-7.69,5.65-12.2,5.96c0.81-0.54,1.63-1.09,2.44-1.63c0.76-0.37,1.52-0.74,2.28-1.11c1.23-0.51,2.47-1.02,4.74-1.96
		C752.2,646.78,740.39,641.27,731.31,631.43z"/>
	<path class="st58" d="M693.29,694.5c-1.28-3.1-2.56-6.21-3.84-9.31c-0.71-2.64-1.42-5.28-2.13-7.91
		c-0.7-11.45-1.65-22.9-1.85-34.37c-0.03-1.97,3.14-3.99,4.83-5.99c-6.56,7.05-4.26,15.73-3.39,23.58
		C688.17,671.93,691.08,683.17,693.29,694.5z"/>
	<path class="st59" d="M561.49,851.96c7.4,6.71,14.79,13.43,22.19,20.14c-1.15-0.52-2.29-1.08-3.46-1.54
		c-2.6-1.01-3.5-6.04-7.91-3.27c-0.39,0.25-2.54-2.27-3.86-3.51c-1.55-1.45-3.09-2.92-5.36-5.08c2.07,0.55,3.28,0.88,4.29,1.15
		C565.4,857.19,563.45,854.57,561.49,851.96z"/>
	<path class="st60" d="M730.34,767.07c0.97-0.92,1.93-1.84,2.9-2.76c-3.85,9.53-7.34,19.23-11.76,28.49c-1.47,3.07-5.33,5-8.1,7.46
		C723.52,791.48,726.11,778.85,730.34,767.07z"/>
	<path class="st60" d="M699.34,808.07c-7.28,1.46-14.41,1.37-21.07-2.39c-1.53-0.86-2.77-2.23-4.14-3.37
		c2.98,1.32,5.95,2.66,8.94,3.94c5.26,2.26,10.57,1.5,15.9,0.23c1.91-0.46,3.85-0.77,5.78-1.15
		C702.94,806.25,701.14,807.16,699.34,808.07z"/>
	<path class="st61" d="M691.39,405.24c0.94-6.93,1.88-13.86,2.93-21.57c-6.28,1.25-11.77,2.34-17.26,3.43
		c5.6-1.77,11.21-3.55,17.55-5.55C695.38,390.38,695.46,398.06,691.39,405.24z"/>
	<path class="st62" d="M730.35,389.23c-1.66,5.33-3.31,10.66-4.97,15.99c-0.99-0.33-1.98-0.66-2.96-0.98c1.65-3.88,3.18-7.81,5-11.6
		C728.03,391.33,729.35,390.35,730.35,389.23z"/>
	<path class="st61" d="M670.38,435.28c4.36-5.03,8.73-10.06,13.09-15.08C680.63,426.55,676.85,432.08,670.38,435.28z"/>
	<path class="st0" d="M731.31,631.43c9.08,9.84,20.89,15.36,34.14,20.94c-2.28,0.94-3.51,1.45-4.74,1.96
		c-9.79-0.72-17.98-5.6-25.65-10.96c-6.05-4.22-11.85-8.65-14.19-16.95c-1.74-6.16-5.92-12.76-10.97-16.61
		c-8.84-6.76-15.58-14.82-20.6-24.38c-4.45-8.48-8.3-17.3-11.98-26.15c-3.28-7.89-5.97-16.03-8.92-24.06
		c-0.34-1.67-0.67-3.33-1.01-5c0.35-0.55,0.69-1.09,1.09-1.72c4.44,10.92,8.43,21.52,13.07,31.84c3.51,7.82,7.86,15.27,11.83,22.88
		c4.3,5.46,8.51,10.98,12.96,16.32c0.87,1.05,2.63,1.37,3.98,2.02c0.1-1.36,0.42-2.74,0.28-4.08c-1.36-12.3-2.68-24.61-4.27-36.89
		c-0.67-5.17-1.96-10.25-2.97-15.37c-6.67-16.65-13.33-33.31-20-49.96c-2.68-6.74-5.37-13.48-8.05-20.22
		c2.33-0.85,4.66-1.7,6.99-2.55c0.33,0.34,0.65,0.68,0.98,1.01c0.37,1.24,0.73,2.48,1.1,3.71c0.82,2.6,1.4,5.3,2.5,7.77
		c3.03,6.84,6.26,13.58,9.42,20.37c0.72,2.28,1.43,4.55,2.15,6.83c3.27,9.66,6.92,19.21,9.7,29.01c2.25,7.9,3.46,16.08,5.13,24.14
		c2.99,16.64,5.75,33.33,9.08,49.91C723.6,621.37,725.79,627.45,731.31,631.43z"/>
	<path class="st63" d="M628.67,315.37c10.31-6.64,20.62-13.27,30.92-19.91c0.56-0.1,1.13-0.21,1.69-0.31
		c1.12-0.19,2.24-0.38,3.68-0.63c0.09,3.58-0.55,6.07-4.05,8.11c-11.16,6.5-22.02,13.5-33.03,20.26c-1.38,0.85-2.94,1.42-5.2,2.49
		c-0.13-2.07-0.22-3.6-0.31-5.13C624.49,318.64,626.58,317,628.67,315.37z"/>
	<path class="st64" d="M560.39,470.35c1.44,0.22,2.95,0.23,4.29,0.7c42.69,15.07,83.34,12.12,121.44-13.66
		c0.69-0.46,1.43-0.84,2.15-1.26c0.71,0.03,1.42,0.06,2.13,0.09c-11.69,9.28-24.95,15.47-39.12,19.84
		c-16.34,5.04-33.17,6.12-50.07,5C587,480.13,573.12,477.23,560.39,470.35z"/>
	<path class="st65" d="M722.88,412.36c-0.19,1.67,0.17,3.68-0.64,4.95c-5.15,8.01-10.56,15.86-15.89,23.76c0-0.65,0-1.3,0-1.96
		c1.38-2.22,2.76-4.44,4.15-6.66c3.94-6.75,7.87-13.51,11.81-20.26C722.54,412.07,722.74,412.12,722.88,412.36z"/>
	<path class="st66" d="M683.28,473.5c-0.33-0.34-0.65-0.68-0.98-1.01c1.97-1.76,3.94-3.51,5.9-5.27c3.08,6.65,6.16,13.3,9.24,19.95
		c0,0-0.08,0.06-0.08,0.06c-0.56-0.3-1.39-0.46-1.63-0.92c-2.88-5.58-5.67-11.21-8.79-17.43
		C685.59,470.59,684.44,472.05,683.28,473.5z"/>
	<path class="st67" d="M706.34,439.11c0,0.65,0,1.31,0,1.96c-5.32,5.05-10.63,10.11-15.95,15.16c-0.71-0.03-1.42-0.06-2.13-0.09
		c3.74-3.57,7.48-7.14,11.22-10.71C701.77,443.32,704.06,441.21,706.34,439.11z"/>
	<path class="st68" d="M675.32,475.04c2.68,6.74,5.37,13.48,8.05,20.22c-3.37-6.39-6.74-12.77-10.11-19.16
		C673.94,475.75,674.63,475.39,675.32,475.04z"/>
	<path class="st69" d="M560.33,432.02c42.73-14.25,84.45-28.17,127.21-42.44c-0.44,8.5-3.36,14.93-7.05,20.93
		c-12.67,20.6-32.08,31.13-55.12,35.62c-20.03,3.91-39.25,0.96-57.51-8.17c-1.78-0.89-3.43-2.03-5.09-3.13
		C562.27,434.48,561.93,433.88,560.33,432.02z"/>
	<path class="st41" d="M599.22,456.29c0.39-0.36,0.78-0.71,1.17-1.07c6.69,0.15,13.45,0.93,20.06,0.29
		c7.78-0.76,15.45-2.75,23.16-4.21C629.27,456.99,614.48,458.73,599.22,456.29z"/>
	<path class="st5" d="M424.42,414.11c-5.31-1.51-2.98-5.65-3.07-8.95c3.26-10.82,16-18.52,28.04-16.96
		c1.37,1.74,2.74,3.48,4.11,5.21c0.03,6.09-3.9,10.05-7.95,13.61C439.59,412.25,432.93,416.15,424.42,414.11z"/>
	<path class="st70" d="M467.5,403.18c4.38,12.74-1.11,22.09-10.51,29.95c-1.53,1.28-3.75,1.75-5.65,2.59
		c1.71-1.81,3.41-3.62,5.14-5.42c6.42-6.66,10.75-14.18,9.83-23.87C466.71,405.35,467.1,404.27,467.5,403.18z"/>
	<path class="st71" d="M467.5,403.18c-0.4,1.08-0.8,2.17-1.19,3.25c-2.65-3.82-5.12-7.79-8.07-11.37c-0.91-1.1-3.12-1.13-4.73-1.65
		c-1.37-1.74-2.74-3.48-4.11-5.21c3.96,1.39,7.91,2.78,11.87,4.16C463.34,395.97,465.42,399.58,467.5,403.18z"/>
	<path class="st72" d="M448.46,436.81c-2.88,4.03-10.9,4.23-14.64,0.36C438.7,437.06,443.58,436.93,448.46,436.81z"/>
	<path class="st73" d="M622.49,288.41c0.65-0.91,1.29-1.82,2.21-3.12c-7.11,0-14.19-0.76-21.04,0.16
		c-14.41,1.92-28.64,4.47-42.53,9.47c-21.95,7.91-33.15,24.31-39.55,45.31c-0.28,0.93-0.15,1.98-0.21,2.98
		c-1-0.68-1.99-1.35-2.99-2.03c0.87-1.27,1.94-2.45,2.57-3.83c2.79-6.03,5.33-12.18,8.21-18.17c6.98-14.51,20.12-21.24,34.28-26.35
		c19.64-7.08,40.04-9.64,60.85-9.26c1.22,0.02,2.44,0.39,4,1.79C626.37,286.38,624.43,287.4,622.49,288.41z"/>
	<path class="st42" d="M512.29,344.46c-6.26-15.77-12.53-31.53-18.77-47.31c-0.23-0.58-0.16-1.28-0.23-1.93
		c1.41,2.99,2.81,5.98,4.22,8.98c2.62,6.01,5.25,12.02,7.87,18.03c2.01,5.49,4.1,10.95,5.97,16.49
		C511.96,340.52,511.99,342.54,512.29,344.46z"/>
	<path class="st43" d="M448.47,184.23c-0.52-0.37-1.03-0.74-1.78-1.27c1.23,5.31,2.41,10.41,3.6,15.51c-3-9.38-6-18.77-9-28.15
		c0.41-0.74,0.82-1.48,1.23-2.22C444.5,173.47,446.48,178.85,448.47,184.23z"/>
	<path class="st74" d="M442.52,168.1c-0.41,0.74-0.82,1.48-1.23,2.22c-1.63-5.87-3.26-11.73-4.89-17.6c1.45,3.5,2.9,7,4.36,10.51
		C441.34,164.85,441.93,166.47,442.52,168.1z"/>
	<path class="st75" d="M462.26,221.2c0.05-0.28,0.09-0.57,0.12-0.86c2.35,5.96,4.69,11.92,7.04,17.88
		C467.04,232.55,464.65,226.87,462.26,221.2z"/>
	<path class="st76" d="M722.3,412.19c-3.94,6.75-7.87,13.51-11.81,20.26c-0.05-0.42-0.09-0.85-0.14-1.27
		C714.34,424.85,718.32,418.52,722.3,412.19z"/>
	<path class="st62" d="M710.35,431.18c0.04,0.42,0.09,0.85,0.14,1.27c-1.38,2.22-2.76,4.44-4.15,6.66
		c-2.29,2.11-4.57,4.21-6.85,6.32C703.11,440.68,706.73,435.93,710.35,431.18z"/>
	<path class="st1" d="M407.6,716.16c-1.7-8.7-3.4-17.4-5.09-26.1C404.21,698.76,405.9,707.46,407.6,716.16z"/>
	<path class="st1" d="M427.57,820.17c-1.69-8.77-3.38-17.54-5.08-26.31C424.19,802.63,425.88,811.4,427.57,820.17z"/>
	<path class="st61" d="M729.39,614.22c-1.02-0.58-2.09-1.09-3.03-1.77c-1.37-1.01-2.64-2.15-3.95-3.23
		c-2.33-11.97-4.69-23.94-6.98-35.91c-0.71-3.69-1.24-7.42-1.85-11.13c-2.12-10-4.2-20.01-6.39-29.99
		c-0.8-3.66-1.88-7.26-2.84-10.88c-0.54-3.95-1.22-7.89-1.52-11.86c-0.08-1.03,1.01-2.14,1.56-3.22
		c3.38,8.99,6.76,17.97,10.14,26.96c0.34,1.25,0.68,2.51,1.02,3.76c1.39,7.94,2.82,15.88,4.17,23.83
		c2.27,13.33,4.44,26.69,6.77,40.01C727.27,605.29,728.41,609.74,729.39,614.22z"/>
	<path class="st66" d="M714.52,533.18c-3.38-8.99-6.76-17.97-10.14-26.96c-0.54-1.53-1.06-3.07-1.63-4.59
		c-1.79-4.8-3.59-9.6-5.39-14.4c0,0,0.08-0.06,0.08-0.06c2.01,3.67,4.01,7.34,6.02,11.01C707.15,509.85,710.84,521.51,714.52,533.18
		z"/>
	<path class="st77" d="M621.41,366.05c-7.6,2.81-10.82-3.81-17.04-7.6c4.04-3.49,7.43-6.42,10.82-9.35c1.24-0.15,2.49-0.3,4.19-0.51
		c-1.51,5.81,1.07,7.79,6.29,7.75c2.5-0.02,2.89,1.62,1.79,3.78C626.1,362.81,624.98,365.66,621.41,366.05z"/>
	<path class="st78" d="M526.76,360.32c-0.44-0.71-0.87-1.42-1.31-2.13c-0.15-12.12,4.28-22.87,9.97-33.23
		c1.98-3.6,4.12-7.12,6.18-10.67c7.56-9.97,18.95-13.42,29.91-17.61c11.64-2.34,23.27-4.67,34.91-7.01
		c0.14,0.49,0.28,0.98,0.41,1.47c-0.85,0.94-1.7,1.87-2.55,2.81c-0.97,0.44-1.95,0.87-2.92,1.31c-11.43,3.4-22.77,7.16-34.32,10.09
		c-11.71,2.97-18.39,11.28-24.09,20.84c-2.36,3.96-4.2,8.24-6.23,12.4c-2.2,4.51-1.79,5.17,3.58,5.42c-0.52,0.8-0.82,1.89-1.37,2.02
		c-6.69,1.66-8.33,7.33-10.4,12.72C528.27,359.41,527.36,359.81,526.76,360.32z"/>
	<path class="st79" d="M553.53,389.92c-0.43,0.13-0.87,0.26-1.3,0.39c-0.6-0.91-1.92-2.14-1.68-2.7
		c5.76-13.31,14.45-23.89,28.81-28.26c4.84-1.47,10.14-1.42,15.23-2.06c0.96,1.68,1.91,3.36,2.87,5.04
		c-14.27-0.16-23.32,8.8-32.32,18.14C561.7,384.04,557.43,386.79,553.53,389.92z"/>
	<path class="st34" d="M604.29,293.96c0.85-0.94,1.7-1.87,2.55-2.81c-0.14-0.49-0.28-0.98-0.41-1.47
		c-11.64,2.34-23.27,4.67-34.91,7.01c5.23-1.63,10.37-3.64,15.7-4.81c7.07-1.55,14.28-2.48,21.43-3.6c0.72-0.11,1.51,0.24,3.8,0.65
		c-3.34,2.62-5.7,4.45-8.05,6.29C604.36,294.8,604.33,294.38,604.29,293.96z"/>
	<path class="st1" d="M275.24,421.27c-0.31-0.27-0.63-0.55-0.94-0.82c-0.49-1.49-0.97-2.98-1.74-5.31c5.91,0,11.42,0,16.93,0
		c0,0-0.07-0.04-0.07-0.04c3.59,2.94,7.19,5.87,10.93,8.93c-12.4,5.92-14.7,5.02-22.1-1.37
		C277.46,421.97,276.26,421.72,275.24,421.27z"/>
	<path class="st80" d="M293.12,439.32c-1.24-0.71-2.48-1.43-3.72-2.14c-0.45-1.79-0.45-2.67,2.05-3.13
		c5.8-1.08,11.56-2.61,17.15-4.49c5.09-1.71,5.1-4.58,0.42-8.22c-2.68-3.12-5.37-6.24-8.05-9.36c0.33-0.33,0.66-0.67,1-1
		c5.75,3.38,10.6,7.81,14.42,13.44c0.54,1.38,1.5,2.77,1.51,4.15c0,1.26-0.75,3.36-1.65,3.66
		C308.59,434.77,300.84,437,293.12,439.32z"/>
	<path class="st2" d="M276.33,477.75c-7.86-2.97-15.72-5.93-24.14-9.11c6.81-5.32,14.25-2.74,24.67,7.54
		C276.68,476.7,276.5,477.22,276.33,477.75z"/>
	<path class="st81" d="M275.24,421.27c1.02,0.45,2.21,0.69,3.02,1.39c7.4,6.38,9.7,7.29,22.1,1.37c-3.75-3.06-7.34-5.99-10.93-8.93
		c3.55,2.08,7.1,4.16,10.65,6.24c0.65,1.23,1.3,2.45,2.2,4.15c-7.93,2.54-15.21,6.39-22.81,0.45
		C278.06,424.38,276.65,422.83,275.24,421.27z"/>
	<path class="st82" d="M309.02,421.33c4.68,3.64,4.67,6.51-0.42,8.22c-5.59,1.88-11.35,3.41-17.15,4.49
		c-2.5,0.47-2.5,1.34-2.05,3.13c-0.97-0.65-1.93-1.3-2.9-1.94c1.29-0.72,2.5-1.72,3.88-2.11c5.89-1.66,11.87-3.03,17.74-4.74
		c3.14-0.91,4-2.83,1.35-5.41C309.33,422.42,309.18,421.87,309.02,421.33z"/>
	<path class="st82" d="M293.12,439.32c7.72-2.32,15.47-4.55,23.12-7.1c0.9-0.3,1.66-2.4,1.65-3.66c0-1.39-0.96-2.77-1.51-4.15
		c4.95,5.35,4.76,7.55-1.74,10.24c-5.28,2.18-10.85,3.68-16.38,5.16C296.7,440.23,294.84,439.51,293.12,439.32z"/>
	<path class="st83" d="M279.47,425.93c7.6,5.94,14.87,2.09,22.81-0.45c-0.9-1.7-1.55-2.93-2.2-4.15c1.32,0.97,2.65,1.95,3.97,2.92
		c-1.17,1.02-2.19,2.59-3.54,2.96c-4.57,1.23-9.25,2.66-13.91,2.75C284.25,430.01,281.85,427.36,279.47,425.93z"/>
	<path class="st83" d="M309.49,422.97c2.65,2.58,1.78,4.5-1.35,5.41c-5.88,1.71-11.85,3.08-17.74,4.74
		c-1.38,0.39-2.59,1.39-3.88,2.11c-0.87-0.4-1.73-0.8-2.6-1.2c0.31-0.34,0.61-0.67,0.92-1.01c6.04-1.29,12.12-2.39,18.08-3.97
		C305.95,428.25,309.67,427.54,309.49,422.97z"/>
	<path class="st84" d="M273.36,420.23c-2.18-1.65-4.35-3.3-6.53-4.95c0.26-0.51,0.52-1.03,0.79-1.54c6.56-0.55,13-3.32,19.73-0.38
		c-5.67,0.36-11.33,0.71-17.98,1.13C271.18,417.1,272.27,418.66,273.36,420.23z"/>
	<path class="st81" d="M273.36,420.23c-1.09-1.56-2.18-3.13-4-5.74c6.65-0.42,12.32-0.77,17.98-1.13c0.72,0.59,1.43,1.19,2.15,1.78
		c-5.51,0-11.02,0-16.93,0c0.76,2.33,1.25,3.82,1.74,5.31C274,420.32,273.69,420.24,273.36,420.23z"/>
	<path class="st0" d="M606.4,761.1c5.26,3.01,10.39,6.28,15.81,8.98c19.02,9.48,39.1,11.99,60.02,8.75
		c1.73-0.27,3.61,0.27,5.29-0.12c2.53-0.59,4.95-1.67,8.68-2.98c1.83,1.4,4.19,1.56,6.64-2.87c1.19-2.16,5.5-2.43,8.13-4.01
		c3.5-2.1,6.8-4.55,10.08-7c2.6-1.94,5.06-4.06,7.54-6.15c2.52-2.12,4.99-4.29,8.68-5.96c-2.96,5.86-5.91,11.71-8.87,17.57
		c-6.66,4.31-13.32,8.61-19.98,12.92c-0.98,0.15-2,0.15-2.92,0.46c-15.56,5.17-31.56,6.3-47.79,5.1
		c-17.1-1.27-32.19-8.34-46.79-16.61c-6-3.4-11.72-7.28-17.57-10.94c-12.46-11.89-25.06-23.63-37.29-35.75
		c-4.68-4.63-8.5-10.13-12.71-15.23c0.68-0.35,1.35-0.69,2.03-1.04c16.57,17.79,33.6,35.07,53.76,48.93
		C601.71,756.91,603.99,759.11,606.4,761.1z"/>
	<path class="st85" d="M668.4,535.21c2.95,8.03,5.64,16.17,8.92,24.06c3.68,8.85,7.52,17.68,11.98,26.15
		c5.02,9.56,11.76,17.62,20.6,24.38c5.04,3.86,9.23,10.45,10.97,16.61c2.35,8.3,8.14,12.74,14.19,16.95
		c7.67,5.35,15.85,10.24,25.65,10.96c-0.76,0.37-1.52,0.74-2.27,1.11c-16.14-3.3-29.22-11.55-38.92-24.81
		c-2.07-2.82-2.28-6.94-4.03-10.08c-1.94-3.49-4.09-7.28-7.15-9.64c-8.91-6.86-15.4-15.53-20.88-25.12
		c-8.73-15.24-14.64-31.6-19.09-48.53C668.38,536.58,668.39,535.9,668.4,535.21z"/>
	<path class="st86" d="M593.35,758.23c5.85,3.66,11.57,7.55,17.57,10.94c14.6,8.27,29.69,15.35,46.79,16.61
		c16.23,1.2,32.23,0.07,47.79-5.1c0.92-0.31,1.94-0.31,2.92-0.46c-7.36,2.31-14.57,5.7-22.1,6.71c-18.55,2.48-36.96,0.93-54.69-5.55
		C617.39,776.18,604.14,769.21,593.35,758.23z"/>
	<path class="st87" d="M668.4,535.21c-0.01,0.69-0.03,1.37-0.04,2.06c-2.85-7.73-5.38-15.6-8.64-23.15
		c-2.81-6.5-6.46-12.64-9.89-19.24c2.64-1.41,4.92-1.08,6.48,1.72c4.74,8.51,9.39,17.08,14.07,25.62c0.4,1.75,0.75,3.52,1.22,5.26
		c1.24,4.58,2.54,9.15,3.81,13.73c-0.67-1.48-1.53-2.91-1.98-4.46c-3.19-10.99-7.51-21.46-13.83-31.04c-0.43-0.66-1.03-1.2-1.7-1.98
		c3.27,9.13,6.38,17.81,9.49,26.49C667.73,531.88,668.06,533.55,668.4,535.21z"/>
	<path class="st85" d="M667.39,530.22c-3.11-8.68-6.22-17.36-9.49-26.49c0.67,0.77,1.27,1.32,1.7,1.98
		c6.32,9.58,10.64,20.05,13.83,31.04c0.45,1.55,1.31,2.98,1.98,4.46c1.33,3.34,2.65,6.67,3.98,10.01
		c4.68,9.99,9.35,19.97,14.03,29.96c-0.01,0.68-0.02,1.36-0.03,2.04c-3.97-7.61-8.31-15.06-11.83-22.88
		c-4.64-10.32-8.62-20.92-13.07-31.84C668.08,529.12,667.74,529.67,667.39,530.22z"/>
	<path class="st88" d="M693.38,583.22c0.01-0.68,0.02-1.36,0.03-2.04c3.36,4.07,6.69,8.16,10.08,12.2c1.11,1.33,2.36,2.54,4.56,3.32
		c-1.56-17.16-3.13-34.32-4.69-51.48c1.01,5.12,2.3,10.21,2.97,15.37c1.59,12.27,2.91,24.59,4.27,36.89
		c0.15,1.33-0.17,2.72-0.28,4.08c-1.35-0.65-3.11-0.97-3.98-2.02C701.89,594.2,697.68,588.68,693.38,583.22z"/>
	<path class="st89" d="M687.31,677.27c0.71,2.64,1.42,5.28,2.13,7.92c-0.59-0.72-1.17-1.43-1.76-2.15c-0.39,0.07-0.78,0.13-1.17,0.2
		c0.67,3.41,0.7,7.12,2.11,10.19c5.54,12,13.85,21.04,27.59,23.64c1.07,0.2,1.98,1.2,2.97,1.82c-0.61,0.43-1.22,0.87-1.83,1.3
		c-1.4-0.86-2.7-2.16-4.22-2.52c-11.87-2.8-19.95-9.9-25.02-20.89C685.11,690.29,684.61,683.9,687.31,677.27z"/>
	<path class="st90" d="M547.41,657.22c-0.52,0.31-1.52,0.81-1.48,0.91c1.08,2.75,2.26,5.45,3.43,8.16c-4.36-6-8.47-12.1-7.04-20.42
		C544.01,649.65,545.71,653.43,547.41,657.22z"/>
	<path class="st91" d="M679.39,551.22c-1.33-3.34-2.65-6.67-3.98-10.01c-1.27-4.58-2.57-9.15-3.81-13.73
		c-0.47-1.74-0.82-3.5-1.22-5.26C673.38,531.89,676.38,541.55,679.39,551.22z"/>
	<path class="st92" d="M577.25,708.29c3.39-0.4,7.49,2.37,8.05,5.42c0.34,1.86,0.71,3.72,1.06,5.59
		C583.32,715.62,580.28,711.95,577.25,708.29z"/>
	<path class="st93" d="M545.38,706.22c-0.68,0.35-1.35,0.69-2.03,1.04c-2.07-2.5-4.13-5.01-6.2-7.51c0.37-0.35,0.75-0.7,1.12-1.05
		C541.45,700.31,544.1,702.5,545.38,706.22z"/>
	<path class="st92" d="M590.28,723.27c5.03,3.68,10.05,7.37,15.08,11.05C600.33,730.64,595.31,726.95,590.28,723.27z"/>
	<path class="st94" d="M738.05,719.07c-0.38,3.97-0.45,7.9-1.28,11.66c-0.25,1.14-2.45,2.13-3.94,2.68
		c-15.65,5.8-31.25,11.84-48.19,12.82c-4.23,0.24-8.46,0.55-12.69,0.66c-1.32,0.03-2.65-0.48-3.9-1.9c2.93-0.18,5.87-0.23,8.78-0.58
		c7.8-0.94,15.68-1.58,23.36-3.18c4.26-0.89,8.26-3.29,12.17-5.4c0.86-0.47,0.82-2.59,1.35-4.5
		C721.23,727.55,729.49,723.39,738.05,719.07z"/>
	<path class="st95" d="M704.35,521.3c0.95,3.63,2.04,7.22,2.84,10.88c2.19,9.98,4.27,19.99,6.39,29.99c-0.1,1.06-0.2,2.11-0.3,3.17
		c-1.67-8.06-2.88-16.25-5.13-24.14c-2.79-9.8-6.43-19.35-9.7-29.01c1.63,2.72,3.26,5.44,4.88,8.17
		C703.67,520.67,704.01,520.98,704.35,521.3z"/>
	<path class="st96" d="M704.35,521.3c-0.34-0.31-0.68-0.63-1.02-0.94c-0.62-7.01-2.93-13.4-7.08-19.1
		c-2.44-5.35-4.8-10.75-7.36-16.04c-1.33-2.75-3-5.33-4.51-7.99c-0.37-1.24-0.73-2.48-1.1-3.71c1.15-1.46,2.31-2.91,3.66-4.62
		c3.12,6.22,5.91,11.85,8.79,17.43c0.24,0.46,1.07,0.62,1.63,0.92c1.8,4.8,3.6,9.59,5.39,14.4c0.57,1.52,1.09,3.06,1.63,4.59
		c-0.55,1.07-1.64,2.19-1.56,3.22C703.13,513.41,703.81,517.35,704.35,521.3z"/>
	<path class="st97" d="M684.38,477.22c1.52,2.66,3.19,5.24,4.51,7.99c2.56,5.3,4.91,10.69,7.36,16.04c0.02,1.37,0.03,2.74,0.05,4.11
		c-3.15-6.78-6.39-13.53-9.42-20.37C685.78,482.52,685.2,479.82,684.38,477.22z"/>
	<path class="st66" d="M696.3,505.36c-0.02-1.37-0.03-2.74-0.05-4.11c4.15,5.7,6.46,12.09,7.08,19.1c-1.63-2.72-3.26-5.44-4.88-8.16
		C697.73,509.91,697.01,507.63,696.3,505.36z"/>
</g>
</svg>
