<?xml version="1.0" encoding="utf-8"?>
<!-- Generator: Adobe Illustrator 25.4.1, SVG Export Plug-In . SVG Version: 6.00 Build 0)  -->
<svg version="1.1" id="Layer_1" xmlns="http://www.w3.org/2000/svg" xmlns:xlink="http://www.w3.org/1999/xlink" x="0px" y="0px"
	 viewBox="0 0 1920 1080" style="enable-background:new 0 0 1920 1080;" xml:space="preserve">
<style type="text/css">
	.st0{fill:#2E4186;}
	.st1{fill:#94676D;}
	.st2{fill:#5F679A;}
	.st3{fill:#B68673;}
	.st4{fill:#B78572;}
	.st5{fill:#475080;}
	.st6{fill:#B88775;}
	.st7{fill:#E9EBEF;}
	.st8{fill:#DE5C5A;}
	.st9{fill:#6B9D6F;}
	.st10{fill:#DE5C5B;}
	.st11{fill:#6E76A3;}
	.st12{fill:#5BBAFE;}
	.st13{fill:#6D75A3;}
	.st14{fill:#6A9C6F;}
	.st15{fill:#DC5B5A;}
	.st16{fill:#6CE6FF;}
	.st17{fill:#A5B3E6;}
	.st18{fill:#6C75A2;}
	.st19{fill:#F4F3F6;}
	.st20{fill:#F4F7F7;}
	.st21{fill:#DE5D5C;}
	.st22{fill:#F5F1F2;}
	.st23{fill:#F7F6F7;}
	.st24{fill:#F7DEDE;}
	.st25{fill:#FCFCFD;}
	.st26{fill:#558258;}
</style>
<g>
	<path class="st0" d="M381.18,1012.57c0.88-2.18,1.75-4.37,2.83-7.05c-8.93-5.05-6.78-12.72-4.3-20.46
		c3.46-4.13,6.43-8.85,10.51-12.24c4.72-3.92,9.53-8.27,16.15-9.05c1.06-0.21,2.15-0.33,3.18-0.65c16.78-5.25,33.77-9.4,51.38-10.62
		c1.22-0.08,2.42-0.57,3.86-0.92c0-28.11,0-55.89,0-83.68c-19.54-1.3-38.97-2.59-58.4-3.88c-3.91-0.5-7.81-1.01-11.72-1.51
		c-6.72-0.87-13.44-1.73-20.16-2.6c-9.25-2.5-18.5-5.01-27.75-7.51c-4.22-3.77-8.44-7.54-13.04-11.65c-1.11,1.41-2.63,3.21-4.01,5.1
		c-17.37,23.85-32.34,49.12-45.15,75.69c-7.24,15.01-14.39,30.08-21.83,44.99c-1.73,3.47-4.03,6.89-6.81,9.57
		c-36.12,34.82-79.24,55.1-128.9,61.93c-9.97,1.37-19.75,0.21-29.54-0.75c-26.73-2.62-52.79-8.69-78.64-15.8
		c-0.56-0.15-1.02-0.71-2.34-1.66c2.82-0.91,4.99-1.62,7.17-2.32c34.76-11.14,67.02-27.38,96.84-48.3
		c7.46-5.24,13.68-12.25,20.47-18.45c13.7-14.27,24.29-30.55,31.69-48.9c1.14-1.82,2.42-3.56,3.39-5.46
		c5.16-10.1,10.32-20.2,15.33-30.37c3.26-6.62,6.29-13.36,9.42-20.04c1.23-1.78,2.59-3.49,3.68-5.35
		c4.19-7.21,8.27-14.48,12.45-21.69c1.48-2.56,3.11-5.03,5.02-8.11c-7.79-1.02-8.43-5.96-8.31-11.68
		c0.93-43.45,1.62-86.91,2.69-130.37c0.37-15.12,1.59-30.22,2.42-45.32c0.45-1.91,1.18-3.79,1.32-5.72
		c0.95-12.66,1.81-25.32,2.61-37.98c0.09-1.47-0.34-2.97-0.64-5.24c-2.55,0-4.91,0-7.27,0c-21.71,0.01-43.43-0.01-65.14,0.03
		c-12.06,0.02-24.11,0.15-36.17,0.23c1.54,0.4,3.09,1.13,4.63,1.14c23.09,0.08,46.18,0.05,69.28,0.06c9.46,0,18.91,0.01,28.37,0.02
		c2.16,0,4.32,0,6.77,0c1.03-9.57,1.68-18.55,3.02-27.41c2.22-14.76,4.05-29.65,7.52-44.13c10.16-42.43,38.38-67.27,79.41-78.81
		c6.95-1.95,14.2-2.82,21.32-4.18c1.92-0.37,3.86-0.67,6.11-1.06c0.51-8.54,0.96-16.85,1.55-25.15c0.2-2.78-0.94-4.51-3.25-5.88
		c-8.7-5.13-17.98-8.11-28.17-7.96c-10.22,0.15-20.1,1.94-29.46,6.18c-0.98,0.44-1.99,0.8-3.42,1.37c-2.03-3.2-3.98-6.28-6.38-10.07
		c-11.05,4.17-18.82,11.61-24.2,22.53c-4.32-3.56-8.23-6.94-12.3-10.11c-12.43-9.67-26.27-14.85-42.29-13.33
		c-7.36,0.7-14,3.29-20.66,7.38c-6.9-15.87-16.66-29.28-30.52-39.12c-13.75-9.75-29.51-14.1-46.56-14.65
		c0.28-3.65,2.94-5.09,5.31-6.41c21.61-12.07,44.03-22,68.92-24.99c6.94-0.83,13.93-1.21,21.98-1.89
		c-9.83-12.89-22.32-21.75-36.31-30.31c2.03-0.94,3.06-1.81,4.13-1.86c26.4-1.3,52.8-1.4,78.87,3.43
		c10.96,2.03,21.71,5.47,32.31,9.01c14.15,4.73,28.03,10.26,42.09,15.28c4.87,1.74,7.9,4.79,10.04,9.54
		c6.12,13.62,12.65,27.05,19.05,40.54c0.6,1.27,1.45,2.42,2.56,4.24c0.46-1.31,0.79-1.85,0.82-2.39c1.07-21.95,2.02-43.9,3.17-65.84
		c1.49-28.52,3.16-57.03,4.67-85.54c0.71-13.38,1.23-26.78,1.87-40.17c0.35-7.24,0.79-14.48,1.13-21.72
		c0.1-2.16,0.02-4.33,0.02-6.68c-8.96-2.07-17.64-4.31-26.41-6.02c-4.34-0.85-6.17-2.85-6.95-7.23c-2.63-14.9-5.72-29.71-8.59-44.57
		c-0.07-0.35,0.27-0.78,0.59-1.62c17.5,10.48,34.93,20.93,52.93,31.72c2.64-3.07,5-5.81,7.54-8.76
		c-7.12-14.21-14.1-28.13-21.06-42.05c-1.37-2.75-2.77-5.5-3.95-8.33c-0.36-0.87-0.39-2.6,0.1-2.94c0.91-0.61,2.53-0.97,3.48-0.56
		c2.19,0.94,4.16,2.41,6.21,3.66c-0.53,0.82-1.05,1.65-1.58,2.47c0.39,0.85,0.78,1.71,1.18,2.56c0.6,0.5,1.19,1.01,1.79,1.51
		l-0.06-0.05c0.9,1.78,1.8,3.55,2.7,5.33c0.28,0.87,0.56,1.74,0.84,2.62c1.58,3.29,3.15,6.58,4.82,10.05
		c1.85-0.98,3.19-1.69,4.54-2.4c0.9,0.21,1.8,0.41,2.7,0.62c-2.03,1.87-4.07,3.74-6.04,5.55c1.4,2.11,2.38,4.09,3.84,5.59
		c0.89,0.92,2.53,1.11,3.83,1.63c0.16,3.07-1.94,6.74,2.96,9.02c5.31-5.26,10.81-10.7,16.3-16.15c0.93-1.09,1.86-2.18,2.79-3.27
		c2.28-0.15,4.66-0.1,5.55-2.91c0,0-0.06,0.05-0.06,0.05c0.48-0.41,0.97-0.82,1.45-1.23c2.92-2.08,1.7-4.33,0.42-6.75
		c-6.18-11.78-12.33-23.58-18.37-35.43c-1.11-2.18-3.23-4.42-0.78-7.45c4.18,0.22,7.37,2.93,10.83,4.97
		c0.77,0.42,1.54,0.84,2.32,1.27c0,0,0.27,0.12,0.27,0.12c0.18,0.67,0.36,1.35,0.54,2.02c-1.77-0.13-3.55-0.25-5.32-0.38
		c-0.2,0.34-0.39,0.68-0.59,1.02c1.29,1.19,2.57,2.39,3.86,3.58c0.52,0.48,1.03,0.96,1.55,1.45c-0.36,5.53,1.43,8.01,6.65,9.21
		c-0.51,1.92-2.23,3.73-0.41,5.84c1.77,2.07,1.5,6.09,5.64,5.87c0.04,0.99,0.08,1.99,0.12,2.98c0.62,1.41,1.24,2.82,2.2,4.99
		c5.85-4.33,10.88-8.06,15.91-11.79c1.16-0.59,2.41-1.05,3.47-1.79c1.86-1.29,0.42-2.05-0.61-2.82c1.37-0.23,2.74-0.46,4.11-0.69
		c1.8-0.71,3.64-1.33,5.4-2.13c10.37-4.69,20.72-9.43,31.3-14.25c1.33,1.88,2.33,2.99,3.01,4.27C490.57,48.25,503.36,72.29,516,96.4
		c1.92,3.67,4.39,6.19,8.25,7.9c20.06,8.91,40.05,17.99,60,27.15c3.08,1.41,5.7,1.23,8.8,0.15c20.53-7.17,41.41-13.1,63.41-17.4
		c18.55,24.04,34.82,49.66,48.11,77.96c-6.09,1.86-11.96,2.02-17.75,2.17c-18.47,0.47-36.91-0.23-55.28-2.37
		c-4.8-0.56-9.65-0.73-14.43-1.37c-2.9-0.39-4.9,0.69-7.15,2.36c-9.17,6.79-18.55,13.3-27.82,19.98c-5.07,3.65-10.57,4.88-16.8,3.95
		c-22.58-3.34-45.2-6.46-67.79-9.75c-7.77-1.13-15.51-2.51-24.38-3.95c11.71,75.09,23.29,149.32,34.9,223.77
		c12.33,2.77,18.79,11.9,24.86,21.45c0.09,0.86,0.01,1.79,0.3,2.58c3.86,10.25,6.3,20.76,6.42,31.78c0.02,1.57,0.9,3.29,1.82,4.66
		c1.32,1.96,3.03,3.65,4.57,5.45c7.16,6.95,14.33,13.91,21.69,21.07c0.5-1.08,0.86-1.62,1.01-2.21
		c5.16-20.38,10.31-40.76,15.45-61.14c1.6-6.11,3.19-12.21,4.79-18.32c2.44-8.75,5.22-17.43,7.19-26.29
		c1.16-5.21,1.05-10.7,1.51-16.07c0.46-5.62,0.7-11.27,1.45-16.85c0.74-5.56,2.81-11.11-1.75-16.82c-3.75,0.22-7.82,0.47-11.9,0.71
		c3.06-0.07,6.11-0.16,9.17-0.21c6.2-0.11,6.16-0.1,6.78-6.05c0.9-8.71,2.03-17.39,2.7-26.12c0.35-4.63,1.48-8.54,5.61-11.16
		c0.68-0.43,1.09-1.31,1.89-2.31c-4.26-4.47-8.46-8.89-12.67-13.3c-1.78-1.86-4.16-3.43-2.28-6.68c0.35-0.6-0.47-1.95-0.87-2.9
		c-2.64-6.38-2.33-7.66,3.22-13.02c1.09,0.13,2.18,0.26,3.27,0.39c0.17,0.23,0.19,0.47,0.07,0.74c-5.72,3.71-6.17,5.67-2.07,10.63
		c2.63-2.08,5.28-4.17,7.93-6.27c-0.01-1.08,0.35-2.89-0.08-3.11c-1.84-0.91-3.91-1.34-5.89-1.94c-0.26-0.64-0.53-1.28-0.79-1.92
		c0,0,0.01,0.01,0.01,0.01c2.66,0.05,5.32,0.09,7.98,0.14c0,0,0.06,0.03,0.06,0.03c1.78,1.27,3.55,2.54,5.33,3.81
		c-0.53,1.33-1.05,2.67-1.58,4c-2.21,1.63-4.48,3.2-6.63,4.92c-2.14,1.71-4.16,3.56-6.66,5.72c2.85,2.87,5.36,5.39,7.62,7.65
		c2.4-0.94,4.17-1.64,5.93-2.33c-0.84,1.91-1.69,3.81-2.49,5.62c4.1,4.15,4.14,4.2,8.06,1.5c2.67-1.84,5.21-3.86,7.81-5.79
		c0.81,0.37,1.63,0.75,2.44,1.13c-4.94,4.35-9.76,8.86-14.87,13c-3.5,2.83-4.98,6.06-5.23,10.64c-1.1,19.53-2.5,39.04-4.05,58.54
		c-0.66,8.31-1.06,16.8-3.13,24.81c-9.27,35.71-19.02,71.3-28.86,106.87c-1.21,4.37-0.58,7.17,3.16,9.41
		c0.94,1.4,1.88,2.81,3.01,4.51c-1.31,0.3-2.14,0.49-2.98,0.68c-3.53-2.47-7.44-4.54-10.52-7.48c-7.42-7.08-14.44-14.58-21.65-21.88
		c-1.13-1.15-2.45-2.11-4.74-4.05c0.6,2.99,0.92,4.64,1.25,6.28c0.44,22.34,1.5,44.7,1.01,67.03c-0.2,9.25,2.31,14.12,10.8,17.84
		c14.91,6.54,29.89,12.52,45.96,15.46c9.18,1.68,10.07,1.3,14.11-7.28c0.65-1.38,1.15-2.84,1.72-4.26c0.82-1.56,1.64-3.12,2.46-4.68
		c2.68-6.04,5.37-12.09,8.05-18.13c0.87-2.05,1.75-4.11,2.62-6.16c3-7.88,6-15.75,8.99-23.63c0.67-1.88,1.33-3.75,2-5.63
		c0.34-0.56,0.78-1.09,0.99-1.7c12.76-36.66,23.48-73.9,31.54-111.89c0.35-1.66,0.44-3.48,0.16-5.15c-0.94-5.62-1.09-6.4,3.83-8.98
		c5.6-2.94,7.39-6.96,7.32-13.19c-0.14-11.6,0.64-23.22,1.1-34.83c0.09-2.25-0.47-5.1,4-5.2c0.47,4.8,0.95,9.62,1.48,15.11
		c3.4-2.22,6.09-4.05,8.84-5.76c2.32-1.44,3.06-3.44,2.91-6.11c-0.49-8.53-0.83-17.07-1.22-25.6c-0.06-1.32-0.12-2.65-0.19-4.07
		c-2.51,0.37-4.39,0.65-6.27,0.93c-2.78,0.06-2.59-2.55-3.64-4.05c-1.76-2.39-3.53-4.77-5.29-7.16c-0.62-3.14-2.25-4.62-5.59-3.55
		c-1.66,0.53-3.39,0.86-5.07,1.36c-10.01,2.99-20.02,5.99-30.02,8.99c-2.01-0.38-4.44,2.33-6.8-1.6c9.27-2.98,18.14-5.82,28.57-9.17
		c-7.89-5.3-14.35-9.63-20.8-13.96c-1.06-1.13-2.12-2.25-3.18-3.38c-1.63-1.52-0.89-3.02,0.04-4.51c1.35,0.33,2.91,0.32,4,1.04
		c7.34,4.81,14.67,9.65,21.81,14.74c4.06,2.89,7.9,3.97,12.86,2.15c6.04-2.22,6.17-1.87,9.75,3.07c2.7,3.72,5.39,7.45,8.22,11.36
		c1.74,0.08,3.63,0.16,6.27,0.28c0.81,11.76,1.61,23.25,2.47,35.68c55.26,0,110.31,0,165.38,0.01c-1.01-0.18-2.06-0.53-3.1-0.53
		c-51.53-0.01-103.07,0.01-154.6,0.05c-1.68,0-3.37,0.31-5.22,0.5c0,1.88,0,3.33,0,4.72c-2.79,0.61-5.35,1.17-8.24,1.8
		c3.05,4.34,5.16,8.18,8.06,11.29c5.33,5.72,11.12,11,16.72,16.47c0.65,2.29,1.14,4.63,1.98,6.84c1.78,4.72,3.84,9.34,5.56,14.08
		c0.53,1.47,0.31,3.2,0.51,5.85c-5.98-1.75-10.94-3.29-15.95-4.65c-7.89-2.15-14.36-6.24-19.44-12.78c-2.56-3.3-5.87-6.03-9.52-9.69
		c-0.28,2.2-0.5,3.05-0.49,3.9c0.07,4.85-0.82,9.03-5.94,11.31c-1.32,0.59-2.48,2.48-2.9,3.99c-1.17,4.21-1.92,8.54-2.84,12.82
		c-2.15,9.18-4.3,18.36-6.46,27.54c-0.41,0.99-0.91,1.96-1.22,2.98c-8,26.89-15.96,53.8-23.99,80.69
		c-1.56,5.21-3.43,10.33-5.16,15.5c-1.39,2.91-2.98,5.74-4.12,8.74c-2.24,5.84-4.23,11.78-6.32,17.68
		c-1.77,3.01-3.73,5.94-5.28,9.06c-3.41,6.88-6.62,13.85-9.88,20.8c-1.7,3.63-4.32,5.12-8.41,4.33
		c-13.13-2.53-26.31-4.84-38.86-9.72c-3.25-1.26-6.54-2.44-9.82-3.66c-0.33-0.13-0.66-0.26-0.99-0.38c0.11,0.34,0.23,0.69,0.34,1.03
		c1.11,8.66,2.22,17.32,3.33,25.98c0.67,7.8,1.33,15.6,2,23.42c10,0.56,19.19,0.91,28.36,1.61c33.31,2.53,65.6,9.85,96.88,21.46
		c32.06,11.9,62.48,27.05,90.36,47.01c5.1,3.65,5.22,3.66,3.73,9.67c-7.21,28.99-14.72,57.91-21.68,86.95
		c-7.84,32.69-15.22,65.49-22.77,98.25c-0.39,1.69-0.56,3.43-0.95,5.89c34.96,0,69.55,0,104.11,0c0.82,2.03,1.52,3.4,1.92,4.85
		c5.2,18.62,10.36,37.25,15.53,55.87c0.29,1.06,0.62,2.11,0.79,3.19c0.59,3.81-0.48,5.39-4.28,5.73c-3.28,0.29-6.59,0.22-9.89,0.22
		c-61.58,0-123.15-0.01-184.73-0.02c-0.88,0-1.76,0.03-2.64-0.03c-4.69-0.31-4.95-0.57-6.17-6.12c-18.75,0-37.58,0-56.83,0
		c0.73,2.94,1.58,5.82,2.15,8.74c1.04,5.3-1.15,9.05-6.34,10.56c-3.33,0.97-6.8,1.49-10.02,2.18c-0.24,0.72-0.57,1.2-0.45,1.46
		c7.01,14.72,3.27,28.2-4.7,41.2c-0.23,0.37-0.5,0.72-0.77,1.07c-4.52,5.73-10.14,9.5-17.67,7.52c-7.42-1.95-10.85-7.8-12.09-15.01
		c-1.48-8.63-0.65-17.07,2.34-25.31c0.73-2.02,1.4-4.06,2.26-6.57c-23.04,1.19-45.54,2.35-69.17,3.56
		c10.32,11.82,13.59,24.22,7.24,38.17c-0.28-0.26-0.57-0.52-0.86-0.77c0.04-2.82,0.08-5.64,0.11-8.46
		c0.07-5.55-1.39-10.71-4.12-15.5c-1.97-3.46-4.71-5.65-9.02-4.87c-0.49,0.01-0.98,0.02-1.46,0.02c-2.33,0.11-4.67,0.25-7,0.32
		c-3.35,0.1-6.7,0.15-10.05,0.22c-2.73-0.25-5.45-0.59-8.18-0.72c-1.82-0.09-3.47-0.15-3.68-2.49c0.69-1.5,1.39-3.01,2.36-5.11
		c-11.16,0-21.73,0-32.24,0c-0.62,5.51-0.84,11.12-1.96,16.54c-1.25,6.06-4.09,11.64-8.86,15.7c-2.35,2-5.63,2.91-8.49,4.32
		c-2.41-0.41-4.82-0.83-7.23-1.24c-0.69-0.38-1.39-0.77-2.08-1.15c0,0,0.22,0.11,0.22,0.11c-0.46-0.43-0.91-0.86-1.36-1.29
		c0,0,0.1,0.23,0.1,0.23c-1.22-3.71-2.45-7.43-3.67-11.14c-0.02-0.83-0.05-1.66-0.07-2.49c0-0.91,0.01-1.81,0.01-2.72
		c0.78,0,1.56,0,2.34,0c1.85,3.89,3.7,7.78,5.54,11.67c5.92,3.03,12.67,2.14,16.3-2.75c3.91-5.27,5.21-11.48,4.48-17.98
		c-0.29-2.6-1.75-4.35-4.82-4.22c-5.01,0.21-10.04,0.25-15.05,0.36c-1.72,0.28-3.31-2.61-5.12-0.23
		C381.98,1014.41,381.58,1013.49,381.18,1012.57z M155.28,1024.89c0,0,0.55-0.22,0.55-0.22c2.95-0.91,5.9-1.82,8.85-2.72
		c4.51-1.75,9.01-3.51,13.52-5.26c0.84-0.23,1.7-0.39,2.5-0.71c26.07-10.23,49.16-25,69.03-44.84c4.89-4.89,8.84-10.1,11.63-16.48
		c11.69-26.72,24.12-53.1,38.87-78.32c11.87-20.31,25.78-39.17,40.92-57.14c2.13-1.9,4.24-3.81,6.38-5.69
		c10.7-9.38,22.33-17.09,36.45-20.34c2.52-0.58,5.05-1.1,7.52-1.63c0-4.82,0-9.27,0-14.32c-17.25,0-33.9,0-51.13,0
		c-0.39,2.1-1.02,4.4-1.23,6.73c-0.65,7.43-1.15,14.88-1.69,22.32c-0.35,4.87-0.37,4.84-5.23,5.87c-15.09,3.2-30.41,4.76-45.78,4.76
		c-13.36-0.01-26.74-1.15-40.09-2.1c-6.31-0.45-12.56-1.61-19.01-2.46c-0.93,1.35-1.93,2.51-2.62,3.84
		c-8.79,16.98-17.54,33.97-26.25,50.99c-0.58,1.13-0.73,2.48-1.08,3.73c-0.04,0.25,0.04,0.45,0.26,0.59c0,0,0.07-0.11,0.06-0.11
		c-3.92,6.6-7.84,13.21-11.76,19.81c-4.62,8.2-9.19,16.44-13.89,24.59c-3.94,6.83-7.62,13.87-12.16,20.29
		c-17.73,25.09-41.55,43.31-68.17,57.78c-15.17,8.24-31.35,14.64-47.08,21.87c-2.28,0.83-4.55,1.66-6.83,2.49
		c0.11,0.31,0.22,0.62,0.33,0.93c1.24,0.12,2.49,0.24,3.73,0.36c2.49,0.78,4.94,1.77,7.48,2.32c17.96,3.9,36.05,6.83,54.4,8.52
		c16.13,1.49,31.88,1.34,47.26-4.28c0.61-0.22,1.27-0.33,1.91-0.5C153.71,1025.33,154.5,1025.11,155.28,1024.89z M321.84,82.59
		l-0.06-0.05c0.17,2.16,0.06,4.38,0.55,6.46c1.44,6.19,3.38,12.28,4.61,18.51c0.9,4.51,3.05,6.69,7.66,7.48
		c8.37,1.42,16.64,3.44,24.97,5.21c0,4.29,0.11,8.21-0.02,12.11c-0.56,16.22-1.2,32.44-1.8,48.67c0.03,1.22,0.05,2.44,0.08,3.66
		c-0.47,11.97-0.94,23.94-1.41,35.91c0,1.04,0,2.08,0.01,3.12c-0.48,15-0.97,30.01-1.45,45.01c-0.17,1.74-0.43,3.48-0.49,5.22
		c-1.07,28.47-1.94,56.94-3.29,85.4c-0.32,6.7,0.97,12.51,4.72,17.91c3.93,9.21,7.85,18.43,11.85,27.8
		c-5.16,1.75-7.47-2.2-10.78-3.3c-1.92-1.5-3.85-3-6.9-5.39c0,8.94,0,16.23,0,23.52c2.45,0,4.63,0,6.82,0
		c2.73,0.55,6.12,0.3,8.01,1.86c2.19,1.8,3.85,1.9,6.38,1.72c11.75-0.82,23.53-1.34,35.03-1.96c1.44,2.23,2.46,3.81,3.32,5.14
		c19.95,0,39.41,0,58.87,0c1.03,0,2.07,0,4.65,0c-6.99-6.52-11.5-13.53-18.54-18.11c-2.06-4.43-7.87-6.93-7.28-14.61
		c2.72,2.13,4.48,3.23,5.91,4.67c6.17,6.23,12.25,12.54,18.33,18.85c9.5,9.85,9.49,9.86,23.17,9.25c1.65,0,3.31,0,5.12,0
		c0-1.71,0.13-2.8-0.02-3.85c-2.29-15.62-4.56-31.25-6.96-46.86c-0.96-6.24-2.22-12.43-3.34-18.65c-2.84-20.2-5.62-40.4-8.54-60.58
		c-3.3-22.79-6.72-45.57-10.13-68.35c-1.29-8.62-2.7-17.22-4.07-25.92c-2.56-0.48-4.48-0.86-6.4-1.2
		c-11.88-2.13-23.75-4.28-35.64-6.37c-3.65-0.64-6.56-2.07-7.95-6.73c7.02,1,13.46,1.81,19.87,2.84
		c42.26,6.75,84.5,13.58,126.77,20.25c2.49,0.39,5.46,0.42,7.68-0.56c10.86-4.83,21.39-10.33,30.11-18.65
		c0.98-0.93,1.69-2.13,2.73-3.47c-4.51-1.03-8.39-1.77-12.2-2.8c-35.57-9.63-69.55-23.35-102.1-40.53
		c-13.59-7.17-26.72-15.22-39.99-23c-2.68-1.57-5.7-3.08-7.05-8.19c3.21,1.85,5.22,2.92,7.15,4.13
		c34.24,21.38,70.22,39.16,108.44,52.27c18.5,6.35,37.25,12.02,56.62,14.96c24.38,3.7,48.97,4.46,73.61,3.84
		c1.17-0.03,2.32-0.39,4.05-0.69c-1.65-3.36-2.9-6.16-4.37-8.83c-1.04-1.89-2.38-3.62-3.59-5.42c-4.25-7.8-8.49-15.59-12.74-23.39
		c-5.91-9.18-11.83-18.36-17.46-27.09c-1.66-0.07-2.33-0.24-2.95-0.11c-15.88,3.36-32.01,5.85-47.52,10.45
		c-10.65,3.16-19.61,2.07-29.47-2.29c-18.43-8.14-37.32-15.23-56.02-22.76c-4.32-6.69-8.63-13.39-12.95-20.08
		c-0.23-0.61-0.37-1.27-0.69-1.82c-10.58-17.88-21.17-35.76-31.79-53.62c-0.63-1.06-1.57-1.94-2.59-3.17
		c-10.72,4.94-21.5,9.11-30.96,15.94c-23.97,13.13-45.83,29.07-64.97,48.64c-2.83,2.59-5.67,5.19-8.74,8
		c-11.01-6.54-21.86-12.98-32.7-19.42c-0.23,0.28-0.47,0.57-0.7,0.85c0.75,1.52,1.5,3.04,2.25,4.56c0.6,0.49,1.21,0.99,1.81,1.48
		l-0.05-0.04c-0.72,2.97,0.59,5.49,2.96,6.61c6.61,3.13,13.22,6.53,20.83,6.65l-0.05-0.03c0.48,0.42,0.96,0.84,1.44,1.26l-0.04-0.05
		c-0.09,1.21-0.18,2.41-0.35,4.69c-9.12-2.98-17.61-5.59-25.95-8.62c-1.52-0.55-2.79-2.64-3.52-4.31
		c-1.83-4.19-3.29-8.55-4.89-12.85c-1.78-6.47-1.78-6.47-7.39-7.44c0.47,1.71,0.92,3.34,1.36,4.97
		C321.09,81.76,321.47,82.18,321.84,82.59z M364.47,466.42c-0.01,1.53-0.02,3.06-0.03,4.6c-0.96,12.88-1.95,25.76-2.88,38.64
		c-1.35,18.56-2.61,37.12-4,55.68c-1.23,16.37-2.6,32.72-3.89,49.09c-0.47,5.89-0.94,11.78-1.3,17.68c-0.06,0.98,0.47,2,0.84,3.42
		c21.77-0.4,42.8-3.41,63.38-9.9c-0.47-8.51-0.75-16.37-1.36-24.21c-1.08-13.74-2.48-27.46-3.54-41.21
		c-1.1-14.41-1.94-28.85-2.93-43.27c-0.42-6.12-0.9-12.23-1.42-18.34c-1.18-13.73-2.48-27.46-3.57-41.2
		c-0.69-8.74-1.03-17.5-1.62-26.24c-0.08-1.23-0.7-2.43-1.09-3.71c-9.46-1.43-18.58,0.13-27.73,0.77c-2.11,0-4.23,0-7.08,0
		C365.64,441.41,365.06,453.92,364.47,466.42z M174.01,372.72c0,0-0.08,0.05-0.08,0.05c1.27-0.19,2.62-0.17,3.8-0.6
		c17.47-6.43,33.75-3.49,48.92,6.56c5.09,3.37,9.59,7.65,14.36,11.51c0.97,1.28,1.95,2.55,3.29,4.3c1-1.77,1.68-2.97,2.36-4.17
		c6.1-6.2,12.12-12.52,21.29-15.01c-4.19-6.2-8.6-10.65-14.2-13.91c-1.25-0.85-2.49-1.7-3.74-2.55c-1.79-1.2-3.49-2.57-5.39-3.57
		c-9.47-4.96-19.62-6.88-30.25-6.61c-2.28,0.06-4.56-0.09-6.39-0.14c-0.81-6.26-1.5-11.61-2.2-16.95c-0.25-1.24-0.5-2.48-0.74-3.72
		c-1.07-7.71-4.08-14.63-8.54-20.96c-1.3-6.12-6.02-3.94-9.56-3.62c-24.76,2.27-48.21,9.3-70.59,20.03c-1.63,0.78-3.19,1.7-5.98,3.2
		c4.76,0.97,8.18,1.66,11.59,2.35c1.87,0.64,3.75,1.25,5.6,1.94c11.91,4.42,22.9,10.46,30.84,20.58
		c4.29,5.45,7.35,11.87,10.97,17.85c0.88,1.63,1.76,3.26,2.65,4.9C172.69,373.69,173.35,373.21,174.01,372.72z M693.92,370.13
		c-1.66,0.91-3.88,1.42-4.87,2.81c-1.76,2.48-0.14,11.21,2.08,13.56c3.92,4.15,8.18,8,11.81,12.38c5.32,6.42,12.16,9,20.1,6.87
		c-0.32,3.91,1.94,4.38,5.59,4.17c-1.14-3.16-3.28-3.78-5.62-4.15c-0.06-0.99-0.12-1.98-0.17-2.97c1.26-5.05-1.24-9.23-4.26-12.43
		c-7.21-7.63-15.04-14.67-22.85-22.18C695.34,368.63,694.63,369.38,693.92,370.13z M554.07,1011.35c-2.54-2.3-3.9-0.73-4.84,1.59
		c-2.33,5.79-3.42,11.74-2.27,17.99c1.17,6.38,2.64,12.54,9.34,15.58c7.29,1.5,13.72,0.27,17.52-6.76
		c4.58-8.46,5.32-17.43,2.24-26.62c-0.81-2.43-2.48-3.39-5.03-3.16C565.39,1010.49,559.73,1010.9,554.07,1011.35z M533.05,529.81
		c-0.04-14.66,0.35-29.33-0.29-43.97c-0.37-8.48-1.73-17.05-3.8-25.29c-5.17-20.54-16.45-28.37-34.76-28.35
		c-26.75,0.02-53.5-0.11-80.25-0.15c-1.43,0-2.85,0.27-4.71,0.47c0.45,1.59,0.73,2.59,1.02,3.6c0.41,5.45,0.89,10.9,1.21,16.36
		c0.54,9.41,0.79,18.83,1.51,28.23c1.09,14.17,2.52,28.32,3.72,42.49c0.94,11.12,1.74,22.25,2.64,33.37
		c1.36,16.79,2.74,33.59,4.16,50.37c0.09,1.02,0.57,2.02,0.97,3.39c2.36,0,4.55,0.14,6.71-0.02c11.35-0.88,22.78-1.28,34.01-2.97
		c8.37-1.26,16.8-3.43,24.64-6.6c14.68-5.94,24.3-17.69,31.82-31.15c5.04-9.03,8.73-18.64,10.05-29.01
		C532.15,536.98,532.6,533.4,533.05,529.81z M474.9,958.66c5.68,2.64,10.95-0.03,16.76-0.94c0-26.89,0-53.44,0-80.38
		c-6.84,1.91-13.3,3.71-19.76,5.52c-0.26,1.69-0.73,3.37-0.74,5.06c-0.08,22.69-0.11,45.38-0.12,68.07c0,0.81,0.29,1.63,0.49,2.67
		C472.79,958.66,473.84,958.66,474.9,958.66z M283.15,379.21c2.12-0.39,4.31-0.58,6.36-1.21c17.07-5.21,33.33-2.9,49.01,5.09
		c3.5,1.78,6.94,3.68,10.41,5.53c2.14,1.49,4.29,2.98,6.43,4.47c0.3-1.85-0.04-2.87-0.5-3.82c-6.45-13.43-12.77-26.93-19.43-40.27
		c-6.47-12.95-13.4-25.67-19.9-38.61c-2.08-4.15-4.97-7.04-9.07-9.07c-17.73-8.8-35.98-16.4-55.14-21.29
		c-23.31-5.95-47.21-7.4-71.2-7.22c-0.34,0-0.68,0.4-1.02,0.61c0.11,0.39,0.08,0.95,0.34,1.14c1.38,1.07,2.83,2.05,4.26,3.06
		c2.27,2.36,4.58,4.69,6.81,7.08c13.8,14.81,22.08,31.87,21.47,52.56c-1.26,3.99-1.15,4.15,2.59,3.85
		c14.47-0.35,27.48,4.02,39.3,12.2c9.49,6.56,16.81,15.11,22.85,24.84c0.6,1.26,1.2,2.52,1.99,4.17
		C280.48,381.1,281.82,380.15,283.15,379.21z M464.86,958.51c0.02-4.27-3.22-2.82-5.21-2.68c-20.04,1.46-39.16,6.53-57.3,15.18
		c-2.54,1.21-4.9,2.88-7.19,4.55c-5.1,3.72-8.69,8.56-10.46,14.68c-1.3,4.52-0.69,6.66,3.21,8.79c3.63,1.99,7.41,3.86,11.82,3.07
		c21.51,0.34,43.03,1.28,64.52,0.85c19.74-0.39,39.46-2.08,59.16-3.49c15.76-1.12,31.49-2.59,47.22-4.1
		c4.2-0.4,8.33-1.49,12.64-2.28c-1.88-8.95-6.44-14.85-13.1-19.3c-13.8-9.22-29.32-13.79-45.45-16.51
		c-8.83-1.49-17.64-3.53-25.47-2.83c-2.78,2.96-4.41,5.9-6.88,7.09c-6.4,3.09-13.35,4.36-20.48,2.91
		C468.56,963.78,465.53,962.46,464.86,958.51z M371.65,641.63c-5.47,0.48-10.94,0.98-16.41,1.44c-2.29,0.19-3.86,0.94-3.07,4.36
		c2.22,0,4.58,0.01,6.95,0c10.99-0.07,21.97-0.2,32.96-0.2c4.74,0,5.26,0.58,5.72,5.19c0.11,1.09,0.12,2.19,0.12,3.29
		c0.05,36.46,0.05,72.93,0.16,109.39c0.05,16,0.33,32,0.52,48.37c1.61,0,2.66,0,3.7,0c8.06,2.52,16.27,1.34,25.14,1.67
		c0-19.27-0.01-37.88,0-56.48c0.02-18.89,0.24-37.78,0.05-56.67c-0.19-18.5,1.17-37.01-1.34-55.7c6.96-0.59,13.06-1.08,19.16-1.63
		c16.22-1.45,32.24-4.08,47.79-9.02c14.26-4.53,27.18-11.17,36.45-23.55c2.49-3.32,3.83-6.62,3.82-10.85
		c-0.03-9.43,0.45-18.87,0.62-28.3c0.11-5.98,0.02-11.97,0.02-17.96c-1.43,1.21-1.9,2.58-2.47,3.91
		c-2.41,5.64-4.46,11.48-7.33,16.88c-11.36,21.36-28.48,34.97-53.11,37.31c-12.87,1.22-25.83,1.47-38.75,2.11
		c-2.34,0.12-4.69,0.02-7.33,0.02c0,5.46,0,10.18,0,15.5c-8.4,1.98-16.64,4.12-24.97,5.82
		C390.63,638.44,381.12,639.95,371.65,641.63z M556.91,928c3.35-21.86,7.61-43.58,10.61-66.34c-2.7,0.55-4.34,0.88-5.99,1.22
		c-21.57,1.37-43.13,2.74-65.2,4.14c0,2.81-0.03,4.97,0,7.14c0.2,13.17,0.48,26.33,0.61,39.5c0.1,10.32,0.01,20.65,0.07,30.97
		c0.01,1.88,0.31,3.76,0.42,5.05c12.63,1.25,24.65,2.02,36.54,3.7c17.55,2.48,34.17,7.82,49.13,17.76c2.01,1.34,4.85,1.96,7.32,1.99
		c13.84,0.19,27.68,0.11,41.52,0.08c1.69,0,3.38-0.26,5.45-0.44c-0.25-1.44-0.22-2.57-0.65-3.48c-4.64-9.7-9.44-19.33-14-29.07
		c-1.41-3.01-3.71-3.23-6.49-3.2c-9.45,0.09-18.89,0.12-28.34,0.03c-2.27-0.02-4.54-0.55-6.81-0.84c-0.01-0.53-0.02-1.07-0.04-1.6
		c1.82-0.34,3.63-0.95,5.46-0.96c11.2-0.1,22.41,0.04,33.61-0.15c3.41-0.06,5.2,1.45,6.6,4.27c5.07,10.22,10.33,20.34,15.35,30.58
		c2.62,5.35,2.55,5.47,9.86,3.72c0-5.21,0-10.66,0-16.1c1.28-2.26,0.49-4.16-0.92-6.05c-5.54-7.36-11.16-14.65-16.5-22.16
		c-2.3-3.23-5.01-4.24-8.87-4.23c-17.11,0.07-34.23-0.14-51.34-0.26c-2.63-0.02-5.27,0.03-7.9-0.14c-2.72-0.17-3.36,1.47-3.55,3.64
		C560.88,927.2,558.9,927.6,556.91,928z M498.24,858c11.59-0.42,23.18-0.78,34.76-1.3c5.68-0.26,11.35-0.73,17-1.29
		c11.96-1.17,23.9-2.43,35.85-3.68c9.35-0.98,18.7-1.91,28.03-3.03c9.1-1.09,18.17-2.49,27.28-3.58c5.22-0.62,6.24-1.54,4.57-6.75
		c-1.93-6.01-4.25-11.94-6.92-17.66c-2.24-4.8-4.04-5.58-8.96-4.52c-17.21,3.7-34.78,3.62-52.2,4.84
		c-16.39,1.14-32.86,1.07-49.3,1.46c-21.7,0.5-43.41,1.21-65.12,1.29c-15.11,0.05-30.23-0.81-45.35-1.26
		c-0.66-0.02-1.31-0.09-1.97-0.16c-11.3-1.21-22.57-2.72-33.9-3.54c-7.36-0.53-14.23-2.25-20.82-5.4c-0.85-0.15-2.01-0.72-2.51-0.36
		c-1.77,1.27-3.4,2.79-4.94,4.34c-6.15,6.17-12.39,12.26-17.11,19.58c2.51,4.38,5.88,7.33,10.08,8.73
		c7.26,2.42,14.61,4.8,22.12,6.17c23.38,4.28,47.03,6.62,70.77,6.99C459.15,859.19,478.7,858.34,498.24,858z M265.79,459.79
		c-2.06,1.81-4.49,3.34-6.13,5.47c-10.93,14.18-17.82,30.16-21.05,47.79c-4.08,22.29-6.86,44.71-8.27,67.35
		c-1.71,27.41-4.55,54.77-5.78,82.2c-1.44,32.06-1.78,64.17-2.39,96.26c-0.27,14.04-0.05,28.1-0.05,43.05
		c2.67,0.35,5.61,0.74,8.54,1.13c11.86,1.69,23.67,4.21,35.59,4.89c19.95,1.15,39.91-0.11,59.79-2.22c3.6-0.38,4.81-1.92,5.14-5.36
		c1.57-16.34,3.49-32.64,5.02-48.99c1.12-11.99,1.79-24.03,2.69-36.04c1.38-18.35,2.77-36.69,4.17-55.04
		c0.45-5.9,0.93-11.79,1.45-17.68c1.22-13.74,2.54-27.46,3.69-41.2c0.64-7.64,0.89-15.32,1.54-22.96
		c1.13-13.3,2.51-26.58,3.65-39.88c0.97-11.35,1.85-22.7,2.6-34.06c1.06-15.96,1.94-31.94,2.94-47.91c0.14-2.18,0.54-4.34,0.73-6.52
		c0.67-7.59,0.62-15.17,0.31-23.13c-12.94-0.33-24.86-0.52-36.77,2.47c-17.42,4.37-33.97,10.54-48.54,21.19
		C271.27,453.06,268.72,456.69,265.79,459.79z M844.18,978.16c2.1,0,4.19,0,6.75,0c-5.08-18.38-9.98-36.08-14.96-54.09
		c-2.42,0-4.37,0-6.32,0c-31.66-0.02-63.32-0.03-94.98-0.07c-6.59-0.01-13.18-0.14-19.77-0.22c0.95-1.35,1.9-2.7,2.85-4.04
		c2.68-0.83,5.36-1.67,8.16-2.54c15.5-65.87,29.06-132.1,48.97-196.76c-2.89-1.79-5.05-3.3-7.36-4.53
		c-15.89-8.47-31.53-17.45-47.77-25.2c-53.06-25.32-109-37.61-167.9-35.54c-3.46,0.12-6.91,0.85-10.36,1.3
		c-0.33,2.1-0.92,4.21-0.93,6.31c-0.06,16.04-0.02,32.08,0.02,48.12c0.03,13.18,0.19,26.37,0.13,39.55
		c-0.07,14.57-7.56,23.48-21.9,26.08c-3.65,0.66-7.4,0.99-11.11,1.01c-21.98,0.09-43.96,0.04-65.94,0.04c-2.35,0-4.7,0-7.27,0
		c0,4.36,0,7.91,0,11.55c11.26-0.56,21.99-1.4,32.73-1.58c24.37-0.41,48.76-0.94,73.13-0.56c19.96,0.31,39.99,1.06,59.83,3.08
		c25.61,2.61,44.09,16.12,52.22,40.98c8.05,24.61,10.65,50.18,9.42,76.06c-1.04,21.92-2.32,43.83-3.45,65.75
		c-0.09,1.67,0.2,3.36,0.31,4.93c8.75,1.34,167.46,0.92,172.54-0.55c-3.59-12.85-7.19-25.72-10.79-38.58c0.15-2-0.98-2.67-2.77-2.66
		c-9.53,0.06-19.05,0.13-28.58,0.19c-1.26-0.47-2.51-0.94-4.87-1.83c2.26-1.04,3.36-1.98,4.46-1.99
		c11.73-0.11,23.46-0.07,35.57-0.07c4.54,15.47,8.94,30.49,13.45,45.88C839.94,978.16,842.06,978.16,844.18,978.16z M434.37,768.33
		c2.57,0.14,4.7,0.35,6.83,0.35c23.72,0.02,47.45,0.01,71.17,0c1.54,0,3.09,0.07,4.61-0.1c8.47-0.93,13.28-5.23,14.54-13.57
		c0.81-5.39,1.38-10.88,1.4-16.33c0.13-38.65,0.1-77.3,0.11-115.94c0-1.19-0.16-2.38-0.25-3.69c-0.97,0.27-1.45,0.28-1.75,0.52
		c-0.51,0.4-0.98,0.9-1.34,1.44c-4.52,6.77-10.89,11.3-17.97,14.99c-17.57,9.16-36.56,13.1-56.06,15.11
		c-5.65,0.58-11.32,1.07-17,1.36c-3.33,0.17-4.81,1.65-4.67,4.92c0.05,1.1,0,2.2,0,3.29c0,33.6-0.01,67.2,0.02,100.79
		C434.01,763.61,434.23,765.74,434.37,768.33z M651.9,937.02c1.74-29.06,1.34-57.74-3.16-85.78c-25.41,3.6-49.86,7.06-74.34,10.52
		c-3.32,19.43-6.61,38.63-9.95,58.19c2.1,0.1,3.81,0.26,5.53,0.25c20.2-0.09,40.4-0.06,60.6-0.44c4.89-0.09,8.37,1.23,11.28,5.12
		C644.99,929.1,648.53,932.99,651.9,937.02z M390.93,768.89c1.66-9.12,1.23-108.89-0.43-113.82c-12.93-0.06-26-0.09-39.45,0.04
		c-3.47,38.67-6.87,76.44-10.34,115.11C357.94,769.77,374.33,769.33,390.93,768.89z M434.02,816.09c3.32,0,5.69,0.03,8.06,0
		c29.85-0.43,59.7-0.8,89.54-1.33c11.39-0.2,22.78-0.74,34.17-1.16c12.48-0.45,24.97-0.85,37.45-1.44
		c6.34-0.3,12.66-0.87,18.97-1.53c1.74-0.18,3.4-1.14,5.79-2c-5.37-3.72-10.37-5.72-15.7-7.14c-22.19-5.89-44.98-6.96-67.69-7.59
		c-20.59-0.58-41.24,0.52-61.86,1.02c-14.47,0.35-28.93,0.93-43.39,1.41c-0.44,0.01-0.88,0.03-1.32,0.04
		c-2.67,0.09-4.02,1.47-4.02,4.14C434.02,805.31,434.02,810.11,434.02,816.09z M554.67,647.73c0.2-1.51,0.5-2.38,0.41-3.2
		c-1.67-15.43-3.55-30.83-5-46.28c-0.57-6.04-3.89-8.67-9.17-10.11c-1.61,6.22-1.36,55.24,0.37,60.53
		C545.65,648.36,550.14,648.04,554.67,647.73z M391.36,813.43c0-4.9,0-8.7,0-13.18c-9.38,1.26-17.71,3.65-25.21,9.84
		C374.33,811.17,382.52,812.26,391.36,813.43z"/>
	<path class="st1" d="M873.75,643.17c-0.1-6.58-0.19-13.16-0.29-19.74c5.07-0.68,10.14-1.37,15.75-2.12c0-15.21,0-30.22,0-45.22
		c4.44-0.12,8.88-0.24,13.32-0.36c3.51,0.05,7.02,0.09,10.52,0.14c26.84,0.01,53.67,0.02,80.51,0.03
		c6.97,2.69,14.23,0.73,21.34,1.23c1.62,0.11,3.31-0.8,4.97-1.23c21.28,0,42.56,0,64.16,0c0.28,1.66,0.67,2.89,0.67,4.12
		c0.04,11.86,0.07,23.72-0.02,35.58c-0.05,6.49-1.24,7.7-7.71,7.78c-8.13,0.11-16.26,0.02-24.39,0.01c-2.16,0-4.32,0-7.35,0
		c0,2.88,0,5.21,0,7.55c0,115.53,0,231.07-0.02,346.6c0,6.99-0.68,7.63-7.46,7.54c-7.68-0.1-15.37-0.23-23.05-0.34
		c0-111.14,0-222.28-0.01-333.42c0-1.76-0.03-3.51-0.08-5.27c-0.01-0.43-0.16-0.86-0.29-1.28c-0.06-0.2-0.21-0.37-0.34-0.53
		c-0.14-0.17-0.31-0.31-1.07-1.06c-8.58,0-17.78,0-26.98,0c0-6.32,0-12.63,0-19.45c-17.72,0-34.75,0-52.61,0
		c-0.08,2.19-0.24,4.5-0.24,6.82c-0.02,114.64-0.02,229.28-0.03,343.92c0,2.2,0.22,4.47-0.26,6.56c-0.35,1.5-1.7,2.76-2.61,4.12
		c-9.16-0.1-18.33-0.19-27.49-0.29c-0.05-29.88-0.14-59.76-0.15-89.64c-0.02-81.08,0-162.16-0.02-243.23c0-2.76-0.24-5.51-0.39-8.81
		C892.16,643.17,882.96,643.17,873.75,643.17z"/>
	<path class="st2" d="M902.54,575.72c-4.44,0.12-8.88,0.24-13.32,0.36c-68.18-0.03-136.35-0.05-204.53-0.08
		c-18.47-0.01-36.95-0.03-55.42-0.05c2.09-5.9,4.08-11.84,6.32-17.68c1.15-3,2.74-5.83,4.13-8.74c56.3-0.01,112.6-0.03,168.9-0.03
		c17.59,0,35.19-0.04,52.78,0.11c5.51,0.05,9.24-2.46,11.63-7.08c1.29-2.51,2.18-5.28,2.94-8.01c2.53-9.08,5.05-18.18,7.33-27.32
		c2.17-8.7,4.03-17.48,6.03-26.22c0.13-0.71,0.26-1.43,0.38-2.14c0.28-0.58,0.56-1.16,0.84-1.75c0.48-2.11,0.9-4.23,1.44-6.33
		c0.92-3.52,1.91-7.03,2.87-10.54c0.44-1.39,0.87-2.79,1.31-4.18c0.15-0.46,0.29-0.91,0.44-1.37c0.5-0.72,1.24-1.37,1.45-2.17
		c4.44-16.71,8.95-33.41,13.15-50.18c1.93-7.71-0.93-10.95-9.09-10.97c-18.44-0.05-36.89-0.02-55.33-0.04
		c-40.4-0.05-80.8-0.11-121.2-0.16c-5.6-5.47-11.39-10.75-16.72-16.47c-2.9-3.11-5.01-6.95-8.06-11.29c2.89-0.63,5.45-1.19,8.24-1.8
		c0-1.39,0-2.84,0-4.72c1.86-0.19,3.54-0.5,5.22-0.5c51.53-0.04,103.07-0.06,154.6-0.05c1.04,0,2.09,0.35,3.1,0.53
		c27.33,0.13,54.68,0.26,82.04,0.39c0.36,6.84-0.4,13.5-2.49,20.08c-1.71,5.41-2.99,10.96-4.3,16.49
		c-5.76,24.2-11.31,48.46-17.24,72.62c-5.21,21.21-10.9,42.3-16.24,63.47C909.88,545.15,906.26,560.45,902.54,575.72z"/>
	<path class="st3" d="M629.27,575.96c18.47,0.02,36.95,0.04,55.42,0.05c68.18,0.03,136.35,0.05,204.53,0.08c0,15.01,0,30.01,0,45.22
		c-5.61,0.76-10.68,1.44-15.75,2.12c-91.85-0.06-183.69-0.13-275.54-0.18c-12.74-0.01-25.49,0.1-38.23,0.15
		c-1.11-8.66-2.22-17.32-3.33-25.98c0.22-0.21,0.43-0.43,0.64-0.65c3.27,1.22,6.56,2.4,9.82,3.66c12.55,4.87,25.73,7.18,38.86,9.72
		c4.09,0.79,6.71-0.7,8.41-4.33c3.26-6.95,6.48-13.92,9.88-20.8C625.54,581.89,627.5,578.97,629.27,575.96z"/>
	<path class="st4" d="M873.75,643.17c9.2,0,18.41,0,28.37,0c0.15,3.3,0.39,6.05,0.39,8.81c0.02,81.08,0,162.16,0.02,243.23
		c0.01,29.88,0.09,59.76,0.14,89.64c-9.19,0.08-18.37,0.15-27.56,0.23c-0.5-1.16-1.31-2.28-1.43-3.48c-0.28-2.83-0.3-5.7-0.3-8.55
		c0-106.9,0-213.8,0.03-320.69C873.41,649.3,873.64,646.23,873.75,643.17z"/>
	<path class="st4" d="M985.93,643.17c9.2,0,18.4,0,26.98,0c0.76,0.75,0.93,0.89,1.07,1.06c0.14,0.16,0.28,0.34,0.34,0.53
		c0.13,0.42,0.27,0.85,0.29,1.28c0.05,1.76,0.08,3.51,0.08,5.27c0.01,111.14,0.01,222.28,0.01,333.42c-9.37,0-18.75,0-28.53,0
		c-0.26-2.31-0.62-3.98-0.62-5.65c-0.01-110,0-220.01,0.03-330.01C985.6,647.1,985.81,645.14,985.93,643.17z"/>
	<path class="st4" d="M172.68,901.85c-7.39,18.35-17.99,34.63-31.69,48.9c-0.01-95.27-0.03-190.54-0.03-285.81
		c0-7.24,0.18-14.48,0.28-21.71c7.91,0.02,15.82-0.02,23.74,0.07c5.74,0.07,6.33,0.66,6.37,6.52c0.07,9.67,0.02,19.33,0.02,29
		c0,71.85-0.01,143.69,0.06,215.54C171.42,896.85,172.24,899.35,172.68,901.85z"/>
	<path class="st1" d="M172.68,901.85c-0.44-2.5-1.25-5-1.26-7.49c-0.07-71.85-0.06-143.69-0.06-215.54c0-9.67,0.05-19.34-0.02-29
		c-0.04-5.86-0.63-6.46-6.37-6.52c-7.91-0.09-15.82-0.05-23.74-0.07c-0.06-6.59-0.11-13.19-0.17-19.78
		c19.89,0.03,39.78,0.05,59.67,0.08c0,7.68-0.02,15.35-0.01,23.03c0.03,66.47,0.06,132.95,0.1,199.42
		c-3.13,6.68-6.16,13.42-9.42,20.04c-5.02,10.17-10.17,20.27-15.33,30.37C175.1,898.28,173.81,900.03,172.68,901.85z"/>
	<path class="st5" d="M902.54,575.72c3.72-15.28,7.34-30.58,11.19-45.82c5.34-21.18,11.03-42.26,16.24-63.47
		c5.93-24.16,11.48-48.42,17.24-72.62c1.32-5.53,2.59-11.08,4.3-16.49c2.08-6.58,2.84-13.24,2.49-20.08
		c1.75-0.07,3.51-0.23,5.26-0.19c5.45,0.14,6.99,1.77,6.68,7.27c-0.1,1.73-0.57,3.45-0.98,5.15c-2.03,8.31-3.97,16.66-6.23,24.91
		c-0.87,3.15-0.63,5.93,0.43,8.95c20.28,57.51,40.49,115.04,60.72,172.57c-1.66,0.44-3.35,1.35-4.97,1.23
		c-7.11-0.5-14.36,1.46-21.34-1.23c-0.14-0.86-0.17-1.76-0.44-2.57c-14.43-42.6-28.87-85.19-43.33-127.77
		c-0.47-1.38-1.14-2.69-2.32-5.43c-1.58,5.92-2.87,10.49-4.03,15.09c-10.14,40.21-20.26,80.44-30.38,120.65
		C909.56,575.81,906.05,575.77,902.54,575.72z"/>
	<path class="st4" d="M200.74,623.52c-19.89-0.03-39.78-0.05-59.67-0.08c-10.27,0-20.54,0-31.07,0c-0.36-1.64-0.77-2.65-0.77-3.66
		c-0.05-12.93-0.01-25.87-0.07-38.8c-0.01-3.09,0.37-5.74,4.24-6.2c12.13-0.1,24.19-0.23,36.25-0.25
		c21.71-0.04,43.43-0.02,65.14-0.03c2.36,0,4.72,0,7.27,0c0.29,2.27,0.73,3.78,0.64,5.24c-0.8,12.67-1.66,25.33-2.61,37.98
		c-0.15,1.93-0.87,3.82-1.32,5.72C212.76,623.48,206.75,623.5,200.74,623.52z"/>
	<path class="st6" d="M346.77,852.41c9.25,2.5,18.5,5.01,27.75,7.51c0.04,2.85,0.11,5.71,0.11,8.57
		c0.02,38.68,0.03,77.36,0.04,116.03c-9.35-0.03-18.7-0.06-28.5-0.09c-0.14-3.06-0.32-5.19-0.32-7.32
		c-0.03-39.22-0.05-78.45,0-117.67C345.86,857.1,346.45,854.75,346.77,852.41z"/>
	<path class="st1" d="M374.67,984.52c-0.01-38.68-0.02-77.36-0.04-116.03c0-2.86-0.07-5.71-0.11-8.57
		c6.72,0.87,13.44,1.74,20.16,2.6c3.91,0.5,7.81,1.01,11.72,1.51c-0.08,12.25-0.24,24.5-0.23,36.75c0.01,21,0.13,42,0.2,63
		c-6.62,0.78-11.44,5.13-16.15,9.05c-4.08,3.39-7.05,8.11-10.51,12.24C378.02,984.88,376.35,984.7,374.67,984.52z"/>
	<path class="st2" d="M546.05,492.86c-1.54-1.8-3.26-3.5-4.57-5.45c-0.92-1.36-1.8-3.08-1.82-4.66
		c-0.12-11.02-2.56-21.53-6.42-31.78c-0.3-0.79-0.21-1.71-0.3-2.58c11.85-24.74,23.65-49.52,35.62-74.21
		c2.09-4.32,4.69-8.45,7.47-12.36c2.19-3.09,5.16-5.47,9.46-4.89c4.09-0.25,8.17-0.49,11.91-0.72c4.56,5.7,2.49,11.26,1.75,16.82
		c-0.75,5.58-0.98,11.23-1.45,16.85c-4.83,0.14-8.56,2.43-10.54,6.66c-6.74,14.44-13.22,29.01-19.8,43.53
		c-2.27,5.68-4.53,11.36-6.8,17.05l0.11-0.01c-0.39,0.44-0.79,0.89-1.18,1.33c-2.48,5.77-5.1,11.49-7.39,17.34
		C549.9,481.42,548.05,487.17,546.05,492.86z"/>
	<path class="st5" d="M441.97,1016.7c0.21,2.34,1.86,2.41,3.68,2.49c2.73,0.13,5.46,0.47,8.18,0.72c-0.19,0.27-0.28,0.57-0.25,0.9
		c-2.36-0.32-4.71-0.7-7.08-0.94c-2.24-0.23-3.57,0.86-4.54,2.92c-3.98,8.48-1.55,22.49,5.2,29.26c8.28,10.75,24.06,9.66,30.62,3.39
		c1.37-1.31,3.1-2.23,4.66-3.33c0.93-0.39,1.87-0.79,2.8-1.18c-4.96,10.41-13.28,15.57-24.7,14.61
		c-10.85-0.91-18.08-7.15-21.6-17.42C435.22,1037.24,435.79,1026.68,441.97,1016.7z"/>
	<path class="st5" d="M613.56,297.67c-1.77,0.69-3.53,1.39-5.93,2.33c-2.26-2.27-4.76-4.79-7.62-7.65c2.5-2.16,4.52-4.01,6.66-5.72
		c2.15-1.72,4.41-3.29,6.63-4.92c2.36,2.73,4.71,5.45,7.3,8.45c1.22-1.61,1.97-2.61,3.24-4.28c-3.05-2.78-6.01-5.48-8.96-8.17
		c-1.78-1.27-3.55-2.54-5.33-3.81c2.4,0.16,4.8,0.31,8.26,0.54c4.92,5.38,10.63,11.62,16.54,18.08c2.5-1.45,4.69-2.72,6.88-3.99
		c-0.94,1.5-1.68,2.99-0.04,4.51c-3.93,2.36-7.86,4.72-11.8,7.08c-0.81-0.38-1.63-0.75-2.45-1.13c-0.07-0.29-0.14-0.57-0.22-0.86
		c1.36-0.78,2.73-1.55,4.61-2.62c-2.39-2.77-4.26-4.94-6.48-7.51c-1.23,1.87-2.02,3.08-2.82,4.29c-0.25-0.17-0.53-0.25-0.84-0.24
		c-3.7-0.96-4.59,1.39-5.03,4.28l0.01-0.02c-0.88,0.45-1.77,0.89-2.65,1.34L613.56,297.67z"/>
	<path class="st5" d="M357.15,41.59c0.53-0.82,1.05-1.65,1.58-2.47c13,7.07,26.01,14.12,38.98,21.23c2.32,1.27,4.51,2.66,7.17,0.93
		c-0.88,2.81-3.27,2.76-5.55,2.91c-2.42-0.78-5.01-2.64-6.72,1.06c-2.47,1.36-4.94,2.72-7.41,4.09c-0.67-3.56,3.09-3.95,4.37-6.12
		c0.76-0.64,1.51-1.29,2.63-2.24c-2.96-1.68-5.34-3.11-7.79-4.41c-1.78-0.95-2.85,0-3.52,1.63c-1.75,1.21-3.49,2.42-5.24,3.63
		c-0.9-0.21-1.8-0.41-2.7-0.62c1.56-1.69,3.11-3.38,4.67-5.06c0.99-0.33,1.98-0.66,3.73-1.25c-4.77-2.77-7.44-4.5-10.29-5.86
		c-0.65-0.31-1.9,0.65-2.87,1.03c-1.53,1.16-3.06,2.33-4.59,3.49c-0.28-0.87-0.56-1.74-0.84-2.62c0.66-0.88,1.33-1.75,1.99-2.63
		c0.68-0.29,1.35-0.58,3.54-1.52C363.74,44.66,360.45,43.12,357.15,41.59z"/>
	<path class="st5" d="M413,48.41c-0.04-0.99-0.08-1.99-0.12-2.98c3.5-2.94,7.01-5.88,10.52-8.82c0.92-0.76,1.83-1.52,3.21-2.66
		c-3.66-2.01-6.84-3.68-9.95-5.5c-1.53-0.9-1.44-1.94,0.22-2.71c7.07,3.53,14.13,7.06,21.2,10.59c-1.37,0.23-2.74,0.46-4.11,0.69
		c-2.97-1.31-5.82-2.1-7.62,1.72C421.9,41.95,417.45,45.18,413,48.41z"/>
	<path class="st7" d="M416.88,25.73c-1.66,0.78-1.75,1.82-0.22,2.71c3.1,1.82,6.29,3.49,9.95,5.5c-1.38,1.14-2.3,1.9-3.21,2.66
		c-3.48-1.86-6.96-3.72-10.45-5.58c0.67-1.35,1.33-2.7,2-4.05c-0.34-0.25-0.69-0.5-1.03-0.76c-0.79,0.72-1.59,1.44-2.38,2.16
		c-0.55,0.25-1.1,0.5-1.65,0.76c-2.63-1.51-5.25-3.02-7.88-4.54c0.74-0.79,1.47-1.58,2.2-2.37c1.59,0.07,3.18,0.14,4.77,0.2
		c0,0,0.04,0.12,0.04,0.12c-0.36,0.27-0.73,0.53-1.09,0.8c0.58,0.4,1.16,0.8,1.74,1.2c0,0-0.16-0.09-0.16-0.09
		c0.71,0.41,1.42,0.82,2.13,1.23c1.74,1.66,3.47,3.57,5.27,0.06L416.88,25.73z"/>
	<path class="st5" d="M381.05,1028.46c-0.78,0-1.56,0-2.34,0c-0.51-5.5-0.39-10.91,2.46-15.89c0.4,0.92,0.8,1.83,1.2,2.75
		C381.94,1019.7,381.5,1024.08,381.05,1028.46z"/>
	<path class="st0" d="M408.98,22.44c-1.59-0.07-3.18-0.14-4.77-0.2c-0.88-0.22-1.77-0.44-2.66-0.65c0.27-1.24,0.55-2.49,0.82-3.73
		c0,0,0.05-0.06,0.05-0.06C404.71,19.2,408.12,19.02,408.98,22.44z"/>
	<path class="st5" d="M385.57,1046.91c2.41,0.41,4.82,0.83,7.23,1.24C390.19,1048.86,387.69,1048.98,385.57,1046.91z"/>
	<path class="st5" d="M609.47,273.86c-2.66-0.05-5.32-0.09-7.98-0.14C604.19,271.63,606.85,271.63,609.47,273.86z"/>
	<path class="st5" d="M416.9,25.76c-1.79,3.51-3.53,1.6-5.27-0.06c-0.16-0.73-0.31-1.46-0.47-2.19
		C413.75,22.55,415.37,24.04,416.9,25.76z"/>
	<path class="st0" d="M485.24,1050.94c-0.93,0.39-1.87,0.79-2.8,1.18c0.97-1.31,1.95-2.63,2.92-3.95c0.29,0.25,0.58,0.5,0.86,0.77
		C485.9,1049.61,485.57,1050.28,485.24,1050.94z"/>
	<path class="st5" d="M378.71,1031.18c0.02,0.83,0.05,1.66,0.07,2.49C378.76,1032.84,378.73,1032.01,378.71,1031.18z"/>
	<path class="st5" d="M400.69,16.7c-0.77-0.42-1.55-0.84-2.32-1.27C399.14,15.85,399.91,16.28,400.69,16.7z"/>
	<path class="st5" d="M601.48,273.71c0.26,0.64,0.53,1.28,0.79,1.92c0,0-0.36-0.46-0.36-0.46l0.42,0.41
		c-1.09-0.13-2.18-0.26-3.27-0.39C599.86,274.69,600.67,274.2,601.48,273.71z"/>
	<path class="st5" d="M406.27,60.1c-0.48,0.41-0.97,0.82-1.45,1.23C405.3,60.92,405.79,60.51,406.27,60.1z"/>
	<path class="st5" d="M401.5,18.84c-0.18-0.67-0.36-1.35-0.54-2.02c0.49,0.32,0.98,0.65,1.47,0.97c0,0-0.05,0.06-0.05,0.06
		C402.08,18.18,401.79,18.51,401.5,18.84z"/>
	<path class="st0" d="M409.67,24.56c-0.58-0.4-1.16-0.8-1.74-1.2c0.36-0.27,0.73-0.53,1.09-0.8
		C409.24,23.22,409.45,23.89,409.67,24.56z"/>
	<path class="st5" d="M382.45,1044.81c0,0-0.09-0.23-0.1-0.23C382.34,1044.58,382.45,1044.81,382.45,1044.81z"/>
	<path class="st5" d="M383.71,1045.87c0,0-0.22-0.11-0.22-0.11C383.49,1045.76,383.71,1045.87,383.71,1045.87z"/>
	<path class="st0" d="M411.17,23.5c0.16,0.73,0.31,1.46,0.47,2.19c-0.71-0.41-1.42-0.82-2.13-1.23
		C410.06,24.15,410.62,23.82,411.17,23.5z"/>
	<path class="st8" d="M356.99,401.72c3.31,1.1,5.61,5.06,10.78,3.3c-4-9.38-7.92-18.59-11.85-27.8
		c1.26-36.05,3.69-72.08,2.67-108.53c-1.48,0-2.55,0-3.61,0c0.48-15,0.97-30.01,1.45-45.01c5.9,3.66,9.76-0.2,13.27-3.85
		c3.02,1.73,5.67,3.24,8.46,4.83c-0.76,3.74-2.53,6.93-6.01,8.88c-3.91,2.19-6.74-1.28-10.27-2.81c2.41,8.29,7.85,10.3,13.69,5.59
		c1.97-1.59,3.81-3.34,5.61-4.94c1.91,1.6,3.28,3.09,4.96,4.06c1.84,1.06,3.95,1.64,5.86,2.4c-0.43,9.33-4.99,11.51-16.7,8
		c1.23,4.18,5.41,4.26,8.13,6.38c-2.83,7.17-8.89,6.32-14.97,5.81c5.37,5.88,12.71,4.94,16.2-1.71c0.89-1.71,1.53-3.66,2.79-5.03
		c2.32-2.51,5.02-4.67,7.67-7.07c9.42,5.25,14.96,3.53,15.78-5.21c-8.91,5.63-12.45,5.18-15.31-2.22c3.85-3.09,7.63-6.43,6.25-13.92
		c-2.66,6.01-5.51,10.12-11.66,9.02c-4.05-0.72-6.69-2.95-7.68-6.94c9.26-7.95,9.93-9.16,8.07-14.96c-0.48,0.95-0.87,1.7-1.24,2.46
		c-2.46,5.06-6.51,7.57-11.4,7.06c-5.01-0.52-6.48-2-8.21-8.22c-0.03-0.12-0.39-0.15-0.6-0.22c-4.3,9.62-5.13,10.24-12.71,9.48
		c0.47-11.97,0.94-23.94,1.42-35.91c7.06,5.61,11.57,0.71,15.88-4.2c5.59,6.11,10.39,7.78,15.1,5.46c4.21-2.07,5.93-5.22,4.96-10.07
		c-2.95,4.38-6.44,7.3-11.65,5.53c-3.28-1.12-6.52-2.59-6.49-6.88c8.01-4.01,10.01-6.5,9.75-13.15c-3.37,4.88-6.74,8.18-12.67,7.49
		c-5.5-0.64-8.51-4.49-12.45-8.45c-0.07,8.74,6.08,11.16,11.61,13.85c-2.18,8.41-5.48,9.93-14.12,6.77
		c0.61-16.22,1.24-32.44,1.8-48.67c0.13-3.91,0.02-7.83,0.02-12.11c-8.33-1.77-16.6-3.79-24.97-5.21c-4.61-0.78-6.77-2.96-7.66-7.48
		c-1.23-6.23-3.17-12.31-4.61-18.51c-0.49-2.08-0.38-4.31-0.55-6.46c1.65,0.42,3.31,0.85,4.96,1.27c1.61,4.29,3.06,8.65,4.89,12.85
		c0.73,1.67,2,3.76,3.52,4.31c8.34,3.03,16.83,5.64,25.95,8.62c0.17-2.28,0.26-3.48,0.35-4.69c2.36,0.72,4.72,1.45,7.14,2.19
		c2.15-2.63,4.13-5.19,6.25-7.61c1.49-1.71,1.07-3.08-0.39-4.45c19.14-19.57,41.01-35.51,64.98-48.64c2.49,1.37,4.62,0.13,6.82-0.88
		c7.09-3.26,14.21-6.46,21.57-9.79c1.68,2.34,3.01,4.04,4.17,5.85c3.9,6.08,7.64,12.26,11.61,18.3
		c6.73,10.23,13.58,20.38,20.38,30.56c3.3,5.52,6.47,11.13,9.99,16.5c0.93,1.42,2.98,2.11,4.51,3.14c2.5,1.35,4.9,2.92,7.51,4.01
		c19.39,8.12,38.89,15.98,58.2,24.29c4.99,2.15,9.37,2.13,14.52,0.74c9.68-2.62,19.6-4.38,29.42-6.49
		c-0.04,3.28,1.69,5.51,4.67,6.29c2.23,0.58,3.16,1.56,3.67,3.77c0.71,3.03,3.06,4.86,6.09,5.18c3.36,0.35,5.85-1.52,7.46-4.34
		c0.74-1.29,1-2.87,1.48-4.31c1.47-1.09,1.94-2.38,0.78-3.99l-0.15,0.05c0.44,0.64,1.08,1.9,1.3,1.83c3.75-1.17,5.62,1.39,7.53,3.72
		c3.15,3.83,6.21,7.74,9.31,11.61c4.76,7.3,9.51,14.59,14.27,21.89c1.21,1.8,2.55,3.53,3.59,5.43c1.47,2.67,2.72,5.46,4.37,8.83
		c-1.72,0.3-2.88,0.66-4.05,0.69c-24.64,0.62-49.23-0.15-73.61-3.84c-19.38-2.94-38.12-8.61-56.62-14.96
		c-38.22-13.11-74.2-30.89-108.44-52.27c-1.93-1.21-3.94-2.28-7.15-4.13c1.35,5.11,4.37,6.62,7.05,8.19
		c13.27,7.77,26.4,15.83,39.99,23c32.55,17.17,66.53,30.9,102.1,40.53c3.81,1.03,7.69,1.77,12.2,2.8c-1.04,1.34-1.76,2.54-2.73,3.47
		c-8.72,8.32-19.24,13.82-30.11,18.65c-2.22,0.99-5.19,0.96-7.68,0.56c-42.27-6.68-84.51-13.5-126.77-20.25
		c-6.41-1.02-12.85-1.84-19.87-2.84c1.39,4.66,4.3,6.09,7.95,6.73c11.88,2.09,23.76,4.24,35.64,6.37c1.93,0.35,3.85,0.72,6.4,1.2
		c1.37,8.69,2.78,17.3,4.07,25.92c3.41,22.78,6.83,45.55,10.13,68.35c2.93,20.18,5.7,40.39,8.54,60.58
		c-0.69,1.7-1.99,3.42-1.96,5.11c0.07,3.68,0.87,7.34,1.28,11.02c1.98,17.74,3.92,35.49,5.88,53.23
		c-13.68,0.62-13.67,0.61-23.17-9.25c-6.08-6.31-12.16-12.62-18.33-18.85c-1.43-1.44-3.19-2.55-5.91-4.67
		c-0.59,7.68,5.22,10.17,7.28,14.61c4.63,6.04,9.26,12.07,13.89,18.11c-19.46,0-38.92,0-58.87,0c-0.86-1.33-1.88-2.91-3.32-5.14
		c-11.5,0.61-23.28,1.13-35.03,1.96c-2.52,0.18-4.19,0.08-6.38-1.72c-1.89-1.56-5.28-1.31-8.01-1.86
		C356.93,413.81,356.96,407.77,356.99,401.72z M594.28,151.26c-0.38,0.5-0.76,1-1.14,1.5c2.5,4.83,4.95,9.69,7.54,14.47
		c0.49,0.9,1.39,1.94,2.3,2.19c7.55,2.03,15.12,4.05,24.14,4.34c-4.25-6.91-8.67-12.23-13.41-17.32c-0.43-0.46-1.08-0.83-1.69-0.98
		C606.11,154.02,600.19,152.65,594.28,151.26z M475.14,72.04c0.25-4.34-0.81-8.77-3.67-12.62c-4.51-6.1-11.29-6.14-16.02-0.18
		c-5.58,7.04-5.49,19.5,0.2,26.48c4.42,5.42,10.59,5.54,15.2,0.21C474.18,82.07,475.25,77.44,475.14,72.04z M435.55,89.17
		c0.17-5.21-0.83-9.86-4.1-13.78c-4.55-5.44-10.66-5.5-15.25-0.23c-6.1,7-5.94,20.69,0.32,27.54c4.5,4.93,10.5,4.89,14.8-0.24
		C434.56,98.58,435.8,93.98,435.55,89.17z M662.25,147.88c-5.02,10.02-7.92,23.22-6.97,28.07c3.94-2.39,7.71-4.46,11.24-6.9
		c2.37-1.64,3.17-4.21,2.01-6.97C666.53,157.31,664.36,152.61,662.25,147.88z M619.3,143.99c2.42,4.63,4.22,5.72,7.51,4.63
		c2.54-0.84,5.52-1.67,4.94-6.56C627.73,146,623.68,146.04,619.3,143.99z"/>
	<path class="st8" d="M820.44,938.64c3.6,12.86,7.19,25.73,10.79,38.58c-5.08,1.47-163.78,1.89-172.54,0.55
		c-0.11-1.57-0.4-3.26-0.31-4.93c1.13-21.92,2.41-43.83,3.45-65.75c1.23-25.88-1.37-51.45-9.42-76.06
		c-8.14-24.87-26.62-38.37-52.22-40.98c-19.85-2.03-39.87-2.77-59.83-3.08c-24.37-0.38-48.76,0.15-73.13,0.56
		c-10.74,0.18-21.47,1.01-32.73,1.58c0-3.64,0-7.19,0-11.55c2.57,0,4.92,0,7.27,0c21.98,0,43.96,0.05,65.94-0.04
		c3.71-0.02,7.46-0.34,11.11-1.01c14.34-2.6,21.82-11.51,21.9-26.08c0.07-13.18-0.1-26.37-0.13-39.55
		c-0.04-16.04-0.08-32.08-0.02-48.12c0.01-2.11,0.61-4.21,0.93-6.31c2.31,0.5,4.6,1.31,6.94,1.45c5.47,0.33,10.97,0.48,16.45,0.46
		c36.13-0.09,71.08,5.9,104.86,19.05c23.49,9.14,47.43,17.18,69.59,29.42c8.78,4.85,17.29,10.2,26.08,15.41
		c-1.72,6.79-3.46,12.89-4.78,19.07c-1.72,8.05-6.24,9.43-11.9,10.05c-1.52,0.17-3.07,0.13-4.6,0.19c-3.78-2.42-9.4-2.5-10.89-8.18
		c5.41-3.22,11.1-5.9,10.16-14c-8.14,10.68-14.87,12-26.81,5.73c-0.56-0.3-1.33-0.21-2.7-0.39c3.54,6.81,9.67,7.95,16.5,9.66
		c-2.13,2.75-3.39,5.06-5.26,6.66c-6.58,5.62-13.93,6.93-21.92,3.06c-0.17-0.07-0.33-0.13-0.5-0.2c0.2,0.03,0.39,0.06,0.59,0.1
		c1.02,6.82,7.19,5.49,11.43,7.22c2.8,4.59,5.19,9.56,10.96,11.26c0.76,1.7,4.7,0.22,3.69,3.69c-1.35,1.43-2.56,3.02-4.07,4.26
		c-6.4,5.27-13.24,8.65-21.68,4.64c-0.75-0.35-1.75-0.17-3.72-0.32c4.02,4.91,8.47,6.22,13.73,6.42c0.97,3.58,1.89,7,2.82,10.41
		c-1.65,0.96-3.33,1.86-4.93,2.88c-3.5,2.22-7.15,3.17-11.18,1.56c-1.06-0.42-2.17-0.73-3.88-1.3c2.95,5.17,5.73,6.73,10.34,5.93
		c5.15-0.89,8.9-3.45,9.6-9.12c1.98,0.51,4.03,0.86,5.94,1.58c5.12,1.92,9.91,1.68,14.24-1.87c2.13-1.74,3.12-3.87,1.82-6.79
		c-9.22,7.64-18.05,6.09-21.59-3.27c4.71-3.38,9.36-6.73,13.82-9.94c1.76,2.04,3.59,4.14,5.41,6.24c2.31,3.96,6.83,3.37,10.6,4.9
		c-0.16,1.18-0.22,2.24-0.46,3.26c-7.96,34.11-15.98,68.2-23.9,102.32c-1.68,7.22-3.03,14.52-4.54,21.78
		c-0.95,1.35-1.9,2.7-2.84,4.04c-1.64,1.32-3.28,2.63-6.17,4.96c42.01,2.54,82.43-1.14,122.86-0.24c4.31,17,8.45,33.33,12.59,49.66
		c-2.12,0-4.25,0-6.48,0c-4.51-15.39-8.92-30.41-13.45-45.88c-12.1,0-23.84-0.04-35.57,0.07c-1.1,0.01-2.2,0.95-4.46,1.99
		c2.36,0.88,3.62,1.36,4.87,1.83C799.38,939.03,809.79,940.38,820.44,938.64z M687.83,706.25c4.06,9.33,9.19,12.03,16.98,9.91
		c7.22-1.97,10.21-5.47,9.53-11.17C706.37,713.05,699.13,715.59,687.83,706.25z M728.11,822.46c-3.49,2.26-5.79,4.61-8.5,5.29
		c-2.84,0.71-6.09-0.17-9.95-0.41c3.29,4.13,7.01,5.53,11.25,4.22C724.68,830.39,727.59,827.91,728.11,822.46z"/>
	<path class="st9" d="M265.79,459.79c2.93-3.1,5.48-6.73,8.87-9.21c14.57-10.65,31.12-16.82,48.54-21.19
		c11.92-2.99,23.84-2.8,36.77-2.47c0.3,7.96,0.36,15.54-0.31,23.13c-0.19,2.18-0.59,4.34-0.73,6.52c-1,15.97-1.88,31.94-2.94,47.91
		c-0.75,11.36-1.63,22.72-2.6,34.06c-1.14,13.3-2.52,26.58-3.65,39.88c-0.65,7.64-0.9,15.32-1.54,22.96
		c-1.15,13.74-2.47,27.47-3.69,41.2c-0.52,5.89-1,11.79-1.45,17.68c-1.4,18.35-2.8,36.69-4.17,55.04
		c-0.9,12.01-1.57,24.05-2.69,36.04c-1.52,16.34-3.45,32.65-5.02,48.99c-0.33,3.44-1.55,4.98-5.14,5.36
		c-19.89,2.11-39.85,3.37-59.79,2.22c-11.92-0.68-23.73-3.2-35.58-4.9c0.4-20.7,0.79-41.39,1.18-62.08
		c9.32-0.16,9.74-0.34,12.2-5.31c-2.07,0.45-3.92,0.86-5.78,1.25c-2.11,0.44-4.22,0.87-6.33,1.31c0.38-11.79,0.74-23.58,1.14-35.37
		c0.57-16.61,1.13-33.23,1.79-49.84c0.11-2.81,0.72-5.61,1.09-8.41c2.12,0.34,4.23,0.68,6.35,1.02c3.71,0.61,4.64-0.06,6.24-4.98
		c-4.27,0-8.35,0-12.44,0c0.3-10.51,0.57-21.03,0.9-31.54c0.89-28.3,3.27-56.47,8.21-84.38
		C249.21,502.16,254.64,480.07,265.79,459.79z M260.98,539.8c5.59,3.87,10.67,7.67,16.03,11.01c4.21,2.62,5.62,1.98,8.97-3.02
		c-0.74-0.67-1.42-1.52-2.3-2.05c-4.85-2.99-9.76-5.89-14.63-8.84C264.99,534.44,265,534.43,260.98,539.8z M279.49,567.59
		c-13.86-5.52-18.11-5.39-21.96-0.44c5.33,2.97,11.33,2.35,16.93,3.31C275.93,570.72,277.81,568.62,279.49,567.59z M287.05,518.89
		c-0.8,1.66-2.21,3.33-1.83,3.99c2.49,4.36,3.82,9.74,9.45,12.14c1.18-1.35,2.26-2.59,3.52-4.03c-2.67-3.3-5.06-6.35-7.58-9.28
		C289.8,520.78,288.65,520.14,287.05,518.89z M311.93,471.13c-8.01-9.52-9.77-10.46-15.51-8.34c2.73,4.84,6.64,8.23,11.5,11.99
		C309.33,473.49,310.54,472.4,311.93,471.13z M280.75,733.19c-0.63-0.09-1.26-0.17-1.89-0.26c-0.93,1.52-2.9,3.31-2.59,4.51
		c0.89,3.47,2.69,6.71,4.54,10.97c2.29-1.81,3.84-3.03,5.64-4.45C284.36,740.01,282.55,736.6,280.75,733.19z M317.61,438.88
		c-2.4,4.31,0.4,7.82,1,11.46c0.17,1.03,1.98,1.79,3.03,2.68c0.92-1.27,2.82-2.78,2.57-3.77c-0.8-3.27-2.26-6.4-3.74-9.46
		C320.17,439.19,318.65,439.19,317.61,438.88z M314.28,668.97c-6.21,2.99-7.5,7.71-4.35,15.86
		C313.6,682.38,313.6,682.38,314.28,668.97z M331.56,630.26c-3.53-3.52-7.18-3.93-10.77-3.88c-2.29,0.03-3.72,3.14-2.14,4.16
		c2.31,1.49,5.04,2.83,7.7,3.09C327.85,633.77,329.57,631.62,331.56,630.26z M245.39,620.28c1.94,4.68,5.99,5.73,9.77,6.83
		c0.79,0.23,2.1-1.34,3.88-2.56C254.11,622.53,250.99,618.58,245.39,620.28z M280.74,481.38c-3.91-0.05-7.43-1.87-10.39,1.65
		C276.97,487.54,278.81,487.35,280.74,481.38z M258.38,763.19c-5.94,2.27-7.16,5.61-4.79,12.72
		C255.47,770.93,256.92,767.06,258.38,763.19z M286.14,675.92c0.33,0.33,0.65,0.66,0.98,1c5.47-2.69,9.46-7.09,9.8-11.39
		C293.09,669.22,289.61,672.57,286.14,675.92z M271.58,756.4c-2.01,3.75-0.76,5.71,1.32,7.18c0.64,0.45,2.23,0.38,2.78-0.12
		c0.55-0.5,0.78-2.17,0.36-2.74C274.94,759.26,273.41,758.11,271.58,756.4z M284.44,678.51c-0.37-0.15-0.83-0.51-1.09-0.4
		c-0.27,0.11-0.35,0.68-0.52,1.05c0.37,0.15,0.83,0.52,1.09,0.41C284.19,679.45,284.27,678.88,284.44,678.51z"/>
	<path class="st8" d="M197.39,870.9c0.35-1.25,0.5-2.6,1.08-3.73c8.71-17.02,17.46-34.01,26.25-50.99c0.69-1.33,1.69-2.5,2.62-3.84
		c6.45,0.86,12.71,2.02,19.01,2.46c13.35,0.95,26.72,2.09,40.09,2.1c15.37,0.01,30.68-1.56,45.78-4.76c4.86-1.03,4.88-1,5.23-5.87
		c0.54-7.44,1.04-14.89,1.69-22.32c0.2-2.33,0.83-4.63,1.23-6.73c17.23,0,33.88,0,51.13,0c0,5.05,0,9.5,0,14.32
		c-2.47,0.53-5,1.05-7.52,1.63c-14.12,3.25-25.75,10.96-36.45,20.34c-2.14,1.88-4.25,3.79-6.38,5.69
		c-4.37-0.64-7.55,1.21-10.23,4.55c-4.38,5.48-9.06,10.72-13.4,16.24c-13.86,17.63-26.49,36.1-36.02,56.44
		c-8.46,18.06-16.53,36.32-24.15,54.75c-3.05,7.38-7.56,13.13-13.43,18.26c-20.9,18.25-42.78,34.99-68.5,46.04
		c-4.59,2.12-9.18,4.25-13.77,6.37c-1.94,0.94-3.88,1.88-5.83,2.82c0,0-0.55,0.22-0.54,0.21c-0.78,0.22-1.57,0.44-2.35,0.67
		c-0.64,0.16-1.29,0.27-1.91,0.5c-15.38,5.62-31.12,5.77-47.26,4.28c-18.35-1.69-36.44-4.62-54.4-8.52
		c-2.54-0.55-4.99-1.53-7.47-2.31c1.56-0.84,3.1-1.69,4.64-2.54c2.13-0.48,4.28-0.9,6.39-1.46c15.78-4.15,30.31-11.38,45-18.24
		c24.88-11.62,44.28-30.13,60.95-51.12c12.51-15.76,20.76-34.48,28.67-53.07c3.39-7.23,6.78-14.46,10.17-21.69
		c0,0-0.07,0.11-0.07,0.11c0.15-0.12,0.29-0.24,0.44-0.35C197.86,871.06,197.63,870.98,197.39,870.9z"/>
	<path class="st10" d="M576.44,528.56c0.84-0.19,1.67-0.38,2.98-0.68c-1.13-1.7-2.07-3.1-3.01-4.51c0.45-0.98,1.05-1.93,1.33-2.96
		c8.24-30.3,16.53-60.59,24.63-90.92c2.89-10.81,6.62-21.61,7.7-32.64c2.32-23.59,3.35-47.32,4.45-71.01
		c0.21-4.48,1.58-7.25,4.99-9.84c8.4-6.38,16.58-13.04,24.86-19.59c6.45,4.33,12.91,8.66,20.8,13.96
		c-10.43,3.35-19.3,6.2-28.57,9.17c2.36,3.92,4.79,1.22,6.8,1.6c4.13-0.21,8.35,0.02,12.38-0.73c9.48-1.77,18.87-4.02,28.3-6.07
		c1.76,2.39,3.53,4.77,5.29,7.16c-0.66,3.14-3.54,2.94-5.68,3.51c-7.57,2.03-15.21,3.76-22.8,5.71c-1.5,0.38-2.88,1.19-4.32,1.8
		c0.08,0.34,0.16,0.69,0.25,1.03c1.41,0.21,2.82,0.43,4.23,0.64c2.15-0.02,4.35,0.24,6.45-0.1c10.67-1.72,21.32-3.59,31.98-5.41
		c0.4,8.53,0.73,17.07,1.22,25.6c0.15,2.68-0.58,4.67-2.91,6.11c-2.76,1.71-5.44,3.54-8.84,5.76c-0.54-5.49-1.01-10.31-1.48-15.11
		c-4.47,0.1-3.91,2.96-4,5.2c-0.46,11.61-1.24,23.22-1.1,34.83c0.08,6.23-1.72,10.25-7.32,13.19c-4.91,2.58-4.76,3.35-3.83,8.98
		c0.28,1.67,0.19,3.49-0.16,5.15c-8.06,37.99-18.78,75.23-31.54,111.89c-0.21,0.61-0.65,1.13-0.99,1.7
		c-3.9-0.22-7.8-0.44-11.93-0.67c0.61,1.44,1.33,3.11,2.01,4.72c-9.73,5.53-17.99,2.81-18.63-5.68c2.35-1.68,5.12-2.95,6.81-5.07
		c1.63-2.05,3.22-2.46,5.55-2.51c5.47-0.11,9.61-2.85,12.49-7.37c0.64-1,0.46-2.53,0.76-4.57c-12.78,10.13-16.59,7.74-25.78,1.23
		c-1.49,4.94,3.91,6.34,5.6,10.66c-3.42,1.07-6.39,2.48-9.48,2.86c-4.91,0.6-8.33-2.79-12.34-6.61c0.79,8.93,7.04,10.16,12.81,11.68
		c-0.99,4.89-3.27,7.67-7.85,9.8c-5.75,2.68-8.46,2.03-12.53-2.92c-0.55-0.67-1.26-1.22-2.87-2.74c1.18,6.28,3.57,9.82,8.48,11.39
		c1.02,0.33,2.61,0.46,2.91,1.14c2.45,5.54,7.15,7.68,12.61,8.31c0.4,4.37-2.54,5.86-5.06,7.48c-4.69,3.02-9.65,3.43-15.39-0.49
		c1.38,4.62,3.88,5.9,6.74,6.39c6.74,1.16,11.43-2.83,15.9-7.29c4.37,5.1,9.37,7.22,15.59,5.66c-2.68,6.04-5.37,12.09-8.05,18.13
		c-3.35,0.42-6.71,0.85-10.38,1.31c1.92,2.87,4.91,3.14,7.92,3.37c-0.57,1.42-1.07,2.88-1.72,4.26c-4.04,8.58-4.92,8.96-14.11,7.28
		c-16.08-2.94-31.05-8.92-45.96-15.46c-8.5-3.72-11.01-8.59-10.8-17.84c0.49-22.32-0.58-44.68-1.01-67.02
		c7.26,7.59,14.74,14.99,21.69,22.85C566.47,528.81,570.85,530.17,576.44,528.56z M601.53,486.63c2.01,7.44,6.44,10.55,12,9.26
		c5.44-1.26,7.87-4.36,7.05-8.96C611.91,493.07,610.11,493.09,601.53,486.63z"/>
	<path class="st11" d="M531.7,540.57c-1.32,10.37-5,19.98-10.05,29.01c-7.52,13.46-17.14,25.22-31.82,31.15
		c-7.84,3.17-16.27,5.34-24.64,6.6c-11.23,1.69-22.66,2.08-34.01,2.97c-2.17,0.17-4.35,0.02-6.71,0.02
		c-0.41-1.37-0.89-2.36-0.97-3.39c-1.42-16.79-2.8-33.58-4.16-50.37c-0.9-11.12-1.7-22.25-2.64-33.37
		c-1.2-14.17-2.63-28.31-3.72-42.49c-0.72-9.39-0.97-18.82-1.51-28.23c-0.32-5.46-0.8-10.91-1.21-16.36
		c23.75,0.04,47.5,0.02,71.25,0.18c5.25,0.04,10.5,0.62,15.73,1.14c9.65,0.95,16.7,6.07,22.14,13.86c6.41,9.18,8.41,19.9,9.5,30.52
		c1.64,15.93,1.95,32,2.82,48.01C528.85,533.4,532.38,536.98,531.7,540.57z"/>
	<path class="st12" d="M725.58,391.15c40.4,0.05,80.8,0.11,121.2,0.16c18.44,0.02,36.89-0.01,55.33,0.04
		c8.16,0.02,11.02,3.26,9.09,10.97c-4.2,16.77-8.71,33.47-13.15,50.18c-0.21,0.79-0.95,1.45-1.45,2.17
		c-0.68,0.41-1.35,0.83-2.03,1.24l0.03-0.03c-1.88,0.49-3.84,0.79-5.63,1.5c-8.54,3.41-16.93,7.19-25.56,10.35
		c-12.34,4.52-25.14,7.71-38.17,8.94c-10.45,0.98-21.14,1-31.57-0.06c-9.03-0.92-17.99-3.46-26.71-6.17
		c-14.01-4.37-25.59-13.2-37.29-21.73c-10.79-7.87-21.39-16.1-34.27-20.42c-6.2-2.08-12.57-3.67-18.87-5.48
		c0.92-4.28,1.66-8.61,2.84-12.82c0.42-1.52,1.58-3.4,2.9-3.99c5.12-2.28,6.01-6.46,5.94-11.31c-0.01-0.85,0.2-1.7,0.49-3.9
		c3.65,3.67,6.96,6.39,9.52,9.69c5.08,6.54,11.56,10.63,19.44,12.78c5.01,1.37,9.98,2.9,15.95,4.65c-0.2-2.64,0.02-4.38-0.51-5.85
		c-1.71-4.74-3.78-9.36-5.56-14.08C726.73,395.78,726.23,393.44,725.58,391.15z"/>
	<path class="st12" d="M889.33,480.98c-2,8.74-3.86,17.52-6.03,26.22c-2.28,9.15-4.8,18.24-7.33,27.32
		c-0.76,2.74-1.64,5.5-2.94,8.01c-2.38,4.62-6.12,7.13-11.63,7.08c-17.59-0.15-35.19-0.11-52.78-0.11c-56.3,0-112.6,0.02-168.9,0.03
		c1.73-5.16,3.6-10.28,5.16-15.5c8.04-26.88,15.99-53.79,23.99-80.69c0.3-1.02,0.81-1.99,1.22-2.98c0.06,2.55,0.95,4.27,3.31,5.88
		c9.92,6.78,19.71,13.78,29.33,20.99c12.47,9.33,24.56,19.33,39,25.45c8.62,3.65,17.75,7.58,26.88,8.24
		c17.87,1.29,35.99,1.53,53.73-2.36c18.26-4.01,36.02-9.46,52.11-19.41C879.25,486.17,884.36,483.68,889.33,480.98z"/>
	<path class="st13" d="M434.37,768.33c-0.14-2.59-0.36-4.72-0.36-6.85c-0.02-33.6-0.02-67.2-0.02-100.79c0-1.1,0.05-2.2,0-3.29
		c-0.14-3.26,1.34-4.74,4.67-4.92c5.67-0.29,11.34-0.78,17-1.36c19.5-2.01,38.49-5.95,56.06-15.11c7.08-3.69,13.45-8.22,17.97-14.99
		c0.36-0.54,0.83-1.04,1.34-1.44c0.3-0.24,0.77-0.24,1.75-0.52c0.09,1.31,0.25,2.5,0.25,3.69c-0.01,38.65,0.03,77.3-0.11,115.94
		c-0.02,5.45-0.58,10.93-1.4,16.33c-1.26,8.34-6.07,12.64-14.54,13.57c-1.52,0.17-3.07,0.1-4.61,0.1c-23.72,0.01-47.45,0.02-71.17,0
		C439.07,768.68,436.94,768.47,434.37,768.33z"/>
	<path class="st14" d="M373.34,428.22c9.15-0.63,18.27-2.19,27.73-0.77c0.39,1.28,1.01,2.48,1.09,3.71
		c0.59,8.74,0.94,17.51,1.62,26.24c1.08,13.74,2.39,27.46,3.57,41.2c0.52,6.11,1,12.22,1.42,18.34c0.99,14.42,1.82,28.86,2.93,43.27
		c1.05,13.74,2.46,27.46,3.54,41.21c0.62,7.83,0.9,15.69,1.36,24.21c-20.58,6.49-41.61,9.51-63.38,9.9
		c-0.37-1.42-0.9-2.44-0.84-3.42c0.36-5.9,0.83-11.79,1.3-17.68c1.29-16.36,2.66-32.72,3.89-49.09c1.39-18.55,2.65-37.12,4-55.68
		c0.93-12.88,1.92-25.76,2.88-38.63c0.62-1.09,1.24-2.18,1.86-3.27C368.65,454.57,371,441.4,373.34,428.22z M385.18,500.75
		c-0.46,0.33-0.92,0.67-1.39,1c0.47-0.33,0.93-0.66,1.4-0.99c0.44-0.43,0.89-0.87,1.33-1.3c3.24-0.73,5.47-2.41,6.29-6.73
		c-3.63,1.71-5.83,3.41-6.32,6.7C386.05,499.87,385.61,500.31,385.18,500.75z M386.52,601.06c4.56-1.6,7.64-4.68,9.23-9.25
		c0.1-0.19,0.19-0.39,0.29-0.58c-0.1,0.19-0.21,0.37-0.31,0.56c-4.61,1.55-7.58,4.73-9.25,9.23c-0.17,0.19-0.35,0.39-0.52,0.58
		C386.14,601.41,386.33,601.23,386.52,601.06z M377.64,530.3c-0.33,6.96,4.48,7.66,7.33,9.76c3.21,2.37,4.12,1.69,6.35-3.34
		C387.09,534.74,382.87,532.76,377.64,530.3z M404.56,605.97c4.08-2.7,4.45-2.85,3.76-4.58c-1.37-3.45-1.27-8.09-6.43-9.49
		C399.94,597.47,401.95,601.71,404.56,605.97z M385.6,480.43c-6.46,4.05-7.04,10.46-7.22,17.05
		C384.05,493.2,382.62,485.88,385.6,480.43z M387.04,551.91c-3.47,1.06-8.1-1.1-10.96,3.86
		C380.85,556.5,384.65,556.49,387.04,551.91z M360.53,590.83c0.13,0.51,0.25,1.02,0.38,1.53c6.53,1.23,6.59,1.2,9.59-4.51
		C366.68,588.99,363.61,589.91,360.53,590.83z M396.76,490.11c-0.11-0.14-0.21-0.28-0.32-0.42c-0.13,0.12-0.26,0.24-0.39,0.35
		c0.18,0.18,0.35,0.36,0.53,0.54C396.64,490.43,396.7,490.27,396.76,490.11z"/>
	<path class="st13" d="M361.21,813.42c6.59,3.15,13.46,4.87,20.82,5.4c11.33,0.82,22.6,2.33,33.9,3.54
		c0.65,0.07,1.31,0.14,1.97,0.16c15.12,0.46,30.23,1.32,45.35,1.26c21.71-0.08,43.41-0.78,65.12-1.29
		c16.44-0.38,32.91-0.31,49.3-1.46c17.42-1.22,34.99-1.14,52.2-4.84c4.92-1.06,6.71-0.28,8.96,4.52c2.68,5.72,4.99,11.65,6.92,17.66
		c1.67,5.2,0.65,6.12-4.57,6.75c-9.1,1.09-18.17,2.48-27.28,3.58c-9.33,1.12-18.68,2.05-28.03,3.03
		c-11.95,1.25-23.9,2.52-35.85,3.68c-5.66,0.55-11.33,1.03-17,1.29c-11.58,0.52-23.17,0.88-34.76,1.3c-2.2-0.74-4.36-1.96-6.6-2.13
		c-7.22-0.54-14.47-0.84-21.71-0.96c-22.64-0.37-45.23-1.61-67.49-5.88c-12.69-2.43-25.17-5.97-37.75-9
		c-2.69-0.65-4.89-1.79-5.78-4.72C356.57,827.67,355.96,820.25,361.21,813.42z"/>
	<path class="st15" d="M651.95,955.98c0,5.45,0,10.9,0,16.1c-7.31,1.74-7.24,1.62-9.86-3.72c-5.02-10.24-10.28-20.37-15.35-30.58
		c-1.4-2.82-3.19-4.33-6.6-4.27c-11.2,0.19-22.41,0.05-33.61,0.15c-1.82,0.02-3.64,0.63-5.46,0.96c0.01,0.53,0.02,1.07,0.04,1.6
		c2.27,0.29,4.54,0.82,6.81,0.84c9.45,0.08,18.89,0.05,28.34-0.03c2.78-0.03,5.08,0.19,6.49,3.2c4.57,9.73,9.36,19.36,14,29.07
		c0.43,0.91,0.4,2.04,0.65,3.48c-2.08,0.17-3.77,0.43-5.45,0.44c-13.84,0.03-27.68,0.11-41.52-0.08c-2.47-0.03-5.31-0.65-7.32-1.99
		c-14.95-9.94-31.57-15.29-49.13-17.76c-11.89-1.68-23.91-2.46-36.54-3.7c-0.11-1.29-0.41-3.17-0.42-5.05
		c-0.05-10.32,0.04-20.65-0.07-30.97c-0.13-13.17-0.41-26.33-0.61-39.5c-0.03-2.16,0-4.33,0-7.14c22.07-1.4,43.64-2.77,65.2-4.14
		c-3.22,22.06-7.54,43.96-10.52,67.11c2.74-0.92,4.32-1.46,5.9-1.99c1.99-0.4,3.97-0.8,5.96-1.2c2.41,0.1,4.82,0.29,7.24,0.27
		c17.37-0.14,34.73-0.23,52.1-0.54c3.93-0.07,6.41,1.29,8.7,4.49c5.12,7.14,10.62,14,16.13,20.84
		C648.35,953.5,650.29,954.62,651.95,955.98z"/>
	<path class="st16" d="M889.33,480.98c-4.97,2.71-10.08,5.2-14.88,8.17c-16.09,9.95-33.85,15.41-52.11,19.41
		c-17.73,3.89-35.85,3.65-53.73,2.36c-9.13-0.66-18.26-4.59-26.88-8.24c-14.44-6.11-26.54-16.12-39-25.45
		c-9.62-7.2-19.41-14.2-29.33-20.99c-2.35-1.61-3.25-3.33-3.31-5.88c2.15-9.18,4.3-18.36,6.46-27.55c6.29,1.81,12.66,3.4,18.86,5.48
		c12.88,4.31,23.48,12.55,34.27,20.42c11.69,8.53,23.28,17.36,37.29,21.73c8.71,2.72,17.68,5.25,26.71,6.17
		c10.43,1.06,21.13,1.05,31.57,0.06c13.03-1.23,25.83-4.42,38.17-8.94c8.62-3.16,17.02-6.94,25.56-10.35
		c1.79-0.72,3.75-1.01,5.63-1.5c0.09,1.44,0.17,2.89,0.26,4.33c-0.96,3.51-1.95,7.02-2.87,10.54c-0.54,2.09-0.97,4.22-1.44,6.33
		c-0.28,0.58-0.56,1.16-0.84,1.75C889.58,479.55,889.45,480.26,889.33,480.98z"/>
	<path class="st17" d="M371.65,641.63c9.47-1.68,18.98-3.19,28.41-5.1c8.33-1.69,16.57-3.84,24.97-5.82c0-5.32,0-10.04,0-15.5
		c2.64,0,4.99,0.1,7.33-0.02c12.92-0.64,25.88-0.88,38.75-2.11c24.63-2.34,41.75-15.95,53.11-37.31c2.87-5.4,4.92-11.23,7.33-16.88
		c0.57-1.33,1.04-2.7,2.47-3.91c0,5.99,0.09,11.97-0.02,17.96c-0.17,9.44-0.65,18.87-0.62,28.3c0.01,4.23-1.33,7.53-3.82,10.85
		c-9.27,12.38-22.19,19.03-36.45,23.55c-15.55,4.94-31.57,7.56-47.79,9.02c-6.1,0.55-12.2,1.04-19.16,1.63
		c2.51,18.69,1.15,37.2,1.34,55.7c0.19,18.89-0.03,37.78-0.05,56.67c-0.02,18.61,0,37.21,0,56.48c-8.87-0.33-17.08,0.85-25.14-1.67
		c1.99-4.68,2.66-9.52,2.65-14.65c-0.09-33.83,0.17-67.65,0-101.48c-0.09-17.1-0.82-34.2-1.31-51.29c-0.04-1.24-0.54-2.46-0.94-4.18
		c-2.6,0-4.98,0.02-7.37,0C387.44,641.8,379.54,641.71,371.65,641.63z"/>
	<path class="st17" d="M464.86,958.51c0.67,3.95,3.7,5.27,7.03,5.95c7.14,1.45,14.08,0.18,20.48-2.91c2.47-1.2,4.1-4.13,6.88-7.09
		c7.83-0.71,16.64,1.34,25.47,2.83c16.14,2.72,31.66,7.28,45.45,16.51c6.66,4.45,11.22,10.36,13.1,19.3
		c-4.31,0.8-8.44,1.88-12.64,2.28c-15.73,1.5-31.46,2.97-47.22,4.1c-19.71,1.41-39.43,3.1-59.16,3.49
		c-21.49,0.42-43.01-0.51-64.52-0.85c-0.02-1.76-0.24-3.54-0.02-5.26c0.99-7.77,2.9-15.42,9.5-20.26c4.9-3.59,10.58-6.24,16.15-8.76
		C437.89,962.16,451.39,960.36,464.86,958.51z"/>
	<path class="st18" d="M390.93,768.89c-16.61,0.44-33,0.87-50.22,1.33c3.48-38.68,6.87-76.45,10.34-115.11
		c13.44-0.12,26.52-0.09,39.45-0.04C392.16,660.01,392.59,759.77,390.93,768.89z"/>
	<path class="st18" d="M434.02,816.09c0-5.97,0-10.78,0-15.58c0-2.67,1.34-4.06,4.02-4.14c0.44-0.01,0.88-0.03,1.32-0.04
		c14.46-0.48,28.93-1.06,43.39-1.41c20.62-0.5,41.26-1.59,61.86-1.02c22.71,0.64,45.5,1.7,67.69,7.59
		c5.33,1.42,10.33,3.42,15.7,7.14c-2.39,0.85-4.05,1.82-5.79,2c-6.31,0.66-12.64,1.23-18.97,1.53c-12.48,0.59-24.96,0.99-37.45,1.44
		c-11.39,0.41-22.77,0.95-34.17,1.16c-29.85,0.53-59.69,0.9-89.54,1.33C439.71,816.12,437.33,816.09,434.02,816.09z"/>
	<path class="st19" d="M717.75,919.73c1.5-7.26,2.86-14.56,4.54-21.78c7.92-34.12,15.94-68.21,23.9-102.32
		c0.24-1.02,0.3-2.08,0.46-3.26c-3.77-1.53-8.29-0.94-10.59-4.9c1.58-0.27,3.15-0.54,4.72-0.81c7.64,0.8,7.69,0.8,9.5-6.17
		c0.7-2.69,1.2-5.43,1.75-7.91c-2.55-2.07-4.67-3.8-6.29-5.12c-3.74,2.07-6.84,4.12-10.21,5.54c-2.55,1.08-3.47,2.38-2.5,4.95
		c-1.22-0.59-2.43-1.18-3.65-1.78c1.01-3.47-2.93-1.99-3.69-3.69c-0.01-1.28-0.02-2.56-0.03-3.83c1.3,0.34,2.59,0.67,3.89,1.01
		c0.93,1.64,1.87,1.63,2.8,0c5.5-1.33,10.32-3.66,13.04-9.01c0.57,0.02,1.15,0.04,1.72,0.06c0.31,1.24,0.28,2.79,1.03,3.64
		c0.99,1.13,2.57,2.26,3.96,2.34c0.8,0.04,2.08-1.86,2.5-3.11c1.06-3.18,1.76-6.48,2.72-10.14c-3.53,0.84-6.2,1.48-8.88,2.12
		c-1-0.05-2.01-0.1-3.01-0.15c-0.43,0.03-0.85-0.04-1.24-0.24c-0.02-1.2-0.04-2.4-0.06-3.6c1.53-0.06,3.08-0.02,4.6-0.19
		c5.66-0.63,10.18-2,11.9-10.05c1.32-6.18,3.06-12.28,4.78-19.07c-8.79-5.21-17.3-10.56-26.08-15.41
		c-22.16-12.24-46.1-20.28-69.59-29.42c-33.78-13.15-68.73-19.14-104.86-19.05c-5.48,0.01-10.98-0.13-16.45-0.46
		c-2.33-0.14-4.62-0.95-6.94-1.45c3.45-0.45,6.9-1.18,10.36-1.3c58.91-2.07,114.85,10.23,167.9,35.54
		c16.24,7.75,31.88,16.73,47.77,25.2c2.31,1.23,4.47,2.74,7.36,4.53c-19.91,64.67-33.47,130.89-48.97,196.76
		C723.11,918.06,720.43,918.9,717.75,919.73z"/>
	<path class="st20" d="M265.79,459.79c-11.15,20.28-16.58,42.37-20.57,64.92c-4.94,27.91-7.31,56.07-8.21,84.38
		c-0.33,10.51-0.6,21.02-0.9,31.54c-0.05,1.32-0.1,2.64-0.14,3.96c-0.38,2.8-0.98,5.59-1.09,8.41c-0.66,16.61-1.22,33.22-1.79,49.84
		c-0.4,11.79-0.76,23.58-1.14,35.37c-0.03,0.92-0.06,1.83-0.09,2.75c-0.39,20.69-0.79,41.39-1.18,62.08
		c-2.94-0.39-5.88-0.78-8.55-1.13c0-14.95-0.22-29,0.05-43.05c0.62-32.09,0.95-64.2,2.39-96.26c1.23-27.43,4.07-54.78,5.78-82.2
		c1.41-22.63,4.19-45.05,8.27-67.35c3.22-17.63,10.12-33.61,21.05-47.79C261.3,463.13,263.73,461.6,265.79,459.79z"/>
	<path class="st21" d="M211.99,337.27c0.61-20.69-7.67-37.76-21.47-52.57c-2.23-2.4-4.54-4.72-6.8-7.08
		c40.39,0.57,79.38,6.97,115.73,27.5C267.91,310.73,237.67,317.86,211.99,337.27z"/>
	<path class="st21" d="M196.5,306.96c4.46,6.33,7.47,13.25,8.54,20.96c-13.75,12.18-25.17,26.37-35.66,41.37
		c-3.62-5.98-6.68-12.4-10.97-17.85c-7.95-10.11-18.93-16.16-30.84-20.58c-1.85-0.69-3.73-1.29-5.6-1.94
		c15.61-5.7,31.21-11.4,46.82-17.1C177.74,308.55,187.05,307.36,196.5,306.96z"/>
	<path class="st21" d="M276.74,378.16c-6.04-9.73-13.37-18.28-22.85-24.84c-11.82-8.18-24.83-12.55-39.3-12.2
		c1.74-1.31,3.37-2.8,5.23-3.9c22.34-13.18,46.45-21.62,71.85-26.51c3.93-0.76,7.94-1.08,13.39-1.79
		c-9.82,13.3-15.22,26.9-19.63,40.94C282.48,359.28,279.63,368.73,276.74,378.16z"/>
	<path class="st22" d="M276.74,378.16c2.89-9.44,5.74-18.89,8.69-28.3c4.4-14.04,9.81-27.64,19.63-40.94
		c-5.45,0.71-9.46,1.03-13.39,1.79c-25.4,4.9-49.51,13.33-71.85,26.51c-1.86,1.1-3.49,2.59-5.23,3.9c-3.75,0.29-3.86,0.14-2.6-3.85
		c25.68-19.41,55.92-26.54,87.45-32.15c-36.34-20.53-75.33-26.93-115.73-27.5c-1.43-1.01-2.89-1.99-4.27-3.06
		c-0.25-0.2-0.23-0.75-0.34-1.14c0.34-0.21,0.68-0.61,1.02-0.61c24-0.17,47.9,1.28,71.2,7.22c19.16,4.89,37.41,12.49,55.14,21.29
		c4.1,2.04,6.99,4.93,9.07,9.07c6.49,12.94,13.43,25.66,19.9,38.61c6.66,13.33,12.98,26.83,19.43,40.27c0.46,0.96,0.8,1.98,0.5,3.82
		c-2.14-1.49-4.29-2.98-6.44-4.47c-0.41-1.02-0.75-2.07-1.25-3.04c-12.32-23.81-24.66-47.61-37.02-71.4
		c-0.34-0.66-0.92-1.2-1.59-2.04c-0.93,1.08-1.59,1.66-2.03,2.39c-1.25,2.07-2.47,4.15-3.58,6.3
		c-9.56,18.49-14.53,38.58-20.31,58.39c-1.34,0.94-2.67,1.89-4.43,3.12C277.94,380.68,277.34,379.42,276.74,378.16z"/>
	<path class="st21" d="M283.15,379.21c5.78-19.81,10.75-39.9,20.31-58.39c1.11-2.14,2.34-4.23,3.58-6.3
		c0.44-0.72,1.1-1.31,2.03-2.39c0.66,0.84,1.24,1.38,1.59,2.04c12.36,23.79,24.7,47.59,37.02,71.4c0.5,0.97,0.83,2.03,1.25,3.04
		c-3.47-1.85-6.91-3.75-10.41-5.53c-15.68-7.99-31.94-10.3-49.01-5.09C287.46,378.63,285.27,378.82,283.15,379.21z"/>
	<path class="st15" d="M205.79,331.63c0.69,5.35,1.39,10.7,2.2,16.95c1.83,0.04,4.11,0.2,6.39,0.14
		c10.63-0.28,20.79,1.64,30.25,6.61c1.9,0.99,3.6,2.37,5.38,3.57c-5.02,9.87-6.76,20.67-9,31.34c-4.77-3.86-9.27-8.13-14.36-11.51
		c-15.16-10.05-31.44-12.99-48.92-6.56c-1.18,0.43-2.53,0.41-3.8,0.6c0.24-1.19,0.16-2.59,0.78-3.52
		C183.73,355.61,193.61,342.66,205.79,331.63z"/>
	<path class="st22" d="M644.36,296.41c-8.27,6.55-16.45,13.22-24.86,19.59c-3.41,2.59-4.78,5.36-4.99,9.84
		c-1.1,23.69-2.13,47.42-4.45,71.01c-1.08,11.03-4.81,21.83-7.7,32.64c-8.1,30.34-16.39,60.62-24.63,90.92
		c-0.28,1.03-0.88,1.98-1.33,2.96c-3.74-2.24-4.37-5.04-3.16-9.41c9.84-35.56,19.59-71.15,28.86-106.87c2.08-8,2.47-16.5,3.13-24.81
		c1.55-19.5,2.95-39.01,4.05-58.54c0.26-4.58,1.73-7.8,5.23-10.64c5.11-4.14,9.93-8.65,14.87-13c3.93-2.36,7.86-4.72,11.8-7.08
		C642.24,294.16,643.3,295.29,644.36,296.41z"/>
	<path class="st22" d="M175.43,1015.48c25.72-11.05,47.6-27.8,68.5-46.04c5.87-5.13,10.37-10.87,13.43-18.26
		c7.62-18.43,15.69-36.69,24.15-54.75c9.53-20.34,22.17-38.81,36.02-56.44c4.34-5.52,9.01-10.76,13.4-16.24
		c2.68-3.34,5.86-5.19,10.23-4.55c-15.15,17.97-29.05,36.83-40.92,57.15c-14.74,25.22-27.17,51.59-38.87,78.32
		c-2.79,6.37-6.74,11.59-11.63,16.48c-19.87,19.84-42.96,34.6-69.03,44.84c-0.8,0.32-1.67,0.47-2.5,0.71
		C177.27,1016.28,176.35,1015.88,175.43,1015.48z"/>
	<path class="st19" d="M361.21,813.42c-5.25,6.83-4.63,14.25-2.31,21.89c0.89,2.93,3.1,4.08,5.78,4.72
		c12.58,3.03,25.06,6.57,37.75,9c22.26,4.27,44.85,5.51,67.49,5.88c7.24,0.12,14.49,0.42,21.71,0.96c2.24,0.17,4.4,1.39,6.6,2.13
		c-19.54,0.33-39.09,1.18-58.62,0.87c-23.75-0.38-47.39-2.71-70.77-6.99c-7.5-1.37-14.86-3.76-22.12-6.17
		c-4.2-1.4-7.57-4.35-10.08-8.73c4.71-7.32,10.96-13.41,17.11-19.58c1.55-1.55,3.17-3.07,4.94-4.34
		C359.19,812.71,360.35,813.28,361.21,813.42z"/>
	<path class="st17" d="M471.9,882.86c6.46-1.8,12.92-3.61,19.76-5.52c0,26.94,0,53.49,0,80.38c-5.81,0.91-11.08,3.58-16.76,0.94
		c0.06-3.87,0.16-7.74,0.16-11.61c0.02-13.61,0-27.23-0.01-40.84c-0.01-6.15-0.05-12.3-0.04-18.45
		C475.01,885.44,474.82,883.31,471.9,882.86z"/>
	<path class="st11" d="M485.36,1048.18c-0.97,1.32-1.94,2.63-2.92,3.95c-1.57,1.1-3.3,2.02-4.67,3.33
		c-6.55,6.27-22.33,7.36-30.62-3.39c-2.79-11.43-0.37-21.78,6.42-31.24c-0.03-0.33,0.06-0.63,0.25-0.9
		c3.35-0.07,6.7-0.12,10.05-0.22c2.33-0.07,4.67-0.21,7-0.32c0.49-0.01,0.98-0.02,1.46-0.02c4.31-0.79,7.05,1.41,9.02,4.87
		c2.72,4.79,4.18,9.95,4.12,15.5C485.44,1042.54,485.4,1045.36,485.36,1048.18z"/>
	<path class="st20" d="M371.65,641.63c7.9,0.08,15.79,0.17,23.69,0.24c2.38,0.02,4.77,0,7.37,0c0.4,1.72,0.9,2.94,0.94,4.18
		c0.5,17.1,1.23,34.19,1.31,51.29c0.17,33.83-0.09,67.65,0,101.48c0.01,5.12-0.66,9.96-2.65,14.65c-1.04,0-2.09,0-3.7,0
		c-0.18-16.37-0.47-32.37-0.52-48.37c-0.11-36.46-0.11-72.93-0.16-109.39c0-1.1-0.01-2.2-0.12-3.29c-0.46-4.61-0.98-5.19-5.72-5.19
		c-10.99,0-21.97,0.13-32.96,0.2c-2.37,0.02-4.73,0-6.95,0c-0.79-3.42,0.77-4.17,3.07-4.36
		C360.71,642.61,366.18,642.11,371.65,641.63z"/>
	<path class="st12" d="M546.05,492.86c2-5.69,3.85-11.44,6.05-17.06c2.29-5.85,4.91-11.57,7.39-17.34c0.39-0.44,0.79-0.89,1.18-1.33
		c0,0-0.11,0.01-0.11,0.01c1.87-0.44,3.76-0.82,5.6-1.34c6.02-1.71,12.03-3.48,18.05-5.22c-5.15,20.38-10.29,40.76-15.45,61.14
		c-0.15,0.59-0.51,1.13-1.01,2.21C560.38,506.77,553.21,499.82,546.05,492.86z"/>
	<path class="st19" d="M187.54,893.07c-7.91,18.59-16.15,37.31-28.67,53.07c-16.66,20.99-36.06,39.5-60.95,51.12
		c-14.69,6.86-29.22,14.09-45,18.24c-2.11,0.56-4.26,0.97-6.39,1.46c-0.63-0.41-1.26-0.83-1.89-1.24
		c15.73-7.23,31.91-13.62,47.08-21.87c26.63-14.47,50.45-32.69,68.17-57.78c4.54-6.42,8.22-13.46,12.16-20.29
		c4.71-8.15,9.27-16.39,13.89-24.59C186.48,891.82,187.01,892.45,187.54,893.07z"/>
	<path class="st23" d="M844.18,978.16c-4.14-16.33-8.28-32.65-12.59-49.66c-40.43-0.9-80.84,2.77-122.86,0.24
		c2.89-2.33,4.53-3.64,6.17-4.96c6.59,0.08,13.18,0.21,19.77,0.22c31.66,0.04,63.32,0.05,94.98,0.07c1.95,0,3.9,0,6.32,0
		c4.98,18.01,9.87,35.71,14.96,54.09C848.38,978.16,846.28,978.16,844.18,978.16z"/>
	<path class="st24" d="M624.89,567.41c-6.22,1.56-11.22-0.56-15.59-5.66c-4.47,4.45-9.16,8.45-15.9,7.29
		c-2.87-0.49-5.37-1.77-6.74-6.39c5.74,3.91,10.69,3.51,15.39,0.49c2.52-1.62,5.46-3.11,5.06-7.48c-5.46-0.63-10.16-2.77-12.61-8.31
		c-0.3-0.68-1.9-0.82-2.91-1.14c-4.91-1.58-7.3-5.11-8.48-11.39c1.61,1.53,2.32,2.07,2.87,2.74c4.08,4.96,6.79,5.6,12.53,2.92
		c4.58-2.13,6.86-4.91,7.85-9.8c-5.77-1.52-12.02-2.76-12.81-11.68c4.01,3.82,7.43,7.21,12.34,6.61c3.09-0.38,6.06-1.79,9.48-2.86
		c-1.69-4.32-7.1-5.72-5.6-10.66c9.2,6.51,13,8.9,25.78-1.23c-0.31,2.04-0.12,3.57-0.76,4.57c-2.88,4.52-7.02,7.26-12.49,7.37
		c-2.33,0.05-3.92,0.46-5.55,2.51c-1.69,2.12-4.45,3.38-6.81,5.07c0.64,8.49,8.9,11.2,18.63,5.68c-0.68-1.61-1.4-3.28-2.01-4.72
		c4.13,0.23,8.03,0.45,11.93,0.67c-0.66,1.87-1.33,3.75-2,5.63c-1.81,0.45-3.72,0.66-5.39,1.4c-3.34,1.47-6.9,2.79-9.71,5.01
		c-2.93,2.32-5.07,5.62-7.56,8.49c-0.14,0.16-0.36,0.25-0.53,0.39c-3.58,2.94-3.47,5.56,0.45,8.11c4.5,2.92,9.12,2.35,13.74,0.23
		C626.64,563.3,625.77,565.35,624.89,567.41z M608.01,537.62c-1.69,1.61-3.19,3.17-4.84,4.56c-1.72,1.44-3.6,2.71-5.47,4.1
		c7.17,6.72,14.15,5.74,19.08-2.2C614.03,542.05,611.28,540.02,608.01,537.62z"/>
	<path class="st19" d="M531.7,529.82c-0.88-16.01-1.18-32.08-2.82-48.01c-1.09-10.62-3.09-21.34-9.5-30.52
		c-5.44-7.79-12.49-12.91-22.14-13.86c-5.23-0.52-10.49-1.1-15.73-1.14c-23.75-0.16-47.5-0.13-71.25-0.18
		c-0.28-1.01-0.57-2.01-1.02-3.6c1.86-0.19,3.28-0.47,4.71-0.47c26.75,0.04,53.5,0.17,80.25,0.15c18.31-0.02,29.59,7.81,34.76,28.35
		c2.07,8.24,3.43,16.81,3.8,25.29c0.64,14.63,0.25,29.31,0.29,43.97C532.6,529.82,532.15,529.82,531.7,529.82z"/>
	<path class="st11" d="M554.07,1011.35c5.66-0.45,11.31-0.86,16.96-1.38c2.55-0.23,4.22,0.73,5.03,3.16
		c3.07,9.2,2.33,18.17-2.24,26.62c-3.8,7.03-10.23,8.26-17.52,6.76c-0.87-2.93-1.88-5.83-2.6-8.8
		C551.59,1028.91,550.03,1020.09,554.07,1011.35z"/>
	<path class="st15" d="M554.67,647.73c-4.53,0.32-9.02,0.64-13.38,0.94c-1.73-5.29-1.98-54.31-0.37-60.53
		c5.28,1.44,8.6,4.07,9.17,10.11c1.45,15.45,3.33,30.85,5,46.28C555.17,645.35,554.87,646.21,554.67,647.73z"/>
	<path class="st20" d="M464.86,958.51c-13.47,1.85-26.97,3.65-39.5,9.32c-5.58,2.52-11.25,5.17-16.15,8.76
		c-6.6,4.83-8.51,12.49-9.5,20.26c-0.22,1.73,0,3.51,0.02,5.26c-4.41,0.79-8.19-1.08-11.82-3.07c-3.9-2.14-4.51-4.27-3.21-8.79
		c1.76-6.12,5.36-10.97,10.46-14.68c2.29-1.67,4.65-3.33,7.19-4.55c18.13-8.66,37.26-13.72,57.3-15.18
		C461.64,955.68,464.88,954.24,464.86,958.51z"/>
	<path class="st24" d="M356.42,220.56c7.58,0.75,8.41,0.14,12.71-9.48c0.21,0.07,0.57,0.1,0.6,0.22c1.73,6.22,3.2,7.7,8.21,8.22
		c4.89,0.51,8.95-2,11.4-7.06c0.37-0.76,0.76-1.52,1.24-2.46c1.86,5.8,1.2,7.01-8.07,14.96c0.99,3.99,3.63,6.22,7.68,6.94
		c6.15,1.1,9-3.01,11.66-9.02c1.38,7.48-2.4,10.83-6.25,13.92c2.87,7.4,6.4,7.85,15.31,2.22c-0.82,8.74-6.36,10.46-15.78,5.21
		c-2.65,2.4-5.35,4.56-7.67,7.07c-1.26,1.37-1.9,3.33-2.79,5.03c-3.48,6.65-10.83,7.59-16.2,1.71c6.08,0.52,12.14,1.37,14.97-5.81
		c-2.72-2.12-6.9-2.2-8.13-6.38c11.71,3.51,16.27,1.33,16.7-8c-1.91-0.76-4.03-1.34-5.86-2.4c-1.68-0.97-3.05-2.47-4.96-4.06
		c-1.81,1.6-3.64,3.36-5.61,4.94c-5.84,4.7-11.29,2.69-13.69-5.59c3.53,1.53,6.36,5,10.27,2.81c3.48-1.95,5.26-5.14,6.01-8.88
		c-2.79-1.59-5.44-3.11-8.46-4.83c-3.52,3.65-7.37,7.51-13.27,3.85C356.43,222.64,356.42,221.6,356.42,220.56z"/>
	<path class="st7" d="M670.27,152.43c-3.1-3.87-6.16-7.78-9.31-11.61c-1.92-2.33-3.79-4.88-7.53-3.72c-0.22,0.07-0.85-1.19-1.3-1.83
		c0.58-0.62,1.16-1.25,2.64-2.84c-1.54-1.06-2.87-2.46-4.46-2.9c-1.38-0.38-3.05,0.34-4.6,0.58c0.5,1.53,0.56,3.66,1.62,4.43
		c1.18,0.86,3.26,0.5,4.94,0.67c1.16,1.61,0.69,2.9-0.78,3.99c-0.84,0.04-1.69,0.08-2.53,0.12c-1.04-0.56-2.36-0.89-3.06-1.74
		c-1.35-1.63-2.75-1.59-4.42-0.84c-0.54-0.55-1.08-1.11-1.62-1.66c1.02-1.41,2.04-2.81,3.05-4.22c-0.34-0.5-0.68-0.99-1.02-1.49
		c-4.24,1.09-8.49,2.17-12.73,3.26c-0.35-0.03-0.69-0.03-1.04-0.02c-9.82,2.12-19.74,3.88-29.42,6.49
		c-5.15,1.39-9.53,1.41-14.52-0.74c-19.31-8.32-38.81-16.18-58.2-24.29c-2.61-1.09-5.01-2.66-7.51-4.01
		c-0.01-0.31-0.04-0.62-0.09-0.93c18.7,7.53,37.59,14.62,56.02,22.76c9.86,4.35,18.81,5.45,29.47,2.29
		c15.51-4.6,31.65-7.09,47.52-10.45c0.61-0.13,1.29,0.04,2.95,0.11c5.63,8.73,11.54,17.91,17.45,27.09
		C671.29,151.44,670.78,151.94,670.27,152.43z"/>
	<path class="st12" d="M567.36,440.09c6.58-14.52,13.05-29.09,19.8-43.53c1.98-4.23,5.71-6.52,10.54-6.66
		c-0.46,5.37-0.34,10.86-1.5,16.07c-1.97,8.86-4.75,17.53-7.2,26.29c-2.46,0.68-4.99,1.18-7.37,2.08
		C576.83,436.14,572.11,438.16,567.36,440.09z"/>
	<path class="st22" d="M354.98,268.69c1.06,0,2.13,0,3.61,0c1.02,36.45-1.41,72.48-2.67,108.53c-3.75-5.4-5.04-11.21-4.72-17.91
		c1.35-28.45,2.22-56.93,3.29-85.4C354.55,272.17,354.81,270.43,354.98,268.69z"/>
	<path class="st19" d="M196.5,306.96c-9.45,0.4-18.76,1.59-27.71,4.86c-15.6,5.7-31.21,11.4-46.82,17.1
		c-3.42-0.69-6.83-1.38-11.59-2.35c2.79-1.5,4.35-2.42,5.98-3.2c22.38-10.72,45.82-17.76,70.59-20.03
		C190.49,303.02,195.2,300.84,196.5,306.96z"/>
	<path class="st2" d="M723.04,405.76c-7.94,2.13-14.78-0.45-20.1-6.87c-3.63-4.38-7.89-8.24-11.81-12.38
		c-2.23-2.35-3.84-11.09-2.08-13.56c0.99-1.39,3.2-1.9,4.87-2.81c7.77,8.81,15.54,17.63,23.31,26.43c1.85,2.1,3.74,4.17,5.61,6.25
		c0.06,0.99,0.12,1.98,0.17,2.97L723.04,405.76z"/>
	<path class="st13" d="M387.51,1015.55c5.02-0.11,10.04-0.14,15.05-0.36c3.07-0.13,4.53,1.62,4.82,4.22
		c0.73,6.5-0.57,12.71-4.48,17.98c-3.63,4.89-10.38,5.78-16.3,2.75c0.04-0.79,0.32-1.67,0.08-2.36
		C384.05,1030.25,384.62,1022.86,387.51,1015.55z"/>
	<path class="st7" d="M651.95,955.98c-1.65-1.36-3.6-2.48-4.91-4.11c-5.51-6.85-11.01-13.71-16.13-20.84
		c-2.3-3.2-4.77-4.57-8.7-4.49c-17.36,0.32-34.73,0.41-52.1,0.54c-2.41,0.02-4.82-0.18-7.24-0.27c0.19-2.18,0.83-3.82,3.55-3.64
		c2.62,0.17,5.26,0.12,7.9,0.14c17.11,0.12,34.23,0.32,51.34,0.26c3.86-0.02,6.58,0.99,8.87,4.23c5.33,7.51,10.96,14.8,16.5,22.16
		C652.44,951.81,653.23,953.72,651.95,955.98z"/>
	<path class="st22" d="M556.91,928c-1.58,0.53-3.17,1.07-5.9,1.99c2.98-23.16,7.3-45.05,10.52-67.11c1.65-0.34,3.29-0.67,5.99-1.22
		C564.52,884.42,560.26,906.14,556.91,928z"/>
	<path class="st7" d="M503.97,90.44c-6.8-10.18-13.66-20.33-20.38-30.56c-3.97-6.03-7.71-12.22-11.61-18.3
		c-1.16-1.81-2.49-3.51-4.17-5.85c-7.35,3.33-14.47,6.53-21.57,9.79c-2.2,1.01-4.33,2.25-6.82,0.88c9.45-6.83,20.24-11,30.95-15.94
		c1.02,1.23,1.96,2.11,2.59,3.17c10.62,17.86,21.21,35.73,31.79,53.62c0.33,0.55,0.47,1.21,0.69,1.82
		C504.95,89.52,504.46,89.98,503.97,90.44z"/>
	<path class="st16" d="M567.36,440.09c4.75-1.93,9.47-3.95,14.26-5.76c2.38-0.9,4.91-1.4,7.37-2.08
		c-1.59,6.11-3.19,12.21-4.78,18.32c-6.02,1.74-12.02,3.51-18.05,5.22c-1.84,0.52-3.73,0.9-5.6,1.34
		C562.83,451.46,565.09,445.77,567.36,440.09z"/>
	<path class="st24" d="M357.75,180.98c8.64,3.16,11.93,1.64,14.12-6.77c-5.52-2.69-11.67-5.11-11.61-13.85
		c3.94,3.96,6.95,7.82,12.45,8.45c5.93,0.69,9.3-2.61,12.67-7.49c0.26,6.65-1.73,9.14-9.75,13.15c-0.03,4.29,3.21,5.77,6.49,6.88
		c5.22,1.78,8.71-1.15,11.65-5.53c0.97,4.85-0.75,8-4.96,10.07c-4.72,2.32-9.51,0.64-15.1-5.46c-4.31,4.92-8.82,9.81-15.88,4.2
		C357.81,183.43,357.78,182.2,357.75,180.98z"/>
	<path class="st21" d="M627.51,561.25c-4.62,2.12-9.24,2.69-13.74-0.23c-3.93-2.55-4.03-5.17-0.45-8.11
		c0.17-0.14,0.39-0.23,0.53-0.39c2.49-2.87,4.63-6.17,7.56-8.49c2.81-2.22,6.37-3.53,9.71-5.01c1.68-0.74,3.59-0.95,5.39-1.4
		C633.51,545.49,630.51,553.37,627.51,561.25z"/>
	<path class="st7" d="M494.75,426.68c-1.96-17.74-3.9-35.49-5.88-53.23c-0.41-3.68-1.21-7.34-1.28-11.02
		c-0.03-1.69,1.26-3.41,1.96-5.11c1.12,6.22,2.38,12.41,3.34,18.65c2.4,15.61,4.67,31.23,6.96,46.86c0.15,1.05,0.02,2.14,0.02,3.85
		C498.06,426.68,496.4,426.68,494.75,426.68z"/>
	<path class="st25" d="M471.9,882.86c2.92,0.45,3.11,2.58,3.11,4.91c-0.01,6.15,0.04,12.3,0.04,18.45
		c0.01,13.61,0.02,27.23,0.01,40.84c0,3.87-0.11,7.74-0.16,11.61c-1.06,0-2.11,0-3.36,0c-0.2-1.04-0.49-1.86-0.49-2.67
		c0.01-22.69,0.03-45.38,0.12-68.07C471.16,886.24,471.64,884.55,471.9,882.86z"/>
	<path class="st21" d="M253.75,361.44c5.59,3.26,10.01,7.71,14.2,13.91c-9.18,2.49-15.19,8.8-21.29,15.01
		C249.02,380.72,251.39,371.08,253.75,361.44z"/>
	<path class="st22" d="M205.79,331.63c-12.18,11.04-22.05,23.98-31.08,37.62c-0.62,0.94-0.54,2.34-0.78,3.52
		c0,0,0.08-0.05,0.08-0.05c-0.66,0.48-1.32,0.97-1.98,1.45c-0.88-1.63-1.76-3.26-2.65-4.89c10.48-14.99,21.9-29.18,35.66-41.36
		C205.29,329.15,205.54,330.39,205.79,331.63z"/>
	<path class="st5" d="M391.36,813.43c-8.83-1.17-17.02-2.26-25.21-3.34c7.51-6.19,15.83-8.58,25.21-9.84
		C391.36,804.72,391.36,808.53,391.36,813.43z"/>
	<path class="st7" d="M576.44,528.56c-5.58,1.6-9.97,0.25-13.97-4.27c-6.96-7.86-14.43-15.25-21.69-22.85
		c-0.33-1.65-0.66-3.29-1.25-6.28c2.28,1.94,3.6,2.9,4.74,4.05c7.22,7.3,14.23,14.8,21.65,21.88
		C569,524.03,572.9,526.1,576.44,528.56z"/>
	<path class="st7" d="M374.44,95.03c1.46,1.37,1.88,2.74,0.39,4.45c-2.12,2.43-4.1,4.98-6.25,7.61c-2.42-0.74-4.78-1.47-7.14-2.19
		c0,0,0.04,0.05,0.04,0.05c-0.48-0.42-0.96-0.84-1.44-1.26c0,0,0.05,0.03,0.05,0.03c-4.85-3.05-9.62-6.24-14.59-9.09
		c-2.9-1.67-6.12-2.8-9.2-4.17c0,0,0.05,0.04,0.05,0.04c-0.6-0.49-1.21-0.99-1.81-1.48c-0.75-1.52-1.5-3.04-2.25-4.56
		c0.23-0.28,0.47-0.57,0.7-0.85c10.84,6.44,21.69,12.88,32.7,19.42C368.77,100.22,371.61,97.62,374.44,95.03z"/>
	<path class="st7" d="M373.34,428.22c-2.35,13.18-4.69,26.36-7.04,39.53c-0.61-0.44-1.22-0.89-1.83-1.33
		c0.59-12.51,1.17-25.01,1.79-38.21C369.12,428.22,371.23,428.22,373.34,428.22z"/>
	<path class="st7" d="M722.84,402.81c-1.87-2.08-3.76-4.15-5.61-6.25c-7.78-8.81-15.54-17.62-23.31-26.43
		c0.71-0.75,1.42-1.51,1.81-1.93c7.82,7.51,15.65,14.55,22.85,22.18C721.6,393.58,724.1,397.76,722.84,402.81z"/>
	<path class="st7" d="M554.07,1011.35c-4.05,8.73-2.49,17.56-0.36,26.37c0.72,2.97,1.72,5.87,2.6,8.8
		c-6.71-3.04-8.17-9.2-9.34-15.58c-1.15-6.26-0.06-12.21,2.27-17.99C550.17,1010.62,551.53,1009.06,554.07,1011.35z"/>
	<path class="st24" d="M253.75,361.44c-2.36,9.64-4.73,19.27-7.09,28.91c-0.68,1.2-1.36,2.41-2.36,4.18
		c-1.34-1.75-2.31-3.03-3.29-4.3c2.24-10.66,3.98-21.47,9-31.34C251.26,359.75,252.51,360.6,253.75,361.44z"/>
	<path class="st15" d="M375.65,61.82c1.75-1.21,3.49-2.42,5.24-3.62c2.89,1.68,5.79,3.35,8.68,5.02c-1.28,2.16-5.04,2.56-4.37,6.12
		l-0.05,0.04c-3.54-1.04-4.86,1.92-6.78,3.78c-0.38,0.5-0.77,1-1.15,1.5l0.06-0.06c-1.3-0.52-2.94-0.71-3.83-1.63
		c-1.46-1.5-2.44-3.48-3.84-5.59C371.59,65.56,373.62,63.69,375.65,61.82z"/>
	<path class="st22" d="M356.99,401.72c-0.03,6.04-0.06,12.09-0.08,18.13c-2.18,0-4.37,0-6.82,0c0-7.3,0-14.59,0-23.52
		C353.14,398.72,355.07,400.22,356.99,401.72z"/>
	<path class="st7" d="M684.06,314.34c-9.43,2.05-18.82,4.3-28.3,6.07c-4.03,0.75-8.25,0.52-12.38,0.73
		c10.01-3,20.01-6.01,30.03-8.99c1.68-0.5,3.4-0.83,5.07-1.36C681.81,309.72,683.45,311.2,684.06,314.34z"/>
	<path class="st15" d="M385.21,69.33c2.47-1.36,4.94-2.72,7.41-4.09c1.31,0.74,2.62,1.47,3.93,2.21
		c-5.5,5.44-10.99,10.89-16.3,16.15c-4.9-2.28-2.79-5.95-2.96-9.02c0,0-0.06,0.06-0.06,0.06c0.9,0,1.79,0,2.69,0
		c1.75-1.76,3.49-3.52,5.24-5.28C385.16,69.37,385.21,69.33,385.21,69.33z"/>
	<path class="st15" d="M412.95,31.03c3.48,1.86,6.97,3.72,10.45,5.58c-3.51,2.94-7.01,5.88-10.52,8.82
		c-4.15,0.21-3.87-3.81-5.64-5.87c-1.82-2.12-0.1-3.92,0.41-5.84c0,0-0.05,0.04-0.05,0.04c1.35-0.84,2.7-1.68,4.04-2.51
		C412.08,31.17,412.51,31.1,412.95,31.03z"/>
	<path class="st7" d="M699.45,328.68c-10.66,1.82-21.3,3.69-31.98,5.41c-2.1,0.34-4.3,0.08-6.45,0.1c2.25-0.75,4.47-1.62,6.76-2.22
		c8.39-2.19,16.8-4.29,25.21-6.43c1.88-0.28,3.76-0.56,6.27-0.93C699.33,326.04,699.39,327.36,699.45,328.68z"/>
	<path class="st2" d="M621.2,292.05c0.3-0.01,0.58,0.08,0.84,0.24c1.56,1.95,3.12,3.89,4.68,5.84c0.07,0.29,0.15,0.57,0.22,0.86
		c-2.6,1.94-5.14,3.95-7.81,5.79c-3.92,2.7-3.96,2.65-8.06-1.5c0.8-1.81,1.64-3.71,2.49-5.62c0,0-0.03-0.03-0.03-0.03
		c0.88-0.45,1.77-0.89,2.65-1.34c0,0-0.01,0.02-0.01,0.02C617.84,294.9,619.52,293.47,621.2,292.05z"/>
	<path class="st5" d="M693,325.55c-8.4,2.14-16.82,4.24-25.21,6.43c-2.29,0.6-4.51,1.47-6.76,2.22c-1.41-0.22-2.82-0.43-4.23-0.64
		c-0.08-0.34-0.16-0.69-0.25-1.03c1.44-0.61,2.83-1.42,4.32-1.8c7.59-1.94,15.23-3.68,22.8-5.71c2.13-0.57,5.02-0.37,5.68-3.51
		C690.41,323,690.22,325.61,693,325.55z"/>
	<path class="st15" d="M363.6,53.55c1.53-1.16,3.06-2.33,4.59-3.49c3.14,2.03,6.29,4.05,9.43,6.07c-1.56,1.69-3.11,3.38-4.67,5.06
		c-1.34,0.71-2.69,1.42-4.54,2.4C366.75,60.13,365.17,56.84,363.6,53.55z"/>
	<path class="st15" d="M413,48.41c4.45-3.23,8.9-6.45,13.35-9.68c1.59,0.96,3.17,1.92,4.76,2.88c-5.03,3.73-10.06,7.45-15.91,11.79
		C414.24,51.23,413.62,49.82,413,48.41z"/>
	<path class="st7" d="M387.51,1015.55c-2.89,7.31-3.45,14.69-0.83,22.22c0.24,0.69-0.04,1.57-0.08,2.36
		c-1.85-3.89-3.7-7.78-5.54-11.67c0.44-4.38,0.89-8.76,1.33-13.14C384.2,1012.95,385.78,1015.83,387.51,1015.55z"/>
	<path class="st8" d="M336.31,90.47c3.08,1.37,6.29,2.5,9.2,4.17c4.97,2.85,9.74,6.04,14.59,9.09c-7.61-0.12-14.21-3.52-20.83-6.65
		C336.9,95.95,335.59,93.43,336.31,90.47z"/>
	<path class="st22" d="M820.44,938.64c-10.65,1.74-21.06,0.39-31.35-2.47c9.53-0.06,19.05-0.13,28.58-0.19
		C819.46,935.96,820.59,936.63,820.44,938.64z"/>
	<path class="st24" d="M468.51,426.62c-4.63-6.04-9.26-12.07-13.89-18.11c7.04,4.58,11.55,11.59,18.54,18.11
		C470.58,426.62,469.55,426.62,468.51,426.62z"/>
	<path class="st24" d="M187.54,893.07c-0.53-0.63-1.06-1.25-1.58-1.88c3.92-6.6,7.84-13.21,11.76-19.81
		C194.33,878.61,190.93,885.84,187.54,893.07z"/>
	<path class="st5" d="M608.25,280.67c-2.65,2.09-5.3,4.19-7.93,6.27c-4.1-4.96-3.65-6.93,2.07-10.63
		C604.01,278.21,605.15,280.75,608.25,280.67z"/>
	<path class="st24" d="M503.97,90.44c0.49-0.46,0.98-0.92,1.47-1.38c4.32,6.7,8.63,13.39,12.95,20.08c0.05,0.31,0.08,0.62,0.08,0.93
		c-1.53-1.03-3.58-1.72-4.51-3.14C510.43,101.56,507.27,95.96,503.97,90.44z"/>
	<path class="st24" d="M670.27,152.43c0.51-0.5,1.02-1,1.53-1.49c4.25,7.8,8.49,15.59,12.74,23.39
		C679.78,167.03,675.02,159.73,670.27,152.43z"/>
	<path class="st7" d="M614.86,277.7c2.96,2.7,5.91,5.39,8.96,8.17c-1.27,1.67-2.02,2.67-3.24,4.28c-2.59-2.99-4.94-5.72-7.3-8.45
		C613.81,280.37,614.34,279.03,614.86,277.7z"/>
	<path class="st15" d="M402.01,24.6c2.63,1.51,5.25,3.02,7.88,4.54c-0.69,1.58-3.64,2.03-2.28,4.61c0,0,0.05-0.04,0.05-0.04
		c-5.22-1.19-7.02-3.68-6.65-9.21C401.33,24.55,401.67,24.59,402.01,24.6z"/>
	<path class="st24" d="M614.38,590.22c-3.01-0.23-6-0.5-7.92-3.37c3.67-0.46,7.02-0.89,10.38-1.31
		C616.02,587.1,615.2,588.66,614.38,590.22z"/>
	<path class="st24" d="M175.43,1015.48c0.92,0.4,1.85,0.8,2.77,1.2c-4.51,1.75-9.01,3.51-13.52,5.26c-1.01-0.03-2.01-0.07-3.02-0.1
		C166.25,1019.73,170.84,1017.6,175.43,1015.48z"/>
	<path class="st7" d="M431.11,41.61c-1.59-0.96-3.17-1.92-4.76-2.88c1.81-3.82,4.66-3.03,7.62-1.72c1.03,0.77,2.47,1.52,0.61,2.82
		C433.52,40.56,432.27,41.02,431.11,41.61z"/>
	<path class="st7" d="M326.74,83.82c-1.65-0.42-3.31-0.85-4.96-1.27c0,0,0.06,0.05,0.06,0.05c-0.38-0.41-0.75-0.83-1.13-1.24
		c-0.45-1.63-0.89-3.26-1.36-4.97C324.96,77.34,324.96,77.34,326.74,83.82z"/>
	<path class="st17" d="M401.5,18.84c0.29-0.33,0.59-0.66,0.88-0.99c-0.27,1.24-0.55,2.49-0.82,3.74c-0.7,0.49-1.41,0.99-2.11,1.48
		c-1.29-1.19-2.57-2.39-3.86-3.58c0.2-0.34,0.39-0.68,0.59-1.02C397.95,18.59,399.72,18.71,401.5,18.84z"/>
	<path class="st17" d="M531.7,529.82c0.45,0,0.9-0.01,1.35-0.01c-0.45,3.58-0.9,7.17-1.35,10.75
		C532.38,536.98,528.85,533.4,531.7,529.82z"/>
	<path class="st7" d="M608.25,280.67c-3.1,0.08-4.24-2.47-5.86-4.37c0.12-0.26,0.09-0.51-0.07-0.74c0,0-0.41-0.41-0.41-0.41
		s0.36,0.46,0.36,0.46c1.99,0.61,4.06,1.04,5.9,1.95C608.6,277.78,608.24,279.6,608.25,280.67z"/>
	<path class="st24" d="M44.65,1015.72c0.63,0.41,1.26,0.82,1.89,1.24c-1.54,0.85-3.09,1.7-4.64,2.54c-1.26-0.12-2.5-0.24-3.75-0.36
		c-0.11-0.31-0.22-0.62-0.33-0.93C40.1,1017.37,42.37,1016.54,44.65,1015.72z"/>
	<path class="st17" d="M357.15,41.59c3.29,1.54,6.58,3.07,11.13,5.2c-2.18,0.94-2.86,1.23-3.54,1.52c-1.56-0.9-3.13-1.8-4.69-2.7
		c0,0,0.06,0.05,0.06,0.05c-0.6-0.5-1.19-1.01-1.79-1.51C357.94,43.29,357.55,42.44,357.15,41.59z"/>
	<path class="st2" d="M723.02,405.78c2.33,0.37,4.48,0.99,5.62,4.15c-3.66,0.21-5.92-0.26-5.59-4.17L723.02,405.78z"/>
	<path class="st7" d="M396.54,67.46c-1.31-0.74-2.62-1.47-3.93-2.21c1.71-3.7,4.3-1.84,6.72-1.06
		C398.41,65.28,397.47,66.37,396.54,67.46z"/>
	<path class="st15" d="M360.05,45.61c1.56,0.9,3.13,1.8,4.69,2.7c-0.66,0.88-1.33,1.75-1.99,2.63
		C361.85,49.16,360.95,47.39,360.05,45.61z"/>
	<path class="st17" d="M161.66,1021.85c1.01,0.03,2.02,0.07,3.02,0.1c-2.95,0.91-5.9,1.82-8.85,2.72
		C157.77,1023.73,159.71,1022.79,161.66,1021.85z"/>
	<path class="st17" d="M364.47,466.42c0.61,0.44,1.22,0.88,1.83,1.33c-0.62,1.09-1.24,2.18-1.86,3.27
		C364.45,469.49,364.46,467.95,364.47,466.42z"/>
	<path class="st5" d="M399.45,23.06c0.7-0.49,1.41-0.99,2.11-1.48c0.88,0.22,1.77,0.43,2.65,0.65c-0.74,0.79-1.47,1.58-2.21,2.37
		c-0.34-0.02-0.68-0.05-1.01-0.09C400.48,24.03,399.96,23.54,399.45,23.06z"/>
	<path class="st17" d="M152.93,1025.55c0.79-0.22,1.58-0.45,2.35-0.67C154.5,1025.11,153.71,1025.33,152.93,1025.55z"/>
	<path class="st15" d="M172.03,374.17c0.66-0.48,1.32-0.97,1.98-1.45C173.35,373.21,172.69,373.69,172.03,374.17z"/>
	<path class="st3" d="M556.37,597.42c-0.11-0.34-0.23-0.69-0.34-1.03c0.33,0.13,0.66,0.26,0.99,0.38
		C556.81,596.99,556.59,597.21,556.37,597.42z"/>
	<path class="st24" d="M197.39,870.9c0.23,0.08,0.47,0.16,0.7,0.24c-0.15,0.12-0.29,0.23-0.44,0.35
		C197.44,871.35,197.35,871.15,197.39,870.9z"/>
	<path class="st8" d="M360.05,103.69c0.48,0.42,0.96,0.84,1.44,1.26C361.01,104.53,360.53,104.11,360.05,103.69z"/>
	<path class="st8" d="M334.55,89.02c0.6,0.49,1.21,0.99,1.81,1.48C335.76,90.01,335.15,89.52,334.55,89.02z"/>
	<path class="st8" d="M320.72,81.35c0.38,0.41,0.75,0.83,1.13,1.24C321.47,82.18,321.09,81.76,320.72,81.35z"/>
	<path class="st15" d="M358.33,44.15c0.6,0.5,1.19,1.01,1.79,1.51C359.52,45.15,358.93,44.65,358.33,44.15z"/>
	<path class="st5" d="M472.35,1019.35c-0.49,0.01-0.98,0.02-1.46,0.02C471.37,1019.37,471.86,1019.36,472.35,1019.35z"/>
	<path class="st12" d="M894.86,460.22c-0.09-1.44-0.17-2.89-0.26-4.33c0,0-0.03,0.03-0.03,0.03c0.53,0.04,1.06,0.08,1.6,0.12
		C895.73,457.44,895.3,458.83,894.86,460.22z"/>
	<path class="st12" d="M889.71,478.84c0.28-0.58,0.56-1.17,0.84-1.75C890.27,477.67,889.99,478.25,889.71,478.84z"/>
	<path class="st16" d="M896.17,456.04c-0.53-0.04-1.06-0.08-1.6-0.12c0.68-0.41,1.35-0.83,2.03-1.24
		C896.46,455.13,896.31,455.59,896.17,456.04z"/>
	<path class="st16" d="M560.67,457.13c-0.39,0.44-0.79,0.89-1.18,1.33C559.88,458.02,560.28,457.57,560.67,457.13z"/>
	<path class="st20" d="M453.59,1020.82c-6.79,9.46-9.21,19.81-6.42,31.24c-6.75-6.77-9.17-20.78-5.2-29.26
		c0.97-2.06,2.3-3.15,4.54-2.92C448.88,1020.12,451.23,1020.5,453.59,1020.82z"/>
	<path class="st7" d="M626.72,298.12c-1.56-1.95-3.12-3.89-4.68-5.84c0.79-1.21,1.59-2.42,2.82-4.29c2.22,2.57,4.09,4.74,6.48,7.51
		C629.45,296.57,628.08,297.35,626.72,298.12z"/>
	<path class="st0" d="M621.2,292.05c-1.68,1.43-3.36,2.85-5.03,4.28C616.6,293.44,617.49,291.09,621.2,292.05z"/>
	<path class="st0" d="M616.17,296.3c-0.88,0.45-1.77,0.89-2.65,1.34C614.41,297.19,615.29,296.75,616.17,296.3z"/>
	<path class="st7" d="M389.58,63.22c-2.89-1.67-5.78-3.34-8.68-5.02c0.67-1.64,1.73-2.58,3.52-1.63c2.45,1.3,4.84,2.73,7.79,4.41
		C391.09,61.93,390.33,62.57,389.58,63.22z"/>
	<path class="st7" d="M377.62,56.14c-3.14-2.02-6.29-4.04-9.43-6.07c0.97-0.38,2.23-1.34,2.87-1.04c2.85,1.36,5.52,3.08,10.29,5.86
		C379.6,55.47,378.61,55.81,377.62,56.14z"/>
	<path class="st0" d="M407.6,33.76c-1.36-2.58,1.6-3.04,2.28-4.61c0.56-0.26,1.1-0.51,1.65-0.76c0.04,0.95,0.07,1.91,0.11,2.86
		C410.3,32.08,408.95,32.92,407.6,33.76z"/>
	<path class="st5" d="M411.64,31.24c-0.04-0.95-0.07-1.91-0.11-2.86c0.79-0.72,1.59-1.44,2.38-2.16c0.34,0.25,0.69,0.5,1.03,0.76
		c-0.67,1.35-1.33,2.7-2,4.05C412.51,31.1,412.08,31.17,411.64,31.24z"/>
	<path class="st0" d="M594.28,151.26c5.92,1.39,11.84,2.76,17.74,4.2c0.61,0.15,1.27,0.52,1.69,0.98
		c4.73,5.09,9.16,10.42,13.41,17.32c-9.02-0.29-16.59-2.31-24.14-4.34c-0.91-0.25-1.81-1.29-2.3-2.19
		c-2.59-4.78-5.04-9.64-7.54-14.47C593.52,152.26,593.9,151.76,594.28,151.26z"/>
	<path class="st22" d="M475.14,72.04c0.11,5.4-0.95,10.03-4.29,13.89c-4.61,5.33-10.78,5.21-15.2-0.21
		c-5.69-6.98-5.79-19.44-0.2-26.48c4.73-5.97,11.51-5.92,16.02,0.18C474.33,63.28,475.39,67.7,475.14,72.04z M470.85,72.68
		c-0.93-2.8-1.38-5.69-2.76-8.03c-2.88-4.89-8.49-4.81-11.73-0.14c-3.1,4.47-3.14,11.59-0.08,16.09c3.27,4.81,8.68,5,11.7,0.09
		C469.39,78.37,469.88,75.48,470.85,72.68z"/>
	<path class="st7" d="M435.55,89.17c0.25,4.8-0.99,9.41-4.24,13.29c-4.29,5.13-10.29,5.16-14.8,0.24
		c-6.26-6.85-6.42-20.54-0.32-27.54c4.6-5.28,10.71-5.22,15.25,0.23C434.72,79.31,435.72,83.97,435.55,89.17z M414.65,87.1
		c0.92,3.47,1.16,6.9,2.69,9.6c3.14,5.52,8.36,5.54,12.16,0.51c3.73-4.93,3.59-13.79-0.31-18.44c-3.3-3.95-8.15-4.15-11.11,0.04
		C416.41,81.16,415.78,84.25,414.65,87.1z"/>
	<path class="st0" d="M662.25,147.88c2.1,4.73,4.27,9.43,6.28,14.2c1.16,2.76,0.36,5.34-2.01,6.97c-3.53,2.43-7.3,4.51-11.24,6.9
		C654.33,171.1,657.23,157.91,662.25,147.88z"/>
	<path class="st24" d="M628.12,132.62c0.35-0.01,0.69-0.01,1.04,0.02c2.85,3.95,6.56,4.13,10.7,2.45c0.54,0.55,1.08,1.11,1.62,1.66
		c-1.26,1.11-2.51,2.22-3.73,3.3c0.79,3.35,2.72,5.05,6.03,4.65c3.08-0.37,5.22-1.88,5.19-5.37c0.84-0.04,1.69-0.08,2.53-0.12
		c-0.48,1.45-0.74,3.02-1.48,4.31c-1.62,2.82-4.1,4.69-7.46,4.34c-3.03-0.32-5.39-2.14-6.09-5.18c-0.51-2.21-1.44-3.19-3.67-3.77
		C629.8,138.13,628.08,135.91,628.12,132.62z"/>
	<path class="st24" d="M619.3,143.99c4.38,2.05,8.44,2.01,12.45-1.93c0.58,4.89-2.41,5.73-4.94,6.56
		C623.51,149.71,621.72,148.62,619.3,143.99z"/>
	<path class="st21" d="M652.28,135.22c-1.69-0.17-3.77,0.19-4.94-0.67c-1.06-0.78-1.12-2.9-1.62-4.43c1.54-0.24,3.22-0.96,4.6-0.58
		c1.59,0.44,2.91,1.84,4.46,2.9c-1.48,1.59-2.06,2.21-2.64,2.84C652.13,135.27,652.28,135.22,652.28,135.22z"/>
	<path class="st24" d="M725.66,768.65c0.01,1.28,0.02,2.56,0.03,3.83c-5.77-1.69-8.16-6.67-10.96-11.26
		c-4.24-1.73-10.41-0.4-11.43-7.22l-0.09,0.1c7.99,3.87,15.34,2.56,21.92-3.06c1.87-1.6,3.13-3.91,5.26-6.66
		c-6.83-1.7-12.96-2.85-16.5-9.66c1.37,0.18,2.14,0.09,2.7,0.39c11.94,6.27,18.67,4.95,26.81-5.73c0.94,8.1-4.75,10.78-10.16,14
		c1.49,5.67,7.11,5.76,10.89,8.18c0.02,1.2,0.04,2.4,0.06,3.6c-5.28-0.09-8.8-3.41-11.95-6.87c-2.12,2.54-3.77,5.12-6,7.02
		c-2.42,2.06-5.38,3.48-8.87,5.66C720.33,763.72,723,766.18,725.66,768.65z"/>
	<path class="st24" d="M729.38,776.17c1.22,0.59,2.43,1.18,3.64,1.78c2.58,2.91,5.17,5.81,7.75,8.72c-1.57,0.27-3.14,0.54-4.72,0.81
		c-1.83-2.1-3.65-4.21-5.42-6.24c-4.47,3.21-9.12,6.56-13.82,9.94c3.54,9.36,12.37,10.91,21.59,3.27c1.3,2.92,0.31,5.05-1.82,6.79
		c-4.34,3.55-9.12,3.8-14.24,1.87c-1.91-0.72-3.96-1.06-5.94-1.58l0.06,0.06c-0.92-3.42-1.85-6.83-2.82-10.41
		c-5.26-0.2-9.71-1.51-13.73-6.42c1.97,0.15,2.98-0.03,3.72,0.32c8.44,4.01,15.28,0.63,21.68-4.64
		C726.82,779.2,728.04,777.6,729.38,776.17z"/>
	<path class="st24" d="M687.83,706.25c11.3,9.34,18.54,6.8,26.5-1.26c0.68,5.7-2.3,9.2-9.53,11.17
		C697.02,718.28,691.89,715.58,687.83,706.25z"/>
	<path class="st24" d="M716.41,801.52c-0.7,5.67-4.45,8.23-9.6,9.12c-4.61,0.8-7.39-0.76-10.34-5.93c1.71,0.57,2.81,0.88,3.88,1.3
		c4.03,1.61,7.68,0.66,11.18-1.56c1.61-1.02,3.29-1.92,4.93-2.88C716.47,801.58,716.41,801.52,716.41,801.52z"/>
	<path class="st24" d="M728.11,822.46c-0.52,5.45-3.43,7.94-7.21,9.1c-4.24,1.31-7.96-0.08-11.25-4.22
		c3.87,0.23,7.11,1.12,9.95,0.41C722.32,827.06,724.62,824.72,728.11,822.46z"/>
	<path class="st24" d="M703.3,754.01c-0.2-0.03-0.39-0.06-0.59-0.1c0.17,0.07,0.33,0.13,0.5,0.2
		C703.21,754.11,703.3,754.01,703.3,754.01z"/>
	<path class="st26" d="M260.98,539.8c4.02-5.37,4.01-5.36,8.07-2.9c4.87,2.95,9.78,5.85,14.63,8.84c0.87,0.54,1.56,1.38,2.3,2.05
		c-3.35,5-4.76,5.64-8.97,3.02C271.65,547.47,266.57,543.67,260.98,539.8z"/>
	<path class="st26" d="M279.49,567.59c-1.69,1.02-3.56,3.13-5.03,2.88c-5.6-0.96-11.6-0.34-16.93-3.31
		C261.39,562.2,265.64,562.07,279.49,567.59z"/>
	<path class="st26" d="M287.05,518.89c1.61,1.25,2.76,1.89,3.56,2.82c2.52,2.94,4.91,5.99,7.58,9.28c-1.26,1.44-2.33,2.67-3.52,4.03
		c-5.63-2.4-6.96-7.78-9.45-12.14C284.84,522.22,286.25,520.55,287.05,518.89z"/>
	<path class="st26" d="M311.93,471.13c-1.39,1.26-2.6,2.36-4.01,3.65c-4.86-3.76-8.77-7.15-11.5-11.99
		C302.16,460.67,303.92,461.61,311.93,471.13z"/>
	<path class="st26" d="M280.75,733.19c1.8,3.41,3.6,6.81,5.7,10.76c-1.8,1.42-3.35,2.65-5.64,4.45c-1.85-4.26-3.65-7.49-4.54-10.97
		c-0.31-1.21,1.66-2.99,2.59-4.51C279.49,733.02,280.12,733.11,280.75,733.19z"/>
	<path class="st26" d="M317.61,438.88c1.05,0.3,2.57,0.31,2.86,0.9c1.48,3.05,2.94,6.19,3.74,9.46c0.24,0.99-1.66,2.5-2.57,3.77
		c-1.06-0.88-2.86-1.65-3.03-2.68C318.01,446.7,315.2,443.19,317.61,438.88z"/>
	<path class="st26" d="M314.28,668.97c-0.68,13.41-0.68,13.41-4.35,15.86C306.77,676.68,308.07,671.96,314.28,668.97z"/>
	<path class="st26" d="M331.56,630.26c-1.99,1.36-3.71,3.52-5.22,3.37c-2.66-0.26-5.39-1.6-7.7-3.09c-1.58-1.02-0.14-4.13,2.14-4.16
		C324.38,626.33,328.03,626.73,331.56,630.26z"/>
	<path class="st26" d="M245.39,620.28c5.6-1.69,8.71,2.25,13.65,4.27c-1.78,1.23-3.09,2.79-3.88,2.56
		C251.38,626,247.33,624.96,245.39,620.28z"/>
	<path class="st26" d="M235.97,644.58c0.05-1.32,0.1-2.64,0.14-3.96c4.08,0,8.17,0,12.44,0c-1.6,4.92-2.53,5.59-6.24,4.98
		C240.2,645.26,238.08,644.92,235.97,644.58z"/>
	<path class="st26" d="M280.74,481.38c-1.93,5.97-3.77,6.17-10.39,1.65C273.3,479.51,276.83,481.33,280.74,481.38z"/>
	<path class="st26" d="M258.38,763.19c-1.46,3.87-2.91,7.74-4.79,12.72C251.22,768.8,252.44,765.47,258.38,763.19z"/>
	<path class="st26" d="M286.14,675.92c3.47-3.35,6.95-6.7,10.78-10.4c-0.34,4.31-4.33,8.7-9.8,11.39
		C286.79,676.58,286.46,676.25,286.14,675.92z"/>
	<path class="st26" d="M231.85,740.94c0.03-0.92,0.06-1.83,0.09-2.75c2.11-0.43,4.22-0.86,6.33-1.31c1.86-0.39,3.72-0.81,5.78-1.25
		C241.59,740.61,241.18,740.78,231.85,740.94z"/>
	<path class="st26" d="M271.58,756.4c1.82,1.7,3.36,2.85,4.47,4.33c0.42,0.56,0.18,2.24-0.36,2.74c-0.55,0.5-2.14,0.57-2.78,0.12
		C270.82,762.12,269.57,760.15,271.58,756.4z"/>
	<path class="st26" d="M284.44,678.51c-0.17,0.37-0.25,0.94-0.52,1.06c-0.26,0.11-0.72-0.25-1.09-0.41
		c0.16-0.37,0.25-0.94,0.52-1.05C283.61,678,284.07,678.36,284.44,678.51z"/>
	<path class="st24" d="M601.53,486.63c8.58,6.45,10.37,6.43,19.05,0.3c0.82,4.6-1.61,7.7-7.05,8.96
		C607.98,497.19,603.55,494.07,601.53,486.63z"/>
	<path class="st26" d="M377.64,530.3c5.23,2.46,9.46,4.44,13.68,6.42c-2.23,5.03-3.14,5.71-6.35,3.34
		C382.12,537.96,377.3,537.26,377.64,530.3z"/>
	<path class="st26" d="M404.56,605.97c-2.61-4.26-4.62-8.5-2.68-14.07c5.16,1.4,5.06,6.04,6.43,9.49
		C409,603.12,408.63,603.27,404.56,605.97z"/>
	<path class="st26" d="M385.6,480.43c-2.98,5.44-1.54,12.77-7.22,17.05C378.56,490.9,379.14,484.49,385.6,480.43z"/>
	<path class="st26" d="M387.04,551.91c-2.39,4.58-6.19,4.58-10.96,3.86C378.94,550.81,383.57,552.97,387.04,551.91z"/>
	<path class="st26" d="M360.53,590.83c3.07-0.92,6.15-1.84,9.97-2.98c-3,5.72-3.06,5.74-9.59,4.51
		C360.78,591.85,360.66,591.34,360.53,590.83z"/>
	<path class="st26" d="M395.75,591.8c-1.59,4.57-4.67,7.65-9.23,9.25l-0.05-0.05c1.67-4.49,4.65-7.68,9.25-9.23L395.75,591.8z"/>
	<path class="st26" d="M386.48,499.43c0.5-3.29,2.7-4.99,6.32-6.7c-0.82,4.32-3.04,6-6.29,6.73
		C386.52,499.46,386.48,499.43,386.48,499.43z"/>
	<path class="st26" d="M385.19,500.77c-0.47,0.33-0.93,0.66-1.4,0.99c0.46-0.33,0.92-0.67,1.39-1L385.19,500.77z"/>
	<path class="st26" d="M396.76,490.11c-0.06,0.16-0.12,0.32-0.18,0.48c-0.18-0.18-0.35-0.36-0.53-0.54
		c0.13-0.12,0.26-0.24,0.39-0.35C396.55,489.83,396.66,489.97,396.76,490.11z"/>
	<path class="st26" d="M386.52,601.06c-0.19,0.18-0.38,0.36-0.57,0.53c0.17-0.19,0.35-0.39,0.52-0.58
		C386.47,601.01,386.52,601.06,386.52,601.06z"/>
	<path class="st26" d="M395.73,591.78c0.1-0.19,0.21-0.37,0.31-0.56c-0.1,0.19-0.19,0.39-0.29,0.58
		C395.75,591.8,395.73,591.78,395.73,591.78z"/>
	<path class="st26" d="M385.18,500.75c0.44-0.44,0.87-0.89,1.31-1.33c0,0,0.03,0.03,0.03,0.03c-0.44,0.44-0.89,0.87-1.33,1.31
		C385.19,500.77,385.18,500.75,385.18,500.75z"/>
	<path class="st21" d="M725.66,768.65c-2.66-2.47-5.33-4.93-8.29-7.68c3.49-2.18,6.45-3.6,8.87-5.66c2.23-1.9,3.88-4.48,6-7.02
		c3.15,3.46,6.67,6.77,11.95,6.87c0.39,0.19,0.8,0.27,1.24,0.24c-0.01,1.75-0.02,3.5-0.04,5.25c-2.73,5.35-7.54,7.68-13.04,9.01
		c-0.93,0-1.87,0-2.8,0C728.25,769.32,726.96,768.98,725.66,768.65z"/>
	<path class="st21" d="M740.78,786.66c-2.58-2.91-5.17-5.81-7.75-8.72c-0.96-2.56-0.04-3.87,2.5-4.95
		c3.37-1.42,6.47-3.47,10.21-5.54c1.62,1.32,3.74,3.04,6.29,5.12c-0.54,2.48-1.05,5.22-1.75,7.91
		C748.47,787.46,748.42,787.47,740.78,786.66z"/>
	<path class="st21" d="M748.44,755.55c2.68-0.64,5.35-1.28,8.88-2.12c-0.95,3.66-1.65,6.96-2.72,10.14c-0.42,1.25-1.7,3.16-2.5,3.11
		c-1.39-0.08-2.97-1.21-3.96-2.34c-0.75-0.86-0.72-2.4-1.03-3.64C747.55,758.99,748,757.27,748.44,755.55z"/>
	<path class="st24" d="M748.44,755.55c-0.44,1.72-0.89,3.44-1.33,5.15c-0.57-0.02-1.15-0.04-1.72-0.06c0.01-1.75,0.02-3.5,0.04-5.25
		C746.43,755.45,747.44,755.5,748.44,755.55z"/>
	<path class="st24" d="M729.55,769.66c0.93,0,1.87,0,2.8,0C731.41,771.28,730.48,771.29,729.55,769.66z"/>
	<path class="st21" d="M608.01,537.62c3.26,2.4,6.02,4.43,8.77,6.45c-4.93,7.94-11.91,8.92-19.08,2.2c1.87-1.39,3.75-2.66,5.47-4.1
		C604.82,540.79,606.32,539.22,608.01,537.62z"/>
	<path class="st21" d="M648.97,139.33c0.03,3.49-2.11,5-5.19,5.37c-3.3,0.4-5.24-1.3-6.03-4.65c1.21-1.08,2.47-2.19,3.73-3.3
		c1.67-0.75,3.07-0.79,4.42,0.84C646.6,138.44,647.92,138.77,648.97,139.33z"/>
	<path class="st21" d="M639.85,135.09c-4.14,1.68-7.85,1.5-10.7-2.45c4.24-1.09,8.49-2.17,12.73-3.26c0.34,0.5,0.68,0.99,1.02,1.49
		C641.89,132.28,640.87,133.69,639.85,135.09z"/>
	<path class="st5" d="M385.16,69.37c-1.75,1.76-3.49,3.52-5.24,5.28c-0.51-0.5-1.03-1-1.54-1.49
		C380.3,71.29,381.61,68.33,385.16,69.37z"/>
	<path class="st0" d="M378.38,73.15c0.51,0.5,1.03,1,1.54,1.49c-0.9,0-1.79,0-2.69,0C377.61,74.15,377.99,73.65,378.38,73.15z"/>
	<path class="st0" d="M470.85,72.68c-0.97,2.8-1.46,5.7-2.88,8.01c-3.01,4.91-8.43,4.72-11.7-0.09c-3.06-4.5-3.02-11.62,0.08-16.09
		c3.25-4.68,8.85-4.76,11.73,0.14C469.47,66.99,469.92,69.88,470.85,72.68z"/>
	<path class="st0" d="M414.65,87.1c1.13-2.85,1.77-5.93,3.44-8.29c2.96-4.19,7.8-3.99,11.11-0.04c3.89,4.66,4.04,13.51,0.31,18.44
		c-3.8,5.02-9.02,5.01-12.16-0.51C415.81,94,415.57,90.57,414.65,87.1z"/>
</g>
</svg>
