<?xml version="1.0" encoding="utf-8"?>
<!-- Generator: Adobe Illustrator 25.4.1, SVG Export Plug-In . SVG Version: 6.00 Build 0)  -->
<svg version="1.1" xmlns="http://www.w3.org/2000/svg" xmlns:xlink="http://www.w3.org/1999/xlink" x="0px" y="0px"
	 viewBox="0 0 1920 1080" style="enable-background:new 0 0 1920 1080;" xml:space="preserve">
<style type="text/css">
	.st0{fill:#DD5A58;}
	.st1{fill:#263C7F;}
	.st2{fill:#283E81;}
	.st3{fill:#2D4283;}
	.st4{fill:#6473A3;}
	.st5{fill:#FEFEFE;}
	.st6{fill:#1E3A81;}
	.st7{fill:#FDFDFD;}
	.st8{fill:#1D3A81;}
	.st9{fill:#DD5959;}
	.st10{fill:#21367B;}
	.st11{fill:#23377C;}
	.st12{fill:#DC5959;}
	.st13{fill:#22367A;}
	.st14{fill:#24387C;}
	.st15{fill:#FBFAFA;}
	.st16{fill:#243B7F;}
	.st17{fill:#22377D;}
	.st18{fill:#223980;}
	.st19{fill:#21357B;}
	.st20{fill:#263A7D;}
	.st21{fill:#223A7F;}
	.st22{fill:#FCFBFC;}
	.st23{fill:#263C7E;}
	.st24{fill:#233A80;}
	.st25{fill:#FEFDFD;}
	.st26{fill:#FEFCFC;}
	.st27{fill:#23387D;}
	.st28{fill:#203980;}
	.st29{fill:#203A80;}
	.st30{fill:#233B80;}
	.st31{fill:#FDFDFC;}
	.st32{fill:#FDFBFB;}
	.st33{fill:#FDFCFC;}
	.st34{fill:#FDF9F9;}
	.st35{fill:#293E7F;}
	.st36{fill:#FDF7F7;}
	.st37{fill:#FCF3F3;}
	.st38{fill:#FBF0F0;}
	.st39{fill:#FBF2F2;}
	.st40{fill:#2C3F80;}
	.st41{fill:#FBF1F0;}
	.st42{fill:#FCF4F4;}
	.st43{fill:#FBEEEE;}
	.st44{fill:#F2E6E9;}
	.st45{fill:#263B7F;}
	.st46{fill:#EDC7D2;}
	.st47{fill:#1F3981;}
	.st48{fill:#ECE6EB;}
	.st49{fill:#F7DBDB;}
	.st50{fill:#F0DBDF;}
	.st51{fill:#DDABBC;}
	.st52{fill:#DC5958;}
	.st53{fill:#1F357A;}
	.st54{fill:#253A7E;}
	.st55{fill:#DF5A59;}
	.st56{fill:#DD5958;}
	.st57{fill:#1E3981;}
	.st58{fill:#273B7E;}
	.st59{fill:#DD5D5B;}
	.st60{fill:#253B7F;}
	.st61{fill:#8078A8;}
	.st62{fill:#293E80;}
	.st63{fill:#F7EEED;}
	.st64{fill:#EBBDC8;}
	.st65{fill:#1B3078;}
	.st66{fill:#DD5857;}
	.st67{fill:#2B3D7E;}
	.st68{fill:#FCFCFC;}
	.st69{fill:#283C7F;}
	.st70{fill:#273C7F;}
	.st71{fill:#2C3E7F;}
	.st72{fill:#273B80;}
	.st73{fill:#273B7F;}
	.st74{fill:#DB5959;}
</style>
<g id="Layer_1">
	<g>
		<path class="st0" d="M276.63,474.65c-12.06,3.71-24.09,7.48-36.18,11.08c-5.1,1.52-10.32,2.68-15.48,4
			c0.5-3.9,0.88-7.81,1.52-11.69c2.06-12.37,4.23-24.72,6.35-37.08c0.12-0.09,0.26-0.13,0.42-0.1c0.05,1.15,0.1,2.29,0.16,3.44
			c0.12,8.37,5.91,10.74,12.73,11.83c4.25,0.68,8.55,1.05,12.84,1.44c0.96,0.09,1.97-0.31,2.96-0.49c-0.33-1.04-0.41-2.27-1.02-3.1
			c-4.28-5.89-8.8-11.62-12.99-17.57c-4.03-5.72-7.75-11.66-11.6-17.51c0.04-0.38,0.08-0.76,0.12-1.15c1.01-2.5,2.21-4.93,2.99-7.5
			c0.77-2.54,2.03-3.21,4.53-2.34c2.81,0.98,5.7,2.16,8.61,2.34c3.79,0.24,6.81,1.62,9.92,3.63c6.75,4.36,14.13,6.15,21.92,3.08
			c9.64-3.8,14.41-14.84,11.1-25.88c-0.99-3.3-0.35-5.91,0.78-8.95c1.17-3.13,1.36-6.62,1.98-9.95c0.56-0.93,1.13-1.86,1.69-2.79
			c6.71-0.98,13.4-2.15,20.14-2.88c8.44-0.92,16.93-1.4,25.39-2.21c5.5-0.53,11.05-0.37,15.25-5.48c3.12-3.8,7.37-6.7,11.2-9.89
			c7.65-6.36,15.38-12.63,23.06-18.97c7.88-6.5,15.71-13.05,23.6-19.52c8.25-6.76,16.54-13.47,24.82-20.19
			c9.21-7.47,18.49-14.85,27.58-22.47c1.78-1.49,3.47-3.65,4.13-5.83c3.8-12.47,7.18-25.07,10.89-37.57
			c2.4-8.09,5.22-16.07,7.68-24.15c3.51-11.55,6.83-23.16,10.29-34.72c2.36-7.89,4.84-15.74,7.23-23.62
			c3.13-10.35,6.15-20.73,9.46-31.02c0.36-1.11,2.4-2.53,3.52-2.42c10.46,1.07,20.92,2.17,31.3,3.8c8.71,1.37,8.66,1.68,11.64-6.34
			c0.16-0.44,0.29-0.89,0.43-1.33c0.04-0.53,0.09-1.07,0.13-1.6c1.33,0.04,2.67,0.09,4,0.13c3.03,0.52,6.1,0.91,9.09,1.59
			c20.11,4.59,40.34,8.76,60.28,14.04c13.86,3.67,27.31,8.9,40.94,13.43c0.62,0.35,1.24,0.7,1.85,1.05
			c-4.38,4.59-3.6,10.01,1.71,12.72c14.87,7.58,29.72,15.19,44.53,22.89c2.24,1.16,3.66,0.76,5.3-1.04
			c15.08-16.49,30.2-32.95,45.38-49.35c6.19-6.69,12.58-13.19,18.88-19.78c-0.96,5.32-1.92,10.64-2.89,15.96
			c-1.44,5.17-2.66,10.41-4.41,15.47c-0.72,2.1-2.2,4.31-3.96,5.61c-4.8,3.53-9.93,6.59-14.93,9.84
			c-6.64,3.59-13.3,7.17-19.92,10.79c-0.71,0.39-1.5,0.92-1.87,1.59c-0.38,0.7-0.69,1.99-0.32,2.41c0.46,0.53,1.76,0.79,2.47,0.55
			c1.42-0.5,2.69-1.44,4.03-2.17c5.5-2.95,11.01-5.89,16.52-8.83c3.84-2.14,7.67-4.27,11.51-6.41c1.22-0.73,2.44-1.46,3.66-2.19
			c5.74-0.09,9.71-3.32,10.19-8.36c0.54-5.61,1.04-11.22,1.56-16.83c0.4-1.05,0.98-2.07,1.19-3.16c1.49-7.72,2.9-15.45,4.33-23.18
			c1.15-0.89,2.31-1.79,3.46-2.68c0.27,3.24,0.54,6.47,0.82,9.71c0,15.14-0.09,30.27,0.03,45.41c0.05,5.75-1.33,10.24-7.48,12.05
			c-1.21,0.36-2.26,1.27-3.39,1.93c-10.31,5.09-20.63,10.17-30.94,15.26c-2.72,1.18-5.51,2.23-8.14,3.58
			c-3.88,1.99-7.65,4.19-11.47,6.3c-0.01,0.44-0.02,0.87-0.04,1.31c3.54,1.14,7.08,2.27,10.61,3.44c3.74,1.24,7.87,1.3,10.16,5.72
			c7.39,14.25,15.08,28.35,22.76,42.46c4.86,8.93,9.89,17.77,14.85,26.64c-4.19,4.22-5.67,12.85-3,17.73
			c8.53,15.57,17.11,31.1,25.61,46.68c17.49,32.02,34.95,64.06,52.4,96.1c12.92,23.72,25.75,47.49,38.78,71.15
			c1.57,2.85,3.63,6.01,6.3,7.58c27.1,15.96,54.24,31.87,81.67,47.24c10.44,5.85,21.66,10.29,32.54,15.35
			c2.99,1.39,5.47,0.92,7.57-1.86c1.73-2.29,3.92-4.24,5.68-6.52c0.81-1.05,1.1-2.51,1.62-3.78c8.86,3.63,17.69,7.34,26.59,10.88
			c7.89,3.14,15.86,6.08,23.79,9.11c0.07,1.44,0.14,2.88,0.21,4.32c-0.06,1.44-0.17,2.87-0.17,4.31
			c-0.01,141.23-0.01,282.47-0.01,423.7c0,3.54,0.01,7.09,0.01,10.63c-0.08,0.22-0.17,0.44-0.26,0.66c-0.9-0.23-1.88-0.31-2.7-0.71
			c-10.72-5.31-21.55-10.39-32.08-16.05c-32.32-17.38-63.58-36.53-93.05-58.4c-17.21-12.78-33.97-26.18-50.6-39.72
			c-10.23-8.32-19.95-17.29-29.69-26.19c-9.12-8.34-17.97-16.98-26.94-25.49c1.02-0.59,2.09-1.11,3.06-1.77
			c5.5-3.76,8.42-9.27,4.21-16.62c-3.37,6.98-8.5,11.13-16.33,11.05c-0.75-1.04-1.38-2.18-2.25-3.09
			c-5.53-5.72-11.11-11.4-16.67-17.08c5.87-4.08,2.94-10.26,3.34-15.99c1.38,1,2.32,1.68,3.25,2.36c1.84,1.38,3.51,3.14,5.56,4.08
			c6.42,2.97,12.74,1.88,18.87-1.13c0.38,1.13,0.59,2.36,1.18,3.37c3.17,5.41,6.91,10.43,13.79,10.86
			c6.78,0.42,12.08-2.51,15.54-8.51c1.73-3,1.16-7.72-1.28-9.95c-3.95,11.72-17.48,12.35-23.61,6.43c-3.51-3.39-3.83-3.85-0.84-7.71
			c3.42-4.42,5.31-9.05,2.24-14.71c-1.24,2.69-2.38,5.15-3.51,7.61c-0.51,0.5-1.06,0.97-1.53,1.51c-6.87,7.74-16.73,9.06-25.24,3.23
			c-0.88-0.6-1.23-1.96-1.83-2.97c5.92-6.72,8.1-15.37,4.79-20.31c-0.79,1.18-1.45,2.27-2.22,3.28c-3.32,4.37-6.24,9.15-10.11,12.96
			c-5.19,5.12-11.91,4.76-18.56,3.19c-0.97-1-2.03-1.93-2.9-3.01c-4.79-5.93-9.53-11.89-14.29-17.84
			c-6.51-11.36-13.02-22.72-19.53-34.08c-1.68-5.04-3.37-10.09-5.05-15.13c-0.6-2.31-1.09-4.66-1.83-6.93
			c-5.14-15.64-10.35-31.26-15.5-46.89c-2.39-7.26-4.69-14.54-7.04-21.82c-2.01-7.32-4.02-14.63-6.03-21.95
			c-0.71-3.72-1.42-7.43-2.13-11.14c-0.97-3.61-1.94-7.22-2.92-10.83c-0.7-2.68-1.4-5.35-2.09-8.03c-0.94-3.4-1.88-6.8-2.82-10.19
			c-0.41-1.81-0.76-3.65-1.25-5.44c-4.1-15-8.25-29.98-12.32-44.98c-8.03-29.55-16-59.12-24.1-88.65c-0.3-1.11-2.19-2.88-2.5-2.72
			c-2,1.04-3.77,2.53-5.62,3.88c-0.61-0.71-1.21-1.41-1.82-2.12c-1.24-4.73-2.28-9.52-3.75-14.17
			c-5.73-18.06-11.59-36.08-17.46-54.09c-0.29-0.89-1.16-1.6-2.05-2.78c-3.31,4.68-6.15,8.97-9.27,13.04
			c-10.51,13.7-21.12,27.32-31.7,40.98c-1.77,1.94-3.5,3.93-5.33,5.81c-8.76,9.01-17.37,18.19-26.41,26.91
			c-5.22,5.03-11.16,9.31-16.77,13.92c-4.26,2.08-8.49,4.26-12.8,6.24c-17,7.81-35.03,11.56-53.51,13.52
			c-9.37-0.28-18.74-0.56-28.11-0.84l0.06,0.01c-5.49-1.71-5.52-1.76-2.86-4.96c1.04-0.58,2.18-1.03,3.11-1.75
			c16.78-13.02,33.76-25.81,50.23-39.21c11.26-9.17,22.03-18.99,30.22-31.23c11.47-17.13,20.96-35.29,28.38-54.53
			c9.79-25.39,15.86-51.61,16.19-78.88c0.12-9.85-1.34-19.72-2.08-29.58c-0.19-1.62-0.29-3.25-0.58-4.85
			c-1.4-7.73-2.75-15.47-4.39-23.16c-0.29-1.37-1.87-2.46-2.86-3.68c-2.21,2.77-4.54,5.45-6.61,8.31
			c-16.37,22.67-33.65,44.61-52.25,65.52c-18.69,21.01-38.39,40.97-60.16,58.83c-5.54,4.55-11.11,9.06-16.66,13.58
			c-5.68,3.68-11.28,7.48-17.04,11.02c-14.6,8.97-29.21,17.93-43.94,26.69c-9.17,5.46-18.51,10.63-27.85,15.79
			c-9.03,4.98-18.11,9.87-27.25,14.64c-9.12,4.76-18.35,9.33-27.53,13.98C307.83,461.49,292.23,468.07,276.63,474.65z
			 M876.22,759.62c3.56-1.46,7.12-2.93,10.68-4.39c3.82-3.38,5.17-7.79,5.82-12.5c-0.34-0.18-0.67-0.35-1.01-0.53
			c-1.35,2.39-2.7,4.78-4.06,7.17c-2.89,1.09-5.72,2.42-8.69,3.23c-6.48,1.77-13.29-0.53-16.57-5.3c3.96-4.58,6.44-10,7.03-15.89
			c0.43-4.24,1.83-7.31,4.85-10.24c3.55-3.45,3.83-10.64,0.86-14.47c-0.6,1.78-0.95,3.37-1.64,4.8
			c-3.99,8.22-21.76,10.85-28.09,4.17c-0.45-0.47-0.99-1.27-0.87-1.79c1.19-5.3,2.5-10.57,3.83-16.05
			c19.98-3.75,25.28-21.03,18.6-35.53c-0.51,2.12-1.02,4.32-0.82,6.44c0.43,4.4-1.1,7.94-3.82,11.24
			c-6.49,7.87-15.5,11.03-23.61,8.02c-1.84-0.68-3.52-1.82-6.11-3.18c0.33,2.71-0.14,5.34,0.94,6.44c2.8,2.86,6.29,5.04,10.27,8.09
			c-0.13,5.46-4.59,9.74-8.77,14.17c-4.99,2.33-10.12,3.3-15.66,2.32c-1.86-0.33-4.64-0.99-4.64,2.6c0.04,0.48,0.08,0.97,0.12,1.45
			c0.2,0.53,0.23,1.3,0.62,1.57c5.78,4.11,16.15,5.65,21.85-0.06c0.89-0.45,1.77-0.9,3.65-1.85c-0.27,3.01-0.21,5.22-0.71,7.31
			c-1.44,6-5,10.71-9.53,14.75c-4.23,2.92-8.91,3.6-14.47,2.48c0.28,1.63,0.48,2.81,0.69,4l-0.02-0.01c1.02,1,1.88,2.52,3.09,2.92
			c4.35,1.4,8.46,0.53,12.14-2.23c1.36,0.61,2.84,1.04,4.06,1.85c6.65,4.45,13.46,5.12,20.54,1.1l-0.04,0.01
			c0.62,0.49,1.24,0.98,1.87,1.47C861.59,758.76,869.92,761.78,876.22,759.62z M1000.85,795.39c-0.89,1.26-1.78,2.52-2.67,3.78
			c-6.15,8.64-14.61,14.17-25.55,3.78c-0.08-0.08-0.21-0.12-0.31-0.17c0.09-0.68-0.01-1.48,0.31-2.04c2.4-4.15,1.53-8.24,0.06-12.74
			c-5.6,16.86-19.45,20.7-29.94,12.35c-1.91,2.23-1.6,4.49,0.96,6.93c9.41,8.97,16.46,8.45,27.02-2.05c0.35,0.45,0.7,0.89,1.06,1.33
			c7.73,11.63,21.03,11.27,27.89-0.77c4.67-5.76,5.47-10.2,2.29-14.73C1001.54,792.71,1001.2,794.05,1000.85,795.39z M949.67,854.78
			c4.51-5.5,5.24-14.52,1.07-18.93c-0.18,2.35-0.04,4.39-0.57,6.24c-0.54,1.92-1.72,3.66-2.62,5.47c-3.92,3.92-8.22,6.93-14.12,5.44
			c-1.01,3.81,0,6.11,2.74,6.81C941.34,861.13,946.3,859.28,949.67,854.78z M966.3,726.35c-5.21,5.99-11.49,8.27-19.23,5.55
			c-0.14-0.05-0.4,0.22-0.97,0.55c0.29,3.43,2.31,5.66,5.4,7.03c6.16,2.73,12.2,0.89,17.06-5.1c5.07-5.54,5.93-16.23,2.01-20.12
			C969.21,718.15,967.76,722.25,966.3,726.35z M589.14,163.69c-0.1,3-0.51,6.02-0.24,8.99c0.67,7.31,5.36,12.61,9.57,18.12
			c1,0.94,1.91,2.01,3.02,2.8c11.83,8.42,25.53,5.61,32.98-6.74c8.03-13.31,4.62-33.45-7.37-43.55c-5.57-4.69-11.87-7.27-19.2-5.68
			c-10.74,2.34-16.03,10.08-18.81,19.97c-0.47,1.68-0.14,3.59-0.18,5.39C588.98,163.22,589.06,163.45,589.14,163.69z M337.24,422.66
			c0.78-0.45,1.56-0.9,2.34-1.35c4.8-3.76,9.72-7.38,14.34-11.35c1.44-1.23,2.53-3.3,2.97-5.18c2.3-9.8,4.35-19.66,6.44-29.52
			c0.19-0.92,0.03-1.91,0.03-3.45c-1.32,0.75-2.07,1.06-2.68,1.54c-10.24,8.15-20.52,16.26-30.65,24.54
			c-2.28,1.87-5.08,4.04-5.87,6.62c-2.77,9.04-4.78,18.31-7,27.51c-0.17,0.7,0.11,2.05,0.54,2.22c0.7,0.28,1.8,0.06,2.54-0.33
			c1.9-1.01,3.73-2.17,5.52-3.38C329.6,427.93,333.41,425.28,337.24,422.66z M802.84,311.25c-4.03-2.6-7.16-4.26-9.81-6.48
			c-1.36-1.14-1.63-3.49-2.81-4.94c-0.86-1.05-2.73-2.39-3.58-2.08c-1.22,0.45-2.34,2.18-2.75,3.58c-0.46,1.54-0.12,3.33-0.05,5.01
			c0.51,13.55-6.76,14.96-16.64,13.53c-2.01-0.29-3.98-0.87-5.97-1.28c-0.82-0.17-1.65-0.24-2.86-0.42
			c3.15,3.87,9.14,7.36,13.91,7.86c3.37,0.35,4.78,1.89,4.23,5.18c-0.67,4-1.08,8.09-2.19,11.97c-1.21,4.21-4.9,6.69-9.27,6.62
			c-2.6-0.04-5.2-0.65-7.8-0.99c-1.42-0.19-2.83-0.36-4.25-0.53c3.85,4.31,8.43,6.43,13.75,7.32c1.47,0.25,3.29,1.6,3.95,2.93
			c3.29,6.62,1.63,12.74-4.24,17.18c-0.69,0.52-1.27,1.2-2.18,2.06c6.07-0.23,10.7-4.17,12.44-10.19c1.09-3.75,1.59-3.8,5.33-2.64
			c2.8,0.87,5.81,1.41,8.74,1.48c2.36,0.05,3.66,0.87,4.25,2.96c3.01,10.71,15.88,12.97,24.27,5.8c1.33-1.14,2.33-2.67,4.12-4.78
			c-1.88,0-2.53-0.04-3.17,0.01c-4.66,0.34-9.32,1.05-13.96,0.96c-5.88-0.12-9.61-4.38-8.02-8.56c-0.5,0-1-0.12-1.43,0.02
			c-8.9,2.79-14.04-1.61-18.55-7.94c-0.76-1.07-0.7-3.24-0.19-4.58c1.52-3.98,3.61-7.74,5.19-11.69c0.99-2.47,2.1-3.22,4.57-1.78
			c1.84,1.08,3.86,1.99,5.92,2.53c7.52,1.96,16.94-4.56,16.97-12.12c-1.46,1.36-2.62,2.5-3.85,3.58c-4.48,3.94-9.17,4.98-13.13,2.26
			c-2.61-1.8-4.85-4.28-6.82-6.8c-0.65-0.83-0.23-2.86,0.26-4.12c0.91-2.31,2.8-4.34,3.25-6.69c0.71-3.68,2.52-4.32,5.81-3.83
			C798.25,311.94,800.35,311.43,802.84,311.25z M731.84,236.28c1.62,5.38,7.17,9.06,12.97,9.74c1.46,0.17,3.9,1.5,3.97,2.44
			c0.43,5.55,0.06,11.07-4.09,15.5c-3.84,4.1-8.85,4.32-13.95,4.27c-2-0.02-4,0-6,0c-0.03,0.4-0.07,0.81-0.1,1.21
			c2.29,0.96,4.52,2.12,6.88,2.84c9.81,3.02,18.91-0.95,22.76-9.82c0.99-2.27,1.36-5.65,3.05-6.54c1.66-0.87,4.64,0.81,7.05,1.32
			c5.38,1.14,11.2-2.05,12.47-6.91c-0.5,0.03-1.02-0.07-1.41,0.12c-7.41,3.49-10.63,2.93-16.13-2.85c-3.12-3.28-2.99-4.4,0.07-7.84
			c4.54-5.11,6.63-11.07,5.22-17.92c-0.26-1.28-1.32-2.4-2.52-4.46c-1.9,7.97-5.33,13.66-10.64,18.03
			C745.5,240.3,738.85,238.25,731.84,236.28z M511.88,186.42c2.21,2.54,3.54,1.75,4.96-0.11c4.24-5.51,8.76-10.82,12.81-16.47
			c2.2-3.07,3.92-2.88,6.67-0.82c7.3,5.44,14.72,10.72,22.26,15.83c1.14,0.77,3.51,0.9,4.68,0.22c2.22-1.28,3.99-3.36,6.45-5.56
			c-11.49-8.18-22.73-16.17-34.01-24.2C527.52,166.02,519.73,176.18,511.88,186.42z M796.18,641.01c1.88,5.63,5.91,9.34,11.24,11.69
			c7.2,3.18,13.91,1.83,19.87-3.01c4.72-3.84,7.31-9.41,6.32-12.57C818.38,649.32,815.57,649.11,796.18,641.01z M302.2,386.44
			c0.24,5.12,7.34,9.82,14.22,9.99c6.7,0.17,14.03-6.69,14.44-13.53c0.42-7.05-2.11-12.2-6.74-12.7c2.17,6.72,3.22,13.47-2.94,18.43
			C314.59,393.95,308.59,388.99,302.2,386.44z M792.96,693.52c-3.76,8.61-7.39,16.9-11.04,25.26c4.91,0.56,9.83-2.95,12.69-8.9
			C797.38,704.12,796.83,697.4,792.96,693.52z"/>
		<path class="st1" d="M872.35,847.6c8.97,8.51,17.82,17.15,26.94,25.49c9.74,8.9,19.46,17.87,29.69,26.19
			c16.63,13.53,33.39,26.94,50.6,39.72c29.48,21.88,60.73,41.02,93.05,58.4c10.53,5.66,21.36,10.74,32.08,16.05
			c0.82,0.4,1.8,0.48,2.7,0.71c0,5.88,0,11.77,0,17.66c-0.96-0.08-1.76-0.15-2.57-0.21c-13.88-7.02-27.98-13.62-41.57-21.14
			c-19.77-10.94-39.31-22.29-58.69-33.9c-24.87-14.9-48.69-31.36-71.15-49.73c-14.25-11.65-28.48-23.33-42.69-35.03
			c-1.37-1.13-2.52-2.52-3.78-3.79c-0.7-1.07-1.24-2.3-2.13-3.18c-5.58-5.44-11.35-10.7-16.84-16.22
			c-8.02-8.06-15.85-16.32-23.83-24.43c-0.79-0.8-2.04-1.14-3.08-1.69c-2-2.14-4-4.28-6-6.42c-3.15-3.39-6.29-6.78-9.44-10.17
			c-2.38-2.62-4.76-5.24-7.14-7.87c-3.15-3.63-6.3-7.26-9.45-10.9c-14.33-19.77-28.67-39.53-42.95-59.33
			c-0.86-1.19-1.25-2.73-1.86-4.1c-0.32-1.16-0.64-2.33-0.96-3.49c0.21-1.28,0.51-2.56,0.61-3.86c0.14-1.79,0.13-3.59,0.19-5.39
			c0.38-0.01,0.77-0.01,1.15-0.02c0.64,1.24,1.23,2.51,1.94,3.71c1.23,2.09,2.32,4.32,3.86,6.17c1.82,2.19,4.21,0.92,6.17,0.05
			c0.37-0.16-0.04-2.54-0.44-3.79c-0.18-0.57-1.18-1.05-1.89-1.23c-1.7-0.45-3.45-0.7-5.18-1.03c0.02-0.31,0.04-0.62,0.07-0.93
			c1.55-0.17,3.11-0.33,4.66-0.5c0-0.13,0-0.25,0-0.38c-2.02-0.11-4.04-0.21-6.05-0.32c0-0.35,0-0.7,0-1.05
			c1.78-0.12,3.56-0.24,5.34-0.36c0-0.14,0-0.29,0.01-0.43c-2.03-0.11-4.05-0.22-6.08-0.32c0.01-0.3,0.03-0.59,0.04-0.89
			c1.83,0,3.66,0,5.48,0c0.02-0.2,0.04-0.39,0.07-0.59c-2.37-0.52-4.74-1.05-7.11-1.57c-0.18-0.35-0.35-0.7-0.53-1.05
			c1.58-1.04,3.16-2.09,4.74-3.13c-1.2-1.94-4.68,2.32-5.45-1.79c1.68-0.13,3.16-0.24,5.61-0.43c-2.69-1.41-4.52-2.38-6.35-3.34
			c0.15-0.38,0.29-0.75,0.44-1.13c1.35-0.18,2.7-0.36,4.06-0.55c0-0.11,0.01-0.21,0.01-0.32c-1.66-0.13-3.33-0.25-4.99-0.38
			c0.01-0.1,0.01-0.19,0.02-0.29c3.52-0.26,7.04-0.52,11.33-0.83c-2.45-5.53-4.72-10.65-6.77-15.28c-0.02-0.01,0.6,0.3,1.22,0.62
			c-0.4-1.31-1.96-2.18-1.85-2.75c0.39-2.13-5.14-3.52-0.72-5.94c-0.76-1.24-1.52-2.49-2.28-3.73c-0.54-0.89-1.08-1.79-1.88-3.13
			c1.24,0.24,1.73,0.33,2.22,0.42c-0.81-1.41-1.96-2.18-2.91-3.14c-0.13-0.13,0.67-1.2,1.13-1.97c-0.29-3.02-6.44-4.55-3.32-8.59
			c-1.04-1.56-1.84-2.72-2.51-3.94c-0.04-0.07,1.07-0.76,1.71-1.22c-1.23-1.37-2.51-2.69-3.63-4.13c-0.29-0.37-0.36-1.33-0.09-1.64
			c1.72-1.96,0.77-3.52-0.68-4.83c0.94-0.28,1.72-0.51,2.5-0.74c2.07,6.28,4.19,12.55,6.2,18.86c4.79,15.05,9.51,30.12,14.31,45.16
			c1.21,3.79,2.64,7.51,3.97,11.26c0.22-0.05,0.45-0.1,0.67-0.16c0.06-0.58,0.13-1.15,0.19-1.73c1.68,5.04,3.37,10.09,5.05,15.13
			c-0.55,0.81-1.1,1.61-2.05,2.99c4.25,7.05,8.68,14.46,13.17,21.82c1.18,1.93,2.43,3.85,3.93,5.52c1.28,1.44,2.97,2.51,4.48,3.75
			c4.76,5.95,9.5,11.91,14.29,17.84c0.87,1.08,1.93,2.01,2.9,3.01c3.12,3.6,6.24,7.19,9.36,10.79c3.05,3.35,6.1,6.7,9.15,10.05
			c0.55,0.52,1.09,1.04,1.64,1.57c5.56,5.69,11.14,11.36,16.67,17.08c0.88,0.91,1.51,2.05,2.25,3.09
			C864.2,843.91,868.58,847.46,872.35,847.6z"/>
		<path class="st2" d="M596.95,359.91c-0.38-0.22-0.75-0.44-1.13-0.65c3.18-7.1-1.37-13.21-2.51-19.76
			c-0.25-1.46-0.27-2.96-0.39-4.35c0.93-0.18,1.06-0.24,1.15-0.21c2.2,0.71,4.37,1.95,6.59,2.04c3.43,0.13,1.34-3.81,3.11-5.13
			c0.15,0.93,0.29,1.87,0.44,2.8C601.79,343.07,599.37,351.49,596.95,359.91z"/>
		<path class="st3" d="M841.08,842.48c1.04,0.55,2.29,0.89,3.08,1.69c7.98,8.11,15.8,16.37,23.83,24.43
			c5.5,5.52,11.26,10.78,16.84,16.22c0.89,0.87,1.43,2.11,2.13,3.18c-2.74-2.25-5.7-4.28-8.17-6.79
			C866.15,868.37,853.64,855.4,841.08,842.48z"/>
		<path class="st4" d="M446.95,502.77c-0.85,3.08-1.7,6.17-2.56,9.25c-0.68,1.73-1.36,3.46-2.04,5.18
			C443.89,512.4,445.42,507.58,446.95,502.77z"/>
		<path class="st5" d="M298.28,372.17c-0.62,3.33-0.82,6.82-1.98,9.95c-1.13,3.04-1.77,5.65-0.78,8.95
			c3.3,11.05-1.47,22.08-11.1,25.88c-7.78,3.07-15.17,1.28-21.92-3.08c-3.11-2.01-6.13-3.4-9.92-3.63c-2.91-0.18-5.8-1.36-8.61-2.34
			c-2.51-0.87-3.76-0.2-4.53,2.34c-0.78,2.57-1.98,5.01-2.99,7.5l-0.24-0.13c-1.16-1.66-2.31-3.32-3.47-4.98
			c-0.35,0.13-0.7,0.26-1.05,0.39c-1.55,9.36,0.56,18.63,1.16,27.94c-2.12,12.36-4.29,24.71-6.35,37.08
			c-0.65,3.87-1.02,7.79-1.52,11.69c-6.6,1.39-13.18,2.85-19.81,4.05c-0.46,0.08-1.74-1.68-1.81-2.65c-0.14-1.87,0.3-3.78,0.51-5.68
			c0.16-0.45,0.39-0.88,0.47-1.34c3.1-17.26,5.96-34.57,9.34-51.78c4.11-20.88,9.31-41.49,16.89-61.42
			c1.32-3.94,4.35-5.74,8.18-6.54c10.64-2.22,21.23-4.72,31.93-6.57c9.4-1.63,18.92-2.62,28.42-3.7c4.08-0.47,8.23-0.39,12.33-0.7
			c2.82-0.21,5.62-0.66,8.43-1c1.71,0.06,3.42,0.12,5.12,0.18c3.27-0.22,6.54-0.45,9.81-0.67c3.17,0.25,6.36,0.79,9.52,0.67
			c2.96-0.11,5.89-0.92,8.84-1.42c0.44-0.46,0.89-0.91,1.33-1.37c2.97-2.29,6-4.53,8.92-6.89c11.39-9.22,22.74-18.48,34.11-27.71
			c7.09-5.75,14.2-11.48,21.3-17.21c2.14-1.62,4.31-3.19,6.41-4.86c9.06-7.19,18.12-14.37,27.12-21.62
			c4.22-3.4,8.3-6.96,12.44-10.45c2.58-0.92,3.67-3.02,4.29-5.48c2.1-8.29,4.21-16.57,6.31-24.86c1.54-5.61,3.08-11.22,4.62-16.83
			c0.49-2.39,0.92-4.79,1.5-7.16c1.67-6.86,3.41-13.71,5.12-20.57c1.41-4.88,2.84-9.76,4.24-14.64c3.1-10.78,6.14-21.57,9.29-32.33
			c3.04-10.38,6.19-20.73,9.29-31.1c0.9-1.63,1.94-3.2,2.67-4.91c2.27-5.3,3.1-5.72,8.62-5.1c11.25,1.27,22.54,2.26,33.78,3.66
			c4.41,0.55,8.73,1.89,13.09,2.87c-0.14,0.44-0.27,0.89-0.43,1.33c-2.97,8.02-2.93,7.7-11.64,6.34c-10.38-1.63-20.85-2.73-31.3-3.8
			c-1.12-0.11-3.17,1.31-3.52,2.42c-3.31,10.29-6.32,20.67-9.46,31.02c-2.39,7.88-4.87,15.73-7.23,23.62
			c-3.46,11.56-6.78,23.17-10.29,34.72c-2.46,8.08-5.27,16.05-7.68,24.15c-3.71,12.5-7.09,25.1-10.89,37.57
			c-0.66,2.18-2.35,4.34-4.13,5.83c-9.09,7.61-18.38,14.99-27.58,22.47c-8.28,6.72-16.57,13.42-24.82,20.19
			c-7.89,6.47-15.73,13.02-23.6,19.52c-7.68,6.33-15.4,12.6-23.06,18.97c-3.84,3.19-8.08,6.09-11.2,9.89
			c-4.2,5.12-9.75,4.96-15.25,5.48c-8.46,0.81-16.94,1.29-25.39,2.21c-6.74,0.73-13.43,1.91-20.14,2.88
			c-0.43-0.3-0.86-0.61-1.29-0.91c0.91-0.45,1.79-1.17,2.74-1.29c5.09-0.61,10.21-1,15.31-1.59c9.95-1.14,19.9-2.23,29.82-3.58
			c3.69-0.5,8.1-0.61,10.78-2.7c9.6-7.48,18.49-15.87,27.86-23.66c13.97-11.6,28.12-23.01,42.22-34.46
			c12.34-10.02,24.83-19.86,37.02-30.05c4.22-3.52,9.08-6.38,10.14-13.05c1.17-7.31,4.07-14.35,6.21-21.51
			c5.16-17.3,10.3-34.6,15.48-51.89c3.99-13.29,8.02-26.57,12.07-39.84c3.49-11.44,7.01-22.87,10.53-34.31
			c0.98-3.18,3.17-4.84,6.46-4.47c11.96,1.35,23.93,2.66,35.84,4.38c2.93,0.42,3.01-0.81,3.64-2.79c0.77-2.45-0.56-3.13-2.36-3.41
			c-4.59-0.71-9.19-1.36-13.8-1.89c-8.41-0.98-16.85-1.66-25.23-2.83c-6.56-0.92-8.44-0.43-10.28,5.23
			c-4.46,13.74-8.82,27.51-12.89,41.37c-3.23,10.99-5.99,22.12-8.93,33.19c-2.35,8.86-4.66,17.74-6.99,26.6
			c-2.1,7.95-4.27,15.88-6.29,23.85c-1.95,7.71-3.6,15.5-5.66,23.17c-0.76,2.82-1.68,6.13-3.67,7.99
			c-4.95,4.62-10.59,8.48-15.89,12.73c-10.17,8.14-20.28,16.36-30.44,24.52c-10.53,8.45-21.12,16.83-31.65,25.29
			c-9.13,7.34-18.36,14.57-27.25,22.2c-5.58,4.79-10.99,9.28-19.03,7.75c-0.46-0.09-0.96-0.03-1.44,0.02
			c-13.4,1.43-26.82,2.69-40.18,4.34c-10.76,1.33-21.47,3.02-32.17,4.76c-6.7,1.09-13.35,2.53-20.01,3.86
			c-4.77,0.95-9.56,1.86-14.27,3.06c-0.95,0.24-1.6,1.69-2.39,2.59c0.15,0.11,0.29,0.22,0.44,0.33c0.85-0.42,1.7-0.83,2.88-1.41
			c-0.33,1.03-0.5,1.56-0.71,2.2c1.36-0.19,2.42-0.33,3.63-0.5c-0.18-0.8-0.33-1.46-0.56-2.45c3.4,2.57,6.3,1.97,7.95-0.93
			c0.74,0.35,1.43,0.68,2.13,1.01c0-0.46-0.16-1.01,0.03-1.37c0.24-0.44,0.72-0.84,1.19-1.01c0.33-0.12,0.95,0.07,1.19,0.34
			c0.41,0.47,0.63,1.11,0.93,1.67c0.38-0.82,0.77-1.64,1.21-2.58c2.5,5.15,7.1-1.76,10.06,1.23c-4.1,2.81-8.6,2.51-12.95,3.21
			c-2.71,0.44-5.68,2.77-7.35,5.1c-1.36,1.91-0.75,5.13-1.4,7.68c-0.99,3.87-2.31,7.66-3.48,11.49c-0.21-0.06-0.42-0.13-0.63-0.19
			c0.5-2.32,1-4.64,1.5-6.96c-0.46-0.09-0.91-0.19-1.37-0.28c-1.12,5.77-2.25,11.54-3.45,17.75c-6.07-4.01-7.51,4.22-12.66,3.89
			c2.98-10.51,5.84-20.59,8.7-30.67c-1.02,0.31-1.78,0.89-1.99,1.63c-3.48,12.28-7.21,24.5-10.21,36.9
			c-2.69,11.12-4.61,22.42-6.8,33.66c-1.23,6.31-2.31,12.65-3.43,18.98c-0.98,5.53-1.97,11.06-2.81,16.61
			c-0.18,1.2,0.28,2.49,0.45,3.74c0.49,0.02,0.98,0.04,1.47,0.06c1.25-6.6,2.72-13.17,3.71-19.82c1.22-8.25,1.99-16.57,3.12-24.83
			c0.15-1.06,1.48-1.9,2.02-2.97c0.73-1.44,1.22-3,1.82-4.5c-0.34-0.12-0.69-0.24-1.03-0.36c-0.35,0.72-0.71,1.43-1.06,2.15
			c-0.13-2.08,0.4-3.94,0.81-5.83c1.51-6.99,2.94-14.01,4.52-20.98c0.24-1.08,1.1-2.03,1.67-3.04c0.55,0.17,1.1,0.34,1.64,0.51
			c0,6.32-0.11,12.64,0.05,18.96c0.07,2.99,1.1,6,0.9,8.94c-0.3,4.32-1.26,8.6-2.05,12.87c-0.32,1.73-0.91,3.42-1.44,5.36
			c0.36,0.38,1.09,1.16,2.14,2.29c1.2-9.05,2.34-17.63,3.34-25.14c0.21,1.39,0.59,3.84,0.96,6.29c0.39-0.05,0.78-0.09,1.17-0.14
			c0.05-0.69,0.19-1.39,0.15-2.08c-0.44-8.47-1.01-16.94-1.32-25.42c-0.12-3.35,2.47-4.58,5.39-2.81c0.7,0.42,1.31,0.99,2.32,1.78
			c0.6-4,1.97-7.21,6.26-8c-2.39-2.75-2.99-5.53-1.85-8.85c1.2-3.49,2.08-7.09,2.99-10.67c2.11-8.33,8.64-11.34,15.45-7.81
			c1.97-1.53,3.49-3.64,5.37-4.03c8.39-1.75,16.89-3.05,25.36-4.43c1.28-0.21,2.63-0.03,3.95-0.03c0.01,0.31,0.01,0.62,0.02,0.93
			c-2.19,0.4-4.37,0.83-6.57,1.2c-7.64,1.28-15.31,2.45-22.91,3.94c-0.94,0.19-2.4,2.82-2.18,3.07c2.64,3.06,5.55,5.89,8.39,8.78
			c11.4,3.91,18.16,0.77,22.3-10.36c0.33-0.88,0.79-1.72,1.19-2.57C295.77,373.03,296.02,369.93,298.28,372.17z M275.21,412.55
			c11.17,0.06,17.96-10.19,14.06-18.35c-0.45-0.94-2.2-1.7-3.4-1.77c-4.61-0.27-9.25-0.01-13.84-0.4c-2.38-0.2-3.54,0.37-4.29,2.58
			c-1.06,3.15-2.5,6.18-3.46,9.36c-0.31,1-0.03,2.8,0.68,3.4C268.48,410.34,272.48,412.44,275.21,412.55z M260.78,390.89
			c-0.58-2.48-1.18-5.54-2.05-8.52c-0.58-1.99-0.92-4.66-3.85-4.37c-3.12,0.3-6.39,0.93-7.51,4.54c-1.53,4.92-2.94,9.89-4.21,14.89
			c-0.24,0.95,0.06,2.58,0.74,3.12c2.86,2.32,6.17,3.94,9.96,2.96c3.5-0.9,5.11-3.83,6.08-7.03
			C260.42,394.9,260.45,393.18,260.78,390.89z"/>
		<path class="st6" d="M596.77,356.07c2.42-8.42,3.53-11.11,5.95-19.53c1.67-9.52,2.84-16.51,3.97-26.09
			c1.05-8.93,1.22-18.37,1.7-27.37c-0.23-4.87-0.28-13.5-0.39-18.38c-0.05-2.09,2.34-4.39,2.54-6.49c0.74,9.86,2.2,19.73,2.08,29.58
			c-0.33,27.27-6.4,53.49-16.19,78.88c-7.42,19.24-16.91,37.39-28.38,54.53c-8.19,12.24-18.96,22.06-30.22,31.23
			c-16.47,13.41-33.45,26.19-50.23,39.21c-0.93,0.72-5.15,4.02-6.19,4.6c-0.58,0.06-1.11-2.61-2.57-2.47
			c4.86-3.52,13.47-9.57,17.61-12.79c13.01-10.13,23.38-19.99,36.11-30.46c7.11-5.85,13.26-11.49,20.05-17.73
			c10.3-9.46,14.88-19.81,21.72-31.75c1.78-3.1,8.68-10.94,10.28-14.14c3.82-8.46,4.54-11.44,8.3-19.92
			C593.85,364.96,596.02,358.19,596.77,356.07z"/>
		<path class="st7" d="M572.66,87.81c-1.01-1.15-2.03-2.3-3.04-3.46c3.75-3.43,7.56-6.81,11.23-10.33c1.7-1.62,3.31-2.01,5.42-0.85
			c2.28,1.24,4.69,2.25,7.04,3.36c2.62,1.43,5.24,2.85,7.86,4.28c-0.01,0.16,0.04,0.31,0.14,0.44c-1.48,3.58-2.96,7.16-4.45,10.74
			c-0.53,0.54-1.06,1.08-1.58,1.62c-1.28-0.28-2.58-0.52-3.85-0.85C585.16,91.13,578.91,89.46,572.66,87.81z"/>
		<path class="st7" d="M651.1,110.3c0.31-0.44,0.63-0.88,0.94-1.32c3.52-2.91,7.04-5.81,10.55-8.72c1.15,0.27,2.41,0.31,3.41,0.84
			c4.92,2.63,9.77,5.4,14.65,8.11c-2.21,3.9-4.41,7.79-6.62,11.69c-0.46,0.35-0.92,0.7-1.37,1.04c-2.05-0.93-4.1-1.87-6.16-2.8
			c-4.64-2.1-9.28-4.2-13.92-6.3C652.09,112.01,651.59,111.15,651.1,110.3z"/>
		<path class="st8" d="M463.08,375.36c5.55-4.53,15.08-11.62,20.62-16.16c21.76-17.86,41.47-37.82,60.16-58.83
			c18.59-20.9,35.87-42.85,52.25-65.52c2.07-2.87,4.4-5.55,6.61-8.31c0,0.93,0.83,5.38,0.83,6.31c-2.21,2.74-4.36,5.77-6.5,8.56
			c-8.08,10.52-12.36,21.74-20.61,32.12c-8.7,10.94-19.87,20.71-29.33,30.98c-12.98,14.1-27.1,28.2-40.71,41.71
			c-6.36,6.31-14.71,8.49-21.58,14.26c-5.48,4.6-13.16,13.36-18.85,17.72C465.73,377.92,463.34,375.64,463.08,375.36z"/>
		<path class="st9" d="M621.4,79.09c-1.28,1.79-0.38,5.42-4.23,5.06c-2.98-1.65-5.99-3.24-8.92-4.97c-1.76-1.04-3.4-2.3-5.09-3.46
			c1.8-4.06,3.59-8.13,5.39-12.19c4.55,1.84,9.14,3.6,13.6,5.64c0.59,0.27,0.81,2.04,0.68,3.04
			C622.51,74.52,621.89,76.8,621.4,79.09z"/>
		<path class="st10" d="M230.56,370.91c-7.58,19.94-12.78,40.55-16.89,61.42c-3.38,17.21-6.24,34.52-9.34,51.78
			c-0.08,0.46-0.31,0.89-0.47,1.34c-0.65,2.1-1.29,4.2-1.84,5.98c-11.2-10.18,18.11-116.54,29.79-134.89
			C231.69,358.04,230.64,369.84,230.56,370.91z"/>
		<path class="st11" d="M418.8,297.96c-7.1,5.74-14.21,11.46-21.3,17.21c-11.38,9.23-22.73,18.5-34.11,27.71
			c-2.92,2.36-5.94,4.6-8.92,6.89c-2.83,0.25-5.65,0.59-8.48,0.72c-6.28,0.3-12.58,0.46-18.86,0.8c-0.74,0.04-1.44,0.83-2.15,1.27
			c-1.71-0.06-3.42-0.12-5.12-0.18c-1.62-0.22-3.23-0.45-4.85-0.67c-0.01-0.12-0.02-0.25-0.02-0.37c6.17-0.52,12.34-1.12,18.52-1.52
			c5.6-0.36,11.31,0.03,16.79-0.96c3.1-0.56,6.07-2.93,8.67-5.02c10.95-8.81,21.7-17.87,32.61-26.73c6.92-5.61,13.99-11.04,21-16.53
			c1.81-1.41,3.65-2.78,5.47-4.18C418.29,296.93,418.55,297.45,418.8,297.96z"/>
		<path class="st12" d="M620.74,46.18c1.38,0.72,2.77,1.44,4.15,2.16c2.78,1.8,3.51,4.19,2.3,7.31c-1.02,2.62-1.14,6.42-3,7.65
			c-1.58,1.04-5.09-0.86-7.75-1.46c-2.41-1.08-4.82-2.17-7.23-3.25c4.01-4.03,5.28-9.29,6.59-14.54
			C617.45,44.76,619.09,45.47,620.74,46.18z"/>
		<path class="st13" d="M513.27,95.87c0.24,0,0.48,0,0.72,0c0.02,0.53,0.04,1.05,0.07,1.58c-1.54,3.54-3.08,7.08-4.62,10.61
			c-3.1,10.37-6.25,20.72-9.29,31.1c-3.15,10.76-6.19,21.55-9.29,32.33c-1.4,4.88-2.83,9.76-4.24,14.64
			c-0.25-0.75-0.51-1.5-0.76-2.25c1.48-5.78,2.83-11.6,4.46-17.34c4.72-16.66,4.62-33.4,9.64-49.97
			C502.11,109.41,508.22,101.87,513.27,95.87z"/>
		<path class="st12" d="M625.1,43.88c-2-1.05-4.04-2.03-5.98-3.17c-1.4-0.83-2.8-1.94-1-3.62c4.71-4.39,9.48-8.71,14.26-13.01
			c0.29-0.26,0.88-0.2,1.33-0.28c-1.14,6.42-2.05,12.9-3.53,19.24C629.47,46.1,626.95,44.36,625.1,43.88z"/>
		<path class="st10" d="M485.85,183.88c0.25,0.75,0.51,1.5,0.76,2.25c-1.71,6.85-3.45,13.7-5.12,20.57c-0.58,2.37-1,4.77-1.5,7.16
			c-1.54,5.61-3.08,11.22-4.62,16.83c-2.1,8.29-4.21,16.57-6.31,24.86c-0.62,2.46-1.71,4.56-4.29,5.48
			c-0.91,0.01-1.81,0.03-2.72,0.04c7.68-5.63,6.98-14.8,9.18-22.6c5.03-17.82,9.37-35.82,14.01-53.75
			C485.31,184.41,485.64,184.16,485.85,183.88z"/>
		<path class="st14" d="M462.04,261.07c0.91-0.01,1.81-0.03,2.72-0.04c-4.14,3.49-8.22,7.06-12.44,10.45
			c-9,7.26-18.07,14.43-27.12,21.62c-2.1,1.67-4.27,3.24-6.41,4.86c-0.25-0.51-0.51-1.03-0.76-1.54c5.06-4.21,10.1-8.44,15.18-12.63
			c6.07-5.01,12.11-10.05,18.27-14.95C454.9,266.12,458.52,263.65,462.04,261.07z"/>
		<path class="st15" d="M690.01,75.01c2.59-0.72,5.02-0.67,7.08,1.36c-1.76,3.6-3.53,7.2-5.29,10.8c-1.02-0.25-2.04-0.5-3.06-0.75
			c-1.94-0.99-3.87-1.98-6.14-3.13c0.85-1.26,1.53-2.28,2.21-3.29C686.54,78.33,688.28,76.67,690.01,75.01z"/>
		<path class="st16" d="M602.72,237.41c0-0.93-1.37-8.44,0-10.87c0.99,1.22,2.57,2.31,2.86,3.68c1.64,7.68,2.99,15.43,4.39,23.16
			c0.29,1.6,0.39,3.23,0.58,4.85c-0.2,2.09-0.6,4.19-0.55,6.28c0.11,4.87,0.43,9.74,0.66,14.61c-2.92-6.23-3.3-9.83-2.87-16.31
			c-0.36,0.15-0.74-2.65-1.1-2.5c-0.65-1.77-1.03-5.24-1.84-7.47c0.88,0.06,0.3-1.29,1.84-1.18
			C604.52,242.99,604.82,245.8,602.72,237.41z"/>
		<path class="st17" d="M662.59,100.26c-3.52,2.91-7.04,5.81-10.55,8.72c0.22-0.9,0.12-2.2,0.69-2.64c3.96-3.04,6.66-7.91,12.38-8.5
			c0.69-0.07,1.22-1.75,1.82-2.69l0,0c0.56,0.93,0.9,2.26,1.72,2.72c2.96,1.66,6.08,3.02,9.14,4.49c1.24,0.5,2.48,1.01,3.72,1.51
			c0.28,0.4,0.56,0.8,0.84,1.2c-1.05,0.54-2.1,1.08-3.15,1.61c-4.25-2.13-8.46-4.36-12.8-6.32
			C665.33,99.88,663.87,100.27,662.59,100.26z"/>
		<g>
			<path class="st18" d="M1099.51,558.04c-0.77-0.3-1.49-0.74-2.23-1.11c-4.98-2.07-9.95-4.15-14.93-6.22
				c-5.35-2.49-10.69-4.99-16.04-7.49c-1.39-0.62-2.78-1.25-4.17-1.88c-5.37-2.73-10.75-5.47-16.13-8.2
				c-7.32-3.94-14.75-7.68-21.91-11.87c-11.76-6.88-23.55-13.74-34.94-21.19c-11.03-7.23-21.7-15.04-32.29-22.92
				c-3.54-2.64-6.32-6.27-9.45-9.45c-2.44-3.93-4.88-7.87-7.32-11.8c-1.17-2.07-2.33-4.15-3.5-6.22c-2.96-4.89-5.92-9.78-8.89-14.67
				c-0.38-0.45-0.83-0.86-1.12-1.36c-6.06-10.37-12.12-20.74-18.16-31.13c-3.85-6.63-7.67-13.29-11.5-19.93
				c-2.92-4.66-5.84-9.32-8.76-13.98c-3.72-6.28-7.41-12.58-11.16-18.84c-3.68-6.16-7.48-12.26-11.12-18.45
				c-2.5-4.25-4.8-8.6-7.19-12.91c-2.73-4.42-5.47-8.84-8.2-13.26c-1.1-1.8-2.25-3.57-3.31-5.4c-4.35-7.48-8.67-14.97-13.01-22.46
				c-2.96-4.9-5.91-9.81-8.87-14.71c-2.33-3.99-4.67-7.99-7-11.98c-2.44-3.94-4.88-7.89-7.32-11.84
				c-9.58-16.25-19.17-32.51-28.75-48.76c-0.75-1.21-1.47-2.44-2.26-3.62c-3.33-4.98-2.99-5.74,3.1-6.93
				c2.72-1.06,5.42-2.17,8.17-3.16c7.8-2.8,15.61-5.56,23.41-8.34c0.19-0.14,0.36-0.39,0.57-0.42c7.05-1.08,8.27-5.8,7.94-11.97
				c-0.43-8.11-0.37-16.24-0.52-24.37l-0.12-0.19l0.15-0.17c-0.69-8.67-1.39-17.35-2.07-26.02c-0.38-4.88-0.73-9.77-1.1-14.65
				c-0.61-6.05-1.2-12.1-1.85-18.14c-0.35-3.25-1.5-3.73-4.21-1.85c-0.58,0.41-1.16,0.84-1.69,1.32
				C796,85.75,780.23,99.99,764.5,114.25c-11.24,10.19-22.45,20.41-33.62,30.67c-1.82,1.67-3.62,1.97-5.72,0.77
				c-3.04-1.74-6.27-3.23-9.03-5.33c-1.64-1.24-3.62-3.5-3.56-5.24c0.28-7.48,1.26-14.94,1.98-22.41
				c1.19-12.45,2.37-24.91,3.58-37.36c0.57-5.93,1.21-11.86,1.82-17.79c0.24-2.58,0.5-5.15,0.72-7.72c0.34-4.01-0.16-4.37-3.96-2.99
				c-4.34,4.05-8.67,8.09-13.01,12.14c0.32,1.02,0.65,2.03,0.97,3.05c3.22-2.51,6.44-5.02,9.66-7.53c0.29,0.18,0.59,0.37,0.89,0.55
				c-0.27,1.32-0.47,2.66-0.84,3.95c-0.87,3-1.81,5.98-2.74,8.96c-1.92,6.15-1.92,6.15-7.91,5.44c1.93,0.7,3.85,1.4,5.77,2.09
				c0,0,0,0.01,0,0.01c-1.92-0.7-3.84-1.39-5.77-2.09c-1.64-0.93-3.27-1.87-4.91-2.8c-0.27-0.28-0.54-0.56-0.81-0.84
				c-0.98,0.52-1.96,1.04-2.94,1.56c-0.32,0.44-0.82,1.32-0.93,1.27c-3.88-1.64-5.78,1.65-8.17,3.39c-2.02,1.46-3.69,3.4-5.51,5.13
				c0.2,0.22,0.41,0.44,0.61,0.66c1.25-0.6,2.49-1.2,3.74-1.8c1.73-1.66,3.47-3.32,5.2-4.98c0.99-0.27,2.04-0.79,3.03-0.99
				c-0.98,0.21-2.03,0.73-3.02,0.99c2.58-0.73,5.02-0.67,7.08,1.36c2.35,0.73,4.8,1.26,7.02,2.28c1.07,0.49,2.57,2.09,2.4,2.86
				c-0.75,3.35-2.04,6.58-3.17,9.95c-2.32-0.79-3.85-1.31-5.39-1.83c1.65,1.12,3.3,2.24,5.1,3.47c-0.11,0.51-0.31,1.48-0.5,2.35
				c-1.41-0.34-2.72-0.65-4.04-0.96c3.26,1.45,4.41,3.51,2.54,6.98c-1,1.85-1.47,4.02-1.97,6.1c-0.77,3.21-2.5,4.08-5.43,2.55
				c1.26,1.9,2.53,3.8,4.21,6.34c-1.56-0.26-2.12-0.36-2.68-0.45c0.06,1,0.13,2,0.19,3c0.75-0.28,1.49-0.55,2.64-0.97
				c-1.26,3.76-2.46,7.37-3.67,10.99c-0.97,1.44-1.93,2.89-2.89,4.33c2.4,1.44,4.81,2.89,7.21,4.33c6.5,3.34,12.98,6.71,19.51,10
				c3.55,1.79,7.18,3.44,10.78,5.15c6.58-6.4,13.11-12.86,19.76-19.19c4.07-3.87,8.35-7.49,12.49-11.28
				c9.07-8.3,18.04-16.72,27.2-24.93c4.04-3.62,8.45-6.84,12.7-10.24c0.6-0.68,1.33-1.28,1.75-2.05c0.82-1.5,1.47-3.09,2.46-5.23
				c1.33,1.64,1.89,2.33,2.45,3.02c0.74-0.28,1.49-0.57,2.83-1.08c-0.12,2.03-0.21,3.62-0.3,5.22c0.28,3.24,0.55,6.47,0.82,9.71
				c0-2.93,0-5.87-0.05-8.82c0.41,0,0.82,0,1.23,0c0.33,17.2,0.71,34.4,0.97,51.6c0.04,2.61-0.06,5.33-0.79,7.8
				c-0.62,2.1-1.81,4.48-3.5,5.71c-2.54,1.84-5.73,2.77-8.64,4.09c-3.51,1.93-7,3.92-10.55,5.78c-5.69,2.97-11.42,5.89-17.17,8.75
				c-1.25,0.62-2.67,0.9-4.02,1.34c-4.82,2.68-9.63,5.36-14.44,8.04c0.04,0.4,0.07,0.79,0.11,1.19c3.46,1.01,6.88,2.18,10.38,2.99
				c3.38,0.78,5.81,2.42,7.47,5.55c11.22,21.15,22.35,42.35,33.89,63.33c6.02,10.95,11.61,21.84,17.87,32.66
				c9.99,17.27,19.88,34.71,29.73,52.06c7.55,13.3,15.2,26.56,22.75,39.86c5.54,9.76,11.89,21.18,17.43,30.93
				c5.16,8.67,10.07,17.64,15.14,26.36c5.27,9.07,10.93,18.12,16.11,27.25c4.66,11,13.31,16.35,22.37,23.5
				c26.71,21.07,56.86,36.35,87.24,51.21c6.78,3.31,13.77,6.19,20.65,9.3c1.5,0.68,2.95,1.47,4.86,2.43
				c-1.38,0.28-2.2,0.45-3.01,0.61l0.05,0.22c8.86,3.63,17.69,7.34,26.59,10.88c7.89,3.14,15.86,6.08,23.79,9.11
				C1107.97,561.4,1107.96,561.41,1099.51,558.04z"/>
			<path class="st18" d="M699.39,67.7c0.46-0.45,0.92-0.9,1.38-1.34c1.3-1.44,2.59-2.88,3.89-4.32c-0.32-1.02-0.65-2.03-0.97-3.05
				c-1.91,1.7-3.83,3.4-5.75,5.11c-0.96,2.41-1.92,4.83-2.88,7.24c0.98-0.52,1.96-1.04,2.94-1.56
				C698.46,69.09,698.93,68.39,699.39,67.7z"/>
		</g>
		<path class="st19" d="M688.74,86.42c1.02,0.25,2.04,0.5,3.06,0.75c0.8,0.36,1.6,0.72,2.41,1.08c-0.96,1.3-5.6-1.29-3.47,3.29
			c-0.89-0.18-1.77-0.36-2.66-0.54c-2.46-0.98-4.98-1.85-7.38-2.97c-2.72-1.28-4.81-0.44-6.74,1.52c-0.92,0.94-1.91,1.81-2.87,2.71
			c-1.39,0.96-2.77,1.92-4.16,2.89l0,0c3.12-5.65,7.75-9.44,14.04-10.9c1.05-0.24,2.37,0.91,3.61,1.27
			C685.94,85.91,687.35,86.12,688.74,86.42z"/>
		<path class="st20" d="M615.69,98.69c-1.07,0.26-2.25,0.95-3.2,0.72c-8.83-2.18-17.63-4.53-26.44-6.8
			c-0.91-0.23-1.87-0.24-2.81-0.35c-4.19-1.06-8.38-2.12-12.58-3.19c0.04-0.28,0.08-0.57,0.12-0.85c0.62-0.14,1.25-0.28,1.87-0.42
			c6.25,1.65,12.5,3.32,18.76,4.95c1.27,0.33,2.57,0.57,3.85,0.85c2.05,0.64,4.07,1.4,6.16,1.9
			C606.17,96.64,610.93,97.64,615.69,98.69z"/>
		<path class="st21" d="M674.87,123.94c-0.24,0.5-0.48,1.01-0.72,1.51c-5.53-2.74-11.07-5.47-16.6-8.24
			c-2.22-1.11-4.56-2.08-6.56-3.5c-1.87-1.33-1.65-2.83,0.11-3.41c0.49,0.85,0.99,1.7,1.48,2.55c7.27,3.69,14.53,7.39,21.8,11.08
			l0.25-0.07L674.87,123.94z"/>
		<path class="st22" d="M609.21,58.59c-2.55-1.32-5.1-2.64-7.65-3.96c0.89-1.34,1.78-2.68,2.67-4.02c2.29-2.02,4.64-3.98,6.86-6.08
			c1.52-1.44,2.98-1.85,4.71-0.49C614.49,49.3,613.22,54.56,609.21,58.59z"/>
		<path class="st5" d="M1057.25,550.55c-0.52,1.27-0.81,2.73-1.62,3.78c-1.76,2.27-3.94,4.22-5.68,6.52
			c-2.1,2.78-4.58,3.25-7.57,1.86c-10.88-5.06-22.1-9.5-32.54-15.35c-27.43-15.37-54.57-31.28-81.67-47.24
			c-2.68-1.58-4.73-4.73-6.3-7.58c-13.03-23.66-25.86-47.43-38.78-71.15c-17.45-32.04-34.91-64.08-52.4-96.1
			c-8.51-15.58-17.09-31.12-25.61-46.68c-2.67-4.88-1.18-13.51,3-17.73c0.49,0.65,1.06,1.25,1.45,1.95
			c3.58,6.41,7.13,12.84,10.68,19.26c3.94,6.59,7.89,13.18,11.83,19.77c2.12,3.98,4.24,7.97,6.35,11.95
			c4.15,6.99,8.3,13.99,12.44,20.98c2.67,4.76,5.34,9.53,8.01,14.29c3.57,6.1,7.14,12.2,10.71,18.31c2.57,4.75,5.14,9.5,7.71,14.25
			c4.16,7.06,8.32,14.13,12.48,21.19c0.97,1.82,1.94,3.63,2.9,5.45c4.67,8.2,9.35,16.39,14.02,24.6c2.73,4.8,5.42,9.61,8.13,14.42
			c1.01,1.74,2,3.5,3.05,5.23c2.64,4.34,5.31,8.66,7.97,13c2.44,7.15,7.93,11.91,13.31,16.68c17.91,15.88,38.16,28.38,59.25,39.39
			c19.34,10.1,39.2,19.21,58.83,28.75L1057.25,550.55z"/>
		<path class="st7" d="M298.28,372.17c-2.27-2.24-2.52,0.86-3.73,1.41c0.09-2.21-0.91-2.96-3.1-2.59
			c-8.34,1.42-16.69,2.72-25.03,4.12c-2.74,0.46-3.52,2.2-1.87,4.33c1.95,2.53,4.33,4.73,6.52,7.07c-2.84-2.89-5.75-5.72-8.39-8.78
			c-0.22-0.26,1.24-2.89,2.18-3.07c7.6-1.49,15.27-2.66,22.91-3.94c2.19-0.37,4.38-0.8,6.57-1.2c-0.01-0.31-0.01-0.62-0.02-0.93
			c-1.32,0-2.66-0.18-3.95,0.03c-8.47,1.38-16.96,2.68-25.36,4.43c-1.88,0.39-3.41,2.5-5.37,4.03c-6.81-3.53-13.34-0.52-15.45,7.81
			c-0.91,3.58-1.79,7.18-2.99,10.67c-1.14,3.32-0.54,6.1,1.85,8.85c-4.3,0.8-5.67,4-6.26,8c-1.02-0.78-1.62-1.35-2.32-1.78
			c-2.92-1.77-5.51-0.54-5.39,2.81c0.31,8.48,0.88,16.95,1.32,25.42c0.04,0.69-0.1,1.39-0.15,2.08c-0.39,0.05-0.78,0.09-1.17,0.14
			c-0.37-2.45-0.75-4.9-0.96-6.29c-1,7.52-2.14,16.1-3.34,25.14c-1.06-1.13-1.78-1.91-2.14-2.29c0.53-1.95,1.12-3.63,1.44-5.36
			c0.78-4.28,1.75-8.55,2.05-12.87c0.2-2.94-0.83-5.95-0.9-8.94c-0.16-6.32-0.05-12.64-0.05-18.96c-0.55-0.17-1.1-0.34-1.64-0.51
			c-0.57,1.01-1.43,1.95-1.67,3.04c-1.58,6.98-3.01,13.99-4.52,20.98c-0.41,1.88-0.94,3.74-0.81,5.83c0.35-0.72,0.71-1.43,1.06-2.15
			c0.34,0.12,0.69,0.24,1.03,0.36c-0.59,1.51-1.09,3.06-1.82,4.5c-0.54,1.07-1.87,1.91-2.02,2.97c-1.14,8.26-1.9,16.58-3.12,24.83
			c-0.99,6.64-2.46,13.21-3.71,19.82c-0.49-0.02-0.98-0.04-1.47-0.06c-0.17-1.25-0.63-2.54-0.45-3.74
			c0.84-5.55,1.83-11.08,2.81-16.61c1.12-6.33,2.2-12.67,3.43-18.98c2.18-11.24,4.1-22.54,6.8-33.66
			c3.01-12.4,6.74-24.62,10.21-36.9c0.21-0.74,0.97-1.32,1.99-1.63c-2.86,10.08-5.72,20.17-8.7,30.67c5.15,0.33,6.59-7.9,12.66-3.89
			c1.21-6.21,2.33-11.98,3.45-17.75c0.46,0.09,0.91,0.19,1.37,0.28c-0.5,2.32-1,4.64-1.5,6.96c0.21,0.06,0.42,0.13,0.63,0.19
			c1.18-3.83,2.5-7.62,3.48-11.49c0.65-2.54,0.04-5.77,1.4-7.68c1.66-2.33,4.64-4.66,7.35-5.1c4.35-0.7,8.85-0.41,12.95-3.21
			c-2.96-2.98-7.55,3.92-10.06-1.23c-0.44,0.94-0.82,1.76-1.21,2.58c-0.3-0.57-0.51-1.21-0.93-1.67c-0.24-0.27-0.86-0.46-1.19-0.34
			c-0.47,0.16-0.95,0.57-1.19,1.01c-0.19,0.36-0.03,0.91-0.03,1.37c-0.7-0.33-1.39-0.66-2.13-1.01c-1.65,2.9-4.56,3.5-7.95,0.93
			c0.22,0.99,0.37,1.65,0.56,2.45c-1.21,0.17-2.26,0.31-3.63,0.5c0.21-0.64,0.38-1.16,0.71-2.2c-1.18,0.58-2.03,0.99-2.88,1.41
			c-0.15-0.11-0.29-0.22-0.44-0.33c0.79-0.89,1.43-2.35,2.39-2.59c4.71-1.2,9.5-2.11,14.27-3.06c6.66-1.33,13.31-2.77,20.01-3.86
			c10.7-1.74,21.42-3.43,32.17-4.76c13.37-1.65,26.79-2.92,40.18-4.34c0.48-0.05,0.98-0.11,1.44-0.02
			c8.03,1.53,13.45-2.96,19.03-7.75c8.88-7.63,18.12-14.86,27.25-22.2c10.52-8.46,21.11-16.84,31.65-25.29
			c10.16-8.15,20.27-16.37,30.44-24.52c5.3-4.25,10.94-8.11,15.89-12.73c1.99-1.86,2.91-5.16,3.67-7.99
			c2.07-7.68,3.71-15.46,5.66-23.17c2.01-7.97,4.19-15.9,6.29-23.85c2.34-8.87,4.64-17.74,6.99-26.6c2.94-11.07,5.7-22.2,8.93-33.19
			c4.07-13.86,8.43-27.63,12.89-41.37c1.84-5.67,3.72-6.16,10.28-5.23c8.38,1.17,16.82,1.86,25.23,2.83
			c4.61,0.53,9.21,1.18,13.8,1.89c1.8,0.28,3.13,0.95,2.36,3.41c-0.63,1.98-0.71,3.22-3.64,2.79c-11.91-1.73-23.88-3.03-35.84-4.38
			c-3.29-0.37-5.49,1.29-6.46,4.47c-3.52,11.43-7.04,22.86-10.53,34.31c-4.04,13.27-8.08,26.55-12.07,39.84
			c-5.19,17.29-10.32,34.59-15.48,51.89c-2.14,7.16-5.04,14.2-6.21,21.51c-1.07,6.67-5.93,9.52-10.14,13.05
			c-12.2,10.19-24.68,20.03-37.02,30.05c-14.1,11.45-28.24,22.85-42.22,34.46c-9.37,7.78-18.26,16.18-27.86,23.66
			c-2.68,2.09-7.1,2.2-10.78,2.7c-9.92,1.35-19.87,2.45-29.82,3.58c-5.1,0.58-10.21,0.98-15.31,1.59c-0.95,0.11-1.83,0.84-2.74,1.29
			c0.43,0.3,0.86,0.61,1.29,0.91C299.41,370.31,298.85,371.24,298.28,372.17z"/>
		<path class="st7" d="M799.68,98.67c-6.3,6.59-12.69,13.09-18.88,19.78c-15.18,16.4-30.3,32.86-45.38,49.35
			c-1.64,1.79-3.06,2.2-5.3,1.04c-14.81-7.69-29.67-15.3-44.53-22.89c-5.32-2.71-6.09-8.13-1.71-12.72
			c3.87,1.52,7.73,3.05,11.6,4.57c9.69,4.89,19.41,9.71,29.05,14.69c5.04,2.6,4.99,2.72,8.82-1.77
			c5.43-5.06,10.81-10.16,16.29-15.16c16.9-15.4,33.85-30.76,50.77-46.14C800.16,92.5,799.92,95.59,799.68,98.67z"/>
		<path class="st5" d="M588.91,162.99c0.04-1.8-0.29-3.71,0.18-5.39c2.78-9.89,8.08-17.63,18.81-19.97
			c7.33-1.59,13.63,0.99,19.2,5.68c11.99,10.09,15.4,30.24,7.37,43.55c-7.45,12.35-21.15,15.17-32.98,6.74
			c-1.11-0.79-2.02-1.86-3.02-2.8c1.41,0.2,2.84,0.3,4.23,0.6c6.09,1.34,10.95-0.45,14.92-5.29c7.91-9.66,3.48-26.8-5.51-32.53
			c-0.39-0.41-0.71-0.95-1.18-1.2C602.11,147.79,593.09,151.69,588.91,162.99z"/>
		<path class="st5" d="M814.86,719.89c-0.04-0.48-0.08-0.97-0.12-1.45c2.91-0.24,5.84-0.38,8.73-0.74
			c4.16-0.51,8.58-0.39,11.57-4.18c4.19-4.43,8.64-8.71,8.77-14.17c-3.99-3.05-7.47-5.23-10.27-8.09c-1.08-1.11-0.61-3.74-0.94-6.44
			c2.59,1.37,4.27,2.5,6.11,3.18c8.11,3.01,17.13-0.15,23.61-8.02c2.72-3.3,4.25-6.84,3.82-11.24c-0.21-2.13,0.3-4.32,0.82-6.44
			c6.68,14.5,1.38,31.78-18.6,35.53c-1.33,5.48-2.64,10.75-3.83,16.05c-0.11,0.51,0.42,1.32,0.87,1.79
			c6.34,6.67,24.1,4.05,28.09-4.17c0.69-1.43,1.05-3.02,1.64-4.8c2.97,3.83,2.69,11.02-0.86,14.47c-3.02,2.94-4.42,6.01-4.85,10.24
			c-0.6,5.88-3.08,11.31-7.03,15.89c-0.47,0.72-0.93,1.45-1.4,2.17c-0.81,0.26-1.67,0.42-2.41,0.8c-0.69,0.36-1.25,0.96-1.87,1.45
			l0.04-0.01c-6.83,2.18-13.32,1.7-18.93-3.07c-2.63-2.24-4.79-1.43-7.14,0.1c-3.3,1.3-6.6,1.52-9.97,0.16
			c-1.18-0.47-2.52-0.57-3.78-0.83l0.02,0.01c0.08-0.8,0.16-1.61,0.25-2.53c3.44,2.75,11.38,0.32,13.53-3.95
			c4.53-4.04,8.09-8.76,9.53-14.75c0.5-2.08,0.44-4.3,0.71-7.31c-1.87,0.95-2.76,1.4-3.65,1.85c-7.1,2.5-14.13,4.17-20.72-1.38
			C816.24,719.71,815.45,719.92,814.86,719.89z M838.06,743.03c-1.39,1.49-2.13,2.38,0.24,4.23c2.94,2.3,6.11,1.44,8.99,1.62
			c4.69,0.31,9.42-0.83,12.96-4.56c5.09-4.55,6.39-10.31,5.64-17.02c-7.71,2.11-14.94,2.5-21.14-3.45
			C841.81,738.11,841.29,739.58,838.06,743.03z"/>
		<path class="st7" d="M802.84,311.25c-2.49,0.18-4.59,0.68-6.57,0.39c-3.29-0.49-5.1,0.15-5.81,3.83
			c-0.45,2.35-2.35,4.38-3.25,6.69c-0.49,1.26-0.91,3.29-0.26,4.12c1.96,2.52,4.2,5,6.82,6.8c3.96,2.72,8.65,1.68,13.13-2.26
			c1.23-1.08,2.4-2.22,3.85-3.58c-0.03,7.57-9.45,14.08-16.97,12.12c-2.06-0.54-4.08-1.45-5.92-2.53c-2.47-1.44-3.57-0.69-4.57,1.78
			c-1.58,3.96-3.67,7.72-5.19,11.69c-0.51,1.34-0.57,3.52,0.19,4.58c4.5,6.32,9.64,10.73,18.55,7.94c0.43-0.13,0.93-0.02,1.43-0.02
			c-1.59,4.18,2.14,8.44,8.02,8.56c4.65,0.09,9.31-0.62,13.96-0.96c0.64-0.05,1.29-0.01,3.17-0.01c-1.8,2.11-2.79,3.64-4.12,4.78
			c-8.39,7.17-21.26,4.91-24.27-5.8c-0.59-2.09-1.9-2.9-4.25-2.96c-2.93-0.07-5.94-0.6-8.74-1.48c-3.75-1.17-4.24-1.12-5.33,2.64
			c-1.74,6.02-6.37,9.96-12.44,10.19c0.9-0.86,1.48-1.54,2.18-2.06c5.87-4.45,7.53-10.57,4.24-17.18c-0.66-1.34-2.48-2.69-3.95-2.93
			c-5.31-0.89-9.9-3.02-13.75-7.32c1.42,0.18,2.84,0.35,4.25,0.53c2.6,0.34,5.2,0.95,7.8,0.99c4.37,0.07,8.07-2.41,9.27-6.62
			c1.11-3.88,1.53-7.96,2.19-11.97c0.55-3.29-0.86-4.83-4.23-5.18c-4.77-0.5-10.76-3.99-13.91-7.86c1.21,0.17,2.04,0.25,2.86,0.42
			c1.99,0.41,3.96,0.99,5.97,1.28c9.88,1.43,17.15,0.02,16.64-13.53c-0.06-1.68-0.41-3.47,0.05-5.01c0.42-1.4,1.53-3.13,2.75-3.58
			c0.85-0.32,2.73,1.02,3.58,2.08c1.19,1.46,1.46,3.8,2.81,4.94C795.68,307,798.81,308.65,802.84,311.25z"/>
		<path class="st5" d="M696.29,451.95c1.85-1.34,3.62-2.84,5.62-3.88c0.31-0.16,2.2,1.61,2.5,2.72c8.1,29.53,16.07,59.1,24.1,88.65
			c4.08,15,8.23,29.98,12.32,44.98c0.49,1.79,0.84,3.63,1.25,5.44c-0.32,0.41-0.64,0.83-1.01,1.3c-0.78-1.48-1.44-2.73-2.1-3.98
			c-1.24-3.61-2.55-7.19-3.7-10.82c-2.88-9.12-5.63-18.28-8.54-27.39c-2.78-8.69-5.69-17.34-8.54-26.01
			c-1.46-4.54-2.92-9.08-4.39-13.61c-4.28-13.45-8.61-26.88-12.8-40.36C699.27,463.36,697.86,457.63,696.29,451.95z"/>
		<path class="st7" d="M731.84,236.28c7,1.97,13.66,4.02,19.59-0.87c5.31-4.38,8.74-10.07,10.64-18.03
			c1.19,2.06,2.25,3.18,2.52,4.46c1.41,6.84-0.68,12.81-5.22,17.92c-3.06,3.44-3.19,4.55-0.07,7.84c5.5,5.79,8.72,6.35,16.13,2.85
			c0.39-0.18,0.91-0.08,1.41-0.12c-1.28,4.86-7.1,8.05-12.47,6.91c-2.41-0.51-5.39-2.19-7.05-1.32c-1.69,0.89-2.07,4.27-3.05,6.54
			c-3.85,8.87-12.95,12.84-22.76,9.82c-2.36-0.73-4.59-1.88-6.88-2.84c0.03-0.4,0.07-0.81,0.1-1.21c2,0,4-0.02,6,0
			c5.1,0.05,10.11-0.17,13.95-4.27c4.15-4.43,4.51-9.95,4.09-15.5c-0.07-0.94-2.51-2.27-3.97-2.44
			C739.01,245.33,733.47,241.66,731.84,236.28z"/>
		<path class="st23" d="M511.88,186.42c7.85-10.24,15.63-20.41,23.82-31.1c11.28,8.03,22.52,16.03,34.01,24.2
			c-2.46,2.2-4.23,4.27-6.45,5.56c-1.17,0.67-3.54,0.55-4.68-0.22c-7.54-5.11-14.96-10.39-22.26-15.83
			c-2.76-2.06-4.47-2.25-6.67,0.82c-4.05,5.65-8.57,10.95-12.81,16.47C515.42,188.17,514.09,188.96,511.88,186.42z"/>
		<path class="st24" d="M877.27,381.64c-2.57-4.75-5.14-9.5-7.71-14.25c-0.1-0.58-0.06-1.23-0.33-1.72
			c-2.76-5.13-5.53-10.25-8.4-15.32c-0.34-0.6-1.31-0.85-1.98-1.26c-2.67-4.76-5.34-9.53-8.01-14.29c-0.01-0.47,0.15-1.05-0.06-1.41
			c-3.51-6.16-7.05-12.31-10.66-18.41c-0.32-0.54-1.14-0.78-1.72-1.15c-2.12-3.98-4.24-7.97-6.35-11.95
			c-2.01-4.01-3.83-8.12-6.09-11.98c-1.62-2.77-3.81-5.2-5.74-7.79c-3.56-6.42-7.11-12.85-10.68-19.26c-0.39-0.7-0.96-1.3-1.45-1.95
			c-4.96-8.88-9.99-17.72-14.85-26.65c-7.68-14.11-15.37-28.2-22.76-42.46c-2.29-4.42-6.42-4.48-10.16-5.72
			c-3.53-1.17-7.07-2.29-10.61-3.44c0.01-0.44,0.02-0.87,0.04-1.31c3.82-2.11,7.59-4.31,11.47-6.3c2.63-1.35,10.93-5.13,13.65-6.31
			c-0.23,0.54-0.18,6.04-0.41,6.59c-4.81,2.68,0.3,12.33,1.96,15.46c11.22,21.15,18.12,42.44,29.66,63.41
			c6.02,10.94,12.99,21.36,19.25,32.18c9.99,17.27,19.75,34.68,29.6,52.03c7.55,13.3,15.09,26.6,22.64,39.9
			c5.54,9.75,11.08,19.51,16.62,29.26c-0.51,0.25-1.01,0.51-1.52,0.76c-0.97-1.82-1.94-3.63-2.9-5.45
			c-2.41-4.76-4.66-9.6-7.28-14.23C881.06,386.1,879.03,383.95,877.27,381.64z"/>
		<path class="st25" d="M844.37,820.09c-0.55-0.52-1.09-1.04-1.64-1.56c0.9-4.14,3.62-8.02,2.1-12.08
			c-3.94,0.71-7.59,1.37-11.24,2.03c-3.12-3.6-6.24-7.19-9.36-10.79c6.65,1.57,13.37,1.93,18.56-3.19
			c3.87-3.82,6.79-8.59,10.11-12.96c0.76-1.01,1.42-2.1,2.22-3.28c3.31,4.94,1.13,13.59-4.79,20.31c-1.58,1.3-2.15,2.49,0.13,3.74
			c3.31,1.8,6.55,3.73,9.82,5.6c-0.24,0.24-0.48,0.48-0.72,0.72c-2.86-0.72-5.72-1.44-8.59-2.17c-0.94-0.68-1.87-1.36-3.25-2.36
			C847.31,809.83,850.24,816.01,844.37,820.09z"/>
		<path class="st26" d="M859.55,808.63c0.24-0.24,0.48-0.48,0.72-0.72c1.55,0,3.11,0.04,4.66-0.01c5.26-0.16,12.47-5.89,14-11.1
			c1.13-2.46,2.27-4.91,3.51-7.61c3.07,5.66,1.18,10.29-2.24,14.71c-2.99,3.86-2.67,4.32,0.84,7.71c6.13,5.92,19.65,5.29,23.61-6.43
			c2.44,2.23,3.01,6.95,1.28,9.95c-3.46,6-8.77,8.93-15.54,8.51c-6.89-0.43-10.62-5.45-13.79-10.86c-0.59-1.01-0.8-2.24-1.18-3.37
			c-0.29-0.86-0.58-1.72-0.89-2.62c-1.24,0.65-2.17,1.52-3.15,1.58C867.43,808.6,863.49,808.57,859.55,808.63z"/>
		<path class="st27" d="M696.29,451.95c1.57,5.68,2.98,11.41,4.73,17.04c4.18,13.48,8.52,26.91,12.8,40.36
			c1.46,4.54,2.92,9.08,4.39,13.61c2.85,8.67,5.76,17.32,8.54,26.01c2.91,9.11,5.66,18.27,8.54,27.39c1.15,3.63,2.46,7.22,3.7,10.82
			c1.36,4.6,2.72,9.2,4.08,13.8c0.63,1.9,1.27,3.79,1.9,5.69c1.17,3.84,2.35,7.69,3.52,11.53c1.18,3.95,2.37,7.9,3.55,11.85
			c2.01,7.32,4.02,14.63,6.03,21.95c-0.32,0.03-0.65,0.05-0.97,0.08c-3.35-10.18-6.73-20.36-10.02-30.56
			c-2.6-8.06-5.1-16.15-7.61-24.24c-3.01-9.69-5.97-19.4-9-29.09c-2.21-7.07-4.55-14.1-6.75-21.17c-3.09-9.91-6.07-19.86-9.19-29.77
			c-4.19-13.34-8.54-26.63-12.68-39.98c-2.64-8.54-5.02-17.16-7.52-25.74c0.04-0.57,0.08-1.14,0.13-1.7
			C695.08,450.53,695.69,451.24,696.29,451.95z"/>
		<path class="st25" d="M971.79,806.57c-0.35-0.44-0.7-0.88-1.05-1.33c-10.56,10.49-17.61,11.02-27.02,2.05
			c-2.56-2.44-2.87-4.7-0.96-6.93c10.49,8.36,24.33,4.51,29.94-12.35c1.46,4.5,2.34,8.59-0.06,12.74c-0.32,0.55-0.22,1.35-0.31,2.04
			c0.41,0.99,0.81,1.98,1.22,2.97c0.24,0.72,0.48,1.45,0.72,2.17C973.44,807.46,972.62,807.02,971.79,806.57z"/>
		<path class="st28" d="M363.34,371.78c-1.32,0.75-2.07,1.05-2.68,1.54c-10.24,8.15-20.52,16.26-30.65,24.54
			c-2.28,1.87-5.08,4.04-5.87,6.62c-2.77,9.04-4.78,18.31-7,27.51c-0.16,0.7,0.12,2.05,0.54,2.22c0.71,0.28,1.81,0.06,2.54-0.33
			c1.9-1.02,3.73-2.18,5.52-3.38c3.81-2.57,7.59-5.19,11.38-7.79c0.04-0.02,0.08-0.04,0.12-0.05c0.78-0.45,1.56-0.9,2.34-1.35
			c-0.24-0.3-0.42-0.52-0.53-0.7c0.11,0.18,0.29,0.4,0.53,0.7c4.8-3.76,9.72-7.38,14.32-11.38c1.43-1.23,2.53-3.3,2.97-5.18
			c2.3-9.81,4.35-19.67,6.44-29.52C363.51,374.32,363.34,373.32,363.34,371.78z"/>
		<path class="st7" d="M796.18,641.01c19.38,8.1,22.2,8.32,37.43-3.89c0.99,3.16-1.6,8.74-6.32,12.57
			c-5.96,4.84-12.67,6.19-19.87,3.01C802.09,650.35,798.06,646.64,796.18,641.01z"/>
		<path class="st29" d="M694.47,449.83c-0.04,0.57-0.08,1.14-0.13,1.7c-2.41-7.24-4.84-14.47-7.22-21.72
			c-4.96-15.13-9.88-30.27-14.84-45.4c-0.26-0.78-0.73-1.49-0.79-1.61c-13.47,17.05-27.06,34.23-40.64,51.41
			c-0.21-0.47-0.41-0.95-0.62-1.42c10.57-13.65,21.19-27.28,31.7-40.98c3.12-4.07,5.96-8.36,9.27-13.04
			c0.89,1.18,1.76,1.89,2.05,2.78c5.87,18.01,11.73,36.03,17.46,54.09C692.19,440.31,693.23,445.1,694.47,449.83z"/>
		<path class="st25" d="M302.2,386.44c6.39,2.55,12.39,7.51,18.98,2.2c6.15-4.97,5.11-11.71,2.94-18.43
			c4.64,0.51,7.16,5.66,6.74,12.7c-0.41,6.83-7.74,13.7-14.44,13.53C309.54,396.25,302.44,391.56,302.2,386.44z"/>
		<path class="st30" d="M587.19,480.39c-6.28,3.34-10.77,8.22-17.35,10.79c-12.68,4.97-32.59,9.73-46.27,10.89
			c-5.8,0.49-12.44,2.29-18.25,2.75c-2.69,0.21-9.61-1.08-12.34-1.34c-4.98-0.47-6.14-1.5-11.12-1.98
			c-0.48-0.24-7.61-5.63-3.92-4.44c0.23-0.37,2.22-0.52,2.44-0.51c1.72,0.02,5.24,1.71,6.96,1.83l-0.06-0.01
			c0.63,0.26,1.25,0.72,1.88,0.75c7.61,0.29,9.7-0.19,17.31-0.02c1.12,0.03,7.79,0.33,8.92,0.11c18.48-1.97,36.52-5.71,53.51-13.52
			c4.31-1.98,8.53-4.15,12.8-6.24C581.75,479.76,587.17,480.07,587.19,480.39z"/>
		<path class="st26" d="M966.3,726.35c1.45-4.1,2.9-8.2,4.28-12.1c3.92,3.89,3.07,14.58-2.01,20.12c-0.82,0.42-1.77,0.69-2.45,1.27
			c-3.38,2.91-7.11,4.06-11.56,3.02c-3.05-0.71-5.65-2.6-5.76-4.67C955.46,735.68,963.16,733.43,966.3,726.35z"/>
		<path class="st31" d="M792.96,693.52c3.87,3.88,4.42,10.61,1.65,16.36c-2.86,5.95-7.78,9.46-12.69,8.9
			C785.57,710.42,789.2,702.12,792.96,693.52z"/>
		<path class="st32" d="M856.71,751.73c0.62-0.49,1.18-1.09,1.87-1.45c0.74-0.39,1.6-0.54,2.41-0.8c0.56,0.44,1.15,0.83,1.67,1.32
			c7.05,6.64,20.43,3.55,25-1.42c1.35-2.39,2.7-4.78,4.06-7.18c0.34,0.18,0.67,0.35,1.01,0.53c-0.65,4.71-2,9.12-5.82,12.5
			c-5.81,2.12-11.54,4.64-17.98,3.63c-3.45-1.88-6.9-3.77-10.34-5.65C857.96,752.72,857.34,752.22,856.71,751.73z"/>
		<path class="st33" d="M872.35,847.6c-3.76-0.14-8.15-3.7-9.05-7.34c7.83,0.09,12.96-4.07,16.33-11.05
			c4.21,7.35,1.29,12.85-4.21,16.62C874.44,846.5,873.37,847.02,872.35,847.6z"/>
		<path class="st30" d="M757.11,652.08c0.32-0.03,0.65-0.05,0.97-0.08c2.34,7.27,4.65,14.56,7.04,21.81
			c5.15,15.64,10.36,31.25,15.5,46.89c0.74,2.27,1.23,4.62,1.83,6.93c-0.06,0.58-0.13,1.15-0.19,1.73c-0.22,0.05-0.45,0.1-0.67,0.16
			c-1.33-3.75-2.76-7.47-3.97-11.26c-4.81-15.04-9.52-30.11-14.31-45.16c-2.01-6.3-4.13-12.57-6.2-18.86
			C757.11,653.53,757.11,652.81,757.11,652.08z"/>
		<path class="st30" d="M810.61,99.19c0-2.93,0-8.66,0-11.6c0.41,0,3.3-8.75,3.71-8.75c0.34,17.2,5.7,42.94,5.96,60.14
			c0.04,2.61-2.19,6.72-2.92,9.19c-0.62,2.1-4.27,7.46-5.96,8.68c-2.53,1.84-7.37,3.24-10.28,4.56c-0.04-0.34-0.8-4.91-0.84-5.25
			c1.12-0.66,2.17-1.57,3.39-1.93c6.15-1.8,7.53-6.3,7.48-12.05C811.03,127.06,810.61,114.32,810.61,99.19z"/>
		<path class="st26" d="M947.56,847.57c0.9-1.82,2.08-3.56,2.62-5.47c0.52-1.85,0.38-3.89,0.57-6.24
			c4.17,4.41,3.45,13.43-1.07,18.93c-0.64,0.29-1.42,0.44-1.89,0.9c-3.39,3.37-7.52,2.24-11.46,1.85c-0.85-0.08-1.58-1.24-2.37-1.91
			C940.49,855.65,944.92,853.18,947.56,847.57z"/>
		<path class="st34" d="M974.26,807.91c-0.24-0.72-0.48-1.45-0.72-2.17c0.89,0.53,1.74,1.17,2.69,1.58
			c2.22,0.97,4.45,2.49,6.75,2.63c7.65,0.47,16.08-6.64,17.87-14.57c0.34-1.34,0.69-2.67,1.11-4.32c3.18,4.53,2.39,8.97-2.29,14.73
			c-0.92,0.73-1.92,1.37-2.75,2.19C989.92,814.9,981.34,814.88,974.26,807.91z"/>
		<path class="st35" d="M807.03,776.84c-1.51-1.23-3.2-2.31-4.48-3.75c-1.5-1.67-2.75-3.6-3.93-5.52
			c-4.5-7.36-8.92-14.76-13.17-21.82c0.94-1.38,1.5-2.18,2.05-2.99C794.01,754.12,800.52,765.48,807.03,776.84z"/>
		<path class="st36" d="M878.93,796.8c-1.53,5.22-8.74,10.95-14,11.1c-1.55,0.05-3.1,0.01-4.66,0.01c-3.27-1.87-6.51-3.8-9.82-5.6
			c-2.28-1.25-1.71-2.44-0.13-3.74c0.6,1.01,0.96,2.37,1.83,2.97c8.52,5.83,18.37,4.51,25.24-3.23
			C877.87,797.77,878.41,797.3,878.93,796.8z"/>
		<path class="st37" d="M966.3,726.35c-3.14,7.08-10.84,9.33-17.51,7.65c0.11,2.07,2.71,3.96,5.76,4.67
			c4.45,1.04,8.18-0.11,11.56-3.02c0.68-0.58,1.63-0.86,2.45-1.27c-4.87,5.99-10.91,7.83-17.06,5.1c-3.09-1.37-5.11-3.6-5.4-7.03
			c0.57-0.33,0.82-0.6,0.97-0.55C954.81,734.62,961.09,732.34,966.3,726.35z"/>
		<path class="st7" d="M509.43,108.06c1.54-3.54,3.08-7.08,4.62-10.61c1.16-0.14,2.34-0.48,3.48-0.39
			c6.92,0.53,13.85,0.95,20.73,1.79c9.84,1.2,19.63,2.74,29.45,4.13c-0.04,0.53-0.09,1.07-0.13,1.6c-4.36-0.98-8.67-2.32-13.09-2.87
			c-11.24-1.4-22.52-2.39-33.78-3.66c-5.52-0.62-6.36-0.2-8.62,5.1C511.37,104.86,510.33,106.43,509.43,108.06z"/>
		<path class="st36" d="M859.55,808.63c3.94-0.06,7.88-0.03,11.81-0.25c0.98-0.06,1.91-0.93,3.15-1.58c0.31,0.9,0.6,1.76,0.89,2.62
			c-6.14,3.01-12.46,4.1-18.87,1.13c-2.05-0.95-3.72-2.7-5.56-4.08C853.83,807.19,856.69,807.91,859.55,808.63z"/>
		<path class="st30" d="M800.29,156.17c0.04,0.34,0.07,0.68,0.11,1.02c-3.51,1.93-7,3.92-10.55,5.78
			c-5.69,2.97-11.42,5.89-17.17,8.75c-1.25,0.62-2.68,0.9-4.02,1.34c0.23-0.54,0.46-1.08,0.69-1.63
			C779.66,166.34,789.97,161.26,800.29,156.17z"/>
		<path class="st38" d="M947.56,847.57c-2.63,5.61-7.07,8.08-13.61,8.06c0.79,0.66,1.53,1.82,2.37,1.91
			c3.94,0.39,8.08,1.52,11.46-1.85c0.47-0.47,1.25-0.61,1.89-0.9c-3.37,4.49-8.33,6.35-13.5,5.03c-2.74-0.7-3.75-3.01-2.74-6.81
			C939.33,854.49,943.63,851.49,947.56,847.57z"/>
		<path class="st39" d="M1000.85,795.39c-1.79,7.93-10.22,15.04-17.87,14.57c-2.3-0.14-4.53-1.66-6.75-2.63
			c-0.95-0.41-1.8-1.05-2.69-1.58c-0.41-0.99-0.81-1.98-1.22-2.97c0.11,0.06,0.23,0.09,0.31,0.17c10.94,10.39,19.4,4.86,25.55-3.78
			C999.07,797.91,999.96,796.65,1000.85,795.39z"/>
		<path class="st40" d="M567.72,102.98c-9.81-1.39-19.61-2.93-29.45-4.13c-6.88-0.84-13.82-1.26-20.73-1.79
			c-1.14-0.09-2.32,0.25-3.48,0.39c-0.02-0.53-0.04-1.05-0.07-1.58c9.44,0.93,18.9,1.73,28.33,2.82c9.3,1.08,18.58,2.43,27.86,3.7
			c0.54,0.07,1.03,0.48,1.54,0.73C570.38,103.07,569.05,103.03,567.72,102.98z"/>
		<path class="st39" d="M974.26,807.91c7.08,6.97,15.66,6.98,22.67,0.08c0.83-0.82,1.83-1.46,2.75-2.19
			c-6.86,12.03-20.15,12.4-27.89,0.77C972.62,807.02,973.44,807.46,974.26,807.91z"/>
		<path class="st41" d="M830.68,748.75c2.36-1.53,4.51-2.33,7.14-0.1c5.61,4.77,12.1,5.25,18.93,3.07
			c-7.08,4.02-13.89,3.35-20.54-1.1c-1.22-0.82-2.7-1.25-4.06-1.85C831.66,748.76,831.17,748.75,830.68,748.75z"/>
		<path class="st42" d="M887.66,749.38c-4.57,4.96-17.95,8.06-25,1.42c-0.51-0.48-1.11-0.88-1.67-1.32c0.47-0.72,0.93-1.45,1.4-2.17
			c3.28,4.77,10.09,7.07,16.57,5.3C881.94,751.8,884.77,750.47,887.66,749.38z"/>
		<path class="st21" d="M695.47,137.8c-3.86-1.52-7.73-3.05-11.59-4.57c-0.62-0.35-1.24-0.7-1.86-1.06
			c-0.03-0.67-0.06-1.35-0.11-2.38c3.32,1.25,6.43,2.42,9.55,3.59c2.4,1.44,4.81,2.89,7.21,4.33
			C697.61,137.74,696.54,137.77,695.47,137.8z"/>
		<path class="st43" d="M814.86,719.89c0.59,0.03,1.39-0.18,1.75,0.12c6.58,5.55,13.62,3.89,20.72,1.38
			c-5.69,5.71-16.06,4.17-21.85,0.06C815.09,721.19,815.05,720.43,814.86,719.89z"/>
		<path class="st43" d="M835.03,713.52c-2.98,3.8-7.41,3.68-11.57,4.18c-2.9,0.35-5.82,0.5-8.73,0.74c0-3.59,2.78-2.93,4.64-2.6
			C824.91,716.83,830.05,715.86,835.03,713.52z"/>
		<path class="st43" d="M830.72,741.61c-2.15,4.27-10.09,6.7-13.53,3.95c-0.09,0.92-0.17,1.72-0.25,2.53c-0.2-1.18-0.41-2.37-0.69-4
			C821.81,745.21,826.49,744.53,830.72,741.61z"/>
		<path class="st43" d="M830.68,748.75c0.49,0.01,0.99,0.01,1.48,0.02c-3.68,2.76-7.79,3.63-12.14,2.23
			c-1.22-0.39-2.07-1.91-3.09-2.92c1.27,0.27,2.6,0.36,3.78,0.83C824.08,750.26,827.37,750.04,830.68,748.75z"/>
		<path class="st44" d="M743.07,600.98c-1.36-4.6-2.72-9.2-4.08-13.8c0.66,1.25,1.32,2.5,2.1,3.98c0.37-0.47,0.69-0.89,1.01-1.3
			c0.94,3.4,1.88,6.8,2.82,10.19C744.3,600.36,743.68,600.67,743.07,600.98z"/>
		<path class="st45" d="M515.41,499.2c-1.13,0.22-2.26,0.65-3.39,0.63c-7.62-0.18-15.23-0.43-22.84-0.72
			c-0.64-0.02-1.25-0.49-1.88-0.75C496.67,498.64,506.04,498.92,515.41,499.2z"/>
		<path class="st46" d="M748.49,618.2c-1.17-3.84-2.35-7.69-3.52-11.53c0.68,0.47,1.36,0.94,2.03,1.41
			c0.97,3.61,1.95,7.22,2.92,10.83C749.45,618.67,748.97,618.44,748.49,618.2z"/>
		<path class="st47" d="M796.79,114.63c-1.43,5.17-2.66,10.41-4.41,15.46c-0.72,2.1-2.19,4.31-3.96,5.61
			c-4.79,3.53-9.93,6.59-14.93,9.84c0.55,0.64,0.83,0.97,0.76,1.26c0.06-0.29-0.22-0.62-0.76-1.25c-6.64,3.59-13.3,7.17-19.91,10.79
			c-0.71,0.39-1.5,0.92-1.87,1.59c-0.38,0.7-0.69,1.99-0.32,2.41c0.46,0.54,1.75,0.8,2.47,0.55c1.42-0.5,2.68-1.45,4.03-2.17
			c5.5-2.95,11.01-5.89,16.51-8.83c0,0,0,0,0.01,0.01c3.83-2.14,7.66-4.26,11.49-6.4c0.01,0,0.01,0,0.02,0
			c1.22-0.73,2.44-1.46,3.66-2.19c0,0,0.01-0.01,0.01-0.01c5.72-0.09,9.69-3.32,10.18-8.36c0.54-5.6,1.04-11.19,1.56-16.79
			c0-0.01,0.01-0.02,0.01-0.03c0.41-1.05,0.98-2.07,1.19-3.16c1.48-7.72,2.89-15.45,4.33-23.18c0.31-2.28,0.62-4.55,0.93-6.82
			c-0.56-0.69-1.12-1.38-2.45-3.02c-0.99,2.14-1.64,3.73-2.46,5.23c-0.43,0.77-1.16,1.37-1.75,2.05c-0.24,0.73-0.48,1.47-0.72,2.21
			c-0.25,3.08-0.49,6.16-0.73,9.24c-0.96,5.32-1.92,10.64-2.88,15.97"/>
		<path class="st48" d="M806.85,89.77c0.31-2.27,0.62-4.54,0.93-6.82c0.74-0.29,1.49-0.57,2.83-1.08c-0.12,2.02-0.21,3.62-0.3,5.22
			C809.15,87.98,808,88.87,806.85,89.77z"/>
		<path class="st49" d="M858.58,753.21c3.45,1.88,6.9,3.77,10.34,5.65c2.43,0.25,4.86,0.51,7.3,0.76
			C869.92,761.78,861.59,758.76,858.58,753.21z"/>
		<path class="st50" d="M747,608.08c-0.68-0.47-1.36-0.94-2.03-1.41c-0.63-1.9-1.27-3.79-1.9-5.69c0.61-0.31,1.23-0.62,1.84-0.93
			C745.61,602.73,746.31,605.4,747,608.08z"/>
		<path class="st42" d="M876.22,759.62c-2.43-0.25-4.86-0.51-7.3-0.76c6.44,1,12.17-1.51,17.98-3.63
			C883.34,756.69,879.78,758.15,876.22,759.62z"/>
		<path class="st51" d="M748.49,618.2c0.48,0.24,0.95,0.47,1.43,0.71c0.71,3.71,1.42,7.43,2.13,11.14
			C750.86,626.1,749.68,622.15,748.49,618.2z"/>
		<path class="st10" d="M1057.2,550.33c-19.63-9.54-39.49-18.65-58.83-28.75c-21.09-11.02-41.34-23.51-59.25-39.39
			c-5.38-4.77-10.87-9.53-13.31-16.68c-0.45-1.29-0.89-2.59-1.34-3.88c0.24-0.24,0.48-0.48,0.72-0.72
			c4.66,11,13.21,18.72,22.27,25.87c26.71,21.08,56.86,36.36,87.24,51.21c6.78,3.31,13.77,6.19,20.65,9.3
			c1.5,0.68,2.95,1.47,4.86,2.43C1058.83,550,1058.01,550.17,1057.2,550.33z"/>
		<path class="st12" d="M688.08,90.99c0.89,0.18,1.77,0.36,2.66,0.54c2.59,0.99,5.18,1.98,7.77,2.97c3.26,1.45,4.4,3.51,2.54,6.98
			c-1,1.85-1.47,4.02-1.97,6.1c-0.77,3.21-2.5,4.08-5.43,2.55c-3.77-1.69-7.53-3.37-11.3-5.06c-0.28-0.4-0.56-0.8-0.84-1.2
			C685.41,100.46,687.99,96.36,688.08,90.99z"/>
		<path class="st52" d="M692.33,128.33c-1.69,3.16-3.78,2.1-5.92,0.57c-2.4-1.63-4.81-3.27-7.21-4.9c-0.93-0.88-1.85-1.75-2.91-2.75
			c1.03-2.1,1.88-4.22,3.06-6.12c0.94-1.51,2.29-2.76,3.45-4.12c4.05,1.7,8.09,3.4,12.14,5.1l0.24-0.09c0.06,1,0.13,2,0.19,3
			C694.36,122.13,693.34,125.23,692.33,128.33z"/>
		<path class="st53" d="M801.12,87.21c-0.24,0.74-0.48,1.48-0.72,2.21c-16.93,15.38-33.87,30.74-50.77,46.14
			c-5.48,5-10.86,10.1-16.29,15.16c-1.46,0.71-2.91,1.43-4.37,2.14c6.58-6.41,13.11-12.87,19.76-19.19
			c4.06-3.86,8.35-7.49,12.49-11.28c9.07-8.31,18.04-16.73,27.2-24.93C792.46,93.83,796.88,90.61,801.12,87.21z"/>
		<path class="st54" d="M925.2,460.91c-0.24,0.24-0.48,0.48-0.72,0.72c-0.78-1.33-1.49-2.72-2.36-3.99
			c-2.4-3.48-4.87-6.91-7.31-10.35c-2.71-4.81-5.4-9.62-8.13-14.42c-4.66-8.2-9.34-16.4-14.02-24.6c0.51-0.25,1.01-0.51,1.52-0.76
			c5.16,8.67,10.38,17.3,15.45,26.02C914.9,442.62,920.02,451.78,925.2,460.91z"/>
		<path class="st55" d="M703.73,73.41c-1.64-0.93-3.27-1.87-4.91-2.8c0.7-0.45,1.41-0.89,2.11-1.34c0.21-0.04,0.41-0.1,0.61-0.16
			c1.68,1.94,6.1,3.17,6.7,1.73c1.29-3.09,1.99-6.42,2.95-9.69c-3.93,1.98-7.13,3.59-10.33,5.19l-0.08,0.01
			c1.3-1.44,2.59-2.88,3.89-4.32c3.22-2.51,6.44-5.02,9.66-7.53c0.3,0.18,0.6,0.37,0.89,0.55c-0.28,1.32-0.47,2.66-0.84,3.95
			c-0.87,3-1.81,5.98-2.74,8.96C709.72,74.12,709.71,74.12,703.73,73.41z"/>
		<path class="st56" d="M694.21,88.25c-0.8-0.36-1.6-0.72-2.41-1.08c1.76-3.6,3.53-7.2,5.29-10.8c2.35,0.73,4.8,1.26,7.02,2.28
			c1.07,0.49,2.57,2.09,2.4,2.86c-0.75,3.35-2.04,6.57-3.17,9.95c-2.31-0.79-3.85-1.31-5.39-1.83
			C696.7,89.17,695.46,88.71,694.21,88.25z M698.82,78.85c-0.3,0.49-0.59,0.98-0.89,1.48c0.82,0.61,1.72,1.13,2.42,1.85
			c0.67,0.69,1.13,1.58,1.68,2.38c-0.9,0.36-1.83,1.06-2.71,1c-1.28-0.08-2.54-0.71-3.8-1.1c-0.15,0.4-0.29,0.8-0.44,1.19
			c2.35,1.06,4.69,2.11,7.86,3.54c0.43-3.12,1.37-5.73,0.85-8.01C703.56,80.09,700.57,79.61,698.82,78.85z"/>
		<path class="st57" d="M682.35,105.07c3.77,1.69,7.53,3.37,11.3,5.06c1.26,1.9,2.53,3.8,4.21,6.34c-1.56-0.26-2.12-0.35-2.68-0.45
			l-0.24,0.09c-2.37-1.44-4.74-2.88-7.11-4.32c-2.88-1.7-5.76-3.41-8.64-5.11C680.25,106.15,681.3,105.61,682.35,105.07z"/>
		<path class="st28" d="M694.21,88.25c1.25,0.46,2.5,0.92,3.74,1.38c1.65,1.12,3.29,2.24,5.1,3.47c-0.11,0.51-0.32,1.48-0.5,2.35
			c-1.41-0.33-2.72-0.64-4.04-0.96c-2.59-0.99-5.18-1.98-7.77-2.96C688.6,86.96,693.25,89.55,694.21,88.25z"/>
		<path class="st58" d="M728.97,152.86c1.46-0.71,2.91-1.43,4.37-2.14c-3.83,4.48-3.77,4.37-8.82,1.77
			c-9.64-4.97-19.36-9.8-29.05-14.69c1.07-0.03,2.13-0.06,3.2-0.09c6.5,3.34,12.98,6.71,19.51,10
			C721.74,149.5,725.37,151.15,728.97,152.86z"/>
		<path class="st21" d="M698.02,118.05c-1.15,0.42-1.89,0.7-2.64,0.97c-1.02,3.1-2.03,6.21-3.05,9.31c-0.01,0-0.01,0-0.02-0.01
			c-1.69,3.15-3.78,2.1-5.92,0.57c-3.85-1.66-7.69-3.31-11.54-4.97c-0.24,0.5-0.48,1.01-0.72,1.51c0.6,0.53,1.2,1.06,1.8,1.59
			c-1.47,0.16-5.51-1.39-6.49-1.69c-8.22-2.54-12.78-6.96-21.08-9.21c-13.83-3.75-23.54-7.63-37.49-10.91
			c-10.55-2.48-23.58-5.99-34.26-7.85c-8.67-1.51-16.53-0.49-25.27-1.65c-7.67-1.02-24.19-7.72-31.02-4.28
			c-3.9-0.31-7.85,0.36-11.8,0.58c0.24,0,4.03,4.47,4.27,4.47c9.45,0.93,20.1,1.12,29.53,2.21c9.31,1.07,18.58,2.43,27.86,3.7
			c0.54,0.07,1.03,0.48,1.54,0.73c3.03,0.52,6.09,0.91,9.09,1.59c20.12,4.59,40.35,8.76,60.28,14.04
			c13.86,3.67,27.31,8.9,40.94,13.43c-0.03-0.67-0.06-1.34-0.11-2.38c3.32,1.25,6.43,2.42,9.55,3.59c0.97-1.44,1.93-2.89,2.89-4.33
			c-0.53-0.19-1.05-0.37-1.58-0.56c0.52,0.19,1.05,0.38,1.58,0.55C695.56,125.43,696.76,121.81,698.02,118.05z"/>
		<path class="st59" d="M833.58,808.47c3.65-0.66,7.3-1.32,11.24-2.03c1.53,4.06-1.2,7.95-2.1,12.08
			C839.68,815.17,836.63,811.82,833.58,808.47z"/>
		<path class="st60" d="M481.52,499.14c0.48,0.24,0.96,0.48,1.44,0.72c0.62,0.5,1.25,0.99,1.87,1.49c-0.12,0.24-0.24,0.48-0.37,0.72
			c-3.49-0.76-6.98-1.53-10.46-2.29c0.07-0.44,0.14-0.88,0.2-1.33c1.45,0.27,2.89,0.61,4.36,0.77
			C479.54,499.34,480.54,499.18,481.52,499.14z"/>
		<path class="st61" d="M427.18,488.45c-4.68,4.09-9.35,8.17-14.02,12.26c-0.24-0.5-0.8-1.13-0.67-1.48
			c1.18-3.18,2.37-6.37,3.78-9.44c3.13-6.84,6.4-13.62,9.61-20.42c2.82-4.56,5.63-9.13,8.49-13.67c2.11-3.38,4.27-6.71,6.42-10.07
			c6.11-6.98,11.85-14.35,18.39-20.88c25.96-25.88,56.63-42.85,92.28-49.3c8.24-1.49,16.94-0.34,25.42-0.15
			c0.93,0.02,2.14,1.65,2.66,2.79c0.76,1.67,1.01,3.58,1.63,5.99c-4.27,0.57-8.37,1.04-12.43,1.69
			c-21.49,3.43-41.16,11.7-58.74,24.78c-8.88,6.6-17.22,14.03-25.33,21.62c-4.98,4.65-9.08,10.33-13.57,15.53
			c-6.05,8.49-12.71,16.59-17.99,25.57c-6.38,10.84-11.6,22.4-17.43,33.87c-1.24-4.46-2.55-9.24-3.89-14.01
			c-0.41-1.47-0.82-2.94-1.38-4.35C429.56,486.77,428.44,486.61,427.18,488.45z"/>
		<path class="st62" d="M595.83,359.26c-0.55,1.41-1.1,2.83-1.65,4.24c-1.31,0.9-2.54,2.34-3.97,2.58
			c-2.68,0.46-5.48,0.21-8.23,0.27c-4.13,0.08-4.5,0.58-3.58,4.7c0.1,0.44,0.1,0.9,0.12,1.06c-7.12,0-14.12-0.18-21.11,0.07
			c-4.4,0.16-8.76,0.98-13.14,1.51c-4.74,1.28-9.56,2.33-14.2,3.89c-7.03,2.37-13.95,5.09-20.92,7.66c-5.36,2.6-10.72,5.2-16.08,7.8
			c-6.71,4.28-13.86,8.02-20.02,12.98c-8.39,6.75-16.03,14.44-23.99,21.73c-0.01,0.02-0.02,0.03-0.03,0.05
			c-1.64,1.65-3.29,3.31-4.93,4.96c-3.4,4.33-6.79,8.66-10.18,12.99c-1.66,2.4-3.32,4.81-4.98,7.21
			c-4.34,7.98-9.11,15.75-12.9,23.97c-4.45,9.66-8.1,19.7-11.95,29.63c-0.36,0.92-2.17,3.04,0.94,3.3c0.99-0.92,1.97-1.84,2.96-2.76
			c0,0,0,0,0,0c6.52-6.15,13.04-12.29,19.69-18.56c3.37,8.4,6.4,15.96,9.43,23.53c0.84,0.55,0.84,0.57,0,0.02
			c0.8,2.23,1.59,4.46,2.56,7.17c1.19-0.91,1.94-1.47,2.69-2.04c1.53-4.81,3.06-9.62,4.59-14.43c6.21-12.63,12.41-25.26,18.64-37.87
			c0.35-0.71,0.97-1.29,1.47-1.93c6.62-8.65,13.25-17.31,19.88-25.96c4.26-4.52,8.53-9.04,12.79-13.56
			c-1.08,0.64-1.08,0.63,0.01-0.02c0.91-0.52,1.81-1.03,2.72-1.55c9.79-9.2,20.74-16.71,33.01-22.16c5.95-2.64,12.06-4.95,18.21-7.1
			c3.37-1.17,6.97-1.69,10.47-2.51c5.84-0.92,11.69-1.85,17.53-2.78c1.34,3.77-1.14,4.91-3.98,5.81c1.85-0.51,3.7-1.01,5.55-1.51
			c3.81-8.45,7.67-16.9,11.43-25.37c0.91-2.06,1.53-4.24,2.28-6.37C596.58,359.7,596.21,359.48,595.83,359.26z M436.65,446.48
			C436.65,446.48,436.65,446.48,436.65,446.48c-0.01,0-0.02,0-0.02,0C436.64,446.48,436.65,446.48,436.65,446.48z M436.11,446.32
			c0,0,0.03,0.01,0.04,0.01C436.13,446.32,436.12,446.32,436.11,446.32C436.11,446.32,436.11,446.32,436.11,446.32z M418.04,486.84
			C418.04,486.84,418.04,486.84,418.04,486.84C418.04,486.84,418.04,486.84,418.04,486.84
			C418.04,486.84,418.04,486.84,418.04,486.84z M471.38,448.76c0.83-1.53,1.68-3.11,2.54-4.71
			C473.06,445.65,472.21,447.23,471.38,448.76z M569.08,385.13c-20.86,3.23-39.96,11.01-57.04,23.32
			c-8.62,6.21-16.72,13.21-24.6,20.35c-4.83,4.38-8.81,9.71-13.18,14.62c0,0.01-0.01,0.02-0.01,0.02
			c-5.87,7.99-12.34,15.62-17.47,24.08c-6.2,10.19-11.26,21.08-16.93,31.88c-1.2-4.2-2.48-8.7-3.78-13.19
			c-0.4-1.38-0.79-2.77-1.34-4.09c-0.78-1.9-1.86-2.05-3.08-0.33c0,0-0.01-0.01-0.01-0.01c-4.54,3.85-9.08,7.69-13.62,11.54
			c-0.72,0.98-0.72,0.97,0-0.01c-0.23-0.47-0.78-1.06-0.65-1.39c1.15-2.99,2.3-5.99,3.67-8.89c3.04-6.44,7.84-15.38,10.96-21.78h0
			c2.19-3.44,4.39-6.88,6.61-10.31c2.05-3.18,4.15-6.32,6.23-9.48c0,0-0.01,0-0.02,0c0,0,0.01,0,0.01,0
			c5.94-6.57,11.52-13.51,17.87-19.65c25.21-24.37,54.99-40.34,89.61-46.4c7.99-1.4,16.44-0.33,24.68-0.14
			c0.9,0.02,2.07,1.55,2.58,2.63c0.73,1.57,0.98,3.37,1.58,5.64C577,384.08,573.03,384.52,569.08,385.13z"/>
		<path class="st63" d="M700.93,69.27c-0.7,0.45-1.41,0.89-2.11,1.34c-0.27-0.28-0.54-0.56-0.81-0.84c0.46-0.69,0.93-1.39,1.39-2.08
			C699.91,68.22,700.42,68.75,700.93,69.27z"/>
		<path class="st64" d="M700.93,69.27c-0.51-0.53-1.02-1.05-1.53-1.58c0.46-0.45,0.92-0.89,1.38-1.34l0.08-0.01
			c0.22,0.92,0.45,1.84,0.67,2.76C701.33,69.18,701.13,69.23,700.93,69.27z"/>
		<path class="st1" d="M324.97,352.57c0.72-0.44,1.42-1.23,2.15-1.27c6.28-0.34,12.57-0.5,18.86-0.8c2.83-0.14,5.66-0.48,8.48-0.72
			c-0.44,0.46-0.89,0.91-1.33,1.37c-6.12,0.25-12.24,0.5-18.35,0.75C331.51,352.12,328.24,352.35,324.97,352.57z"/>
		<path class="st7" d="M334.78,351.9c6.12-0.25,12.24-0.5,18.35-0.75c-2.95,0.5-5.88,1.31-8.84,1.42
			C341.14,352.69,337.95,352.15,334.78,351.9z"/>
		<path class="st7" d="M475.37,230.68c1.54-5.61,3.08-11.22,4.62-16.83C478.45,219.47,476.91,225.07,475.37,230.68z"/>
		<path class="st12" d="M601.3,81.25c4.2,2.19,8.35,4.5,12.62,6.53c2.91,1.38,4.31,3.1,2.85,6.35c-0.33,0.73-0.25,1.63-0.36,2.46
			c-1.52,0.26-3.14,1-4.54,0.69c-4.43-0.97-8.79-2.28-13.14-3.6c-0.73-0.22-1.27-1.11-1.89-1.69
			C598.34,88.42,599.82,84.83,601.3,81.25z"/>
		<path class="st65" d="M263.76,481.36c15.63-6.21,31.27-12.37,46.82-18.75c4.7-1.93,9.13-4.49,13.68-6.76
			c-0.28-0.31-0.55-0.63-0.83-0.95c-15.6,6.59-31.2,13.17-46.8,19.74c-0.04,0.02-0.07,0.03-0.11,0.05
			c-12.04,3.69-24.05,7.47-36.12,11.06c-5.1,1.52-10.32,2.68-15.48,4c-6.59,1.39-13.18,2.85-19.81,4.05
			c-0.46,0.08-1.74-1.68-1.81-2.65c-0.14-1.87,0.31-3.78,0.51-5.68c-0.65,2.1-1.29,4.2-1.84,5.98
			c-0.67-11.54,17.15-105.81,28.83-124.16c-0.12,1.51-0.2,2.58-0.28,3.65c1.32-3.93,4.36-5.74,8.18-6.54
			c10.63-2.22,21.23-4.72,31.93-6.57c9.41-1.63,18.93-2.61,28.42-3.7c4.08-0.47,8.22-0.39,12.33-0.7c2.82-0.21,5.62-0.66,8.43-1
			c-1.62-0.22-3.23-0.45-4.85-0.67c0-0.12-0.01-0.25-0.02-0.37c6.18-0.52,12.34-1.12,18.52-1.52c5.6-0.36,11.32,0.03,16.79-0.96
			c3.1-0.57,6.07-2.93,8.67-5.02c10.95-8.81,21.7-17.87,32.61-26.73c6.91-5.61,13.99-11.03,21-16.53c1.81-1.42,3.65-2.79,5.47-4.18
			c5.06-4.21,10.1-8.44,15.18-12.63c6.07-5.01,12.12-10.05,18.27-14.95c3.42-2.72,7.03-5.19,10.56-7.77
			c7.69-5.64,6.98-14.81,9.18-22.6c5.03-17.82,9.08-30.51,13.72-48.43c0.08-0.32,1.49-8.05,1.7-8.33c1.48-5.78,1.58-7.04,3.85-12.56
			c6.59-16.06,9.2-35.97,14.22-52.54c2.17-7.15,3.52-14.74,8.56-20.75c3.94-0.22,7.93-0.88,11.83-0.57
			c7.71,0.62,15.39,1.71,23.06,2.73c8.73,1.16,17.49,2.23,26.17,3.74c10.68,1.86,21.37,3.82,31.92,6.3
			c13.95,3.28,27.8,6.99,41.63,10.74c8.3,2.26,16.49,4.93,24.72,7.46c0.98,0.3,1.87,0.91,3.34,0.76c-0.6-0.53-1.2-1.06-1.8-1.59
			c-5.54-2.75-11.08-5.48-16.6-8.24c-2.22-1.11-4.55-2.08-6.56-3.5c-1.88-1.33-1.66-2.83,0.11-3.41c0.31-0.44,0.63-0.88,0.94-1.32
			c0.22-0.9,0.13-2.2,0.7-2.64c3.96-3.04,6.66-7.91,12.38-8.5c0.69-0.07,1.22-1.75,1.82-2.69c3.12-5.65,7.75-9.44,14.04-10.9
			c1.04-0.24,2.37,0.91,3.61,1.27c1.36,0.39,2.76,0.61,4.15,0.9c-1.93-0.98-3.87-1.97-6.14-3.13c0.85-1.26,1.53-2.28,2.21-3.29
			c-1.25,0.6-2.49,1.2-3.74,1.8c-0.2-0.22-0.41-0.44-0.61-0.66c1.82-1.73,3.49-3.66,5.51-5.13c2.39-1.74,4.29-5.04,8.17-3.39
			c0.11,0.05,0.61-0.82,0.93-1.27c0.96-2.41,1.92-4.83,2.88-7.24c-3.45,2.72-7.03,5.31-10.35,8.19
			C675.25,83,663.04,93.8,650.75,104.51c-3.01,2.63-5.92,5.95-10.62,3.32c-1.38-0.39-2.9-0.54-4.08-1.25
			c-0.96-0.59-2.2-1.86-2.17-2.79c0.26-8.19,0.78-16.37,1.23-24.56l-0.04,0.06c0.48-10.92,0.97-21.84,1.46-32.76
			c0-0.37,0-0.74,0-1.11c0.03-8.43,0.05-16.85,0.07-25.27c-0.72,0-1.43,0-2.15,0c0-0.01,0.01-0.03,0.01-0.04c-0.72,0-1.44,0-2.16,0
			c-2.08,2.14-4.08,4.37-6.24,6.42c-5.83,5.55-11.74,11.01-17.62,16.51l-0.01,0.01c-0.96,0.67-2.01,1.25-2.87,2.04
			c-13.01,11.96-26.17,23.76-38.9,36.01c-4.17,4.01-7.71,4.85-13.56,3.67c-16.34-3.3-32.95-5.28-49.43-7.93
			c-3.43-0.55-4.76,0.65-5.4,3.9c-3.52,17.92-7.13,35.83-10.79,53.72c-4.08,19.95-8.22,39.89-12.37,59.83
			c-1.36,6.52-2.98,12.99-4.27,19.53c-2.24,11.35-4.06,22.78-6.57,34.07c-0.92,4.16-1.18,8.75-5.33,11.87
			c-9.41,7.07-18.59,14.46-27.77,21.85c-14.07,11.32-28.03,22.79-42.09,34.12c-12.39,9.99-24.86,19.87-37.29,29.8
			c-1.24,0.29-2.5,0.91-3.71,0.82c-39.59-3.12-79.22-1.6-118.84-0.78c-1.53,0.03-3.05,0.45-4.58,0.69
			c-4.14,1.99-6.85,5.19-8.15,9.61c-0.58,2.01-1.1,4.05-1.88,5.98c-6.79,16.84-11.62,34.3-15.73,51.93
			c-3.4,14.61-6.25,29.37-8.68,44.17c-2,12.2-3.02,24.57-4.47,36.86c-0.1,2.85-0.2,5.7-0.29,8.55c-0.08,2.65,1.08,4.1,3.86,3.73
			c5.06-0.68,10.11-1.44,15.16-2.16c2.16-0.56,4.33-1.05,6.46-1.69c12.39-3.74,24.83-7.36,37.14-11.36
			c4.33-1.41,7.89-1.72,11.7,1.43c4.1,3.4,8.73,6.18,13.6,9.55c0.62-1.34,1.37-2.48,1.66-3.72c0.82-3.48,1.22-7.06,2.24-10.47
			c0.44-1.49,1.73-3.19,3.09-3.85c6.02-2.9,12.2-5.46,18.32-8.14c4.19-1.89,8.37-3.78,12.56-5.67c2.21,0.03,4.8-0.69,6.55,0.22
			c4.72,2.45,9.07,5.59,14.11,8.8c0.63-1.45,1.41-2.59,1.64-3.84c1-5.35,1.84-10.72,2.74-16.08c2.18-1.76,4.17-3.87,6.59-5.18
			c2.46-1.33,4.45,0.33,5.95,2.36c4.07,2.65,8.13,5.29,12.2,7.94c0.7-1.13,2.04-2.28,1.99-3.37c-0.2-4.16-0.93-8.29-1.27-12.45
			c-0.09-1.16,0.46-2.37,0.72-3.55c4.1-3.99,4.25-4.02,8.91-0.89c2.77,1.86,5.46,3.83,8.21,5.71c3.26,2.22,6.54,4.4,10.42,7.01
			c0.38-2.87,0.66-4.93,0.94-6.98c0.59-7,1.18-14,1.77-21.01c0.22-0.49,0.31-1.21,0.69-1.42c7.63-4.34,15.29-8.62,22.94-12.91
			c1.44,0.13,3.03-0.1,4.29,0.44c3.62,1.56,7.09,3.46,10.64,5.18c3.03,1.47,3.95,0.94,3.92-2.3c-0.04-5.14-0.15-10.28-0.24-15.42
			c0.01-4.08,3.88-3.62,6.05-5.17c1.12-0.24,2.44-0.99,3.25-0.62c4.52,1.76,8.92,3.8,13.36,5.74c1.69,0.69,3.37,1.39,5.06,2.09
			c2.65,0.3,3.44-0.91,2.86-3.4c-0.84-3.62-1.6-7.26-2.4-10.89c-2.08-7.35-2.07-7.33,4.02-11.23c1.28-0.82,2.46-1.81,3.65-2.77
			c6.34-5.09,12.84-10.01,18.94-15.37c4.97-4.36,6.25-4.93,12.25-2.39c4.23,1.79,8.47,3.57,12.58,5.6c2.11,1.04,3.33,0.63,4.18-1.25
			c-2.13-6.98-4.23-13.82-6.25-20.69c-0.13-0.44,0.33-1.08,0.58-1.6c2.13-4.49,5.05-5.59,9.49-3.61c0.97,0.43,1.92,0.88,2.88,1.32
			c1.65,0.58,3.32,1.08,4.92,1.77c2.49,1.07,3.56,0.39,3.43-2.37c-0.22-4.71-0.34-9.42-0.5-14.13c0.26-0.77,0.31-1.73,0.81-2.28
			c4.94-5.46,9.96-10.86,14.96-16.27c1.32-0.16,2.74-0.68,3.96-0.39c3.81,0.89,7.56,2.08,11.32,3.17c3.49,1.01,3.97,0.56,3.25-3.11
			c-0.2-1.05-0.46-2.09-0.69-3.13c-0.72-2.99-1.12-6.09-2.22-8.93c-2.71-7.01,3.66-9.24,6.72-13.1c2.21-2.8,4.93-0.36,7.41,0.23
			c3.05,1.01,6.1,2.01,9.14,3.06c3.5,1.21,4.35,0.66,4.34-2.96c-0.01-6.47-0.14-12.95-0.04-19.42c0.03-1.99,0.64-3.97,0.98-5.95
			c1.47-3.98,2.7-8.07,4.53-11.88c0.83-1.72,2.77-2.63,3.74,0.46c0.76,2.44,1.71,4.81,2.58,7.21c1.01,5.27,2.01,10.55,3.02,15.82
			l-0.06-0.07c0.35,7.89,0.9,15.77,0.98,23.66c0.05,4.38-0.67,8.77-1.05,13.15c-0.7,5.84-1.42,11.68-2.1,17.52
			c-0.42,3.59-0.79,7.18-1.18,10.77c0.15,0.93,0.29,1.87,0.44,2.8c1.67-9.51,3.76-18.98,4.89-28.56c1.05-8.93,1.08-17.98,1.56-26.98
			c-2.92-6.23-1.8-12.76-1.37-19.25c-0.36,0.15-0.71,0.31-1.07,0.46c-0.65-1.77-1.29-3.55-2.11-5.78c0.89,0.06,1.45,0.1,2.98,0.21
			c-2.16-8.65-4.26-17.03-6.36-25.42c-2.21,2.74-4.48,5.43-6.62,8.22c-8.08,10.52-15.24,18.13-23.49,28.51
			c-8.7,10.94-17.36,21.9-26.82,32.17c-12.98,14.11-25.9,27.6-39.51,41.11c-6.36,6.31-14.61,13.21-21.48,18.98
			c-5.48,4.59-10.82,9.1-16.49,13.45c-0.26-0.28-0.96,1.28-1.22,1c-5.68,3.68-11.28,7.48-17.03,11.03
			c-14.6,8.97-29.21,17.93-43.94,26.69c-9.17,5.46-18.51,10.63-27.85,15.79c-9.03,4.98-18.11,9.87-27.25,14.64
			c-9.12,4.77-18.35,9.33-27.53,13.98c0.28,0.31,0.55,0.63,0.83,0.95 M324.21,455.88c-4.55,2.27-11.63,3.65-16.32,5.58
			c-15.56,6.38-37.26,14.37-52.88,20.57c-0.93,0.37,6.68-0.28,4.94,0 M613.77,100.76c-10.24-2.59-20.37-5.6-30.54-8.48
			c-4.2-1.07-8.39-2.13-12.58-3.19c0.04-0.28,0.08-0.57,0.12-0.85c0.62-0.14,1.25-0.28,1.87-0.42c-1.01-1.16-2.03-2.31-3.03-3.45
			c0-0.01,0.01-0.01,0.01-0.02c3.75-3.44,7.55-6.82,11.23-10.33c1.7-1.62,3.3-2,5.42-0.85c2.28,1.24,4.69,2.25,7.04,3.36
			c1.86,1.02,5.21,3,7.94,4.58c0.04,0.08,0.06,0.14,0.07,0.15c4.2,2.19,8.34,4.5,12.62,6.53c2.91,1.38,4.31,3.1,2.85,6.35
			c-0.33,0.73-0.25,1.64-0.36,2.46c-0.25,0.69-0.49,1.39-0.73,2.09c-1.08,0.26-2.25,0.95-3.2,0.72c-8.83-2.18-17.63-4.53-26.44-6.8
			c-0.91-0.24-1.87-0.24-2.81-0.35c10.17,2.88,20.3,5.89,30.54,8.48c0.94,0.24,2.68-0.59,3.71-1.55
			C616.48,100.16,614.71,101,613.77,100.76z M622.82,72.2c-0.3,2.32-0.93,4.6-1.42,6.89l-19.89-2.06c-2.6-1.62-5.36-3.34-8.14-5.06
			c-1.94-1.17-3.89-2.35-5.83-3.52c-0.47,0.72-0.94,1.44-1.41,2.16c0,0,0-0.01,0-0.01c0.47-0.72,0.94-1.44,1.41-2.16
			c3.13-3.26,6.19-6.58,9.44-9.72c0.46-0.44,1.94-0.25,2.72,0.13c3,1.45,5.9,3.1,8.84,4.67c4.55,1.85,9.14,3.6,13.6,5.64
			C622.73,69.43,622.95,71.2,622.82,72.2z M627.17,55.67c-1.02,2.63-1.14,6.42-3,7.65c-1.57,1.03-5.02-0.82-7.67-1.44
			c-0.02-0.01-0.04-0.03-0.06-0.04c-2.41-1.08-4.82-2.17-7.23-3.25c-2.55-1.32-5.1-2.64-7.65-3.97c-0.05,0.05-0.1,0.09-0.15,0.14
			c0.05-0.05,0.11-0.1,0.16-0.15c0.89-1.34,1.78-2.68,2.67-4.02l8.29-7.38c1.38,0.72,10.99,4.39,12.37,5.11l-0.03,0.05
			C627.65,50.17,628.38,52.56,627.17,55.67z M633.7,23.82c-1.14,6.42-2.05,12.9-3.53,19.24c-0.7,2.99-3.1,1.42-4.94,0.89
			c-0.04-0.03-0.08-0.06-0.12-0.09c-2-1.05-4.04-2.03-5.98-3.17c-1.41-0.82-2.81-1.94-1-3.62c4.71-4.38,9.48-8.7,14.26-13.01
			c0.29-0.26,0.87-0.19,1.32-0.28C633.71,23.79,633.7,23.81,633.7,23.82z"/>
		<path class="st12" d="M596.85,92c0.62,0.58,1.16,1.47,1.89,1.69c4.35,1.31,8.71,2.63,13.14,3.6c1.39,0.31,3.02-0.43,4.54-0.69
			c-0.24,0.7-0.48,1.4-0.73,2.09c-4.75-1.05-9.52-2.04-14.26-3.17c-2.09-0.5-4.11-1.26-6.16-1.9C595.8,93.08,596.33,92.54,596.85,92
			z"/>
		<path class="st66" d="M682.8,111.02c-1.17,1.36-2.52,2.61-3.45,4.12c-1.18,1.9-2.03,4.02-3.06,6.12c1.05,1,1.98,1.87,2.91,2.75
			c-1.72-1.03-3.44-2.06-5.16-3.09c2.21-3.9,4.41-7.79,6.62-11.69c0.48,0.12,0.95,0.24,1.43,0.36
			C682.32,110.06,682.56,110.54,682.8,111.02z"/>
		<path class="st1" d="M682.08,109.58c-0.48-0.12-0.95-0.24-1.43-0.36c-4.88-2.72-9.73-5.48-14.65-8.11c-1-0.54-2.27-0.58-3.41-0.84
			c1.28,0.01,2.74-0.38,3.81,0.1c4.33,1.96,8.54,4.19,12.8,6.32c2.88,1.7,5.76,3.41,8.64,5.11
			C685.92,111.06,684,110.32,682.08,109.58z"/>
		<path class="st12" d="M674.04,120.91c1.72,1.03,3.44,2.06,5.16,3.09c2.4,1.63,4.81,3.27,7.21,4.9c-3.85-1.66-7.69-3.31-11.54-4.97
			l-0.25-0.07l-0.25,0.07c-0.57-0.66-1.14-1.33-1.71-1.99C673.12,121.6,673.58,121.25,674.04,120.91z"/>
		<path class="st67" d="M672.66,121.95c0.57,0.66,1.14,1.33,1.71,1.99c-7.26-3.69-14.53-7.39-21.79-11.08
			c4.64,2.1,9.28,4.2,13.92,6.3C668.56,120.08,670.61,121.02,672.66,121.95z"/>
		<path class="st7" d="M593.37,71.97c-1.94-1.17-3.89-2.35-5.83-3.52c3.12-3.26,6.19-6.59,9.44-9.72c0.46-0.44,1.94-0.25,2.72,0.13
			c3,1.45,5.9,3.1,8.84,4.67c-1.8,4.06-3.59,8.13-5.39,12.19C599.89,74.47,596.63,73.22,593.37,71.97z"/>
		<path class="st68" d="M688.08,90.99c-0.09,5.37-2.67,9.47-6.57,12.88c-1.24-0.51-2.48-1.01-3.72-1.52
			c-1.58-0.98-3.1-2.08-4.75-2.93c-5.46-2.81-5.48-2.77-1.94-7.17c0.96-0.9,1.95-1.77,2.87-2.71c1.93-1.97,4.01-2.8,6.74-1.52
			C683.1,89.15,685.61,90.01,688.08,90.99z"/>
		<path class="st1" d="M671.09,92.26c-3.54,4.4-3.52,4.37,1.94,7.17c1.65,0.85,3.17,1.95,4.75,2.93c-3.06-1.47-6.18-2.84-9.14-4.49
			c-0.82-0.46-1.16-1.79-1.72-2.72C668.32,94.18,669.71,93.22,671.09,92.26z"/>
		<path class="st60" d="M820.22,282.09c1.93,2.58,4.12,5.02,5.74,7.79c2.25,3.86,4.08,7.97,6.09,11.98
			C828.1,295.27,824.16,288.68,820.22,282.09z"/>
		<path class="st69" d="M877.27,381.64c1.75,2.31,3.79,4.46,5.2,6.96c2.62,4.64,4.87,9.48,7.28,14.23
			C885.6,395.77,881.43,388.7,877.27,381.64z"/>
		<path class="st60" d="M838.4,313.81c0.59,0.38,1.41,0.62,1.72,1.15c3.61,6.11,7.15,12.25,10.66,18.41
			c0.21,0.36,0.05,0.93,0.06,1.41C846.69,327.8,842.55,320.8,838.4,313.81z"/>
		<path class="st60" d="M858.85,349.08c0.68,0.41,1.64,0.66,1.98,1.26c2.87,5.07,5.64,10.19,8.4,15.32
			c0.26,0.49,0.22,1.14,0.33,1.72C865.99,361.29,862.42,355.19,858.85,349.08z"/>
		<path class="st70" d="M914.81,447.29c2.44,3.45,4.91,6.88,7.31,10.35c0.87,1.27,1.58,2.65,2.36,3.99
			c0.45,1.29,0.89,2.59,1.34,3.88c-2.66-4.33-5.33-8.65-7.97-13C916.8,450.79,915.82,449.03,914.81,447.29z"/>
		<path class="st0" d="M838.06,743.03c3.23-3.44,3.75-4.92,6.68-19.17c6.2,5.95,13.43,5.55,21.14,3.45
			c0.75,6.71-0.54,12.47-5.64,17.02c-6.25,3.33-12.71,4.31-19.37,1.41C839.75,745.25,838.98,743.95,838.06,743.03z"/>
		<path class="st41" d="M838.06,743.03c0.93,0.92,1.69,2.22,2.81,2.7c6.66,2.9,13.12,1.92,19.37-1.41
			c-3.54,3.73-8.27,4.86-12.96,4.56c-2.88-0.19-6.05,0.68-8.99-1.62C835.92,745.41,836.66,744.52,838.06,743.03z"/>
		<path class="st71" d="M718.2,522.96c-1.46-4.54-2.92-9.08-4.39-13.61C715.28,513.88,716.74,518.42,718.2,522.96z"/>
		<path class="st72" d="M605.27,166.54c-0.26,0.66-15.63-3.42-16.12-2.85c-0.1,3-0.51,6.03-0.24,8.99
			c0.66,7.3,5.36,12.61,9.56,18.12c1.41,0.19,2.84,0.3,4.23,0.6c6.09,1.34,10.95-0.45,14.92-5.29c7.91-9.66,3.48-26.8-5.51-32.53
			c-0.39-0.41-0.71-0.95-1.18-1.2c-8.82-4.58-17.83-0.69-22.02,10.61c0.07,0.23-0.18,3.68-0.1,3.91c0.49-0.57,19.89,7.99,20.16,7.33
			c2.2-5.52,2.72-15.85-5.16-20.1"/>
		<path class="st73" d="M236.21,417.62c-1.41-2.02-2.81-4.05-4.25-6.09c-2.06,9.87,0.25,19.63,0.88,29.43
			c0.13-0.09,0.27-0.13,0.42-0.1c0,0,0,0.01,0,0.01c0.06,1.14,0.11,2.27,0.16,3.41c0,0.01-0.01,0.01-0.01,0.02
			c0.12,8.37,5.92,10.74,12.73,11.83c4.25,0.68,8.55,1.05,12.84,1.44c0.96,0.08,1.97-0.31,2.96-0.49c-0.33-1.04-0.41-2.26-1.02-3.1
			c-4.28-5.89-8.8-11.61-12.99-17.57c-4.02-5.73-7.74-11.67-11.6-17.51c0.04-0.38,0.08-0.77,0.12-1.14l-0.24-0.13"/>
		<path class="st12" d="M682.08,109.58c1.92,0.74,3.84,1.48,5.75,2.22c2.37,1.44,4.74,2.88,7.11,4.32c-4.05-1.7-8.09-3.4-12.14-5.1
			C682.56,110.54,682.32,110.06,682.08,109.58z"/>
		<path class="st52" d="M701.54,69.11c-0.22-0.92-0.45-1.84-0.67-2.76c3.2-1.61,6.39-3.22,10.33-5.19c-0.96,3.27-1.66,6.6-2.95,9.69
			C707.63,72.29,703.22,71.06,701.54,69.11z"/>
		<path class="st74" d="M698.82,78.85c1.75,0.76,4.73,1.24,4.98,2.33c0.51,2.28-0.42,4.89-0.85,8.01c-3.17-1.43-5.52-2.48-7.86-3.54
			c0.15-0.4,0.29-0.8,0.44-1.19c1.26,0.39,2.52,1.02,3.8,1.1c0.88,0.06,1.8-0.64,2.71-1c-0.55-0.8-1.01-1.7-1.68-2.38
			c-0.7-0.72-1.6-1.24-2.42-1.85C698.23,79.84,698.53,79.34,698.82,78.85z"/>
		<path class="st56" d="M289.27,394.19c-0.45-0.94-2.21-1.7-3.4-1.77c-4.6-0.27-9.25-0.01-13.84-0.4c-2.38-0.2-3.54,0.37-4.29,2.58
			c-1.06,3.15-2.49,6.18-3.46,9.36c-0.3,1.01-0.03,2.8,0.68,3.4c3.52,2.98,7.52,5.09,10.25,5.19
			C286.38,412.6,293.17,402.36,289.27,394.19z"/>
		<g>
			<path class="st56" d="M291.45,370.99c-8.33,1.42-16.69,2.72-25.03,4.12c-2.74,0.46-3.52,2.2-1.87,4.33
				c1.95,2.53,4.33,4.73,6.52,7.07c11.4,3.92,18.15,0.78,22.29-10.36c0.33-0.88,0.79-1.71,1.19-2.57
				C294.64,371.37,293.65,370.62,291.45,370.99z"/>
			<path class="st56" d="M254.88,378.01c-3.11,0.3-6.39,0.93-7.51,4.54c-1.53,4.92-2.94,9.89-4.21,14.89
				c-0.24,0.94,0.07,2.57,0.74,3.12c2.86,2.32,6.17,3.94,9.96,2.96c3.5-0.9,5.11-3.83,6.08-7.03c0.48-1.59,0.51-3.31,0.84-5.6
				c-0.58-2.49-1.18-5.54-2.05-8.51C258.16,380.39,257.82,377.72,254.88,378.01z"/>
		</g>
	</g>
	<path class="st65" d="M570.66,87.07l13.95,3.9c0,0,34.66,8.02,34.66,8.53s0.54,4.59,0,4.82c-0.54,0.23-17.49-1.75-17.86-1.76
		c-0.37-0.01-31.79-9.7-31.79-9.7L570.66,87.07z"/>
	<path class="st65" d="M662.59,100.27l4.61,1.47l19.21,9.51l7.8,3.61l-3.61-4.09l-24.2-11.31l2.25-6.68l0.32-2.15l-18.31,15.7
		c0,0-6,7-6,7.39c0,0.38,7.92,7.21,7.92,7.21s23.79,7.34,24.09,7.34c0.31,0,1.11-1.54,1.11-1.54l-25.74-12.41l-0.37-1.43l-0.24-2
		l10.17-12.17L662.59,100.27z"/>
	<path class="st19" d="M679.19,84.75l-2.9-1.75l6.51-6.54l16.71-13.76c0,0-4.22,10.45-4.57,10.53c-0.35,0.08-4.53,1.66-4.53,1.66
		l-10.81,8.65l-1.18-1.75L679.19,84.75z"/>
	<polygon class="st19" points="686.12,85.13 700.46,90.48 695.66,93.4 685.83,89.68 	"/>
</g>
<g id="Layer_2">
	<g>
		<path class="st18" d="M581.8,480.39c0.73-0.37,1.51-0.65,2.17-1.1c11.92-8.3,22.68-17.9,32.35-28.73
			c4.85-5.43,9.69-10.88,14.53-16.33c-0.21-0.47-0.41-0.95-0.62-1.42c-1.77,1.94-3.5,3.93-5.33,5.81
			c-8.76,9.01-17.37,18.19-26.41,26.91c-5.21,5.03-11.16,9.3-16.77,13.92C581.75,479.76,581.77,480.08,581.8,480.39z"/>
		<path class="st18" d="M835.37,810.43c-0.49-0.54-28.34-33.59-28.34-33.59l-17.9-31.99l-7.21-19.23l-26.75-84.17
			c0,0-46.16-145.43-46.16-146.25c0-0.82-30.48-97.43-30.48-97.43l-2.03-0.47c-1.4-4.29-2.8-8.58-4.21-12.87
			c-0.26-0.79-0.73-1.5-0.79-1.61c-13.47,17.04-27.06,34.23-40.64,51.41c-4.84,5.44-9.68,10.89-14.53,16.33
			c-9.67,10.83-20.43,20.44-32.35,28.73c-0.66,0.46-1.44,0.74-2.17,1.11c-6.28,3.34-12.3,7.31-18.88,9.89
			c-12.68,4.97-25.81,8.49-39.49,9.65c-5.81,0.49-11.56,1.54-17.37,2c-2.7,0.21-5.45-0.36-8.18-0.62
			c-4.98-0.47-9.96-0.96-14.93-1.44c0.62,0.5,1.25,0.99,1.87,1.49c-0.13,0.24-0.25,0.48-0.37,0.72c-3.48-0.76-6.97-1.53-10.46-2.29
			c0.06-0.45,0.13-0.89,0.2-1.33c1.45,0.26,2.9,0.61,4.36,0.77c0.97,0.1,1.96-0.05,2.95-0.09c0.23-0.37,0.46-1.07,0.68-1.07
			c1.72,0.03,3.44,0.18,5.16,0.3c-5.49-1.71-5.52-1.77-2.86-4.96c-0.59,0.06-1.17,0.11-2.63,0.25c4.87-3.52,9.21-6.47,13.35-9.69
			c13.01-10.13,26.1-20.17,38.83-30.64c7.11-5.85,13.55-12.51,20.34-18.75c10.3-9.46,17.17-21.4,24.01-33.34
			c1.77-3.1,3.23-6.39,4.83-9.59c-1.85,0.51-3.7,1.01-5.55,1.51c-3.64,0.95-7.29,1.91-10.93,2.86c-3.83,1.06-4.93,3.52-4.65,7.44
			c0.41,5.85,0.17,11.74,0.21,17.62c-2.94,2.95-5.88,5.9-8.83,8.83c-5.37,5.33-11.44,6.96-18.6,3.78c-2.83-1.26-3.58,0.05-2.84,2.79
			c0.57,2.13,1.43,4.32,1.33,6.45c-0.1,2.05-0.86,4.39-2.13,5.94c-0.7,0.87-3.16,0.82-4.63,0.43c-3.11-0.82-6.08-2.14-9.11-3.26
			c-2.44-0.42-2.88,0.84-2.58,2.92c0.52,3.67,0.98,7.34,1.38,11.02c0.11,0.98-0.11,2-0.18,3c-2.92,2.92-5.85,5.83-8.77,8.75
			c-1.12,2.15-2.78,2.18-4.83,1.42c-4.6-1.7-9.25-3.27-13.86-4.93c-2.56-0.93-3.57,0.02-3.48,2.63c0.16,4.42,0.28,8.85,0.34,13.28
			c0.01,1.14-0.25,2.27-0.39,3.41c-1.44,1.29-2.77,2.73-4.34,3.84c-2.19,1.55-4.56,2.85-6.85,4.26c-0.88,0.8-1.75,1.6-3.27,3
			c1.94,0.98,3.35,2,4.91,2.43c12.86,3.55,26.07,4.29,39.24,3.4c12.99-0.88,25.91-2.9,38.86-4.4c0.94-0.11,1.89-0.09,2.84-0.13
			c8.69-1.7,16.44-5.7,23.77-10.4c7.72-4.95,15.35-10.1,22.59-15.72c9.04-7.01,17.92-14.26,26.32-22.01
			c7.54-6.96,14.46-14.6,21.4-22.18c5.79-6.33,11.2-13.01,16.82-19.5c0.49-0.58,1.27-0.91,2.42-1.7c0.92,2.94,1.83,5.72,2.69,8.45
			c4.54,16.27,9.97,35.74,10.13,36.33c0.01,0.03,0.05,0.18,0.12,0.4c1.92,7,3.84,13.99,5.78,20.98c3.81,13.67,7.77,27.3,11.6,40.97
			c2.91,10.41,5.73,20.86,8.59,31.29c1.47,5.26,2.94,10.52,4.41,15.78c0.45,1.68,0.89,3.37,1.36,5.04
			c3.87,13.65,7.8,27.28,11.6,40.95c3.95,14.23,7.75,28.51,11.69,42.74c4.85,17.53,9.75,35.05,14.65,52.57l0,0l0,0
			c0.86,3.07,1.71,6.14,2.57,9.21c1.37,4.91,2.8,9.8,4.21,14.7c1.34,4.12,2.67,8.24,4.01,12.36c0.02-0.11,0.04-0.22,0.06-0.33
			l1.84,6.1l16.78,23.72c0,0,37.67,49.54,38.44,50.39S835.86,810.97,835.37,810.43z"/>
	</g>
	<path class="st18" d="M696.27,451.94"/>
	<path class="st18" d="M753.86,160.89l42.68-21.84l4.8-22.93l8.94-38.15l-9.16,9.24c0,0-8.03,44.18-8.03,44.87
		c0,0.69-41.38,25.85-41.38,25.85l0.8,2.96H753.86z"/>
</g>
</svg>
