<svg xmlns="http://www.w3.org/2000/svg" xmlns:xlink="http://www.w3.org/1999/xlink" version="1.1" width="1000" height="1000" viewBox="0 0 1000 1000" xml:space="preserve">
<desc>Created with Fabric.js 3.5.0</desc>
<defs>
</defs>
<rect x="0" y="0" width="100%" height="100%" fill="#ffffff"/>
<g transform="matrix(-0.5208 0 0 0.5208 499.968 499.982)" id="719621">
<g style="" vector-effect="non-scaling-stroke">
		<g transform="matrix(1 0 0 1 -209.8345 -4.6451)" id="Layer_2">
<path style="stroke: none; stroke-width: 1; stroke-dasharray: none; stroke-linecap: butt; stroke-dashoffset: 0; stroke-linejoin: miter; stroke-miterlimit: 4; is-custom-font: none; font-file-url: none; fill: rgb(222,90,88); fill-rule: nonzero; opacity: 1;" transform=" translate(-750.1655, -535.3549)" d="M 606.31 340.24 c 0 0 2 4.07 4.61 0 s 4.18 -24.23 4.18 -24.23 s 44.1 44.08 47.36 45.27 s 50.51 53.24 50.51 53.24 s 5.17 -9.15 6.74 -9.76 c 0 0 12.99 -1.7 11.73 -4.03 s 14.83 -124.97 14.83 -124.97 l 65.5 111.06 l 18.83 6.47 c 0 0 8.37 -21.17 8.37 -24.24 s 13.36 -101.93 13.36 -101.93 l 74.54 126.17 c 0 0 88.36 10.34 90.46 12.96 c 2.09 2.62 6.8 25.11 6.8 25.11 l -13.08 85.4 l -8.37 128.43 c 0 0 31.45 105.74 35.15 113.3 c 3.7 7.56 44.15 56.79 44.52 57.84 c 0.36 1.05 118.92 25.63 118.92 25.63 s 13.25 66.35 13.78 70.57 c 0.52 4.22 -4.05 94.71 -5.95 96.8 s -23.89 6.02 -28.06 3.53 c -4.17 -2.49 -79.25 -28.64 -79.25 -28.64 l -48.27 -31.49 l -32.53 4.01 H 960 l -25.84 -11.27 c 0 0 -70.87 -54.88 -72.31 -60.11 c -1.44 -5.23 -86.17 -103.56 -86.17 -103.56 l -79.5 -112.45 l -59.22 -37.66 L 285.75 383.71 l -0.51 -326.66 l 96.52 83.99 L 607.22 335.8 L 606.31 340.24 z" stroke-linecap="round"/>
</g>
		<g transform="matrix(1 0 0 1 -213.73 12.025)" id="Layer_1">
<path style="stroke: none; stroke-width: 1; stroke-dasharray: none; stroke-linecap: butt; stroke-dashoffset: 0; stroke-linejoin: miter; stroke-miterlimit: 4; is-custom-font: none; font-file-url: none; fill: rgb(222,90,88); fill-rule: nonzero; opacity: 1;" transform=" translate(-746.27, -552.025)" d="M 294.68 105.74 c 0.56 0.44 1.13 0.88 1.69 1.33 c 3.44 2.85 6.89 5.7 10.33 8.55 c 0.59 0.47 1.19 0.94 1.78 1.4 c 2.73 2.23 5.47 4.46 8.2 6.7 c 0.58 0.44 1.17 0.88 1.75 1.32 c 2.75 2.24 5.5 4.47 8.25 6.71 c 0.57 0.43 1.14 0.87 1.72 1.3 c 2.76 2.21 5.53 4.43 8.29 6.64 c 0.59 0.45 1.17 0.89 1.76 1.34 c 5.41 4.1 10.81 8.2 16.22 12.3 l -0.17 -0.13 c 3.42 2.67 6.84 5.34 10.25 8.01 l -0.16 -0.12 c 2.7 2.21 5.4 4.43 8.09 6.64 c 0.59 0.43 1.17 0.86 1.76 1.29 c 2.77 2.07 5.53 4.14 8.3 6.21 c 0 0 -0.17 -0.12 -0.17 -0.13 c 2.71 2.22 5.41 4.45 8.11 6.68 c 0.58 0.41 1.15 0.83 1.73 1.24 c 2.77 2.07 5.54 4.15 8.31 6.22 l -0.17 -0.13 c 3.4 2.69 6.81 5.38 10.21 8.06 l -0.16 -0.12 c 2.7 2.23 5.39 4.45 8.08 6.68 c 0.57 0.43 1.14 0.85 1.72 1.28 c 2.76 2.24 5.52 4.48 8.28 6.72 c 0.55 0.43 1.11 0.86 1.66 1.29 c 2.78 2.26 5.56 4.52 8.34 6.79 c 0.54 0.41 1.08 0.82 1.62 1.22 c 4.15 3.34 8.3 6.68 12.45 10.02 l -0.08 -0.08 c 2.67 2.26 5.34 4.52 8.01 6.78 c 0.54 0.42 1.08 0.85 1.62 1.27 c 3.46 2.88 6.93 5.76 10.39 8.64 c 0.56 0.44 1.12 0.89 1.69 1.33 c 3.44 2.86 6.88 5.72 10.33 8.57 c 0.59 0.46 1.19 0.92 1.78 1.39 c 2.72 2.11 5.45 4.23 8.17 6.34 c 0 0 -0.17 -0.12 -0.17 -0.13 c 4.07 3.52 8.14 7.05 12.2 10.58 c 1.27 1.07 2.54 2.13 3.81 3.2 c 2.73 2.28 5.46 4.55 8.2 6.83 c 1.27 1.06 2.53 2.11 3.8 3.17 c 2.73 2.28 5.47 4.56 8.2 6.84 c 0.52 0.41 1.04 0.83 1.56 1.24 c 4.15 3.54 8.3 7.08 12.44 10.61 c 1.28 1.1 2.55 2.19 3.83 3.29 c 4.07 3.37 8.15 6.74 12.22 10.12 l -0.08 -0.09 c 3.35 2.9 6.69 5.8 10.04 8.7 c 0.54 0.45 1.08 0.89 1.62 1.34 c 4.11 3.52 8.23 7.04 12.34 10.55 c 0.58 0.47 1.15 0.95 1.73 1.42 c 3.44 2.75 6.87 5.51 10.31 8.26 c 0 0 -0.18 -0.12 -0.17 -0.12 c 3.26 2.68 6.52 5.37 9.78 8.06 c -0.54 12.13 -1.18 24.25 -1.58 36.39 c -0.53 15.9 -0.44 15.9 14.7 21.32 c 0.3 0.11 0.65 0.1 0.97 0.15 c 16.79 8.85 34.01 16.69 51.82 23.16 c -4.5 -6.05 -31.71 -20.32 -47.2 -25.57 c -2.42 -1.53 -4.83 -3.07 -7.28 -4.62 c 1.12 -24.77 2.23 -49.1 3.33 -73.44 c 3.23 2.87 6.46 5.74 9.7 8.61 c 0.02 10.18 -0.09 20.36 0.13 30.54 c 0.07 3.12 1.03 6.22 1.59 9.33 c 17.25 10.5 34.48 21.06 51.83 31.4 c 1.39 0.83 3.7 0.11 8.14 0.11 c -19.27 -14.26 -38.85 -23.32 -57.14 -34.46 c 0.12 -10.18 0.24 -20.37 0.37 -30.55 c 21.52 21.02 42.99 42.09 64.63 62.98 c 2.51 2.42 6.36 5.89 8.9 5.39 c 7.43 -1.47 14.52 -4.68 21.71 -7.32 c 0.35 -0.13 0.35 -1.22 0.51 -1.86 c 1.12 -0.6 2.17 -1.49 3.36 -1.77 c 31.11 -7.33 62.78 -10.87 94.62 -11.88 c 23.87 -0.75 47.79 0.3 71.69 0.55 c 1.88 3.42 4.52 4.92 8.66 5.48 c 22.07 2.97 44.12 6.21 66.1 9.81 c 9.69 1.59 19.2 4.24 28.44 6.33 c 0.13 2.5 0.34 3.52 0.2 4.48 c -4.86 34.97 -6.85 70.14 -8.02 105.42 c -0.88 26.58 -3.09 53.13 -4.87 79.68 c -1.47 21.94 -1.74 43.26 7.55 64.4 c 19.02 43.27 37.85 86.57 60.66 128.02 c 4.01 7.29 8.1 14.53 12.04 21.85 c 1.89 3.51 4.52 4.9 8.61 5.57 c 26.88 4.43 53.7 9.26 80.52 14.1 c 1.4 0.25 2.58 1.68 3.86 2.57 l 0.12 0.36 c -4.11 5.59 -8.22 11.18 -12.33 16.77 c -7.26 1.27 -14.5 3.66 -21.81 0.27 c -2.24 -1.15 -4.49 -2.3 -6.73 -3.44 c -0.37 0.58 -0.74 1.17 -1.11 1.75 c 1.19 1.28 2.38 2.55 3.57 3.83 c 4.29 2.4 8.59 4.81 11.48 6.43 c 2.45 6.58 4.57 12.28 6.69 17.98 c 3.09 5.19 8.01 6.73 13.35 5.28 c 4.51 -1.22 8.65 -3.81 12.95 -5.8 c 5.48 -4.48 10.88 -9.02 18.71 -8.46 c 1.03 0.07 2.16 -1.24 3.25 -1.91 c 1.46 1.4 4 2.66 4.18 4.21 c 0.94 7.96 1.27 15.98 1.81 23.98 c -1.99 2.11 -4.36 3.98 -5.92 6.38 c -7.41 11.35 -14.63 22.82 -21.87 34.29 c -1.52 2.41 -2.82 4.95 -5.38 9.47 c 6.69 -0.73 11.43 -1.05 16.1 -1.8 c 11.84 -1.9 14.01 -4.15 14.91 -15.77 c 0.85 -10.87 1.39 -21.75 2.07 -32.63 c 0.78 1.82 1.56 3.63 2.34 5.45 c 0.47 4.19 0.94 8.39 1.4 12.58 c 0.8 4.06 1.61 8.13 2.41 12.19 c -0.21 0.47 -0.27 0.96 -0.16 1.46 c 0.63 4.84 1.26 9.67 1.88 14.51 c 0.2 2.68 0.39 5.35 0.59 8.03 c -0.87 14.86 -2.34 29.62 -6.87 43.68 c -1.91 0.19 -2.89 0.41 -3.85 0.35 c -1.66 -0.09 -3.35 -0.19 -4.96 -0.56 c -38.81 -8.89 -76.19 -21.48 -110.6 -42.05 c -38 -22.71 -71.62 -50.92 -102.96 -81.88 c -44.97 -44.43 -83.39 -94.16 -117.15 -147.53 c -22.12 -34.96 -40.78 -71.75 -58.14 -109.24 c -1.69 -3.65 -3.97 -7.03 -6.02 -10.61 c -4.56 3.05 -3.54 5.85 -2.34 8.74 c 3.71 8.9 6.91 18.06 11.14 26.7 c 19.77 40.4 41.65 79.51 66.64 117.06 c 41.68 62.63 91.01 118.01 149.39 165.41 c 7.06 5.73 13.99 11.62 20.97 17.44 c -0.24 0.76 -0.49 1.53 -0.73 2.29 c -24.13 0.38 -48.27 0.97 -72.4 1.08 c -15.75 0.07 -28.94 -6.47 -40.28 -17.16 c -2.41 -2.28 -5.27 -4.07 -7.79 -6.24 c -44.58 -38.31 -84.8 -80.9 -122.57 -125.8 c -33.5 -39.82 -62.44 -82.99 -90.8 -126.52 c -3.99 -6.12 -9.07 -10.35 -14.78 -14.42 c -39.31 -28 -78.54 -56.11 -117.8 -84.19 c 1.03 -6.65 -0.79 -12.2 -6.34 -16.27 c -4.83 -3.54 -9.65 -7.11 -14.57 -10.53 c -57.43 -39.87 -114.88 -79.71 -172.35 -119.51 c -1.54 -1.07 -3.5 -1.54 -5.26 -2.3 c -29.41 -22.13 -58.82 -44.26 -88.21 -66.42 c -1.3 -0.98 -2.39 -2.25 -3.57 -3.39 c 0 -86.12 0 -172.23 0 -259.6 C 289.31 102.1 291.99 103.92 294.68 105.74 z M 424.99 409.91 c 5.53 1.9 9.7 0.65 11.92 -5.13 c 1.88 -0.13 3.76 -0.26 5.65 -0.4 c -0.65 0.65 -1.29 1.29 -1.94 1.94 c 4.63 3.55 9.26 7.1 13.88 10.65 c 0.54 2.39 1.03 4.79 1.62 7.16 c 1.25 5.05 1.56 10.64 4.05 14.99 c 4.29 7.53 15.12 11.61 22.04 2.91 c -17.88 -6.1 -21.39 -9.98 -20.69 -22.89 c 5.71 0.55 10.24 -1.12 13.26 -6.88 c -1.42 -0.42 -2.42 -1.1 -3.11 -0.86 c -8.45 2.95 -14.72 0 -19.69 -6.91 c -0.96 -1.33 -2.14 -2.51 -3.21 -3.76 c -0.02 -4.64 -0.03 -9.27 -0.05 -13.91 c 1.93 -1.64 3.87 -3.27 5.8 -4.91 c -0.25 -0.46 -0.5 -0.92 -0.75 -1.38 c -3.63 0.8 -7.27 1.6 -10.9 2.4 c -5.18 -0.87 -10.36 -1.74 -15.54 -2.61 c -0.33 0.62 -0.65 1.23 -0.98 1.85 c 2.12 1.63 4.24 3.26 6.36 4.89 c 2.97 1.01 5.94 2.02 9.64 3.28 c -1.82 4.8 -3.64 9.6 -5.46 14.41 c -1.36 0.12 -2.72 0.25 -4.08 0.37 c -4.32 0 -8.64 0 -12.96 0 c -0.1 0.69 -0.2 1.38 -0.31 2.08 C 421.37 408.11 423.18 409.01 424.99 409.91 z M 646.75 518.84 c 0.27 -3.28 -3.51 -6.78 0.52 -9.87 c 11.15 -2.08 15.22 -4.74 17.45 -12.36 c -8.8 4.45 -17.79 5.21 -26.33 3.34 c -9.55 -2.1 -12.99 -11.62 -18.23 -18.91 c -2.63 14.1 4.36 22.71 16.12 28.19 c -0.58 2.17 -1 3.76 -1.42 5.35 c -8.87 5.53 -18.29 7.36 -28.45 4.24 c -3.34 -4.59 -6.68 -9.17 -10.46 -14.37 c -2.62 7.82 -1.28 13.79 4.84 18.54 c 12.31 7.43 24.32 5.36 36.18 -6.25 c 0.71 -0.53 1.43 -1.07 2.14 -1.6 c 1.94 3.19 3.89 6.38 5.83 9.57 c 1.34 1.29 2.67 2.57 4.01 3.86 c 10.05 4.6 13.57 3.67 18.24 -4.05 c -4.94 0 -10.4 0 -15.87 0 C 649.79 522.64 648.27 520.74 646.75 518.84 z M 1110.61 892.73 c -2.33 -3 -4.66 -5.99 -7.17 -9.22 c -2.93 8.58 -2.43 9.97 5.21 15.75 c 7.28 2.85 14.16 3.51 20.71 -3.53 C 1122.44 894.62 1116.53 893.67 1110.61 892.73 z M 472.83 361.11 c -5.97 -0.09 -11.93 -0.18 -17.9 -0.27 c -4.18 -4.66 -8.36 -9.33 -12.7 -14.18 c -3.53 6.35 0.47 11.11 3.17 14.95 c 2.94 4.17 8.14 6.73 13.03 10.52 c -0.24 0.95 -0.79 3.09 -1.33 5.22 c 5 1.45 5 1.45 9.62 8 c 9.66 10.74 19.01 10.74 28.09 -0.87 c -4.54 0.44 -8.32 0.81 -12.58 1.23 c -3.97 -2.69 -8.57 -5.81 -13.16 -8.92 c -0.52 -2.42 -1.03 -4.84 -1.41 -6.61 c 4.94 -3.42 9.2 -6.36 13.47 -9.31 c 2.2 -1.39 4.39 -2.78 6.56 -4.15 c 12.53 16.09 24.46 17.23 31.98 3.33 c -16.68 2.27 -22.56 -1.08 -27.62 -15.24 c -4.31 4.4 -8.81 8.98 -13.31 13.57 C 476.76 359.31 474.79 360.21 472.83 361.11 z M 937.12 563.45 c 8.37 8.22 12.97 9.37 22.56 3.83 c 5.54 -3.2 10.21 -7.89 15.27 -11.91 c 1.96 -2.23 3.93 -4.46 5.89 -6.69 c 9.21 -13.04 11.35 -27.53 7.8 -42.73 c -4.62 -19.76 -22.54 -26.51 -39.21 -15.06 c -10.97 7.53 -17.24 18.39 -20.42 30.98 c -3.07 12.17 -3.62 24.31 3.66 35.52 C 934.15 559.4 935.63 561.42 937.12 563.45 z M 845.19 562.71 c 9.2 8.4 18.28 8.61 28.01 1 c 6.98 -5.47 10.79 -12.95 14.08 -20.84 c 9.35 -12.18 9.52 -25.92 5.73 -39.77 c -6.28 -22.92 -29.01 -29.79 -46.77 -14.03 c -13.54 12.01 -19.35 27.59 -17.55 45.74 C 829.86 546.6 834.05 556.74 845.19 562.71 z M 1111.17 936.98 c -3.36 -9.67 -6.8 -17.84 -8.99 -26.33 c -2.71 -10.47 -8.78 -17.21 -18.55 -21.59 c -9.88 -4.44 -19.36 -9.76 -29.97 -15.19 c 0 2.77 -0.33 4.13 0.05 5.25 c 3.51 10.37 6.92 20.78 10.9 30.97 c 1.1 2.83 3.54 5.77 6.16 7.26 c 10.95 6.24 22.17 12 33.37 17.81 C 1105.73 935.98 1107.69 936.1 1111.17 936.98 z" stroke-linecap="round"/>
</g>
		<g transform="matrix(1 0 0 1 -206.0717 105.185)" id="Layer_1">
<path style="stroke: none; stroke-width: 1; stroke-dasharray: none; stroke-linecap: butt; stroke-dashoffset: 0; stroke-linejoin: miter; stroke-miterlimit: 4; is-custom-font: none; font-file-url: none; fill: rgb(37,59,128); fill-rule: nonzero; opacity: 1;" transform=" translate(-753.9283, -645.185)" d="M 901.11 397.64 c -23.9 -0.25 -47.82 -1.3 -71.69 -0.55 c -31.85 1 -63.51 4.55 -94.62 11.88 c -1.19 0.28 -2.24 1.16 -3.37 1.76 c -4.71 0.89 -9.64 1.17 -14.06 2.84 c -5.11 1.93 -8.75 0.94 -12.23 -2.9 c -6.68 -7.35 -13.48 -14.59 -20.23 -21.88 c 0.03 -2.09 0.07 -4.18 0.1 -6.27 c 7.4 6.97 14.81 13.94 22.57 21.24 c 5.83 -1.76 11.83 -3.57 18.48 -5.58 c 6.14 -43.66 12.28 -87.36 18.43 -131.06 c 0.63 -0.16 1.26 -0.32 1.88 -0.48 c 22.49 39.08 44.97 78.16 67.6 117.47 c 5.71 -0.5 10.92 -0.95 17.02 -1.48 c 5.84 -41.58 11.66 -82.98 17.79 -126.56 c 2.61 3.87 4.27 6.02 5.6 8.35 c 14.17 24.85 28.2 49.79 42.47 74.59 c 7.83 13.6 16.2 26.9 23.98 40.52 c 3.3 5.78 8.19 5.95 13.67 5.43 c 4.82 0.6 9.63 1.2 14.45 1.81 c 0.47 0.54 1 0.6 1.59 0.18 c 4.77 0.66 9.55 1.32 14.32 1.99 l -0.01 -0.04 c 3.95 0.85 7.91 1.7 11.86 2.54 c 17.88 3.85 35.77 7.7 53.65 11.56 c 0.87 1.98 2.25 3.89 2.51 5.94 c 0.4 3.23 0.05 6.55 0.02 9.83 c -0.5 0.45 -0.54 0.94 -0.1 1.45 c -0.62 5.51 -1.24 11.02 -1.86 16.53 c -0.49 0.48 -0.53 0.99 -0.12 1.54 c -0.63 4.82 -1.25 9.64 -1.88 14.46 c -0.06 1.08 -0.13 2.15 -0.19 3.23 c -0.64 4.93 -1.28 9.86 -1.92 14.79 l -0.41 0.62 l 0.35 0.66 c -0.62 6.23 -1.24 12.46 -1.86 18.69 c -0.52 0.44 -0.56 0.91 -0.12 1.43 c -0.7 6.16 -1.39 12.33 -2.09 18.49 l 0.1 -0.16 c -0.66 5.42 -1.32 10.84 -1.98 16.25 l -0.42 0.5 c 0 0 0.35 0.55 0.35 0.56 c -0.68 5.62 -1.36 11.23 -2.04 16.84 l 0.1 -0.16 c -0.66 5.42 -1.32 10.83 -1.98 16.24 l -0.42 0.51 c 0 0 0.34 0.57 0.34 0.58 c -0.65 5.61 -1.31 11.22 -1.96 16.83 l 0.06 -0.13 c -0.66 5.4 -1.31 10.79 -1.97 16.19 l -0.44 0.58 l 0.31 0.66 c -0.65 5.59 -1.3 11.19 -1.95 16.78 l -0.4 0.49 l 0.35 0.53 c -0.58 4.98 -1.17 9.96 -1.75 14.93 c -0.08 1.04 -0.16 2.07 -0.25 3.11 c -1.91 9.92 -4.92 19.92 2.09 29.19 c 2.37 5.31 4.74 10.62 7.11 15.93 c 2.3 4.67 4.61 9.33 6.91 14 c 3.04 6.66 6.07 13.33 9.11 19.99 c 2.96 6.02 5.91 12.04 8.87 18.07 c 2.39 5.31 4.78 10.61 7.17 15.92 c 2.94 6.03 5.88 12.05 8.82 18.08 c 2.38 5.3 4.76 10.6 7.15 15.91 c 2.3 4.66 4.59 9.32 6.89 13.99 c 2.06 5 3.79 10.17 6.26 14.96 c 2.34 4.55 6.73 5.63 11.61 4.93 c 4.08 0.63 8.15 1.27 12.23 1.9 c 0.4 0.54 0.86 0.6 1.39 0.19 c 4.13 0.79 8.26 1.58 12.38 2.37 c 11.09 2.4 22.21 4.68 33.27 7.23 c 14 3.23 27.95 6.71 41.94 10 c 1.58 0.37 3.29 0.18 4.93 0.25 c 4.39 1.42 7.7 4.12 9.83 8.24 l -0.12 -0.19 c 1.42 4.07 2.84 8.13 4.26 12.2 c 0.43 1.96 0.86 3.92 1.29 5.88 c 2.19 8.04 4.37 16.07 6.56 24.11 l -0.16 -0.22 c 0.75 4.05 1.5 8.09 2.24 12.14 l -0.12 -0.19 c 0.71 5.64 1.41 11.27 2.11 16.91 l -0.38 0.45 l 0.32 0.5 c 0.02 14.7 0.04 29.4 0.06 44.1 l -0.39 0.54 c 0 0 0.39 0.54 0.39 0.55 c -0.7 5.6 -1.4 11.19 -2.1 16.79 l 0.12 -0.18 c -1.54 6.68 -3.08 13.35 -4.62 20.03 c -1.79 6.37 -3.58 12.75 -5.37 19.12 c -7.84 -0.6 -29.76 -2.62 -29.76 -2.62 l -15.19 21.44 l -6.67 -27.61 c 0 0 -25.58 -8.42 -38.02 -13.76 c -3.19 -1.37 -10.23 -2.54 -10.23 -2.54 l -19.77 15.84 c 0 0 -0.42 -26.43 -1.58 -27.12 c -7.35 -4.33 -8.9 -7.04 -16.35 -11.19 c -3.76 -2.71 -7.3 -5.85 -11.37 -7.98 c -2.66 -1.39 -6.2 -2.14 -9.15 -1.74 c -32.51 4.44 -65.03 6.39 -97.55 0.59 c -6.04 -1.08 -12.13 -3.45 -17.46 -6.51 c -7.17 -4.1 -13.62 -9.45 -20.39 -14.26 l 0.1 0.07 c -4.83 -3.86 -9.66 -7.73 -14.49 -11.6 c -0.67 -0.64 -1.35 -1.27 -2.02 -1.91 c -6 -5.38 -11.99 -10.75 -17.99 -16.13 c -1.33 -1.29 -2.67 -2.58 -4 -3.87 c -9.99 -10 -19.99 -20 -29.98 -30 c -1.91 -1.98 -3.82 -3.96 -5.72 -5.94 c -5.43 -5.99 -10.85 -11.99 -16.28 -17.98 c -1.24 -1.34 -2.48 -2.67 -3.72 -4.01 c -3.43 -4.01 -6.85 -8.02 -10.28 -12.02 c -0.62 -0.67 -1.24 -1.33 -1.86 -2 c -3.38 -4.03 -6.76 -8.07 -10.14 -12.1 c -0.57 -0.62 -1.13 -1.25 -1.7 -1.87 c -2.65 -3.48 -5.29 -6.96 -7.94 -10.44 l 0.1 0.13 c -2.82 -3.26 -5.64 -6.53 -8.46 -9.79 c -0.57 -0.63 -1.13 -1.26 -1.7 -1.89 c -1.98 -2.82 -3.96 -5.63 -5.94 -8.45 c 0 0 0.11 0.13 0.1 0.13 c -2.07 -2.68 -4.13 -5.37 -6.19 -8.05 l 0.09 0.12 c -2.04 -2.7 -4.07 -5.4 -6.11 -8.1 l 0.09 0.12 c -2.03 -2.71 -4.05 -5.42 -6.07 -8.14 l 0.1 0.12 c -2.13 -2.62 -4.25 -5.23 -6.37 -7.85 c -1.36 -1.99 -2.73 -3.98 -4.09 -5.96 c -1.97 -2.69 -3.94 -5.38 -5.91 -8.06 c -5.35 -7.97 -10.7 -15.95 -16.06 -23.92 c -3.18 -4.81 -6.35 -9.63 -9.53 -14.44 l 0.12 0.14 c -2.85 -3.83 -5.69 -7.66 -8.54 -11.5 c -5.93 -12.72 -16.56 -20.8 -27.89 -28.18 c -2.7 -1.93 -5.39 -3.87 -8.09 -5.8 c -8.64 -6.06 -17.28 -12.13 -25.92 -18.19 c -2.7 -1.93 -5.39 -3.87 -8.09 -5.8 c -8.64 -6.06 -17.28 -12.13 -25.91 -18.19 c -2.7 -1.93 -5.39 -3.87 -8.09 -5.8 c -8.64 -6.06 -17.27 -12.13 -25.91 -18.19 c -2.7 -1.93 -5.4 -3.87 -8.09 -5.8 c -8.64 -6.06 -17.27 -12.13 -25.91 -18.19 c -2.7 -1.94 -5.39 -3.87 -8.09 -5.81 c -2.01 -1.4 -4.01 -2.8 -6.02 -4.19 c -2.61 -2.07 -5.22 -4.13 -7.83 -6.2 l -0.04 -0.03 c -0.65 -0.71 -1.21 -1.57 -1.98 -2.12 c -31.91 -22.57 -63.83 -45.12 -95.79 -67.61 c -1.26 -0.88 -2.91 -1.2 -4.39 -1.78 c -3.96 -2.75 -7.91 -5.49 -11.87 -8.24 c -2.7 -1.94 -5.4 -3.87 -8.1 -5.81 c -2.01 -1.4 -4.01 -2.79 -6.02 -4.19 c -1.27 -1.38 -2.34 -3.04 -3.84 -4.11 c -12.93 -9.24 -25.91 -18.41 -38.95 -27.5 c -1.52 -1.06 -3.46 -1.51 -5.21 -2.25 c -18.81 -13.38 -37.63 -26.75 -56.44 -40.13 c -4.61 -5.44 -3.27 -11.52 -2.78 -18.53 c 3.02 1.47 4.97 2.42 6.93 3.37 c 15.07 11.01 30.12 22.03 45.2 33.03 c 9.31 6.79 18.61 13.58 27.98 20.28 c 2.12 1.51 4.49 2.67 6.75 3.99 c 2.03 1.68 3.97 3.48 6.1 5.01 c 65.59 47.13 131.2 94.24 196.81 141.35 c 39.26 28.08 78.49 56.19 117.8 84.19 c 5.71 4.07 10.8 8.31 14.78 14.42 c 28.36 43.53 57.3 86.7 90.8 126.52 c 37.78 44.9 78 87.49 122.57 125.8 c 2.52 2.17 5.38 3.96 7.79 6.24 c 11.33 10.69 24.53 17.23 40.28 17.16 c 24.14 -0.11 48.27 -0.69 72.4 -1.08 c 0.24 -0.76 0.49 -1.53 0.73 -2.29 c -6.99 -5.82 -13.92 -11.71 -20.97 -17.44 c -58.38 -47.4 -107.72 -102.78 -149.39 -165.41 c -24.98 -37.54 -46.87 -76.66 -66.64 -117.06 c -4.23 -8.65 -7.43 -17.8 -11.14 -26.7 c -1.21 -2.89 -2.22 -5.69 2.34 -8.74 c 2.05 3.58 4.33 6.96 6.02 10.61 c 17.36 37.49 36.03 74.28 58.14 109.24 c 33.76 53.38 72.18 103.1 117.15 147.53 c 31.34 30.97 64.96 59.17 102.96 81.88 c 34.41 20.57 71.79 33.16 110.6 42.05 c 1.61 0.37 3.3 0.47 4.96 0.56 c 0.97 0.05 1.95 -0.17 3.85 -0.35 c 4.54 -14.06 6 -28.82 6.87 -43.68 c 0.56 -2.88 1.55 -5.75 1.59 -8.64 c 0.17 -10.32 0.13 -20.66 -0.1 -30.98 c -0.07 -2.88 -1.1 -5.75 -1.68 -8.62 c -3.5 -19.64 -6.99 -39.27 -10.52 -58.9 c -1.05 -5.82 -4.43 -9.23 -10.4 -10.45 c -6.19 -1.26 -12.2 -3.37 -18.38 -4.64 c -26.74 -5.48 -53.48 -10.96 -80.3 -16.05 c -7.83 -1.49 -12.9 -5.03 -16.29 -12.5 c -9.61 -21.22 -20.03 -42.07 -29.79 -63.23 c -13.66 -29.61 -26.91 -59.4 -40.56 -89.01 c -3.63 -7.88 -4.13 -15.87 -3.45 -24.32 c 3.42 -42.48 6.56 -84.98 9.93 -127.46 c 2.1 -26.56 4.5 -53.09 6.61 -79.65 c 0.38 -4.83 0.05 -9.72 0.05 -14.91 c -12.65 -2.15 -24.09 -4.26 -35.58 -6.01 c -11.19 -1.71 -22.4 -3.39 -33.66 -4.48 C 930.3 399.5 915.69 398.7 901.11 397.64 z M 860.98 309.21 c -3.48 0 -6.97 0 -11.02 0 c -1.01 9.01 -1.88 16.72 -2.91 25.88 c 11.81 -0.59 22.58 -1.12 33.36 -1.66 c 1.5 -0.37 3.01 -0.73 5.15 -1.26 c -3.33 -5.73 -6.73 -10.67 -9.2 -16.04 C 873.1 309.07 868.02 307.28 860.98 309.21 z M 756.63 317.17 c -4.23 -0.09 -9.75 -1.01 -10.93 4.05 c -1.74 7.45 -1.79 15.3 -2.71 24.54 c 12.1 -1.58 22.71 -2.97 33.32 -4.35 c 1.25 -0.34 2.51 -0.69 4.7 -1.29 c -5.05 -8.54 -9.82 -16.6 -14.5 -24.52 C 762.48 316.25 759.56 316.71 756.63 317.17 z M 894.96 382.54 c 6.38 0.29 12.76 0.58 20.59 0.93 c -3.07 -5.65 -5.23 -9.62 -7.79 -14.32 c -6.35 0.57 -12.54 1.12 -18.73 1.68 c -15.12 0.11 -30.24 0.21 -45.66 0.32 c -0.63 4.38 -1.08 7.5 -1.64 11.39 C 860.01 382.54 877.48 382.54 894.96 382.54 z M 795.3 386.34 c 3.82 -0.47 7.65 -0.94 11.78 -1.45 c -5.51 -11.33 -5.51 -11.33 -17.83 -9.57 c -16.41 1.35 -32.81 2.69 -49.77 4.09 c -0.87 5.99 -1.59 10.95 -2.34 16.12 C 757.41 392.32 776.35 389.33 795.3 386.34 z M 876.25 341.01 c -9.8 0.09 -19.6 0.18 -30.06 0.28 c -0.89 8.68 -1.64 16.05 -2.48 24.32 c 15.01 -0.52 29.13 -1.02 43.25 -1.51 c 5.31 -0.49 10.94 1.24 16.58 -1.98 c -4.51 -7.57 -8.7 -14.61 -13.03 -21.88 C 885.42 340.51 880.84 340.76 876.25 341.01 z M 773.93 347.71 c -8.53 1.06 -17.03 2.36 -25.59 3.08 c -4.94 0.42 -7.08 2.54 -7.22 7.41 c -0.15 5.2 -0.72 10.38 -1.19 16.67 c 17.25 -1.85 33.87 -3.64 50.48 -5.42 c 2.12 -0.4 4.25 -0.81 7.14 -1.36 c -2.7 -4.68 -5.43 -8.46 -7.18 -12.65 C 787.12 347.68 781.89 345.02 773.93 347.71 z M 763.51 310.12 c -4.63 -7.46 -8.82 -14.22 -13.01 -20.98 c -1.71 6.32 -1.88 11.88 -1.65 17.43 c 0.15 3.59 2.57 5.34 6.07 5.07 C 757.49 311.45 760.01 310.76 763.51 310.12 z M 854.6 280.42 c -0.71 0.14 -1.42 0.28 -2.13 0.42 c 0 3.94 -0.37 7.93 0.07 11.83 c 1.07 9.31 4.32 11.08 14.37 7.82 c -3.07 -5.19 -6.05 -10.3 -9.09 -15.36 C 856.84 283.5 855.68 281.98 854.6 280.42 z" stroke-linecap="round"/>
</g>
		<g transform="matrix(1 0 0 1 -475.015 -304.6444)" id="Layer_1">
<path style="stroke: none; stroke-width: 1; stroke-dasharray: none; stroke-linecap: butt; stroke-dashoffset: 0; stroke-linejoin: miter; stroke-miterlimit: 4; is-custom-font: none; font-file-url: none; fill: rgb(37,59,128); fill-rule: nonzero; opacity: 1;" transform=" translate(-484.985, -235.3557)" d="M 685.02 382.52 c -0.03 2.09 -0.07 4.18 -0.1 6.27 c -3.34 -3.1 -6.96 -5.95 -9.96 -9.35 c -11.89 -13.46 -24.65 -25.98 -39.28 -38.38 c 0 4.22 0 7.36 0 10.49 c -0.12 10.18 -0.24 20.37 -0.37 30.56 c -0.94 0.99 -1.89 1.97 -2.83 2.95 c -0.55 -3.11 -1.52 -6.21 -1.59 -9.33 c -0.22 -10.17 -0.11 -20.36 -0.13 -30.54 c 2.06 -8.58 -1.87 -13.87 -9.7 -17.87 c 0 3.55 0 6.41 0 9.27 c -1.1 24.34 -2.21 48.67 -3.33 73.44 c 2.45 1.55 4.86 3.09 7.28 4.62 c -1.54 0.8 -3.08 1.6 -4.62 2.4 c -0.33 -0.05 -0.67 -0.04 -0.97 -0.15 c -15.14 -5.42 -15.22 -5.42 -14.7 -21.32 c 0.4 -12.13 1.04 -24.26 1.58 -36.39 c -0.35 -4 3.05 -8.42 -1.39 -11.94 c -3.45 -2.81 -6.89 -5.63 -10.33 -8.44 c -2.55 -2 -5.11 -4 -7.66 -5.99 c -1.46 -1.33 -2.93 -2.67 -4.39 -4 c -2.53 -1.97 -5.06 -3.95 -7.6 -5.92 c -4.79 -4.02 -9.57 -8.05 -14.36 -12.07 c -2.55 -1.99 -5.1 -3.97 -7.65 -5.96 c -4.78 -4.01 -9.55 -8.02 -14.33 -12.03 c -2.56 -1.99 -5.12 -3.99 -7.68 -5.98 c -4.77 -4 -9.54 -8.01 -14.31 -12.01 c -2.56 -2 -5.13 -3.99 -7.69 -5.99 c -4.77 -4 -9.54 -8.01 -14.31 -12.01 c -2.56 -2 -5.13 -3.99 -7.69 -5.99 c -4.07 -3.34 -8.14 -6.67 -12.21 -10.01 c -2.51 -2.14 -5.03 -4.27 -7.54 -6.41 l 0.09 0.07 c -2.79 -1.92 -5.58 -3.84 -8.36 -5.77 c -4.75 -3.96 -9.5 -7.93 -14.25 -11.89 c -2.59 -2.06 -5.18 -4.12 -7.76 -6.18 c -1.38 -1.27 -2.76 -2.55 -4.15 -3.82 c -3.28 -2.69 -6.56 -5.38 -9.84 -8.07 c -1.43 -1.31 -2.85 -2.62 -4.28 -3.93 c -3.25 -2.71 -6.49 -5.43 -9.74 -8.14 c -1.38 -1.28 -2.76 -2.57 -4.15 -3.85 c -3.95 -3.39 -7.91 -6.77 -11.86 -10.16 c -2.08 -1.95 -4.16 -3.89 -6.24 -5.84 c -3.25 -2.72 -6.51 -5.44 -9.76 -8.16 c -2.09 -1.95 -4.19 -3.89 -6.28 -5.84 c -3.23 -2.68 -6.47 -5.36 -9.7 -8.04 c -1.43 -1.32 -2.86 -2.64 -4.29 -3.96 c -2.57 -2.03 -5.15 -4.07 -7.72 -6.1 c -1.42 -1.3 -2.84 -2.6 -4.26 -3.89 c -2.58 -2.04 -5.16 -4.07 -7.74 -6.11 c -1.42 -1.3 -2.84 -2.59 -4.27 -3.89 c -2.58 -2.03 -5.16 -4.06 -7.73 -6.09 c -1.43 -1.3 -2.85 -2.6 -4.28 -3.9 c -2.57 -2.03 -5.15 -4.05 -7.72 -6.08 c -1.43 -1.31 -2.86 -2.61 -4.29 -3.92 c -2.57 -2.02 -5.14 -4.04 -7.71 -6.07 c -1.44 -1.31 -2.87 -2.62 -4.31 -3.93 c -2.56 -2.02 -5.13 -4.03 -7.69 -6.05 c -1.31 -1.31 -2.61 -2.62 -3.92 -3.93 c 0.11 -7.95 0.26 -15.9 0.29 -23.85 c 0.01 -2.4 0.6 -3.86 3.36 -3.25 c 2.7 2.39 5.41 4.78 8.11 7.17 c 2.63 2.25 5.26 4.5 7.9 6.75 c 2.71 2.41 5.43 4.82 8.14 7.23 c 2.62 2.23 5.25 4.47 7.87 6.7 c 12.7 11.1 25.41 22.2 38.11 33.3 c 2.63 2.25 5.26 4.5 7.89 6.74 c 1.13 1.2 2.17 2.5 3.4 3.57 c 77.16 67.18 154.34 134.34 231.53 201.48 c 1.68 1.46 3.54 2.72 6.25 4.78 c 1.1 -6.93 2.04 -12.89 3.33 -21 C 639.32 332.83 661.34 358.55 685.02 382.52 z" stroke-linecap="round"/>
</g>
		<g transform="matrix(1 0 0 1 -485.858 -37.01)" id="Layer_1">
<path style="stroke: none; stroke-width: 1; stroke-dasharray: none; stroke-linecap: butt; stroke-dashoffset: 0; stroke-linejoin: miter; stroke-miterlimit: 4; is-custom-font: none; font-file-url: none; fill: rgb(254,254,254); fill-rule: nonzero; opacity: 1;" transform=" translate(-474.142, -502.99)" d="M 575.46 577.29 c -65.61 -47.11 -131.22 -94.22 -196.81 -141.35 c -2.13 -1.53 -4.07 -3.33 -6.1 -5.01 c 1.46 -0.75 2.91 -1.49 4.37 -2.24 c 1.76 0.75 3.72 1.23 5.26 2.3 c 57.48 39.8 114.92 79.65 172.35 119.51 c 4.92 3.42 9.74 6.98 14.57 10.53 C 574.67 565.09 576.49 570.65 575.46 577.29 z" stroke-linecap="round"/>
</g>
		<g transform="matrix(1 0 0 1 -671.2105 -311.7948)" id="Layer_1">
<path style="stroke: none; stroke-width: 1; stroke-dasharray: none; stroke-linecap: butt; stroke-dashoffset: 0; stroke-linejoin: miter; stroke-miterlimit: 4; is-custom-font: none; font-file-url: none; fill: rgb(254,254,254); fill-rule: nonzero; opacity: 1;" transform=" translate(-288.7895, -228.2052)" d="M 294.68 105.74 c -2.69 -1.82 -5.37 -3.64 -9.53 -6.46 c 0 87.37 0 173.48 0 259.6 c -0.75 -2.73 -2.16 -5.47 -2.16 -8.2 c -0.12 -82.02 -0.1 -164.04 -0.06 -246.06 c 0 -2.23 0.45 -4.46 0.73 -7.01 C 290.35 96.89 292.63 101.17 294.68 105.74 z" stroke-linecap="round"/>
</g>
		<g transform="matrix(1 0 0 1 -358.1253 -186.79)" id="Layer_1">
<path style="stroke: none; stroke-width: 1; stroke-dasharray: none; stroke-linecap: butt; stroke-dashoffset: 0; stroke-linejoin: miter; stroke-miterlimit: 4; is-custom-font: none; font-file-url: none; fill: rgb(254,254,254); fill-rule: nonzero; opacity: 1;" transform=" translate(-601.8747, -353.21)" d="M 604.92 347.24 c 4.43 3.52 1.03 7.95 1.39 11.94 c -3.26 -2.68 -6.52 -5.37 -9.78 -8.05 c 2.38 0.66 4.76 1.32 7.75 2.15 C 604.48 351.35 604.7 349.29 604.92 347.24 z" stroke-linecap="round"/>
</g>
		<g transform="matrix(1 0 0 1 -613.44 -392.81)" id="Layer_1">
<path style="stroke: none; stroke-width: 1; stroke-dasharray: none; stroke-linecap: butt; stroke-dashoffset: 0; stroke-linejoin: miter; stroke-miterlimit: 4; is-custom-font: none; font-file-url: none; fill: rgb(254,254,254); fill-rule: nonzero; opacity: 1;" transform=" translate(-346.56, -147.19)" d="M 354.67 153.34 c -5.41 -4.1 -10.81 -8.2 -16.22 -12.3 C 345.69 142.72 351.27 146.59 354.67 153.34 z" stroke-linecap="round"/>
</g>
		<g transform="matrix(1 0 0 1 -381.51 -203.705)" id="Layer_1">
<path style="stroke: none; stroke-width: 1; stroke-dasharray: none; stroke-linecap: butt; stroke-dashoffset: 0; stroke-linejoin: miter; stroke-miterlimit: 4; is-custom-font: none; font-file-url: none; fill: rgb(254,254,254); fill-rule: nonzero; opacity: 1;" transform=" translate(-578.49, -336.295)" d="M 584.66 341.57 c -4.11 -3.52 -8.23 -7.04 -12.34 -10.55 C 578.56 332.06 582.93 335.28 584.66 341.57 z" stroke-linecap="round"/>
</g>
		<g transform="matrix(1 0 0 1 -405.36 -223.99)" id="Layer_1">
<path style="stroke: none; stroke-width: 1; stroke-dasharray: none; stroke-linecap: butt; stroke-dashoffset: 0; stroke-linejoin: miter; stroke-miterlimit: 4; is-custom-font: none; font-file-url: none; fill: rgb(254,254,254); fill-rule: nonzero; opacity: 1;" transform=" translate(-554.64, -316.01)" d="M 560.75 321.07 c -4.07 -3.37 -8.15 -6.74 -12.22 -10.12 C 554.54 311.99 558.5 315.5 560.75 321.07 z" stroke-linecap="round"/>
</g>
		<g transform="matrix(1 0 0 1 -459.41 -269.52)" id="Layer_1">
<path style="stroke: none; stroke-width: 1; stroke-dasharray: none; stroke-linecap: butt; stroke-dashoffset: 0; stroke-linejoin: miter; stroke-miterlimit: 4; is-custom-font: none; font-file-url: none; fill: rgb(254,254,254); fill-rule: nonzero; opacity: 1;" transform=" translate(-500.59, -270.48)" d="M 506.69 275.77 c -4.07 -3.53 -8.13 -7.05 -12.2 -10.58 C 501.23 265.63 504.14 270.5 506.69 275.77 z" stroke-linecap="round"/>
</g>
		<g transform="matrix(1 0 0 1 -421.52 -237.645)" id="Layer_1">
<path style="stroke: none; stroke-width: 1; stroke-dasharray: none; stroke-linecap: butt; stroke-dashoffset: 0; stroke-linejoin: miter; stroke-miterlimit: 4; is-custom-font: none; font-file-url: none; fill: rgb(254,254,254); fill-rule: nonzero; opacity: 1;" transform=" translate(-538.48, -302.355)" d="M 544.7 307.66 c -4.15 -3.54 -8.3 -7.08 -12.44 -10.61 C 539.05 297.49 542.05 302.37 544.7 307.66 z" stroke-linecap="round"/>
</g>
		<g transform="matrix(1 0 0 1 -513.465 -313.93)" id="Layer_1">
<path style="stroke: none; stroke-width: 1; stroke-dasharray: none; stroke-linecap: butt; stroke-dashoffset: 0; stroke-linejoin: miter; stroke-miterlimit: 4; is-custom-font: none; font-file-url: none; fill: rgb(254,254,254); fill-rule: nonzero; opacity: 1;" transform=" translate(-446.535, -226.07)" d="M 452.76 231.08 c -4.15 -3.34 -8.3 -6.68 -12.45 -10.02 C 446.55 221.79 450.35 225.57 452.76 231.08 z" stroke-linecap="round"/>
</g>
		<g transform="matrix(1 0 0 1 -561.19 -362.23)" id="Layer_1">
<path style="stroke: none; stroke-width: 1; stroke-dasharray: none; stroke-linecap: butt; stroke-dashoffset: 0; stroke-linejoin: miter; stroke-miterlimit: 4; is-custom-font: none; font-file-url: none; fill: rgb(254,254,254); fill-rule: nonzero; opacity: 1;" transform=" translate(-398.81, -177.77)" d="M 392.88 172.69 c 3.95 3.39 7.91 6.77 11.86 10.16 C 398.86 181.71 395.95 177.11 392.88 172.69 z" stroke-linecap="round"/>
</g>
		<g transform="matrix(1 0 0 1 -546.24 -349.23)" id="Layer_1">
<path style="stroke: none; stroke-width: 1; stroke-dasharray: none; stroke-linecap: butt; stroke-dashoffset: 0; stroke-linejoin: miter; stroke-miterlimit: 4; is-custom-font: none; font-file-url: none; fill: rgb(254,254,254); fill-rule: nonzero; opacity: 1;" transform=" translate(-413.76, -190.77)" d="M 408.89 186.7 c 3.25 2.71 6.49 5.43 9.74 8.14 C 415.38 192.13 412.13 189.42 408.89 186.7 z" stroke-linecap="round"/>
</g>
		<g transform="matrix(1 0 0 1 -554.345 -346.84)" id="Layer_1">
<path style="stroke: none; stroke-width: 1; stroke-dasharray: none; stroke-linecap: butt; stroke-dashoffset: 0; stroke-linejoin: miter; stroke-miterlimit: 4; is-custom-font: none; font-file-url: none; fill: rgb(254,254,254); fill-rule: nonzero; opacity: 1;" transform=" translate(-405.655, -193.16)" d="M 410.76 197.19 c -3.4 -2.69 -6.8 -5.38 -10.21 -8.06 C 406.05 189.17 408.58 192.96 410.76 197.19 z" stroke-linecap="round"/>
</g>
		<g transform="matrix(1 0 0 1 -658.465 -428.655)" id="Layer_1">
<path style="stroke: none; stroke-width: 1; stroke-dasharray: none; stroke-linecap: butt; stroke-dashoffset: 0; stroke-linejoin: miter; stroke-miterlimit: 4; is-custom-font: none; font-file-url: none; fill: rgb(254,254,254); fill-rule: nonzero; opacity: 1;" transform=" translate(-301.535, -111.345)" d="M 306.7 115.62 c -3.44 -2.85 -6.89 -5.7 -10.33 -8.55 C 302.09 107.18 304.74 110.97 306.7 115.62 z" stroke-linecap="round"/>
</g>
		<g transform="matrix(1 0 0 1 -532.18 -337.195)" id="Layer_1">
<path style="stroke: none; stroke-width: 1; stroke-dasharray: none; stroke-linecap: butt; stroke-dashoffset: 0; stroke-linejoin: miter; stroke-miterlimit: 4; is-custom-font: none; font-file-url: none; fill: rgb(254,254,254); fill-rule: nonzero; opacity: 1;" transform=" translate(-427.82, -202.805)" d="M 422.9 198.77 c 3.28 2.69 6.56 5.38 9.84 8.07 C 429.46 204.15 426.18 201.46 422.9 198.77 z" stroke-linecap="round"/>
</g>
		<g transform="matrix(1 0 0 1 -368.455 -192.88)" id="Layer_1">
<path style="stroke: none; stroke-width: 1; stroke-dasharray: none; stroke-linecap: butt; stroke-dashoffset: 0; stroke-linejoin: miter; stroke-miterlimit: 4; is-custom-font: none; font-file-url: none; fill: rgb(254,254,254); fill-rule: nonzero; opacity: 1;" transform=" translate(-591.545, -347.12)" d="M 596.7 351.25 c -3.44 -2.75 -6.87 -5.51 -10.31 -8.26 C 592.02 343.02 594.59 346.84 596.7 351.25 z" stroke-linecap="round"/>
</g>
		<g transform="matrix(1 0 0 1 -600.375 -382.7889)" id="Layer_1">
<path style="stroke: none; stroke-width: 1; stroke-dasharray: none; stroke-linecap: butt; stroke-dashoffset: 0; stroke-linejoin: miter; stroke-miterlimit: 4; is-custom-font: none; font-file-url: none; fill: rgb(254,254,254); fill-rule: nonzero; opacity: 1;" transform=" translate(-359.625, -157.2111)" d="M 364.75 161.22 c -3.42 -2.67 -6.83 -5.34 -10.25 -8.01 C 360.17 153 362.47 157.09 364.75 161.22 z" stroke-linecap="round"/>
</g>
		<g transform="matrix(1 0 0 1 -578.24 -377.22)" id="Layer_1">
<path style="stroke: none; stroke-width: 1; stroke-dasharray: none; stroke-linecap: butt; stroke-dashoffset: 0; stroke-linejoin: miter; stroke-miterlimit: 4; is-custom-font: none; font-file-url: none; fill: rgb(254,254,254); fill-rule: nonzero; opacity: 1;" transform=" translate(-381.76, -162.78)" d="M 376.88 158.7 c 3.25 2.72 6.51 5.44 9.76 8.16 C 383.39 164.13 380.13 161.42 376.88 158.7 z" stroke-linecap="round"/>
</g>
		<g transform="matrix(1 0 0 1 -394.32 -214.67)" id="Layer_1">
<path style="stroke: none; stroke-width: 1; stroke-dasharray: none; stroke-linecap: butt; stroke-dashoffset: 0; stroke-linejoin: miter; stroke-miterlimit: 4; is-custom-font: none; font-file-url: none; fill: rgb(254,254,254); fill-rule: nonzero; opacity: 1;" transform=" translate(-565.68, -325.33)" d="M 570.7 329.68 c -3.34 -2.9 -6.69 -5.8 -10.04 -8.7 C 566.23 321.32 568.91 324.99 570.7 329.68 z" stroke-linecap="round"/>
</g>
		<g transform="matrix(1 0 0 1 -594.25 -391.16)" id="Layer_1">
<path style="stroke: none; stroke-width: 1; stroke-dasharray: none; stroke-linecap: butt; stroke-dashoffset: 0; stroke-linejoin: miter; stroke-miterlimit: 4; is-custom-font: none; font-file-url: none; fill: rgb(254,254,254); fill-rule: nonzero; opacity: 1;" transform=" translate(-365.75, -148.84)" d="M 360.9 144.82 c 3.23 2.68 6.47 5.36 9.7 8.04 C 367.37 150.18 364.13 147.5 360.9 144.82 z" stroke-linecap="round"/>
</g>
		<g transform="matrix(1 0 0 1 -480.455 -286.685)" id="Layer_1">
<path style="stroke: none; stroke-width: 1; stroke-dasharray: none; stroke-linecap: butt; stroke-dashoffset: 0; stroke-linejoin: miter; stroke-miterlimit: 4; is-custom-font: none; font-file-url: none; fill: rgb(254,254,254); fill-rule: nonzero; opacity: 1;" transform=" translate(-479.545, -253.315)" d="M 484.71 257.6 c -3.44 -2.86 -6.88 -5.72 -10.33 -8.57 C 480.14 249.1 482.71 253 484.71 257.6 z" stroke-linecap="round"/>
</g>
		<g transform="matrix(1 0 0 1 -492.505 -296.63)" id="Layer_1">
<path style="stroke: none; stroke-width: 1; stroke-dasharray: none; stroke-linecap: butt; stroke-dashoffset: 0; stroke-linejoin: miter; stroke-miterlimit: 4; is-custom-font: none; font-file-url: none; fill: rgb(254,254,254); fill-rule: nonzero; opacity: 1;" transform=" translate(-467.495, -243.37)" d="M 472.69 247.69 c -3.46 -2.88 -6.92 -5.76 -10.39 -8.64 C 468.15 239.07 470.75 242.99 472.69 247.69 z" stroke-linecap="round"/>
</g>
		<g transform="matrix(1 0 0 1 -519.24 -326.25)" id="Layer_1">
<path style="stroke: none; stroke-width: 1; stroke-dasharray: none; stroke-linecap: butt; stroke-dashoffset: 0; stroke-linejoin: miter; stroke-miterlimit: 4; is-custom-font: none; font-file-url: none; fill: rgb(254,254,254); fill-rule: nonzero; opacity: 1;" transform=" translate(-440.76, -213.75)" d="M 436.88 210.66 c 2.59 2.06 5.18 4.12 7.76 6.18 C 442.06 214.78 439.47 212.72 436.88 210.66 z" stroke-linecap="round"/>
</g>
		<g transform="matrix(1 0 0 1 -369.24 -204.205)" id="Layer_1">
<path style="stroke: none; stroke-width: 1; stroke-dasharray: none; stroke-linecap: butt; stroke-dashoffset: 0; stroke-linejoin: miter; stroke-miterlimit: 4; is-custom-font: none; font-file-url: none; fill: rgb(254,254,254); fill-rule: nonzero; opacity: 1;" transform=" translate(-590.76, -335.795)" d="M 586.93 332.8 c 2.55 2 5.11 4 7.66 5.99 C 592.03 336.8 589.48 334.8 586.93 332.8 z" stroke-linecap="round"/>
</g>
		<g transform="matrix(1 0 0 1 -667.265 -452.145)" id="Layer_1">
<path style="stroke: none; stroke-width: 1; stroke-dasharray: none; stroke-linecap: butt; stroke-dashoffset: 0; stroke-linejoin: miter; stroke-miterlimit: 4; is-custom-font: none; font-file-url: none; fill: rgb(254,254,254); fill-rule: nonzero; opacity: 1;" transform=" translate(-292.735, -87.855)" d="M 288.89 84.83 c 2.56 2.02 5.13 4.03 7.69 6.05 C 294.02 88.86 291.46 86.85 288.89 84.83 z" stroke-linecap="round"/>
</g>
		<g transform="matrix(1 0 0 1 -655.255 -442.155)" id="Layer_1">
<path style="stroke: none; stroke-width: 1; stroke-dasharray: none; stroke-linecap: butt; stroke-dashoffset: 0; stroke-linejoin: miter; stroke-miterlimit: 4; is-custom-font: none; font-file-url: none; fill: rgb(254,254,254); fill-rule: nonzero; opacity: 1;" transform=" translate(-304.745, -97.845)" d="M 300.89 94.81 c 2.57 2.02 5.14 4.04 7.71 6.07 C 306.03 98.85 303.46 96.83 300.89 94.81 z" stroke-linecap="round"/>
</g>
		<g transform="matrix(1 0 0 1 -643.25 -432.17)" id="Layer_1">
<path style="stroke: none; stroke-width: 1; stroke-dasharray: none; stroke-linecap: butt; stroke-dashoffset: 0; stroke-linejoin: miter; stroke-miterlimit: 4; is-custom-font: none; font-file-url: none; fill: rgb(254,254,254); fill-rule: nonzero; opacity: 1;" transform=" translate(-316.75, -107.83)" d="M 312.89 104.79 c 2.57 2.03 5.15 4.05 7.72 6.08 C 318.04 108.85 315.46 106.82 312.89 104.79 z" stroke-linecap="round"/>
</g>
		<g transform="matrix(1 0 0 1 -631.245 -422.185)" id="Layer_1">
<path style="stroke: none; stroke-width: 1; stroke-dasharray: none; stroke-linecap: butt; stroke-dashoffset: 0; stroke-linejoin: miter; stroke-miterlimit: 4; is-custom-font: none; font-file-url: none; fill: rgb(254,254,254); fill-rule: nonzero; opacity: 1;" transform=" translate(-328.755, -117.815)" d="M 324.89 114.77 c 2.58 2.03 5.16 4.06 7.73 6.09 C 330.04 118.84 327.47 116.81 324.89 114.77 z" stroke-linecap="round"/>
</g>
		<g transform="matrix(1 0 0 1 -647.42 -419.63)" id="Layer_1">
<path style="stroke: none; stroke-width: 1; stroke-dasharray: none; stroke-linecap: butt; stroke-dashoffset: 0; stroke-linejoin: miter; stroke-miterlimit: 4; is-custom-font: none; font-file-url: none; fill: rgb(254,254,254); fill-rule: nonzero; opacity: 1;" transform=" translate(-312.58, -120.37)" d="M 316.68 123.72 c -2.73 -2.23 -5.47 -4.46 -8.2 -6.7 C 313.05 117.01 315.57 119.5 316.68 123.72 z" stroke-linecap="round"/>
</g>
		<g transform="matrix(1 0 0 1 -637.445 -411.6053)" id="Layer_1">
<path style="stroke: none; stroke-width: 1; stroke-dasharray: none; stroke-linecap: butt; stroke-dashoffset: 0; stroke-linejoin: miter; stroke-miterlimit: 4; is-custom-font: none; font-file-url: none; fill: rgb(254,254,254); fill-rule: nonzero; opacity: 1;" transform=" translate(-322.555, -128.3946)" d="M 326.68 131.75 c -2.75 -2.24 -5.5 -4.47 -8.25 -6.71 C 323.05 124.99 325.58 127.49 326.68 131.75 z" stroke-linecap="round"/>
</g>
		<g transform="matrix(1 0 0 1 -381.26 -214.16)" id="Layer_1">
<path style="stroke: none; stroke-width: 1; stroke-dasharray: none; stroke-linecap: butt; stroke-dashoffset: 0; stroke-linejoin: miter; stroke-miterlimit: 4; is-custom-font: none; font-file-url: none; fill: rgb(254,254,254); fill-rule: nonzero; opacity: 1;" transform=" translate(-578.74, -325.84)" d="M 574.94 322.88 c 2.53 1.97 5.06 3.95 7.6 5.92 C 580 326.83 577.47 324.85 574.94 322.88 z" stroke-linecap="round"/>
</g>
		<g transform="matrix(1 0 0 1 -581.41 -367.8686)" id="Layer_1">
<path style="stroke: none; stroke-width: 1; stroke-dasharray: none; stroke-linecap: butt; stroke-dashoffset: 0; stroke-linejoin: miter; stroke-miterlimit: 4; is-custom-font: none; font-file-url: none; fill: rgb(254,254,254); fill-rule: nonzero; opacity: 1;" transform=" translate(-378.59, -172.1314)" d="M 382.74 175.24 c -2.77 -2.07 -5.53 -4.14 -8.3 -6.21 C 378.88 168.87 381.3 171.4 382.74 175.24 z" stroke-linecap="round"/>
</g>
		<g transform="matrix(1 0 0 1 -619.24 -412.185)" id="Layer_1">
<path style="stroke: none; stroke-width: 1; stroke-dasharray: none; stroke-linecap: butt; stroke-dashoffset: 0; stroke-linejoin: miter; stroke-miterlimit: 4; is-custom-font: none; font-file-url: none; fill: rgb(254,254,254); fill-rule: nonzero; opacity: 1;" transform=" translate(-340.76, -127.815)" d="M 336.89 124.76 c 2.58 2.04 5.16 4.07 7.74 6.11 C 342.05 128.83 339.47 126.79 336.89 124.76 z" stroke-linecap="round"/>
</g>
		<g transform="matrix(1 0 0 1 -627.455 -403.6315)" id="Layer_1">
<path style="stroke: none; stroke-width: 1; stroke-dasharray: none; stroke-linecap: butt; stroke-dashoffset: 0; stroke-linejoin: miter; stroke-miterlimit: 4; is-custom-font: none; font-file-url: none; fill: rgb(254,254,254); fill-rule: nonzero; opacity: 1;" transform=" translate(-332.545, -136.3686)" d="M 336.69 139.69 c -2.76 -2.21 -5.53 -4.43 -8.29 -6.64 C 333.01 132.95 335.54 135.46 336.69 139.69 z" stroke-linecap="round"/>
</g>
		<g transform="matrix(1 0 0 1 -469.425 -277.8508)" id="Layer_1">
<path style="stroke: none; stroke-width: 1; stroke-dasharray: none; stroke-linecap: butt; stroke-dashoffset: 0; stroke-linejoin: miter; stroke-miterlimit: 4; is-custom-font: none; font-file-url: none; fill: rgb(254,254,254); fill-rule: nonzero; opacity: 1;" transform=" translate(-490.575, -262.1493)" d="M 494.66 265.32 c -2.72 -2.11 -5.45 -4.23 -8.17 -6.34 C 490.91 258.91 493.4 261.32 494.66 265.32 z" stroke-linecap="round"/>
</g>
		<g transform="matrix(1 0 0 1 -403.245 -232.18)" id="Layer_1">
<path style="stroke: none; stroke-width: 1; stroke-dasharray: none; stroke-linecap: butt; stroke-dashoffset: 0; stroke-linejoin: miter; stroke-miterlimit: 4; is-custom-font: none; font-file-url: none; fill: rgb(254,254,254); fill-rule: nonzero; opacity: 1;" transform=" translate(-556.755, -307.82)" d="M 552.93 304.84 c 2.55 1.99 5.1 3.97 7.65 5.96 C 558.03 308.82 555.48 306.83 552.93 304.84 z" stroke-linecap="round"/>
</g>
		<g transform="matrix(1 0 0 1 -607.25 -402.19)" id="Layer_1">
<path style="stroke: none; stroke-width: 1; stroke-dasharray: none; stroke-linecap: butt; stroke-dashoffset: 0; stroke-linejoin: miter; stroke-miterlimit: 4; is-custom-font: none; font-file-url: none; fill: rgb(254,254,254); fill-rule: nonzero; opacity: 1;" transform=" translate(-352.75, -137.81)" d="M 348.89 134.76 c 2.57 2.03 5.15 4.07 7.72 6.1 C 354.03 138.83 351.46 136.79 348.89 134.76 z" stroke-linecap="round"/>
</g>
		<g transform="matrix(1 0 0 1 -591.365 -375.582)" id="Layer_1">
<path style="stroke: none; stroke-width: 1; stroke-dasharray: none; stroke-linecap: butt; stroke-dashoffset: 0; stroke-linejoin: miter; stroke-miterlimit: 4; is-custom-font: none; font-file-url: none; fill: rgb(254,254,254); fill-rule: nonzero; opacity: 1;" transform=" translate(-368.635, -164.418)" d="M 372.68 167.74 c -2.7 -2.21 -5.4 -4.43 -8.09 -6.64 C 369.2 160.98 371.58 163.58 372.68 167.74 z" stroke-linecap="round"/>
</g>
		<g transform="matrix(1 0 0 1 -433.41 -247.61)" id="Layer_1">
<path style="stroke: none; stroke-width: 1; stroke-dasharray: none; stroke-linecap: butt; stroke-dashoffset: 0; stroke-linejoin: miter; stroke-miterlimit: 4; is-custom-font: none; font-file-url: none; fill: rgb(254,254,254); fill-rule: nonzero; opacity: 1;" transform=" translate(-526.59, -292.39)" d="M 530.69 295.81 c -2.73 -2.28 -5.47 -4.56 -8.2 -6.84 C 527.13 288.97 529.67 291.49 530.69 295.81 z" stroke-linecap="round"/>
</g>
		<g transform="matrix(1 0 0 1 -425.24 -250.18)" id="Layer_1">
<path style="stroke: none; stroke-width: 1; stroke-dasharray: none; stroke-linecap: butt; stroke-dashoffset: 0; stroke-linejoin: miter; stroke-miterlimit: 4; is-custom-font: none; font-file-url: none; fill: rgb(254,254,254); fill-rule: nonzero; opacity: 1;" transform=" translate(-534.76, -289.82)" d="M 530.92 286.83 c 2.56 1.99 5.12 3.99 7.68 5.98 C 536.04 290.82 533.48 288.82 530.92 286.83 z" stroke-linecap="round"/>
</g>
		<g transform="matrix(1 0 0 1 -469.235 -286.165)" id="Layer_1">
<path style="stroke: none; stroke-width: 1; stroke-dasharray: none; stroke-linecap: butt; stroke-dashoffset: 0; stroke-linejoin: miter; stroke-miterlimit: 4; is-custom-font: none; font-file-url: none; fill: rgb(254,254,254); fill-rule: nonzero; opacity: 1;" transform=" translate(-490.765, -253.835)" d="M 486.92 250.84 c 2.56 2 5.13 3.99 7.69 5.99 C 492.05 254.83 489.48 252.83 486.92 250.84 z" stroke-linecap="round"/>
</g>
		<g transform="matrix(1 0 0 1 -573.375 -361.5531)" id="Layer_1">
<path style="stroke: none; stroke-width: 1; stroke-dasharray: none; stroke-linecap: butt; stroke-dashoffset: 0; stroke-linejoin: miter; stroke-miterlimit: 4; is-custom-font: none; font-file-url: none; fill: rgb(254,254,254); fill-rule: nonzero; opacity: 1;" transform=" translate(-386.625, -178.447)" d="M 390.68 181.79 c -2.7 -2.23 -5.41 -4.45 -8.11 -6.68 C 387.23 174.96 389.61 177.59 390.68 181.79 z" stroke-linecap="round"/>
</g>
		<g transform="matrix(1 0 0 1 -563.435 -353.8546)" id="Layer_1">
<path style="stroke: none; stroke-width: 1; stroke-dasharray: none; stroke-linecap: butt; stroke-dashoffset: 0; stroke-linejoin: miter; stroke-miterlimit: 4; is-custom-font: none; font-file-url: none; fill: rgb(254,254,254); fill-rule: nonzero; opacity: 1;" transform=" translate(-396.565, -186.1455)" d="M 400.72 189.26 c -2.77 -2.07 -5.54 -4.15 -8.31 -6.22 C 396.87 182.86 399.31 185.37 400.72 189.26 z" stroke-linecap="round"/>
</g>
		<g transform="matrix(1 0 0 1 -489.06 -302.375)" id="Layer_1">
<path style="stroke: none; stroke-width: 1; stroke-dasharray: none; stroke-linecap: butt; stroke-dashoffset: 0; stroke-linejoin: miter; stroke-miterlimit: 4; is-custom-font: none; font-file-url: none; fill: rgb(254,254,254); fill-rule: nonzero; opacity: 1;" transform=" translate(-470.94, -237.625)" d="M 467.17 234.42 c 2.51 2.14 5.03 4.27 7.54 6.41 C 470.71 240.44 468.34 238.14 467.17 234.42 z" stroke-linecap="round"/>
</g>
		<g transform="matrix(1 0 0 1 -545.35 -339.5912)" id="Layer_1">
<path style="stroke: none; stroke-width: 1; stroke-dasharray: none; stroke-linecap: butt; stroke-dashoffset: 0; stroke-linejoin: miter; stroke-miterlimit: 4; is-custom-font: none; font-file-url: none; fill: rgb(254,254,254); fill-rule: nonzero; opacity: 1;" transform=" translate(-414.65, -200.4089)" d="M 418.69 203.75 c -2.69 -2.23 -5.39 -4.45 -8.08 -6.68 C 415.21 196.98 417.61 199.57 418.69 203.75 z" stroke-linecap="round"/>
</g>
		<g transform="matrix(1 0 0 1 -445.41 -257.615)" id="Layer_1">
<path style="stroke: none; stroke-width: 1; stroke-dasharray: none; stroke-linecap: butt; stroke-dashoffset: 0; stroke-linejoin: miter; stroke-miterlimit: 4; is-custom-font: none; font-file-url: none; fill: rgb(254,254,254); fill-rule: nonzero; opacity: 1;" transform=" translate(-514.59, -282.385)" d="M 518.69 285.8 c -2.73 -2.28 -5.46 -4.55 -8.2 -6.83 C 515.12 278.98 517.66 281.49 518.69 285.8 z" stroke-linecap="round"/>
</g>
		<g transform="matrix(1 0 0 1 -447.235 -268.175)" id="Layer_1">
<path style="stroke: none; stroke-width: 1; stroke-dasharray: none; stroke-linecap: butt; stroke-dashoffset: 0; stroke-linejoin: miter; stroke-miterlimit: 4; is-custom-font: none; font-file-url: none; fill: rgb(254,254,254); fill-rule: nonzero; opacity: 1;" transform=" translate(-512.765, -271.825)" d="M 508.92 268.83 c 2.56 2 5.13 3.99 7.69 5.99 C 514.05 272.82 511.48 270.83 508.92 268.83 z" stroke-linecap="round"/>
</g>
		<g transform="matrix(1 0 0 1 -535.45 -331.6111)" id="Layer_1">
<path style="stroke: none; stroke-width: 1; stroke-dasharray: none; stroke-linecap: butt; stroke-dashoffset: 0; stroke-linejoin: miter; stroke-miterlimit: 4; is-custom-font: none; font-file-url: none; fill: rgb(254,254,254); fill-rule: nonzero; opacity: 1;" transform=" translate(-424.55, -208.3888)" d="M 428.69 211.75 c -2.76 -2.24 -5.52 -4.48 -8.28 -6.72 C 425.05 204.94 427.6 207.46 428.69 211.75 z" stroke-linecap="round"/>
</g>
		<g transform="matrix(1 0 0 1 -503.315 -305.61)" id="Layer_1">
<path style="stroke: none; stroke-width: 1; stroke-dasharray: none; stroke-linecap: butt; stroke-dashoffset: 0; stroke-linejoin: miter; stroke-miterlimit: 4; is-custom-font: none; font-file-url: none; fill: rgb(254,254,254); fill-rule: nonzero; opacity: 1;" transform=" translate(-456.685, -234.39)" d="M 460.69 237.78 c -2.67 -2.26 -5.34 -4.52 -8.01 -6.78 C 457.22 231.05 459.66 233.58 460.69 237.78 z" stroke-linecap="round"/>
</g>
		<g transform="matrix(1 0 0 1 -496.92 -308.3574)" id="Layer_1">
<path style="stroke: none; stroke-width: 1; stroke-dasharray: none; stroke-linecap: butt; stroke-dashoffset: 0; stroke-linejoin: miter; stroke-miterlimit: 4; is-custom-font: none; font-file-url: none; fill: rgb(254,254,254); fill-rule: nonzero; opacity: 1;" transform=" translate(-463.08, -231.6426)" d="M 458.9 228.73 c 2.79 1.92 5.58 3.84 8.36 5.77 C 462.8 235 460.74 232.03 458.9 228.73 z" stroke-linecap="round"/>
</g>
		<g transform="matrix(1 0 0 1 -525.48 -323.5671)" id="Layer_1">
<path style="stroke: none; stroke-width: 1; stroke-dasharray: none; stroke-linecap: butt; stroke-dashoffset: 0; stroke-linejoin: miter; stroke-miterlimit: 4; is-custom-font: none; font-file-url: none; fill: rgb(254,254,254); fill-rule: nonzero; opacity: 1;" transform=" translate(-434.52, -216.433)" d="M 438.69 219.83 c -2.78 -2.26 -5.56 -4.52 -8.34 -6.79 C 435.07 212.92 437.63 215.46 438.69 219.83 z" stroke-linecap="round"/>
</g>
		<g transform="matrix(1 0 0 1 94.1884 127.195)" id="Layer_1">
<path style="stroke: none; stroke-width: 1; stroke-dasharray: none; stroke-linecap: butt; stroke-dashoffset: 0; stroke-linejoin: miter; stroke-miterlimit: 4; is-custom-font: none; font-file-url: none; fill: rgb(254,254,254); fill-rule: nonzero; opacity: 1;" transform=" translate(-1054.1884, -667.195)" d="M 901.11 397.64 c 14.59 1.06 29.2 1.86 43.75 3.26 c 11.26 1.09 22.47 2.77 33.66 4.48 c 11.49 1.75 22.93 3.86 35.58 6.01 c 0 5.19 0.33 10.08 -0.05 14.91 c -2.11 26.56 -4.5 53.09 -6.61 79.65 c -3.37 42.48 -6.51 84.98 -9.93 127.46 c -0.68 8.45 -0.18 16.44 3.45 24.32 c 13.65 29.61 26.9 59.41 40.56 89.01 c 9.76 21.16 20.19 42.01 29.79 63.23 c 3.38 7.47 8.45 11.01 16.29 12.5 c 26.81 5.1 53.56 10.57 80.3 16.05 c 6.19 1.27 12.2 3.38 18.38 4.64 c 5.97 1.22 9.35 4.62 10.4 10.45 c 3.54 19.63 7.02 39.27 10.52 58.9 c -0.01 5.12 0.22 10.25 -0.12 15.34 c -0.2 3 -1.3 5.93 -2 8.9 c -0.8 -4.06 -1.61 -8.13 -2.41 -12.19 c -0.47 -4.19 -0.94 -8.39 -1.4 -12.58 c -0.78 -1.82 -1.56 -3.63 -2.34 -5.45 l 0.07 0.08 c -0.54 -8 -0.87 -16.03 -1.81 -23.98 c -0.18 -1.55 -2.73 -2.81 -4.18 -4.21 c 0 -1.24 -0.01 -2.47 -0.01 -3.71 c 0.54 -1.13 1.78 -2.45 1.52 -3.35 c -1.71 -6.02 -3.35 -12.13 -5.86 -17.83 c -1.06 -2.4 -3.94 -4.91 -6.46 -5.57 c -5.62 -1.47 -11.54 -1.81 -17.33 -2.61 c -1.28 -0.88 -2.47 -2.31 -3.86 -2.57 c -26.82 -4.83 -53.63 -9.67 -80.52 -14.1 c -4.09 -0.67 -6.72 -2.07 -8.61 -5.57 c -3.95 -7.32 -8.04 -14.56 -12.04 -21.85 c -22.81 -41.45 -41.64 -84.76 -60.66 -128.02 c -9.29 -21.14 -9.02 -42.46 -7.55 -64.4 c 1.78 -26.55 3.99 -53.09 4.87 -79.68 c 1.17 -35.28 3.16 -70.44 8.02 -105.42 c 0.13 -0.96 -0.08 -1.98 -0.2 -4.48 c -9.24 -2.09 -18.75 -4.75 -28.44 -6.33 c -21.98 -3.6 -44.02 -6.84 -66.1 -9.81 C 905.62 402.56 902.98 401.07 901.11 397.64 z" stroke-linecap="round"/>
</g>
		<g transform="matrix(1 0 0 1 -98.1494 -18.3803)" id="Layer_1">
<path style="stroke: none; stroke-width: 1; stroke-dasharray: none; stroke-linecap: butt; stroke-dashoffset: 0; stroke-linejoin: miter; stroke-miterlimit: 4; is-custom-font: none; font-file-url: none; fill: rgb(255,255,255); fill-rule: nonzero; opacity: 1;" transform=" translate(-861.8506, -521.6198)" d="M 845.19 562.71 c -11.14 -5.97 -15.33 -16.11 -16.5 -27.91 c -1.81 -18.14 4.01 -33.73 17.55 -45.74 c 17.76 -15.76 40.49 -8.88 46.77 14.03 c 3.8 13.85 3.62 27.59 -5.73 39.77 c -0.15 -2.96 -0.05 -5.96 -0.52 -8.87 c -0.99 -6.19 -5.1 -11.14 -10.78 -11.24 c -4.73 -0.08 -9.98 0.9 -14.14 3.07 C 848.5 532.82 842.86 546.08 845.19 562.71 z" stroke-linecap="round"/>
</g>
		<g transform="matrix(1 0 0 1 -1.4349 -18.6581)" id="Layer_1">
<path style="stroke: none; stroke-width: 1; stroke-dasharray: none; stroke-linecap: butt; stroke-dashoffset: 0; stroke-linejoin: miter; stroke-miterlimit: 4; is-custom-font: none; font-file-url: none; fill: rgb(255,254,254); fill-rule: nonzero; opacity: 1;" transform=" translate(-958.5651, -521.342)" d="M 932.67 557.38 c -7.28 -11.21 -6.73 -23.34 -3.66 -35.52 c 3.18 -12.6 9.45 -23.45 20.42 -30.98 c 16.67 -11.45 34.59 -4.7 39.21 15.06 c 3.55 15.21 1.41 29.7 -7.8 42.73 c -0.7 -1.49 -1.39 -2.98 -2.09 -4.48 c -0.01 -0.99 -0.09 -1.98 -0.01 -2.96 c 0.53 -6.61 -0.47 -12.69 -6.69 -16.41 c -6.51 -3.89 -12.79 -1.78 -18.72 1.6 c -8.11 4.62 -13.19 11.79 -16.47 20.36 C 935.45 550.32 934.06 553.85 932.67 557.38 z" stroke-linecap="round"/>
</g>
		<g transform="matrix(1 0 0 1 122.3436 365.42)" id="Layer_1">
<path style="stroke: none; stroke-width: 1; stroke-dasharray: none; stroke-linecap: butt; stroke-dashoffset: 0; stroke-linejoin: miter; stroke-miterlimit: 4; is-custom-font: none; font-file-url: none; fill: rgb(38,59,128); fill-rule: nonzero; opacity: 1;" transform=" translate(-1082.3435, -905.42)" d="M 1111.17 936.98 c -3.47 -0.87 -5.44 -1 -7.04 -1.83 c -11.19 -5.81 -22.42 -11.56 -33.37 -17.81 c -2.62 -1.49 -5.05 -4.43 -6.16 -7.26 c -3.98 -10.19 -7.38 -20.6 -10.9 -30.97 c -0.38 -1.12 -0.05 -2.48 -0.05 -5.25 c 10.61 5.43 20.09 10.76 29.97 15.19 c 9.77 4.39 15.84 11.12 18.55 21.59 C 1104.37 919.14 1107.81 927.3 1111.17 936.98 z" stroke-linecap="round"/>
</g>
		<g transform="matrix(1 0 0 1 -2.1586 6.7157)" id="Layer_1">
<path style="stroke: none; stroke-width: 1; stroke-dasharray: none; stroke-linecap: butt; stroke-dashoffset: 0; stroke-linejoin: miter; stroke-miterlimit: 4; is-custom-font: none; font-file-url: none; fill: rgb(38,60,128); fill-rule: nonzero; opacity: 1;" transform=" translate(-957.8414, -546.7158)" d="M 936.84 546.8 c 3.28 -8.57 8.36 -15.74 16.47 -20.36 c 5.94 -3.39 12.21 -5.5 18.72 -1.6 c 6.22 3.72 7.22 9.8 6.69 16.41 c -0.08 0.98 0.01 1.97 0.01 2.96 c -1.73 3.02 -3.54 6 -5.11 9.09 c -0.19 0.37 0.85 1.37 1.31 2.07 c -5.06 4.02 -9.73 8.71 -15.27 11.91 c -9.59 5.54 -14.19 4.39 -22.56 -3.84 C 937.02 557.89 936.93 552.34 936.84 546.8 z" stroke-linecap="round"/>
</g>
		<g transform="matrix(1 0 0 1 -94.0208 5.9909)" id="Layer_1">
<path style="stroke: none; stroke-width: 1; stroke-dasharray: none; stroke-linecap: butt; stroke-dashoffset: 0; stroke-linejoin: miter; stroke-miterlimit: 4; is-custom-font: none; font-file-url: none; fill: rgb(38,59,128); fill-rule: nonzero; opacity: 1;" transform=" translate(-865.9791, -545.9908)" d="M 845.19 562.71 c -2.33 -16.63 3.31 -29.89 16.65 -36.88 c 4.15 -2.17 9.41 -3.15 14.14 -3.07 c 5.68 0.09 9.79 5.05 10.78 11.24 c 0.46 2.91 0.36 5.91 0.52 8.87 c -3.29 7.89 -7.1 15.37 -14.08 20.84 C 863.47 571.33 854.38 571.11 845.19 562.71 z" stroke-linecap="round"/>
</g>
		<g transform="matrix(1 0 0 1 -276.44 -159.4907)" id="Layer_1">
<path style="stroke: none; stroke-width: 1; stroke-dasharray: none; stroke-linecap: butt; stroke-dashoffset: 0; stroke-linejoin: miter; stroke-miterlimit: 4; is-custom-font: none; font-file-url: none; fill: rgb(250,250,251); fill-rule: nonzero; opacity: 1;" transform=" translate(-683.56, -380.5093)" d="M 635.68 351.55 c 0 -3.13 0 -6.27 0 -10.49 c 14.62 12.4 27.39 24.93 39.28 38.38 c 3 3.4 6.62 6.25 9.96 9.35 c 6.75 7.29 13.55 14.53 20.23 21.88 c 3.48 3.84 7.12 4.83 12.23 2.9 c 4.41 -1.67 9.35 -1.95 14.06 -2.84 c -0.16 0.65 -0.16 1.73 -0.51 1.86 c -7.19 2.63 -14.28 5.84 -21.71 7.32 c -2.54 0.5 -6.39 -2.96 -8.9 -5.39 C 678.67 393.63 657.2 372.56 635.68 351.55 z" stroke-linecap="round"/>
</g>
		<g transform="matrix(1 0 0 1 222.425 391.64)" id="Layer_1">
<path style="stroke: none; stroke-width: 1; stroke-dasharray: none; stroke-linecap: butt; stroke-dashoffset: 0; stroke-linejoin: miter; stroke-miterlimit: 4; is-custom-font: none; font-file-url: none; fill: rgb(41,60,127); fill-rule: nonzero; opacity: 1;" transform=" translate(-1182.425, -931.64)" d="M 1198.92 906.54 c -0.68 10.88 -1.23 21.77 -2.07 32.63 c -0.9 11.63 -3.07 13.87 -14.91 15.77 c -4.67 0.75 -9.41 1.07 -16.1 1.8 c 2.56 -4.52 3.86 -7.06 5.38 -9.47 c 7.24 -11.46 14.45 -22.94 21.87 -34.29 c 1.56 -2.39 3.93 -4.26 5.92 -6.38 C 1199 906.61 1198.92 906.54 1198.92 906.54 z" stroke-linecap="round"/>
</g>
		<g transform="matrix(1 0 0 1 219.6927 320.6637)" id="Layer_1">
<path style="stroke: none; stroke-width: 1; stroke-dasharray: none; stroke-linecap: butt; stroke-dashoffset: 0; stroke-linejoin: miter; stroke-miterlimit: 4; is-custom-font: none; font-file-url: none; fill: rgb(223,93,91); fill-rule: nonzero; opacity: 1;" transform=" translate(-1179.6927, -860.6637)" d="M 1164.85 845.35 c 5.8 0.8 11.71 1.14 17.33 2.61 c 2.52 0.66 5.4 3.17 6.46 5.57 c 2.52 5.7 4.15 11.81 5.86 17.83 c 0.26 0.9 -0.98 2.22 -1.52 3.35 c -6.61 3.28 -11.94 -0.39 -16.01 -4.38 c -5.56 -5.43 -13.91 -10.2 -9.83 -20.64 c 0.35 -0.91 -1.4 -2.64 -2.18 -3.98 L 1164.85 845.35 z" stroke-linecap="round"/>
</g>
		<g transform="matrix(1 0 0 1 -317.8361 -41.095)" id="Layer_1">
<path style="stroke: none; stroke-width: 1; stroke-dasharray: none; stroke-linecap: butt; stroke-dashoffset: 0; stroke-linejoin: miter; stroke-miterlimit: 4; is-custom-font: none; font-file-url: none; fill: rgb(252,243,243); fill-rule: nonzero; opacity: 1;" transform=" translate(-642.1638, -498.905)" d="M 634.86 514.59 c 0.42 -1.59 0.85 -3.18 1.42 -5.35 c -11.76 -5.48 -18.75 -14.09 -16.12 -28.19 c 5.23 7.29 8.68 16.81 18.23 18.91 c 8.54 1.88 17.53 1.11 26.33 -3.34 c -2.23 7.61 -6.3 10.27 -17.45 12.36 c -2.72 2.06 -5.44 4.12 -8.16 6.18 c -0.71 0.53 -1.43 1.07 -2.14 1.6 C 636.26 516.04 635.56 515.32 634.86 514.59 z" stroke-linecap="round"/>
</g>
		<g transform="matrix(1 0 0 1 212.82 327.25)" id="Layer_1">
<path style="stroke: none; stroke-width: 1; stroke-dasharray: none; stroke-linecap: butt; stroke-dashoffset: 0; stroke-linejoin: miter; stroke-miterlimit: 4; is-custom-font: none; font-file-url: none; fill: rgb(251,237,237); fill-rule: nonzero; opacity: 1;" transform=" translate(-1172.82, -867.25)" d="M 1164.97 845.71 c 0.78 1.35 2.53 3.08 2.18 3.98 c -4.08 10.44 4.27 15.21 9.83 20.64 c 4.07 3.98 9.4 7.66 16.01 4.38 c 0 1.24 0.01 2.47 0.01 3.71 c -1.09 0.67 -2.22 1.98 -3.25 1.91 c -7.83 -0.56 -13.23 3.98 -18.71 8.46 c -0.61 -0.7 -1.23 -1.4 -1.84 -2.1 c 1.88 -2.03 3.76 -4.07 4.7 -5.08 c -5.15 -7.09 -9.66 -13.3 -14.24 -19.61 c -1.09 0.2 -2.69 0.5 -4.28 0.8 c -0.91 -0.1 -1.83 -0.2 -2.74 -0.31 C 1156.75 856.9 1160.86 851.31 1164.97 845.71 z" stroke-linecap="round"/>
</g>
		<g transform="matrix(1 0 0 1 -506.24 -140.0956)" id="Layer_1">
<path style="stroke: none; stroke-width: 1; stroke-dasharray: none; stroke-linecap: butt; stroke-dashoffset: 0; stroke-linejoin: miter; stroke-miterlimit: 4; is-custom-font: none; font-file-url: none; fill: rgb(252,245,245); fill-rule: nonzero; opacity: 1;" transform=" translate(-453.76, -399.9044)" d="M 436.91 404.77 c 1.82 -4.8 3.64 -9.61 5.46 -14.41 c -3.7 -1.26 -6.67 -2.27 -9.64 -3.28 c 3.38 -1.38 6.77 -2.76 10.15 -4.13 c 3.63 -0.8 7.27 -1.6 10.9 -2.4 c 0.25 0.46 0.5 0.92 0.75 1.38 c -1.93 1.64 -3.87 3.27 -5.8 4.91 c -2.87 4.65 -2.93 9.28 0.05 13.91 c 1.08 1.25 2.26 2.42 3.21 3.76 c 4.96 6.91 11.24 9.86 19.69 6.91 c 0.69 -0.24 1.69 0.44 3.11 0.86 c -3.02 5.76 -7.54 7.43 -13.26 6.88 c -2.34 -0.73 -4.68 -1.45 -7.02 -2.18 c -4.63 -3.55 -9.26 -7.1 -13.88 -10.65 c 0.65 -0.65 1.29 -1.29 1.94 -1.94 C 440.68 404.52 438.8 404.65 436.91 404.77 C 436.91 404.78 436.91 404.77 436.91 404.77 z" stroke-linecap="round"/>
</g>
		<g transform="matrix(1 0 0 1 -499.0199 -173.975)" id="Layer_1">
<path style="stroke: none; stroke-width: 1; stroke-dasharray: none; stroke-linecap: butt; stroke-dashoffset: 0; stroke-linejoin: miter; stroke-miterlimit: 4; is-custom-font: none; font-file-url: none; fill: rgb(251,240,239); fill-rule: nonzero; opacity: 1;" transform=" translate(-460.9802, -366.025)" d="M 481.12 360.89 c -4.26 2.95 -8.53 5.9 -13.47 9.31 c 0.38 1.77 0.89 4.19 1.41 6.61 c -1.16 -0.26 -2.31 -0.53 -4.05 -0.92 c 0.64 3.54 1.18 6.51 1.71 9.48 c -4.62 -6.56 -4.62 -6.56 -9.62 -8 c 0.55 -2.13 1.09 -4.28 1.33 -5.22 c -4.89 -3.79 -10.1 -6.35 -13.03 -10.52 c -2.71 -3.84 -6.7 -8.6 -3.17 -14.95 c 4.34 4.85 8.52 9.51 12.7 14.18 c 5.92 3.18 11.89 2.85 17.9 0.27 c 1.97 -0.9 3.94 -1.81 5.9 -2.71 C 479.53 359.23 480.33 360.06 481.12 360.89 z" stroke-linecap="round"/>
</g>
		<g transform="matrix(1 0 0 1 -460.805 -182.7181)" id="Layer_1">
<path style="stroke: none; stroke-width: 1; stroke-dasharray: none; stroke-linecap: butt; stroke-dashoffset: 0; stroke-linejoin: miter; stroke-miterlimit: 4; is-custom-font: none; font-file-url: none; fill: rgb(253,246,245); fill-rule: nonzero; opacity: 1;" transform=" translate(-499.195, -357.2819)" d="M 481.12 360.89 c -0.8 -0.83 -1.6 -1.66 -2.39 -2.48 c 4.5 -4.59 9 -9.17 13.31 -13.57 c 5.07 14.16 10.94 17.51 27.62 15.24 c -7.53 13.9 -19.45 12.76 -31.98 -3.33 C 485.52 358.11 483.32 359.5 481.12 360.89 z" stroke-linecap="round"/>
</g>
		<g transform="matrix(1 0 0 1 -297.535 -140.5251)" id="Layer_1">
<path style="stroke: none; stroke-width: 1; stroke-dasharray: none; stroke-linecap: butt; stroke-dashoffset: 0; stroke-linejoin: miter; stroke-miterlimit: 4; is-custom-font: none; font-file-url: none; fill: rgb(49,61,125); fill-rule: nonzero; opacity: 1;" transform=" translate(-662.465, -399.4749)" d="M 632.48 385.05 c 0.94 -0.98 1.89 -1.97 2.83 -2.95 c 18.29 11.14 37.87 20.2 57.14 34.46 c -4.44 0 -6.76 0.72 -8.14 -0.11 C 666.95 406.11 649.73 395.55 632.48 385.05 z" stroke-linecap="round"/>
</g>
		<g transform="matrix(1 0 0 1 -491.645 -108.0458)" id="Layer_1">
<path style="stroke: none; stroke-width: 1; stroke-dasharray: none; stroke-linecap: butt; stroke-dashoffset: 0; stroke-linejoin: miter; stroke-miterlimit: 4; is-custom-font: none; font-file-url: none; fill: rgb(249,227,227); fill-rule: nonzero; opacity: 1;" transform=" translate(-468.355, -431.9542)" d="M 454.5 416.97 c 2.34 0.73 4.68 1.45 7.02 2.18 c -0.7 12.91 2.81 16.79 20.69 22.89 c -6.92 8.69 -17.75 4.62 -22.04 -2.91 c -2.48 -4.35 -2.8 -9.95 -4.05 -14.99 C 455.54 421.76 455.04 419.36 454.5 416.97 z" stroke-linecap="round"/>
</g>
		<g transform="matrix(1 0 0 1 -313.69 -112.575)" id="Layer_1">
<path style="stroke: none; stroke-width: 1; stroke-dasharray: none; stroke-linecap: butt; stroke-dashoffset: 0; stroke-linejoin: miter; stroke-miterlimit: 4; is-custom-font: none; font-file-url: none; fill: rgb(57,62,124); fill-rule: nonzero; opacity: 1;" transform=" translate(-646.31, -427.425)" d="M 620.4 417.04 c 1.54 -0.8 3.08 -1.6 4.62 -2.4 c 15.49 5.24 42.7 19.52 47.2 25.57 C 654.41 433.73 637.18 425.89 620.4 417.04 z" stroke-linecap="round"/>
</g>
		<g transform="matrix(1 0 0 1 -480.085 -155.3953)" id="Layer_1">
<path style="stroke: none; stroke-width: 1; stroke-dasharray: none; stroke-linecap: butt; stroke-dashoffset: 0; stroke-linejoin: miter; stroke-miterlimit: 4; is-custom-font: none; font-file-url: none; fill: rgb(251,241,240); fill-rule: nonzero; opacity: 1;" transform=" translate(-479.915, -384.6047)" d="M 466.73 385.37 c -0.54 -2.97 -1.07 -5.94 -1.71 -9.48 c 1.74 0.4 2.9 0.66 4.05 0.92 c 4.59 3.11 9.19 6.23 13.16 8.92 c 4.26 -0.42 8.05 -0.79 12.58 -1.23 C 485.74 396.11 476.38 396.11 466.73 385.37 z" stroke-linecap="round"/>
</g>
		<g transform="matrix(1 0 0 1 180.975 335.9)" id="Layer_1">
<path style="stroke: none; stroke-width: 1; stroke-dasharray: none; stroke-linecap: butt; stroke-dashoffset: 0; stroke-linejoin: miter; stroke-miterlimit: 4; is-custom-font: none; font-file-url: none; fill: rgb(251,238,238); fill-rule: nonzero; opacity: 1;" transform=" translate(-1140.975, -875.9)" d="M 1152.64 862.49 c 0.91 0.1 1.83 0.2 2.74 0.31 c -3.38 3.29 -6.75 6.58 -10.97 10.69 c 0.75 2.32 1.84 5.66 2.92 9.01 c -0.86 2.27 -1.73 4.54 -2.59 6.81 c -2.12 -5.7 -4.25 -11.41 -6.69 -17.98 c -2.9 -1.62 -7.19 -4.03 -11.48 -6.43 c 1.42 -0.71 2.84 -1.42 4.26 -2.13 C 1138.14 866.15 1145.38 863.75 1152.64 862.49 z" stroke-linecap="round"/>
</g>
		<g transform="matrix(1 0 0 1 -341.71 -19.0221)" id="Layer_1">
<path style="stroke: none; stroke-width: 1; stroke-dasharray: none; stroke-linecap: butt; stroke-dashoffset: 0; stroke-linejoin: miter; stroke-miterlimit: 4; is-custom-font: none; font-file-url: none; fill: rgb(252,246,246); fill-rule: nonzero; opacity: 1;" transform=" translate(-618.29, -520.9779)" d="M 634.86 514.59 c 0.7 0.72 1.4 1.44 2.1 2.17 c -11.86 11.61 -23.86 13.68 -36.18 6.25 c -0.37 -2.25 -0.73 -4.51 -1.16 -7.12 c 2.75 1.2 4.76 2.07 6.78 2.95 C 616.57 521.96 625.99 520.13 634.86 514.59 z" stroke-linecap="round"/>
</g>
		<g transform="matrix(1 0 0 1 197.885 348.7942)" id="Layer_1">
<path style="stroke: none; stroke-width: 1; stroke-dasharray: none; stroke-linecap: butt; stroke-dashoffset: 0; stroke-linejoin: miter; stroke-miterlimit: 4; is-custom-font: none; font-file-url: none; fill: rgb(252,243,242); fill-rule: nonzero; opacity: 1;" transform=" translate(-1157.885, -888.7942)" d="M 1144.74 889.3 c 0.86 -2.27 1.73 -4.54 2.59 -6.81 c 5.51 6.58 12.31 7.36 19.95 4.45 c 0.59 -0.22 1.27 -0.18 1.91 -0.26 c 0.61 0.7 1.23 1.4 1.84 2.1 c -4.3 1.98 -8.44 4.57 -12.95 5.8 C 1152.75 896.03 1147.83 894.49 1144.74 889.3 z" stroke-linecap="round"/>
</g>
		<g transform="matrix(1 0 0 1 157.29 356.562)" id="Layer_1">
<path style="stroke: none; stroke-width: 1; stroke-dasharray: none; stroke-linecap: butt; stroke-dashoffset: 0; stroke-linejoin: miter; stroke-miterlimit: 4; is-custom-font: none; font-file-url: none; fill: rgb(251,244,244); fill-rule: nonzero; opacity: 1;" transform=" translate(-1117.29, -896.562)" d="M 1110.61 892.73 c 5.91 0.94 11.82 1.89 18.75 2.99 c -6.55 7.04 -13.44 6.38 -20.71 3.53 c -1.05 -2.27 -2.11 -4.54 -3.43 -7.4 C 1107.49 892.22 1109.05 892.47 1110.61 892.73 z" stroke-linecap="round"/>
</g>
		<g transform="matrix(1 0 0 1 246.9757 396.64)" id="Layer_1">
<path style="stroke: none; stroke-width: 1; stroke-dasharray: none; stroke-linecap: butt; stroke-dashoffset: 0; stroke-linejoin: miter; stroke-miterlimit: 4; is-custom-font: none; font-file-url: none; fill: rgb(145,146,180); fill-rule: nonzero; opacity: 1;" transform=" translate(-1206.9757, -936.64)" d="M 1205.08 936.76 c 0.7 -2.96 1.8 -5.9 2 -8.9 c 0.34 -5.09 0.11 -10.23 0.12 -15.34 c 0.59 2.87 1.62 5.73 1.68 8.62 c 0.24 10.32 0.27 20.65 0.1 30.98 c -0.05 2.89 -1.04 5.76 -1.59 8.64 c -0.2 -2.67 -0.39 -5.35 -0.59 -8.03 c -0.31 -4.88 2.38 -10.14 -1.88 -14.51 C 1204.81 937.72 1204.86 937.23 1205.08 936.76 z" stroke-linecap="round"/>
</g>
		<g transform="matrix(1 0 0 1 -333.8088 -203.755)" id="Layer_1">
<path style="stroke: none; stroke-width: 1; stroke-dasharray: none; stroke-linecap: butt; stroke-dashoffset: 0; stroke-linejoin: miter; stroke-miterlimit: 4; is-custom-font: none; font-file-url: none; fill: rgb(240,241,244); fill-rule: nonzero; opacity: 1;" transform=" translate(-626.1912, -336.245)" d="M 621.07 336.58 c 0 -2.86 0 -5.72 0 -9.27 c 7.83 4 11.76 9.3 9.7 17.87 C 627.53 342.31 624.3 339.45 621.07 336.58 z" stroke-linecap="round"/>
</g>
		<g transform="matrix(1 0 0 1 -301.94 -12.0503)" id="Layer_1">
<path style="stroke: none; stroke-width: 1; stroke-dasharray: none; stroke-linecap: butt; stroke-dashoffset: 0; stroke-linejoin: miter; stroke-miterlimit: 4; is-custom-font: none; font-file-url: none; fill: rgb(249,236,236); fill-rule: nonzero; opacity: 1;" transform=" translate(-658.06, -527.9497)" d="M 651.31 524.53 c 5.46 0 10.92 0 15.87 0 c -4.67 7.72 -8.19 8.66 -18.24 4.05 C 649.73 527.23 650.52 525.88 651.31 524.53 z" stroke-linecap="round"/>
</g>
		<g transform="matrix(1 0 0 1 -359.4559 -26.27)" id="Layer_1">
<path style="stroke: none; stroke-width: 1; stroke-dasharray: none; stroke-linecap: butt; stroke-dashoffset: 0; stroke-linejoin: miter; stroke-miterlimit: 4; is-custom-font: none; font-file-url: none; fill: rgb(248,224,223); fill-rule: nonzero; opacity: 1;" transform=" translate(-600.5441, -513.73)" d="M 606.41 518.83 c -2.01 -0.88 -4.03 -1.75 -6.78 -2.95 c 0.42 2.61 0.79 4.87 1.16 7.12 c -6.12 -4.75 -7.46 -10.72 -4.84 -18.54 C 599.73 509.66 603.07 514.25 606.41 518.83 z" stroke-linecap="round"/>
</g>
		<g transform="matrix(1 0 0 1 146.1933 351.38)" id="Layer_1">
<path style="stroke: none; stroke-width: 1; stroke-dasharray: none; stroke-linecap: butt; stroke-dashoffset: 0; stroke-linejoin: miter; stroke-miterlimit: 4; is-custom-font: none; font-file-url: none; fill: rgb(245,211,210); fill-rule: nonzero; opacity: 1;" transform=" translate(-1106.1933, -891.38)" d="M 1110.61 892.73 c -1.56 -0.26 -3.12 -0.51 -5.4 -0.88 c 1.33 2.87 2.38 5.13 3.43 7.4 c -7.64 -5.77 -8.13 -7.16 -5.21 -15.74 C 1105.95 886.74 1108.28 889.73 1110.61 892.73 z" stroke-linecap="round"/>
</g>
		<g transform="matrix(1 0 0 1 -316.82 -23.145)" id="Layer_1">
<path style="stroke: none; stroke-width: 1; stroke-dasharray: none; stroke-linecap: butt; stroke-dashoffset: 0; stroke-linejoin: miter; stroke-miterlimit: 4; is-custom-font: none; font-file-url: none; fill: rgb(244,206,206); fill-rule: nonzero; opacity: 1;" transform=" translate(-643.18, -516.855)" d="M 639.1 515.16 c 2.72 -2.06 5.44 -4.12 8.16 -6.18 c -4.02 3.09 -0.25 6.58 -0.52 9.87 c -0.61 1.96 -1.21 3.92 -1.82 5.88 C 642.99 521.54 641.05 518.35 639.1 515.16 z" stroke-linecap="round"/>
</g>
		<g transform="matrix(1 0 0 1 -525.385 -156.29)" id="Layer_1">
<path style="stroke: none; stroke-width: 1; stroke-dasharray: none; stroke-linecap: butt; stroke-dashoffset: 0; stroke-linejoin: miter; stroke-miterlimit: 4; is-custom-font: none; font-file-url: none; fill: rgb(251,237,237); fill-rule: nonzero; opacity: 1;" transform=" translate(-434.615, -383.71)" d="M 442.87 382.95 c -3.38 1.38 -6.77 2.76 -10.15 4.13 c -2.12 -1.63 -4.24 -3.26 -6.36 -4.89 c 0.33 -0.62 0.65 -1.23 0.98 -1.85 C 432.51 381.21 437.69 382.08 442.87 382.95 z" stroke-linecap="round"/>
</g>
		<g transform="matrix(1 0 0 1 -533.805 -132.475)" id="Layer_1">
<path style="stroke: none; stroke-width: 1; stroke-dasharray: none; stroke-linecap: butt; stroke-dashoffset: 0; stroke-linejoin: miter; stroke-miterlimit: 4; is-custom-font: none; font-file-url: none; fill: rgb(249,227,226); fill-rule: nonzero; opacity: 1;" transform=" translate(-426.195, -407.525)" d="M 424.99 409.91 c -1.81 -0.9 -3.62 -1.79 -5.43 -2.69 c 0.1 -0.69 0.2 -1.38 0.31 -2.08 c 4.32 0 8.64 0 12.96 0 C 430.22 406.73 427.6 408.32 424.99 409.91 z" stroke-linecap="round"/>
</g>
		<g transform="matrix(1 0 0 1 -529.05 -132.2484)" id="Layer_1">
<path style="stroke: none; stroke-width: 1; stroke-dasharray: none; stroke-linecap: butt; stroke-dashoffset: 0; stroke-linejoin: miter; stroke-miterlimit: 4; is-custom-font: none; font-file-url: none; fill: rgb(248,238,238); fill-rule: nonzero; opacity: 1;" transform=" translate(-430.95, -407.7516)" d="M 424.99 409.91 c 2.61 -1.59 5.22 -3.18 7.83 -4.77 c 1.36 -0.12 2.72 -0.24 4.08 -0.37 l 0.01 0.01 C 434.69 410.55 430.52 411.81 424.99 409.91 z" stroke-linecap="round"/>
</g>
		<g transform="matrix(1 0 0 1 -25.115 15.12)" id="Layer_1">
<path style="stroke: none; stroke-width: 1; stroke-dasharray: none; stroke-linecap: butt; stroke-dashoffset: 0; stroke-linejoin: miter; stroke-miterlimit: 4; is-custom-font: none; font-file-url: none; fill: rgb(208,180,188); fill-rule: nonzero; opacity: 1;" transform=" translate(-934.885, -555.12)" d="M 936.84 546.8 c 0.09 5.55 0.18 11.09 0.27 16.64 c -1.48 -2.02 -2.97 -4.04 -4.45 -6.06 C 934.06 553.85 935.45 550.32 936.84 546.8 z" stroke-linecap="round"/>
</g>
		<g transform="matrix(1 0 0 1 -496.12 -178.0106)" id="Layer_1">
<path style="stroke: none; stroke-width: 1; stroke-dasharray: none; stroke-linecap: butt; stroke-dashoffset: 0; stroke-linejoin: miter; stroke-miterlimit: 4; is-custom-font: none; font-file-url: none; fill: rgb(250,233,233); fill-rule: nonzero; opacity: 1;" transform=" translate(-463.88, -361.9894)" d="M 472.83 361.11 c -6.01 2.59 -11.98 2.91 -17.9 -0.27 C 460.89 360.94 466.86 361.03 472.83 361.11 z" stroke-linecap="round"/>
</g>
		<g transform="matrix(1 0 0 1 -311.88 -16.28)" id="Layer_1">
<path style="stroke: none; stroke-width: 1; stroke-dasharray: none; stroke-linecap: butt; stroke-dashoffset: 0; stroke-linejoin: miter; stroke-miterlimit: 4; is-custom-font: none; font-file-url: none; fill: rgb(250,232,232); fill-rule: nonzero; opacity: 1;" transform=" translate(-648.12, -523.72)" d="M 644.93 524.73 c 0.61 -1.96 1.21 -3.92 1.82 -5.88 c 1.52 1.9 3.04 3.79 4.56 5.69 c -0.79 1.35 -1.58 2.7 -2.37 4.05 C 647.6 527.3 646.27 526.01 644.93 524.73 z" stroke-linecap="round"/>
</g>
		<g transform="matrix(1 0 0 1 17.8365 9.775)" id="Layer_1">
<path style="stroke: none; stroke-width: 1; stroke-dasharray: none; stroke-linecap: butt; stroke-dashoffset: 0; stroke-linejoin: miter; stroke-miterlimit: 4; is-custom-font: none; font-file-url: none; fill: rgb(244,247,249); fill-rule: nonzero; opacity: 1;" transform=" translate(-977.8365, -549.775)" d="M 974.94 555.36 c -0.47 -0.71 0.91 -1.85 1.1 -2.23 c 1.58 -3.1 0.97 -5.92 2.7 -8.94 c 0.7 1.49 1.39 2.98 2.09 4.48 C 978.87 550.9 976.91 553.13 974.94 555.36 z" stroke-linecap="round"/>
</g>
		<g transform="matrix(1 0 0 1 -512.3294 -146.215)" id="Layer_1">
<path style="stroke: none; stroke-width: 1; stroke-dasharray: none; stroke-linecap: butt; stroke-dashoffset: 0; stroke-linejoin: miter; stroke-miterlimit: 4; is-custom-font: none; font-file-url: none; fill: rgb(251,237,236); fill-rule: nonzero; opacity: 1;" transform=" translate(-447.6706, -393.785)" d="M 448.78 400.74 c -2.98 -4.63 -2.92 -9.26 -0.05 -13.91 C 448.74 391.47 448.76 396.11 448.78 400.74 z" stroke-linecap="round"/>
</g>
		<g transform="matrix(1 0 0 1 246.1278 405.475)" id="Layer_1">
<path style="stroke: none; stroke-width: 1; stroke-dasharray: none; stroke-linecap: butt; stroke-dashoffset: 0; stroke-linejoin: miter; stroke-miterlimit: 4; is-custom-font: none; font-file-url: none; fill: rgb(242,186,186); fill-rule: nonzero; opacity: 1;" transform=" translate(-1206.1278, -945.475)" d="M 1204.91 938.22 c 4.26 4.36 1.57 9.63 1.88 14.51 C 1206.17 947.89 1205.54 943.06 1204.91 938.22 z" stroke-linecap="round"/>
</g>
		<g transform="matrix(1 0 0 1 166.915 322.105)" id="Layer_1">
<path style="stroke: none; stroke-width: 1; stroke-dasharray: none; stroke-linecap: butt; stroke-dashoffset: 0; stroke-linejoin: miter; stroke-miterlimit: 4; is-custom-font: none; font-file-url: none; fill: rgb(237,177,176); fill-rule: nonzero; opacity: 1;" transform=" translate(-1126.915, -862.105)" d="M 1130.83 862.76 c -1.42 0.71 -2.84 1.42 -4.26 2.13 c -1.19 -1.27 -2.38 -2.55 -3.57 -3.82 c 0.37 -0.58 0.74 -1.17 1.11 -1.75 C 1126.34 860.46 1128.59 861.61 1130.83 862.76 z" stroke-linecap="round"/>
</g>
		<g transform="matrix(1 0 0 1 241.96 378.28)" id="Layer_1">
<path style="stroke: none; stroke-width: 1; stroke-dasharray: none; stroke-linecap: butt; stroke-dashoffset: 0; stroke-linejoin: miter; stroke-miterlimit: 4; is-custom-font: none; font-file-url: none; fill: rgb(220,108,108); fill-rule: nonzero; opacity: 1;" transform=" translate(-1201.96, -918.28)" d="M 1201.26 911.99 c 0.47 4.19 0.94 8.39 1.4 12.58 C 1202.19 920.37 1201.72 916.18 1201.26 911.99 z" stroke-linecap="round"/>
</g>
		<g transform="matrix(1 0 0 1 -194.82 -178.715)" id="Layer_1">
<path style="stroke: none; stroke-width: 1; stroke-dasharray: none; stroke-linecap: butt; stroke-dashoffset: 0; stroke-linejoin: miter; stroke-miterlimit: 4; is-custom-font: none; font-file-url: none; fill: rgb(221,90,89); fill-rule: nonzero; opacity: 1;" transform=" translate(-765.18, -361.285)" d="M 790.42 369.45 c -16.62 1.78 -33.24 3.57 -50.48 5.42 c 0.47 -6.29 1.03 -11.47 1.19 -16.67 c 0.15 -4.87 2.28 -6.99 7.22 -7.41 c 8.56 -0.72 17.06 -2.02 25.6 -3.09 c 3.19 5.73 6.09 11.66 9.71 17.11 C 785.05 366.93 788.11 367.94 790.42 369.45 z" stroke-linecap="round"/>
</g>
		<g transform="matrix(1 0 0 1 -94.665 -186.69)" id="Layer_1">
<path style="stroke: none; stroke-width: 1; stroke-dasharray: none; stroke-linecap: butt; stroke-dashoffset: 0; stroke-linejoin: miter; stroke-miterlimit: 4; is-custom-font: none; font-file-url: none; fill: rgb(221,90,89); fill-rule: nonzero; opacity: 1;" transform=" translate(-865.335, -353.31)" d="M 886.96 364.1 c -14.12 0.49 -28.24 0.98 -43.25 1.51 c 0.84 -8.27 1.6 -15.64 2.48 -24.32 c 10.45 -0.1 20.25 -0.19 30.06 -0.28 C 879.82 348.71 883.39 356.4 886.96 364.1 z" stroke-linecap="round"/>
</g>
		<g transform="matrix(1 0 0 1 -193.78 -154.585)" id="Layer_1">
<path style="stroke: none; stroke-width: 1; stroke-dasharray: none; stroke-linecap: butt; stroke-dashoffset: 0; stroke-linejoin: miter; stroke-miterlimit: 4; is-custom-font: none; font-file-url: none; fill: rgb(219,90,89); fill-rule: nonzero; opacity: 1;" transform=" translate(-766.22, -385.415)" d="M 795.3 386.34 c -18.95 2.99 -37.9 5.98 -58.16 9.18 c 0.75 -5.17 1.47 -10.13 2.34 -16.12 c 16.96 -1.39 33.37 -2.74 49.77 -4.09 C 791.27 378.99 793.29 382.67 795.3 386.34 z" stroke-linecap="round"/>
</g>
		<g transform="matrix(1 0 0 1 -91.65 -163.315)" id="Layer_1">
<path style="stroke: none; stroke-width: 1; stroke-dasharray: none; stroke-linecap: butt; stroke-dashoffset: 0; stroke-linejoin: miter; stroke-miterlimit: 4; is-custom-font: none; font-file-url: none; fill: rgb(218,90,90); fill-rule: nonzero; opacity: 1;" transform=" translate(-868.35, -376.685)" d="M 894.96 382.54 c -17.48 0 -34.95 0 -53.22 0 c 0.56 -3.89 1.01 -7.02 1.64 -11.39 c 15.42 -0.11 30.54 -0.21 45.66 -0.32 C 891.01 374.73 892.98 378.64 894.96 382.54 z" stroke-linecap="round"/>
</g>
		<g transform="matrix(1 0 0 1 -200.35 -208.5867)" id="Layer_1">
<path style="stroke: none; stroke-width: 1; stroke-dasharray: none; stroke-linecap: butt; stroke-dashoffset: 0; stroke-linejoin: miter; stroke-miterlimit: 4; is-custom-font: none; font-file-url: none; fill: rgb(219,91,90); fill-rule: nonzero; opacity: 1;" transform=" translate(-759.65, -331.4133)" d="M 776.31 341.42 c -10.61 1.39 -21.22 2.77 -33.32 4.35 c 0.93 -9.24 0.97 -17.09 2.71 -24.54 c 1.19 -5.07 6.7 -4.14 10.93 -4.05 c 3.25 6.08 6.75 12.05 9.65 18.29 C 768.39 339.99 771.51 341.88 776.31 341.42 z" stroke-linecap="round"/>
</g>
		<g transform="matrix(1 0 0 1 -96.27 -217.85)" id="Layer_1">
<path style="stroke: none; stroke-width: 1; stroke-dasharray: none; stroke-linecap: butt; stroke-dashoffset: 0; stroke-linejoin: miter; stroke-miterlimit: 4; is-custom-font: none; font-file-url: none; fill: rgb(218,91,90); fill-rule: nonzero; opacity: 1;" transform=" translate(-863.73, -322.15)" d="M 880.41 333.43 c -10.78 0.54 -21.56 1.07 -33.36 1.66 c 1.03 -9.16 1.9 -16.87 2.91 -25.88 c 4.06 0 7.54 0 11.02 0 c 2.61 5.39 5.78 10.58 7.68 16.21 C 870.7 331.47 874.34 333.91 880.41 333.43 z" stroke-linecap="round"/>
</g>
		<g transform="matrix(1 0 0 1 -70.11 -187.812)" id="Layer_1">
<path style="stroke: none; stroke-width: 1; stroke-dasharray: none; stroke-linecap: butt; stroke-dashoffset: 0; stroke-linejoin: miter; stroke-miterlimit: 4; is-custom-font: none; font-file-url: none; fill: rgb(249,248,250); fill-rule: nonzero; opacity: 1;" transform=" translate(-889.89, -352.188)" d="M 886.96 364.1 c -3.57 -7.7 -7.14 -15.4 -10.71 -23.09 c 4.59 -0.25 9.17 -0.49 14.25 -0.77 c 4.33 7.27 8.52 14.31 13.03 21.88 C 897.9 365.34 892.27 363.61 886.96 364.1 z" stroke-linecap="round"/>
</g>
		<g transform="matrix(1 0 0 1 -86.735 -219.0175)" id="Layer_1">
<path style="stroke: none; stroke-width: 1; stroke-dasharray: none; stroke-linecap: butt; stroke-dashoffset: 0; stroke-linejoin: miter; stroke-miterlimit: 4; is-custom-font: none; font-file-url: none; fill: rgb(249,249,250); fill-rule: nonzero; opacity: 1;" transform=" translate(-873.265, -320.9825)" d="M 880.41 333.43 c -6.07 0.47 -9.71 -1.97 -11.75 -8.01 c -1.9 -5.63 -5.07 -10.82 -7.68 -16.21 c 7.03 -1.94 12.12 -0.15 15.37 6.92 c 2.47 5.37 5.87 10.32 9.2 16.04 C 883.42 332.7 881.91 333.07 880.41 333.43 z" stroke-linecap="round"/>
</g>
		<g transform="matrix(1 0 0 1 -191.18 -211.4502)" id="Layer_1">
<path style="stroke: none; stroke-width: 1; stroke-dasharray: none; stroke-linecap: butt; stroke-dashoffset: 0; stroke-linejoin: miter; stroke-miterlimit: 4; is-custom-font: none; font-file-url: none; fill: rgb(250,249,250); fill-rule: nonzero; opacity: 1;" transform=" translate(-768.82, -328.5498)" d="M 776.31 341.42 c -4.8 0.47 -7.92 -1.43 -10.03 -5.96 c -2.9 -6.24 -6.4 -12.21 -9.65 -18.29 c 2.92 -0.46 5.85 -0.92 9.88 -1.56 c 4.68 7.92 9.45 15.98 14.5 24.52 C 778.81 340.73 777.56 341.07 776.31 341.42 z" stroke-linecap="round"/>
</g>
		<g transform="matrix(1 0 0 1 -174.25 -181.9292)" id="Layer_1">
<path style="stroke: none; stroke-width: 1; stroke-dasharray: none; stroke-linecap: butt; stroke-dashoffset: 0; stroke-linejoin: miter; stroke-miterlimit: 4; is-custom-font: none; font-file-url: none; fill: rgb(246,247,249); fill-rule: nonzero; opacity: 1;" transform=" translate(-785.75, -358.0708)" d="M 790.42 369.45 c -2.31 -1.51 -5.36 -2.52 -6.77 -4.63 c -3.62 -5.44 -6.52 -11.37 -9.71 -17.11 c 7.96 -2.69 13.18 -0.03 16.44 7.73 c 1.75 4.19 4.48 7.97 7.18 12.65 C 794.67 368.64 792.54 369.04 790.42 369.45 z" stroke-linecap="round"/>
</g>
		<g transform="matrix(1 0 0 1 -57.7 -163.69)" id="Layer_1">
<path style="stroke: none; stroke-width: 1; stroke-dasharray: none; stroke-linecap: butt; stroke-dashoffset: 0; stroke-linejoin: miter; stroke-miterlimit: 4; is-custom-font: none; font-file-url: none; fill: rgb(247,248,250); fill-rule: nonzero; opacity: 1;" transform=" translate(-902.3, -376.31)" d="M 894.96 382.54 c -1.97 -3.9 -3.95 -7.81 -5.92 -11.71 c 6.19 -0.56 12.38 -1.11 18.73 -1.68 c 2.56 4.7 4.72 8.67 7.79 14.32 C 907.72 383.12 901.34 382.83 894.96 382.54 z" stroke-linecap="round"/>
</g>
		<g transform="matrix(1 0 0 1 -203.8578 -239.5964)" id="Layer_1">
<path style="stroke: none; stroke-width: 1; stroke-dasharray: none; stroke-linecap: butt; stroke-dashoffset: 0; stroke-linejoin: miter; stroke-miterlimit: 4; is-custom-font: none; font-file-url: none; fill: rgb(237,221,224); fill-rule: nonzero; opacity: 1;" transform=" translate(-756.1422, -300.4036)" d="M 763.51 310.12 c -3.51 0.64 -6.02 1.33 -8.58 1.52 c -3.5 0.27 -5.92 -1.48 -6.07 -5.07 c -0.24 -5.55 -0.06 -11.11 1.65 -17.43 C 754.7 295.9 758.89 302.66 763.51 310.12 z" stroke-linecap="round"/>
</g>
		<g transform="matrix(1 0 0 1 -100.3749 -248.7909)" id="Layer_1">
<path style="stroke: none; stroke-width: 1; stroke-dasharray: none; stroke-linecap: butt; stroke-dashoffset: 0; stroke-linejoin: miter; stroke-miterlimit: 4; is-custom-font: none; font-file-url: none; fill: rgb(237,230,235); fill-rule: nonzero; opacity: 1;" transform=" translate(-859.625, -291.2091)" d="M 854.6 280.42 c 1.08 1.57 2.25 3.08 3.23 4.71 c 3.05 5.06 6.03 10.16 9.09 15.36 c -10.06 3.26 -13.3 1.49 -14.37 -7.82 c -0.45 -3.89 -0.07 -7.88 -0.07 -11.83 C 853.18 280.7 853.89 280.56 854.6 280.42 z" stroke-linecap="round"/>
</g>
		<g transform="matrix(1 0 0 1 -161.835 -159.6021)" id="Layer_1">
<path style="stroke: none; stroke-width: 1; stroke-dasharray: none; stroke-linecap: butt; stroke-dashoffset: 0; stroke-linejoin: miter; stroke-miterlimit: 4; is-custom-font: none; font-file-url: none; fill: rgb(236,234,240); fill-rule: nonzero; opacity: 1;" transform=" translate(-798.165, -380.3979)" d="M 795.3 386.34 c -2.02 -3.68 -4.03 -7.35 -6.05 -11.03 c 12.32 -1.76 12.32 -1.76 17.83 9.58 C 802.95 385.4 799.13 385.87 795.3 386.34 z" stroke-linecap="round"/>
</g>
		<g transform="matrix(1 0 0 1 199.17 335.2833)" id="Layer_1">
<path style="stroke: none; stroke-width: 1; stroke-dasharray: none; stroke-linecap: butt; stroke-dashoffset: 0; stroke-linejoin: miter; stroke-miterlimit: 4; is-custom-font: none; font-file-url: none; fill: rgb(225,103,102); fill-rule: nonzero; opacity: 1;" transform=" translate(-1159.17, -875.2833)" d="M 1169.2 886.69 c -0.64 0.08 -1.33 0.04 -1.91 0.26 c -7.64 2.92 -14.44 2.14 -19.95 -4.45 c -1.08 -3.34 -2.17 -6.69 -2.92 -9.01 c 4.22 -4.11 7.59 -7.4 10.97 -10.69 c 1.6 -0.3 3.19 -0.6 4.29 -0.8 c 4.58 6.31 9.09 12.52 14.24 19.61 C 1172.96 882.62 1171.08 884.65 1169.2 886.69 z" stroke-linecap="round"/>
</g>
		<g transform="matrix(1 0 0 1 -515.015 -319.96)" id="Layer_1">
<polygon style="stroke: none; stroke-width: 1; stroke-dasharray: none; stroke-linecap: butt; stroke-dashoffset: 0; stroke-linejoin: miter; stroke-miterlimit: 4; is-custom-font: none; font-file-url: none; fill: rgb(255,255,255); fill-rule: nonzero; opacity: 1;" points="-160.005,-139.14 159.935,127.2 161.325,139.14 -161.325,-122.43 "/>
</g>
		<g transform="matrix(1 0 0 1 -540.105 -79.1)" id="Layer_1">
<polygon style="stroke: none; stroke-width: 1; stroke-dasharray: none; stroke-linecap: butt; stroke-dashoffset: 0; stroke-linejoin: miter; stroke-miterlimit: 4; is-custom-font: none; font-file-url: none; fill: rgb(255,255,255); fill-rule: nonzero; opacity: 1;" points="134.645,89.6 -134.745,-102.02 -134.195,-90.65 134.745,102.02 "/>
</g>
</g>
</g>
</svg>