<?xml version="1.0" encoding="utf-8"?>
<!-- Generator: Adobe Illustrator 25.4.1, SVG Export Plug-In . SVG Version: 6.00 Build 0)  -->
<svg version="1.1" id="Layer_1" xmlns="http://www.w3.org/2000/svg" xmlns:xlink="http://www.w3.org/1999/xlink" x="0px" y="0px"
	 viewBox="0 0 1920 1080" style="enable-background:new 0 0 1920 1080;" xml:space="preserve">
<style type="text/css">
	.st0{fill:#EE7CDB;}
	.st1{fill:#113185;}
	.st2{fill:#113186;}
	.st3{fill:#133286;}
	.st4{fill:#143386;}
	.st5{fill:#FED75F;}
	.st6{fill:#FEFEFE;}
	.st7{fill:#FEF677;}
	.st8{fill:#1C378A;}
	.st9{fill:#173288;}
	.st10{fill:#F3F1F7;}
	.st11{fill:#324D96;}
	.st12{fill:#274491;}
	.st13{fill:#2B4893;}
	.st14{fill:#23388D;}
	.st15{fill:#354E97;}
	.st16{fill:#40599D;}
	.st17{fill:#3D4F88;}
	.st18{fill:#606A86;}
	.st19{fill:#284591;}
	.st20{fill:#123186;}
	.st21{fill:#FEFDFE;}
	.st22{fill:#153287;}
	.st23{fill:#F18DC4;}
	.st24{fill:#FEF252;}
	.st25{fill:#334E97;}
	.st26{fill:#1D338A;}
	.st27{fill:#FBC873;}
	.st28{fill:#FABF7F;}
	.st29{fill:#2F3B91;}
	.st30{fill:#F9BF7F;}
	.st31{fill:#E9C7EB;}
	.st32{fill:#213E8E;}
	.st33{fill:#24378D;}
	.st34{fill:#28398E;}
	.st35{fill:#41499A;}
	.st36{fill:#DFD7EB;}
	.st37{fill:#ECE3F2;}
	.st38{fill:#E1DDED;}
	.st39{fill:#9E99C9;}
	.st40{fill:#C53CBF;}
	.st41{fill:#FCFCFD;}
	.st42{fill:#383D94;}
	.st43{fill:#4D52A0;}
	.st44{fill:#F0EDF6;}
	.st45{fill:#4861A2;}
	.st46{fill:#2F4B95;}
	.st47{fill:#F3B971;}
	.st48{fill:#D668A3;}
	.st49{fill:#3F4197;}
	.st50{fill:#E0DEED;}
	.st51{fill:#203E8D;}
	.st52{fill:#C1FEAF;}
	.st53{fill:#1B398A;}
	.st54{fill:#F2F0F7;}
	.st55{fill:#D172D0;}
	.st56{fill:#3B559B;}
	.st57{fill:#294692;}
	.st58{fill:#183288;}
	.st59{fill:#373C93;}
	.st60{fill:#393F95;}
	.st61{fill:#445DA0;}
	.st62{fill:#254290;}
	.st63{fill:#1C3B8B;}
	.st64{fill:#1D3B8B;}
	.st65{fill:#F8F5FA;}
	.st66{fill:#22348B;}
	.st67{fill:#264290;}
	.st68{fill:#22348C;}
	.st69{fill:#EB81D9;}
	.st70{fill:#123286;}
	.st71{fill:#213A8A;}
	.st72{fill:#FAF8FB;}
	.st73{fill:#FBDB7A;}
	.st74{fill:#D56FAC;}
	.st75{fill:#F8EF56;}
	.st76{fill:#FEF153;}
	.st77{fill:#F5DD80;}
	.st78{fill:#D162AF;}
	.st79{fill:#ADA881;}
	.st80{fill:#F3A2BB;}
	.st81{fill:#FBEE55;}
	.st82{fill:#2E4894;}
	.st83{fill:#586AA9;}
	.st84{fill:#C43DBF;}
	.st85{fill:#FCD361;}
	.st86{fill:#FABE80;}
	.st87{fill:#FEF451;}
	.st88{fill:#D464A7;}
	.st89{fill:#FDCF6A;}
	.st90{fill:#FAEA7B;}
	.st91{fill:#F18AC8;}
	.st92{fill:#FEF056;}
	.st93{fill:#F2B772;}
	.st94{fill:#FABD82;}
	.st95{fill:#D3B966;}
	.st96{fill:#EFAD79;}
	.st97{fill:#CC4FB3;}
	.st98{fill:#CE55B0;}
	.st99{fill:#FBC479;}
	.st100{fill:#F7B094;}
	.st101{fill:#FBC676;}
	.st102{fill:#FDD460;}
	.st103{fill:#FAD163;}
	.st104{fill:#FCD164;}
	.st105{fill:#233789;}
	.st106{fill:#DF8393;}
	.st107{fill:#F49FAE;}
	.st108{fill:#FDF156;}
	.st109{fill:#ECA67D;}
	.st110{fill:#D571AA;}
	.st111{fill:#FAD691;}
	.st112{fill:#F357EA;}
	.st113{fill:#E54FDD;}
	.st114{fill:#CF41C8;}
	.st115{fill:#F356EA;}
	.st116{fill:#F055E8;}
	.st117{fill:#F3B874;}
	.st118{fill:#FDF351;}
	.st119{fill:#EAB690;}
	.st120{fill:#D86F9F;}
	.st121{fill:#EDBE8A;}
	.st122{fill:#D568A4;}
	.st123{fill:#F7F6FA;}
	.st124{fill:#EA76D9;}
	.st125{fill:#A555A1;}
	.st126{fill:#D15DAA;}
	.st127{fill:#D8799A;}
	.st128{fill:#C048B7;}
	.st129{fill:#525D7D;}
	.st130{fill:#E7AC94;}
	.st131{fill:#ECA77D;}
	.st132{fill:#E19785;}
	.st133{fill:#244588;}
	.st134{fill:#375D8E;}
	.st135{fill:#4D5682;}
	.st136{fill:#DF9785;}
	.st137{fill:#D29284;}
	.st138{fill:#AB46B0;}
	.st139{fill:#3C6290;}
	.st140{fill:#2E518C;}
</style>
<g>
	<path class="st0" d="M857.89,976.87c-0.31-0.65-0.63-1.31-0.94-1.96c-4.69-8.67-9.37-17.34-14.06-26.01
		c-10.98-16.33-21.96-32.66-32.94-48.99c-7.33-9.03-14.67-18.07-22-27.1l0.04,0.05c-0.17-0.63-0.14-1.42-0.52-1.87
		c-7.48-8.88-14.59-18.12-22.62-26.46c-11.87-12.33-24.32-24.1-36.7-35.94c-19.47-18.62-38.95-37.25-58.7-55.58
		c-12.42-11.53-25.55-22.3-38-33.81c-22.96-21.21-45.94-42.41-68.33-64.22c-10.93-10.65-20.74-22.47-30.68-34.08
		c-15.61-18.24-28.93-38.15-40.94-58.89c-6.81-11.77-12.92-23.95-19.44-35.89c-0.72-1.31-2.11-2.25-3.19-3.36
		c-0.68-2.15-1.35-4.3-2.03-6.45c-2.01-6.2-4.01-12.4-6.02-18.61c-0.93-4.63-1.87-9.27-2.8-13.9c-1.08-7.27-2.15-14.54-3.23-21.81
		c-0.29-4.35-0.58-8.71-0.87-13.06c2.33,1.67,4.66,3.35,6.98,5.02c1.35,1.16,2.51,2.73,4.07,3.4c4.82,2.09,9.79,3.83,14.7,5.71
		c0.7,2.36,1.4,4.73,2.11,7.09c1.63,3.61,3.26,7.22,4.89,10.82c5.88,10.72,15.14,16.53,27.09,17.69c3.46,0.33,7.18-0.93,10.6-2.03
		c1.15-0.37,2.19-2.45,2.37-3.87c0.08-0.65-1.91-1.99-3.15-2.31c-4.16-1.1-8.4-1.88-12.62-2.78c-11.74-4.65-19.97-12.85-24.75-24.53
		c7.48-0.45,14.34-2.82,20.42-7.13c8.21-5.82,16.92-11.13,22.35-20.07c4.63-5.57,9.25-11.15,15.08-18.16
		c1.64,2.33,2.77,4.7,4.58,6.32c3.39,3.06,3.76,5.6,1.44,9.88c-3.72,6.89-6.27,14.42-9.32,21.68c-0.94,1.63-2.26,3.15-2.76,4.9
		c-5.92,20.89-5.6,41.76,1.55,62.22c2.92,8.35,7.47,16.13,11.28,24.17c0.66,1,1.32,2,1.99,3.01c9.54,16.28,21.61,30.13,38.13,39.7
		c1.97,1.08,3.94,2.17,5.91,3.25c4.68,2.32,9.35,4.64,14.03,6.97c1.12,0.65,2.17,1.54,3.37,1.92c24.39,7.73,49.31,8.04,74.22,3.97
		c30.8-5.03,56.24-20.03,76.43-43.86c1.26,1.04,2.54,2.05,3.78,3.12c10.18,8.79,21.12,16.33,33.86,20.99
		c8,2.57,15.96,5.29,24.03,7.6c2.34,0.67,3.4,1.32,3.15,3.91c-0.84,8.73-1.51,17.47-2.25,26.21c-0.52,1.73-1.04,3.46-1.56,5.2
		c-0.32,7.32-0.63,14.64-0.95,21.96c0.28,18.3-0.07,36.63,0.98,54.88c1.51,26.04,8.54,50.84,20.97,73.76
		c16.81,30.99,40.1,55.5,73.68,68.57c13.94,5.43,28.18,10.04,43.32,10.82c2,0.09,4,0.18,6,0.26c1.99,0.55,3.99,1.09,5.98,1.64
		c4.62,1.42,9.24,2.84,13.86,4.26l0-0.02c15.61,3.31,31.23,6.62,46.84,9.92c0.44,0.22,0.87,0.61,1.33,0.63
		c18.65,1.1,37.31,2.17,55.96,3.24c5.36-0.31,10.72-0.62,16.07-0.93c-10.1,19.55-23.51,36.66-39.52,51.61
		c-21.58,20.16-45.55,37.16-71.18,51.82c-34.83,19.92-71.06,36.13-111.15,42.28c-9.39,1.44-9.35,1.67-12.57-7.31
		c-0.9-2.5-1.76-5.03-2.87-7.44C867.8,998.2,862.83,987.54,857.89,976.87z"/>
	<path class="st1" d="M802.55,586.01c-12.74-4.66-23.68-12.21-33.86-20.99c-1.24-1.07-2.52-2.08-3.78-3.12
		c-0.09-0.65-0.19-1.3-0.28-1.95c1.46-2.11,2.92-4.22,4.38-6.33c0.36-0.01,0.71-0.01,1.07-0.02c4.23,3.97,8.3,8.14,12.73,11.89
		c13.25,11.24,29.67,15.99,45.54,21.81c0.86,0.32,2.27-0.83,3.42-1.3c7.83,0.63,12.99-4.4,18.33-8.84
		c18.48-15.39,30.46-35.45,40.79-56.74c12.13-25.01,20.19-51.36,26.15-78.41c3.98-18.03,7.86-36.09,11.78-54.13
		c0.41-0.86,0.99-1.68,1.2-2.58c3.99-17.63,8.04-35.24,11.84-52.91c1.6-7.43,2.65-14.97,3.95-22.46c2.5-8.27,4.44-16.76,7.6-24.76
		c7.39-18.71,15.35-37.19,23.14-55.74c1.09-2.59,2.2-4.82-1.03-6.86c-6.39-4.02-6.29-4.23-2.92-11.17
		c16.43-33.72,37.73-64.22,61.43-93.13c6.17-7.53,12.91-14.6,20.25-22.84c-7.84,1.65-14.56,3.06-21.27,4.48
		c-5.47,0.62-10.93,1.23-16.4,1.85c-6.5,0.88-13.05,1.5-19.5,2.68c-59.46,10.89-119.05,21.15-178.3,33.11
		c-36.68,7.4-73.15,16.31-109.16,26.52c-57.15,16.2-110.95,40.63-162.11,70.8c-3.65,2.15-6.72,5.27-10.06,7.94
		c-0.2-0.14-0.42-0.25-0.66-0.34c-4.65,0.33-9.29,0.66-13.9,0.99c0.96-1.21,1.94-2.43,2.92-3.65c17.37-10.37,34.41-21.35,52.2-30.96
		c30.41-16.42,61.71-30.99,94.83-41.28c5.53-1.72,11.13-3.2,16.7-4.79c1.47-0.14,3-0.07,4.41-0.44
		c27.87-7.36,55.6-15.34,83.63-22.02c26.06-6.21,52.45-11.02,78.68-16.5c3.89-0.81,6.66-2.38,7.97-6.96
		c1.86-6.51,4.41-13.13,13.34-13.18c2.1-0.01,4.2-1.75,6.3-2.7c46.93-14.69,95.41-22.02,143.76-29.76
		c34.66-5.55,69.55-9.66,104.33-14.43c1.31-0.18,2.6-0.51,3.89-0.76c2.43,0.36,4.86,0.72,7.96,1.17c-1.14,1.86-1.92,3.45-2.99,4.83
		c-13.21,17.11-26.85,33.89-39.61,51.33c-26.69,36.48-50.85,74.59-71.74,114.72c-4.09,7.86-7.49,9.25-15.8,7.31
		c-7.11-1.67-14.18-3.54-21.34-4.95c-2.3-0.45-4.84,0.32-7.28,0.53c-1.02,1.22-2.4,2.28-3.01,3.68c-2.85,6.53-6.09,12.98-8.08,19.78
		c-6.56,22.39-12.82,44.86-18.83,67.4c-2.55,9.57-4.2,19.38-6.25,29.07c-1.29,6.76-2.58,13.51-3.87,20.27
		c-0.06,1.91-0.11,3.81-0.17,5.72c-0.68,1.45-1.63,2.84-2,4.37c-4.71,19.17-8.9,38.48-14.12,57.5
		c-4.62,16.79-10.37,33.27-15.63,49.88c-2.04,6.46-4.09,12.92-6.13,19.38c-0.44,1.24-0.84,2.51-1.34,3.73
		c-7.8,18.97-18.34,36.39-30.26,53.01c-7.78,8.66-15.59,17.29-25.64,23.46c-1.35,0.83-2.75,1.63-4.22,2.19
		c-9.2,3.51-5.9,11.6-6.72,18.18c-0.56,8.77-1.54,17.55-1.59,26.32c-0.16,28.81,1.46,57.51,6.73,85.9
		c0.99,5.14,1.56,10.4,3.06,15.39c3.68,12.19,9.31,23.49,16.84,33.8c7.34,8.97,14.69,17.94,22.04,26.91
		c1.92,1.74,3.7,3.68,5.79,5.19c7.38,5.33,14.86,10.52,22.31,15.76c7.37,4.59,14.72,9.22,22.14,13.73c1.66,1.01,3.55,1.63,5.33,2.44
		c8.82,3.92,17.65,7.85,26.47,11.77c1.66,1.03,3.32,2.06,4.98,3.1c0.26,0.71,0.51,1.42,0.92,2.55c-6.72-1.06-13.07-1.5-19.09-3.16
		c-7.92-2.19-15.7-5.07-23.32-8.16c-19.28-7.83-36.11-19.51-51.33-33.58c-10.04-9.29-16.62-21.37-24.94-32.03
		c-5.56-7.12-8.9-16.26-12.06-24.92c-10.79-29.63-13.04-60.77-13.91-91.86c-0.56-19.9,1.57-39.87,2.53-59.81
		c0.2-4.18-2.19-6.73-6.44-7.08c-3.11-0.25-6.23-0.78-9.28-1.46C811.48,588.39,807.02,587.15,802.55,586.01z M1041.12,179.09
		c0.45-0.47,0.98-0.9,1.34-1.43c10.71-16.03,21.17-32.24,32.2-48.04c7.78-11.15,16.35-21.76,24.57-32.61
		c9.63-11.11,19.26-22.22,28.88-33.34c-0.23-0.4-0.47-0.81-0.7-1.21c-2.51,0.46-5.01,0.92-7.52,1.39c-5.26,0.66-10.55,1.18-15.79,2
		c-43.05,6.69-86.08,13.42-129.12,20.15c-4.75,0.91-9.49,1.89-14.25,2.72c-12.08,2.11-24.28,3.69-36.23,6.33
		c-17.58,3.89-34.99,8.53-52.47,12.84c-3.93,3.58-5.21,8.15-5.8,13.51c13.63-2.38,26.46-4.58,39.27-6.86
		c18.02-3.21,36.03-6.5,54.04-9.74c16.73-3.01,33.47-5.96,50.19-9.06c6.09-1.13,12.1-2.64,18.15-3.97
		c13.98-2.08,27.96-4.16,41.94-6.24c-34.2,39.83-66.22,80.26-88.42,127.98c9.91,5.44,20.02,8.41,30.54,10.22
		c3.16,2.25,5.15,1.08,6.49-2.18c0.5-1.22,1.12-2.4,1.75-3.56C1027.14,205,1034.13,192.04,1041.12,179.09z"/>
	<path class="st2" d="M453.91,448.92c0.29,4.35,0.58,8.71,0.87,13.06c0.73,7.26,1.46,14.52,2.19,21.77
		c-0.02,1.16-0.22,2.36-0.02,3.48c5.21,29.55,16.02,57.07,30.34,83.29c1.24,2.27,3.02,4.25,4.55,6.37c1.73,3.21,3.45,6.41,5.18,9.62
		c3.92,6.49,7.84,12.97,11.76,19.46c4.02,5.31,8.03,10.62,12.05,15.92c1.74,2.56,3.48,5.11,5.21,7.67c1.13,1.78,2.08,3.7,3.43,5.3
		c3.2,3.82,6.47,7.6,9.92,11.19c13.45,13.99,26.98,27.9,40.48,41.84c10.31,9.02,20.63,18.03,30.94,27.05
		c9.67,7.97,19.29,16.01,29.04,23.89c3.92,3.17,8.12,6,12.19,8.98c26.99,24.62,53.97,49.23,80.96,73.85
		c1.09,1.4,2.03,2.94,3.29,4.17c7.5,7.37,15.08,14.67,22.63,22c5.29,6.15,10.59,12.31,15.88,18.46c6.13,7.12,12.43,14.1,18.31,21.43
		c2.99,3.73,5.22,8.09,7.79,12.16c0.71,1.22,1.41,2.43,2.32,4c-3.1-0.37-5.7-0.68-8.29-0.99c-0.68-0.7-1.35-1.4-2.03-2.1
		c-5.66-6.83-10.86-14.12-17.08-20.4c-18.71-18.92-37.8-37.46-56.78-56.11c-4.97-4.88-10.09-9.59-15.15-14.38
		c-1.33-1.33-2.67-2.67-4-4c-3.75-3.58-7.42-7.24-11.32-10.66c-0.71-0.63-2.34-0.21-3.54-0.28l-0.15-0.08
		c-2.66-2.67-5.32-5.34-7.98-8.02c-10.66-9.66-21.23-19.41-32.02-28.92c-3.4-3-7.39-5.34-11.1-7.98c-1.61-0.73-3.23-1.46-4.84-2.18
		c-2.63-0.95-5.23-2.01-7.9-2.85c-20.36-6.36-41.41-8.01-62.54-8.87c-22.95-0.93-45.93-1.21-68.88-2.32
		c-27.69-1.34-53.85-8.3-77.67-22.96c-0.29-0.76-0.36-1.78-0.91-2.23c-9.62-8.02-19.28-15.99-28.96-23.93
		c-1.24-1.02-2.64-1.85-3.97-2.76c-9.72-10.78-18.43-22.24-24.4-35.6c-0.41-1.74-0.62-3.55-1.27-5.2
		c-2.42-6.18-5.57-12.13-7.34-18.48c-2.19-7.85-3.63-15.96-4.77-24.05c-1.48-10.48-5.06-20.92-1.44-31.65
		c0.3,1.56,0.74,3.1,0.87,4.67c0.31,3.89,0.02,7.88,0.8,11.66c1.3,6.32,3.38,12.48,4.89,18.76c1.67,6.95,2.12,14.35,4.79,20.86
		c4.44,10.84,9.86,21.33,15.54,31.59c8.35,15.09,19.72,27.87,33.27,38.44c19.47,15.2,41.97,24.11,66.03,28.73
		c13.26,2.55,26.82,3.5,40.25,5.18c18.95,0.36,37.94,0.11,56.83,1.28c15.34,0.95,30.56,3.62,45.85,5.48
		c0.66,0.08,1.38-0.39,2.07-0.6c3.11-1.28,0.86-2.46-0.18-3.37c-7.59-6.62-15.24-13.17-22.88-19.74
		c-7.18-6.63-14.62-13.02-21.5-19.96c-10.39-10.49-20.39-21.37-30.55-32.08c-2.53-3.25-4.93-6.61-7.62-9.73
		c-3.82-4.43-7.84-8.68-11.78-13c-1.94-2.64-3.87-5.27-5.81-7.91c-0.77-1.77-1.36-3.64-2.34-5.29
		c-6.13-10.35-12.34-20.65-18.52-30.97c-2.66-5-5.33-10-7.99-15c-5.47-12.24-10.98-24.46-16.39-36.71
		c-2.37-5.36-4.56-10.81-6.84-16.21c-6.93-21.47-10.69-43.52-11.92-66.02c0-5.42,0-10.84,0-16.91c2.91,3.12,5.09,5.44,7.27,7.77
		C453.32,448.18,453.62,448.55,453.91,448.92z"/>
	<path class="st2" d="M706.89,820.84c-6-3.36-11.77-7.25-18.04-9.97c-10.14-4.4-20.61-8.03-30.95-11.98
		c-0.32-0.33-0.59-0.79-0.98-0.96c-21-9.14-43.02-14.65-65.85-13.75c-26.86,1.06-53.72,3.37-80.46,6.28
		c-31.54,3.44-63,5.12-94.49,0.41c-15.61-2.33-30.97-5.86-45.35-12.72c-8.4-5.46-17.02-10.61-25.13-16.47
		c-8.72-6.3-17.4-12.79-25.31-20.06c-11.64-10.69-20.82-23.53-29.45-36.73c-0.38-0.9-0.7-1.83-1.16-2.68
		c-2.93-5.33-6.26-10.48-8.75-16.01c-3.36-7.45-6.36-15.1-8.99-22.84c-1.82-5.33-2.76-10.96-4.09-16.46
		c-0.55-3.01-1.18-6.02-1.64-9.04c-0.35-2.31-0.62-4.65-0.68-6.99c-0.06-2.32,0.85-4.87,0.17-6.92c-1.46-4.38-4.38-8.34-5.42-12.77
		c-1.59-6.72-2.16-13.69-2.95-20.58c-0.11-0.93,1.05-2,1.63-3c0.96,0.9,2.59,1.68,2.76,2.71c0.83,4.9,1.19,9.88,1.88,14.81
		c0.17,1.19,1.65,2.53,1.35,3.38c-1.18,3.28,0.38,4.98,2.91,6.41c1,4.69,1.85,9.41,3.08,14.04c0.56,2.13,1.85,4.07,2.81,6.09
		c-0.02,1.57-0.42,3.25-0.01,4.7c1.68,5.83,3.76,11.55,5.42,17.39c8.3,29.24,23.3,54.62,44.09,76.65
		c10.65,11.29,22.9,20.56,36.51,27.97c2.36,1.28,5.31,1.48,7.99,2.18c1.98,0.76,4.02,1.39,5.93,2.29
		c24.45,11.65,50.55,16.01,77.28,17.54c42,2.41,83.17-6.53,124.79-9.29c24.76-1.64,49.4-1.33,73.13,7.46
		c0.66,0.48,1.26,1.09,1.99,1.43c8.38,3.9,16.76,7.79,25.19,11.58c0.79,0.35,1.9-0.01,2.86-0.04l-0.02-0.02
		c2.65,2.34,5.17,4.86,7.99,6.98c4.22,3.17,8.65,6.05,13,9.06c2.24,2.08,4.64,4.03,6.64,6.32
		C707.18,817.96,706.8,819.61,706.89,820.84z"/>
	<path class="st3" d="M267.88,614.89c-2.52-1.42-4.09-3.12-2.91-6.41c0.3-0.85-1.18-2.19-1.35-3.38c-0.69-4.93-1.05-9.91-1.88-14.81
		c-0.17-1.03-1.8-1.82-2.76-2.71c-0.57,1-1.74,2.08-1.63,3c0.79,6.89,1.37,13.86,2.95,20.58c1.04,4.43,3.96,8.39,5.42,12.77
		c0.69,2.06-0.23,4.6-0.17,6.92c0.06,2.34,0.33,4.68,0.68,6.99c0.46,3.03,1.09,6.03,1.64,9.04c-0.46-0.73-1.08-1.42-1.35-2.21
		c-1.67-4.89-3.27-9.8-4.89-14.7c-3.59-21.59-7.49-43.14-10.7-64.79c-4.34-29.25-7.56-58.68-12.34-87.85
		c-4.67-28.53-13.14-56.04-27.32-81.45c-4.73-8.47-10.33-16.45-15.54-24.66c-0.66-1.64-0.88-3.78-2.06-4.83
		c-5.39-4.8-10.68-9.9-16.75-13.7c-4.54-2.84-10.21-3.85-15.38-5.68c-1.25-0.42-2.46-1.07-3.74-1.24
		c-10.24-1.34-20.48-2.58-30.73-3.86c-2.07-0.26-4.14-0.56-6.2-0.85c-4.98-5.83,1.1-6.33,4.02-8.34c8.88-2.33,17.77-4.66,26.65-7
		c5.73-0.61,11.46-1.57,17.21-1.76c22.65-0.74,45.09,0.28,66.34,9.51c0.85,0.37,1.99,0.05,2.99,0.06c5.6,3.12,11.19,6.25,16.79,9.37
		c0.67,0.67,1.34,1.33,2.01,2c0.11,3.69-2.44,3.05-4.31,2.24c-5.88-2.55-11.56-5.56-17.45-8.09c-5.93-2.56-11.84-5.61-18.07-6.94
		c-10.95-2.33-22.1-4.16-33.25-4.94c-7.56-0.53-15.27,1.08-22.92,1.73c-5.73,1.28-11.46,2.55-17.19,3.83
		c-0.13,0.25-0.43,0.64-0.35,0.74c0.28,0.37,0.65,0.87,1.05,0.94c7.15,1.26,14.3,2.47,21.46,3.68c11.03,4.56,21.8,9.54,30.17,18.45
		c1.38,2.37,2.58,4.88,4.18,7.1c5.82,8.11,11.74,16.16,17.72,24.16c0.7,0.93,2,1.42,3.03,2.11c3.01,5.68,6.39,11.21,8.96,17.08
		c9.22,21.02,15.55,42.92,19.1,65.62c0.29,5.44,0.59,10.87,0.88,16.31c-1.69,0.85-3.38,1.71-5.7,2.88
		c-0.88,7.56,0.72,11.79,6.17,13.46c-0.85,2.15-1.67,4.23-2.53,6.4c0.98-0.41,1.81-0.75,2.15-0.9c0,5.51,0,10.95,0,16.4
		c0.44,0.25,0.88,0.5,1.32,0.76c0.86-1.22,2.13-2.33,2.48-3.68c0.43-1.67,0.11-3.53,0.11-5.31c0.31,0.56,0.84,1.09,0.91,1.68
		c1.39,11.25,2.66,22.51,4.14,33.74c0.25,1.92,1.33,3.73,2.03,5.59c0.64,5.01,1.28,10.03,1.92,15.04c0.14,3.91-0.06,7.87,0.48,11.72
		C264.69,596.1,266.35,605.49,267.88,614.89z M252.81,544.98c-0.37,0.21-0.74,0.42-1.11,0.62c3.2,3.89,2.3,8.46,2.32,13.04
		c0.02,4.82,0.95,9.66,1.71,14.46c0.66,4.14,1.62,8.24,2.45,12.36c0.85-0.19,1.7-0.37,2.55-0.56c-0.26-1.96-0.4-3.95-0.82-5.88
		c-0.4-1.85-1.47-3.6-1.6-5.44c-0.6-8.19-0.65-16.44-1.55-24.59c-0.66-6-2.34-11.88-3.56-17.82c-0.63,0.07-1.26,0.14-1.9,0.22
		C251.81,535.91,252.31,540.44,252.81,544.98z M242.73,488.16c3.18,0.43,5.18-0.09,4.81-3.43c-0.2-1.79-0.45-3.64-1.08-5.31
		c-0.92-2.43-2.2-4.72-3.73-7.92C242.73,477.67,242.73,482.67,242.73,488.16z"/>
	<path class="st4" d="M160.89,328.89c7.65-0.65,15.36-2.26,22.92-1.73c11.15,0.78,22.3,2.61,33.25,4.94
		c6.24,1.33,12.14,4.38,18.07,6.94c5.88,2.54,11.57,5.54,17.45,8.09c1.86,0.81,4.42,1.45,4.31-2.24
		c6.21,5.04,12.84,9.66,18.55,15.21c13.62,13.26,24.15,28.86,32.97,45.66c0.81,1.54,2.48,2.61,3.76,3.9l-0.24,0.13l0.25-0.1
		c-0.88,5.87,1.35,10.45,5.85,14.09l0,0c0.1,2.32-0.34,4.84,0.43,6.92c1.53,4.16,3.73,8.08,5.65,12.1c0.67,2.03,1.47,4.03,1.98,6.1
		c8.79,35.85,11.1,72.64,16.01,109.06c2.8,20.73,6.45,41.41,11.06,61.82c2.31,10.2,7.64,19.71,11.6,29.54
		c8.66,16.92,21.46,30.28,36.25,41.85c22.9,17.94,49.44,27.13,77.79,31.74c8.82,1.43,17.69,2.58,26.54,3.85
		c-13.42-1.67-26.99-2.63-40.25-5.18c-24.06-4.62-46.55-13.53-66.03-28.73c-13.55-10.57-24.92-23.35-33.27-38.44
		c-5.68-10.26-11.1-20.76-15.54-31.59c-2.67-6.51-3.12-13.91-4.79-20.86c-1.51-6.28-3.59-12.44-4.89-18.76
		c-0.78-3.78-0.49-7.77-0.8-11.66c-0.13-1.57-0.57-3.11-2-3.41c-0.32,0.17,1.13-0.88,1.03-1.74c-3.9-32.97-4.44-66.37-12.8-98.81
		c-0.52,6.17-0.23,12.27,0.44,18.34c1.02,9.35,2.31,18.67,3.48,28c1.31,10.48,2.62,20.96,3.91,31.45
		c0.94,7.63,3.84,15.07,2.14,22.95c-0.04,0.2,0.3,0.49,1.82-0.18c-2.5,9.47,1.08,19.92,2.57,30.4c1.15,8.09,2.58,16.2,4.77,24.05
		c1.77,6.35,4.92,12.3,7.34,18.48c0.64,1.65,0.86,3.46,1.27,5.2c-0.95-1.74-1.98-3.44-2.83-5.23
		c-10.71-22.38-15.3-46.27-18.08-70.74c-3.65-32.07-7.27-64.17-12.25-96.04c-5.27-33.78-16.71-65.44-37.94-92.89
		c-19.71-25.49-44.35-43.95-76.52-49.66C191.32,329.09,175.97,329.73,160.89,328.89z"/>
	<path class="st5" d="M536.81,242.46c0.23,0.08,0.45,0.19,0.66,0.34c2.13,0.1,4.25,0.2,6.38,0.29c0.95,0.66,1.83,1.5,2.87,1.96
		c2.34,1.03,4.77,1.87,7.16,2.79c-1.01,0.02-2.02,0.04-3.03,0.06c-1.25-0.33-2.5-0.92-3.75-0.93c-2.36-0.02-7.43,6.07-6.7,8.6
		c0.32,1.11,2.9,1.57,4.46,2.32c0.01,0.31,0.04,0.62,0.07,0.93c-0.72,0.06-1.43,0.12-2.15,0.17c-8.56-2.04-16.77-0.37-24.89,2.29
		c-1.64,0.91-3.28,1.82-4.92,2.74c-5.25,2.98-10.5,5.95-15.76,8.93c-6.08,5.89-12.16,11.79-18.23,17.68
		c-5.32,6.44-10.64,12.87-15.96,19.31c-1.16,1.55-2.61,2.95-3.42,4.66c-12.19,25.53-17.96,52.34-15.6,80.66
		c0.3,3.59,1.84,7.07,2.81,10.6c0.2,0.27,0.28,0.56,0.25,0.89c-0.15,0.38-0.3,0.76-0.45,1.14c-1.89,4.01-3.79,8.01-5.68,12.02
		c-0.35,0.01-0.7,0.01-1.05,0.02c-4.52-12.83-4.64-26.08-3.62-39.42c0.44-5.79,0.82-11.62,1.78-17.33
		c4.3-25.62,11.85-50.07,26.64-71.82c10.56-15.54,22.71-29.5,39.21-39.02c4.41-2.54,9.21-4.39,13.84-6.56
		C524.07,244.68,530.44,243.57,536.81,242.46z"/>
	<path class="st6" d="M857.89,976.87c4.94,10.67,9.91,21.32,14.8,32.01c1.1,2.41,1.97,4.94,2.87,7.44
		c3.23,8.97,3.18,8.75,12.57,7.31c40.09-6.15,76.31-22.36,111.15-42.28c25.63-14.66,49.6-31.66,71.18-51.82
		c16-14.95,29.41-32.06,39.52-51.61c1.22-0.75,2.45-1.5,3.67-2.25l0.27,0.19c-6.71,10.2-12.62,21.05-20.33,30.43
		c-9.02,10.98-18.95,21.44-29.68,30.74c-13.38,11.58-27.49,22.48-42.18,32.35c-30.16,20.26-62.13,37.3-97.05,47.88
		c-14.03,4.25-28.67,6.54-43.12,9.31c-1.42,0.27-4.24-2-4.98-3.7c-5.1-11.72-9.84-23.59-14.66-35.44
		C860.49,983.95,859.22,980.4,857.89,976.87z"/>
	<path class="st7" d="M439.86,419.93c0.35-0.01,0.7-0.01,1.05-0.02c1.03,3.16,2.05,6.31,3.47,10.67c1.48-2.83,2.3-4.4,3.11-5.96
		c0.81-1.57,1.61-3.16,2.41-4.74c1.05,1.69,2.09,3.37,3.14,5.06c7.51,9.58,15.41,18.66,27.84,22.01c0,0.32,0.01,0.64,0.01,0.96
		c-1.65,4.27-3.29,8.53-4.94,12.8c-5.02-2.25-10.04-4.51-15.05-6.76c-2.33-1.67-4.66-3.35-6.98-5.02c-0.29-0.37-0.58-0.74-0.87-1.11
		c-2.4-3.69-4.8-7.38-7.2-11.07C443.84,431.14,441.85,425.53,439.86,419.93z"/>
	<path class="st8" d="M883.88,100.97c-2.1,0.95-4.19,2.69-6.3,2.7c-8.93,0.05-11.48,6.67-13.34,13.18
		c-1.31,4.58-4.08,6.15-7.97,6.96c-26.23,5.47-52.62,10.29-78.68,16.5c-28.03,6.68-55.76,14.66-83.63,22.02
		c-1.41,0.37-2.94,0.3-4.41,0.44c15.42-4.63,30.66-10.04,46.3-13.73c40.11-9.48,80.4-18.23,120.64-27.15
		c3.18-0.71,5.02-2.14,5.73-5.27C864.86,105.08,873.34,101.59,883.88,100.97z"/>
	<path class="st9" d="M706.89,820.84c-0.09-1.23,0.29-2.88-0.36-3.62c-2-2.29-4.4-4.24-6.64-6.32c1.33-0.33,2.67-0.67,4-1
		c5.05,4.79,10.18,9.51,15.15,14.38c18.98,18.65,38.07,37.19,56.78,56.11c6.22,6.28,11.41,13.57,17.08,20.4
		c-2.67-2.31-5.34-4.62-8-6.93c-4.29-4.65-8.59-9.3-12.88-13.94c-4.37-4.61-8.75-9.22-13.12-13.83
		c-8.82-8.47-17.34-17.27-26.53-25.31C724.25,833.68,715.41,827.45,706.89,820.84z"/>
	<path class="st10" d="M807.89,899.89c7.02,12.01,14.04,24.02,21.06,36.03c-0.24,0.66-0.48,1.32-0.72,1.98
		c-2.95-5.08-5.77-10.25-8.88-15.23c-6.85-10.95-13.26-22.25-20.94-32.6c-9-12.13-19.16-23.41-28.81-35.06
		c1.41,1.1,2.96,2.07,4.21,3.33c4.78,4.79,9.46,9.67,14.18,14.52c0,0-0.04-0.05-0.04-0.05c0.15,0.63,0.11,1.4,0.47,1.87
		C794.88,883.1,801.39,891.49,807.89,899.89z"/>
	<path class="st4" d="M175.89,321.98c15.62,0.07,31.18,0.73,46.37,4.82c4.32,1.16,8.58,2.58,12.77,4.12
		c1.18,0.43,2.05,1.71,3.06,2.6c-1,0-2.14,0.31-2.99-0.06c-21.25-9.23-43.69-10.25-66.34-9.51c-5.75,0.19-11.47,1.15-17.21,1.76
		c1.9-0.57,3.79-1.15,5.69-1.72C163.46,323.33,169.67,322.65,175.89,321.98z"/>
	<path class="st6" d="M828.22,937.9c0.24-0.66,0.48-1.32,0.72-1.98c4.26,8.21,9.09,16.18,12.66,24.68
		c5.7,13.59,10.59,27.52,15.76,41.33c0.45,1.21,0.4,2.6,0.58,3.91c0,0-0.26,0.24-0.26,0.24c-0.25-0.09-0.5-0.17-0.76-0.26
		c-0.63-2-1.26-3.99-1.89-5.99c-0.51-1.9-0.77-3.91-1.56-5.68C845.11,975.38,836.65,956.65,828.22,937.9z"/>
	<path class="st11" d="M534.97,657.79c10.16,10.71,20.16,21.59,30.55,32.08c6.88,6.94,14.31,13.33,21.49,19.96
		c-0.44,0.04-0.87,0.09-1.31,0.13c-10-9.19-20.27-18.12-29.92-27.67c-7.4-7.33-14.02-15.45-20.98-23.22
		C534.86,658.64,534.91,658.22,534.97,657.79z"/>
	<path class="st12" d="M457.68,522.96c2.27,5.41,4.47,10.85,6.84,16.21c5.42,12.26,10.92,24.48,16.39,36.71
		c-0.41,0.03-0.83,0.05-1.24,0.08c-6.54-14.81-13.13-29.6-19.56-44.46C458.95,528.82,458.48,525.82,457.68,522.96z"/>
	<path class="st6" d="M807.89,899.89c-6.5-8.4-13.01-16.79-19.47-25.22c-0.36-0.47-0.32-1.24-0.47-1.87
		c7.33,9.03,14.67,18.07,22,27.1C809.26,899.9,808.57,899.9,807.89,899.89z"/>
	<path class="st13" d="M488.91,590.89c6.18,10.32,12.4,20.62,18.52,30.97c0.98,1.65,1.57,3.52,2.34,5.29
		c-7.35-12.07-14.7-24.13-22.06-36.2C488.11,590.93,488.51,590.91,488.91,590.89z"/>
	<path class="st14" d="M888.1,796.75c5.22,4.17,10.44,8.34,15.66,12.5c3.4,2.87,6.81,5.73,10.21,8.6
		c-7.44-5.24-14.93-10.42-22.31-15.76c-2.09-1.51-3.87-3.45-5.79-5.19C886.61,796.86,887.35,796.81,888.1,796.75z"/>
	<path class="st15" d="M585.71,709.96c0.44-0.04,0.87-0.09,1.31-0.13c7.63,6.57,15.29,13.12,22.88,19.74
		c1.04,0.91,3.29,2.08,0.18,3.37c-5.76-5.37-11.54-10.72-17.28-16.1C590.4,714.58,588.07,712.25,585.71,709.96z"/>
	<path class="st16" d="M534.97,657.79c-0.05,0.43-0.11,0.86-0.16,1.29c-6.41-8.01-12.82-16.01-19.23-24.02
		c3.94,4.33,7.96,8.57,11.78,13C530.04,651.18,532.44,654.54,534.97,657.79z"/>
	<path class="st17" d="M536.81,242.46c-6.37,1.11-12.74,2.22-19.11,3.33c2.71-2,5.42-4,8.13-5.99c-0.98,1.22-1.96,2.45-2.92,3.65
		C527.52,243.12,532.16,242.79,536.81,242.46z"/>
	<path class="st6" d="M842.89,948.9c4.69,8.67,9.37,17.34,14.06,26.01C852.26,966.24,847.57,957.57,842.89,948.9z"/>
	<path class="st18" d="M445.83,436.74c2.4,3.69,4.8,7.38,7.2,11.07c-2.18-2.33-4.35-4.65-7.27-7.77c0,6.07,0,11.49,0,16.91
		C445.79,450.21,445.81,443.47,445.83,436.74z"/>
	<path class="st19" d="M488.91,590.89c-0.4,0.02-0.8,0.04-1.2,0.07c-2.68-4.99-5.36-9.99-8.04-14.98c0.41-0.03,0.83-0.05,1.24-0.08
		C483.58,580.89,486.24,585.89,488.91,590.89z"/>
	<path class="st5" d="M596.87,592.9c-1.97-1.08-3.94-2.17-5.92-3.25c0.32-0.26,0.65-0.53,0.98-0.79c1.3,0.67,2.58,1.83,3.91,1.9
		c2.38,0.13,5.17,0.27,7.11-0.81c2.45-1.36,3.79-4.05,1.96-7.1c0.66,0.01,1.32,0.02,1.97,0.03c0.76,3.71,3.27,5.16,6.79,6.06
		c7.65,1.95,15.05,4.78,23.23,4.1c3.02-0.25,6.19,1.49,9.23,1.32c10.93-0.59,21.83-1.6,32.74-2.46c2.67-0.73,5.37-1.39,8.02-2.21
		c6.42-1.97,13.1-3.4,19.14-6.21c5.02-2.34,9.27-6.33,13.85-9.6c2.35-1.67,4.69-3.33,7.04-5c6.39-2.96,11.58-7.11,13.9-14.08
		c0.65-0.67,1.3-1.34,1.96-2.02c3.79-4.36,7.79-8.61,8.03-14.89c0,0,0.08,0.01,0.08,0.01c1.38-1.14,3.03-2.07,4.07-3.47
		c1.23-1.66,1.94-3.71,2.87-5.58c0.68-1.04,1.44-2.04,2.04-3.12c3.08-5.58,3.51-11.75,4.27-17.92c0.93-7.61,3.69-15.19,3.42-22.7
		c-0.36-10.03-2.31-20.12-4.68-29.92c-1.66-6.88-5.04-13.37-7.96-19.9c-0.52-1.16-2.54-1.65-3.87-2.44c-2.04-2.7-4.09-5.4-6.13-8.1
		c-0.05-0.29-0.09-0.57-0.11-0.86c0.35-0.68,0.7-1.36,1.05-2.05c0.34,0.01,0.67,0.02,1.01,0.04c2,2.82,3.74,5.89,6.11,8.36
		c1.24,1.29,4.13,2.64,5.32,2.05c4.13-2.07,8.99-4.17,7.58-10.46c2,3.66,4.01,7.33,6.01,10.99c0.14,0.64,0.18,1.33,0.44,1.92
		c5.28,12.09,10.5,24.16,11.84,37.52c0.4,3.95,1.7,7.81,2.59,11.7c-0.94,8.34-1.87,16.68-2.81,25.01c-0.38,3.29-0.76,6.58-1.13,9.88
		c-1.58,4.69-3.15,9.37-4.73,14.06c-0.46,0.97-0.93,1.93-1.39,2.9c-0.65,0.45-1.54,0.75-1.9,1.37c-4.36,7.53-8.65,15.11-12.95,22.67
		c-2.23,2.41-4.29,5-6.72,7.18c-6.68,6.01-13.52,11.85-20.29,17.75c-1.95,1.39-3.9,2.77-5.85,4.16c-5.38,2.3-10.75,4.6-16.13,6.91
		c-7.66,2.34-15.33,4.67-22.99,7.01c-10.33,0.99-20.68,2.88-30.99,2.75c-14.82-0.18-29.7-1.36-43.93-6.24
		C608.9,597.32,602.9,595.07,596.87,592.9z"/>
	<path class="st5" d="M480.89,447.9c-0.01-0.32-0.01-0.64-0.01-0.96c7.25-0.06,14.63,0.57,21-4.05c5.69-4.08,11.37-8.16,17.06-12.23
		c5.63-5.72,11.95-10.91,16.71-17.27c7.31-9.74,13.54-20.29,20.23-30.5c1.67-2,3.98-3.74,4.9-6.03c4.6-11.5,8.83-23.15,13.22-34.74
		c0.39-1.03,1-1.97,1.68-3.27c0.39,1.53,0.66,2.6,1.11,4.35c0.81-1.18,1.33-1.65,1.49-2.22c4.5-16.12,5.96-32.47,3.36-49.05
		c-0.25-1.61-1.82-3.02-2.78-4.52c-0.31,0.17-0.63,0.33-0.94,0.5c0.2,2.14,0.41,4.28,0.61,6.42c-0.2,0.04-0.4,0.07-0.6,0.11
		c-1.34-2.52-2.67-5.04-4.01-7.55c4.68-3.1,7.53-7.18,7.03-13.06c0.35,0.64,0.69,1.27,1.04,1.91c-0.01,0.83-0.21,1.71-0.01,2.49
		c3.77,14.82,6.42,29.76,6.04,45.16c-0.07,2.83,1.22,5.69,1.87,8.54c0.33,11.32,3.68,21.72,12.64,28.84
		c9.04,7.19,17.83,16.19,31.37,13.16c2.36,0.39,4.73,0.78,7.1,1.17c-10.83,2.65-21.43,5.29-30.39,12.34
		c3.86-1.35,7.72-2.71,11.59-4.06c-3.14,2.64-6.58,4.52-10.2,5.94c-13.5,5.31-25.5,12.92-35.79,23.14
		c-0.94,0.93-0.93,2.83-1.36,4.28c-1.37,1.63-2.79,3.23-4.11,4.9c-8.35,10.51-16.63,21.1-20.91,34.08
		c-4.32,13.09-4.72,26.6-3.93,40.21c0.21,3.1-0.1,6.35,0.72,9.28c2.52,8.98,5.47,17.83,8.25,26.73c-1.64-1.93-3.29-3.87-5.92-6.96
		c-1.21,3.98-2.12,6.96-3.03,9.94c-2.92-9.25-7.08-18.32-8.44-27.79c-1.54-10.68-1.04-21.74-0.49-32.58
		c0.32-6.33,2.47-12.57,3.8-18.86c3.05-7.26,5.6-14.79,9.32-21.68c2.31-4.28,1.94-6.83-1.44-9.88c-1.8-1.63-2.94-4-4.58-6.32
		c-5.82,7.02-10.45,12.59-15.08,18.16c-1.97,1.75-3.8,3.69-5.93,5.22c-8.15,5.88-16.08,12.17-24.7,17.26
		c-5.77,3.41-12.61,4.82-19.52,2.53c7.83-1.02,4.91-8.35,8.82-13.05C484.42,447.9,482.66,447.9,480.89,447.9z M608.82,374.98
		c-14.48-5.71-22.04-17.55-27.59-32.84c-2.44,7.57-4.4,13.66-6.37,19.75c-4.34,9.51-8.67,19.02-13.01,28.53
		c-1.65,2.2-3.5,4.28-4.91,6.63c-5.18,8.59-4.43,11.45,4.09,16.82c2.68,2.54,3.65-0.51,5.13-1.64
		c11.57-8.77,23.11-17.58,34.66-26.38c5.36-2.34,10.72-4.69,16.08-7.03c-0.1-0.5-0.21-1.01-0.31-1.51
		C614.01,376.53,611.42,375.75,608.82,374.98z"/>
	<path class="st6" d="M787.99,872.86c-4.72-4.85-9.4-9.73-14.18-14.52c-1.26-1.26-2.8-2.23-4.21-3.33
		c-2.98-2.67-5.96-5.35-8.94-8.02c-9.22-8.44-18.43-16.88-27.65-25.32c-26.99-24.62-53.97-49.23-80.96-73.85
		c-1.28-1.26-2.5-2.6-3.86-3.77c-7.78-6.65-15.59-13.26-23.4-19.89c-3.77-3.65-7.4-7.47-11.35-10.92
		c-11.21-9.81-22.93-19.06-33.75-29.29c-11.34-10.72-22.07-22.1-32.66-33.58c-7.51-8.14-14.82-16.56-21.34-25.5
		c-8.58-11.76-16.94-23.77-24.21-36.37c-9.26-16.05-17.31-32.79-25.96-49.19c-0.86-1.64-2.31-2.97-3.49-4.45
		c-1.06-4.04-2.11-8.09-3.17-12.13c1.08,1.11,2.47,2.05,3.19,3.36c6.53,11.94,12.63,24.12,19.44,35.89
		c12.01,20.75,25.33,40.65,40.94,58.89c9.94,11.62,19.76,23.44,30.68,34.08c22.38,21.81,45.37,43.01,68.33,64.22
		c12.45,11.5,25.58,22.28,38,33.81c19.75,18.33,39.22,36.96,58.7,55.58c12.37,11.83,24.82,23.61,36.7,35.94
		c8.04,8.34,15.14,17.59,22.62,26.46C787.84,871.44,787.82,872.23,787.99,872.86z"/>
	<path class="st20" d="M802.55,586.01c4.48,1.14,8.93,2.38,13.43,3.38c3.05,0.68,6.17,1.2,9.28,1.46c4.24,0.35,6.64,2.9,6.44,7.08
		c-0.96,19.94-3.09,39.92-2.53,59.81c0.87,31.08,3.11,62.23,13.91,91.86c3.16,8.66,6.5,17.8,12.06,24.92
		c8.32,10.66,14.9,22.74,24.94,32.03c15.22,14.07,32.05,25.75,51.33,33.58c7.63,3.1,15.4,5.97,23.32,8.16
		c6.02,1.67,12.37,2.1,19.09,3.16c-0.41-1.14-0.67-1.84-0.92-2.55c2.32,0.66,4.61,1.44,6.96,1.94c2.03,0.44,4.12,0.58,6.19,0.85
		c0,0-0.01-0.01-0.01-0.01c1.19,1.09,2.21,2.64,3.61,3.17c3.32,1.27,6.82,2.05,10.25,3.03c7.82,1.43,15.64,2.88,23.46,4.3
		c4.05,0.74,8.13,1.36,12.17,2.15c5.81,1.13,11.57,2.58,17.42,3.49c6.04,0.94,12.14,1.5,18.23,2.04c8.57,0.76,17.15,1.36,25.72,2.03
		c1.68,1.02,3.36,2.04,5.04,3.06c-0.01,0.31-0.03,0.62-0.06,0.93c-5.99,0.34-11.99,0.68-17.98,1.02c-3.49-0.03-7,0.19-10.46-0.14
		c-12.63-1.18-25.23-3.23-37.88-3.63c-10.09-0.32-19.27-3.74-28.9-5.61c-5.56-1.08-10.81-4.91-16.89-2.45c0,0,0,0.02,0,0.02
		c-0.19-0.59-0.22-1.55-0.59-1.71c-3.73-1.57-7.52-3.01-11.3-4.48c-9.02-3.17-18.01-6.48-27.09-9.46
		c-3.59-1.18-7.42-1.64-11.13-2.42c-11.53-6.05-23.46-11.44-34.5-18.28c-30.21-18.72-52.68-44.04-63.45-78.53
		c-3.96-12.67-7.16-25.57-10.71-38.37c-1.09-20.57-2.29-41.13-3.21-61.7c-0.4-8.79-0.22-17.61-0.3-26.41
		c0.74-8.74,1.41-17.48,2.25-26.21c0.25-2.58-0.81-3.23-3.15-3.91C818.51,591.29,810.55,588.57,802.55,586.01z"/>
	<path class="st21" d="M831,711.84c3.55,12.8,6.76,25.7,10.71,38.37c10.77,34.49,33.23,59.82,63.45,78.53
		c11.04,6.84,22.97,12.23,34.5,18.28c3.11,1.55,6.21,3.11,9.32,4.66c1.64,1.03,3.2,2.25,4.95,3.06c3.28,1.52,6.66,2.8,10,4.18
		c-15.14-0.78-29.38-5.39-43.32-10.82c-33.58-13.07-56.87-37.58-73.68-68.57c-12.43-22.92-19.47-47.73-20.97-73.76
		c-1.06-18.25-0.71-36.59-0.98-54.88c0.58-0.27,1.16-0.53,1.73-0.8c0.72,17.42,1.35,34.85,2.24,52.26
		C829.11,705.54,830.29,708.68,831,711.84z"/>
	<path class="st7" d="M591.93,588.87c-0.33,0.26-0.65,0.53-0.98,0.79c-16.52-9.58-28.59-23.42-38.13-39.7
		c2.07-3.08,4.13-6.16,6.2-9.24c0.62,0.39,1.24,0.79,1.86,1.18c0.77,1.63,1.29,3.44,2.34,4.86c10.24,13.9,22.49,25.62,37.62,34.15
		C597.87,583.55,594.9,586.21,591.93,588.87z"/>
	<path class="st22" d="M486.66,480.98c-1.63-3.61-3.26-7.22-4.89-10.82c0-1.61,0-3.23,0-6.71c2.38,2.14,4.3,3.16,5.14,4.75
		c5.34,10.03,12.57,17.75,23.97,20.7c4.33,1.45,8.65,2.89,14.29,4.78c-2.32,1.37-2.96,1.92-3.7,2.17
		c-7.89,2.66-15.18,1.01-21.68-3.73C495.17,488.73,491.02,484.71,486.66,480.98z"/>
	<path class="st23" d="M729.01,588.98c1.95-1.39,3.9-2.77,5.85-4.16c1.1-0.26,2.43-0.21,3.25-0.83
		c9.42-7.07,18.91-14.08,25.67-24.01c0.28-0.03,0.57-0.04,0.85-0.03c0.09,0.65,0.19,1.3,0.28,1.95
		c-20.19,23.84-45.63,38.84-76.43,43.86c-24.91,4.07-49.83,3.76-74.22-3.97c-1.2-0.38-2.25-1.27-3.37-1.92
		c12.01,2.18,23.96,4.97,36.06,6.39c14.35,1.68,28.76,0.94,42.93-2.37c8.67-2.66,17.35-5.33,26.02-7.99
		C720.28,593.6,724.64,591.29,729.01,588.98z"/>
	<path class="st24" d="M559.03,540.71c-2.07,3.08-4.13,6.16-6.2,9.25c-0.66-1-1.32-2-1.99-3.01c-1.65-4.02-3.3-8.04-4.95-12.06
		c0.91-2.98,1.82-5.97,3.03-9.94c2.63,3.1,4.27,5.03,5.92,6.96C556.24,534.84,557.63,537.78,559.03,540.71z"/>
	<path class="st25" d="M468.86,522.75c1.06,4.04,2.11,8.09,3.17,12.13c4.15,9.17,8.23,18.38,12.49,27.51
		c2.29,4.91,4.88,9.68,7.33,14.51c-1.53-2.12-3.3-4.1-4.55-6.37c-14.33-26.22-25.13-53.75-30.34-83.29c-0.2-1.12,0-2.32,0.02-3.48
		c0.35,0.01,0.69,0.02,1.04,0.03c0.93,4.63,1.87,9.27,2.8,13.9c2.01,6.2,4.01,12.4,6.02,18.6
		C467.51,518.45,468.18,520.6,468.86,522.75z"/>
	<path class="st26" d="M989.76,865.07c6.08-2.45,11.33,1.38,16.89,2.45c9.62,1.86,18.81,5.29,28.9,5.61
		c12.65,0.4,25.25,2.44,37.88,3.63c3.46,0.32,6.97,0.11,10.46,0.14c-6.21,0.21-12.45,0.83-18.63,0.52
		c-9.57-0.47-19.1-1.58-28.65-2.42C1020.99,871.68,1005.38,868.38,989.76,865.07z"/>
	<path class="st27" d="M545.89,534.89c1.65,4.02,3.3,8.04,4.95,12.06c-3.81-8.04-8.37-15.82-11.28-24.17
		c-7.15-20.46-7.48-41.34-1.55-62.22c0.5-1.75,1.82-3.27,2.76-4.9c-1.33,6.28-3.48,12.52-3.8,18.86
		c-0.55,10.85-1.05,21.91,0.49,32.58C538.81,516.57,542.97,525.64,545.89,534.89z"/>
	<path class="st28" d="M689.89,603.89c-14.17,3.31-28.59,4.04-42.93,2.37c-12.1-1.41-24.05-4.21-36.06-6.39
		c-4.68-2.32-9.35-4.64-14.03-6.97c6.03,2.17,12.03,4.42,18.09,6.5c14.23,4.88,29.11,6.06,43.93,6.24
		c10.32,0.13,20.66-1.76,30.99-2.75C689.89,603.23,689.89,603.56,689.89,603.89z"/>
	<path class="st29" d="M486.66,480.98c4.36,3.73,8.52,7.75,13.14,11.13c6.49,4.74,13.79,6.39,21.68,3.73
		c0.74-0.25,1.38-0.79,3.7-2.17c-5.64-1.88-9.96-3.33-14.29-4.78c0.02-0.41,0.05-0.82,0.07-1.23c4.21,0.9,8.46,1.68,12.62,2.78
		c1.24,0.33,3.23,1.66,3.15,2.31c-0.18,1.42-1.22,3.5-2.37,3.87c-3.42,1.1-7.14,2.37-10.6,2.03
		C501.8,497.51,492.54,491.69,486.66,480.98z"/>
	<path class="st30" d="M478.84,460.95c6.91,2.29,13.75,0.88,19.52-2.53c8.62-5.09,16.55-11.38,24.7-17.26
		c2.12-1.53,3.96-3.47,5.93-5.22c-5.43,8.94-14.14,14.25-22.35,20.07c-6.09,4.31-12.94,6.68-20.43,7.13
		c-2.18-0.03-4.36-0.05-6.54-0.07c-4.91-1.88-9.88-3.63-14.7-5.71c-1.56-0.67-2.72-2.24-4.07-3.4c5.02,2.25,10.04,4.51,15.05,6.76
		C476.91,460.79,477.87,460.87,478.84,460.95z"/>
	<path class="st31" d="M831,711.84c-0.71-3.16-1.89-6.3-2.05-9.48c-0.88-17.41-1.52-34.84-2.24-52.27
		c-0.26-7.06-0.52-14.11-0.79-21.16c0.52-1.73,1.04-3.46,1.56-5.2c0.08,8.8-0.09,17.62,0.3,26.41
		C828.71,670.71,829.91,691.27,831,711.84z"/>
	<path class="st32" d="M948.97,851.68c-3.11-1.55-6.21-3.11-9.32-4.66c3.72,0.79,7.54,1.25,11.13,2.42
		c9.09,2.98,18.07,6.28,27.09,9.46c-0.66,0.64-1.32,1.28-1.98,1.93c-1.99-0.55-3.99-1.09-5.98-1.64
		C962.94,856.68,955.95,854.18,948.97,851.68z"/>
	<path class="st33" d="M1036.6,874.99c9.55,0.84,19.08,1.95,28.65,2.42c6.19,0.31,12.42-0.31,18.63-0.52
		c5.99-0.34,11.99-0.68,17.98-1.02c-1.11,0.66-2.15,1.5-3.34,1.93c-1.48,0.53-3.08,0.72-4.63,1.06
		c-18.65-1.07-37.31-2.14-55.96-3.24C1037.48,875.6,1037.05,875.21,1036.6,874.99z"/>
	<path class="st34" d="M479.67,463.06c2.18,0.02,4.36,0.05,6.54,0.07c4.78,11.68,13.01,19.88,24.75,24.53
		c-0.02,0.41-0.05,0.82-0.07,1.23c-11.4-2.96-18.62-10.68-23.97-20.7c-0.85-1.59-2.77-2.61-5.14-4.75c0,3.48,0,5.09,0,6.71
		C481.07,467.79,480.37,465.42,479.67,463.06z"/>
	<path class="st35" d="M1093.89,878.87c1.55-0.34,3.15-0.53,4.63-1.06c1.19-0.43,2.23-1.27,3.34-1.93c0.03-0.31,0.05-0.62,0.06-0.93
		c3.64,4.2,6.74,0.51,9.81-0.32c-4.57-1.55-9.2-3.13-13.84-4.7c4.53,0.72,9.11,1.27,13.57,2.31c0.94,0.22,1.46,2.25,2.17,3.45
		c-1.22,0.75-2.45,1.5-3.67,2.25C1104.61,878.24,1099.25,878.56,1093.89,878.87z"/>
	<path class="st36" d="M466.83,516.3c-2.01-6.2-4.01-12.4-6.02-18.6C462.82,503.9,464.82,510.1,466.83,516.3z"/>
	<path class="st37" d="M825.92,628.92c0.26,7.05,0.53,14.11,0.79,21.16c-0.58,0.27-1.16,0.53-1.73,0.8
		C825.29,643.57,825.6,636.25,825.92,628.92z"/>
	<path class="st26" d="M975.9,860.82c0.66-0.64,1.32-1.28,1.98-1.93c3.77,1.47,7.56,2.91,11.3,4.48c0.37,0.16,0.4,1.12,0.59,1.71
		C985.14,863.67,980.52,862.24,975.9,860.82z"/>
	<path class="st38" d="M948.97,851.68c6.98,2.5,13.96,5,20.95,7.51c-2-0.09-4-0.18-6-0.26c-3.34-1.38-6.72-2.66-10-4.18
		C952.17,853.93,950.61,852.71,948.97,851.68z"/>
	<path class="st39" d="M458.01,483.79c-0.35-0.01-0.69-0.02-1.04-0.03c-0.73-7.26-1.46-14.52-2.19-21.78
		C455.86,469.25,456.94,476.52,458.01,483.79z"/>
	<path class="st40" d="M1033,99.9c6.71-1.41,13.43-2.83,21.27-4.48c-7.34,8.24-14.07,15.31-20.25,22.84
		c-23.7,28.9-45,59.41-61.43,93.13c-3.38,6.93-3.48,7.15,2.92,11.17c3.23,2.03,2.12,4.27,1.03,6.86
		c-7.79,18.55-15.75,37.03-23.14,55.74c-3.16,8.01-5.1,16.5-7.6,24.76c-0.43,0.97-0.86,1.95-1.28,2.92
		c-4.84-0.82-4.69,3.66-6.47,6.08c-11.52,5.91-23.33,11.15-36.35,12.46c-16.43,1.66-27.13,0.85-35.84-13.5
		c-2.02-6.19-4.66-12.32-1.99-19c0.55-0.8,1.4-1.54,1.61-2.42c1.87-7.82,3.71-15.66,5.4-23.53c1.69-7.86,1.96-15.66-2.01-23.05
		c-1-1.66-2.01-3.32-3.01-4.98c-3.27-5.69-8.36-8.62-14.6-10.16c-16.61-4.09-32.94-0.64-49.3,1.66
		c-12.86,1.81-25.38,5.94-38.68,4.58c-9.96-1.02-16.35-6.53-15.15-16.21c0.89-7.21,3.63-14.41,6.72-21.06
		c3.69-7.95,9.06-15.11,12.93-22.98c3.86-7.84,3.21-15.68-2.88-22.53c17.44-3.99,34.82-8.28,52.33-11.92
		c41.78-8.69,83.67-16.9,125.44-25.65c26.79-5.61,53.46-11.85,80.18-17.81C1026.24,101.84,1029.62,100.87,1033,99.9z M842.01,174.93
		c-6.16,1.41-12.55,2.42-18.63,4.4c-6.65,2.16-11.18,11.18-9.99,18.31c0.97,5.83,4.91,8.95,12.19,9.58
		c11.95,1.03,22.92-2.35,32.34-9.23c9.83-7.19,6.42-15.33-2.58-19.65C851.44,176.47,846.82,176.11,842.01,174.93z M900.34,291.87
		c0.36-0.05,1.19-0.11,1.99-0.29c12.91-2.87,23.23-13.31,19.16-30.4c-1.22-5.13-2.63-10.46-8.4-11.93
		c-5.71-1.46-10.31,1.51-13.9,5.83c-6.56,7.9-8.58,17.48-8.8,27.31C890.26,288.16,894.75,291.85,900.34,291.87z"/>
	<path class="st40" d="M831.77,586c-1.15,0.47-2.55,1.61-3.42,1.3c-15.87-5.82-32.29-10.58-45.54-21.81
		c-4.42-3.75-8.49-7.91-12.73-11.89c2.93-5.57,5.87-11.14,8.81-16.7c2-6,4-12,6-18c0.99-4.34,1.98-8.68,2.98-13.02
		c4.43-14.11,2.57-28.07-0.99-41.98c-4.87-12.07-8.86-24.61-14.9-36.06c-4.26-8.07-11.31-14.67-17.11-21.92
		c-1.61-1.44-3.14-2.98-4.85-4.29c-6.01-4.63-12.08-9.18-18.12-13.77c-6.34-3.31-12.68-6.61-19.02-9.92
		c-3.61-1.06-7.23-2.12-10.84-3.17c-0.65-0.66-1.2-1.73-1.96-1.92c-14.08-3.4-28.29-6.01-42.87-4.47
		c-12.74,1.35-25.14,0.01-37.33-3.76c2.7-2.14,5.79-3.94,8.03-6.49c3.68-4.19,4.08-9.44,2.19-14.49c-1.58-4.21-5.4-6.6-9.74-6.59
		c-7.53,0.02-14.13,2.82-19.32,8.53c-0.84,0.92-1.94,1.6-2.92,2.4c-0.41-1.02-0.82-2.05-1.24-3.07c-1.97-7.71-3.93-15.42-5.9-23.13
		c-0.05-7.26,0.68-14.64-0.38-21.74c-0.97-6.48-3.89-12.68-5.95-19c-0.3-1-0.61-1.99-0.91-2.99c-0.36-1.55-0.36-3.33-1.15-4.61
		c-3.09-4.94-6.43-9.71-9.68-14.55c-6.7-9.1-16.44-13.02-26.89-15.74c13.58-7.39,27.01-15.08,40.79-22.08
		c13.16-6.69,26.68-12.67,40.05-18.96c1.58,0.22,3.18,0.68,4.75,0.62c5.28-0.18,10.56-0.8,15.84-0.77
		c6.88,0.05,10.23,3.8,10.48,10.55c0.4,10.56-4.23,19.67-8.34,28.85c-7.08,15.79-13.11,31.85-15.05,49.18
		c-1.32,11.75,4.85,24.64,14.33,29.4c2.91,1.78,5.64,4.02,8.77,5.27c12.64,5.07,25.41,2.28,38.18,0.24
		c14.66-2.34,29.36-4.39,44.05-6.56c2.43,0.34,4.86,0.88,7.3,0.98c8.57,0.34,12.3,2.8,14.8,11.2c1.48,4.97,2.48,10.2,2.81,15.37
		c0.89,13.96,1.3,27.94,5.34,41.49c3.84,12.88,11.29,23.31,22.11,31.04c15.06,10.74,32.78,13,50.53,13.74
		c10.19,0.42,20.6-0.34,30.66-2.06c8.99-1.53,17.64-5.11,26.44-7.78c4.96-2.45,9.89-4.97,14.91-7.27c0.46-0.21,1.52,0.88,2.31,1.37
		c-2.27,23.99-7.39,47.41-16.41,69.7C885.24,524.88,866.8,561.26,831.77,586z M866.23,519.21c2.08-0.35,4.61-0.05,6.18-1.14
		c13.62-9.45,17.07-23.59,14.19-38.36c-1.71-8.75-9.59-16.34-16.36-15.7c-6.86,0.64-13.73,2.51-17.36,9.12
		c-3.06,5.58-6.5,11.47-7.48,17.59C843.19,504.48,849.25,519.68,866.23,519.21z M721.38,375.9c6.99-0.97,14.73-4.76,20.4-11.98
		c3.96-5.04,3.71-8.75,0.1-14.02c-4.75-6.93-13.76-9.74-21.53-6.69c-9.1,3.56-17.35,14.42-16.44,21.65
		C704.62,370.48,712.08,375.85,721.38,375.9z M630.83,226.91c-2.86-2.24-4.39-4.3-6.33-4.81c-8.92-2.37-26.32,8.2-25.94,18.69
		c0.05,1.4,1.57,3.6,2.84,3.97c7.1,2.08,13.58,0,18.77-4.85C623.92,236.42,626.76,231.96,630.83,226.91z"/>
	<path class="st0" d="M974.96,85.99c43.04-6.72,86.08-13.46,129.12-20.15c5.24-0.81,10.53-1.34,15.79-2
		c-13.18,16.7-26.84,33.05-39.38,50.21c-10.27,14.06-19.21,29.09-28.74,43.69c-3.67,5.68-7.34,11.37-11.02,17.05
		c-3.36,5.3-6.93,10.48-10.05,15.92c-6.09,10.64-11.92,21.42-17.86,32.14c-0.3,0.28-0.61,0.56-0.91,0.84
		c-10.51-1.81-20.63-4.78-30.54-10.22c22.2-47.73,54.21-88.16,88.42-127.98c-13.98,2.08-27.96,4.16-41.94,6.24
		c-2.32,0.16-4.68,0.12-6.96,0.52c-36.88,6.5-73.75,13.04-110.61,19.62c-13.87,2.48-27.72,5.09-42.4,7.79
		c1.48-3.63,2.65-6.49,3.82-9.35c1.55,0.42,3.25,1.48,4.62,1.15c31.96-7.72,63.9-15.58,95.81-23.49
		C973.18,87.74,974.03,86.68,974.96,85.99z"/>
	<path class="st6" d="M626.87,202.1c-13.36,6.29-26.89,12.27-40.05,18.96c-13.78,7-27.21,14.69-40.79,22.08
		c-0.73-0.02-1.45-0.03-2.18-0.05c-2.13-0.1-4.25-0.2-6.38-0.29c3.34-2.67,6.41-5.79,10.06-7.94
		c51.16-30.18,104.96-54.6,162.11-70.8c36.01-10.21,72.48-19.12,109.16-26.52c59.25-11.95,118.84-22.22,178.3-33.11
		c6.45-1.18,13-1.8,19.5-2.68c2.08,0.35,4.17,0.71,6.25,1.06c-26.72,5.96-53.38,12.19-80.18,17.81
		c-41.77,8.75-83.65,16.96-125.44,25.65c-17.51,3.64-34.89,7.93-52.33,11.92c-27.88,7.6-55.97,14.53-83.58,23.03
		c-17.26,5.31-33.79,12.98-50.65,19.58C629.41,201.24,628.14,201.67,626.87,202.1z"/>
	<path class="st21" d="M831.77,586c35.03-24.74,53.47-61.12,68.92-99.34c9.01-22.29,14.14-45.71,16.4-69.69
		c0.27-0.94,0.65-1.86,0.8-2.82c3.01-19.34,5.35-38.82,9.2-57.99c2.54-12.63,7.24-24.83,10.97-37.22c1.78-2.43,1.63-6.91,6.47-6.08
		c-3.34,15.59-6.72,31.17-10.01,46.77c-1.98,9.41-3.81,18.84-5.7,28.27c-3.92,18.04-7.8,36.1-11.78,54.13
		c-5.97,27.05-14.02,53.4-26.15,78.41c-10.33,21.29-22.32,41.35-40.79,56.74C844.76,581.6,839.6,586.63,831.77,586z"/>
	<path class="st41" d="M974.96,85.99c-0.94,0.69-1.78,1.75-2.82,2.01c-31.92,7.91-63.85,15.77-95.81,23.49
		c-1.37,0.33-3.07-0.74-4.62-1.16c0.1-0.82,0.2-1.63,0.3-2.45c17.48-4.32,34.9-8.95,52.47-12.84c11.96-2.65,24.15-4.22,36.23-6.33
		C965.48,87.88,970.22,86.9,974.96,85.99z"/>
	<path class="st41" d="M1051.76,157.75c9.53-14.6,18.47-29.63,28.74-43.69c12.54-17.16,26.2-33.51,39.38-50.21
		c2.51-0.46,5.01-0.92,7.52-1.39c0.23,0.4,0.47,0.81,0.7,1.21c-9.63,11.11-19.26,22.22-28.88,33.34
		c-5.08,5.58-10.7,10.76-15.15,16.81c-10,13.6-19.41,27.63-29.13,41.43C1054.19,156.3,1052.83,156.92,1051.76,157.75z"/>
	<path class="st8" d="M872.01,107.88c-0.1,0.81-0.2,1.63-0.3,2.45c-1.17,2.86-2.34,5.72-3.82,9.35c14.68-2.7,28.53-5.32,42.4-7.79
		c36.86-6.58,73.73-13.12,110.61-19.62c2.28-0.4,4.64-0.36,6.96-0.52c-6.05,1.34-12.06,2.84-18.15,3.97
		c-16.71,3.11-33.46,6.05-50.19,9.06c-18.01,3.25-36.02,6.53-54.04,9.74c-12.81,2.29-25.64,4.48-39.27,6.86
		C866.79,116.03,868.08,111.46,872.01,107.88z"/>
	<path class="st42" d="M985.08,230.96c-10.48,23.73-18.49,48.29-24.46,73.52c-3.66,15.46-7.03,30.99-10.53,46.5
		c-0.4-0.03-0.79-0.05-1.19-0.08c2.06-9.7,3.7-19.51,6.25-29.07c6.01-22.54,12.27-45.02,18.83-67.4c1.99-6.8,5.24-13.25,8.08-19.78
		C982.68,233.23,984.06,232.17,985.08,230.96z"/>
	<path class="st43" d="M944.86,376.88c-2.93,13.6-5.1,27.41-8.96,40.74c-8.2,28.38-17.25,56.51-26.04,84.72
		c-0.62,1.99-1.91,3.78-2.89,5.66c2.04-6.46,4.09-12.92,6.13-19.38c5.25-16.62,11.01-33.09,15.63-49.88
		c5.23-19.02,9.41-38.33,14.12-57.5C943.23,379.72,944.18,378.34,944.86,376.88z"/>
	<path class="st44" d="M1051.76,157.75c1.07-0.82,2.44-1.44,3.18-2.5c9.73-13.8,19.13-27.84,29.13-41.43
		c4.45-6.04,10.06-11.23,15.15-16.81c-8.22,10.85-16.78,21.46-24.57,32.61c-11.03,15.81-21.48,32.02-32.2,48.04
		c-0.36,0.54-0.89,0.96-1.34,1.43c0,0-0.34-0.27-0.34-0.27c-0.01-1.34-0.02-2.68-0.04-4.02
		C1044.41,169.11,1048.08,163.43,1051.76,157.75z"/>
	<path class="st45" d="M928.83,387.88c1.89-9.42,3.72-18.86,5.7-28.27c3.28-15.6,6.67-31.18,10.01-46.77
		c0.43-0.98,0.85-1.95,1.28-2.93c-1.3,7.49-2.35,15.04-3.95,22.46c-3.8,17.67-7.85,35.29-11.84,52.91
		C929.82,386.2,929.23,387.02,928.83,387.88z"/>
	<path class="st44" d="M1011.92,223.7c0.3-0.28,0.61-0.56,0.91-0.84c1.36-0.67,3.34-0.98,3.98-2.08c3.23-5.55,5.97-11.4,9.16-16.98
		c4.81-8.4,9.86-16.67,14.81-24.99c0,0,0.34,0.27,0.34,0.27c-6.99,12.96-13.98,25.92-20.96,38.88c-0.63,1.16-1.25,2.34-1.75,3.56
		C1017.06,224.78,1015.08,225.96,1011.92,223.7z"/>
	<path class="st46" d="M843.93,720.81c3.66,10.43,7,21,11.11,31.24c2.32,5.78,5.93,11.04,8.96,16.53c-0.06,0.47-0.12,0.95-0.17,1.42
		c-7.53-10.31-13.16-21.61-16.84-33.8C845.48,731.21,844.92,725.95,843.93,720.81z"/>
	<path class="st11" d="M863.83,770c0.06-0.47,0.12-0.94,0.17-1.42c8.03,9.39,16.06,18.78,24.09,28.17c-0.74,0.05-1.49,0.1-2.23,0.16
		C878.52,787.94,871.18,778.97,863.83,770z"/>
	<path class="st47" d="M764.63,559.94c-0.28-0.01-0.57,0-0.85,0.03c-0.63-0.03-1.27-0.07-1.91-0.1c4.3-7.57,8.59-15.14,12.95-22.67
		c0.36-0.62,1.25-0.92,1.9-1.37c-2.57,5.93-5.14,11.85-7.71,17.78C767.56,555.72,766.09,557.83,764.63,559.94z"/>
	<path class="st48" d="M769.02,553.62c2.57-5.93,5.14-11.85,7.71-17.78c0.46-0.97,0.93-1.93,1.39-2.9c0.26,1.32,0.52,2.64,0.78,3.96
		c-2.94,5.57-5.87,11.14-8.81,16.7C769.73,553.6,769.37,553.61,769.02,553.62z"/>
	<path class="st49" d="M948.9,350.89c0.4,0.03,0.79,0.05,1.19,0.08c-1.12,6.21-2.21,12.42-3.43,18.61
		c-0.12,0.61-1.06,1.06-1.62,1.58C946.32,364.41,947.61,357.65,948.9,350.89z"/>
	<path class="st50" d="M1022.86,102.81c-2.08-0.35-4.17-0.71-6.25-1.06c5.47-0.62,10.93-1.23,16.4-1.85
		C1029.62,100.87,1026.24,101.84,1022.86,102.81z"/>
	<path class="st51" d="M986.03,851.69c-2.06-0.27-4.16-0.41-6.19-0.85c-2.35-0.51-4.64-1.29-6.96-1.94
		c-1.66-1.03-3.32-2.06-4.98-3.1C973.95,847.77,979.99,849.73,986.03,851.69z"/>
	<path class="st0" d="M196.02,356.52c-8.37-8.91-19.14-13.89-30.17-18.45c-3.59-1.32-7.18-2.65-10.93-4.03
		c0.81-0.08,1.46-0.14,2.11-0.21c7.58,0.83,15.24,1.21,22.73,2.58c26.84,4.91,47.83,20.41,66.61,38.91
		c23.22,22.87,38.11,50.84,44.52,82.71c6.74,33.46,12.09,67.21,17.99,100.84c4.9,27.91,11.56,55.3,24.82,80.61
		c11.65,22.24,27.56,40.65,49.61,53.24c0.93,0.53,2.32,0.27,3.5,0.38c1.4,1.08,2.76,2.23,4.21,3.23
		c6.96,4.83,13.94,9.63,20.92,14.44c23.82,14.66,49.98,21.62,77.67,22.96c22.94,1.11,45.92,1.38,68.88,2.32
		c21.12,0.86,42.18,2.51,62.54,8.87c2.67,0.83,5.27,1.89,7.9,2.85c9.95,8.69,19.9,17.37,29.85,26.06
		c6.55,5.72,13.1,11.44,20.55,17.94c-7.01-2.56-12.81-4.67-18.61-6.79c-3.94-1.03-7.88-2.05-11.82-3.08
		c-23.73-8.78-48.37-9.1-73.13-7.46c-41.62,2.76-82.78,11.7-124.79,9.29c-26.73-1.53-52.83-5.89-77.28-17.54
		c-1.91-0.91-3.95-1.54-5.93-2.3c0.15-0.29,0.22-0.6,0.21-0.93c0.7-0.33,1.4-0.66,2.11-0.99c2.51-0.58,5.02-1.15,8.55-1.96
		c-2.03-1.52-3-2.36-4.08-3.03c-20.25-12.52-36.66-29.11-50.7-48.13c-21.36-28.93-35.61-61.45-43.58-96.13
		c-6.67-29.02-9.72-58.87-14.42-88.35c-3.29-20.62-5.99-41.37-10.2-61.81c-5.87-28.49-15.43-55.74-32.77-79.57
		c-3.07-4.22-7.5-7.44-11.3-11.13C206.39,366.78,201.21,361.65,196.02,356.52z M302.67,618.93c5.14-2.93,10.32-18.37,7.37-22.36
		C307.54,604.16,305.24,611.15,302.67,618.93z"/>
	<path class="st52" d="M386.81,693.11c-1.18-0.11-2.57,0.15-3.5-0.38c-22.05-12.59-37.96-31-49.61-53.24
		c-13.25-25.31-19.92-52.7-24.82-80.61c-5.9-33.63-11.25-67.38-17.99-100.84c-6.42-31.87-21.3-59.84-44.52-82.71
		c-18.78-18.5-39.77-34-66.61-38.91c-7.48-1.37-15.15-1.75-22.73-2.58c-4.44-0.37-8.89-0.75-13.33-1.12
		c5.73-1.28,11.46-2.55,17.19-3.83c15.08,0.84,30.43,0.21,45.2,2.83c32.17,5.71,56.81,24.17,76.52,49.66
		c21.23,27.45,32.67,59.1,37.94,92.89c4.97,31.88,8.6,63.98,12.25,96.04c2.78,24.47,7.37,48.36,18.08,70.74
		c0.85,1.79,1.88,3.49,2.83,5.23c5.96,13.35,14.67,24.82,24.4,35.6C381,685.61,383.91,689.36,386.81,693.11z"/>
	<path class="st3" d="M843.63,992.98c-1.9-3.36-3.79-6.73-5.69-10.09c0.35-0.92,1.23-2.06,0.95-2.72c-1.7-4.08-3.58-8.1-5.61-12.03
		c-0.33-0.65-1.67-0.78-2.54-1.15c0,0,0.03,0.02,0.03,0.02c0.53-7.04-4.67-11.77-7.17-17.59c-0.15-0.35-1.19-0.31-1.82-0.46
		c0,0,0.02,0.01,0.02,0.01c0.5-3.28-4.07-13.21-6.92-14.88c-0.37-0.22-0.96-0.05-1.45-0.06c-2.24-3.92-4.48-7.84-6.72-11.76
		c0.61-4.18-3.12-10.02-7.2-11.26c-1.53-2.71-3.07-5.43-4.6-8.14c2.59,0.31,5.18,0.62,8.29,0.99c-0.91-1.56-1.61-2.78-2.32-4
		c0.95,0.57,2.22,0.91,2.78,1.74c3.75,5.53,7.68,10.97,10.92,16.8c7.76,13.99,15.58,27.98,22.56,42.36
		c4.64,9.54,7.95,19.73,11.66,29.69c0.52,1.39-0.07,3.19-0.16,5.16C846.22,994.35,844.93,993.67,843.63,992.98z"/>
	<path class="st53" d="M843.63,992.98c1.3,0.69,2.59,1.38,5.02,2.66c0.09-1.97,0.68-3.77,0.16-5.16
		c-3.71-9.97-7.03-20.16-11.66-29.69c-6.99-14.38-14.81-28.37-22.56-42.36c-3.23-5.83-7.17-11.27-10.92-16.8
		c-0.56-0.83-1.84-1.17-2.78-1.74c-2.57-4.07-4.79-8.43-7.79-12.16c-5.87-7.33-12.18-14.31-18.31-21.43
		c-5.29-6.15-10.59-12.31-15.88-18.46c0.58-0.28,1.16-0.56,1.74-0.85c2.98,2.67,5.96,5.35,8.94,8.02
		c9.66,11.65,19.81,22.93,28.81,35.06c7.68,10.35,14.09,21.64,20.94,32.6c3.11,4.98,5.93,10.15,8.88,15.23
		c8.43,18.75,16.89,37.48,25.26,56.25c0.79,1.77,1.05,3.78,1.56,5.68c-0.23,1-0.67,2-0.65,2.99c0.07,3.43,0.3,6.86,0.5,10.94
		c-2.76-4.24-4.92-7.56-7.08-10.88C846.41,999.59,845.02,996.28,843.63,992.98z"/>
	<path class="st54" d="M491.84,576.9c-2.45-4.83-5.04-9.6-7.33-14.51c-4.26-9.13-8.34-18.33-12.49-27.51
		c1.18,1.47,2.62,2.81,3.49,4.45c8.65,16.4,16.7,33.14,25.96,49.19c7.27,12.59,15.63,24.61,24.21,36.37
		c6.52,8.94,13.83,17.35,21.34,25.5c10.59,11.47,21.32,22.86,32.66,33.58c10.81,10.22,22.53,19.48,33.75,29.29
		c3.95,3.45,7.57,7.27,11.35,10.92c-4.21-3.13-8.42-6.25-12.64-9.38c-10.32-9.01-20.63-18.01-30.95-27.02
		c-0.28-0.4-0.5-0.87-0.86-1.19c-18.47-16.94-35.47-35.25-51.23-54.72c-0.78-0.96-2.03-1.53-3.06-2.28
		c-1.74-2.56-3.48-5.11-5.21-7.67c-3.95-5.74-7.9-11.47-11.86-17.21c-2.7-4.69-5.32-9.45-8.16-14.05c-0.96-1.56-2.51-2.76-3.79-4.12
		C495.3,583.31,493.57,580.11,491.84,576.9z"/>
	<path class="st55" d="M660.71,784.99c5.8,2.12,11.6,4.23,18.61,6.79c-7.45-6.5-14-12.22-20.55-17.94
		c-9.95-8.69-19.9-17.37-29.85-26.06c1.61,0.73,3.23,1.46,4.84,2.18c10.71,9.32,21.39,18.66,32.14,27.94
		c3.58,3.09,7.32,5.98,10.99,8.96c2.66,2.67,5.32,5.34,7.98,8.02c-1.99-0.01-3.98-0.02-5.97-0.03c0,0,0.02,0.02,0.02,0.02
		C672.85,791.58,666.78,788.28,660.71,784.99z"/>
	<path class="st56" d="M526.04,629.57c1.03,0.75,2.29,1.32,3.06,2.28c15.77,19.47,32.76,37.78,51.23,54.72
		c0.35,0.32,0.57,0.79,0.86,1.19c-0.44,0.05-0.89,0.09-1.33,0.14c-13.5-13.94-27.03-27.85-40.48-41.84
		c-3.45-3.59-6.72-7.37-9.92-11.19C528.13,633.28,527.17,631.35,526.04,629.57z"/>
	<path class="st57" d="M612.14,714.78c4.21,3.13,8.42,6.25,12.64,9.38c7.8,6.63,15.62,13.24,23.4,19.89
		c1.36,1.17,2.58,2.51,3.86,3.77c-4.07-2.98-8.27-5.81-12.19-8.98c-9.75-7.88-19.37-15.92-29.04-23.89
		C611.25,714.9,611.7,714.84,612.14,714.78z"/>
	<path class="st58" d="M678.9,794.85c1.99,0.01,3.98,0.02,5.97,0.03c0,0,0.15,0.08,0.15,0.08c1.67,1.81,3.1,3.98,5.08,5.36
		c3.07,2.14,6.51,3.74,9.79,5.57c1.33,1.33,2.67,2.67,4,4c-1.33,0.33-2.67,0.67-4,1c-4.34-3-8.78-5.89-13-9.06
		C684.07,799.72,681.55,797.19,678.9,794.85z"/>
	<path class="st59" d="M386.81,693.11c-2.9-3.75-5.8-7.5-8.7-11.25c1.33,0.92,2.73,1.74,3.97,2.76
		c9.68,7.94,19.35,15.91,28.96,23.93c0.54,0.45,0.61,1.48,0.91,2.23c-6.98-4.81-13.96-9.6-20.92-14.44
		C389.57,695.34,388.21,694.2,386.81,693.11z"/>
	<path class="st60" d="M676.89,786.87c-3.67-2.98-7.41-5.88-10.99-8.96c-10.75-9.27-21.43-18.62-32.14-27.94
		c3.72,2.64,7.7,4.98,11.1,7.98C655.66,767.45,666.23,777.21,676.89,786.87z"/>
	<path class="st61" d="M760.65,846.99c-0.58,0.28-1.16,0.57-1.74,0.85c-7.55-7.33-15.12-14.63-22.63-22
		c-1.25-1.23-2.2-2.77-3.29-4.17C742.21,830.11,751.43,838.55,760.65,846.99z"/>
	<path class="st11" d="M612.14,714.78c-0.44,0.06-0.89,0.11-1.33,0.17c-10.31-9.02-20.63-18.03-30.94-27.05
		c0.44-0.05,0.88-0.09,1.33-0.14C591.51,696.77,601.83,705.78,612.14,714.78z"/>
	<path class="st9" d="M699.89,805.89c-3.28-1.83-6.72-3.43-9.79-5.57c-1.98-1.38-3.4-3.55-5.08-5.36c1.21,0.07,2.83-0.35,3.54,0.28
		C692.46,798.65,696.14,802.31,699.89,805.89z"/>
	<path class="st62" d="M497.02,586.52c1.28,1.36,2.83,2.56,3.79,4.12c2.84,4.61,5.46,9.36,8.16,14.05c-0.07,0.43-0.13,0.86-0.2,1.29
		C504.86,599.49,500.94,593.01,497.02,586.52z"/>
	<path class="st11" d="M508.78,605.98c0.07-0.43,0.13-0.86,0.2-1.29c3.95,5.74,7.9,11.47,11.86,17.21
		C516.81,616.6,512.8,611.29,508.78,605.98z"/>
	<path class="st63" d="M367.98,762.98c0.01,0.33-0.06,0.64-0.21,0.93c-2.68-0.7-5.63-0.89-7.99-2.18
		c-13.61-7.41-25.86-16.68-36.51-27.97c-20.79-22.03-35.79-47.41-44.09-76.65c-1.66-5.84-3.74-11.55-5.42-17.39
		c-0.42-1.45-0.02-3.13,0.01-4.7c0.12-0.12,0.25-0.23,0.38-0.34c0.6,1.88,1.29,3.74,1.8,5.64c9.25,34.47,24.23,65.86,49.49,91.68
		C337.87,744.71,351.77,755.45,367.98,762.98z"/>
	<path class="st64" d="M370.77,778.15c-7.93-4.09-16.14-7.72-23.74-12.36c-24.77-15.11-43.87-35.82-58.47-60.79
		c0.77-0.04,1.55-0.08,2.32-0.11c8.62,13.2,17.81,26.05,29.45,36.73c7.91,7.27,16.59,13.76,25.31,20.06
		C353.76,767.54,362.38,772.69,370.77,778.15z"/>
	<path class="st26" d="M290.89,704.89c-0.77,0.04-1.55,0.08-2.32,0.11c-13.56-23.36-22.16-48.5-26.91-75.02
		c1.62,4.9,3.21,9.82,4.89,14.7c0.27,0.8,0.89,1.48,1.35,2.21c1.33,5.5,2.28,11.13,4.09,16.46c2.64,7.74,5.63,15.39,8.99,22.84
		c2.49,5.53,5.82,10.68,8.75,16.01C290.19,703.06,290.5,703.99,290.89,704.89z"/>
	<path class="st63" d="M267.88,614.89c-1.53-9.41-3.2-18.79-4.52-28.23c-0.54-3.85-0.34-7.81-0.48-11.72
		c0.85,4.31,1.75,8.61,2.56,12.93c2.92,15.6,5.81,31.21,8.71,46.81c-0.13,0.11-0.26,0.22-0.38,0.34c-0.96-2.02-2.25-3.96-2.81-6.09
		C269.74,624.3,268.89,619.58,267.88,614.89z"/>
	<path class="st58" d="M660.71,784.99c6.07,3.29,12.14,6.59,18.21,9.88c-0.96,0.03-2.07,0.4-2.86,0.04
		c-8.43-3.79-16.81-7.68-25.19-11.58c-0.73-0.34-1.33-0.94-1.99-1.43C652.83,782.94,656.77,783.96,660.71,784.99z"/>
	<path class="st65" d="M274.15,634.68c-2.9-15.6-5.79-31.21-8.71-46.81c-0.81-4.32-1.7-8.62-2.56-12.93
		c-0.64-5.01-1.28-10.03-1.92-15.04c-0.02-1.32,0.09-2.67-0.07-3.97c-2.15-17-4.19-34.01-6.57-50.97
		c-1.51-10.83-3.53-21.58-5.32-32.37c-3.55-22.69-9.88-44.59-19.1-65.62c-2.58-5.87-5.95-11.4-8.96-17.08
		c-2.98-5.33-5.96-10.67-8.94-16c1.29,1.16,2.91,2.1,3.82,3.5c12.9,19.98,21.94,41.65,28.11,64.58
		c6.46,24.02,10.16,48.51,13.08,73.17c2.02,17.05,4.43,34.06,6.9,51.06c2.18,15.04,4.34,30.09,7.1,45.03
		c5.08,27.48,12.64,54.17,25.97,79c14.18,26.41,33.54,48.01,58.61,64.4c4.51,2.95,9.65,4.94,14.5,7.37
		c-0.7,0.33-1.41,0.66-2.11,0.99c-16.21-7.53-30.11-18.27-42.54-30.98c-25.25-25.82-40.24-57.21-49.49-91.68
		C275.44,638.42,274.76,636.56,274.15,634.68z"/>
	<path class="st66" d="M254.88,342.9c1.39,0.29,3.06,0.17,4.13,0.92c24.01,16.86,41.58,38.95,53.16,65.86
		c-1.27-1.29-2.95-2.37-3.76-3.91c-8.82-16.8-19.34-32.41-32.97-45.66c-5.71-5.56-12.34-10.17-18.55-15.21
		C256.22,344.23,255.55,343.56,254.88,342.9z"/>
	<path class="st2" d="M253.89,518.89c0,1.78,0.33,3.65-0.11,5.31c-0.35,1.35-1.62,2.46-2.48,3.68c-0.44-0.25-0.88-0.5-1.32-0.76
		c0-5.44,0-10.89,0-16.4c-0.34,0.14-1.17,0.49-2.15,0.9c0.86-2.17,1.68-4.26,2.53-6.4c-5.45-1.66-7.05-5.89-6.17-13.46
		c2.32-1.17,4.01-2.03,5.7-2.88C251.22,498.89,252.55,508.89,253.89,518.89z"/>
	<path class="st2" d="M252.81,544.98c-0.5-4.53-1-9.06-1.5-13.59c0.63-0.07,1.26-0.14,1.9-0.22c1.22,5.94,2.9,11.82,3.56,17.82
		c0.9,8.15,0.94,16.4,1.55,24.59c0.14,1.84,1.2,3.6,1.6,5.44c0.42,1.93,0.56,3.92,0.82,5.88c-0.85,0.19-1.7,0.37-2.55,0.56
		c-0.83-4.12-1.8-8.21-2.45-12.36c-0.76-4.8-1.69-9.63-1.71-14.46c-0.02-4.58,0.88-9.15-2.32-13.04
		C252.07,545.39,252.44,545.18,252.81,544.98z"/>
	<path class="st63" d="M253.89,518.89c-1.33-10-2.67-20-4-30c-0.29-5.44-0.59-10.87-0.88-16.31c1.79,10.79,3.81,21.54,5.32,32.37
		c2.37,16.97,4.42,33.98,6.57,50.97c0.17,1.31,0.05,2.65,0.07,3.97c-0.7-1.86-1.77-3.67-2.03-5.59
		c-1.48-11.23-2.75-22.49-4.14-33.74C254.72,519.98,254.2,519.45,253.89,518.89z"/>
	<path class="st67" d="M211.99,373.89c2.98,5.33,5.96,10.67,8.94,16c-1.02-0.69-2.33-1.17-3.03-2.11c-5.98-8-11.9-16.04-17.72-24.16
		c-1.59-2.22-2.8-4.72-4.18-7.1c5.19,5.13,10.38,10.26,15.56,15.39C211.72,372.57,211.86,373.23,211.99,373.89z"/>
	<path class="st68" d="M195.75,371.22c-1.93-1.55-4.13-2.87-5.75-4.69c-7.89-8.87-17.9-14.56-28.45-19.51
		c5.17,1.83,10.84,2.84,15.38,5.68c6.07,3.8,11.36,8.9,16.75,13.7C194.88,367.44,195.09,369.58,195.75,371.22z"/>
	<path class="st2" d="M242.73,488.16c0-5.49,0-10.5,0-16.66c1.53,3.2,2.81,5.49,3.73,7.92c0.63,1.67,0.88,3.52,1.08,5.31
		C247.91,488.07,245.91,488.59,242.73,488.16z"/>
	<path class="st69" d="M143.7,332.71c4.44,0.37,8.88,0.75,13.33,1.12c-0.65,0.06-1.3,0.13-2.11,0.21c3.76,1.38,7.34,2.71,10.93,4.03
		c-7.15-1.22-14.31-2.42-21.46-3.68c-0.4-0.07-0.77-0.56-1.05-0.94C143.27,333.35,143.57,332.97,143.7,332.71z"/>
	<path class="st2" d="M336.63,569.4c-0.38-0.58-0.73-0.87-0.69-1.07c1.7-7.88-1.2-15.33-2.14-22.95
		c-1.29-10.48-2.6-20.97-3.91-31.45c-1.17-9.33-2.45-18.65-3.48-28c-0.66-6.06-0.96-12.17-0.44-18.34
		c8.37,32.43,8.91,65.84,12.8,98.81C338.88,567.27,337.44,568.32,336.63,569.4z"/>
	<path class="st66" d="M318.02,423.8c2.03,6.34,4.05,12.68,6.08,19.01c-1.92-4.02-4.12-7.94-5.65-12.1
		C317.68,428.64,318.12,426.12,318.02,423.8z"/>
	<path class="st66" d="M312.17,409.71c1.95,4.7,3.9,9.39,5.85,14.09C313.52,420.16,311.29,415.58,312.17,409.71z"/>
	<path class="st70" d="M448.33,394.01c0.55-1.96,1.22-3.89,1.64-5.87c4.94-23.07,13.73-44.71,24.12-65.8
		c1.34-2.71,1.66-5.99,2.09-9.06c1.05-7.53,1.88-15.1,2.8-22.65c6.08-5.9,12.16-11.79,18.23-17.68c0.12,0.61,0.57,1.47,0.32,1.81
		c-5.46,7.53-7.36,16.42-9.69,25.14c-0.65,2.33-1.3,4.66-1.95,6.99c0,2.33,0,4.67,0,7c-20.31,30.1-27.89,64.44-32.74,99.69
		c-0.55,0.02-1.11,0.04-1.66,0.07C450.43,407.1,449.38,400.55,448.33,394.01z"/>
	<path class="st40" d="M512.97,264.02c1.64-0.91,3.28-1.82,4.92-2.74c1.56-0.04,3.18,0.18,4.68-0.14
		c17.51-3.76,32.77,1.38,41.2,13.98c-5.11-2.07-10.09-5.39-15.37-5.99c-16.26-1.84-28.89,6.44-40.59,16.49
		c-4.96,4.4-9.92,8.79-14.87,13.19c1.15-2.93,2.49-5.8,3.43-8.79c2.59-8.29,6.79-15.45,13.53-21.11
		C511.29,267.73,511.96,265.67,512.97,264.02z"/>
	<path class="st7" d="M544.93,258.81c-0.03-0.31-0.06-0.62-0.07-0.93c2-3.33,4-6.66,5.99-9.99c1.01-0.02,2.02-0.04,3.03-0.06
		c5.94,3.71,11.88,7.43,17.82,11.14c2.97,4.63,5.93,9.26,8.9,13.89c-2.91,3.01-5.81,6.02-8.72,9.03c-0.36,0.02-0.72,0.04-1.08,0.07
		l0.01-0.01C569.1,273.41,555.92,258.46,544.93,258.81z"/>
	<path class="st71" d="M448.33,394.01c1.05,6.54,2.1,13.09,3.16,19.63c0.55-0.02,1.11-0.04,1.66-0.07
		c4.85-35.25,12.43-69.59,32.74-99.69c1.03-1.47,1.86-3.15,3.12-4.38c7.29-7.15,14.4-14.51,22.12-21.17
		c6.41-5.54,12.91-11.42,22.04-12.3c-7.51,4.85-15.56,9.04-22.43,14.66c-31.55,25.77-45.38,61-52.18,99.82
		c-1.31,8.85-2.62,17.71-3.93,26.56c-0.39,0.68-0.78,1.36-1.45,2.53c-0.91-2.13-1.6-3.93-2.44-5.66c-1.17-2.42-2.45-4.79-3.69-7.18
		c0.03-0.33-0.05-0.63-0.25-0.89c0.08-3.54,0.16-7.08,0.23-10.63C447.47,394.83,447.9,394.42,448.33,394.01z"/>
	<path class="st72" d="M512.97,264.02c-1.01,1.65-1.68,3.71-3.08,4.89c-6.74,5.66-10.94,12.81-13.53,21.11
		c-0.93,2.99-2.27,5.86-3.43,8.79c-1.43,1.65-2.86,3.29-4.8,5.52c-0.14-2.15-0.22-3.29-0.29-4.42c2.33-8.73,4.23-17.61,9.69-25.14
		c0.25-0.35-0.2-1.2-0.32-1.81C502.46,269.97,507.72,266.99,512.97,264.02z"/>
	<path class="st73" d="M447.03,395.24c-0.08,3.54-0.16,7.08-0.23,10.63c-0.97-3.53-2.51-7.02-2.81-10.6
		c-2.36-28.32,3.41-55.14,15.6-80.66c0.82-1.71,2.27-3.11,3.42-4.66c-5.16,14.5-11.78,28.68-15.03,43.59
		c-2.73,12.54-1.55,25.94-2.01,38.96C445.95,393.39,446.66,394.32,447.03,395.24z"/>
	<path class="st74" d="M563.76,275.12c-8.43-12.6-23.69-17.75-41.2-13.98c-1.5,0.32-3.11,0.11-4.68,0.14
		c8.12-2.66,16.34-4.33,24.89-2.29c8.06,2.16,15.06,6.09,20.35,12.66c2.69,3.34,5.14,6.86,7.69,10.31c0,0-0.01,0.01-0.01,0.01
		c0.87,2.3,1.75,4.59,2.6,6.9c3.73,10.1,4.6,20.43,2.48,31c-0.02-1.8,0.14-3.63-0.08-5.41c-0.9-7.2-1.93-14.39-2.9-21.58
		C569.86,286.96,566.81,281.04,563.76,275.12z"/>
	<path class="st75" d="M449.9,419.88c-0.8,1.58-1.6,3.16-2.41,4.74c-0.81,1.57-1.63,3.13-3.11,5.96c-1.42-4.35-2.44-7.51-3.47-10.67
		c1.9-4,3.79-8.01,5.69-12.01C447.7,411.89,448.8,415.89,449.9,419.88z"/>
	<path class="st76" d="M550.85,247.9c-2,3.33-4,6.66-5.99,9.99c-1.56-0.75-4.14-1.21-4.46-2.32c-0.72-2.54,4.34-8.63,6.7-8.6
		C548.36,246.98,549.6,247.57,550.85,247.9z"/>
	<path class="st77" d="M570.82,281.95c-2.56-3.44-5.01-6.97-7.69-10.31c-5.29-6.57-12.28-10.5-20.35-12.66
		c0.71-0.06,1.43-0.11,2.15-0.17C555.92,258.46,569.1,273.41,570.82,281.95z"/>
	<path class="st78" d="M571.71,258.98c-5.94-3.71-11.88-7.43-17.82-11.14c-2.39-0.92-4.82-1.76-7.16-2.79
		c-1.04-0.46-1.92-1.29-2.87-1.96c0.73,0.02,1.45,0.03,2.18,0.05c10.44,2.72,20.18,6.63,26.89,15.74
		C572.51,258.91,572.11,258.94,571.71,258.98z"/>
	<path class="st79" d="M449.9,419.88c-1.1-3.99-2.2-7.99-3.3-11.98c0.15-0.38,0.3-0.76,0.45-1.14c1.23,2.39,2.51,4.76,3.69,7.18
		c0.84,1.73,1.53,3.54,2.44,5.66c0.67-1.17,1.06-1.85,1.45-2.54c0.09,1.94,0.18,3.88,0.27,5.82c-0.62,0.68-1.24,1.37-1.86,2.05
		C451.99,423.25,450.95,421.56,449.9,419.88z"/>
	<path class="st80" d="M453.04,424.94c0.62-0.68,1.24-1.37,1.86-2.05c3.39,4.23,6.46,8.78,10.24,12.63
		c9.05,9.21,19.63,13.13,32.38,8.09c1.34-0.53,2.9-0.49,4.35-0.71c-6.37,4.62-13.75,3.99-21,4.05
		C468.45,443.59,460.55,434.51,453.04,424.94z"/>
	<path class="st81" d="M478.84,460.95c-0.96-0.08-1.93-0.16-2.89-0.25c1.65-4.27,3.29-8.54,4.94-12.8c1.77,0,3.54,0,6.77,0
		C483.74,452.6,486.67,459.93,478.84,460.95z"/>
	<path class="st26" d="M1096.89,871.89c-8.57-0.67-17.16-1.26-25.72-2.03c-6.09-0.54-12.19-1.1-18.23-2.04
		c-5.85-0.91-11.61-2.36-17.42-3.49c-4.04-0.79-8.12-1.41-12.17-2.15c-7.82-1.42-15.64-2.86-23.46-4.3c1.73-0.36,3.46-0.72,5.2-1.08
		c12.42,2.29,24.78,5.02,37.27,6.76c15.66,2.18,31.43,3.52,47.14,5.26c2.47,0.27,4.93,0.7,7.39,1.06
		C1096.89,870.55,1096.89,871.22,1096.89,871.89z"/>
	<path class="st33" d="M1096.89,871.89c0-0.67,0-1.34,0-2.01c0.34,0.02,0.67,0.03,1.01,0.05c4.63,1.57,9.27,3.15,13.84,4.7
		c-3.07,0.83-6.17,4.53-9.81,0.32C1100.25,873.93,1098.57,872.91,1096.89,871.89z"/>
	<path class="st51" d="M1005.08,856.8c-1.73,0.36-3.46,0.72-5.2,1.08c-3.43-0.98-6.93-1.77-10.25-3.03
		c-1.4-0.54-2.42-2.08-3.61-3.17C992.38,853.39,998.73,855.1,1005.08,856.8z"/>
	<path class="st82" d="M847.8,1002.89c2.16,3.32,4.32,6.64,7.08,10.88c-0.2-4.08-0.43-7.51-0.5-10.94
		c-0.02-0.99,0.42-1.99,0.65-2.99c0.63,2,1.26,3.99,1.89,5.99c0.2,2.46,0.12,4.99,0.66,7.37c0.83,3.65-0.58,4.53-3.84,3.78
		C851.77,1012.28,849.79,1007.59,847.8,1002.89z"/>
	<path class="st83" d="M853.75,1016.98c3.26,0.75,4.67-0.13,3.84-3.78c-0.54-2.38-0.46-4.91-0.66-7.37c0.25,0.08,0.5,0.17,0.76,0.26
		c0.83,5.64,1.66,11.28,2.49,16.93c-0.75,0.23-1.5,0.47-2.25,0.7C856.53,1021.47,855.14,1019.22,853.75,1016.98z"/>
	<path class="st66" d="M821.78,948.97c0.63,0.14,1.67,0.11,1.82,0.46c2.5,5.82,7.7,10.55,7.17,17.59
		C827.78,961,824.78,954.99,821.78,948.97z"/>
	<path class="st66" d="M830.75,967c0.87,0.37,2.21,0.5,2.54,1.15c2.03,3.93,3.91,7.95,5.61,12.03c0.27,0.66-0.61,1.8-0.95,2.72
		C835.54,977.59,833.14,972.29,830.75,967z"/>
	<path class="st66" d="M813.43,934.05c0.49,0.01,1.08-0.16,1.45,0.06c2.85,1.67,7.42,11.6,6.92,14.88
		C819.01,944.01,816.22,939.03,813.43,934.05z"/>
	<path class="st66" d="M799.52,911.03c4.08,1.24,7.81,7.08,7.2,11.26C804.31,918.54,801.92,914.78,799.52,911.03z"/>
	<path class="st84" d="M744.84,423.91c0.02,0.29,0.06,0.58,0.11,0.86c0.27,1.27,0.28,2.66,0.84,3.78
		c2.95,5.83,6.04,11.58,9.08,17.37c0.23,1.12,0.31,2.3,0.7,3.37c4.18,11.46,5.74,23.44,6.14,35.49c0.2,6.03-1.18,12.11-1.85,18.17
		c-0.28-0.05-0.56-0.11-0.84-0.17c-1.4-9.85-1.87-19.95-4.39-29.51c-6.24-23.71-15.04-46.56-33.8-63.4
		c-8.64-7.75-19.36-13.19-29.13-19.68c1.05-0.43,2.1-0.87,3.14-1.3c7.58,3.78,15.24,7.43,22.72,11.41c3.58,1.9,6.83,4.43,10.22,6.68
		c4.34,3.99,8.68,7.98,13.03,11.97C742.16,420.61,743.5,422.26,744.84,423.91z"/>
	<path class="st7" d="M746.9,421.9c-0.34-0.01-0.67-0.02-1.01-0.04c-4.58-9.56-12.6-15.81-20.83-21.94
		c-6.49-4.84-13.03-9.45-21.18-11.05c3.01-3.3,6.02-6.61,9.02-9.91c6.29,3.36,12.58,6.72,18.87,10.08
		c9.35,7.23,19.24,13.86,26.13,23.79C754.24,415.86,750.57,418.88,746.9,421.9z"/>
	<path class="st85" d="M751.08,432.88c1.33,0.8,3.35,1.28,3.87,2.44c2.92,6.53,6.29,13.02,7.96,19.9c2.37,9.8,4.31,19.89,4.68,29.92
		c0.27,7.51-2.49,15.09-3.42,22.7c-0.75,6.17-1.18,12.34-4.27,17.92c-0.6,1.09-1.35,2.09-2.04,3.12c0.65-5.03,1.3-10.06,1.95-15.09
		c0.27-1.31,0.55-2.62,0.82-3.94c0.09-0.65,0.19-1.3,0.28-1.95c0.33-0.72,0.76-1.41,0.97-2.17c3.04-11.14,3.39-22.43,1.95-33.83
		c-2.08-9.48-3.96-19.02-6.39-28.41c-0.63-2.44-2.95-4.44-4.5-6.64C752.32,435.54,751.7,434.21,751.08,432.88z"/>
	<path class="st86" d="M606.89,582.89c-0.66-0.01-1.32-0.02-1.97-0.03c-1.01-0.66-2.02-1.33-3.03-1.99c0-0.93,0-1.87,0.01-2.8
		c4.56,1.96,9.05,4.11,13.7,5.85c22.52,8.38,45.66,9.16,69,4.7c9.34-1.79,18.75-4.13,26.32-10.63c2.99-1.36,5.99-2.72,8.98-4.08
		c-4.59,3.26-8.83,7.26-13.85,9.6c-6.03,2.81-12.72,4.24-19.14,6.21c-2.65,0.81-5.35,1.48-8.02,2.21c-3.29,0.32-6.57,0.73-9.87,0.95
		C647.55,594.32,626.83,591.05,606.89,582.89z"/>
	<path class="st87" d="M746.9,421.9c3.67-3.02,7.34-6.04,11.01-9.06c2.36,2.64,4.72,5.28,7.08,7.92c0.31,0.37,0.62,0.73,0.92,1.1
		c1.41,6.29-3.45,8.39-7.58,10.46c-1.19,0.59-4.08-0.76-5.32-2.05C750.64,427.8,748.9,424.73,746.9,421.9z"/>
	<path class="st88" d="M765.91,421.86c-0.31-0.37-0.62-0.73-0.92-1.1c-0.68-1.44-1.15-3.02-2.07-4.29
		c-2.59-3.59-5.35-7.04-8.05-10.55c5.8,7.25,12.85,13.85,17.11,21.92c6.04,11.45,10.04,23.99,14.9,36.06
		c1.82,13.96,3.08,27.93,0.99,41.98c-0.99,4.34-1.98,8.68-2.98,13.02c-0.68-0.01-1.36-0.01-2.04-0.02c0.38-3.29,0.76-6.58,1.13-9.88
		c0.44-0.21,1.22-0.34,1.28-0.63c1.96-9.09,4.13-18.18,1.65-27.53c-1.93-9.86-3.22-19.91-6.02-29.52
		c-1.89-6.48-5.91-12.34-8.97-18.47C769.92,429.18,767.91,425.52,765.91,421.86z"/>
	<path class="st89" d="M606.89,582.89c19.93,8.15,40.66,11.42,62.13,9.98c3.3-0.22,6.58-0.63,9.87-0.95
		c-10.91,0.85-21.82,1.87-32.74,2.46c-3.05,0.16-6.21-1.57-9.23-1.32c-8.18,0.67-15.58-2.16-23.23-4.1
		C610.16,588.06,607.65,586.61,606.89,582.89z"/>
	<path class="st90" d="M703.88,388.88c8.15,1.6,14.68,6.21,21.18,11.05c8.23,6.13,16.25,12.38,20.83,21.94
		c-0.35,0.68-0.7,1.36-1.05,2.04c-1.34-1.65-2.67-3.3-4.01-4.95c-2.38-7.6-8.61-11.39-14.94-15.07
		c-7.68-4.71-15.36-9.42-23.04-14.13C703.19,389.47,703.54,389.17,703.88,388.88z"/>
	<path class="st91" d="M719.9,573.91c-2.99,1.36-5.99,2.72-8.98,4.08c1.21-1.08,2.31-2.31,3.65-3.2
		c13.27-8.84,24.88-19.24,32.49-33.56c1.02-1.92,2.53-3.59,3.81-5.38c0.02,0.69,0.03,1.39,0.05,2.08c0,0-0.08-0.01-0.08-0.01
		c-2.68,4.96-5.35,9.92-8.03,14.89c-0.65,0.67-1.3,1.34-1.96,2.02c-4.63,4.7-9.27,9.39-13.9,14.08
		C724.59,570.58,722.24,572.24,719.9,573.91z"/>
	<path class="st92" d="M601.89,580.87c1.01,0.66,2.02,1.33,3.03,1.99c1.82,3.05,0.49,5.74-1.96,7.1c-1.94,1.08-4.73,0.94-7.11,0.81
		c-1.34-0.07-2.61-1.23-3.91-1.9c2.97-2.66,5.94-5.31,8.91-7.97C601.19,580.89,601.54,580.88,601.89,580.87z"/>
	<path class="st93" d="M771.92,432.85c3.06,6.14,7.08,11.99,8.97,18.47c2.8,9.61,4.09,19.66,6.02,29.52
		c-0.04,1.05-0.08,2.1-0.13,3.15c-0.89-3.9-2.19-7.76-2.59-11.7c-1.34-13.36-6.57-25.43-11.84-37.52
		C772.1,434.17,772.06,433.49,771.92,432.85z"/>
	<path class="st94" d="M761.88,559.88c0.64,0.03,1.27,0.07,1.91,0.1c-6.76,9.92-16.25,16.93-25.67,24.01
		c-0.83,0.62-2.16,0.57-3.25,0.83c6.78-5.91,13.61-11.75,20.29-17.76C757.59,564.88,759.65,562.28,761.88,559.88z"/>
	<path class="st95" d="M750.91,537.93c-0.02-0.69-0.03-1.39-0.05-2.08c-0.01-0.51-0.02-1.03-0.03-1.54
		c1.07-2.07,2.14-4.15,3.21-6.22c0.93-1.19,2.25-2.25,2.72-3.6c1.21-3.49,2.05-7.12,3.04-10.69c-0.65,5.03-1.3,10.06-1.95,15.09
		c-0.93,1.88-1.64,3.93-2.87,5.58C753.94,535.86,752.29,536.8,750.91,537.93z"/>
	<path class="st96" d="M786.79,483.99c0.04-1.05,0.08-2.1,0.13-3.15c2.47,9.36,0.31,18.44-1.65,27.53
		c-0.06,0.29-0.84,0.42-1.28,0.63C784.92,500.66,785.85,492.33,786.79,483.99z"/>
	<path class="st97" d="M782.85,518.88c0.68,0.01,1.36,0.01,2.04,0.02c-2,6-4,12-6,18c-0.26-1.32-0.52-2.64-0.78-3.96
		C779.69,528.25,781.27,523.56,782.85,518.88z"/>
	<path class="st98" d="M751.08,432.88c0.62,1.33,1.24,2.65,1.86,3.98c0.68,2.62,1.36,5.25,2.03,7.87c-0.04,0.4-0.07,0.79-0.11,1.19
		c-3.04-5.78-6.13-11.54-9.08-17.37c-0.56-1.12-0.57-2.51-0.84-3.78C746.99,427.48,749.04,430.18,751.08,432.88z"/>
	<path class="st99" d="M726.94,568.91c4.64-4.69,9.27-9.39,13.9-14.08C738.52,561.8,733.33,565.95,726.94,568.91z"/>
	<path class="st94" d="M689.89,603.89c0-0.33,0-0.66,0-1c7.66-2.34,15.33-4.67,22.99-7.01c1.01,0.01,2.02,0.01,3.03,0.02
		C707.24,598.57,698.56,601.23,689.89,603.89z"/>
	<path class="st100" d="M742.8,552.81c2.68-4.96,5.35-9.92,8.03-14.89C750.59,544.2,746.59,548.45,742.8,552.81z"/>
	<path class="st101" d="M715.91,595.9c-1.01-0.01-2.02-0.01-3.03-0.02c5.38-2.3,10.75-4.61,16.13-6.91
		C724.64,591.29,720.28,593.6,715.91,595.9z"/>
	<path class="st52" d="M458.56,390.5c6.8-38.82,20.63-74.05,52.18-99.82c6.88-5.62,14.93-9.81,22.43-14.66
		c13.67-4.1,21.53,2.33,26.04,10.3c2.31,4.08,2.92,9.12,4.3,13.73c0.49,6.47,1.38,12.93,1.38,19.4c0,8.81-0.68,17.61-1.06,26.42
		c-1.28,7.09-2.62,14.17-3.76,21.29c-0.19,1.16,0.56,2.47,0.88,3.71c-1.69,4-3.38,8.01-5.07,12.01
		c-6.69,10.21-12.93,20.75-20.23,30.5c-4.77,6.36-11.09,11.56-16.71,17.28c-2.39,0.6-4.87,0.94-7.14,1.82
		c-16.87,6.6-33.55,3.64-44.31-12.41C461.44,411.08,459.44,400.99,458.56,390.5z M534.73,363.17c-10.34-14.8-20.1-28.76-30.43-43.54
		c-5.44,4.86-9.96,8.73-14.21,12.87c-0.69,0.68-0.77,2.92-0.19,3.83c8.08,12.62,16.27,25.17,24.64,37.6
		c0.64,0.94,3.39,1.65,4.22,1.08C523.96,371.49,528.9,367.57,534.73,363.17z"/>
	<path class="st0" d="M750.84,534.31c0.01,0.51,0.02,1.03,0.03,1.54c-1.28,1.79-2.78,3.45-3.81,5.38
		c-7.62,14.32-19.23,24.72-32.49,33.56c-1.34,0.89-2.44,2.13-3.65,3.2c-7.57,6.5-16.98,8.84-26.32,10.63
		c-23.34,4.46-46.48,3.68-69-4.7c-4.65-1.73-9.14-3.89-13.7-5.85c-15.68-8.77-28.83-20.34-39.09-35.13
		c-0.15-0.63-0.13-1.38-0.48-1.89c-6.2-9.15-10.53-19.14-13.18-29.84c-1.25-5.06-2.2-10.21-3.28-15.31
		c-0.79-13.61-0.39-27.12,3.93-40.21c4.29-12.98,12.56-23.57,20.91-34.08c1.33-1.67,2.74-3.27,4.11-4.9
		c0.31,0.1,0.62,0.15,0.94,0.16c1.77-0.28,3.55-0.57,5.32-0.85c-1.15,1.58-2.17,3.28-3.48,4.71
		c-14.44,15.81-22.83,34.34-23.59,55.76c-1.21,34.19,13.02,61.58,39.97,81.72c32.23,24.08,67.96,29.14,105.55,14.11
		c22.91-9.16,39.11-25.92,49.12-48.54c0.43,3.31,0.85,6.63,1.28,9.94C750.24,533.91,750.54,534.11,750.84,534.31z"/>
	<path class="st40" d="M561.86,390.41c4.34-9.51,8.67-19.02,13.01-28.53c2.2-4.69,4.41-9.38,6.74-14.35
		c1.15,2.43,2.15,4.69,3.26,6.87c5.23,10.24,12.31,18.43,23.93,21.61c1.23,0.68,2.46,1.35,4.11,2.26c-4.3,2.7-8.19,5.14-12.07,7.57
		c-11.55,8.8-23.09,17.61-34.66,26.38c-1.48,1.12-2.45,4.17-5.13,1.64C561.31,406.05,561.59,398.23,561.86,390.41z"/>
	<path class="st102" d="M575.77,416.86c-0.32-0.01-0.63-0.06-0.94-0.16c0.43-1.45,0.41-3.35,1.36-4.29
		c10.29-10.21,22.29-17.83,35.79-23.14c3.62-1.42,7.06-3.3,10.2-5.94c-3.86,1.35-7.72,2.71-11.59,4.06
		c8.95-7.05,19.56-9.69,30.39-12.34c-2.36-0.39-4.73-0.78-7.1-1.17c0-0.34,0-0.67,0-1.01c0.25-0.22,0.46-0.57,0.74-0.64
		c14.68-3.58,29.6-3.02,44.46-2.13c6.34,0.38,12.58,2.42,18.86,3.7c-4.1,2.34-8.21,4.68-12.79,7.3c1.94,1.53,2.8,2.21,3.66,2.88
		c-0.66-0.05-1.35,0-1.98-0.17c-16.28-4.46-32.66-3.86-49.07-0.9c-1.07,0.19-1.99,1.25-2.97,1.9c-3.19,0.73-6.39,1.46-9.58,2.18
		c-5.75,2.36-11.49,4.72-17.24,7.07C596.13,400.13,584.63,406.63,575.77,416.86z"/>
	<path class="st0" d="M458.56,390.5c0.89,10.48,2.89,20.57,8.92,29.57c10.77,16.06,27.45,19.01,44.31,12.41
		c2.27-0.89,4.76-1.23,7.14-1.82c-5.69,4.08-11.37,8.15-17.06,12.23c-1.46,0.22-3.02,0.18-4.35,0.71
		c-12.75,5.04-23.33,1.11-32.38-8.09c-3.78-3.85-6.85-8.4-10.24-12.63c-0.09-1.94-0.18-3.88-0.27-5.82
		C455.93,408.21,457.25,399.36,458.56,390.5z"/>
	<path class="st103" d="M555.88,382.89c1.69-4,3.38-8.01,5.07-12.01c2.72-6.64,5.43-13.28,8.15-19.92c1.31-4.75,2.61-9.5,3.92-14.25
		c0.96-5.62,1.92-11.23,2.88-16.85c2.12-10.57,1.25-20.9-2.48-31c-0.85-2.31-1.73-4.6-2.6-6.9c0.36-0.02,0.72-0.04,1.08-0.07
		c0.67,1.66,1.34,3.31,2.01,4.97c1.34,2.52,2.67,5.04,4.01,7.55c0.2-0.04,0.4-0.07,0.6-0.11c-0.2-2.14-0.41-4.28-0.61-6.42
		c0.31-0.17,0.63-0.33,0.94-0.5c0.96,1.5,2.53,2.91,2.78,4.52c2.6,16.58,1.14,32.94-3.36,49.05c-0.16,0.57-0.68,1.04-1.49,2.22
		c-0.45-1.75-0.72-2.81-1.11-4.35c-0.67,1.3-1.29,2.24-1.68,3.27c-4.39,11.59-8.62,23.24-13.22,34.74
		C559.86,379.15,557.55,380.89,555.88,382.89z"/>
	<path class="st104" d="M633.88,372.88c0,0.34,0,0.67,0,1.01c-13.54,3.03-22.33-5.97-31.37-13.16
		c-8.96-7.12-12.31-17.51-12.64-28.84c0,0,0.02-0.01,0.02-0.01c3.49,11.81,7.54,23.2,18.24,30.85
		C615.93,368.31,623.82,373.24,633.88,372.88z"/>
	<path class="st105" d="M561.86,390.41c-0.27,7.82-0.55,15.63-0.82,23.45c-8.52-5.38-9.27-8.23-4.09-16.82
		C558.36,394.7,560.21,392.62,561.86,390.41z"/>
	<path class="st104" d="M583.75,278.03c0.3,1,0.61,1.99,0.91,2.99c0.26,1.64,0.37,3.32,0.82,4.9c3.48,12.41,4.44,25.11,4.44,37.93
		c0,2.68-0.01,5.35-0.01,8.03c0,0-0.02,0.01-0.02,0.01c-0.66-2.85-1.95-5.71-1.87-8.54c0.39-15.4-2.27-30.34-6.04-45.16
		c-0.2-0.78,0-1.66,0.01-2.49C582.57,276.49,583.16,277.26,583.75,278.03z"/>
	<path class="st106" d="M608.8,376.01c-11.61-3.18-18.7-11.37-23.93-21.61c-1.12-2.19-2.11-4.44-3.26-6.87
		c-2.33,4.97-4.54,9.66-6.74,14.35c1.96-6.09,3.93-12.17,6.37-19.75c5.55,15.29,13.11,27.13,27.59,32.84
		C608.82,375.32,608.81,375.67,608.8,376.01z"/>
	<path class="st107" d="M545.87,495.9c1.08,5.11,2.03,10.25,3.28,15.31c2.65,10.7,6.98,20.69,13.18,29.84
		c0.34,0.5,0.33,1.25,0.48,1.89c-0.64-0.35-1.28-0.7-1.92-1.04c-0.62-0.39-1.24-0.79-1.86-1.18c-1.39-2.93-2.79-5.87-4.18-8.8
		c-2.78-8.9-5.73-17.76-8.25-26.73C545.77,502.25,546.08,499,545.87,495.9z"/>
	<path class="st108" d="M573.91,286.86c-0.67-1.66-1.34-3.31-2.01-4.97c2.91-3.01,5.81-6.02,8.72-9.03
		c0.11,0.31,0.22,0.62,0.33,0.93C581.43,279.68,578.58,283.77,573.91,286.86z"/>
	<path class="st109" d="M608.8,376.01c0.01-0.34,0.02-0.69,0.03-1.03c2.59,0.78,5.19,1.55,7.78,2.33c0.1,0.5,0.21,1.01,0.31,1.51
		c-5.36,2.34-10.72,4.69-16.08,7.03c3.89-2.44,7.78-4.88,12.07-7.58C611.25,377.36,610.02,376.69,608.8,376.01z"/>
	<path class="st110" d="M580.94,273.8c-0.11-0.31-0.22-0.62-0.33-0.93c-2.97-4.63-5.93-9.26-8.9-13.89c0.4-0.03,0.8-0.06,1.2-0.1
		c3.25,4.84,6.59,9.61,9.68,14.55c0.8,1.28,0.79,3.06,1.15,4.61c-0.59-0.77-1.18-1.55-1.77-2.32
		C581.63,275.08,581.29,274.44,580.94,273.8z"/>
	<path class="st111" d="M560.89,541.89c0.64,0.35,1.28,0.7,1.92,1.04c10.26,14.79,23.42,26.36,39.09,35.13c0,0.94,0,1.87-0.01,2.8
		c-0.35,0.01-0.7,0.02-1.05,0.02c-15.13-8.53-27.38-20.24-37.62-34.15C562.18,545.33,561.65,543.52,560.89,541.89z"/>
	<path class="st112" d="M938.06,318.93c-3.73,12.39-8.43,24.59-10.97,37.22c-3.85,19.17-6.19,38.65-9.2,57.99
		c-0.15,0.96-0.53,1.88-0.8,2.82c-0.78-0.49-1.84-1.59-2.31-1.37c-5.02,2.31-9.96,4.82-14.91,7.27c-2.08,0.54-4.13,1.21-6.23,1.61
		c-12.97,2.49-25.87,6.16-38.95,7.09c-18.45,1.31-36.72-1.35-53.58-9.8c-10.01-5.02-18.02-12.38-23.42-22.32
		c-6.89-12.7-8.9-26.56-9.86-40.74c-0.6-8.9-1.24-17.86-2.88-26.6c-1.98-10.57-14.46-16.77-25.08-13.22
		c-14.68,2.17-29.39,4.22-44.05,6.56c-12.77,2.04-25.54,4.82-38.18-0.24c-3.13-1.25-5.86-3.49-8.77-5.27
		c-0.29-0.75-0.36-1.8-0.91-2.21c-11.94-8.81-12.94-21.35-10.62-34.23c3.19-17.65,10.8-33.89,17.57-50.41
		c3.14-7.66,4.87-15.94,6.69-24.06c0.8-3.55,0.23-7.41-0.63-11.64c3.25,1.22,6.16,2.42,9.08,3.64c0.7-5.77-2.26-8-10.79-7.5
		c1.8,0.9,3,1.51,4.44,2.23c-0.87,0.27-1.54,0.47-2.72,1.63c-1.3,2.91-3.33,4.55-7.02,2.38c-1.75-1.03-4.68-0.15-7.07-0.01
		c-5.4,0.31-10.8,0.71-16.2,1.07c16.86-6.61,33.39-14.27,50.65-19.58c27.61-8.5,55.7-15.43,83.58-23.03
		c6.09,6.86,6.73,14.69,2.88,22.53c-3.88,7.88-9.24,15.04-12.93,22.98c-3.09,6.66-5.83,13.86-6.72,21.06
		c-1.2,9.68,5.19,15.19,15.15,16.21c13.31,1.36,25.83-2.77,38.68-4.58c16.36-2.3,32.69-5.74,49.3-1.66
		c6.24,1.54,11.33,4.48,14.6,10.16c0.41,3.56,1.55,7.21,1.11,10.66c-1.71,13.51-4.3,26.92-5.8,40.46
		c-0.84,7.57-1.85,15.66,4.69,21.87c8.71,14.35,19.41,15.15,35.84,13.5C914.73,330.08,926.54,324.84,938.06,318.93z"/>
	<path class="st112" d="M842.01,174.93c4.81,1.18,9.43,1.55,13.32,3.41c9,4.31,12.42,12.46,2.58,19.65
		c-9.42,6.89-20.39,10.27-32.34,9.23c-7.28-0.63-11.21-3.75-12.19-9.58c-1.19-7.13,3.34-16.14,9.99-18.31
		C829.46,177.35,835.85,176.34,842.01,174.93z"/>
	<path class="st112" d="M900.34,291.87c-5.6-0.03-10.08-3.71-9.95-9.49c0.22-9.82,2.24-19.41,8.8-27.31
		c3.59-4.32,8.19-7.29,13.9-5.83c5.76,1.47,7.18,6.81,8.4,11.93c4.07,17.09-6.25,27.53-19.16,30.4
		C901.53,291.76,900.7,291.82,900.34,291.87z"/>
	<path class="st113" d="M865.87,317.9c-6.54-6.21-5.53-14.3-4.69-21.87c1.51-13.53,4.09-26.94,5.8-40.46
		c0.44-3.45-0.7-7.1-1.11-10.66c1,1.66,2.01,3.32,3.01,4.98c-0.18,9.05,0.14,18.15-0.71,27.14c-0.7,7.36-2.81,14.58-4.29,21.86
		C861.21,305.58,863.85,311.7,865.87,317.9z"/>
	<path class="st114" d="M863.88,298.89c1.48-7.28,3.59-14.51,4.29-21.86c0.85-8.99,0.53-18.09,0.71-27.14
		c3.97,7.4,3.7,15.19,2.01,23.05c-1.69,7.87-3.53,15.7-5.4,23.53C865.28,297.36,864.44,298.09,863.88,298.89z"/>
	<path class="st112" d="M866.23,519.21c-16.98,0.47-23.04-14.73-20.83-28.5c0.98-6.12,4.41-12,7.48-17.59
		c3.63-6.61,10.5-8.47,17.36-9.12c6.77-0.63,14.66,6.96,16.36,15.7c2.88,14.77-0.57,28.91-14.19,38.36
		C870.85,519.17,868.32,518.87,866.23,519.21z"/>
	<path class="st112" d="M721.38,375.9c-9.3-0.05-16.76-5.42-17.47-11.05c-0.91-7.23,7.34-18.09,16.44-21.65
		c7.78-3.04,16.79-0.24,21.53,6.69c3.61,5.27,3.86,8.98-0.1,14.02C736.11,371.14,728.37,374.93,721.38,375.9z"/>
	<path class="st112" d="M598.12,347.97c0.98-0.79,2.08-1.48,2.92-2.4c5.19-5.7,11.79-8.51,19.32-8.53c4.34-0.01,8.16,2.38,9.74,6.59
		c1.9,5.05,1.49,10.3-2.19,14.49c-2.24,2.55-5.32,4.35-8.03,6.49C609.64,362.97,602.55,357.21,598.12,347.97z"/>
	<path class="st115" d="M630.83,226.91c-4.07,5.05-6.92,9.51-10.66,13c-5.19,4.84-11.67,6.93-18.77,4.85
		c-1.27-0.37-2.79-2.57-2.84-3.97c-0.38-10.49,17.02-21.06,25.94-18.69C626.44,222.62,627.97,224.68,630.83,226.91z"/>
	<path class="st114" d="M739.87,318.88c10.61-3.54,23.09,2.66,25.08,13.22c1.64,8.74,2.28,17.7,2.88,26.6
		c0.96,14.18,2.97,28.04,9.86,40.74c5.39,9.94,13.41,17.3,23.42,22.32c16.87,8.45,35.14,11.11,53.58,9.8
		c13.09-0.93,25.98-4.6,38.95-7.09c2.1-0.4,4.16-1.07,6.23-1.61c-8.8,2.67-17.44,6.25-26.44,7.78c-10.06,1.72-20.47,2.48-30.66,2.06
		c-17.76-0.74-35.48-2.99-50.53-13.74c-10.83-7.73-18.27-18.16-22.11-31.04c-4.04-13.55-4.46-27.53-5.34-41.49
		c-0.33-5.17-1.33-10.4-2.81-15.37c-2.5-8.4-6.23-10.86-14.8-11.2C744.73,319.76,742.31,319.22,739.87,318.88z"/>
	<path class="st116" d="M661.89,197.89c-0.05,3.72,0.52,7.57-0.28,11.12c-1.82,8.12-3.55,16.41-6.69,24.06
		c-6.77,16.51-14.38,32.76-17.57,50.41c-2.33,12.88-1.32,25.42,10.62,34.23c0.55,0.4,0.62,1.46,0.91,2.21
		c-9.48-4.76-15.65-17.65-14.33-29.4c1.94-17.33,7.97-33.39,15.05-49.18c4.12-9.18,8.74-18.28,8.34-28.85
		c-0.25-6.75-3.6-10.5-10.48-10.55c-5.28-0.04-10.56,0.59-15.84,0.77c-1.57,0.05-3.17-0.4-4.75-0.62c1.27-0.43,2.55-0.86,3.82-1.29
		c5.4-0.36,10.8-0.75,16.2-1.07c2.39-0.14,5.32-1.02,7.07,0.01C657.64,201.93,659.67,200.28,661.89,197.89z"/>
	<path class="st117" d="M598.12,347.97c4.43,9.25,11.52,15.01,21.76,16.64c12.19,3.77,24.6,5.11,37.33,3.76
		c14.57-1.54,28.78,1.07,42.87,4.47c0.76,0.18,1.31,1.26,1.96,1.92c-1.37-0.31-2.74-0.62-4.1-0.94c-6.28-1.28-12.52-3.32-18.86-3.7
		c-14.85-0.9-29.78-1.45-44.46,2.13c-0.28,0.07-0.5,0.42-0.74,0.64c-10.06,0.35-17.95-4.57-25.74-10.14
		c-10.7-7.65-14.76-19.04-18.24-30.85c0-2.68,0.01-5.35,0.01-8.03c0.3,0.06,0.59,0.12,0.89,0.2c2.03,6.95,4.06,13.89,6.09,20.84
		C597.3,345.92,597.71,346.94,598.12,347.97z"/>
	<path class="st118" d="M697.94,373.82c1.37,0.31,2.74,0.62,4.1,0.93c3.61,1.06,7.23,2.12,10.84,3.17c0.01,0.35,0.02,0.69,0.02,1.04
		c-3.01,3.3-6.02,6.61-9.02,9.91c-0.35,0.29-0.69,0.59-1.04,0.88c-3.98-1.57-7.96-3.14-11.94-4.71c-0.7-0.35-1.4-0.69-2.1-1.04
		c-0.86-0.68-1.72-1.36-3.66-2.88C689.73,378.51,693.83,376.17,697.94,373.82z"/>
	<path class="st119" d="M754.87,405.91c2.7,3.51,5.46,6.97,8.05,10.55c0.91,1.27,1.39,2.85,2.07,4.29
		c-2.36-2.64-4.72-5.28-7.08-7.92c-6.9-9.92-16.79-16.56-26.13-23.79c0.04-0.4,0.08-0.8,0.12-1.2c6.05,4.58,12.11,9.14,18.12,13.77
		C751.73,402.93,753.26,404.48,754.87,405.91z"/>
	<path class="st120" d="M590.8,324.06c-0.29-0.08-0.59-0.14-0.89-0.2c0.01-12.82-0.96-25.52-4.44-37.93
		c-0.44-1.59-0.55-3.27-0.82-4.9c2.06,6.32,4.97,12.51,5.95,19c1.06,7.11,0.33,14.48,0.38,21.74
		C590.92,322.53,590.86,323.29,590.8,324.06z"/>
	<path class="st97" d="M787.87,505.88c2.09-14.05,0.84-28.02-0.99-41.98C790.44,477.81,792.3,491.77,787.87,505.88z"/>
	<path class="st121" d="M731.9,387.85c-0.04,0.4-0.08,0.8-0.12,1.2c-6.29-3.36-12.58-6.72-18.87-10.08
		c-0.01-0.34-0.02-0.69-0.02-1.04C719.22,381.24,725.56,384.55,731.9,387.85z"/>
	<path class="st122" d="M590.8,324.06c0.06-0.76,0.13-1.53,0.19-2.29c1.97,7.71,3.93,15.42,5.9,23.13
		C594.85,337.95,592.83,331,590.8,324.06z"/>
	<path class="st123" d="M1040.78,178.81c-4.95,8.32-10,16.59-14.81,24.99c-3.19,5.58-5.93,11.42-9.16,16.98
		c-0.64,1.09-2.62,1.41-3.98,2.08c5.94-10.72,11.77-21.51,17.86-32.14c3.11-5.44,6.68-10.62,10.05-15.92
		C1040.75,176.14,1040.76,177.47,1040.78,178.81z"/>
	<path class="st6" d="M211.99,373.89c-0.14-0.66-0.27-1.32-0.41-1.98c3.8,3.68,8.23,6.91,11.3,11.13
		c17.34,23.83,26.9,51.07,32.77,79.57c4.21,20.44,6.9,41.19,10.2,61.81c4.71,29.47,7.75,59.33,14.42,88.35
		c7.98,34.68,22.23,67.2,43.58,96.13c14.04,19.02,30.45,35.61,50.7,48.13c1.08,0.67,2.05,1.51,4.08,3.03
		c-3.53,0.81-6.04,1.38-8.55,1.96c-4.85-2.43-9.99-4.42-14.5-7.37c-25.06-16.4-44.43-38-58.61-64.4
		c-13.33-24.83-20.89-51.52-25.97-79c-2.76-14.94-4.92-29.99-7.1-45.03c-2.46-17-4.88-34.01-6.9-51.06
		c-2.93-24.66-6.62-49.15-13.08-73.17c-6.17-22.93-15.21-44.6-28.11-64.58C214.9,375.98,213.28,375.04,211.99,373.89z"/>
	<path class="st124" d="M302.67,618.93c2.57-7.78,4.87-14.78,7.37-22.36C312.99,600.57,307.81,616.01,302.67,618.93z"/>
	<path class="st3" d="M573.01,336.7c-1.31,4.75-2.61,9.5-3.92,14.25c-1.61,2.68-3.21,5.36-4.2,7.02c0-3.4,0-7.74,0-12.08
		c0.34-2.67,0.68-5.33,1.02-8c0.32-1.55,0.9-3.1,0.93-4.65c0.1-7.24,0.11-14.49,0-21.74c-0.03-1.88-0.61-3.75-0.94-5.63
		c-0.8-1.94-1.6-3.88-2.4-5.83c-1.38-4.61-1.99-9.65-4.3-13.73c-4.51-7.98-12.37-14.4-26.04-10.3c-9.13,0.88-15.63,6.76-22.04,12.3
		c-7.71,6.66-14.83,14.03-22.12,21.17c-1.26,1.24-2.09,2.91-3.12,4.38c0-2.33,0-4.67,0-7c1.34-0.34,3.12-0.25,3.93-1.09
		c4.32-4.5,8.4-9.23,12.54-13.9c1.84-2.07,3.62-4.19,5.44-6.29c11.7-10.04,24.33-18.33,40.59-16.49c5.28,0.6,10.26,3.92,15.37,5.99
		c3.05,5.92,6.1,11.84,9.14,17.76c0.32,11.17,0.72,22.34,0.9,33.51C573.86,329.82,573.29,333.27,573.01,336.7z"/>
	<path class="st71" d="M507.8,285.62c-1.81,2.1-3.6,4.21-5.44,6.29c-4.14,4.67-8.23,9.39-12.54,13.9c-0.81,0.84-2.6,0.75-3.93,1.09
		c0.65-2.33,1.3-4.66,1.95-6.99c0.07,1.13,0.15,2.27,0.29,4.42c1.94-2.23,3.37-3.87,4.8-5.52
		C497.89,294.41,502.84,290.01,507.8,285.62z"/>
	<path class="st125" d="M573.01,336.7c0.28-3.44,0.84-6.88,0.79-10.32c-0.18-11.17-0.58-22.34-0.9-33.51
		c0.98,7.19,2,14.38,2.9,21.58c0.22,1.78,0.07,3.6,0.08,5.41C574.93,325.47,573.97,331.09,573.01,336.7z"/>
	<path class="st2" d="M625.21,387.02c3.19-0.73,6.39-1.46,9.58-2.18c1.06,0.07,2.12,0.15,3.18,0.22c17.22-1.98,34.27-1.83,50.9,3.9
		c0.95,0.41,1.89,0.82,2.84,1.23c9.77,6.49,20.49,11.92,29.13,19.68c18.76,16.84,27.56,39.69,33.8,63.4
		c2.51,9.56,2.99,19.66,4.39,29.51c-1.15,6.24-2.27,12.49-3.46,18.73c-0.42,2.21-1.01,4.39-1.52,6.58
		c-1.07,2.07-2.14,4.15-3.21,6.22c-0.3-0.2-0.6-0.4-0.9-0.6c0.32-13.22,0.68-26.44,0.9-39.66c0.03-1.7-0.66-3.41-1.01-5.12
		c-1.08-13.4-5.16-25.97-10.47-38.21c-7.68-17.7-20.1-31.44-35.53-42.69c-6.31-3.38-12.63-6.77-18.94-10.15
		c-2.35-0.68-4.66-1.65-7.05-2c-7.63-1.1-15.29-1.98-22.94-2.94c-4.31,0.17-8.67,0.01-12.93,0.56c-22,2.84-41.65,12.13-60.88,22.5
		c-1.77,0.28-3.55,0.57-5.32,0.85c8.86-10.24,20.37-16.73,32.2-22.77C613.71,391.74,619.46,389.38,625.21,387.02z"/>
	<path class="st126" d="M754.87,445.92c0.04-0.4,0.07-0.79,0.11-1.19c0.95,1.58,2.34,3.05,2.77,4.77c1.86,7.43,3.44,14.93,5.12,22.4
		c-0.65,12-1.3,24-1.95,36.01c-0.09,0.65-0.19,1.3-0.28,1.95c-0.26-2.3-0.51-4.6-0.77-6.91c0.67-6.06,2.06-12.14,1.85-18.17
		c-0.41-12.05-1.96-24.03-6.14-35.49C755.18,448.22,755.09,447.04,754.87,445.92z"/>
	<path class="st127" d="M690.9,385.05c3.98,1.57,7.96,3.14,11.94,4.71c7.68,4.71,15.36,9.42,23.04,14.13
		c0.64,1.03,1.27,2.07,1.91,3.1c-3.4-2.25-6.64-4.78-10.22-6.68c-7.48-3.98-15.14-7.63-22.72-11.41c-1.68-0.97-3.37-1.94-5.05-2.91
		C690.17,385.67,690.53,385.36,690.9,385.05z"/>
	<path class="st128" d="M689.8,385.99c1.68,0.97,3.37,1.94,5.05,2.91c-1.05,0.43-2.1,0.87-3.14,1.3c-0.95-0.41-1.9-0.82-2.84-1.23
		c-1.42-0.76-2.76-1.83-4.27-2.23c-5.2-1.4-10.47-2.56-15.71-3.82C675.86,383.93,682.83,384.96,689.8,385.99z"/>
	<path class="st129" d="M759.86,502.95c0.26,2.3,0.52,4.6,0.77,6.91c-0.27,1.31-0.55,2.62-0.82,3.94c-0.99,3.57-1.83,7.2-3.04,10.69
		c-0.47,1.35-1.79,2.41-2.72,3.6c0.51-2.19,1.09-4.37,1.52-6.58c1.19-6.24,2.31-12.49,3.46-18.73
		C759.3,502.85,759.58,502.9,759.86,502.95z"/>
	<path class="st130" d="M727.8,406.99c-0.64-1.03-1.27-2.07-1.91-3.1c6.33,3.69,12.56,7.47,14.94,15.07
		C736.48,414.97,732.14,410.98,727.8,406.99z"/>
	<path class="st131" d="M762.86,471.91c-1.68-7.47-3.26-14.97-5.12-22.4c-0.43-1.71-1.82-3.18-2.77-4.77
		c-0.68-2.62-1.35-5.25-2.03-7.87c1.55,2.2,3.87,4.2,4.5,6.64c2.42,9.4,4.3,18.93,6.39,28.41
		C763.51,471.9,763.18,471.9,762.86,471.91z"/>
	<path class="st132" d="M762.86,471.91c0.32-0.01,0.65,0,0.97,0.01c1.44,11.4,1.09,22.69-1.95,33.83c-0.21,0.75-0.64,1.45-0.97,2.17
		C761.56,495.91,762.21,483.91,762.86,471.91z"/>
	<path class="st2" d="M534.73,363.17c-5.83,4.4-10.77,8.32-15.97,11.85c-0.83,0.56-3.58-0.14-4.22-1.08
		c-8.37-12.43-16.56-24.98-24.64-37.6c-0.58-0.91-0.51-3.15,0.19-3.83c4.25-4.14,8.77-8.01,14.21-12.87
		C514.63,334.4,524.39,348.37,534.73,363.17z"/>
	<path class="st133" d="M564.89,345.9c0,4.34,0,8.68,0,12.08c0.99-1.66,2.6-4.34,4.2-7.02c-2.72,6.64-5.43,13.28-8.15,19.92
		c-0.32-1.24-1.06-2.55-0.88-3.71c1.13-7.11,2.48-14.2,3.76-21.29C564.18,345.89,564.54,345.89,564.89,345.9z"/>
	<path class="st134" d="M564.89,345.9c-0.36-0.01-0.71-0.01-1.07-0.02c0.39-8.81,1.06-17.61,1.06-26.42c0-6.47-0.89-12.93-1.38-19.4
		c0.8,1.94,1.6,3.88,2.4,5.83c0,10.67,0.01,21.34,0.01,32.02C565.57,340.57,565.23,343.23,564.89,345.9z"/>
	<path class="st52" d="M703.83,408.04c15.43,11.25,27.85,24.99,35.53,42.69c5.31,12.24,9.39,24.81,10.47,38.21
		c-0.39,11.61-0.78,23.22-1.17,34.83c-10.02,22.62-26.21,39.38-49.12,48.54c-37.6,15.03-73.32,9.97-105.55-14.11
		c-26.95-20.13-41.18-47.52-39.97-81.72c0.76-21.42,9.15-39.95,23.59-55.76c1.31-1.43,2.33-3.13,3.48-4.71
		c19.24-10.37,38.89-19.66,60.88-22.5c4.26-0.55,8.62-0.39,12.93-0.56c9.97,2.04,19.95,4.09,29.92,6.13
		C691.15,402.07,697.49,405.06,703.83,408.04z M595.19,431.53c-0.82-0.2-1.64-0.41-2.46-0.61c-4.31,4.79-8.52,9.67-12.97,14.33
		c-2.26,2.36-2.29,4.15-0.37,6.86c10.2,14.37,20.27,28.83,30.17,43.4c1.77,2.6,3.29,2.94,5.55,1.22c4.76-3.61,9.58-7.18,14.12-11.05
		c0.79-0.67,1.04-3.19,0.42-4.1C618.28,464.82,606.72,448.19,595.19,431.53z"/>
	<path class="st135" d="M748.66,523.77c0.39-11.61,0.78-23.22,1.17-34.83c0.35,1.71,1.04,3.42,1.01,5.12
		c-0.22,13.22-0.58,26.44-0.9,39.66C749.51,530.4,749.09,527.08,748.66,523.77z"/>
	<path class="st136" d="M689.8,385.99c-6.97-1.03-13.94-2.05-20.92-3.08c-5.82-0.01-11.65-0.31-17.45,0.05
		c-4.52,0.28-8.98,1.37-13.47,2.1c-1.06-0.07-2.12-0.15-3.18-0.22c0.99-0.65,1.9-1.7,2.97-1.9c16.41-2.96,32.79-3.56,49.07,0.9
		c0.63,0.17,1.32,0.12,1.98,0.17c0.7,0.35,1.4,0.69,2.1,1.04C690.53,385.36,690.17,385.67,689.8,385.99z"/>
	<path class="st137" d="M625.21,387.02c-5.75,2.36-11.49,4.72-17.24,7.07C613.71,391.74,619.46,389.38,625.21,387.02z"/>
	<path class="st116" d="M660.05,196.86c2.1-0.65,2.77-0.85,3.64-1.12c-1.44-0.72-2.64-1.33-4.44-2.23c8.53-0.5,11.5,1.73,10.79,7.5
		C667.13,199.8,664.22,198.6,660.05,196.86z"/>
	<path class="st133" d="M565.92,337.9c0-10.67-0.01-21.34-0.01-32.02c0.33,1.88,0.91,3.75,0.94,5.63c0.11,7.24,0.1,14.49,0,21.74
		C566.82,334.81,566.24,336.35,565.92,337.9z"/>
	<path class="st138" d="M637.97,385.06c4.49-0.73,8.95-1.82,13.47-2.1c5.79-0.36,11.63-0.07,17.45-0.05
		c5.24,1.25,10.51,2.42,15.71,3.82c1.52,0.41,2.85,1.47,4.27,2.23C672.24,383.23,655.18,383.08,637.97,385.06z"/>
	<path class="st139" d="M684.81,399.08c-9.97-2.04-19.95-4.09-29.92-6.13c7.65,0.96,15.31,1.83,22.94,2.94
		c2.4,0.35,4.71,1.32,7.05,2C684.86,398.29,684.84,398.69,684.81,399.08z"/>
	<path class="st140" d="M684.81,399.08c0.02-0.4,0.05-0.79,0.07-1.19c6.31,3.38,12.63,6.77,18.94,10.15
		C697.49,405.06,691.15,402.07,684.81,399.08z"/>
	<path class="st2" d="M595.19,431.53c11.52,16.66,23.08,33.29,34.47,50.04c0.62,0.91,0.36,3.43-0.42,4.1
		c-4.55,3.87-9.36,7.44-14.12,11.05c-2.27,1.72-3.79,1.38-5.55-1.22c-9.9-14.57-19.97-29.03-30.17-43.4
		c-1.92-2.71-1.89-4.5,0.37-6.86c4.45-4.66,8.66-9.54,12.97-14.33C593.55,431.12,594.37,431.33,595.19,431.53z"/>
</g>
<polygon class="st6" points="879.63,1026.6 861.36,1021.64 857.68,1006.08 849.92,982.89 833.37,944.14 817.63,916.57 
	807.89,899.89 809.95,899.91 820.2,915.16 842.89,948.9 856.94,974.91 877.62,1024.39 "/>
</svg>
